<?xml version="1.0" encoding="utf-8"?>
<!-- Generator: Adobe Adobe Illustrator 24.2.0, SVG Export Plug-In . SVG Version: 6.00 Build 0)  -->
<svg version="1.1" id="Layer_1" xmlns="http://www.w3.org/2000/svg" xmlns:xlink="http://www.w3.org/1999/xlink" x="0px" y="0px"
	 width="600px" height="600px" viewBox="0 0 600 600" style="enable-background:new 0 0 600 600;" xml:space="preserve">
<style type="text/css">
</style>
<g>
	<path fill='#ffffff' class="st0" d="M300,44C158.6,44,44,158.6,44,300s114.6,256,256,256s256-114.6,256-256S441.4,44,300,44z M300,172
		c17.67,0,32,14.33,32,32s-14.33,32-32,32s-32-14.3-32-32S282.3,172,300,172z M340,428h-80c-13.2,0-24-10.7-24-24s10.75-24,24-24h16
		v-64h-8c-13.25,0-24-10.75-24-24s10.8-24,24-24h32c13.25,0,24,10.75,24,24v88h16c13.25,0,24,10.75,24,24S353.3,428,340,428z"/>
</g>
</svg>
