<?xml version="1.0" encoding="utf-8"?>
<!-- Generator: Adobe Adobe Illustrator 24.2.0, SVG Export Plug-In . SVG Version: 6.00 Build 0)  -->
<svg version="1.1" id="Layer_1" xmlns="http://www.w3.org/2000/svg" xmlns:xlink="http://www.w3.org/1999/xlink" x="0px" y="0px"
	 width="600px" height="600px" viewBox="0 0 600 600" style="enable-background:new 0 0 600 600;" xml:space="preserve">
<style type="text/css">
</style>
<g>
	<path fill='#935EBF' class="st0" d="M300,44C158.6,44,44,158.6,44,300s114.6,256,256,256s256-114.6,256-256S441.4,44,300,44z M300,172
		c39.77,0,72,32.24,72,72s-32.2,72-72,72c-39.76,0-72-32.24-72-72S260.2,172,300,172z M300,492c-52.93,0-100.9-21.53-135.7-56.29
		C180.5,393.9,220.5,364,268,364h64c47.54,0,87.54,29.88,103.7,71.71C400.9,470.5,352.9,492,300,492z"/>
</g>
</svg>
