<?xml version="1.0" encoding="utf-8"?>
<!-- Generator: Adobe Adobe Illustrator 24.2.0, SVG Export Plug-In . SVG Version: 6.00 Build 0)  -->
<svg version="1.1" id="Layer_1" xmlns="http://www.w3.org/2000/svg" xmlns:xlink="http://www.w3.org/1999/xlink" x="0px" y="0px"
	 width="600px" height="600px" viewBox="0 0 600 600" style="enable-background:new 0 0 600 600;" xml:space="preserve">
<style type="text/css">
</style>
<g>
	<path fill='#754C90' class="st1" d="M587.81,299.5c0,18-15,32.1-32,32.1h-32l0.7,160.1c0,2.8-0.2,5.4-0.5,8.1V516c0,22.1-17.9,40-40,40h-16
		c-1.1,0-2.2-0.9-3.3-0.1c-1.4-0.8-2.8,0.1-4.2,0.1h-56.5c-22.1,0-40-17.9-40-40v-88c0-17.7-14.3-32-32-32h-64
		c-17.7,0-32,14.3-32,32v88c0,22.1-17.9,40-40,40h-55.9c-1.5,0-3-0.1-4.5-0.2c-1.2,0.1-2.4,0.2-3.6,0.2h-16c-22.09,0-40-17.9-40-40
		V404c0-0.9,0.03-1.9,0.09-2.8v-69.6H44.06c-18.03,0-32.05-14.1-32.05-32.1c0-9,3-17,10.01-24L278.41,52.02c7-7.01,15-8.02,22-8.02
		s15,2,21.1,7.01l255.3,224.49C584.81,282.5,588.91,290.5,587.81,299.5L587.81,299.5z"/>
</g>
</svg>
