<svg width="834" height="2125" viewBox="0 0 834 2125" fill="none" xmlns="http://www.w3.org/2000/svg">
<rect width="834" height="2125" fill="white"/>
<path d="M250 1804C275.2 1760.4 342.167 1648.5 372.5 1598C390.667 1604.5 428.1 1619.9 432.5 1629.5C436.9 1639.1 428.333 1654.5 423.5 1661C418.7 1658.6 416.167 1649 415.5 1644.5C415.9 1649.3 412.667 1659.5 411 1664C406 1679 398 1690.5 396 1689.5C394.4 1688.7 390.833 1674.83 394.5 1667C389.117 1678.5 364.053 1739.93 355 1769C345.5 1799.5 339.5 1852 347.5 1873.5C355.982 1896.29 362.833 1906.83 362.5 1913C350.911 1914.13 340.637 1906.34 333.901 1898.73C371.96 1953.69 353.393 1988.57 338.5 1999.5C222 1993.5 218.5 1858.5 250 1804Z" fill="#E7A355"/>
<path d="M372.5 1598C342.167 1648.5 275.2 1760.4 250 1804C218.5 1858.5 222 1993.5 338.5 1999.5C354.167 1988 373.9 1950 327.5 1890C332.333 1898.33 346.1 1914.6 362.5 1913C362.833 1906.83 355.982 1896.29 347.5 1873.5C339.5 1852 345.5 1799.5 355 1769C364.053 1739.93 389.117 1678.5 394.5 1667C390.833 1674.83 394.4 1688.7 396 1689.5C398 1690.5 406 1679 411 1664C412.667 1659.5 415.9 1649.3 415.5 1644.5C416.167 1649 418.7 1658.6 423.5 1661C428.333 1654.5 436.9 1639.1 432.5 1629.5C428.1 1619.9 390.667 1604.5 372.5 1598Z" stroke="#683D0B" stroke-width="9" stroke-linejoin="round"/>
<path d="M541.397 1526.5C578.064 1540 639.597 1581.1 592.397 1637.5L575.397 1655.5C596.064 1675.5 640.797 1725 654.397 1763C649.397 1772.83 631.197 1784.9 598.397 1754.5C594.397 1742.67 570.497 1710.3 506.897 1675.5L511.397 1652C467.098 1640.67 375.7 1613.2 364.5 1594C353.3 1574.8 346.167 1452.17 346 1393C411.333 1361.67 514 1313.5 519 1390.5C523.776 1464.05 533.598 1513.17 541.397 1526.5Z" fill="#E7A355"/>
<path d="M541.397 1526.5C578.064 1540 639.597 1581.1 592.397 1637.5L575.397 1655.5C596.064 1675.5 640.797 1725 654.397 1763C649.397 1772.83 631.197 1784.9 598.397 1754.5C594.397 1742.67 570.497 1710.3 506.897 1675.5L511.397 1652M541.397 1526.5L511.397 1652M541.397 1526.5C533.598 1513.17 523.776 1464.05 519 1390.5C514 1313.5 411.333 1361.67 346 1393C346.167 1452.17 353.3 1574.8 364.5 1594C375.7 1613.2 467.098 1640.67 511.397 1652" stroke="#E7A355" stroke-width="10" stroke-linecap="round" stroke-linejoin="round"/>
<path d="M467.5 1577.5C405.9 1585.9 393.833 1478.67 395.5 1424L499 1398C498.5 1412.83 500.9 1456.5 514.5 1512.5C528.1 1568.5 488.833 1579.17 467.5 1577.5Z" fill="#F2CEA4"/>
<path d="M351.898 1622C347.898 1616.4 358.231 1591.67 363.898 1580L388.898 1486.5C405.698 1467.7 430.898 1462.33 441.398 1462C524.663 1468.4 476.091 1551 441.398 1591.5C521.969 1602.94 537.237 1615.37 558.557 1632.72L558.898 1633C576.098 1647 551.731 1656.83 537.398 1660C518.398 1644.5 356.898 1629 351.898 1622Z" fill="#E7A355" stroke="#E7A355" stroke-width="10" stroke-linecap="round" stroke-linejoin="round"/>
<path d="M511.396 1652L506.896 1675.5C570.496 1710.3 594.396 1742.67 598.396 1754.5C631.196 1784.9 649.397 1772.83 654.397 1763C640.797 1725 596.063 1675.5 575.396 1655.5L592.396 1637.5C639.596 1581.1 578.063 1540 541.396 1526.5C533.999 1499.5 526.499 1476 521.499 1401" stroke="#683D0B" stroke-width="10" stroke-linecap="round" stroke-linejoin="round"/>
<path d="M363.897 1580C362.387 1583.11 360.546 1587.15 358.733 1591.5M388.897 1486.5C405.697 1467.7 430.897 1462.33 441.397 1462C524.662 1468.4 476.091 1551 441.397 1591.5C522.397 1603 537.397 1615.5 558.897 1633C576.097 1647 551.73 1656.83 537.397 1660C518.397 1644.5 356.897 1629 351.897 1622C348.963 1617.89 353.741 1603.49 358.733 1591.5M358.733 1591.5C353.189 1538.17 343.081 1427.6 346.999 1412" stroke="#683D0B" stroke-width="10" stroke-linecap="round" stroke-linejoin="round"/>
<path d="M351.501 1107C332.301 1157.4 332.168 1223.33 334.501 1250C333.624 1288.16 333.843 1345.59 336.964 1402.5H521.361C515.406 1352.77 507.01 1290.89 504.501 1256C511.103 1248.91 519.454 1244 523.001 1231.5C533.501 1194.5 523.501 1180 514.501 1158.5C508.432 1144 491.668 1110 483.501 1094.5C475.101 1105.3 465.001 1130 461.001 1141C433.801 1140.2 402.001 1145 389.501 1147.5C381.901 1135.1 361.001 1115.33 351.501 1107Z" fill="#E7A355"/>
<path d="M468.501 1272C477.052 1269.43 492.698 1268.68 504.501 1256M504.501 1256C511.103 1248.91 519.454 1244 523.001 1231.5C533.501 1194.5 523.501 1180 514.501 1158.5C508.432 1144 491.668 1110 483.501 1094.5C475.101 1105.3 465.001 1130 461.001 1141C433.801 1140.2 402.001 1145 389.501 1147.5C381.901 1135.1 361.001 1115.33 351.501 1107C332.301 1157.4 332.168 1223.33 334.501 1250C333.624 1288.16 333.843 1345.59 336.964 1402.5H521.361C515.406 1352.77 507.01 1290.89 504.501 1256Z" stroke="#683D0B" stroke-width="10"/>
<path d="M433 1197C413.8 1200.6 397.667 1250.5 392 1275C443.2 1293 482 1271.17 495 1258L481.5 1217.5C475.9 1193.1 446.833 1193.67 433 1197Z" fill="#F2CEA4"/>
<ellipse cx="394" cy="1195.5" rx="9" ry="10.5" fill="black"/>
<ellipse cx="476" cy="1189.5" rx="9" ry="10.5" fill="black"/>
<path d="M426.017 1229C439.172 1235.1 447.194 1227.66 449.56 1223.17C453.532 1227.04 463.694 1232.28 472.567 1222.34" stroke="black" stroke-width="7" stroke-linecap="round" stroke-linejoin="round"/>
<path d="M446.577 1215.82C447.829 1216.89 449.705 1216.75 450.783 1215.51L455.73 1209.82C457.49 1207.8 455.915 1204.66 453.241 1204.86L442.55 1205.66C439.876 1205.87 438.79 1209.21 440.833 1210.94L446.577 1215.82Z" fill="black"/>
<path d="M290 1188C304.333 1189.83 337.2 1195.2 354 1202" stroke="#683D0B" stroke-width="7" stroke-linecap="round"/>
<path d="M355.01 1217.93C356.932 1218.13 358.652 1216.73 358.85 1214.81C359.048 1212.88 357.65 1211.16 355.727 1210.97L355.01 1217.93ZM290.539 1222.26C304.854 1220.03 337.492 1216.12 355.01 1217.93L355.727 1210.97C337.188 1209.05 303.702 1213.12 289.461 1215.34L290.539 1222.26Z" fill="#683D0B"/>
<path d="M572.402 1167C558.595 1171.26 527.134 1182.18 511.747 1191.76" stroke="#683D0B" stroke-width="7" stroke-linecap="round"/>
<path d="M513.482 1207.62C511.621 1208.15 509.688 1207.07 509.163 1205.21C508.638 1203.35 509.721 1201.41 511.582 1200.89L513.482 1207.62ZM577.741 1200.85C563.256 1201.1 530.431 1202.84 513.482 1207.62L511.582 1200.89C529.52 1195.83 563.208 1194.1 577.618 1193.85L577.741 1200.85Z" fill="#683D0B"/>
<mask id="path-20-inside-1_139_65" fill="white">
<path fill-rule="evenodd" clip-rule="evenodd" d="M419.5 1438C595.955 1438 739 1294.95 739 1118.5C739 942.045 595.955 799 419.5 799C243.045 799 100 942.045 100 1118.5C100 1294.95 243.045 1438 419.5 1438ZM418.5 1273C503.828 1273 573 1203.83 573 1118.5C573 1033.17 503.828 964 418.5 964C333.172 964 264 1033.17 264 1118.5C264 1203.83 333.172 1273 418.5 1273Z"/>
</mask>
<path fill-rule="evenodd" clip-rule="evenodd" d="M419.5 1438C595.955 1438 739 1294.95 739 1118.5C739 942.045 595.955 799 419.5 799C243.045 799 100 942.045 100 1118.5C100 1294.95 243.045 1438 419.5 1438ZM418.5 1273C503.828 1273 573 1203.83 573 1118.5C573 1033.17 503.828 964 418.5 964C333.172 964 264 1033.17 264 1118.5C264 1203.83 333.172 1273 418.5 1273Z" fill="#3C3C3C"/>
<path d="M726 1118.5C726 1287.78 588.775 1425 419.5 1425V1451C603.135 1451 752 1302.13 752 1118.5H726ZM419.5 812C588.775 812 726 949.225 726 1118.5H752C752 934.865 603.135 786 419.5 786V812ZM113 1118.5C113 949.225 250.225 812 419.5 812V786C235.865 786 87 934.865 87 1118.5H113ZM419.5 1425C250.225 1425 113 1287.78 113 1118.5H87C87 1302.13 235.865 1451 419.5 1451V1425ZM560 1118.5C560 1196.65 496.648 1260 418.5 1260V1286C511.008 1286 586 1211.01 586 1118.5H560ZM418.5 977C496.648 977 560 1040.35 560 1118.5H586C586 1025.99 511.008 951 418.5 951V977ZM277 1118.5C277 1040.35 340.352 977 418.5 977V951C325.992 951 251 1025.99 251 1118.5H277ZM418.5 1260C340.352 1260 277 1196.65 277 1118.5H251C251 1211.01 325.992 1286 418.5 1286V1260Z" fill="black" mask="url(#path-20-inside-1_139_65)"/>
<circle cx="419.5" cy="1118.5" r="271.5" stroke="black" stroke-width="8"/>
<path d="M489 814C487 822.667 482.2 840.6 479 843M552 834.5C550 840.333 544.8 853.7 540 860.5M577.5 849.5C579 852 574.5 865 571 868M631 895C627.667 898.667 619.2 906.9 612 910.5M667.5 927.5C664 935 655.1 950.5 647.5 952.5M706.5 993.5C703 995 689.5 1005 678.5 1007M713 1014C708.833 1016.33 699 1021 693 1021M731 1079C725.5 1079 711.6 1079 700 1079M706.5 1135C712.833 1136 726.6 1138.1 731 1138.5M678.5 1230C683.167 1232 695.3 1236.5 706.5 1238.5M619.5 1317.5C623.667 1321.67 633.5 1330.9 639.5 1334.5M596 1343C599.167 1348.5 606.1 1360.3 608.5 1363.5M506.5 1386.5C508.333 1394.5 512.6 1411.5 515 1415.5M412.5 1407.5V1430M362.5 1402.5C360.5 1407.33 355.8 1417.9 353 1421.5M340 819C341.167 824.833 344.9 837.8 350.5 843M257.5 854.5C260.333 860.167 267.1 872 271.5 874M199 899C203.333 904 213.4 914.9 219 918.5M138 994.5C142.5 997.5 153.6 1003.8 162 1005M117 1057C121.833 1058.33 132.8 1061 138 1061M111 1173.5L138 1166M131 1230C135.833 1229.17 146.7 1227 151.5 1225M190.5 1328.5C194.833 1325.83 205.4 1318.7 213 1311.5M256 1386.5C260.167 1382.67 269.5 1372.7 273.5 1363.5" stroke="black" stroke-width="7" stroke-linecap="round" stroke-linejoin="round"/>
<mask id="path-24-inside-2_139_65" fill="white">
<path fill-rule="evenodd" clip-rule="evenodd" d="M419.5 1315C528.024 1315 616 1227.02 616 1118.5C616 1009.98 528.024 922 419.5 922C310.976 922 223 1009.98 223 1118.5C223 1227.02 310.976 1315 419.5 1315ZM419 1279C507.366 1279 579 1207.37 579 1119C579 1030.63 507.366 959 419 959C330.634 959 259 1030.63 259 1119C259 1207.37 330.634 1279 419 1279Z"/>
</mask>
<path fill-rule="evenodd" clip-rule="evenodd" d="M419.5 1315C528.024 1315 616 1227.02 616 1118.5C616 1009.98 528.024 922 419.5 922C310.976 922 223 1009.98 223 1118.5C223 1227.02 310.976 1315 419.5 1315ZM419 1279C507.366 1279 579 1207.37 579 1119C579 1030.63 507.366 959 419 959C330.634 959 259 1030.63 259 1119C259 1207.37 330.634 1279 419 1279Z" fill="#565656"/>
<path d="M609 1118.5C609 1223.16 524.158 1308 419.5 1308V1322C531.89 1322 623 1230.89 623 1118.5H609ZM419.5 929C524.158 929 609 1013.84 609 1118.5H623C623 1006.11 531.89 915 419.5 915V929ZM230 1118.5C230 1013.84 314.842 929 419.5 929V915C307.11 915 216 1006.11 216 1118.5H230ZM419.5 1308C314.842 1308 230 1223.16 230 1118.5H216C216 1230.89 307.11 1322 419.5 1322V1308ZM572 1119C572 1203.5 503.5 1272 419 1272V1286C511.232 1286 586 1211.23 586 1119H572ZM419 966C503.5 966 572 1034.5 572 1119H586C586 1026.77 511.232 952 419 952V966ZM266 1119C266 1034.5 334.5 966 419 966V952C326.768 952 252 1026.77 252 1119H266ZM419 1272C334.5 1272 266 1203.5 266 1119H252C252 1211.23 326.768 1286 419 1286V1272Z" fill="black" mask="url(#path-24-inside-2_139_65)"/>
<path d="M521 1242.5C498 1262 431 1299.5 362.5 1267" stroke="#683D0B" stroke-width="15"/>
<path d="M634.75 1252.52C603.797 1200.14 552.5 1198 528.5 1201C528.333 1210.17 526 1235.4 516 1249C552.5 1244.96 582.975 1255.54 601.546 1274.17C620.118 1292.81 644.581 1269.15 634.75 1252.52Z" fill="#CF9046" stroke="#683D0B" stroke-width="10"/>
<path d="M358.809 1237.4C339.901 1231.09 316 1238.33 316 1246.23C316 1267.59 368.619 1283.85 372.632 1279.2C378.816 1272.05 377.716 1243.72 358.809 1237.4Z" fill="#CF9046" stroke="#683D0B" stroke-width="10"/>
<path d="M337 1235C340.03 1241.35 344.272 1256.43 337 1265.95M359.941 1236.9C362.249 1244.52 365.481 1262.81 359.941 1275" stroke="#683D0B" stroke-width="6"/>
<path d="M608.574 1259.63C611.597 1262.31 617.748 1269.36 618.169 1276.19M618.51 1252.76C621.609 1254.91 627.764 1256.17 630.607 1271.91" stroke="#683D0B" stroke-width="6" stroke-linecap="round"/>
<rect x="402" y="74" width="34" height="720" fill="#B18065" stroke="#382316" stroke-width="10"/>
<path d="M400.499 801C385.999 875 399.499 952.5 400.499 960C413.698 974 432.332 965.833 439.999 960C451.599 910.8 444.832 833.5 439.999 801H400.499Z" fill="#B18065" stroke="#382316" stroke-width="10"/>
<path d="M457 1010C463.4 933.2 447 846.333 438 812.5L472.5 856C478.667 885.333 491.7 953.3 494.5 990.5C497.3 1027.7 457 1026.5 457 1010Z" fill="#B18065" stroke="#382316" stroke-width="10"/>
<path d="M295.999 830.5C297.999 800.9 362.832 780.167 394.999 773.5V791C340.598 801.8 332.499 818 324.999 828C319.174 835.767 329.499 848 339.999 848C353.999 848 386.666 810.5 397.999 791V811.5C389.999 838.3 376.999 859.5 350.999 871C323.499 883.163 293.999 860.1 295.999 830.5Z" fill="#B18065" stroke="#382316" stroke-width="10"/>
<path d="M547.999 831C545.999 801.4 481.166 780.667 448.999 774V791.5C503.4 802.3 511.499 818.5 518.999 828.5C524.824 836.267 514.499 848.5 503.999 848.5C489.999 848.5 457.332 811 445.999 791.5V812C453.999 838.8 466.999 860 492.999 871.5C520.499 883.663 549.999 860.6 547.999 831Z" fill="#B18065" stroke="#382316" stroke-width="10"/>
<path d="M378.5 934.5C382 908 401.5 845.333 411.5 814L398.5 810C378.5 844.167 341.5 918 353.5 940C365.5 962 376.917 946.489 378.5 934.5Z" fill="#B18065" stroke="#382316" stroke-width="10"/>
<path d="M440.512 768.709C435.312 760.309 405.014 756.708 395.514 768.709C391.114 791.509 397.345 805.875 401.011 810.208H440.512C442.679 799.875 445.712 777.109 440.512 768.709Z" fill="#B18065" stroke="#382316" stroke-width="10"/>
</svg>
