<?xml version="1.0" encoding="utf-8"?>
<svg viewBox="0 0 500 500" xmlns="http://www.w3.org/2000/svg">
  <g id="g10" transform="matrix(1.002738, 0, 0, -1.002738, 0.148218, 500.769638)" style="">
    <g id="g12" transform="scale(0.1)">
      <g id="g22" transform="scale(10)"/>
      <path d="m 1844.31,4130.3 c 104.85,-3.13 248.52,-29.71 236.52,-107.16 -11.76,-77.21 -245.34,-50.12 -259.58,16.96 -13.99,67.07 -46.21,92.27 23.06,90.2 z m 590.01,-258.03 c 13.56,48.07 97.12,5.34 97.12,5.34 55.45,-42.13 -1.52,-50.61 -1.52,-50.61 0,0 -109.15,-2.8 -95.6,45.27 z m -778.12,322.3 c -17.07,-35.86 -161.4,-64.03 -178.7,-172.58 -17.53,-108.55 140.78,-82.98 209.26,-94.95 68.23,-12.22 153.79,-125.78 187.76,-132.85 34.21,-7.08 353.61,-0.61 405.27,-24.2 51.88,-23.85 397.14,-28.09 400.52,85.01 3.36,112.85 -95.91,35.09 -146.17,113.43 -50.02,78.08 -66.85,58.46 -282.63,137.61 -215.78,79.15 -333.98,179.62 -503.5,184.68 -127.13,3.79 -74.51,-60.31 -91.81,-96.15" style="fill:#722d29;fill-opacity:1;fill-rule:nonzero;stroke:none" id="path30"/>
      <path d="m 1848.28,3724.19 c -78.29,16.48 -219.35,162.72 -318.24,165.66 -108.98,3.26 21.04,-174.97 69.69,-237.02 48.64,-62.04 266.8,6.19 482.13,-20.43 215.33,-26.62 430.81,19.47 434.34,70.24 3.54,50.77 -288.53,10.25 -406.58,48.1 -118.04,37.86 -183.06,-43.02 -261.34,-26.55" style="fill:#722d29;fill-opacity:1;fill-rule:nonzero;stroke:none" id="path32"/>
      <path d="m 1274.5,3857.68 c 25.52,-8.41 22.76,38.84 22.76,38.84 0,0 49.67,-12.56 52.69,8.99 3.02,21.56 -6.98,105.1 -9.24,134.41 -2.5,32.23 -48.65,7.73 -48.65,7.73 0,0 14.18,45.32 -6.83,42.52 -21.01,-2.81 -25.37,-47.51 -25.37,-47.51 0,0 -61.97,-46.81 -3.78,-132.23 0,0 -7.1,-44.35 18.42,-52.75" style="fill:#722d29;fill-opacity:1;fill-rule:nonzero;stroke:none" id="path34"/>
      <path d="m 1187.74,3827.52 c -3.34,29.99 -45.45,138.77 -58.55,177.36 -14.41,42.43 -68,-6.32 -68,-6.32 0,0 3.5,65.74 -23.76,54.76 -27.25,-10.98 -17.76,-72.51 -17.76,-72.51 0,0 -67.182,-84.14 40.31,-178.89 0,0 5.67,-62.01 42.84,-64.54 37.17,-2.54 17.23,59.98 17.23,59.98 0,0 71.03,0.18 67.69,30.16" style="fill:#722d29;fill-opacity:1;fill-rule:nonzero;stroke:none" id="path36"/>
      <path d="m 749.391,3919.34 c -27.676,-20.64 1.562,-87.72 1.562,-87.72 0,0 -51.098,-115.74 99.438,-191.17 0,0 25.047,-68.75 68.031,-60.48 42.988,8.27 1.594,73.32 1.594,73.32 0,0 80.654,21.5 67.867,54.57 -12.789,33.07 -93.25,144.03 -119.703,183.95 -29.102,43.9 -75.371,-27.56 -75.371,-27.56 0,0 -15.739,75.74 -43.418,55.09" style="fill:#722d29;fill-opacity:1;fill-rule:nonzero;stroke:none" id="path38"/>
      <path d="m 590.141,3537.95 c 0,0 5.418,-72.97 49.031,-76.7 43.609,-3.73 21.457,70.13 21.457,70.13 0,0 83.465,-1.23 80.148,34.06 -3.316,35.3 -50.574,163.96 -65.187,209.56 -16.07,50.17 -80.024,-6.03 -80.024,-6.03 0,0 5.446,77.17 -26.8,64.83 -32.246,-12.34 -22.344,-84.84 -22.344,-84.84 0,0 -80.641,-97.5 43.719,-211.01" style="fill:#722d29;fill-opacity:1;fill-rule:nonzero;stroke:none" id="path40"/>
      <path d="m 293.961,3747.21 c -43.094,-9.66 -43.949,-103.24 -43.949,-103.24 0,0 -120.071,-108.46 16.332,-275.09 0,0 -6.633,-93.35 47.871,-106.13 54.508,-12.78 40.117,84.78 40.117,84.78 0,0 105.395,-16.98 107.719,28.3 2.324,45.28 -33.699,216.84 -43.766,277.24 -11.066,66.45 -102.383,7.16 -102.383,7.16 0,0 21.149,96.64 -21.941,86.98" style="fill:#722d29;fill-opacity:1;fill-rule:nonzero;stroke:none" id="path42"/>
      <path d="m -57.6055,3204.34 c 0,0 -4.7968,-99.75 53.66409,-112.05 58.45701,-12.3 40.72271,91.43 40.72271,91.43 0,0 112.8517,-15.54 114.2267,32.82 1.371,48.37 -41.258,230.51 -53.4728,294.7 -13.4336,70.62 -109.3985,5.13 -109.3985,5.13 0,0 20.19533,103.63 -25.539,92.26 -45.7344,-11.35 -44.3672,-111.21 -44.3672,-111.21 0,0 -125.4335,-118.65 24.164,-293.08" style="fill:#722d29;fill-opacity:1;fill-rule:nonzero;stroke:none" id="path44"/>
      <path d="m 1050.55,3275.58 c -58.304,-85 -113.304,91.7 -195.003,75 -81.602,-16.7 -100,108.3 68.398,113.3 64.903,2 185.005,-103.3 126.605,-188.3 z m 91.7,-82.5 c -5,165 10,340 -187.504,340 -165,0 -335,-137.5 -362.5,-260 -27.5,-122.5 182.5,-7.5 190,-105 7.5,-97.5 365.004,-140 360.004,25" style="fill:#722d29;fill-opacity:1;fill-rule:nonzero;stroke:none" id="path46"/>
      <path d="m 1022.66,4151.86 c 7.34,-6.39 16.59,-10.03 26.32,-10.4 19.56,-0.75 54.86,-0.33 85,9.54 14.78,4.84 25.66,17.5 28.51,32.79 l 11.48,61.86 c 2.59,13.92 -1.89,28.2 -11.93,38.18 -36.92,36.68 -126.13,120.87 -142.4,95.06 -20.62,-32.71 -69.206,-115.23 -54.562,-158.17 10.613,-31.13 39.572,-53.18 57.582,-68.86" style="fill:#722d29;fill-opacity:1;fill-rule:nonzero;stroke:none" id="path48"/>
      <path d="m 608.871,4157.31 c 13.223,-6.81 28.274,-8.85 42.844,-5.85 29.297,6 81.515,19.49 122.637,45.11 20.168,12.57 31.703,35.3 30.343,59.03 l -5.48,95.97 c -1.235,21.59 -13.067,41.14 -31.602,52.29 -68.14,40.98 -231.16,133.4 -245.898,89.18 C 503.031,4437 461,4296.89 498.363,4238.51 c 27.086,-42.32 78.078,-64.49 110.508,-81.2" style="fill:#722d29;fill-opacity:1;fill-rule:nonzero;stroke:none" id="path50"/>
      <path d="m 117.555,4074.98 c 19.34,-7.79 40.613,-8.67 60.554,-2.59 40.106,12.22 111.231,37.85 165.282,78.98 26.507,20.18 39.64,53.41 34.652,86.34 l -20.184,133.24 c -4.539,29.98 -23.605,55.73 -50.933,68.86 -100.449,48.3 -340.0471,156.03 -354.844,92.38 -18.7617,-80.66 -59.145,-281.71 0.6289,-358.31 43.32426,-55.53 117.3907,-79.82 164.8441,-98.9" style="fill:#722d29;fill-opacity:1;fill-rule:nonzero;stroke:none" id="path52"/>
      <path d="m -217.102,3681.09 c 20.25,-4.96 41.434,-2.82 60.317,6.02 37.972,17.77 104.7577,53.2 152.44516,101.57 23.38674,23.72 31.68364,58.47 22.08204,90.37 l -38.8281,129.05 c -8.7344,29.03 -31.2539,51.82 -60.1641,60.96 -106.27,33.59 -358.695,106.34 -364.348,41.24 -7.156,-82.5 -18.683,-287.24 51.321,-354.62 50.746,-48.84 127.507,-62.41 177.175,-74.59" style="fill:#722d29;fill-opacity:1;fill-rule:nonzero;stroke:none" id="path54"/>
      <path d="m 535.02,2426.62 c 52.546,-48.5 115.207,30.32 147.546,6.07 32.34,-24.26 38.403,-64.68 68.723,-58.62 30.316,6.07 8.082,95 -14.148,133.4 -22.235,38.4 28.293,406.27 60.632,424.45 32.34,18.2 161.7,107.13 -36.382,117.24 -71.11,3.62 -125.313,40.42 -119.246,-16.18 6.058,-56.59 80.843,-24.25 72.761,-105.1 -8.086,-80.84 -60.636,-400.2 -103.086,-422.43 -42.441,-22.24 -129.355,-30.32 -76.8,-78.83" style="fill:#722d29;fill-opacity:1;fill-rule:nonzero;stroke:none" id="path56"/>
      <path d="m 4659.38,4549.68 c 21.32,-34.34 12.29,-74.21 42.74,-79.57 30.45,-5.36 42.04,85.57 35.27,129.43 -6.76,43.85 173.95,368.23 210.69,373.42 36.73,5.2 189.57,41.08 8.69,122.45 -64.93,29.2 -102.07,83.18 -116.98,28.25 -14.91,-54.93 66.52,-51.97 29.61,-124.36 -36.9,-72.39 -201.87,-350.83 -249.49,-356.12 -47.62,-5.3 -131.54,18.74 -100.19,-45.54 31.33,-64.29 118.35,-13.61 139.66,-47.96" style="fill:#722d29;fill-opacity:1;fill-rule:nonzero;stroke:none" id="path58"/>
      <path d="m 5130.51,1881.52 c -70.87,-39.74 -362.61,-179.85 -405.17,-157.83 -42.56,22.02 -99.03,88.58 -108.62,17.71 -9.6,-70.87 90.91,-76.99 89.59,-117.4 -1.33,-40.4 -30.96,-68.55 -8.6,-89.91 22.35,-21.36 82.45,47.86 101.16,88.11 18.71,40.23 349.03,209.82 382.48,193.76 33.44,-16.06 180.5,-71.02 75.16,97.04 -37.81,60.33 -38.75,125.84 -81.64,88.42 -42.88,-37.44 26.51,-80.15 -44.36,-119.9" style="fill:#722d29;fill-opacity:1;fill-rule:nonzero;stroke:none" id="path60"/>
      <path d="m 998.367,1946.11 c 29.243,-0.31 50.073,-21.3 65.163,-4.79 15.09,16.51 -35.93,58.88 -65.327,71.76 -29.398,12.89 -157.308,249.09 -146.226,273.53 11.082,24.45 48.488,131.67 -71.375,52.82 -43.036,-28.31 -90.399,-30.04 -62.649,-60.46 27.75,-30.41 57.539,20.45 87.414,-30.17 29.871,-50.62 135.848,-259.39 120.606,-290.51 -15.25,-31.13 -62.489,-73.04 -11.078,-78.85 51.41,-5.81 54.23,66.99 83.472,66.67" style="fill:#722d29;fill-opacity:1;fill-rule:nonzero;stroke:none" id="path62"/>
      <path d="m 622.109,2273.06 c 29.871,-50.63 135.852,-259.39 120.606,-290.52 -15.25,-31.12 -62.485,-73.03 -11.078,-78.84 51.41,-5.81 54.23,66.97 83.476,66.66 29.239,-0.31 50.075,-21.3 65.16,-4.78 15.094,16.5 -35.925,58.86 -65.328,71.75 -29.398,12.89 -157.308,249.1 -146.222,273.54 11.078,24.44 48.484,131.67 -71.379,52.81 -43.031,-28.3 -90.395,-30.03 -62.649,-60.45 27.754,-30.42 57.539,20.44 87.414,-30.17" style="fill:#722d29;fill-opacity:1;fill-rule:nonzero;stroke:none" id="path64"/>
      <path d="m 1108.58,1828.31 c 10.38,27.81 -67.05,87.86 -86.36,49.64 -16.69,-33.03 76,-77.44 86.36,-49.64" style="fill:#722d29;fill-opacity:1;fill-rule:nonzero;stroke:none" id="path66"/>
      <path d="m 1021,1804.06 c 10.37,27.81 -67.051,87.85 -86.367,49.63 -16.684,-33.02 75.997,-77.43 86.367,-49.63" style="fill:#722d29;fill-opacity:1;fill-rule:nonzero;stroke:none" id="path68"/>
      <path d="m 858.852,1859.44 c -33.387,-15.94 12.832,-107.74 38.027,-92.07 25.199,15.68 0.621,110.52 -38.027,92.07" style="fill:#722d29;fill-opacity:1;fill-rule:nonzero;stroke:none" id="path70"/>
      <path d="m 796.09,1865.49 c -36.996,0.6 -36.539,-102.17 -6.996,-99.38 29.543,2.81 49.812,98.67 6.996,99.38" style="fill:#722d29;fill-opacity:1;fill-rule:nonzero;stroke:none" id="path72"/>
      <path d="m 3441.42,-48.0078 c -14.46,56.96874 -57.51,287.0978 -34.14,312.6988 23.37,25.579 80.48,52.528 32.78,72.551 -47.71,20.02 -70.86,-49.051 -98.84,-40.531 -27.98,8.508 -42.07,34.508 -61.19,22.898 -19.12,-11.597 17.94,-66.589 42.53,-87.218 24.6,-20.629 81,-283.2504 63.49,-303.6019 -17.5,-20.3399 -83.51,-112.7501 53.68,-70.7381 49.24,15.078 95.18,3.429 77.1,40.418 -18.09,36.9919 -60.96,-3.449 -75.41,53.5232" style="fill:#722d29;fill-opacity:1;fill-rule:nonzero;stroke:none" id="path74"/>
      <path d="m 3610.48,-122.77 c -14.45,56.9692 -57.51,287.11 -34.14,312.692 23.38,25.598 80.49,52.539 32.78,72.558 -47.7,20.02 -70.86,-49.039 -98.84,-40.531 -27.98,8.52 -42.07,34.512 -61.19,22.903 -19.12,-11.602 17.94,-66.59 42.53,-87.223 24.6,-20.629 81.01,-283.25 63.51,-303.598 -17.51,-20.351 -83.53,-112.742 53.66,-70.742 49.25,15.082 95.18,3.441 77.1,40.422 -18.09,36.988 -60.96,-3.461 -75.41,53.519" style="fill:#722d29;fill-opacity:1;fill-rule:nonzero;stroke:none" id="path76"/>
      <path d="m 3337.47,368.832 c 25.29,27 -51.18,95.668 -68.93,71.887 -17.77,-23.77 39.66,-103.149 68.93,-71.887" style="fill:#722d29;fill-opacity:1;fill-rule:nonzero;stroke:none" id="path78"/>
      <path d="m 3428.35,367.5 c 25.29,27 -51.18,95.672 -68.95,71.891 -17.76,-23.77 39.67,-103.153 68.95,-71.891" style="fill:#722d29;fill-opacity:1;fill-rule:nonzero;stroke:none" id="path80"/>
      <path d="m 3499.46,340.691 c 36.53,5.918 17.95,107.02 -10.63,99.051 -28.59,-7.961 -31.64,-105.89 10.63,-99.051" style="fill:#722d29;fill-opacity:1;fill-rule:nonzero;stroke:none" id="path82"/>
      <path d="m 3592.63,410.66 c -29.14,5.621 -75.52,-80.691 -34.63,-93.39 35.34,-10.989 63.77,87.781 34.63,93.39" style="fill:#722d29;fill-opacity:1;fill-rule:nonzero;stroke:none" id="path84"/>
      <path d="m 1579.21,5096.17 c -51.46,-5.37 -38.58,-77.06 -67.21,-83.03 -28.63,-5.98 -53.48,10.05 -64.68,-9.32 -11.19,-19.36 47.73,-49.78 79.21,-56.05 31.49,-6.29 207.12,-209.51 201.55,-235.77 -5.58,-26.25 -19.09,-139 81.06,-36.26 35.94,36.89 81.83,48.75 48.2,72.5 -33.64,23.75 -51.81,-32.32 -91.86,10.7 -40.04,43.03 -188.37,224.17 -180.16,257.85 8.21,33.67 45.35,84.74 -6.11,79.38" style="fill:#722d29;fill-opacity:1;fill-rule:nonzero;stroke:none" id="path86"/>
      <path d="m 1631.51,5019.48 c -11.19,-19.36 47.73,-49.79 79.22,-56.06 31.48,-6.28 207.12,-209.5 201.54,-235.76 -5.57,-26.26 -19.09,-139.01 81.06,-36.26 35.94,36.89 81.83,48.74 48.2,72.49 -33.63,23.75 -51.81,-32.32 -91.86,10.71 -40.04,43.02 -188.37,224.17 -180.16,257.84 8.21,33.68 45.35,84.74 -6.11,79.39 -51.46,-5.37 -38.59,-77.06 -67.21,-83.04 -28.63,-5.97 -53.48,10.05 -64.68,-9.31" style="fill:#722d29;fill-opacity:1;fill-rule:nonzero;stroke:none" id="path88"/>
      <path d="m 250.582,2563.08 c 145,122.5 180.023,629.9 82.5,605 -117.5,-30 -35,-137.5 -10,-247.5 25,-110 -217.5,-480 -72.5,-357.5" style="fill:#722d29;fill-opacity:1;fill-rule:nonzero;stroke:none" id="path90"/>
      <path d="m 1271.52,562.809 c -75.81,-45.59 4.37,-103.411 44.9,-175.02 40.52,-71.609 -51.34,-380.94916 24.29,-264.98 75.62,115.992 -6.27,477.839 -69.19,440" style="fill:#722d29;fill-opacity:1;fill-rule:nonzero;stroke:none" id="path92"/>
      <path d="M 1118.89,575.27 C 1023.57,547.332 1094.2,461.719 1117.83,372.398 1141.46,283.09 953.621,-26.75 1068.78,77.6992 1183.94,182.141 1198,598.469 1118.89,575.27" style="fill:#722d29;fill-opacity:1;fill-rule:nonzero;stroke:none" id="path94"/>
      <path d="M 971.602,564.309 C 864.504,553.25 922.973,448.109 930.621,348.242 938.266,248.379 677.152,-45.0313 820.438,43.6914 963.723,132.41 1060.49,573.492 971.602,564.309" style="fill:#722d29;fill-opacity:1;fill-rule:nonzero;stroke:none" id="path96"/>
      <path d="m 786.516,553.551 c -124.215,18.918 -89,-117 -109.645,-232.039 C 656.227,206.48 275.254,-48.3711 463.113,9.83203 650.973,68.0391 889.613,537.859 786.516,553.551" style="fill:#722d29;fill-opacity:1;fill-rule:nonzero;stroke:none" id="path98"/>
      <path d="M 541.293,564.57 C 438.066,570.898 476.965,462.082 468.531,366.25 460.098,270.422 166.586,33.3711 316.301,94.9492 466.012,156.531 626.973,559.32 541.293,564.57" style="fill:#722d29;fill-opacity:1;fill-rule:nonzero;stroke:none" id="path100"/>
      <path d="M 277.152,640.102 C 162.055,655.5 196.871,530.492 179.719,423.852 162.563,317.199 -185.215,75.332 -12.5938,132.262 160.023,189.18 372.688,627.309 277.152,640.102" style="fill:#722d29;fill-opacity:1;fill-rule:nonzero;stroke:none" id="path102"/>
      <path d="M 114.586,698.301 C -5.09375,737.32 7.46094,597.23 -31.7734,486.898 -71.0117,376.57 -489.281,187.051 -294.07,213.82 -98.8633,240.602 213.914,665.91 114.586,698.301" style="fill:#722d29;fill-opacity:1;fill-rule:nonzero;stroke:none" id="path104"/>
      <path d="M -88.2734,774.68 C -212.012,853.852 -238.906,691.922 -315.574,578.809 -392.242,465.699 -920.266,374.27 -691.918,347.281 -463.574,320.27 14.4297,708.961 -88.2734,774.68" style="fill:#722d29;fill-opacity:1;fill-rule:nonzero;stroke:none" id="path106"/>
      <path d="m 4279.72,767.949 c -81.85,90.301 -345.61,-345.269 -274.17,-548.668 71.42,-203.4099 49.08,270.321 138.51,341.301 89.43,70.969 234.28,98.559 135.66,207.367" style="fill:#722d29;fill-opacity:1;fill-rule:nonzero;stroke:none" id="path108"/>
      <path d="m 4388.54,542.488 c -108.89,54.754 -197.95,-446.6091 -58.02,-610.6091 139.92,-163.9879 -51.63,269.8631 6.21,368.3011 57.84,98.422 183.02,176.359 51.81,242.308" style="fill:#722d29;fill-opacity:1;fill-rule:nonzero;stroke:none" id="path110"/>
      <path d="m 4614.44,141.852 c 34.93,108.699 140.04,212.109 -2.4,247.789 -118.23,29.609 -95.55,-479.0902 76.85,-608.539 172.38,-129.442 -109.38,252.0386 -74.45,360.75" style="fill:#722d29;fill-opacity:1;fill-rule:nonzero;stroke:none" id="path112"/>
      <path d="m 4901.11,15.1797 c 34.93,108.6993 140.04,212.1093 -2.4,247.7893 -118.23,29.621 -95.56,-479.078 76.84,-608.528 C 5147.94,-475 4866.18,-93.5195 4901.11,15.1797" style="fill:#722d29;fill-opacity:1;fill-rule:nonzero;stroke:none" id="path114"/>
      <path d="M -92.1719,2558.17 C 86.875,2621.2 299.801,3083.1 199.789,3094.45 79.293,3108.13 118.242,2978.34 102.555,2866.63 86.8594,2754.92 -271.223,2495.15 -92.1719,2558.17" style="fill:#722d29;fill-opacity:1;fill-rule:nonzero;stroke:none" id="path116"/>
      <path d="m 3478.18,4273.08 c 64.4,24.9 108.5,-33.5 76.9,-69 -31.51,-35.5 -215,15.8 -76.9,69 z m 380.7,99.2 c 108.9,42 183.4,-56.7 130,-116.7 -53.3,-60 -363.3,26.7 -130,116.7 z m -169.09,-329.84 c 44.48,-12.26 91.64,-43.02 138.11,-44.51 31.23,-0.99 52.04,20.66 75.15,38.28 36.65,27.97 82.17,41.98 127.99,43.4 47.32,1.46 86.12,-19.77 131.22,-24.48 44.24,-4.62 59.08,15.04 79.92,46.85 23.45,35.77 46.26,58.42 27.9,104.2 -49.9,124.2 -165.8,252.9 -365.3,254.9 -293.31,2.9 -684.5,-143.7 -605.5,-317.5 69.37,-152.53 267.49,-67.22 390.51,-101.14" style="fill:#722d29;fill-opacity:1;fill-rule:nonzero;stroke:none" id="path118"/>
      <path d="m 4150.48,3869.6 c 22.85,-177.33 48.61,-52.32 79.27,-67.67 30.65,-15.34 34.76,-75.92 62.2,-2.13 38.88,104.56 -164.32,247.13 -141.47,69.8" style="fill:#722d29;fill-opacity:1;fill-rule:nonzero;stroke:none" id="path120"/>
      <path d="m 4234.38,3688.17 c -24.32,-72.98 6.31,-286.6 41.32,-267.49 35.01,19.11 15.51,94.01 53.69,68.96 38.19,-25.05 72.51,-16.1 74.43,27.71 1.92,43.83 -22.8,132.36 -57.18,168.4 0,0 -87.95,75.4 -112.26,2.42" style="fill:#722d29;fill-opacity:1;fill-rule:nonzero;stroke:none" id="path122"/>
      <path d="m 4375.93,3330.14 c -47.29,-3.98 -78.98,117.73 -94.48,23.72 -15.51,-94.01 -16.53,-230.91 35.25,-205.76 51.77,25.14 60.4,62.38 102.17,29.94 41.76,-32.44 73.73,139.16 37.25,189.65 -35.63,49.32 -32.91,-33.56 -80.19,-37.55" style="fill:#722d29;fill-opacity:1;fill-rule:nonzero;stroke:none" id="path124"/>
      <path d="m 4307.58,3035 c -40.67,-174.11 27.22,-66.03 50.56,-91.13 23.35,-25.1 6,-83.29 57.53,-23.77 73.01,84.34 -67.44,289.01 -108.09,114.9" style="fill:#722d29;fill-opacity:1;fill-rule:nonzero;stroke:none" id="path126"/>
      <path d="m 4262.76,2585.64 c 39.49,5.65 47.44,82.64 74.44,45.82 26.99,-36.83 62.27,-40.47 79.41,-0.09 17.14,40.37 24.96,131.96 5.37,177.75 0,0 -55.99,101.42 -104.31,41.56 -48.32,-59.85 -94.39,-270.68 -54.91,-265.04" style="fill:#722d29;fill-opacity:1;fill-rule:nonzero;stroke:none" id="path128"/>
      <path d="m 4210.76,2300.96 c 57.3,5.44 78.41,37.29 106.18,-7.72 27.78,-45.01 117.78,104.56 101.28,164.62 -16.11,58.67 -42.58,-19.92 -88.26,-7.1 -45.69,12.81 -32.78,137.92 -80.21,55.28 -47.43,-82.63 -96.28,-210.51 -38.99,-205.08" style="fill:#722d29;fill-opacity:1;fill-rule:nonzero;stroke:none" id="path130"/>
      <path d="m 4241.87,2018.18 c 27.97,-30.09 7.17,-99.84 68.95,-28.49 87.52,101.1 -80.84,346.46 -129.58,137.74 -48.75,-208.73 32.64,-79.16 60.63,-109.25" style="fill:#722d29;fill-opacity:1;fill-rule:nonzero;stroke:none" id="path132"/>
      <path d="m 4127.52,1588.75 c 47.33,6.78 56.86,99.06 89.22,54.92 32.37,-44.15 74.67,-48.51 95.2,-0.12 20.55,48.41 29.94,158.21 6.45,213.1 0,0 -67.13,121.57 -125.05,49.82 -57.93,-71.75 -113.15,-324.5 -65.82,-317.72" style="fill:#722d29;fill-opacity:1;fill-rule:nonzero;stroke:none" id="path134"/>
      <path d="m 4170.63,1234.23 c 61.52,31.22 71.09,76.03 121.83,38.02 50.74,-38.01 85.46,168.35 40.69,228.09 -43.74,58.37 -38.75,-40.92 -95.34,-46.68 -56.59,-5.76 -97.12,139.46 -113.74,26.46 -16.63,-113.01 -14.97,-277.11 46.56,-245.89" style="fill:#722d29;fill-opacity:1;fill-rule:nonzero;stroke:none" id="path136"/>
      <path d="m 4309.12,856.109 c 36.2,31.243 -5.57,114.09 45.5,94.383 51.06,-19.711 89.04,-0.57 80.21,51.268 -8.81,51.83 -60.14,149.34 -109.54,182.89 0,0 -122.11,66.15 -132.16,-25.52 -10.06,-91.66 79.79,-334.271 115.99,-303.021" style="fill:#722d29;fill-opacity:1;fill-rule:nonzero;stroke:none" id="path138"/>
      <path d="m 4618.76,678.609 c 63.23,-4.629 -18.87,187.852 -88.8,214.012 -68.32,25.539 -10.56,-55.359 -55.09,-90.75 -44.54,-35.383 -157.02,65.027 -110.04,-39.09 46.98,-104.121 136.9,-241.39 171.86,-181.91 34.95,59.481 18.84,102.371 82.07,97.738" style="fill:#722d29;fill-opacity:1;fill-rule:nonzero;stroke:none" id="path140"/>
      <path d="m 4919.63,463.922 c 53.23,12.777 73.6,50.098 36.9,87.758 -36.7,37.66 -134.32,88.75 -194.03,88.308 0,0 -138.07,-14.898 -94.29,-96.058 43.78,-81.168 255.53,-229.809 267.58,-183.532 12.05,46.274 -69.38,90.731 -16.16,103.524" style="fill:#722d29;fill-opacity:1;fill-rule:nonzero;stroke:none" id="path142"/>
      <path d="m 5096.82,515.871 c -70.75,-17.769 22.75,-51.551 6.19,-105.973 -16.56,-54.418 -166.16,-35.656 -68.37,-94.679 97.8,-59.02 249.77,-120.93 244.76,-52.11 -5,68.801 -42.63,94.95 12.05,127.063 54.67,32.109 -122.22,143.887 -194.63,125.699" style="fill:#722d29;fill-opacity:1;fill-rule:nonzero;stroke:none" id="path144"/>
      <path d="m 2843.08,1168.08 c -42.5,10 -34.11,128.79 15,105 82.5,-40 27.5,-115 -15,-105 z m -157.5,-10 c -97.5,-122.5 -372.5,-189.998 -352.5,-110 20,80 -90,167.5 -55,207.5 35,40 125,52.5 125,52.5 82.5,17.5 380,-27.5 282.5,-150 z m -452.5,-87.5 c -85,-82.498 -260,-112.498 -247.5,-30 12.5,82.5 22.5,222.5 122.5,240 79,13.79 210,-127.5 125,-210 z m -442.5,0 c -5,-94.998 -115,-232.498 -170,-227.498 -55,5 25,95 92.5,189.998 67.5,95 -4.3,192.3 35,212.5 92.5,47.5 47.5,-80 42.5,-175 z m 420.4,293.1 c -117.2,-10 -436.3,74.6 -529.1,-40.3 -92.5,-114.5 -38.1,-174.01 -30.5,-233.6 7.5,-59.5 -144.3,-137.3 -194.4,-246.1 -50,-108.801 336.1,-113.301 423.8,-46 87.7,67.199 222.2,18.699 283,3 60.8,-15.7 207.4,99.601 261.9,131.3 54.5,31.7 164.6,-30.511 205.9,9.598 41.4,40.102 271.3,101.502 351.8,132.302 80.5,30.7 75.5,112.7 -78.8,266.3 -154.3,153.6 -576.4,33.5 -693.6,23.5" style="fill:#722d29;fill-opacity:1;fill-rule:nonzero;stroke:none" id="path146"/>
      <path d="m 2935.2,832.211 c -66.66,36.008 -235.99,-74.391 -349.76,-47.07 -113.77,27.32 -237.75,-46.231 -332.76,-56.34 -95,-10.11 -293.28,153.289 -303.06,46.597 -4.56,-49.757 -163.53,-83.918 -197.79,-120.816 -34.26,-36.902 285.23,-156.891 346.45,-199.66 61.21,-42.762 281.54,-18.082 354.88,45.148 73.34,63.231 220.13,96.09 317.01,100.239 96.87,4.14 231.69,195.871 165.03,231.902" style="fill:#722d29;fill-opacity:1;fill-rule:nonzero;stroke:none" id="path148"/>
      <path d="m 1468.5,695.559 c -45.28,28.812 -84.38,107.023 -90.56,168.761 -7.19,71.942 -47.33,-47.34 -43.22,-127.601 4.12,-80.258 2.06,-142.008 51.46,-150.25 49.39,-8.227 127.6,80.273 82.32,109.09" style="fill:#722d29;fill-opacity:1;fill-rule:nonzero;stroke:none" id="path150"/>
      <path d="m 2959.25,1050.77 c -19.28,-6.48 -30.41,-53.141 -8.67,-54.821 21.72,-1.679 50.68,-22.238 64.68,-43.199 16.32,-24.398 7.92,26.012 -8.87,54 -16.81,27.98 -27.86,50.51 -47.14,44.02" style="fill:#722d29;fill-opacity:1;fill-rule:nonzero;stroke:none" id="path152"/>
      <path d="m 2889.98,950.262 c 8.33,31.57 16.75,55.198 -1.34,64.488 -18.09,9.28 -59.28,-15.289 -45.33,-32.031 13.97,-16.739 19.42,-51.828 14.19,-76.481 -6.1,-28.718 24.16,12.461 32.48,44.024" style="fill:#722d29;fill-opacity:1;fill-rule:nonzero;stroke:none" id="path154"/>
      <path d="m 2808.32,913.602 c 8.32,31.57 16.75,55.199 -1.35,64.488 -18.09,9.281 -59.27,-15.301 -45.32,-32.039 13.96,-16.731 19.42,-51.821 14.18,-76.481 -6.1,-28.718 24.16,12.469 32.49,44.032" style="fill:#722d29;fill-opacity:1;fill-rule:nonzero;stroke:none" id="path156"/>
      <path d="m -841.234,1533.12 c 41.195,35.79 80.273,-76.72 41.847,-97.46 -38.426,-20.73 -111.07,37.35 -41.847,97.46 z m 430.152,152.39 c 0,0 90.144,11.39 134.359,-18.1 44.219,-29.5 -39.175,-142.64 0.985,-214.67 40.164,-72.02 -242.93,-78.53 -368.989,14.32 -126.054,92.86 149.43,213.85 233.645,218.45 z m 291.965,50.34 c 101.1053,9.17 147.2537,-123.38 180.8201,-199.77 33.5742,-76.39 -143.1953,-93.04 -246.7621,-35.55 -103.562,57.5 -13.925,228.05 65.942,235.32 z m 356.68,60.05 c 43.207,-9.26 -0.75,-121.92 89.179,-196.04 89.93,-74.12 190.621,-140.15 138.824,-159.31 -51.796,-19.17 -193.832,84.91 -223.421,175.32 -29.586,90.41 -106.266,201.78 -4.582,180.03 z M -536.16,1272.12 c 50.324,-27.95 140.402,60.8 201.281,44.4 60.879,-16.39 232.469,-89.5 287.0704,-58.49 54.60938,31 171.8166,112.88 274.0036,70.86 102.207,-42.11 473.789,62.87 397.16,154.87 -76.722,91.98 -243.558,127.53 -251.828,186.92 -8.199,59.53 28.817,131.15 -90.332,217.58 -119.539,86.74 -405.558,-78.1 -521.312,-99 -115.758,-20.89 -554.571,-14.96 -663.5,-203.47 -108.933,-188.5 -92.391,-268.98 -6.664,-277.64 85.742,-8.75 323.699,-8.1 374.121,-36.03" style="fill:#722d29;fill-opacity:1;fill-rule:nonzero;stroke:none" id="path158"/>
      <path d="m 2700.3,956.422 c -18.08,9.277 -59.27,-15.293 -45.32,-32.043 13.96,-16.731 19.42,-51.82 14.18,-76.469 -6.1,-28.719 24.17,12.461 32.49,44.02 8.32,31.57 16.75,55.199 -1.35,64.492" style="fill:#722d29;fill-opacity:1;fill-rule:nonzero;stroke:none" id="path160"/>
      <path d="m 2493.46,827.148 c -16.37,11.563 -27.91,37.641 -27.32,56.684 0.68,22.168 -20.89,-11.293 -23.19,-35.773 -2.3,-24.5 -6.11,-43 12.88,-48.618 18.98,-5.609 53.99,16.141 37.63,27.707" style="fill:#722d29;fill-opacity:1;fill-rule:nonzero;stroke:none" id="path162"/>
      <path d="m 2532.67,857.012 c -10,-22.473 -19.53,-38.793 -3.32,-50.172 16.2,-11.391 56.32,-1.961 44.5,14.23 -11.82,16.2 -14.42,44.59 -7.79,62.442 7.73,20.789 -23.39,-4.032 -33.39,-26.5" style="fill:#722d29;fill-opacity:1;fill-rule:nonzero;stroke:none" id="path164"/>
      <path d="m 2363.34,824.762 c -7.15,-16.082 -13.96,-27.75 -2.38,-35.891 11.59,-8.152 40.3,-1.402 31.84,10.18 -8.45,11.57 -10.31,31.898 -5.57,44.66 5.53,14.871 -16.74,-2.879 -23.89,-18.949" style="fill:#722d29;fill-opacity:1;fill-rule:nonzero;stroke:none" id="path166"/>
      <path d="m 2916.97,947.91 c 7.9,-21.269 4.8,-55.129 -9.28,-74.43 -14.1,-19.3 33.75,-30.55 53.05,-16.968 19.32,13.578 7.96,33.027 -3.95,59.82 -11.93,26.789 -49.04,56.367 -39.82,31.578" style="fill:#722d29;fill-opacity:1;fill-rule:nonzero;stroke:none" id="path168"/>
      <path d="m 2740.8,805.191 c 11.01,7.731 4.54,18.797 -2.26,34.071 -6.78,15.258 -27.91,32.109 -22.67,18 4.5,-12.121 2.73,-31.41 -5.29,-42.41 -8.03,-10.993 19.22,-17.403 30.22,-9.661" style="fill:#722d29;fill-opacity:1;fill-rule:nonzero;stroke:none" id="path170"/>
      <path d="m 1287.51,647.34 c -29.09,45.101 -31.91,132.492 -11.71,191.172 23.54,68.359 -62.79,-23.223 -92.61,-97.864 -29.82,-74.617 -57.5,-129.859 -16.07,-157.976 41.43,-28.133 149.48,19.57 120.39,64.668" style="fill:#722d29;fill-opacity:1;fill-rule:nonzero;stroke:none" id="path172"/>
      <path d="m 1094.77,672.711 c -10.06,52.73 20.07,134.809 60.8,181.629 47.44,54.551 -66.92,2.019 -122.53,-56.008 C 977.418,740.309 931.051,699.492 958.918,657.879 986.781,616.281 1104.83,620 1094.77,672.711" style="fill:#722d29;fill-opacity:1;fill-rule:nonzero;stroke:none" id="path174"/>
      <path d="m 811.012,828.77 c -47.043,-84.399 -88.547,-146.008 -43.473,-185.918 45.074,-39.922 181.246,0.328 153.508,58.597 -27.746,58.262 -17.672,162.903 15.445,229.75 38.59,77.891 -78.445,-18.019 -125.48,-102.429" style="fill:#722d29;fill-opacity:1;fill-rule:nonzero;stroke:none" id="path176"/>
      <path d="m 3427.37,4629.48 c 75.63,115.99 -6.27,477.83 -69.19,439.99 -75.8,-45.59 4.38,-103.4 44.91,-175.01 40.52,-71.62 -51.34,-380.96 24.28,-264.98" style="fill:#722d29;fill-opacity:1;fill-rule:nonzero;stroke:none" id="path178"/>
      <path d="m 3205.56,5081.95 c -95.32,-27.95 -24.69,-113.56 -1.07,-202.88 23.64,-89.32 -164.2,-399.15 -49.04,-294.71 115.16,104.44 129.22,520.77 50.11,497.59" style="fill:#722d29;fill-opacity:1;fill-rule:nonzero;stroke:none" id="path180"/>
      <path d="m 3058.27,5070.98 c -107.1,-11.07 -48.63,-116.21 -40.98,-216.07 7.64,-99.87 -253.47,-393.27 -110.18,-304.55 143.28,88.72 240.05,529.8 151.16,520.62" style="fill:#722d29;fill-opacity:1;fill-rule:nonzero;stroke:none" id="path182"/>
      <path d="m 2549.79,4516.5 c 187.85,58.2 426.49,528.03 323.39,543.73 -124.22,18.9 -89,-117.01 -109.64,-232.05 -20.65,-115.04 -401.62,-369.88 -213.75,-311.68" style="fill:#722d29;fill-opacity:1;fill-rule:nonzero;stroke:none" id="path184"/>
      <path d="m 5060.19,3376.11 c -14.76,-99.06 -334.59,-327.05 -175.17,-272.41 159.43,54.63 351.88,463.13 263.17,473.95 -106.87,13.04 -73.25,-102.48 -88,-201.54" style="fill:#722d29;fill-opacity:1;fill-rule:nonzero;stroke:none" id="path186"/>
      <path d="m 4966.85,3553.16 c -45.72,-107.56 -473.83,-271.29 -277.73,-256.33 196.09,14.96 533.26,419.94 436.23,458.17 -116.89,46.06 -112.79,-94.27 -158.5,-201.84" style="fill:#722d29;fill-opacity:1;fill-rule:nonzero;stroke:none" id="path188"/>
      <path d="m 655.859,687.84 c -0.847,64.519 52.051,155.371 110.086,202.262 67.614,54.628 -78.793,16.418 -156.812,-40.59 C 531.113,792.488 467.656,753.891 491.914,698.789 516.172,643.68 656.703,623.32 655.859,687.84" style="fill:#722d29;fill-opacity:1;fill-rule:nonzero;stroke:none" id="path190"/>
      <path d="m 448.176,774.219 c 23.394,60.14 106.492,124.543 177.871,146.25 83.164,25.301 -66.899,44.761 -160.598,21.152 C 371.746,918.012 298.445,906 300.281,845.82 302.117,785.641 424.77,714.09 448.176,774.219" style="fill:#722d29;fill-opacity:1;fill-rule:nonzero;stroke:none" id="path192"/>
      <path d="M 161.07,966.77 C 106.754,886.852 59.9609,829.16 101.328,785.422 c 41.367,-43.75 180.567,-15.692 158.086,44.789 -22.484,60.48 -3.191,163.82 35.707,227.489 45.324,74.17 -79.73,-11.01 -134.051,-90.93" style="fill:#722d29;fill-opacity:1;fill-rule:nonzero;stroke:none" id="path194"/>
      <path d="M -5.21094,1005.22 C -85.5273,951.488 -150.527,915.559 -128.574,859.492 -106.621,803.43 32.9492,777.27 34.7773,841.77 c 1.8243,64.492 58.4454,153.07 118.3707,197.52 69.825,51.77 -78.0464,19.67 -158.35894,-34.07" style="fill:#722d29;fill-opacity:1;fill-rule:nonzero;stroke:none" id="path196"/>
      <path d="m 4012.25,3842.25 c 55,63.33 118.33,136.66 70,145 -48.33,8.33 -3.33,43.33 -55,41.66 -77.45,-2.49 -150,-120 -216.67,-105 -66.66,15 -311.66,36.67 -363.33,-1.66 -51.67,-38.34 -30,-133.34 26.67,-118.34 56.66,15 186.66,91.67 251.66,53.34 65,-38.34 231.67,-78.34 286.67,-15" style="fill:#722d29;fill-opacity:1;fill-rule:nonzero;stroke:none" id="path198"/>
      <path d="m 1804.31,4170.3 c 104.85,-3.13 248.52,-29.71 236.52,-107.16 -11.76,-77.21 -245.34,-50.12 -259.58,16.96 -13.99,67.07 -46.21,92.27 23.06,90.2 z m 590.01,-258.03 c 13.56,48.07 97.12,5.34 97.12,5.34 55.45,-42.13 -1.51,-50.61 -1.51,-50.61 0,0 -109.16,-2.8 -95.61,45.27 z m -747.56,54.77 c 68.23,-12.22 153.79,-125.78 187.76,-132.85 34.21,-7.08 353.61,-0.61 405.27,-24.2 51.88,-23.85 397.14,-28.09 400.52,85.01 3.36,112.85 -95.91,35.09 -146.17,113.43 -50.02,78.08 -66.85,58.46 -282.63,137.61 -215.78,79.15 -333.98,179.62 -503.5,184.68 -127.13,3.79 -74.51,-60.31 -91.81,-96.15 -17.07,-35.86 -161.4,-64.03 -178.7,-172.58 -17.53,-108.55 140.78,-82.98 209.26,-94.95" style="fill:#f8a55f;fill-opacity:1;fill-rule:nonzero;stroke:none" id="path200"/>
      <path d="m 1490.04,3929.85 c 98.89,-2.94 239.95,-149.18 318.24,-165.66 78.28,-16.47 143.3,64.41 261.34,26.55 118.05,-37.85 410.11,2.67 406.58,-48.1 -3.53,-50.77 -219.01,-96.86 -434.34,-70.24 -215.33,26.62 -433.49,-41.61 -482.13,20.43 -48.65,62.05 -178.67,240.28 -69.69,237.02" style="fill:#f8a55f;fill-opacity:1;fill-rule:nonzero;stroke:none" id="path202"/>
      <path d="m 1300.71,4079.92 c -2.5,32.23 -48.65,7.73 -48.65,7.73 0,0 14.18,45.32 -6.83,42.52 -21.01,-2.81 -25.37,-47.51 -25.37,-47.51 0,0 -61.97,-46.81 -3.78,-132.23 0,0 -7.1,-44.35 18.42,-52.75 25.52,-8.41 22.76,38.84 22.76,38.84 0,0 49.67,-12.56 52.69,8.99 3.02,21.56 -6.98,105.1 -9.24,134.41" style="fill:#f8a55f;fill-opacity:1;fill-rule:nonzero;stroke:none" id="path204"/>
      <path d="m 1089.19,4044.88 c -14.41,42.43 -68,-6.32 -68,-6.32 0,0 3.5,65.74 -23.756,54.76 -27.258,-10.98 -17.766,-72.52 -17.766,-72.52 0,0 -67.18,-84.13 40.312,-178.88 0,0 5.67,-62.01 42.84,-64.54 37.17,-2.54 17.23,59.98 17.23,59.98 0,0 71.03,0.18 67.69,30.16 -3.34,29.99 -45.45,138.77 -58.55,177.36" style="fill:#f8a55f;fill-opacity:1;fill-rule:nonzero;stroke:none" id="path206"/>
      <path d="m 828.18,3931.81 c -29.102,43.9 -75.371,-27.56 -75.371,-27.56 0,0 -15.739,75.74 -43.418,55.09 -27.676,-20.64 1.562,-87.72 1.562,-87.72 0,0 -51.098,-115.74 99.438,-191.17 0,0 25.047,-68.75 68.031,-60.48 42.988,8.27 1.594,73.32 1.594,73.32 0,0 80.652,21.5 67.867,54.57 -12.789,33.07 -93.25,144.03 -119.703,183.95" style="fill:#f8a55f;fill-opacity:1;fill-rule:nonzero;stroke:none" id="path208"/>
      <path d="m 635.59,3815 c -16.07,50.17 -80.024,-6.03 -80.024,-6.03 0,0 5.446,77.17 -26.8,64.83 -32.246,-12.34 -22.344,-84.84 -22.344,-84.84 0,0 -80.641,-97.5 43.719,-211.01 0,0 5.418,-72.97 49.031,-76.7 43.609,-3.73 21.457,70.13 21.457,70.13 0,0 83.465,-1.23 80.148,34.06 -3.316,35.3 -50.574,163.96 -65.187,209.56" style="fill:#f8a55f;fill-opacity:1;fill-rule:nonzero;stroke:none" id="path210"/>
      <path d="m 378.285,3693.07 c -11.066,66.45 -102.383,7.16 -102.383,7.16 0,0 21.149,96.64 -21.941,86.98 -43.094,-9.66 -43.949,-103.24 -43.949,-103.24 0,0 -120.0706,-108.46 16.332,-275.09 0,0 -6.633,-93.35 47.871,-106.13 54.508,-12.78 40.117,84.78 40.117,84.78 0,0 105.395,-16.98 107.719,28.3 2.324,45.28 -33.699,216.84 -43.766,277.24" style="fill:#f8a55f;fill-opacity:1;fill-rule:nonzero;stroke:none" id="path212"/>
      <path d="m 57.5352,3551.24 c -13.4336,70.62 -109.3985,5.13 -109.3985,5.13 0,0 20.1953,103.63 -25.539,92.26 -45.7347,-11.35 -44.3677,-111.21 -44.3677,-111.21 0,0 -125.433,-118.65 24.1645,-293.08 0,0 -4.7965,-99.75 53.6641,-112.05 58.457,-12.3 40.72265,91.43 40.72265,91.43 0,0 112.85175,-15.54 114.22675,32.82 1.371,48.37 -41.258,230.51 -53.4728,294.7" style="fill:#f8a55f;fill-opacity:1;fill-rule:nonzero;stroke:none" id="path214"/>
      <path d="m 1010.55,3315.58 c -58.304,-85 -113.304,91.7 -195.003,75 -81.602,-16.7 -100,108.3 68.398,113.3 64.903,2 185.005,-103.3 126.605,-188.3 z m -95.804,257.5 c -165,0 -335,-137.5 -362.5,-260 -27.5,-122.5 182.5,-7.5 190,-105 7.5,-97.5 365.004,-140 360.004,25 -5,165 10,340 -187.504,340" style="fill:#f8a55f;fill-opacity:1;fill-rule:nonzero;stroke:none" id="path216"/>
      <path d="m 1008.98,4181.46 c 19.56,-0.75 54.86,-0.33 85,9.54 14.78,4.84 25.66,17.5 28.51,32.79 l 11.48,61.86 c 2.59,13.92 -1.89,28.2 -11.93,38.18 -36.92,36.68 -126.134,120.87 -142.399,95.06 -20.621,-32.71 -69.207,-115.23 -54.563,-158.17 10.613,-31.13 39.574,-53.18 57.582,-68.86 7.344,-6.39 16.594,-10.03 26.32,-10.4" style="fill:#f8a55f;fill-opacity:1;fill-rule:nonzero;stroke:none" id="path218"/>
      <path d="m 611.715,4191.46 c 29.297,6 81.515,19.49 122.637,45.11 20.168,12.57 31.703,35.3 30.343,59.03 l -5.48,95.97 c -1.235,21.59 -13.067,41.14 -31.602,52.29 -68.14,40.98 -231.16,133.4 -245.898,89.18 C 463.031,4477 421,4336.89 458.363,4278.51 c 27.086,-42.32 78.078,-64.49 110.508,-81.2 13.223,-6.81 28.274,-8.85 42.844,-5.85" style="fill:#f8a55f;fill-opacity:1;fill-rule:nonzero;stroke:none" id="path220"/>
      <path d="m 138.109,4112.39 c 40.106,12.22 111.231,37.85 165.282,78.98 26.507,20.18 39.64,53.41 34.652,86.34 l -20.184,133.24 c -4.539,29.98 -23.605,55.73 -50.933,68.86 -100.449,48.3 -340.0471,156.03 -354.844,92.38 -18.762,-80.66 -59.137,-281.71 0.6289,-358.31 43.3243,-55.53 117.3907,-79.82 164.8438,-98.9 19.3398,-7.79 40.6133,-8.67 60.5543,-2.59" style="fill:#f8a55f;fill-opacity:1;fill-rule:nonzero;stroke:none" id="path222"/>
      <path d="m 721.391,3089.16 c -71.11,3.62 -125.313,40.42 -119.246,-16.18 6.058,-56.59 80.843,-24.25 72.761,-105.1 -8.086,-80.84 -60.636,-400.19 -103.086,-422.43 -42.441,-22.23 -129.355,-30.32 -76.8,-78.83 52.546,-48.5 115.207,30.32 147.546,6.07 32.34,-24.26 38.403,-64.68 68.723,-58.62 30.316,6.07 8.082,95 -14.148,133.4 -22.235,38.4 28.293,406.27 60.632,424.45 32.34,18.2 161.7,107.13 -36.382,117.24" style="fill:#f8a55f;fill-opacity:1;fill-rule:nonzero;stroke:none" id="path224"/>
      <path d="m 4916.77,5135.41 c -64.93,29.2 -102.07,83.18 -116.98,28.25 -14.91,-54.93 66.52,-51.97 29.61,-124.36 -36.9,-72.39 -201.87,-350.83 -249.5,-356.12 -47.61,-5.3 -131.53,18.74 -100.18,-45.54 31.33,-64.29 118.35,-13.61 139.66,-47.96 21.32,-34.34 12.29,-74.21 42.74,-79.57 30.45,-5.36 42.04,85.57 35.27,129.43 -6.76,43.85 173.95,368.23 210.69,373.42 36.73,5.2 189.57,41.08 8.69,122.45" style="fill:#f8a55f;fill-opacity:1;fill-rule:nonzero;stroke:none" id="path226"/>
      <path d="m 5216.51,1953 c -37.81,60.33 -38.76,125.84 -81.64,88.42 -42.88,-37.44 26.51,-80.15 -44.36,-119.9 -70.87,-39.74 -362.62,-179.85 -405.17,-157.83 -42.56,22.02 -99.03,88.58 -108.62,17.71 -9.6,-70.87 90.91,-76.99 89.59,-117.4 -1.33,-40.4 -30.97,-68.55 -8.6,-89.91 22.35,-21.36 82.45,47.86 101.16,88.11 18.71,40.23 349.03,209.82 382.48,193.76 33.44,-16.06 180.5,-71.02 75.16,97.04" style="fill:#f8a55f;fill-opacity:1;fill-rule:nonzero;stroke:none" id="path228"/>
      <path d="m 740.602,2379.43 c -43.036,-28.31 -90.399,-30.04 -62.649,-60.46 27.75,-30.41 57.539,20.45 87.414,-30.17 29.871,-50.62 135.848,-259.39 120.606,-290.51 -15.25,-31.13 -62.489,-73.04 -11.078,-78.85 51.41,-5.81 54.23,66.99 83.472,66.67 29.238,-0.31 50.073,-21.3 65.163,-4.79 15.09,16.51 -35.928,58.88 -65.327,71.76 -29.398,12.89 -157.308,249.09 -146.226,273.53 11.082,24.45 48.488,131.67 -71.375,52.82" style="fill:#f8a55f;fill-opacity:1;fill-rule:nonzero;stroke:none" id="path230"/>
      <path d="m 557.344,2403.68 c -43.031,-28.3 -90.395,-30.03 -62.649,-60.45 27.754,-30.42 57.539,20.44 87.414,-30.17 29.871,-50.63 135.852,-259.39 120.606,-290.52 -15.25,-31.12 -62.485,-73.03 -11.078,-78.84 51.41,-5.81 54.23,66.97 83.476,66.66 29.239,-0.31 50.075,-21.3 65.16,-4.78 15.094,16.5 -35.925,58.86 -65.328,71.75 -29.398,12.89 -157.308,249.1 -146.222,273.54 11.078,24.44 48.484,131.67 -71.379,52.81" style="fill:#f8a55f;fill-opacity:1;fill-rule:nonzero;stroke:none" id="path232"/>
      <path d="m 982.223,1917.95 c 19.307,38.22 96.737,-21.83 86.357,-49.64 -10.36,-27.8 -103.049,16.61 -86.357,49.64" style="fill:#f8a55f;fill-opacity:1;fill-rule:nonzero;stroke:none" id="path234"/>
      <path d="m 894.633,1893.69 c 19.316,38.22 96.734,-21.82 86.367,-49.63 -10.363,-27.8 -103.051,16.61 -86.367,49.63" style="fill:#f8a55f;fill-opacity:1;fill-rule:nonzero;stroke:none" id="path236"/>
      <path d="m 818.852,1899.44 c 38.648,18.45 63.226,-76.39 38.027,-92.07 -25.195,-15.67 -71.414,76.13 -38.027,92.07" style="fill:#f8a55f;fill-opacity:1;fill-rule:nonzero;stroke:none" id="path238"/>
      <path d="m 756.09,1905.49 c 42.816,-0.71 22.547,-96.57 -6.996,-99.38 -29.543,-2.79 -30,99.98 6.996,99.38" style="fill:#f8a55f;fill-opacity:1;fill-rule:nonzero;stroke:none" id="path240"/>
      <path d="m 3399.73,-101.949 c 49.24,15.0779 95.18,3.4295 77.1,40.4177 -18.09,36.9922 -60.96,-3.4492 -75.41,53.52349 -14.46,56.96871 -57.51,287.09781 -34.14,312.69881 23.37,25.579 80.48,52.528 32.78,72.551 -47.71,20.02 -70.86,-49.051 -98.84,-40.531 -27.98,8.508 -42.07,34.508 -61.19,22.898 -19.12,-11.597 17.94,-66.589 42.53,-87.218 24.6,-20.629 81,-283.2504 63.5,-303.6019 -17.51,-20.3399 -83.52,-112.7501 53.67,-70.7381" style="fill:#f8a55f;fill-opacity:1;fill-rule:nonzero;stroke:none" id="path242"/>
      <path d="m 3568.79,-176.711 c 49.25,15.082 95.18,3.441 77.1,40.422 -18.09,36.9882 -60.96,-3.461 -75.41,53.5195 -14.45,56.9687 -57.51,287.1095 -34.14,312.6915 23.38,25.598 80.49,52.539 32.78,72.558 -47.7,20.02 -70.86,-49.039 -98.84,-40.531 -27.98,8.52 -42.07,34.512 -61.19,22.903 -19.12,-11.602 17.94,-66.59 42.53,-87.223 24.6,-20.629 81.01,-283.2501 63.51,-303.598 -17.51,-20.351 -83.53,-112.742 53.66,-70.742" style="fill:#f8a55f;fill-opacity:1;fill-rule:nonzero;stroke:none" id="path244"/>
      <path d="m 3297.47,408.832 c -29.27,-31.262 -86.7,48.117 -68.93,71.887 17.75,23.781 94.22,-44.887 68.93,-71.887" style="fill:#f8a55f;fill-opacity:1;fill-rule:nonzero;stroke:none" id="path246"/>
      <path d="m 3388.35,407.5 c -29.28,-31.262 -86.71,48.121 -68.95,71.891 17.77,23.781 94.24,-44.891 68.95,-71.891" style="fill:#f8a55f;fill-opacity:1;fill-rule:nonzero;stroke:none" id="path248"/>
      <path d="m 3459.46,380.691 c -42.27,-6.839 -39.22,91.09 -10.63,99.051 28.58,7.969 47.16,-93.133 10.63,-99.051" style="fill:#f8a55f;fill-opacity:1;fill-rule:nonzero;stroke:none" id="path250"/>
      <path d="m 3518.01,357.27 c -40.9,12.699 5.48,99.011 34.62,93.39 29.14,-5.609 0.71,-104.379 -34.62,-93.39" style="fill:#f8a55f;fill-opacity:1;fill-rule:nonzero;stroke:none" id="path252"/>
      <path d="m 1769.14,4715.74 c 35.94,36.89 81.83,48.75 48.2,72.5 -33.64,23.75 -51.81,-32.32 -91.86,10.7 -40.04,43.03 -188.37,224.17 -180.16,257.85 8.21,33.67 45.35,84.74 -6.11,79.38 -51.46,-5.37 -38.58,-77.06 -67.21,-83.03 -28.63,-5.98 -53.48,10.05 -64.68,-9.32 -11.19,-19.36 47.73,-49.78 79.21,-56.05 31.49,-6.29 207.12,-209.51 201.55,-235.77 -5.58,-26.25 -19.09,-139 81.06,-36.26" style="fill:#f8a55f;fill-opacity:1;fill-rule:nonzero;stroke:none" id="path254"/>
      <path d="m 1953.33,4731.4 c 35.94,36.89 81.83,48.74 48.2,72.49 -33.63,23.75 -51.81,-32.32 -91.86,10.71 -40.04,43.02 -188.37,224.17 -180.16,257.84 8.21,33.68 45.35,84.74 -6.11,79.39 -51.46,-5.37 -38.59,-77.06 -67.21,-83.04 -28.63,-5.97 -53.48,10.05 -64.68,-9.31 -11.19,-19.36 47.73,-49.79 79.22,-56.06 31.48,-6.28 207.12,-209.5 201.54,-235.76 -5.57,-26.25 -19.09,-139.01 81.06,-36.26" style="fill:#f8a55f;fill-opacity:1;fill-rule:nonzero;stroke:none" id="path256"/>
      <path d="m 293.082,3208.08 c 97.523,24.9 62.5,-482.5 -82.5,-605 -145,-122.5 97.5,247.5 72.5,357.5 -25,110 -107.5,217.5 10,247.5" style="fill:#f8a55f;fill-opacity:1;fill-rule:nonzero;stroke:none" id="path258"/>
      <path d="m 1231.52,602.809 c 62.92,37.839 144.81,-324.008 69.19,-440 -75.63,-115.9692 16.23,193.371 -24.29,264.98 -40.53,71.609 -120.71,129.43 -44.9,175.02" style="fill:#f8a55f;fill-opacity:1;fill-rule:nonzero;stroke:none" id="path260"/>
      <path d="m 1078.89,615.27 c 79.11,23.199 65.05,-393.129 -50.11,-497.571 -115.159,-104.449 72.68,205.391 49.05,294.699 -23.63,89.321 -94.256,174.934 1.06,202.872" style="fill:#f8a55f;fill-opacity:1;fill-rule:nonzero;stroke:none" id="path262"/>
      <path d="M 931.602,604.309 C 1020.49,613.492 923.723,172.41 780.438,83.6914 637.152,-5.03125 898.266,288.379 890.621,388.242 c -7.648,99.867 -66.117,205 40.981,216.067" style="fill:#f8a55f;fill-opacity:1;fill-rule:nonzero;stroke:none" id="path264"/>
      <path d="M 746.516,593.551 C 849.613,577.859 610.973,108.039 423.113,49.832 235.254,-8.37109 616.227,246.48 636.871,361.512 c 20.645,115.039 -14.57,250.957 109.645,232.039" style="fill:#f8a55f;fill-opacity:1;fill-rule:nonzero;stroke:none" id="path266"/>
      <path d="m 501.293,604.57 c 85.68,-5.25 -75.281,-408.039 -224.992,-469.621 -149.715,-61.5779 143.797,175.473 152.23,271.301 8.434,95.832 -30.465,204.648 72.762,198.32" style="fill:#f8a55f;fill-opacity:1;fill-rule:nonzero;stroke:none" id="path268"/>
      <path d="M 237.152,680.102 C 332.688,667.309 120.023,229.18 -52.5938,172.262 -225.215,115.332 122.563,357.199 139.719,463.852 c 17.152,106.64 -17.664,231.648 97.433,216.25" style="fill:#f8a55f;fill-opacity:1;fill-rule:nonzero;stroke:none" id="path270"/>
      <path d="M 74.5859,738.301 C 173.914,705.91 -138.863,280.602 -334.07,253.82 -529.281,227.051 -111.012,416.57 -71.7734,526.898 -32.5391,637.23 -45.0938,777.32 74.5859,738.301" style="fill:#f8a55f;fill-opacity:1;fill-rule:nonzero;stroke:none" id="path272"/>
      <path d="m 4239.72,807.949 c -81.85,90.301 -345.61,-345.269 -274.17,-548.668 71.42,-203.4099 49.08,270.321 138.5,341.301 89.44,70.969 234.29,98.559 135.67,207.367" style="fill:#f8a55f;fill-opacity:1;fill-rule:nonzero;stroke:none" id="path274"/>
      <path d="m 4348.54,582.488 c -108.89,54.754 -197.95,-446.609 -58.03,-610.6091 139.93,-163.9879 -51.62,269.8631 6.22,368.3011 57.84,98.422 183.02,176.359 51.81,242.308" style="fill:#f8a55f;fill-opacity:1;fill-rule:nonzero;stroke:none" id="path276"/>
      <path d="m 4572.04,429.641 c -118.23,29.609 -95.55,-479.0902 76.84,-608.539 172.39,-129.442 -109.37,252.0386 -74.44,360.75 34.93,108.699 140.04,212.109 -2.4,247.789" style="fill:#f8a55f;fill-opacity:1;fill-rule:nonzero;stroke:none" id="path278"/>
      <path d="m 4858.71,302.969 c -118.23,29.621 -95.56,-479.078 76.84,-608.528 172.39,-129.441 -109.37,252.0395 -74.44,360.7387 34.93,108.6993 140.04,212.1093 -2.4,247.7893" style="fill:#f8a55f;fill-opacity:1;fill-rule:nonzero;stroke:none" id="path280"/>
      <path d="M 159.789,3134.45 C 259.801,3123.1 46.875,2661.2 -132.172,2598.17 c -179.051,-63.02 179.0314,196.75 194.7267,308.46 15.6875,111.71 -23.2617,241.5 97.2343,227.82" style="fill:#f8a55f;fill-opacity:1;fill-rule:nonzero;stroke:none" id="path282"/>
      <path d="m 3948.88,4295.58 c -53.3,-60 -363.3,26.7 -130,116.7 108.9,42 183.4,-56.7 130,-116.7 z m -433.8,-51.5 c -31.51,-35.5 -215,15.8 -76.9,69 64.4,24.9 108.5,-33.5 76.9,-69 z m 715,2.1 c -49.9,124.2 -165.8,252.9 -365.3,254.9 -293.31,2.9 -684.5,-143.7 -605.5,-317.5 69.37,-152.53 267.49,-67.22 390.51,-101.14 44.48,-12.26 91.64,-43.02 138.11,-44.5 31.23,-1 52.04,20.65 75.15,38.27 36.65,27.97 82.17,41.98 127.99,43.4 47.32,1.46 86.11,-19.77 131.22,-24.48 44.23,-4.62 59.08,15.04 79.92,46.85 23.45,35.77 46.26,58.42 27.9,104.2" style="fill:#f8a55f;fill-opacity:1;fill-rule:nonzero;stroke:none" id="path284"/>
      <path d="m 4251.95,3839.8 c 38.88,104.56 -164.32,247.13 -141.47,69.8 22.85,-177.33 48.61,-52.32 79.27,-67.67 30.65,-15.34 34.76,-75.92 62.2,-2.13" style="fill:#f8a55f;fill-opacity:1;fill-rule:nonzero;stroke:none" id="path286"/>
      <path d="m 4306.64,3725.75 c 0,0 -87.95,75.4 -112.26,2.42 -24.32,-72.98 6.31,-286.6 41.32,-267.49 35.01,19.11 15.51,94.01 53.69,68.96 38.19,-25.05 72.51,-16.1 74.43,27.71 1.92,43.83 -22.8,132.36 -57.18,168.4" style="fill:#f8a55f;fill-opacity:1;fill-rule:nonzero;stroke:none" id="path288"/>
      <path d="m 4416.12,3407.69 c -35.63,49.32 -32.91,-33.56 -80.19,-37.55 -47.29,-3.98 -78.98,117.73 -94.48,23.72 -15.51,-94.01 -16.53,-230.91 35.24,-205.76 51.78,25.14 60.41,62.38 102.18,29.94 41.76,-32.44 73.73,139.16 37.25,189.65" style="fill:#f8a55f;fill-opacity:1;fill-rule:nonzero;stroke:none" id="path290"/>
      <path d="m 4375.67,2960.1 c 73.01,84.34 -67.44,289.01 -108.09,114.9 -40.67,-174.11 27.22,-66.03 50.56,-91.13 23.35,-25.1 6,-83.29 57.53,-23.77" style="fill:#f8a55f;fill-opacity:1;fill-rule:nonzero;stroke:none" id="path292"/>
      <path d="m 4381.98,2849.12 c 0,0 -55.99,101.42 -104.31,41.56 -48.32,-59.85 -94.4,-270.68 -54.91,-265.04 39.49,5.65 47.44,82.64 74.43,45.82 27,-36.83 62.28,-40.47 79.42,-0.09 17.14,40.37 24.96,131.96 5.37,177.75" style="fill:#f8a55f;fill-opacity:1;fill-rule:nonzero;stroke:none" id="path294"/>
      <path d="m 4378.22,2497.86 c -16.11,58.67 -42.58,-19.92 -88.26,-7.1 -45.69,12.82 -32.78,137.92 -80.21,55.28 -47.44,-82.63 -96.29,-210.51 -38.99,-205.08 57.3,5.44 78.41,37.29 106.18,-7.72 27.78,-45.01 117.78,104.56 101.28,164.62" style="fill:#f8a55f;fill-opacity:1;fill-rule:nonzero;stroke:none" id="path296"/>
      <path d="m 4270.82,2029.69 c 87.52,101.1 -80.84,346.46 -129.59,137.74 -48.74,-208.73 32.65,-79.16 60.64,-109.25 27.97,-30.09 7.17,-99.84 68.95,-28.49" style="fill:#f8a55f;fill-opacity:1;fill-rule:nonzero;stroke:none" id="path298"/>
      <path d="m 4278.39,1896.65 c 0,0 -67.13,121.57 -125.05,49.82 -57.93,-71.75 -113.15,-324.5 -65.82,-317.72 47.33,6.78 56.86,99.06 89.22,54.92 32.37,-44.15 74.67,-48.51 95.2,-0.12 20.55,48.41 29.94,158.21 6.45,213.1" style="fill:#f8a55f;fill-opacity:1;fill-rule:nonzero;stroke:none" id="path300"/>
      <path d="m 4293.15,1540.34 c -43.74,58.37 -38.75,-40.92 -95.34,-46.68 -56.59,-5.76 -97.12,139.46 -113.74,26.46 -16.63,-113.01 -14.98,-277.11 46.56,-245.89 61.52,31.22 71.08,76.03 121.83,38.02 50.74,-38.01 85.46,168.35 40.69,228.09" style="fill:#f8a55f;fill-opacity:1;fill-rule:nonzero;stroke:none" id="path302"/>
      <path d="m 4285.29,1224.65 c 0,0 -122.11,66.15 -132.16,-25.52 -10.06,-91.66 79.79,-334.271 115.99,-303.028 36.2,31.25 -5.58,114.098 45.5,94.39 51.06,-19.711 89.04,-0.57 80.21,51.268 -8.81,51.83 -60.14,149.34 -109.54,182.89" style="fill:#f8a55f;fill-opacity:1;fill-rule:nonzero;stroke:none" id="path304"/>
      <path d="m 4489.96,932.621 c -68.32,25.539 -10.56,-55.359 -55.09,-90.75 -44.54,-35.383 -157.02,65.027 -110.05,-39.09 46.99,-104.121 136.91,-241.39 171.87,-181.91 34.95,59.481 18.83,102.371 82.07,97.738 63.23,-4.629 -18.87,187.852 -88.8,214.012" style="fill:#f8a55f;fill-opacity:1;fill-rule:nonzero;stroke:none" id="path306"/>
      <path d="m 4722.5,679.988 c 0,0 -138.07,-14.898 -94.29,-96.058 43.78,-81.168 255.53,-229.809 267.58,-183.532 12.05,46.274 -69.38,90.731 -16.16,103.524 53.23,12.777 73.6,50.098 36.9,87.758 -36.7,37.66 -134.32,88.75 -194.03,88.308" style="fill:#f8a55f;fill-opacity:1;fill-rule:nonzero;stroke:none" id="path308"/>
      <path d="m 5056.82,555.871 c -70.75,-17.769 22.75,-51.551 6.19,-105.973 -16.56,-54.418 -166.16,-35.656 -68.37,-94.679 97.8,-59.02 249.77,-120.93 244.76,-52.11 -5.01,68.801 -42.63,94.95 12.05,127.063 54.67,32.109 -122.22,143.887 -194.63,125.699" style="fill:#f8a55f;fill-opacity:1;fill-rule:nonzero;stroke:none" id="path310"/>
      <path d="m 2803.08,1208.08 c -42.5,10 -34.11,128.79 15,105 82.5,-40 27.5,-115 -15,-105 z m -157.5,-10 c -97.5,-122.5 -372.5,-190 -352.5,-110 20,80 -90,167.5 -55,207.5 35,40 125,52.5 125,52.5 82.5,17.5 380,-27.5 282.5,-150 z m -452.5,-87.5 c -85,-82.5 -260,-112.498 -247.5,-30 12.5,82.5 22.5,222.5 122.5,240 79,13.79 210,-127.5 125,-210 z m -442.5,0 c -5,-95 -115,-232.498 -170,-227.498 -55,5 25,95 92.5,189.998 67.5,95 -4.3,192.3 35,212.5 92.5,47.5 47.5,-80 42.5,-175 z m 1114,269.6 c -154.3,153.6 -576.4,33.5 -693.6,23.5 -117.2,-10 -436.3,74.6 -529.1,-40.3 -92.5,-114.5 -38.1,-174.01 -30.5,-233.6 7.5,-59.5 -144.3,-137.3 -194.4,-246.1 -50,-108.801 336.1,-113.301 423.8,-46 87.7,67.199 222.2,18.699 283,3 60.8,-15.7 207.4,99.601 261.9,131.3 54.5,31.7 164.6,-30.511 205.9,9.598 41.4,40.102 271.3,101.502 351.8,132.302 80.5,30.7 75.5,112.7 -78.8,266.3" style="fill:#f8a55f;fill-opacity:1;fill-rule:nonzero;stroke:none" id="path312"/>
      <path d="m 1909.62,815.398 c 9.78,106.692 208.06,-56.707 303.06,-46.597 95.01,10.109 218.99,83.66 332.76,56.34 113.77,-27.321 283.1,83.078 349.77,47.058 66.65,-36.019 -68.17,-227.75 -165.04,-231.89 -96.88,-4.149 -243.66,-37.008 -317.01,-100.239 -73.34,-63.23 -293.67,-87.91 -354.88,-45.148 -61.22,42.769 -380.71,162.758 -346.45,199.66 34.26,36.898 193.23,71.059 197.79,120.816" style="fill:#f8a55f;fill-opacity:1;fill-rule:nonzero;stroke:none" id="path314"/>
      <path d="m 1337.94,904.32 c -7.19,71.942 -47.33,-47.34 -43.22,-127.601 4.12,-80.258 2.06,-142.008 51.46,-150.25 49.39,-8.227 127.6,80.273 82.32,109.09 -45.28,28.812 -84.38,107.023 -90.56,168.761" style="fill:#f8a55f;fill-opacity:1;fill-rule:nonzero;stroke:none" id="path316"/>
      <path d="m 2975.26,992.75 c 16.32,-24.398 7.92,26.01 -8.87,54 -16.81,27.98 -27.86,50.51 -47.14,44.02 -19.28,-6.48 -30.41,-53.14 -8.67,-54.82 21.72,-1.68 50.68,-22.24 64.68,-43.2" style="fill:#f8a55f;fill-opacity:1;fill-rule:nonzero;stroke:none" id="path318"/>
      <path d="m 2817.5,946.238 c -6.1,-28.718 24.16,12.461 32.48,44.024 8.33,31.568 16.75,55.198 -1.34,64.488 -18.09,9.28 -59.28,-15.29 -45.33,-32.03 13.97,-16.74 19.42,-51.829 14.19,-76.482" style="fill:#f8a55f;fill-opacity:1;fill-rule:nonzero;stroke:none" id="path320"/>
      <path d="m 2735.83,909.57 c -6.1,-28.718 24.16,12.469 32.49,44.032 8.32,31.57 16.75,55.198 -1.35,64.488 -18.09,9.28 -59.27,-15.3 -45.32,-32.039 13.96,-16.731 19.42,-51.821 14.18,-76.481" style="fill:#f8a55f;fill-opacity:1;fill-rule:nonzero;stroke:none" id="path322"/>
      <path d="m -881.234,1573.12 c 41.195,35.79 80.273,-76.72 41.847,-97.46 -38.426,-20.73 -111.07,37.35 -41.847,97.46 z m 430.152,152.39 c 0,0 90.144,11.39 134.359,-18.1 44.219,-29.5 -39.175,-142.64 0.985,-214.67 40.164,-72.02 -242.93,-78.53 -368.989,14.32 -126.054,92.86 149.43,213.85 233.645,218.45 z m 291.965,50.34 c 101.1053,9.17 147.2537,-123.38 180.8201,-199.77 33.5742,-76.39 -143.1951,-93.04 -246.7621,-35.55 -103.562,57.5 -13.925,228.05 65.942,235.32 z m 356.68,60.05 c 43.207,-9.26 -0.75,-121.92 89.179,-196.04 89.93,-74.12 190.621,-140.15 138.824,-159.31 -51.796,-19.17 -193.832,84.91 -223.421,175.32 -29.586,90.41 -106.2661,201.78 -4.582,180.03 z M -950.281,1348.15 c 85.742,-8.75 323.699,-8.1 374.121,-36.03 50.324,-27.95 140.402,60.8 201.281,44.4 60.879,-16.39 232.469,-89.5 287.0704,-58.49 54.6094,31 171.8164,112.88 274.0036,70.86 102.207,-42.11 473.789,62.87 397.16,154.87 -76.722,91.98 -243.558,127.53 -251.828,186.92 -8.199,59.53 28.817,131.15 -90.332,217.58 -119.539,86.74 -405.558,-78.1 -521.312,-99 -115.758,-20.89 -554.571,-14.96 -663.5,-203.47 -108.933,-188.51 -92.393,-268.98 -6.664,-277.64" style="fill:#f8a55f;fill-opacity:1;fill-rule:nonzero;stroke:none" id="path324"/>
      <path d="m 2629.16,887.91 c -6.1,-28.719 24.17,12.461 32.49,44.02 8.32,31.57 16.75,55.199 -1.35,64.492 -18.08,9.278 -59.27,-15.293 -45.32,-32.043 13.96,-16.731 19.42,-51.82 14.18,-76.469" style="fill:#f8a55f;fill-opacity:1;fill-rule:nonzero;stroke:none" id="path326"/>
      <path d="m 2426.14,923.832 c 0.68,22.168 -20.89,-11.293 -23.19,-35.773 -2.3,-24.5 -6.11,-43 12.88,-48.618 18.98,-5.609 53.99,16.141 37.63,27.707 -16.37,11.563 -27.91,37.641 -27.32,56.684" style="fill:#f8a55f;fill-opacity:1;fill-rule:nonzero;stroke:none" id="path328"/>
      <path d="m 2526.06,923.512 c 7.73,20.789 -23.4,-4.032 -33.39,-26.5 -10,-22.473 -19.53,-38.793 -3.33,-50.172 16.2,-11.391 56.33,-1.961 44.51,14.23 -11.82,16.192 -14.42,44.59 -7.79,62.442" style="fill:#f8a55f;fill-opacity:1;fill-rule:nonzero;stroke:none" id="path330"/>
      <path d="m 2347.23,883.711 c 5.53,14.871 -16.74,-2.879 -23.89,-18.949 -7.15,-16.082 -13.96,-27.75 -2.38,-35.891 11.59,-8.152 40.3,-1.402 31.84,10.18 -8.45,11.57 -10.31,31.898 -5.57,44.66" style="fill:#f8a55f;fill-opacity:1;fill-rule:nonzero;stroke:none" id="path332"/>
      <path d="m 2876.97,987.91 c -9.22,24.79 27.89,-4.789 39.82,-31.578 11.91,-26.793 23.27,-46.242 3.95,-59.82 -19.3,-13.582 -67.15,-2.332 -53.05,16.968 14.08,19.301 17.18,53.161 9.28,74.43" style="fill:#f8a55f;fill-opacity:1;fill-rule:nonzero;stroke:none" id="path334"/>
      <path d="m 2675.87,897.262 c -5.24,14.109 15.89,-2.742 22.67,-18 6.8,-15.274 13.27,-26.34 2.26,-34.071 -11,-7.742 -38.25,-1.332 -30.22,9.661 8.02,11 9.79,30.289 5.29,42.41" style="fill:#f8a55f;fill-opacity:1;fill-rule:nonzero;stroke:none" id="path336"/>
      <path d="m 1235.8,878.512 c 23.54,68.359 -62.79,-23.223 -92.61,-97.864 -29.82,-74.617 -57.5,-129.859 -16.07,-157.976 41.43,-28.133 149.48,19.57 120.39,64.668 -29.09,45.101 -31.91,132.492 -11.71,191.172" style="fill:#f8a55f;fill-opacity:1;fill-rule:nonzero;stroke:none" id="path338"/>
      <path d="m 1115.57,894.34 c 47.44,54.551 -66.92,2.019 -122.535,-56.008 -55.617,-58.023 -101.984,-98.84 -74.117,-140.453 27.863,-41.598 145.912,-37.879 135.852,14.832 -10.06,52.73 20.07,134.809 60.8,181.629" style="fill:#f8a55f;fill-opacity:1;fill-rule:nonzero;stroke:none" id="path340"/>
      <path d="m 896.492,971.199 c 38.59,77.891 -78.445,-18.019 -125.48,-102.429 -47.043,-84.399 -88.547,-146.008 -43.473,-185.918 45.074,-39.922 181.246,0.328 153.508,58.597 -27.746,58.262 -17.672,162.903 15.445,229.75" style="fill:#f8a55f;fill-opacity:1;fill-rule:nonzero;stroke:none" id="path342"/>
      <path d="m 3318.18,5109.47 c 62.92,37.84 144.82,-324 69.19,-439.99 -75.62,-115.98 16.24,193.36 -24.28,264.98 -40.53,71.61 -120.71,129.42 -44.91,175.01" style="fill:#f8a55f;fill-opacity:1;fill-rule:nonzero;stroke:none" id="path344"/>
      <path d="m 3165.56,5121.94 c 79.11,23.19 65.05,-393.14 -50.11,-497.58 -115.16,-104.44 72.68,205.39 49.04,294.71 -23.62,89.32 -94.25,174.93 1.07,202.87" style="fill:#f8a55f;fill-opacity:1;fill-rule:nonzero;stroke:none" id="path346"/>
      <path d="m 3018.27,5110.98 c 88.89,9.18 -7.88,-431.9 -151.16,-520.62 -143.29,-88.72 117.82,204.68 110.18,304.55 -7.65,99.86 -66.12,205 40.98,216.07" style="fill:#f8a55f;fill-opacity:1;fill-rule:nonzero;stroke:none" id="path348"/>
      <path d="m 2833.18,5100.23 c 103.1,-15.7 -135.54,-485.53 -323.4,-543.73 -187.86,-58.2 193.11,196.64 213.76,311.68 20.64,115.04 -14.58,250.95 109.64,232.05" style="fill:#f8a55f;fill-opacity:1;fill-rule:nonzero;stroke:none" id="path350"/>
      <path d="m 5108.19,3617.65 c 88.71,-10.82 -103.74,-419.32 -263.17,-473.95 -159.42,-54.64 160.41,173.35 175.17,272.41 14.75,99.06 -18.87,214.58 88,201.54" style="fill:#f8a55f;fill-opacity:1;fill-rule:nonzero;stroke:none" id="path352"/>
      <path d="m 5085.35,3795 c 97.03,-38.23 -240.14,-443.21 -436.23,-458.17 -196.1,-14.96 232.01,148.77 277.73,256.33 45.71,107.57 41.61,247.9 158.5,201.84" style="fill:#f8a55f;fill-opacity:1;fill-rule:nonzero;stroke:none" id="path354"/>
      <path d="M 725.945,930.102 C 793.559,984.73 647.152,946.52 569.133,889.512 491.113,832.488 427.656,793.891 451.914,738.789 476.172,683.68 616.703,663.32 615.859,727.84 c -0.847,64.519 52.051,155.371 110.086,202.262" style="fill:#f8a55f;fill-opacity:1;fill-rule:nonzero;stroke:none" id="path356"/>
      <path d="M 586.047,960.469 C 669.211,985.77 519.148,1005.23 425.449,981.621 331.746,958.012 258.445,946 260.281,885.82 c 1.836,-60.179 124.489,-131.73 147.895,-71.601 23.394,60.14 106.492,124.543 177.871,146.25" style="fill:#f8a55f;fill-opacity:1;fill-rule:nonzero;stroke:none" id="path358"/>
      <path d="m 255.121,1097.7 c 45.324,74.17 -79.73,-11.01 -134.051,-90.93 C 66.7539,926.852 19.9609,869.16 61.3281,825.41 102.695,781.672 241.895,809.73 219.414,870.211 c -22.484,60.48 -3.191,163.819 35.707,227.489" style="fill:#f8a55f;fill-opacity:1;fill-rule:nonzero;stroke:none" id="path360"/>
      <path d="m 113.148,1079.29 c 69.825,51.77 -78.0464,19.67 -158.3589,-34.07 C -125.527,991.488 -190.527,955.559 -168.574,899.492 -146.621,843.43 -7.05078,817.27 -5.22656,881.77 -3.39844,946.262 53.2227,1034.84 113.148,1079.29" style="fill:#f8a55f;fill-opacity:1;fill-rule:nonzero;stroke:none" id="path362"/>
      <path d="m 3987.25,4068.91 c -77.45,-2.49 -150,-120 -216.67,-105 -66.66,15 -311.66,36.67 -363.33,-1.66 -51.67,-38.34 -30,-133.34 26.67,-118.34 56.66,15 186.66,91.67 251.66,53.34 65,-38.34 231.67,-78.34 286.67,-15 55,63.33 118.33,136.66 70,145 -48.33,8.33 -3.33,43.33 -55,41.66" style="fill:#f8a55f;fill-opacity:1;fill-rule:nonzero;stroke:none" id="path364"/>
      <path d="m 1625.58,3465.58 c 85.73,40.61 160,-115 55,-140 -105,-25 -150,95 -55,140" style="fill:#ab4843;fill-opacity:1;fill-rule:nonzero;stroke:none" id="path366"/>
      <path d="m 1472.99,3522 c 62.43,29.57 116.49,-83.73 40.05,-101.93 -76.45,-18.2 -109.22,69.16 -40.05,101.93" style="fill:#ab4843;fill-opacity:1;fill-rule:nonzero;stroke:none" id="path368"/>
      <path d="m 1092.25,1372.25 c 85.73,40.61 160,-115 55,-140 -105,-25 -150.004,95 -55,140" style="fill:#ab4843;fill-opacity:1;fill-rule:nonzero;stroke:none" id="path370"/>
      <path d="m 939.656,1428.66 c 62.424,29.57 116.494,-83.73 40.047,-101.92 -76.445,-18.2 -109.211,69.16 -40.047,101.92" style="fill:#ab4843;fill-opacity:1;fill-rule:nonzero;stroke:none" id="path372"/>
      <path d="m 110.582,2270.58 c 85.731,40.61 160,-115 55,-140 -105,-25 -150,95 -55,140" style="fill:#ab4843;fill-opacity:1;fill-rule:nonzero;stroke:none" id="path374"/>
      <path d="M -42.0078,2327 C 20.4141,2356.56 74.4805,2243.27 -1.96094,2225.07 -78.4141,2206.87 -111.176,2294.24 -42.0078,2327" style="fill:#ab4843;fill-opacity:1;fill-rule:nonzero;stroke:none" id="path376"/>
      <path d="m 4130.58,4805.58 c 85.74,40.61 160,-115 55,-140 -105,-25 -150,95 -55,140" style="fill:#ab4843;fill-opacity:1;fill-rule:nonzero;stroke:none" id="path378"/>
      <path d="m 3977.99,4862 c 62.42,29.57 116.49,-83.73 40.05,-101.93 -76.45,-18.2 -109.21,69.16 -40.05,101.93" style="fill:#ab4843;fill-opacity:1;fill-rule:nonzero;stroke:none" id="path380"/>
      <path d="m 3020.58,4300.58 c 85.74,40.61 160,-115 55,-140 -105,-25 -150,95 -55,140" style="fill:#ab4843;fill-opacity:1;fill-rule:nonzero;stroke:none" id="path382"/>
      <path d="m 2867.99,4357 c 62.42,29.57 116.49,-83.73 40.05,-101.93 -76.45,-18.2 -109.21,69.16 -40.05,101.93" style="fill:#ab4843;fill-opacity:1;fill-rule:nonzero;stroke:none" id="path384"/>
      <path d="m 2886.65,4050.45 c -94.49,8.48 -79.58,180.26 23.59,148.55 103.18,-31.7 81.11,-157.95 -23.59,-148.55" style="fill:#ab4843;fill-opacity:1;fill-rule:nonzero;stroke:none" id="path386"/>
      <path d="m 3112.29,4038.93 c -45.65,4.09 -38.44,87.07 11.39,71.75 49.84,-15.31 39.17,-76.29 -11.39,-71.75" style="fill:#ab4843;fill-opacity:1;fill-rule:nonzero;stroke:none" id="path388"/>
      <path d="m 2988.95,3972.26 c -45.64,4.1 -38.44,87.07 11.39,71.76 49.84,-15.32 39.18,-76.3 -11.39,-71.76" style="fill:#ab4843;fill-opacity:1;fill-rule:nonzero;stroke:none" id="path390"/>
      <path d="m 2765.62,4175.6 c -45.64,4.09 -38.44,87.06 11.39,71.75 49.84,-15.31 39.17,-76.29 -11.39,-71.75" style="fill:#ab4843;fill-opacity:1;fill-rule:nonzero;stroke:none" id="path392"/>
      <path d="m 1820.58,273.922 c 85.73,40.598 160,-115 55,-140 -105,-25 -150,95 -55,140" style="fill:#ab4843;fill-opacity:1;fill-rule:nonzero;stroke:none" id="path394"/>
      <path d="m 1667.99,330.332 c 62.43,29.566 116.49,-83.73 40.05,-101.934 -76.45,-18.199 -109.22,69.172 -40.05,101.934" style="fill:#ab4843;fill-opacity:1;fill-rule:nonzero;stroke:none" id="path396"/>
      <path d="m 1686.65,23.7813 c -94.49,8.4882 -79.57,180.2577 23.6,148.5507 103.17,-31.703 81.1,-157.9531 -23.6,-148.5507" style="fill:#ab4843;fill-opacity:1;fill-rule:nonzero;stroke:none" id="path398"/>
      <path d="m 1912.28,12.2695 c -45.64,4.0899 -38.43,87.0625 11.4,71.7422 49.83,-15.3125 39.17,-76.29295 -11.4,-71.7422" style="fill:#ab4843;fill-opacity:1;fill-rule:nonzero;stroke:none" id="path400"/>
      <path d="m 1788.95,-54.3984 c -45.64,4.0898 -38.44,87.0586 11.4,71.7382 49.83,-15.30855 39.17,-76.289 -11.4,-71.7382" style="fill:#ab4843;fill-opacity:1;fill-rule:nonzero;stroke:none" id="path402"/>
      <path d="m 1565.62,148.93 c -45.64,4.101 -38.44,87.07 11.39,71.75 49.84,-15.309 39.18,-76.289 -11.39,-71.75" style="fill:#ab4843;fill-opacity:1;fill-rule:nonzero;stroke:none" id="path404"/>
      <path d="m 3760.58,1087.25 c 85.74,40.61 160,-115 55,-140 -105,-25 -150,95 -55,140" style="fill:#ab4843;fill-opacity:1;fill-rule:nonzero;stroke:none" id="path406"/>
      <path d="m 3607.99,1143.66 c 62.42,29.57 116.49,-83.73 40.05,-101.92 -76.45,-18.2 -109.21,69.16 -40.05,101.92" style="fill:#ab4843;fill-opacity:1;fill-rule:nonzero;stroke:none" id="path408"/>
      <path d="m 3626.65,837.121 c -94.49,8.481 -79.58,180.249 23.59,148.551 103.18,-31.711 81.11,-157.953 -23.59,-148.551" style="fill:#ab4843;fill-opacity:1;fill-rule:nonzero;stroke:none" id="path410"/>
      <path d="m 3852.29,825.602 c -45.65,4.089 -38.44,87.058 11.39,71.738 49.84,-15.309 39.17,-76.289 -11.39,-71.738" style="fill:#ab4843;fill-opacity:1;fill-rule:nonzero;stroke:none" id="path412"/>
      <path d="m 3728.95,758.93 c -45.64,4.101 -38.44,87.07 11.39,71.75 49.84,-15.309 39.18,-76.289 -11.39,-71.75" style="fill:#ab4843;fill-opacity:1;fill-rule:nonzero;stroke:none" id="path414"/>
      <path d="m 3505.62,962.27 c -45.64,4.089 -38.44,87.06 11.39,71.74 49.84,-15.31 39.17,-76.291 -11.39,-71.74" style="fill:#ab4843;fill-opacity:1;fill-rule:nonzero;stroke:none" id="path416"/>
      <path d="m 740.582,5093.91 c 85.731,40.62 160,-115 55,-140 -105,-25 -150,95 -55,140" style="fill:#ab4843;fill-opacity:1;fill-rule:nonzero;stroke:none" id="path418"/>
      <path d="m 606.648,4843.79 c -94.484,8.47 -79.574,180.25 23.602,148.55 103.172,-31.7 81.098,-157.95 -23.602,-148.55" style="fill:#ab4843;fill-opacity:1;fill-rule:nonzero;stroke:none" id="path420"/>
      <path d="m 832.281,4832.26 c -45.64,4.1 -38.433,87.07 11.395,71.76 49.836,-15.32 39.176,-76.29 -11.395,-71.76" style="fill:#ab4843;fill-opacity:1;fill-rule:nonzero;stroke:none" id="path422"/>
      <path d="m 708.949,4765.6 c -45.636,4.09 -38.437,87.06 11.399,71.75 49.832,-15.31 39.168,-76.29 -11.399,-71.75" style="fill:#ab4843;fill-opacity:1;fill-rule:nonzero;stroke:none" id="path424"/>
      <path d="m 485.613,4968.93 c -45.636,4.09 -38.433,87.07 11.399,71.75 49.836,-15.31 39.176,-76.29 -11.399,-71.75" style="fill:#ab4843;fill-opacity:1;fill-rule:nonzero;stroke:none" id="path426"/>
      <path d="m 1238.91,4677.58 c -49.76,0 -49.85,-77.34 0,-77.34 49.77,0 49.85,77.34 0,77.34" style="fill:#722d29;fill-opacity:1;fill-rule:nonzero;stroke:none" id="path428"/>
      <path d="m 1026.87,4782.01 c -1.69,0.9 -3.39,1.79 -5.09,2.7 -14.48,7.67 -31.307,8.44 -45.741,0 -13.777,-8.07 -22.441,-23.16 -22.441,-39.13 0,-15.97 8.664,-31.06 22.441,-39.12 14.434,-8.45 31.261,-7.69 45.741,0 1.7,0.9 3.4,1.79 5.09,2.69 27.48,14.56 27.48,58.29 0,72.86" style="fill:#722d29;fill-opacity:1;fill-rule:nonzero;stroke:none" id="path430"/>
      <path d="m 1041.14,2507.8 c -13.53,12.42 -30.16,20.25 -48.894,20.25 -17.73,0 -36.351,-7.71 -48.891,-20.25 -11.992,-11.99 -21.019,-31.67 -20.25,-48.88 0.801,-17.88 6.676,-36.44 20.25,-48.9 13.532,-12.41 30.157,-20.24 48.891,-20.24 17.734,0 36.354,7.7 48.894,20.24 11.99,11.99 21.02,31.67 20.25,48.9 -0.8,17.88 -6.68,36.42 -20.25,48.88" style="fill:#722d29;fill-opacity:1;fill-rule:nonzero;stroke:none" id="path432"/>
      <path d="m 939.867,2646.53 c -2.637,2.04 -5.273,4.08 -7.902,6.11 -6.098,3.54 -12.668,5.31 -19.719,5.33 -2.223,0.27 -4.441,0.53 -6.664,0.78 -9.449,1.11 -21.754,-5.24 -28.176,-11.67 -6.914,-6.9 -12.113,-18.24 -11.668,-28.17 0.457,-10.3 3.84,-20.99 11.668,-28.17 7.258,-6.67 17.914,-12.87 28.176,-11.67 2.223,0.26 4.441,0.52 6.664,0.78 10.703,1.25 19.707,3.52 27.621,11.44 6.774,6.78 11.875,17.89 11.442,27.62 -0.454,10.1 -3.77,20.58 -11.442,27.62" style="fill:#722d29;fill-opacity:1;fill-rule:nonzero;stroke:none" id="path434"/>
      <path d="m 1112.25,2646.57 c -61.33,0 -61.43,-95.32 0,-95.32 61.32,0 61.43,95.32 0,95.32" style="fill:#722d29;fill-opacity:1;fill-rule:nonzero;stroke:none" id="path436"/>
      <path d="m 678.91,1201.39 c -88.972,0 -89.125,-138.28 0,-138.28 88.981,0 89.125,138.28 0,138.28" style="fill:#722d29;fill-opacity:1;fill-rule:nonzero;stroke:none" id="path438"/>
      <path d="m 3472.58,1297.68 c -2.67,8.19 -7.22,15.27 -13.65,21.25 -11.45,11.44 -30.24,20.06 -46.68,19.33 -17.07,-0.76 -34.79,-6.38 -46.68,-19.33 -11.31,-12.32 -20.71,-29.37 -19.34,-46.68 0.6,-7.5 1.31,-15.03 2.97,-22.39 2.2,-5.2 4.39,-10.41 6.59,-15.61 4.1,-7.63 9.72,-13.74 16.84,-18.35 4.08,-4.05 8.88,-6.86 14.42,-8.41 7.79,-4.09 16.19,-5.97 25.2,-5.62 11.61,0.51 22.72,3.49 32.99,8.92 7.62,4.1 13.74,9.72 18.35,16.84 5.79,6.32 9.68,13.73 11.7,22.23 1.66,7.36 2.38,14.89 2.97,22.39 0.34,9.09 -1.55,17.56 -5.68,25.43" style="fill:#722d29;fill-opacity:1;fill-rule:nonzero;stroke:none" id="path440"/>
      <path d="m 3480.9,1466.8 c -6.68,12.65 -19.96,20.94 -33.02,25.39 -12.83,4.35 -25.93,2.92 -38.1,-2.23 -3.76,-1.58 -7.49,-3.17 -11.22,-4.84 -8.03,-4.76 -14.43,-11.16 -19.19,-19.2 -4.84,-8.34 -7.28,-17.35 -7.31,-27 0.03,-9.67 2.47,-18.68 7.31,-27.02 4.76,-8.04 11.16,-14.44 19.19,-19.19 3.73,-1.67 7.46,-3.26 11.22,-4.85 12.17,-5.14 25.27,-6.58 38.1,-2.22 11.64,3.96 21.11,9.98 28.7,19.8 7.2,9.32 12.4,21.37 11.87,33.48 -0.44,9.8 -2.96,19.2 -7.55,27.88" style="fill:#722d29;fill-opacity:1;fill-rule:nonzero;stroke:none" id="path442"/>
      <path d="m 3565.58,1383.08 c -48.26,0 -48.34,-75 0,-75 48.26,0 48.34,75 0,75" style="fill:#722d29;fill-opacity:1;fill-rule:nonzero;stroke:none" id="path444"/>
      <path d="m 2705.58,268.469 c -80.93,0 -81.07,-125.778 0,-125.778 80.93,0 81.07,125.778 0,125.778" style="fill:#722d29;fill-opacity:1;fill-rule:nonzero;stroke:none" id="path446"/>
      <path d="m 2638.92,443.809 c -66.36,0 -66.47,-103.129 0,-103.129 66.34,0 66.46,103.129 0,103.129" style="fill:#722d29;fill-opacity:1;fill-rule:nonzero;stroke:none" id="path448"/>
      <path d="m 2785.58,397.141 c -66.36,0 -66.47,-103.129 0,-103.129 66.35,0 66.46,103.129 0,103.129" style="fill:#722d29;fill-opacity:1;fill-rule:nonzero;stroke:none" id="path450"/>
      <path d="m 2545.58,309.309 c -64.85,0 -64.95,-100.778 0,-100.778 64.85,0 64.96,100.778 0,100.778" style="fill:#722d29;fill-opacity:1;fill-rule:nonzero;stroke:none" id="path452"/>
      <path d="m 2865.58,273.988 c -70.88,0 -71,-110.148 0,-110.148 70.88,0 70.99,110.148 0,110.148" style="fill:#722d29;fill-opacity:1;fill-rule:nonzero;stroke:none" id="path454"/>
      <path d="m 3856.17,3180.01 c -0.19,0.41 -0.39,0.82 -0.58,1.23 -3.55,4.58 -7.08,9.16 -10.62,13.74 -3.97,3.97 -10.44,8.76 -15.32,11.56 -2.81,1.62 -7.81,3.37 -9.71,4.17 -3.9,1.65 -6.69,3.13 -10.46,4.07 l -17.23,2.31 c -5.75,-0.77 -11.5,-1.54 -17.24,-2.31 -5.17,-2.19 -10.33,-4.36 -15.49,-6.54 -7.56,-4.08 -13.62,-9.65 -18.19,-16.71 -4.03,-4.04 -6.8,-8.81 -8.34,-14.3 -2.94,-5.06 -4.42,-10.51 -4.43,-16.37 -1.55,-5.74 -1.55,-11.49 0,-17.23 0.28,-6.03 1.67,-11.76 4.07,-17.2 1.33,-4.43 3.23,-8.98 6.33,-14.93 7.65,-14.67 24.92,-26.88 40.56,-31.19 9.02,-2.83 18.05,-3.23 27.07,-1.21 9.03,0.41 17.44,3.09 25.24,8.05 14.48,9.34 27.24,23.26 31.18,40.56 0.81,6.02 1.62,12.03 2.43,18.04 -0.04,12.25 -3.14,23.67 -9.27,34.26" style="fill:#722d29;fill-opacity:1;fill-rule:nonzero;stroke:none" id="path456"/>
      <path d="m 3755.9,3355.9 c -16.04,16.04 -40.01,22.39 -61.91,16.37 -21.04,-5.81 -39.01,-23.07 -44.43,-44.44 l -1.61,-6.37 c -5.27,-20.79 0.07,-42.84 15.37,-58.14 15.3,-15.3 37.35,-20.65 58.14,-15.37 l 6.36,1.61 c 21.38,5.42 38.64,23.39 44.45,44.44 6.02,21.89 -0.33,45.86 -16.37,61.9" style="fill:#722d29;fill-opacity:1;fill-rule:nonzero;stroke:none" id="path458"/>
      <path d="m 3845.58,3333.26 c -52.79,0 -52.87,-82.03 0,-82.03 52.78,0 52.87,82.03 0,82.03" style="fill:#722d29;fill-opacity:1;fill-rule:nonzero;stroke:none" id="path460"/>
      <path d="m 3805.58,3539.9 c -61.33,0 -61.43,-95.31 0,-95.31 61.32,0 61.43,95.31 0,95.31" style="fill:#722d29;fill-opacity:1;fill-rule:nonzero;stroke:none" id="path462"/>
      <path d="m 3918.92,3548.94 c -55.8,0 -55.9,-86.72 0,-86.72 55.8,0 55.88,86.72 0,86.72" style="fill:#722d29;fill-opacity:1;fill-rule:nonzero;stroke:none" id="path464"/>
      <path d="m 3965.58,3428.91 c -64.35,0 -64.46,-100 0,-100 64.34,0 64.45,100 0,100" style="fill:#722d29;fill-opacity:1;fill-rule:nonzero;stroke:none" id="path466"/>
      <path d="m 4934.25,4001.54 c -0.02,6.31 -1.6,12.19 -4.77,17.64 -2.82,8.67 -7.64,16.18 -14.46,22.51 -8.93,8.19 -19.32,14.25 -30.85,17.98 -17.78,5.76 -37.87,1.12 -53.88,-7.05 -1.35,-0.69 -2.74,-1.34 -4.07,-2.07 -3.03,-1.48 -5.71,-3.49 -8.07,-6.02 -3.43,-1.73 -6.25,-4.1 -8.42,-7.09 -6.98,-6.47 -11.9,-14.14 -14.78,-23 -4.47,-8.51 -6.52,-17.69 -6.15,-27.53 -0.37,-9.83 1.68,-19.01 6.15,-27.53 2.88,-8.85 7.8,-16.52 14.78,-22.99 13.61,-12.5 31.49,-21.78 50.51,-20.93 6.34,0.85 12.67,1.7 19,2.55 12.11,3.4 22.62,9.52 31.53,18.38 6.87,5.44 11.3,12.94 15.19,20.56 2.34,5.57 4.69,11.14 7.05,16.71 2.91,9.29 3.33,18.59 1.24,27.88" style="fill:#722d29;fill-opacity:1;fill-rule:nonzero;stroke:none" id="path468"/>
      <path d="m 4822.59,4135.92 c -6.53,6.49 -14.23,10.98 -23.1,13.47 -9.28,2.49 -18.55,2.49 -27.83,0 -2.11,-0.38 -4.23,-0.76 -6.35,-1.13 -4.08,-1.72 -8.15,-3.44 -12.22,-5.16 -5.97,-3.22 -10.76,-7.61 -14.36,-13.18 -6.67,-8.63 -11.49,-19.8 -10.99,-31.01 0.4,-9.08 2.74,-17.78 6.99,-25.82 5.33,-10.09 19.12,-21.48 30.58,-23.52 l 6.35,-1.13 c 9.28,-2.49 18.55,-2.49 27.83,0 8.87,2.48 16.57,6.97 23.1,13.46 9.4,10.24 15.33,22.83 15.33,37.01 0,13.43 -5.84,27.52 -15.33,37.01" style="fill:#722d29;fill-opacity:1;fill-rule:nonzero;stroke:none" id="path470"/>
      <path d="m 4971.04,4186.46 c -1.47,1.97 -2.92,3.93 -4.39,5.9 -3.54,5.98 -8.31,10.75 -14.3,14.29 -6.21,3.6 -12.92,5.42 -20.1,5.44 -10.57,-0.47 -20.55,-4.04 -28.18,-11.67 -7.22,-7.23 -11.67,-17.96 -11.67,-28.17 0.02,-7.2 1.84,-13.9 5.44,-20.12 3.55,-5.98 8.31,-10.75 14.3,-14.29 1.96,-1.46 3.92,-2.92 5.89,-4.38 l 9.26,-3.91 c 5.14,-1.61 10.29,-1.84 15.43,-0.69 8.14,1.1 16.54,4.44 22.25,10.66 4.54,4.95 7.9,10.71 9.96,17.09 2.7,8.33 1.5,22.61 -3.89,29.85" style="fill:#722d29;fill-opacity:1;fill-rule:nonzero;stroke:none" id="path472"/>
      <path d="m 4652.25,2630.79 c -92.5,0 -92.65,-143.75 0,-143.75 92.5,0 92.64,143.75 0,143.75" style="fill:#722d29;fill-opacity:1;fill-rule:nonzero;stroke:none" id="path474"/>
      <path d="m 4627.72,2794.59 -3.28,-1.45 c -36.06,-16 -36.06,-79.12 0,-95.12 l 3.28,-1.45 c 38.05,-16.88 85.41,2.36 85.41,49.01 0,46.65 -47.36,65.88 -85.41,49.01" style="fill:#722d29;fill-opacity:1;fill-rule:nonzero;stroke:none" id="path476"/>
      <path d="m 4838.92,2681.83 c -72.4,0 -72.51,-112.5 0,-112.5 72.38,0 72.51,112.5 0,112.5" style="fill:#722d29;fill-opacity:1;fill-rule:nonzero;stroke:none" id="path478"/>
      <path d="m 2012.25,4504.28 c -41.22,0 -41.29,-64.07 0,-64.07 41.22,0 41.29,64.07 0,64.07" style="fill:#722d29;fill-opacity:1;fill-rule:nonzero;stroke:none" id="path480"/>
      <path d="m 2032.25,4608.4 c -37.96,0 -38.02,-58.98 0,-58.98 37.95,0 38.01,58.98 0,58.98" style="fill:#722d29;fill-opacity:1;fill-rule:nonzero;stroke:none" id="path482"/>
      <path d="m 2132.25,4537.61 c -41.22,0 -41.29,-64.06 0,-64.06 41.22,0 41.29,64.06 0,64.06" style="fill:#722d29;fill-opacity:1;fill-rule:nonzero;stroke:none" id="path484"/>
      <path d="m 992.246,4618.98 c -42.984,0 -43.051,-66.8 0,-66.8 42.974,0 43.054,66.8 0,66.8" style="fill:#722d29;fill-opacity:1;fill-rule:nonzero;stroke:none" id="path486"/>
      <path d="m 145.582,4906.82 c -44.492,0 -44.566,-69.14 0,-69.14 44.484,0 44.559,69.14 0,69.14" style="fill:#722d29;fill-opacity:1;fill-rule:nonzero;stroke:none" id="path488"/>
      <path d="m 152.246,4756.64 c -39.965,0 -40.027,-62.11 0,-62.11 39.965,0 40.027,62.11 0,62.11" style="fill:#722d29;fill-opacity:1;fill-rule:nonzero;stroke:none" id="path490"/>
      <path d="m 1152.25,2927.43 c -36.7,0 -36.76,-57.03 0,-57.03 36.69,0 36.75,57.03 0,57.03" style="fill:#722d29;fill-opacity:1;fill-rule:nonzero;stroke:none" id="path492"/>
      <path d="m 1145.58,3073.54 c -27.4,0 -27.45,-42.58 0,-42.58 27.39,0 27.44,42.58 0,42.58" style="fill:#722d29;fill-opacity:1;fill-rule:nonzero;stroke:none" id="path494"/>
      <path d="m 458.91,2871.72 c -42.226,0 -42.293,-65.62 0,-65.62 42.227,0 42.301,65.62 0,65.62" style="fill:#722d29;fill-opacity:1;fill-rule:nonzero;stroke:none" id="path496"/>
      <path d="m 378.91,2001.93 c -38.203,0 -38.265,-59.37 0,-59.37 38.207,0 38.274,59.37 0,59.37" style="fill:#722d29;fill-opacity:1;fill-rule:nonzero;stroke:none" id="path498"/>
      <path d="m 374.324,2116 c 0.153,-0.36 0.301,-0.71 0.449,-1.06 -0.32,0.88 -0.511,1.77 -0.808,2.66 -0.707,2.52 -1.735,4.86 -3.027,7.04 -0.055,0.1 -0.075,0.2 -0.125,0.3 l -3.993,5.16 c -0.066,0.08 -0.175,0.11 -0.242,0.19 -0.019,0.02 -0.031,0.04 -0.047,0.06 0.008,-0.01 0.008,-0.02 0.012,-0.03 -1.648,1.78 -3.59,3.26 -5.719,4.51 -9.023,5.3 -20.648,5.1 -29.636,-0.14 -8.461,-4.93 -12.266,-12.16 -15.368,-20.91 -7.504,-21.18 13.582,-41.23 33.864,-38.51 9.472,1.27 17.629,6.34 22.543,14.73 4.886,8.36 5.039,17.38 2.097,26" style="fill:#722d29;fill-opacity:1;fill-rule:nonzero;stroke:none" id="path500"/>
      <path d="m 3338.92,839.371 c -43.49,0 -43.56,-67.582 0,-67.582 43.47,0 43.55,67.582 0,67.582" style="fill:#722d29;fill-opacity:1;fill-rule:nonzero;stroke:none" id="path502"/>
      <path d="m 4658.92,1208.57 c -26.28,0 -46.98,-31.32 -31.37,-54.66 1.06,-1.6 2.13,-3.2 3.2,-4.79 14.02,-20.98 42.31,-20.98 56.33,0 l 3.2,4.79 c 15.6,23.34 -5.09,54.66 -31.36,54.66" style="fill:#722d29;fill-opacity:1;fill-rule:nonzero;stroke:none" id="path504"/>
      <path d="m 4656.65,1294.15 c -1.34,4.02 -2.8,8.02 -4.84,11.76 -10.8,19.75 -41.65,19.75 -52.45,0 -2.05,-3.74 -3.51,-7.74 -4.86,-11.76 -6.7,-20.09 11.03,-40.8 31.08,-40.8 20.05,0 37.77,20.73 31.07,40.8" style="fill:#722d29;fill-opacity:1;fill-rule:nonzero;stroke:none" id="path506"/>
      <path d="m 4705.58,1264.08 c -40.97,0 -41.04,-63.67 0,-63.67 40.97,0 41.04,63.67 0,63.67" style="fill:#722d29;fill-opacity:1;fill-rule:nonzero;stroke:none" id="path508"/>
      <path d="m 4798.54,1314.67 c -1.59,6.66 -4.9,12.6 -9.93,17.27 -13.23,12.31 -32.78,12.37 -46.06,0 -5.04,-4.67 -8.34,-10.61 -9.93,-17.27 -5.11,-21.52 10.29,-43.27 32.96,-43.27 22.56,0 38.07,21.74 32.96,43.27" style="fill:#722d29;fill-opacity:1;fill-rule:nonzero;stroke:none" id="path510"/>
      <path d="m 4438.92,4231.92 c -42.48,0 -42.55,-66.02 0,-66.02 42.47,0 42.54,66.02 0,66.02" style="fill:#722d29;fill-opacity:1;fill-rule:nonzero;stroke:none" id="path512"/>
      <path d="m 3578.92,4778.03 c -33.19,0 -33.24,-51.57 0,-51.57 33.17,0 33.23,51.57 0,51.57" style="fill:#722d29;fill-opacity:1;fill-rule:nonzero;stroke:none" id="path514"/>
      <path d="m 3698.92,4995.07 c -37.96,0 -38.02,-58.98 0,-58.98 37.95,0 38.01,58.98 0,58.98" style="fill:#722d29;fill-opacity:1;fill-rule:nonzero;stroke:none" id="path516"/>
      <path d="m 2812.25,3551.33 c -41.73,0 -41.8,-64.84 0,-64.84 41.71,0 41.79,64.84 0,64.84" style="fill:#722d29;fill-opacity:1;fill-rule:nonzero;stroke:none" id="path518"/>
      <path d="m 2916.65,3674.15 c -2.82,13.22 -17.62,24.26 -31.07,23.66 -13.63,-0.61 -28.05,-9.48 -31.08,-23.66 -2.02,-9.46 -1.98,-18.05 2.95,-26.68 1.95,-3.42 4.69,-6.43 7.41,-9.27 10.77,-11.26 30.66,-11.27 41.44,0 2.72,2.84 5.45,5.85 7.41,9.27 4.92,8.63 4.96,17.22 2.94,26.68" style="fill:#722d29;fill-opacity:1;fill-rule:nonzero;stroke:none" id="path520"/>
      <path d="m 3030.42,3575.38 c -3.39,6.41 -12.21,13.73 -19.5,15 -1.06,0.18 -2.12,0.37 -3.19,0.55 -11.58,2.01 -23.81,0.7 -32.3,-8.54 -5.96,-6.5 -9.72,-14.48 -9.72,-23.48 0,-8.51 3.7,-17.45 9.72,-23.48 8.99,-8.98 20.31,-10.63 32.3,-8.54 1.07,0.19 2.13,0.38 3.19,0.56 6.75,1.17 12.97,6.54 16.95,11.69 4.25,5.5 7.33,12.63 7,19.77 -0.25,5.79 -1.74,11.34 -4.45,16.47" style="fill:#722d29;fill-opacity:1;fill-rule:nonzero;stroke:none" id="path522"/>
      <path d="m 1265.58,1911.14 c -41.47,0 -41.54,-64.45 0,-64.45 41.47,0 41.54,64.45 0,64.45" style="fill:#722d29;fill-opacity:1;fill-rule:nonzero;stroke:none" id="path524"/>
      <path d="m 1345.58,1676.04 c -39.21,0 -39.28,-60.93 0,-60.93 39.21,0 39.27,60.93 0,60.93" style="fill:#722d29;fill-opacity:1;fill-rule:nonzero;stroke:none" id="path526"/>
      <path d="m 3745.58,1721.57 c -29.15,0 -29.2,-45.31 0,-45.31 29.16,0 29.21,45.31 0,45.31" style="fill:#722d29;fill-opacity:1;fill-rule:nonzero;stroke:none" id="path528"/>
      <path d="m 3792.25,1877.64 c -32.68,0 -32.74,-50.78 0,-50.78 32.67,0 32.72,50.78 0,50.78" style="fill:#722d29;fill-opacity:1;fill-rule:nonzero;stroke:none" id="path530"/>
      <path d="m 2992.25,1350.38 c -31.93,0 -31.98,-49.61 0,-49.61 31.92,0 31.97,49.61 0,49.61" style="fill:#722d29;fill-opacity:1;fill-rule:nonzero;stroke:none" id="path532"/>
      <path d="m 1232.25,1129.78 c -39.72,0 -39.78,-61.72 0,-61.72 39.71,0 39.78,61.72 0,61.72" style="fill:#722d29;fill-opacity:1;fill-rule:nonzero;stroke:none" id="path534"/>
      <path d="M 1593.24 2717.451 C 1593.05 2717.861 1592.85 2718.271 1592.66 2718.681 C 1589.11 2723.261 1585.58 2727.841 1582.04 2732.421 C 1578.07 2736.391 1571.6 2741.181 1566.72 2743.981 C 1563.91 2745.601 1558.91 2747.351 1557.01 2748.151 C 1553.11 2749.801 1550.32 2751.281 1546.55 2752.221 L 1529.32 2754.531 C 1523.57 2753.761 1517.82 2752.991 1512.08 2752.221 C 1506.91 2750.031 1501.75 2747.861 1496.59 2745.681 C 1489.03 2741.601 1482.97 2736.031 1478.4 2728.971 C 1474.37 2724.931 1471.6 2720.161 1470.06 2714.671 C 1467.12 2709.611 1465.64 2704.161 1465.63 2698.301 C 1464.08 2692.561 1464.08 2686.811 1465.63 2681.071 C 1465.91 2675.041 1467.3 2669.311 1469.7 2663.871 C 1471.03 2659.441 1472.93 2654.891 1476.03 2648.941 C 1483.68 2634.271 1500.95 2622.061 1516.59 2617.751 C 1525.61 2614.921 1534.64 2614.521 1543.66 2616.541 C 1552.69 2616.951 1561.1 2619.631 1568.9 2624.591 C 1583.38 2633.931 1596.14 2647.851 1600.08 2665.151 C 1600.89 2671.171 1601.7 2677.181 1602.51 2683.191 C 1602.47 2695.441 1599.37 2706.861 1593.24 2717.451" style="fill:#722d29;fill-opacity:1;fill-rule:nonzero;stroke:none" id="path-1"/>
      <path d="M 1492.97 2893.341 C 1476.93 2909.381 1452.96 2915.731 1431.059 2909.711 C 1410.019 2903.901 1392.049 2886.641 1386.629 2865.271 L 1385.019 2858.901 C 1379.749 2838.111 1385.089 2816.061 1400.389 2800.761 C 1415.689 2785.461 1437.74 2780.111 1458.53 2785.391 L 1464.89 2787.001 C 1486.27 2792.421 1503.53 2810.391 1509.34 2831.441 C 1515.36 2853.331 1509.01 2877.301 1492.97 2893.341" style="fill:#722d29;fill-opacity:1;fill-rule:nonzero;stroke:none" id="path-2"/>
      <path d="M 1582.65 2870.701 C 1529.86 2870.701 1529.78 2788.671 1582.65 2788.671 C 1635.43 2788.671 1635.52 2870.701 1582.65 2870.701" style="fill:#722d29;fill-opacity:1;fill-rule:nonzero;stroke:none" id="path-3"/>
      <path d="M 1542.65 3077.342 C 1481.32 3077.342 1481.22 2982.032 1542.65 2982.032 C 1603.97 2982.032 1604.08 3077.342 1542.65 3077.342" style="fill:#722d29;fill-opacity:1;fill-rule:nonzero;stroke:none" id="path-4"/>
      <path d="M 1655.99 3086.382 C 1600.19 3086.382 1600.09 2999.662 1655.99 2999.662 C 1711.79 2999.662 1711.87 3086.382 1655.99 3086.382" style="fill:#722d29;fill-opacity:1;fill-rule:nonzero;stroke:none" id="path-5"/>
      <path d="M 3273.933 1943.176 C 3359.664 1983.786 3433.934 1828.175 3328.933 1803.175 C 3223.933 1778.175 3178.929 1898.176 3273.933 1943.176" style="fill:#ab4843;fill-opacity:1;fill-rule:nonzero;stroke:none" id="path-6"/>
      <path d="M 3121.339 1999.586 C 3183.763 2029.156 3237.833 1915.856 3161.386 1897.666 C 3084.941 1879.466 3052.175 1966.826 3121.339 1999.586" style="fill:#ab4843;fill-opacity:1;fill-rule:nonzero;stroke:none" id="path-7"/>
      <path d="M 3413.934 1700.705 C 3374.214 1700.705 3374.154 1638.985 3413.934 1638.985 C 3453.644 1638.985 3453.714 1700.705 3413.934 1700.705" style="fill:#722d29;fill-opacity:1;fill-rule:nonzero;stroke:none" id="path-8"/>
      <path d="M 3232.064 2968.717 C 3217.304 2869.657 2897.474 2641.667 3056.894 2696.307 C 3216.324 2750.937 3408.775 3159.438 3320.065 3170.258 C 3213.194 3183.298 3246.814 3067.778 3232.064 2968.717" style="fill:#722d29;fill-opacity:1;fill-rule:nonzero;stroke:none" id="path-9"/>
      <path d="M 3138.724 3145.768 C 3093.004 3038.208 2664.893 2874.477 2860.994 2889.437 C 3057.084 2904.397 3394.255 3309.378 3297.225 3347.608 C 3180.334 3393.668 3184.434 3253.338 3138.724 3145.768" style="fill:#722d29;fill-opacity:1;fill-rule:nonzero;stroke:none" id="path-10"/>
      <path d="M 3280.064 3210.258 C 3368.775 3199.438 3176.324 2790.937 3016.894 2736.307 C 2857.474 2681.667 3177.304 2909.657 3192.064 3008.718 C 3206.814 3107.778 3173.194 3223.298 3280.064 3210.258" style="fill:#f8a55f;fill-opacity:1;fill-rule:nonzero;stroke:none" id="path-11"/>
      <path d="M 3257.224 3387.608 C 3354.255 3349.378 3017.084 2944.397 2820.994 2929.437 C 2624.893 2914.477 3053.004 3078.208 3098.724 3185.768 C 3144.434 3293.338 3140.334 3433.668 3257.224 3387.608" style="fill:#f8a55f;fill-opacity:1;fill-rule:nonzero;stroke:none" id="path-13"/>
      <path d="M 2664.179 1922.976 C 2739.809 2038.967 2657.909 2400.807 2594.989 2362.967 C 2519.188 2317.377 2599.369 2259.567 2639.899 2187.957 C 2680.419 2116.337 2588.558 1806.996 2664.179 1922.976" style="fill:#722d29;fill-opacity:1;fill-rule:nonzero;stroke:none" id="path-14"/>
      <path d="M 2442.368 2375.447 C 2347.048 2347.497 2417.678 2261.887 2441.298 2172.567 C 2464.938 2083.247 2277.098 1773.416 2392.258 1877.856 C 2507.418 1982.297 2521.478 2398.627 2442.368 2375.447" style="fill:#722d29;fill-opacity:1;fill-rule:nonzero;stroke:none" id="path-15"/>
      <path d="M 2295.078 2364.477 C 2187.978 2353.407 2246.448 2248.267 2254.098 2148.407 C 2261.738 2048.537 2000.627 1755.136 2143.918 1843.856 C 2287.198 1932.576 2383.968 2373.657 2295.078 2364.477" style="fill:#722d29;fill-opacity:1;fill-rule:nonzero;stroke:none" id="path-16"/>
      <path d="M 1786.597 1809.996 C 1974.447 1868.196 2213.088 2338.027 2109.988 2353.727 C 1985.767 2372.627 2020.987 2236.717 2000.347 2121.677 C 1979.697 2006.637 1598.726 1751.796 1786.597 1809.996" style="fill:#722d29;fill-opacity:1;fill-rule:nonzero;stroke:none" id="path-17"/>
      <path d="M 2554.988 2402.967 C 2617.909 2440.807 2699.809 2078.967 2624.179 1962.977 C 2548.558 1846.996 2640.419 2156.337 2599.899 2227.957 C 2559.368 2299.567 2479.188 2357.377 2554.988 2402.967" style="fill:#f8a55f;fill-opacity:1;fill-rule:nonzero;stroke:none" id="path-18"/>
      <path d="M 2402.368 2415.437 C 2481.478 2438.627 2467.418 2022.297 2352.258 1917.856 C 2237.098 1813.416 2424.938 2123.247 2401.298 2212.567 C 2377.678 2301.887 2307.048 2387.497 2402.368 2415.437" style="fill:#f8a55f;fill-opacity:1;fill-rule:nonzero;stroke:none" id="path-19"/>
      <path d="M 2255.078 2404.477 C 2343.968 2413.657 2247.198 1972.577 2103.918 1883.856 C 1960.627 1795.136 2221.738 2088.537 2214.098 2188.407 C 2206.448 2288.267 2147.978 2393.407 2255.078 2404.477" style="fill:#f8a55f;fill-opacity:1;fill-rule:nonzero;stroke:none" id="path-20"/>
      <path d="M 2069.987 2393.727 C 2173.088 2378.027 1934.447 1908.196 1746.587 1849.996 C 1558.726 1791.796 1939.697 2046.637 1960.347 2161.677 C 1980.987 2276.717 1945.767 2412.627 2069.987 2393.727" style="fill:#f8a55f;fill-opacity:1;fill-rule:nonzero;stroke:none" id="path-21"/>
      <path d="M 2477.875 3100.66 C 2407.005 3060.92 2115.265 2920.81 2072.705 2942.83 C 2030.144 2964.85 1973.674 3031.41 1964.084 2960.54 C 1954.484 2889.669 2054.995 2883.549 2053.675 2843.139 C 2052.345 2802.739 2022.714 2774.589 2045.075 2753.229 C 2067.425 2731.869 2127.525 2801.089 2146.235 2841.339 C 2164.945 2881.569 2495.265 3051.16 2528.715 3035.1 C 2562.156 3019.04 2709.216 2964.08 2603.876 3132.14 C 2566.066 3192.47 2565.126 3257.98 2522.235 3220.56 C 2479.355 3183.12 2548.746 3140.41 2477.875 3100.66" style="fill:#722d29;fill-opacity:1;fill-rule:nonzero;stroke:none" id="path-22"/>
      <path d="M 2563.876 3172.14 C 2526.065 3232.47 2525.115 3297.98 2482.235 3260.56 C 2439.355 3223.12 2508.745 3180.41 2437.875 3140.66 C 2367.005 3100.92 2075.255 2960.81 2032.704 2982.83 C 1990.144 3004.85 1933.674 3071.41 1924.084 3000.54 C 1914.484 2929.67 2014.994 2923.55 2013.674 2883.139 C 2012.344 2842.739 1982.704 2814.589 2005.074 2793.229 C 2027.424 2771.869 2087.525 2841.089 2106.235 2881.339 C 2124.945 2921.57 2455.265 3091.16 2488.715 3075.1 C 2522.155 3059.04 2669.216 3004.08 2563.876 3172.14" style="fill:#f8a55f;fill-opacity:1;fill-rule:nonzero;stroke:none" id="path-23"/>
      <path d="M 3808.379 2226.254 C 3805.709 2234.444 3801.159 2241.524 3794.729 2247.504 C 3783.279 2258.944 3764.489 2267.564 3748.049 2266.834 C 3730.979 2266.074 3713.259 2260.454 3701.369 2247.504 C 3690.058 2235.184 3680.658 2218.134 3682.028 2200.824 C 3682.628 2193.324 3683.338 2185.794 3684.998 2178.434 C 3687.198 2173.234 3689.388 2168.024 3691.588 2162.824 C 3695.688 2155.194 3701.309 2149.084 3708.429 2144.474 C 3712.509 2140.424 3717.309 2137.614 3722.849 2136.064 C 3730.639 2131.974 3739.039 2130.094 3748.049 2130.444 C 3759.659 2130.954 3770.769 2133.934 3781.039 2139.364 C 3788.659 2143.464 3794.779 2149.084 3799.389 2156.204 C 3805.179 2162.524 3809.069 2169.934 3811.089 2178.434 C 3812.749 2185.794 3813.469 2193.324 3814.059 2200.824 C 3814.399 2209.914 3812.509 2218.384 3808.379 2226.254" style="fill:#722d29;fill-opacity:1;fill-rule:nonzero;stroke:none" id="path-24"/>
      <path d="M 3816.699 2395.374 C 3810.019 2408.024 3796.739 2416.314 3783.679 2420.764 C 3770.849 2425.114 3757.749 2423.684 3745.579 2418.534 C 3741.819 2416.954 3738.089 2415.364 3734.359 2413.694 C 3726.329 2408.934 3719.929 2402.534 3715.169 2394.494 C 3710.329 2386.154 3707.889 2377.144 3707.859 2367.494 C 3707.889 2357.824 3710.329 2348.814 3715.169 2340.474 C 3719.929 2332.434 3726.329 2326.034 3734.359 2321.284 C 3738.089 2319.614 3741.819 2318.024 3745.579 2316.434 C 3757.749 2311.294 3770.849 2309.854 3783.679 2314.214 C 3795.319 2318.174 3804.789 2324.194 3812.379 2334.014 C 3819.579 2343.334 3824.779 2355.384 3824.249 2367.494 C 3823.809 2377.294 3821.289 2386.694 3816.699 2395.374" style="fill:#722d29;fill-opacity:1;fill-rule:nonzero;stroke:none" id="path-25"/>
      <path d="M 3901.379 2311.654 C 3853.119 2311.654 3853.039 2236.654 3901.379 2236.654 C 3949.639 2236.654 3949.719 2311.654 3901.379 2311.654" style="fill:#722d29;fill-opacity:1;fill-rule:nonzero;stroke:none" id="path-26"/>
      <path d="M 3609.731 2871.751 C 3695.462 2912.361 3769.733 2756.75 3664.731 2731.75 C 3559.731 2706.75 3514.727 2826.751 3609.731 2871.751" style="fill:#ab4843;fill-opacity:1;fill-rule:nonzero;stroke:none" id="path-27"/>
      <path d="M 3749.733 2629.28 C 3710.013 2629.28 3709.953 2567.56 3749.733 2567.56 C 3789.443 2567.56 3789.513 2629.28 3749.733 2629.28" style="fill:#722d29;fill-opacity:1;fill-rule:nonzero;stroke:none" id="path-29"/>
      <path d="M 2571.915 2780.812 C 2657.646 2821.422 2731.916 2665.811 2626.915 2640.811 C 2521.915 2615.811 2476.91 2735.812 2571.915 2780.812" style="fill:#ab4843;fill-opacity:1;fill-rule:nonzero;stroke:none" id="path-28"/>
      <path d="M 2419.32 2837.222 C 2481.744 2866.792 2535.815 2753.492 2459.367 2735.302 C 2382.922 2717.102 2350.156 2804.462 2419.32 2837.222" style="fill:#ab4843;fill-opacity:1;fill-rule:nonzero;stroke:none" id="path-30"/>
      <path d="M 2711.916 2538.341 C 2672.196 2538.341 2672.136 2476.621 2711.916 2476.621 C 2751.626 2476.621 2751.696 2538.341 2711.916 2538.341" style="fill:#722d29;fill-opacity:1;fill-rule:nonzero;stroke:none" id="path-31"/>
      <path d="M 1487.016 2263.087 C 1470.975 2279.128 1447.005 2285.478 1425.104 2279.458 C 1404.064 2273.648 1386.094 2256.387 1380.674 2235.017 L 1379.064 2228.647 C 1373.794 2207.857 1379.134 2185.807 1394.434 2170.507 C 1409.734 2155.207 1431.785 2149.857 1452.575 2155.137 L 1458.935 2156.747 C 1480.315 2162.167 1497.576 2180.137 1503.386 2201.187 C 1509.406 2223.077 1503.056 2247.047 1487.016 2263.087" style="fill:#722d29;fill-opacity:1;fill-rule:nonzero;stroke:none" id="path-36"/>
      <path d="M 1576.696 2240.447 C 1523.906 2240.447 1523.826 2158.417 1576.696 2158.417 C 1629.476 2158.417 1629.566 2240.447 1576.696 2240.447" style="fill:#722d29;fill-opacity:1;fill-rule:nonzero;stroke:none" id="path-37"/>
      <path d="M 1536.696 2447.089 C 1475.365 2447.089 1475.265 2351.779 1536.696 2351.779 C 1598.016 2351.779 1598.126 2447.089 1536.696 2447.089" style="fill:#722d29;fill-opacity:1;fill-rule:nonzero;stroke:none" id="path-38"/>
      <path d="M 1650.036 2456.129 C 1594.236 2456.129 1594.136 2369.409 1650.036 2369.409 C 1705.836 2369.409 1705.916 2456.129 1650.036 2456.129" style="fill:#722d29;fill-opacity:1;fill-rule:nonzero;stroke:none" id="path-39"/>
      <path d="M 2229.467 3319.748 C 2229.277 3320.158 2229.077 3320.568 2228.887 3320.978 C 2225.337 3325.558 2221.807 3330.138 2218.267 3334.718 C 2214.297 3338.688 2207.827 3343.478 2202.947 3346.278 C 2200.137 3347.898 2195.137 3349.648 2193.237 3350.448 C 2189.337 3352.098 2186.547 3353.578 2182.777 3354.518 L 2165.547 3356.828 C 2159.797 3356.058 2154.047 3355.288 2148.307 3354.518 C 2143.137 3352.328 2137.977 3350.158 2132.817 3347.978 C 2125.257 3343.898 2119.197 3338.328 2114.627 3331.268 C 2110.597 3327.228 2107.827 3322.458 2106.287 3316.968 C 2103.347 3311.908 2101.867 3306.458 2101.857 3300.598 C 2100.307 3294.858 2100.307 3289.108 2101.857 3283.368 C 2102.137 3277.338 2103.527 3271.608 2105.927 3266.168 C 2107.257 3261.738 2109.157 3257.188 2112.257 3251.238 C 2119.907 3236.568 2137.177 3224.358 2152.817 3220.048 C 2161.837 3217.218 2170.867 3216.818 2179.887 3218.838 C 2188.917 3219.248 2197.327 3221.928 2205.127 3226.888 C 2219.607 3236.228 2232.367 3250.148 2236.307 3267.448 C 2237.117 3273.468 2237.927 3279.478 2238.737 3285.488 C 2238.697 3297.738 2235.597 3309.158 2229.467 3319.748" style="fill:#722d29;fill-opacity:1;fill-rule:nonzero;stroke:none" id="path-35"/>
      <path d="M 2129.197 3495.639 C 2113.157 3511.679 2089.187 3518.029 2067.286 3512.009 C 2046.246 3506.199 2028.276 3488.939 2022.856 3467.569 L 2021.246 3461.199 C 2015.976 3440.409 2021.316 3418.358 2036.616 3403.058 C 2051.916 3387.758 2073.967 3382.408 2094.757 3387.688 L 2101.117 3389.298 C 2122.497 3394.718 2139.757 3412.688 2145.567 3433.739 C 2151.587 3455.629 2145.237 3479.599 2129.197 3495.639" style="fill:#722d29;fill-opacity:1;fill-rule:nonzero;stroke:none" id="path-40"/>
      <path d="M 2218.877 3472.999 C 2166.087 3472.999 2166.007 3390.968 2218.877 3390.968 C 2271.657 3390.968 2271.747 3472.999 2218.877 3472.999" style="fill:#722d29;fill-opacity:1;fill-rule:nonzero;stroke:none" id="path-41"/>
      <path d="M 2476.946 1574.473 C 2444.266 1574.473 2444.206 1523.693 2476.946 1523.693 C 2509.616 1523.693 2509.666 1574.473 2476.946 1574.473" style="fill:#722d29;fill-opacity:1;fill-rule:nonzero;stroke:none" id="path-43"/>
      <path d="M 1958.628 1640.009 C 2044.359 1680.619 2118.629 1525.008 2013.628 1500.008 C 1908.628 1475.008 1863.624 1595.009 1958.628 1640.009" style="fill:#ab4843;fill-opacity:1;fill-rule:nonzero;stroke:none" id="path-44"/>
      <path d="M 1806.034 1696.42 C 1868.458 1725.99 1922.528 1612.689 1846.081 1594.499 C 1769.636 1576.299 1736.87 1663.659 1806.034 1696.42" style="fill:#ab4843;fill-opacity:1;fill-rule:nonzero;stroke:none" id="path-45"/>
      <path d="M 2914.658 1711.203 C 3000.389 1751.813 3074.659 1596.202 2969.658 1571.202 C 2864.658 1546.202 2819.654 1666.203 2914.658 1711.203" style="fill:#ab4843;fill-opacity:1;fill-rule:nonzero;stroke:none" id="path-42"/>
      <path d="M 2762.064 1767.613 C 2824.488 1797.183 2878.558 1683.883 2802.111 1665.693 C 2725.666 1647.493 2692.899 1734.853 2762.064 1767.613" style="fill:#ab4843;fill-opacity:1;fill-rule:nonzero;stroke:none" id="path-46"/>
    </g>
  </g>
  <path d="M 113.069 275.847 C 110.134 272.713 104.376 280.672 106.157 283.056 C 107.937 285.44 115.605 278.555 113.069 275.847" style="fill:#f8a55f;fill-opacity:1;fill-rule:nonzero;stroke:none" id="path-12" transform="matrix(-1, 0, 0, -1, 219.40014, 558.675764)"/>
  <path d="M 327.638 253.924 C 336.235 249.852 343.682 265.456 333.153 267.963 C 322.624 270.47 318.111 258.437 327.638 253.924" style="fill:#ab4843;fill-opacity:1;fill-rule:nonzero;stroke:none" id="path-32"/>
  <path d="M 312.337 248.268 C 318.596 245.303 324.018 256.664 316.352 258.488 C 308.687 260.313 305.401 251.553 312.337 248.268" style="fill:#ab4843;fill-opacity:1;fill-rule:nonzero;stroke:none" id="path-33"/>
  <path d="M 341.676 278.238 C 337.694 278.238 337.687 284.427 341.676 284.427 C 345.658 284.427 345.665 278.238 341.676 278.238" style="fill:#722d29;fill-opacity:1;fill-rule:nonzero;stroke:none" id="path-34"/>
</svg>