<svg width="3377" height="2160" viewBox="0 0 3377 2160" fill="none" xmlns="http://www.w3.org/2000/svg">
<path d="M2027 137C1950 114 1757.8 76.0999 1605 108.5C1539.21 122.45 1441.54 83.0446 1337.5 82.5C1199.9 81.7798 1052.66 116.187 968 108.5L900.5 137H821.5L715.5 168.5C663.5 152.9 594.333 182.5 571 189C530.6 215.8 480 280.833 455 310L411.5 336.5C407.5 307.7 460.5 232.5 501.5 189C471.833 194.667 378 176.5 318 157.5C248.895 135.617 104.5 108.5 41.5 108.5L0.5 53H136.5C161.667 67 327.5 103.3 501.5 82.5C570.707 74.227 654.036 57.3485 728.5 39C841.253 11.2168 850.291 -56.527 906 -76H1048.5H1636L3454 -32L3303 97L3206.5 268.5C3182 351.333 3186.1 515.8 3228.5 963C3270.9 1410.2 3330 1971.5 3302 2226.5H2327.5C2567.9 2044.5 2622.33 1277 2619.5 916C2586.73 843.528 2566.05 764.974 2530 707C2496 671 2469.24 643.64 2443.5 623C2413.48 598.923 2384 597.5 2341.5 592.5C2326 592.5 2269.99 594.674 2263 592.5C2240.2 584.1 2214 564 2234.5 564L2325.5 553C2309.76 546.364 2257.37 526.209 2214 503C2165.87 477.243 2123.26 459.419 2113 456L2092 409L2270 473C2353.6 491.8 2513.83 539 2552.5 564L2449 319.5L2291 222.5L2167.5 201L2027 137Z" fill="#3D0F57"/>
</svg>
