<?xml version="1.0" encoding="utf-8"?>
<!-- <a href="https://www.freepik.com/vectors/archaeology%22%3EArchaeology vector created by macrovector - www.freepik.com</a> -->
<!-- Generator: Adobe Adobe Illustrator 24.2.0, SVG Export Plug-In . SVG Version: 6.00 Build 0)  -->
<svg version="1.1" id="XMLID_1_" xmlns="http://www.w3.org/2000/svg" xmlns:xlink="http://www.w3.org/1999/xlink" x="0px" y="0px"
	 width="439.69px" height="439.69px" viewBox="0 0 439.69 439.69" style="enable-background:new 0 0 439.69 439.69;"
	 xml:space="preserve">
<style type="text/css">
	.st0{fill:#AD5351;}
	.st1{fill:#AF8A71;}
	.st2{fill:#FFFFFF;}
	.st3{fill:#6E1E1D;}
	.st4{fill:#FFCC8D;}
	.st5{fill:#F4BC7D;}
	.st6{fill:#FF9784;}
	.st7{fill:#DD9D75;}
	.st8{fill:#8A2C2C;}
	.st9{fill:#A44040;}
	.st10{fill:#FFAD97;}
	.st11{fill:#C6825D;}
	.st12{fill:#FFC5B3;}
	.st13{fill:#A58168;}
	.st14{fill:#F2B472;}
	.st15{fill:#FFD9A1;}
	.st16{fill:#BA4D4D;}
	.st17{fill:#8E823A;}
	.st18{fill:#7C733E;}
	.st19{fill:#706935;}
	.st20{fill:#664431;}
	.st21{fill:#D3B49F;}
	.st22{fill:#EDD4C3;}
	.st23{fill:#C19D80;}
	.st24{fill:#E2C6B3;}
	.st25{fill:#772323;}
	.st26{fill:#966F54;}
	.st27{fill:#916D54;}
	.st28{fill:#561414;}
	.st29{fill:#FFE4AF;}
	.st30{fill:#FFA08D;}
	.st31{fill:#EAEADC;}
	.st32{fill:#BBBCA9;}
	.st33{fill:#8A8471;}
	.st34{fill:#E5AB70;}
	.st35{opacity:0.8;fill:#F4BC7D;}
	.st36{fill:#C6AF9D;}
	.st37{fill:#EAD9CA;}
	.st38{fill:#FFF4EB;}
	.st39{fill:#F7E9DA;}
	.st40{fill:#8C6848;}
	.st41{fill:#FFE0C2;}
	.st42{fill:#C98661;}
	.st43{opacity:0.5;fill:#FFCC8D;}
	.st44{fill:#C19F87;}
	.st45{fill:#A53F3F;}
	.st46{fill:#CCAC92;}
	.st47{fill:#D8BA9E;}
	.st48{fill:#E8CCB5;}
	.st49{fill:#BA4F4F;}
	.st50{fill:#EFB595;}
	.st51{fill:#C9A78B;}
	.st52{opacity:0.5;fill:#9E785F;}
	.st53{fill:#9E785F;}
	.st54{fill:#FFC4B2;}
	.st55{fill:#FF9F8C;}
	.st56{fill:#F4EFEA;}
	.st57{fill:#DCD2C6;}
	.st58{fill:#BDB0A3;}
	.st59{opacity:0.6;fill:#9E785F;}
	.st60{fill:#CCAD93;}
	.st61{fill:#E5C9B3;}
	.st62{opacity:0.8;fill:#AF8A71;}
	.st63{opacity:0.7;fill:#916D54;}
	.st64{opacity:0.5;fill:#916D54;}
	.st65{fill:#9A4123;}
	.st66{fill:#AA482E;}
	.st67{fill:#BF523D;}
	.st68{fill:#FEDA56;}
	.st69{fill:#FFECB0;}
	.st70{fill:#FFBC4D;}
	.st71{fill:#DB262F;}
	.st72{fill:#EC3839;}
	.st73{fill:#F4474F;}
	.st74{fill:#C62030;}
	.st75{opacity:0.5;fill:#DB262F;}
	.st76{fill:#772222;}
	.st77{fill:#AD9E53;}
	.st78{fill:#7A5539;}
	.st79{fill:#7C5942;}
	.st80{fill:#F75E66;}
</style>
<g>
	<path class="st4" d="M416.24,196.62c-18.82-26.18-45.45-59.23-184.44-68.81c-43.05-2.97-87.71,2.3-129.45,13.66
		c-18.27,4.97-37.49,11.04-53.22,21.45c-15.04,9.94-24.1,24.28-30.33,40.37c-6.35,16.4-12.7,34.43-13.63,51.99
		c-0.43,8.11,0.67,16.36,4.31,23.77c3.77,7.67,10.07,13.74,16.18,19.75c6.78,6.67,12.66,13.65,17.46,21.75
		c4.36,7.35,8.03,15.05,12.09,22.55c8.07,14.92,17.93,27.26,33.7,35.38c9.36,4.82,19.29,8.68,28.98,12.84
		c9.1,3.9,18.14,7.95,27.38,11.55c20.2,7.89,40.54,10.34,62.26,9.27c20.59-1.01,55.03,0.88,75.32-2.71
		c25.4-4.5,56.78-15.03,95.15-46.44c14.77-12.09,26.49-31.04,37.51-46.38c10.1-14.07,17.82-30.04,18.96-47.24
		C435.7,251.07,427.01,211.6,416.24,196.62z"/>
	<path class="st5" d="M409.01,271.48c-0.32-6.04-4.48-8.13-9.57-10.24c-3.42-1.42-6.82-2.31-10.2-3.74
		c-8.78-5.07-20.12-4.16-28.3,1.85c-3.46,2.54-7.76,6.88-7.34,11.54c0.4,4.5,4.74,7.46,8.55,9.05c4.06,1.7,8.46,2.59,11.72,5.74
		c2.58,2.49,4.43,5.52,7.25,7.8c4.01,3.24,12.95,6.72,18.37,5.25c4.3-1.17,7.02-5.77,8.13-9.76
		C409.08,283.69,409.29,276.93,409.01,271.48z"/>
	<path class="st5" d="M119.12,219.57c-20.21-9.09-43.82-7.57-65.05-2.53c-7.52,0.57-15.21-0.45-22.28,3.1
		c-5.89,2.96-10.27,8.59-9.85,15.4c0.4,6.46,4.84,11.13,11.27,11.72c4.71,0.43,9.36-1.21,14.07-1.14
		c6.49,0.09,11.97,3.73,17.59,6.53c7.88,3.92,18.02,8.72,27.08,7.28c8.05-1.28,12.61-9.91,18.99-14.16
		c6.38-4.24,15.7-7.29,20.01-14.06C134.85,225.61,123.33,221.46,119.12,219.57z"/>
	<path class="st5" d="M138.41,170.2c-10.84,3.65-13.43,12.63,2.64,20.97c16.06,8.34,31.27,18.76,48.33,11.72
		c17.06-7.04,41.12-14.5,27.25-26.57c-13.87-12.07-26.07-26.25-48.41-17.31C145.87,167.94,145.96,167.66,138.41,170.2z"/>
	<g>
		<path class="st6" d="M197.94,94.59c0.63,1.72,4.93,10.86,4.93,10.86s9.69-0.92,15.42-1.31c1.07,2.34-1.84,7.89-1.82,7.95
			c1.56-0.31-15.75,5.29-17.6,4.92c-2.75-0.55-4.53-2.73-8.29-7.93c-2.19-3.04-6.03-7.75-6.03-7.75l3.98-6.74
			C188.54,94.59,196.91,91.78,197.94,94.59z"/>
		<path class="st7" d="M138.77,157.48c4.14,0.72,6.24,3.78,6.24,3.78v10.43c0,0-6.8,2.78-5.6,4.01c5.6,5.71,4.23,6.93,2.85,7.93
			c-1.1,0.79-3.14,1.73-6.45,0.89c-4.8-1.22-4.73-3.2-5.23-5.42c-1.49-6.54-0.45-11.08,0.94-15.01
			C132.9,160.15,135.04,156.84,138.77,157.48z"/>
		<g>
			<g>
				<path class="st7" d="M186.81,167.91c1.62-0.16,0.53,4.98,3.05,4.74c3-0.29,6.75-2.99,8.83-2.35c0,0,0.6,0.64,1.54,1.62
					c1.5,1.56,3.88,4,6.16,6.13c2.55,2.38,3.96,4.65,6.64,6.59c2.31,1.67-1.01,3.75-4.78,4.91c-1.89,0.58-4.68,0.24-6.6-0.3
					c-2.73-0.76-3.19-2.28-6.66-5.54c-0.07-0.07-0.12-0.12-0.2-0.19c-1.74-1.61-4.9-2.85-6.95-4.07c-2.26-1.35-3.69-4.08-3.69-4.08
					S184.39,168.15,186.81,167.91z"/>
				<path class="st8" d="M186.9,178.7c1.35,0.98,4.58,1.98,8.01,4.39c3.43,2.41,5.4,5.64,8.6,5.92c3.2,0.29,4.91-0.34,6.45-2
					c1.53-1.66,3.81-1.33,3.81-1.33s0.79,1.01-1.39,3.07c-2.18,2.06-6.44,2.57-10.26,1.81c-3.81-0.75-6.05-4.74-7.18-5.64
					c-1.13-0.91-3.79-2.33-5-2.7c-2.36-0.72-3.27-1.6-4.26-2.44c-0.72-0.62-1.94-2-2.12-3.58c-0.1-0.89,0.79-3.18,0.79-3.18
					S185.14,177.43,186.9,178.7z"/>
			</g>
			<path class="st6" d="M197.94,172.41c1.16-0.73,1.87-0.91,1.87-0.91l1.05,1.09c0,0-1.54,0.5-2.27,1.2c-0.73,0.7-2.3,2.53-2.3,2.53
				l-1.28-1C195.01,175.32,196.78,173.14,197.94,172.41z"/>
		</g>
		<path class="st8" d="M185.99,129.13c0,0,25.35,6.47,30.52,8.79c5.17,2.32,2.46,11.64-2.62,18.57c-5.09,6.93-4.11,4.34-7.17,8.1
			c-1.69,2.07-1.42,2.28-2.98,6.9c-2.15-0.14-6.82,8.02-15.38,5.56c-3.51-1-5.23-5.36-4.06-9.24c0.52-1.73,2.53-5.47,5.09-9.29
			c-3.29,0.24-10.96,3.03-14.88,2.78c0.91-2.72,1.73-4.82,1.73-4.82s-4.49,0.2-9.4-3.39C161.92,149.52,185.99,129.13,185.99,129.13z
			"/>
		<path class="st9" d="M175.49,137.8c0,0,10.64,30.1,13.56,46.18c2.92,16.08-14.91,12.7-14.91,12.7s-13.25-14.87-14.62-16.78
			c-1.37-1.9-10.48-21.79-12.11-29.54c-1.63-7.74,2.66-15.18,2.66-15.18L175.49,137.8z"/>
		<path class="st10" d="M177.25,69.99l8.6,8.63c0,0,2.77,10.16,2.28,13.56c-0.49,3.4-7.06,9.72-7.06,9.72s-7.29,2.92-12.82-1.94
			c-5.53-4.86-3.7-21.34-3.7-21.34L177.25,69.99z"/>
		<path class="st11" d="M186.65,70.74c1.09,1.22,8.51-3.86,11.58,5.2c3.07,9.06,6.19,20.85,6.19,20.85s-11.59,6.43-15.72,5.48
			c-4.14-0.94-4.14-0.94-4.14-0.94l4.81-19.42l-5.09-6.72L186.65,70.74z"/>
		<path class="st7" d="M150.82,93.65c1.76-7.2,6.83-12.95,9.69-15.02c7.37-5.34,17.24-8.63,17.24-8.63l-1.37,3.72l-7.85,4.37
			c0,0,7.33,23.09,13.93,17.97c6.6-5.12,3.96-11.61,3.96-11.61l4.61-6.13c0,0,2.29,7.48,1.68,14.75c-0.6,7.27-8.69,22.73-5.96,28.28
			c2.62,5.32,1.59,8.39,1.59,8.39s-10.29,11.52-20.14,11.88c-11.78,0.43-20.58,0.13-20.58,0.13s-1.21-6.56,2.09-11.4
			C148.63,119.41,148.58,102.83,150.82,93.65z"/>
		<path class="st11" d="M182.46,122.47c0,0-3.62,6.13-10.03,9.01c-6.41,2.89-13.35,1.8-13.35,1.8s7.48-2,11.86-4.6
			C175.31,126.08,182.46,122.47,182.46,122.47z"/>
		<path class="st11" d="M179.69,113.2c0,0-5.82,8.75-13.69,12.2c-7.87,3.45-11.81,4.23-11.81,4.23s4.42-4.07,10.07-8.19
			C169.91,117.32,179.69,113.2,179.69,113.2z"/>
		<path class="st11" d="M185.99,82.89c0.49-0.09,3.39-0.98,3.39-0.98s0.79,2.53,1.14,5.71c0.34,3.18-0.57,9.79-0.57,9.79
			s-1.58-1.12-3.12-1.03c-1.55,0.09-4.36-0.31-4.36-0.31s3.16-3.38,3.16-7.33C185.62,84.78,185.5,82.98,185.99,82.89z"/>
		<path class="st12" d="M179.27,53.67c4.53-3.45,15.25-4.55,19.16,6.52c4.1,11.62-6.41,26.13-12.01,23.66
			c-3.14-1.38-9.73-6.28-11.59-12.4C172.74,64.57,175.76,56.34,179.27,53.67z"/>
		<path class="st3" d="M186.75,48.48c9.79,1.11,13.72,10.2,12.61,15.43c-1.24-3.79-4.84-4.86-9.63-3.66
			c-8.12,2.03-9.29,9.97-9.29,9.97s-2.08-4.33-4.03-3.07c-1.45,0.93-1.58,4.29-1.58,4.29s-3.56-5.11-2.02-12.05
			C173.78,55.07,179.18,47.62,186.75,48.48z"/>
		<g>
			<path class="st12" d="M134.35,120.2c0.43-5.07,4.72-11.23,7.31-18.77c4.68-13.64,13.39-15.05,13.39-15.05l6.31,17.28
				c0,0-5.56,7.01-6.69,9.74c-2.25,5.43-8.37,9.91-8.37,9.91c-0.06-0.05,5.12-1.12,10.52,4.32c0.66,0.66,1.71,1.58,2.89,2.53
				c-2.19,1.02-4.46,3.12-4.12,7.43c0.01,0.06,0.01,0.14,0.02,0.2c-1.7-0.54-3.75-1.12-6.34-1.74c-5.11-1.22-9.15-4.08-13.61-5.46
				C133.16,129.82,133.87,125.83,134.35,120.2z"/>
			<path class="st13" d="M159.71,130.16c2.16,1.74,4.76,3.58,6.3,4.21c2.83,1.14,8.21,1.31,10.97,1.36
				c3.44,0.06,3.64,1.79,1.34,2.05c-2.95,0.33-5.12,1.45-5.12,1.45s5.15,6.15,8.03,7.82c2.88,1.66,4.32,7.08,1.55,6.86
				c-4-0.32-11.53-3.16-14.37-5.71c-3.13-2.81-4.37-7.08-6.36-7.94c-0.94-0.41-2.81-1.32-6.45-2.47c-0.01-0.06-0.01-0.14-0.02-0.2
				C155.26,133.28,157.53,131.19,159.71,130.16z"/>
		</g>
		<path class="st11" d="M157.23,81.72c3.79-1.39,8.13,2.41,8.73,10.14c0.48,6.18-3,13.51-4.38,16.45c-1.39,2.93-5.82,9.22-5.82,9.22
			s-9.92-2.02-12.38-4.07c-4.12-3.43-5.8-7.56-5.8-7.56S145.04,86.19,157.23,81.72z"/>
		<path class="st9" d="M143.5,159.11c0,0,4.91,1.83,7.73,4.19c5.84,4.89,18.56,13.57,18.56,13.57l11.48,19.81
			c0,0-5.07,1.94-14.96-1.3c-9.88-3.24-29.26-19.06-29.26-19.06s-1.95-4.8-1.22-8.41C137.26,160.85,143.5,159.11,143.5,159.11z"/>
		<path class="st11" d="M174.83,71.45l1.06,2.53c0,0-5.06,2.13-3.46,5.22c1.6,3.09,4.17,7.99,6.24,11.34
			c2.06,3.34,3.8,5.52,3.8,5.52s-0.71,0.92-4.31,2.37c-1.91,0.78-4.42,3.11-4.42,3.11s-7.26-18.35-6.15-22.47
			C168.68,74.95,174.83,71.45,174.83,71.45z"/>
		<path class="st8" d="M139.78,157.68c0,0-0.9,2.41-2.97,2.69c-2.07,0.28-3.1,1.69-4.01,3.38c-0.91,1.69-2.46,5.74-2.2,9.9
			c0.26,4.16,0,7.26,2.2,8.8c2.2,1.55,5.17,1.55,6.98,0c1.81-1.55,4.08-0.85,4.08-0.85s1.35,2.68-2.27,4.37
			c-3.62,1.69-9.11-0.7-11.02-5.06c-1.91-4.36-2.79-7.93-0.86-13.81C131.63,161.22,133.18,155.27,139.78,157.68z"/>
		<g>
			<path class="st14" d="M185.12,50.49c11.42-1.33,21.32,2.99,22.09,9.65c0.78,6.66-7.85,13.14-19.28,14.48
				c-11.42,1.33-21.32-2.99-22.09-9.65C165.06,58.31,173.69,51.82,185.12,50.49z"/>
			<path class="st15" d="M184.88,48.35c11.42-1.33,21.55,4.32,22.33,10.99c0.78,6.66-7.85,13.14-19.28,14.48
				c-11.42,1.33-21.32-2.99-22.09-9.65C165.06,57.5,173.46,49.68,184.88,48.35z"/>
			<path class="st4" d="M174.01,46.75c3.72-5.51,14.5-6.06,18.48-4.13c5.89,2.86,7.44,12.19,7.51,12.77
				c0.52,4.49-5.29,8.85-12.98,9.75c-7.69,0.9-14.35-2.01-14.88-6.5C172.15,58.64,170.73,51.6,174.01,46.75z"/>
			<path class="st14" d="M198.63,59.64c0,0-1.83-9.68-5.74-13c-3.3-2.81-9.15-3.39-9.15-3.39s6.23-0.96,10.13,2.14
				c3.98,3.16,6.17,10.99,6.17,10.99S199.84,58.34,198.63,59.64z"/>
			<path class="st14" d="M193.28,63.49c0,0-1.42-9.16-2.77-12.9c-2.01-5.55-6.78-7.36-6.78-7.36s3.34,2.73,4.8,8.2
				c1.18,4.4,2.14,12.98,2.14,12.98S192.75,63.94,193.28,63.49z"/>
			<path class="st14" d="M180.59,64.98c0,0,0.03-8.34,0.44-12.41c0.57-5.66,2.71-9.33,2.71-9.33s-3.02,2.56-4.08,6.22
				c-1.45,5-1.47,14.92-1.47,14.92S179.43,64.81,180.59,64.98z"/>
			<path class="st14" d="M183.73,43.24c0,0-5.21,0.93-7.69,4.09c-3.37,4.29-3.37,12.99-3.37,12.99s0.72,1.15,1.18,1.58
				c0.4-2.51,0.63-6.76,2.19-11C177.55,46.8,179.19,45.05,183.73,43.24z"/>
			<path class="st14" d="M183.61,42.47c1.02-0.12,1.9,0.27,1.97,0.86c0.07,0.6-0.7,1.17-1.72,1.29c-1.02,0.12-1.9-0.27-1.97-0.86
				C181.82,43.17,182.59,42.59,183.61,42.47z"/>
			<path class="st14" d="M187.94,41.64c0,0-2.57,0.85-3.49,1.5c-0.92,0.66-1.06,0.23-1.06,0.23s1.5-1.4,2.13-1.74
				C186.52,41.49,187.94,41.64,187.94,41.64z"/>
			<path class="st14" d="M183.4,43.38c0,0-2.32-1.13-3.44-0.71s-1.75,0.71-1.75,0.71S181.75,43.08,183.4,43.38z"/>
		</g>
		<path class="st13" d="M215.32,104.36c0,0,9.14-2.55,12.16-4.38c3.02-1.82,5.91-0.5,7.47,1.67c1.56,2.17,2.41,5.07,3.93,8.74
			c1.52,3.68-3.93,2.92-3.93,2.92s-0.88,2.46-2.61,1.44c-1.74-1.02-6.8-2.7-8.59-4.36c-2.08,0.73-7.28,1.7-7.28,1.7
			S213.76,111.64,215.32,104.36z"/>
		<path class="st7" d="M240.08,123.06c0,0-6.98-27.38-8.88-29.72c-1.91-2.33-4.95-1.18-3.01,4.06c1.94,5.24,4.44,13.48,4.44,13.48
			s0.83,0.21,2.14,1.59c0.56,0.59-0.69,2.25-0.69,2.25l3.91,9.4L240.08,123.06z"/>
		<path class="st9" d="M239.78,120.45c-0.95-0.47-2.56,0.04-3.08,0.58c-1.32,1.41-1.37,3.48,0.02,8.1c1.48,4.94,2.1,6.96,2.43,7.67
			c2.6,0.16,5.56-1.09,6.62-2.14C244.97,130.79,243.89,122.48,239.78,120.45z"/>
		<path class="st16" d="M239.15,136.8c-0.46-0.72,0.2-2.57,2.7-3.29c2.5-0.72,3.73,0.36,3.92,1.15c0.19,0.79-0.9,2.57-3.2,3.01
			C240.27,138.11,239.63,137.54,239.15,136.8z"/>
	</g>
	<g>
		<path class="st10" d="M60.4,215.84c0,0-7.84-2.09-11.49-2.14c-3.65-0.06-3.68,9.83-3.68,9.83l9.72,2.11L60.4,215.84z"/>
		<g>
			<path class="st17" d="M44.4,221.55c1.22,1.23,2.44,4.18,3.11,5.96c-0.89,0.54-1.9,1.18-3.04,1.94c-3.68,2.44-5.38,4.05-7.85,6.67
				c-2.47,2.62-5.33,4.49-7.19,0.69c-2.36-4.82-1.12-8.73,0.92-10.99c1.56-1.72,5.74-4.91,7.91-7.37
				C40.1,218.82,42.52,219.64,44.4,221.55z"/>
			<path class="st18" d="M45.33,210.47c1.83-0.11,8.64,2.09,8.75,3.36c0.12,1.27-2.16,1.76-3.55,1.49c-1.39-0.26-2.6,1.11-2.17,2.63
				c0.43,1.52,2.54,4.91,2.65,7.56c0,0-1.32,0.67-3.5,2c-0.67-1.79-1.89-4.73-3.11-5.96c-1.88-1.9-4.3-2.73-6.14-3.11
				c0.67-0.76,1.16-1.45,1.3-2.01C40.18,214.09,43.5,210.58,45.33,210.47z"/>
			<path class="st2" d="M43.17,222.61c0,0-1.65-0.65-4.13-0.57c-2.48,0.07-6.25,1.49-6.25,1.49l4.14-3.06
				C36.93,220.47,40.58,219.24,43.17,222.61z"/>
			<path class="st2" d="M46.25,220.24c0.09,0.24-3.21-2.38-5.67-2.9c-2.46-0.53-0.01-1.66-0.01-1.66S44.22,214.79,46.25,220.24z"/>
			<path class="st3" d="M46.66,210.6c0,0-3.11,1.68-4.39,3.57c-1.28,1.88-0.84,2.46-2.89,4.71c-2.04,2.26-7.32,6.57-8.54,8.58
				c-1.22,2.01-1.32,5.84-0.85,6.71c0.47,0.87,2.85,2.92,2.71,4.84c-1.34,1.09-3.95-1.14-5.09-5.09c-0.84-2.9-1.08-4.98,1.67-8.05
				c2.75-3.07,7.63-5.58,8.63-7.42c1-1.84,2.36-5.5,4.02-7.25C43.57,209.44,46.66,210.6,46.66,210.6z"/>
			<path class="st2" d="M50.81,224.17c0,0-4.9,2.99-7.42,4.44c-0.9,0.51-2.44,1.62-3.32,1.64c-1.61,0.04-1.17-1.97,0.92-3.74
				c3.25-2.74,8.69-5.48,8.69-5.48S50.53,222.31,50.81,224.17z"/>
		</g>
		<path class="st19" d="M117.67,233.41c0,0-10.7,3.86-17.52-1.05c-6.82-4.92-18.17-9.89-18.17-9.89l5.39-7.8L117.67,233.41z"/>
		<path class="st19" d="M61.67,213.69c0,0-8.09,1.85-11.17,7.81c-2.68,5.19-1.14,11.84-1.14,11.84s6.86,5.43,12.31,8.24
			c5.96,3.07,9.42,7.04,14.09,7.81c4.08,0.67,16.53,0,16.53,0L61.67,213.69z"/>
		<path class="st10" d="M101.69,141.14l6.25,1.58l5.61,20.35c0,0,9.69,7.35,16.72,11.98c3.97,2.62,9.46,6.07,12.01,6.71
			c-0.25,2.61-3.06,3.36-3.13,5.98c-2.39-0.78-4.49-2.01-6.09-3.02c-3.4-2.15-21.86-9.29-27.08-13.31
			c-5.22-4.03-3.11-8.22-5.03-16.3C99.04,147.04,101.69,141.14,101.69,141.14z"/>
		<path class="st11" d="M111.24,142.32c0,0,1.3,7.62,2.31,10.93c1.01,3.32,2.02,7.07,2.02,7.07s-3.32,3.61-8.22,4.91
			c-4.91,1.3-7.8,0.87-7.8,0.87s-6.92-22.65-5.12-25.61C96.23,137.52,108.73,139.37,111.24,142.32z"/>
		<path class="st17" d="M89.72,178.92c3.08,3.15,23.19,23.7,28.17,29.29c2.65,2.98,5.55,6.41,6.49,10.25
			c1.11,4.54,4.28,9.98,0.88,12.11c-3.56,2.24-9.78,3.6-12.69,3.33c-6.85-0.63-30.77-20.14-30.77-20.14l-8.28-27.83
			C79.72,185.32,85.51,182.94,89.72,178.92z"/>
		<path class="st19" d="M92.28,200.92c0.48-3.77-0.7-8.63-0.7-8.63s2.39,3.7,3.49,8.48c0.79,3.41-1.78,5.66-1.78,5.66
			s3.58,7.37,5.4,9.4c1.82,2.04,2.27,6.01,6.87,8.13c4.59,2.12,5.55,4.14,2.82,4.85c-2.72,0.71-3.08,0.92-0.55,3.53
			c1.74,1.8-10.49-5.12-12.75-7.6s-8.19-20.8-8.19-20.8S91.8,204.69,92.28,200.92z"/>
		<path class="st17" d="M54.49,188.98c0.69-2.43,1.42-4.68,2.13-6.68c6.82,5.86,17.97,12.05,27,8.95
			c2.19,5.85,5.34,13.94,6.58,15.65c1.99,2.74,5.44,13.56,7.94,22.71c2.21,8.07,2.28,13.68-0.92,17.09
			c-2.36,2.52-5.83,3.42-9.39,2.01c-5.82-2.31-13.12-6.82-16.55-10.69c-3.79-4.27-9.76-15.37-12.31-23.17
			C55.84,205.28,52.64,195.55,54.49,188.98z"/>
		<path class="st7" d="M55.56,185.33c4.83-24.52,19.72-43.5,24.03-45.86c6.71-3.67,12.95-4.47,12.95-4.47s8.29-0.67,11.55,2.62
			c2.24,2.27,1.11,16.01,1.67,24.79c0.31,4.85-0.45,5.84-0.75,6.27c-5.11,7.15-8.54,5.7-11.71,9.28c0.66,2.68,0.28,4,1.78,6.44
			c-1,2.16-5.29,3.85-8.81,6.3C78.79,195.91,65.04,195.29,55.56,185.33z"/>
		<path class="st10" d="M95.92,132.65l-7.56,6.82c0,0,3,23.08,11.28,19.44c2.2-0.97,2.03-3.11,1.92-7.27
			c-0.14-5.39,1.82-8.49,1.82-8.49L95.92,132.65z"/>
		<path class="st11" d="M102.43,149.36c0,0,0.04,5.54-0.33,8.42c-0.63,4.9-7.85,3.73-10.55-1.07c-3.19-5.67-4.5-16.23-4.5-16.23
			l2.81-0.03c0,0,1.01,6,2.42,10.46c1.42,4.46,3.41,6.43,6.11,5.97c2.7-0.45,2.3-8.18,2.3-8.18L102.43,149.36z"/>
		<path class="st20" d="M102.92,143.44c0,0,0.46,16.25-8.18,26.59c-11.32,13.55-20.72,18.06-28.1,19.92s-12.14-0.98-12.14-0.98
			s-1.51,2.13-0.41,3.32c1.1,1.19,8.57,3.62,16.19,0c7.62-3.62,19.26-9.76,27.07-20.79c8.42-11.88,8.2-27.19,8.13-27.31
			C104.06,141.67,102.92,143.44,102.92,143.44z"/>
		<path class="st3" d="M93.97,138.64c0,0-2.48,2.4-6.92,1.85c-4.44-0.56-11,1.46-11,1.46s0.82-5.27,8.84-9.29
			c8.02-4.02,8.41-1.81,8.41-1.81L93.97,138.64z"/>
		<g>
			<path class="st12" d="M116.72,126.93c3.72,7.12-4.02,22.62-12.31,22.68c-6.28,0.05-11.13-7.3-11.11-16.96
				C93.31,124.56,109.67,113.45,116.72,126.93z"/>
		</g>
		<g>
			<path class="st21" d="M123.97,196.3h1.09l14.86-8.58c0.54-0.31,1.5-0.27,2.12,0.09l3.16,1.82h0.96v0.87
				c0.04,0.23-0.08,0.45-0.36,0.61l-15.59,9c-0.54,0.31-1.5,0.27-2.12-0.09l-3.61-2.08c-0.35-0.2-0.52-0.46-0.51-0.71h-0.01V196.3z"
				/>
			<path class="st8" d="M123.97,189.41h6.48v1.48l9.23-8.22h6.48v6.78c0.04,0.23-0.08,0.45-0.36,0.61l-15.59,9
				c-0.54,0.31-1.5,0.27-2.12-0.09l-3.61-2.08c-0.29-0.17-0.45-0.37-0.5-0.58h-0.02V189.41z"/>
			<rect x="123.97" y="185.15" class="st21" width="5.66" height="4.12"/>
			<rect x="123.97" y="183.38" class="st21" width="5.66" height="1.77"/>
			<path class="st21" d="M130.22,192.18l15.59-9c0.54-0.31,0.47-0.86-0.15-1.23l-3.61-2.08c-0.63-0.36-1.58-0.4-2.12-0.09l-15.59,9
				c-0.54,0.31-0.47,0.86,0.15,1.23l3.61,2.08C128.72,192.45,129.68,192.49,130.22,192.18z"/>
			
				<rect x="140.38" y="178.5" transform="matrix(-1 -1.224647e-16 1.224647e-16 -1 286.5482 361.0556)" class="st21" width="5.78" height="4.06"/>
			<path class="st22" d="M131.86,181.68c-0.48-0.2-0.97-0.39-1.46-0.58l9.52-5.5c0.54-0.31,1.5-0.27,2.12,0.09l3.61,2.08
				c0.63,0.36,0.69,0.91,0.15,1.23l-8.97,5.18C135.24,183.24,133.57,182.41,131.86,181.68z"/>
			<path class="st21" d="M124.34,184.61l5.76-3.33c0.51,0.19,1.03,0.38,1.53,0.6c1.7,0.71,3.35,1.54,4.94,2.47l-6.35,3.66
				c-0.54,0.31-1.5,0.27-2.12-0.09l-3.61-2.08C123.86,185.47,123.79,184.92,124.34,184.61z"/>
			<polygon class="st21" points="138.14,181.77 138.14,184.97 128.95,190.08 128.68,185.14 			"/>
			<polygon class="st8" points="139.59,185.3 146.16,181.51 146.16,183.1 139.59,186.9 			"/>
			<g>
				<path class="st23" d="M132.7,191.9c0,2.79,1.7,4.07,3.79,2.87c2.09-1.21,3.79-4.45,3.79-7.24c0-2.79-1.7-4.07-3.79-2.87
					C134.39,185.86,132.7,189.11,132.7,191.9z"/>
				<polygon class="st23" points="139.53,184.87 138.94,184.44 133.82,194.84 134.33,195.22 				"/>
				<path class="st24" d="M133.19,192.26c0,2.79,1.7,4.07,3.79,2.87c2.09-1.21,3.79-4.45,3.79-7.24c0-2.79-1.7-4.07-3.79-2.87
					C134.88,186.23,133.19,189.47,133.19,192.26z"/>
				<path class="st23" d="M133.48,192.23c0,2.63,1.6,3.84,3.58,2.7c1.98-1.14,3.58-4.2,3.58-6.83c0-2.63-1.6-3.84-3.58-2.7
					C135.08,186.54,133.48,189.59,133.48,192.23z"/>
				<path class="st22" d="M133.95,192.5c0,2.63,1.6,3.84,3.58,2.7c1.97-1.14,3.58-4.2,3.58-6.83c0-2.63-1.6-3.84-3.58-2.7
					C135.55,186.81,133.95,189.86,133.95,192.5z"/>
			</g>
			<g>
				<polygon class="st8" points="132.38,186.06 132.69,185.87 132.69,187.76 130.05,189.28 130.05,188.97 132.38,187.63 				"/>
				<polygon class="st25" points="132.38,186.06 132.38,187.63 130.05,188.97 130.05,187.4 				"/>
			</g>
			<polygon class="st2" points="130.71,198.09 132.03,197.33 132.03,196.39 130.71,197.15 			"/>
			<g>
				<path class="st23" d="M134.36,192.41c0-2.48,1.51-5.35,3.36-6.42c0.79-0.45,1.51-0.51,2.08-0.23l0,0l0.02,0.01
					c0.1,0.05,0.2,0.11,0.29,0.18l2.29,1.41l-4.17,9.42l-2.74-1.66l0,0C134.8,194.69,134.36,193.74,134.36,192.41z"/>
				<path class="st22" d="M137.09,194.06c0,2.48,1.51,3.61,3.36,2.54c1.86-1.07,3.36-3.95,3.36-6.42c0-2.48-1.51-3.61-3.36-2.54
					C138.6,188.71,137.09,191.58,137.09,194.06z"/>
				<path class="st23" d="M139.95,195.68c1.58-0.91,2.85-3.35,2.85-5.46c0-0.88-0.22-1.55-0.6-1.98c0.67,0.31,1.1,1.14,1.1,2.36
					c0,2.1-1.28,4.54-2.85,5.45c-0.92,0.53-1.74,0.42-2.26-0.18C138.68,196.11,139.29,196.06,139.95,195.68z"/>
				<g>
					<path class="st26" d="M139.81,194.95c1.27-0.73,2.3-2.7,2.3-4.4c0-1.55-0.87-2.33-1.99-1.89c0.11-0.08,0.22-0.16,0.33-0.22
						c0.66-0.38,1.27-0.43,1.75-0.21c0.37,0.43,0.6,1.1,0.6,1.98c0,2.1-1.28,4.54-2.85,5.46c-0.66,0.38-1.27,0.43-1.75,0.21
						c-0.36-0.41-0.57-1.04-0.59-1.86C137.88,195.14,138.77,195.56,139.81,194.95z"/>
					<path class="st23" d="M142.12,190.56c0,1.69-1.03,3.66-2.3,4.4c-1.05,0.6-1.93,0.18-2.21-0.93c0-0.04,0-0.08,0-0.12
						c0-1.95,1.1-4.2,2.52-5.23C141.25,188.22,142.12,189,142.12,190.56z M139.81,189.27c-1.09,0.63-1.97,2.31-1.97,3.75
						c0,1.45,0.88,2.11,1.97,1.49c1.09-0.63,1.97-2.31,1.97-3.75C141.78,189.3,140.9,188.64,139.81,189.27z"/>
					<path class="st26" d="M141.78,190.75c0,1.45-0.88,3.13-1.97,3.75c-1.09,0.63-1.97-0.04-1.97-1.49c0-1.45,0.88-3.13,1.97-3.75
						C140.9,188.64,141.78,189.3,141.78,190.75z"/>
				</g>
				<path class="st22" d="M138.58,192.6c0,0.91,0.55,1.33,1.24,0.93c0.68-0.39,1.24-1.45,1.24-2.36c0-0.91-0.55-1.33-1.24-0.93
					C139.13,190.63,138.58,191.69,138.58,192.6z"/>
			</g>
			<path class="st2" d="M140.29,183.78l1.99-1.15c0.07-0.04,0.12-0.14,0.12-0.23v-0.52c0-0.09-0.05-0.13-0.12-0.09l-1.99,1.15
				c-0.07,0.04-0.12,0.14-0.12,0.23v0.52C140.17,183.78,140.22,183.82,140.29,183.78z"/>
			<path class="st2" d="M143.75,184.06c0,0.34,0.2,0.49,0.46,0.34c0.25-0.15,0.46-0.54,0.46-0.87s-0.2-0.49-0.46-0.34
				C143.95,183.33,143.75,183.72,143.75,184.06z"/>
			<path class="st1" d="M144.85,180.6c0,0.17,0.1,0.25,0.23,0.17c0.13-0.07,0.23-0.27,0.23-0.44c0-0.17-0.1-0.24-0.23-0.17
				C144.95,180.23,144.85,180.43,144.85,180.6z"/>
			<path class="st2" d="M142.58,184.61c0,0.22,0.13,0.32,0.3,0.22c0.16-0.09,0.3-0.35,0.3-0.57s-0.13-0.32-0.3-0.22
				C142.72,184.14,142.58,184.39,142.58,184.61z"/>
			<g>
				<path class="st27" d="M141.08,176.53c0.19-0.05,0.4-0.08,0.63-0.08c0.22,0,0.44,0.03,0.63,0.08h0.85v0.71
					c0,0.43-0.66,0.78-1.47,0.78c-0.81,0-1.47-0.35-1.47-0.78v-0.71H141.08z"/>
				<path class="st13" d="M140.23,176.45c0,0.43,0.66,0.78,1.47,0.78c0.81,0,1.47-0.35,1.47-0.78c0-0.43-0.66-0.78-1.47-0.78
					C140.89,175.67,140.23,176.02,140.23,176.45z"/>
			</g>
			<g>
				<path class="st27" d="M136.81,179.18c0.42-0.27,1.06-0.44,1.77-0.44s1.34,0.17,1.77,0.44h0.54v0.79c0,0.68-1.03,1.23-2.31,1.23
					s-2.31-0.55-2.31-1.23v-0.79H136.81z"/>
				<path class="st13" d="M136.27,179.18c0,0.68,1.03,1.23,2.31,1.23s2.31-0.55,2.31-1.23c0-0.68-1.03-1.23-2.31-1.23
					S136.27,178.5,136.27,179.18z"/>
			</g>
			<ellipse class="st8" cx="144.3" cy="178.37" rx="0.48" ry="0.26"/>
			<path class="st27" d="M142.06,178.8c0.19-0.1,0.45-0.17,0.74-0.17s0.55,0.06,0.74,0.17h0.3v0.39c0,0.3-0.46,0.55-1.04,0.55
				s-1.04-0.25-1.04-0.55v-0.39H142.06z"/>
			<ellipse class="st23" cx="142.8" cy="178.8" rx="1.04" ry="0.55"/>
			<g>
				<path class="st24" d="M124.34,182.95l0.21-0.12l0.8,0.46c0.36,0.21,0.91,0.23,1.23,0.05l3.8-2.19c0.31-0.18,0.27-0.5-0.09-0.71
					l-0.8-0.46l2.77-1.6l5.89,3.4l-7.92,4.57c-0.54,0.31-1.5,0.27-2.12-0.09l-3.61-2.08C123.86,183.81,123.79,183.26,124.34,182.95z
					"/>
				<path class="st8" d="M130.38,181.14l-3.8,2.19c-0.31,0.18-0.87,0.16-1.23-0.05l-0.8-0.46l4.94-2.85l0.8,0.46
					C130.66,180.64,130.7,180.96,130.38,181.14z"/>
			</g>
			<polygon class="st8" points="128.97,185.75 133.21,183.3 132.45,182.86 128.21,185.31 			"/>
			<polygon class="st2" points="127.68,184.97 130.7,183.22 130.16,182.91 127.14,184.65 			"/>
			<g>
				<path class="st24" d="M126.02,187.75v1.94c-0.53,0.3-0.96,0.12-0.96-0.41C125.05,188.74,125.48,188.06,126.02,187.75z"/>
				<path class="st24" d="M126.41,188c0,0-0.39-0.3-0.39-0.24c0,0.05-0.75,2-0.75,2l0.48,0.29L126.41,188z"/>
				<path class="st2" d="M126.41,188v1.94c-0.53,0.3-0.96,0.12-0.96-0.41C125.44,188.99,125.88,188.31,126.41,188z"/>
				<path class="st24" d="M125.76,189.32c0,0.19,0.12,0.28,0.26,0.19c0.14-0.08,0.26-0.3,0.26-0.49s-0.12-0.28-0.26-0.19
					C125.87,188.9,125.76,189.13,125.76,189.32z"/>
			</g>
			<polygon class="st7" points="125.5,197.47 126.48,198.04 126.48,191.2 125.5,190.63 			"/>
		</g>
		<path class="st10" d="M85.74,163.85l4.29,15.26c0,0,10.94,5.32,18.73,8.5c7.79,3.17,12.42,4.64,16.17,2.62
			c1.27-0.68,1.21-2.32,3.09-2.3c0.5,0.01,0.21,1.09-0.41,2.5c-0.64,1.45-0.45,3.17-0.03,3.4c1.51,0.85,6.39-1.53,7.5,0
			c2.78,3.82-1.47,7.24-4.19,7.85c-6.33,1.41-13.76-3.68-17.51-5.13c-3.75-1.44-23.24-4.86-29.15-7.79s-6.97-5.17-9.07-13.2
			c-0.94-3.58-1.66-6.6-2.2-8.95C77.32,167.62,82.22,166.61,85.74,163.85z"/>
		<path class="st11" d="M71.79,173.81c-0.86-3.75-1.51-7.71-1.51-11.63c0-9.33,1.98-17.05,9.92-19.35c2.4-0.7,5.02,1.87,6.49,5.45
			c1.47,3.58,1.66,9.86,1.66,13.9c0,2.29,0.47,5.33,0.91,9.31C83.57,174.61,77.78,175.05,71.79,173.81z"/>
		<path class="st19" d="M87.64,208.5c0,0,1.7,8.45,3.16,15.29c1.46,6.84-6.62,9.89-11.81,10.09c-5.2,0.21-7.51-1.75-10.01-7.89
			c-2.5-6.14-3.46-12.3-3.46-12.3S80.14,206.7,87.64,208.5z"/>
		<path class="st19" d="M92.28,127.68c0,0-5.89-0.96-8.11,1.4c-2.22,2.36-2.22,2.36-2.22,2.36s2.82,4.78,6.39,3.5
			c3.58-1.28,4.94-4.1,4.94-4.1L92.28,127.68z"/>
		<path class="st3" d="M107.94,129.14c0,0-5.95,9.49-13.51,11.34c-4.7-5.54-5.43-11.52-3.73-16.6c1.97-5.91,8.06-5.74,8.06-5.74
			s6.16-6.88,14.88-0.61c12.66,9.1,2.97,19.85,2.97,19.85S116.16,132.06,107.94,129.14z"/>
		<path class="st12" d="M99.63,138.06c0,0-0.82-1.18-1.76-1.91c-0.79-0.6-2.28-0.78-2.71,1.5c-0.59,3.12,1.9,4.29,1.9,4.29
			L99.63,138.06z"/>
		<path class="st19" d="M70.28,193.48c0,0-2.16,3.36-5.49,6.23c-3.33,2.88-6.66,3.18-6.66,3.18v-2.57c0,0,3.65-0.77,6.07-2.88
			c2.42-2.1,3.31-4.65,3.31-4.65L70.28,193.48z"/>
		<path class="st17" d="M119.33,132.65c0,0-13.33,1.58-20.92,0c-7.59-1.58-8.54-3.3-8.54-3.3s-2.33-10.83,8.54-13.6
			s16.56-1.84,20.92,5.27C123.69,128.12,119.33,132.65,119.33,132.65z"/>
		<path class="st19" d="M94.74,128.17c0,0,4.72,1.24,7.69,1.15s5.5-0.18,5.5-0.18s-5.29-2.23-7.78-2.36
			C97.65,126.64,94.74,128.17,94.74,128.17z"/>
		<path class="st12" d="M148.37,183.79c0.09,2.08-0.85,3.55-2.6,4.7c-1.24,0.82-1.96-0.92-1.79-2.99c0.16-2.07,0.26-4.28,1.78-5.1
			C147.28,179.57,148.27,181.72,148.37,183.79z"/>
	</g>
	<g>
		<path class="st4" d="M371.6,89.4c-6.98,6.78-11.23,18.61-15.79,25.77c0,0,0,0,0,0c-4.49-1.95-9.1-3.33-9.1-3.33l-2.13,8.83
			c0,0,3.63,4.02,7.65,7.22c0.72,0.96,7.43,4.83,14.72-1.03c4.78-3.84,17.36-17.33,17.36-17.33V83.9
			C384.3,83.9,378.58,82.62,371.6,89.4z"/>
		<g>
			<path class="st12" d="M376.92,252.05c0,0-0.93,3.47-3.93,6.25c-3.01,2.78-5.94,4.39-8.91,7.06c-2.69,2.41-2.49,5-0.02,6.73
				c2.12,1.49,3.4,0.47,7.31-1.88c3.47-2.08,7.52-5.09,11.02-6.73c2.61-1.23,4.5-2.64,3.44-7.73
				C384.78,250.66,376.92,252.05,376.92,252.05z"/>
			<path class="st8" d="M367.11,262.85c0,0-4.26,1.8-6.57,4.7c-2.31,2.89,0.31,7.22,6.55,6.28c3.3-0.5,7.71-4.04,9.48-5.36
				c2.49-1.84,6.85-3.94,8.8-5.62c1.95-1.68,0.75-5.93,0.75-5.93s-0.75,2.53-3.08,4.26c-2.61,1.95-6.09,3.97-7.63,4.51
				c-3.87,1.36-6.59,2.31-8.1,0.49C365.9,264.46,367.11,262.85,367.11,262.85z"/>
		</g>
		<g>
			<path class="st12" d="M394.02,264.36c0,0-0.58,5.81-1.38,9.15c-0.8,3.34-1.13,7.15-1.17,11.22c-0.03,2.33,5.59,5.82,9.04,2.23
				c2.59-2.69,3.29-12.1,3.16-13.94c-0.31-4.31,1.3-6.3-1.72-9.43C398.92,260.47,394.02,264.36,394.02,264.36z"/>
			<path class="st8" d="M392.09,275.89c0,0-0.07,4.66,1.42,6.75c1.49,2.09,5.6,3.03,7.43-1.49c1.52-3.75,2.25-8.4,2.4-10.73
				c0.15-2.33-0.83-5.19-0.83-5.19s2.58,1.4,1.87,4.59c-0.71,3.19,0.19,7.89,0.03,10.3c-0.38,5.72-1.86,9.94-5.97,11.79
				c-3.31,1.49-8.16,0.4-8.09-5.15C390.43,281.02,392.09,275.89,392.09,275.89z"/>
		</g>
		<path class="st2" d="M383.79,93.91c0,0-3.55,9.28-2.42,19.21c1.13,9.93,2.42,12.05,2.42,12.05l15.45-26.59L383.79,93.91z"/>
		<path class="st28" d="M400.55,67.94c0,0,10.38,1.89,6.89,12.03c-3.23,9.37-14.09,1.22-14.09,1.22L400.55,67.94z"/>
		<g>
			<path class="st8" d="M390.98,137.72c0,0,1.76,9.22,0,23.75c-1.76,14.53-4.2,26.32-3.77,36.33c0.36,8.38,1.28,13.94,1.93,30.03
				c0.33,8.23-3.01,27.64-3.01,27.64s-7.76,5.92-13.19,1.66c0.04-1.14,0.4-21.54-0.87-37.1c-0.77-9.45-2.3-17.36-3.08-23.43
				c-0.85-6.64-0.98-19.25-0.29-30.94c0.95-16.16,5.15-26.02,5.15-26.02L390.98,137.72z"/>
		</g>
		<g>
			<path class="st9" d="M409.93,149.5c0,0,5.26,9.54,3.5,24.06c-1.76,14.53-7.69,26-7.27,36.02c0.36,8.38,1.28,13.94,1.93,30.03
				c0.33,8.23-2.71,27.08-2.71,27.08s-7.76,5.92-13.19,1.66c0.04-1.14,0.1-20.98-1.17-36.55c-0.77-9.45-2.37-17.35-3.08-23.43
				c-0.99-8.48-2.27-26.1-3.19-39.37c-4.58-5.79-3.61-19.5-3.61-19.5H409.93z"/>
		</g>
		<path class="st29" d="M374.79,125.58c0.25,5.76-1.61,14.65-3.19,21.18c2.79,8.19,13.87,10.37,23.15,10.15
			c6.07-0.15,12.2-1.79,16.14-5.29c-2.11-6.64-3.33-17.78-2.21-25.25c2.24-14.94,4.31-27.7,3.98-28.27
			c-2.15-3.72-6.69-8.11-12-10.81c-2.85-1.45-11.84-4.9-11.84-4.9s-0.93-0.23-2.28-0.47c-2.03,2.25-6.27,8.01-8.18,10.68
			c-3.25,4.55-8.23,10.65-6.35,18.46C373.61,117.71,374.65,122.29,374.79,125.58z"/>
		<path class="st30" d="M388.12,83.29c0,0-0.54,7.21-1.73,10.79c0,0.69-0.03,2.18,1.76,2.5c1.79,0.32,5.33,0.08,6.44-0.82
			c5.04-4.04,5.81-6.16,5.81-6.16s-1.03-4.71-1.15-6.42c-0.2-2.84,0.02-12.1,0.02-12.1L388.12,83.29z"/>
		<path class="st4" d="M383.09,96.07c0,0-1.68,4.82-1.82,9.95c-0.15,5.13,0.11,7.1,0.11,7.1l8.9-13.54l-2.12-3
			C388.15,96.58,385.33,95.45,383.09,96.07z"/>
		<path class="st2" d="M386.84,85.51c0,0-3.91,0.44-5.09,5.94c-0.77,3.61-1.22,7.69-1.22,7.69s1.94-0.18,3.05-1.71
			c1.6-2.2,3.53-1.29,3.53-1.29s-0.14-4.09,0.89-8.86C388.4,85.43,386.84,85.51,386.84,85.51z"/>
		<path class="st12" d="M397.97,61.44c-4.05-3.43-13.97-4.98-18.15,5.15c-4.38,10.62,4.7,24.63,10.04,22.61
			c2.99-1.13,9.04-3.91,11.07-9.51C403.2,73.38,401.12,64.11,397.97,61.44z"/>
		<path class="st2" d="M388.59,103.79c-1.5-2.21-1.47-7.64-1.47-7.64s3.27,0.19,6.23-1.81c2.52-1.7,4.64-5.28,6.23-8.83
			c1.17,0,2.84,2.43,2.8,3.42c-0.09,2.45-1.1,6.12-3.75,9.46C395.45,102.41,390.67,103.02,388.59,103.79z"/>
		<path class="st12" d="M395.55,77.77c0,0,0.79-1.14,1.7-1.84c0.76-0.58,2.2-0.75,2.62,1.45c0.57,3.01-1.84,4.14-1.84,4.14
			L395.55,77.77z"/>
		<path class="st3" d="M397.76,60.16L397.76,60.16c-2.3-7.67-23.29-5.84-19.1,10.76c1.88,0.14,5.94-0.72,9.64-2.24
			c1.17,3.05,3.34,6.9,7.26,9.09c7.17,4,8.63-0.93,8.63-0.93S409.35,61.55,397.76,60.16z"/>
		<g>
			<path class="st14" d="M393.96,54.05c-10.6-1.24-19.77,2.77-20.49,8.95c-0.72,6.18,7.28,12.19,17.88,13.43
				c10.6,1.24,19.77-2.77,20.49-8.95C412.56,61.3,404.56,55.29,393.96,54.05z"/>
			<path class="st15" d="M393.96,53.01c-10.6-1.24-19.77,2.77-20.49,8.95c-0.72,6.18,7.28,12.19,17.88,13.43
				c10.6,1.24,19.77-2.77,20.49-8.95C412.56,60.26,404.56,54.25,393.96,53.01z"/>
			<path class="st4" d="M404.26,52.25c-3.45-5.11-13.45-5.62-17.15-3.83c-5.46,2.65-6.91,11.31-6.97,11.84
				c-0.49,4.16,4.9,8.21,12.04,9.04c7.14,0.83,13.31-1.86,13.8-6.03C405.99,63.27,407.3,56.75,404.26,52.25z"/>
			<path class="st14" d="M381.43,64.2c0,0,1.7-8.97,5.33-12.06c3.07-2.61,8.49-3.15,8.49-3.15s-5.78-0.89-9.4,1.99
				c-3.69,2.94-5.73,10.19-5.73,10.19S380.3,63,381.43,64.2z"/>
			<path class="st14" d="M386.39,67.78c0,0,1.31-8.5,2.57-11.96c1.86-5.15,6.29-6.83,6.29-6.83s-3.1,2.53-4.46,7.6
				c-1.09,4.08-1.99,12.04-1.99,12.04S386.88,68.2,386.39,67.78z"/>
			<path class="st14" d="M398.16,69.16c0,0-0.03-7.74-0.4-11.51c-0.53-5.25-2.51-8.66-2.51-8.66s2.8,2.37,3.79,5.77
				c1.35,4.64,1.37,13.84,1.37,13.84S399.24,69,398.16,69.16z"/>
			<path class="st14" d="M395.24,48.99c0,0,4.83,0.86,7.13,3.79c3.13,3.98,3.13,12.05,3.13,12.05s-0.66,1.06-1.1,1.47
				c-0.37-2.33-0.58-6.27-2.03-10.2C400.98,52.3,399.46,50.67,395.24,48.99z"/>
			<path class="st14" d="M395.36,48.28c-0.95-0.11-1.77,0.25-1.83,0.8c-0.06,0.55,0.65,1.09,1.6,1.2c0.95,0.11,1.77-0.25,1.83-0.8
				C397.02,48.92,396.31,48.39,395.36,48.28z"/>
			<path class="st14" d="M391.34,47.51c0,0,2.38,0.78,3.24,1.39c0.85,0.61,0.98,0.22,0.98,0.22s-1.39-1.3-1.98-1.61
				C392.65,47.37,391.34,47.51,391.34,47.51z"/>
			<path class="st14" d="M395.55,49.12c0,0,2.15-1.05,3.19-0.66c1.04,0.39,1.63,0.66,1.63,0.66S397.09,48.85,395.55,49.12z"/>
		</g>
		<path class="st12" d="M407.56,149.5c0,0-6.38,4.87-7.83,8.4c-1.45,3.53,0.55,5.43,3.22,8.15c2.67,2.72,9.01,1.11,9.91,0
			c0.9-1.11,1.55-3.53-0.67-3.26c-2.22,0.27-3.12,0.54-3.12,0.54s3.95-3.85,3.12-8.28C411.35,150.63,407.56,149.5,407.56,149.5z"/>
		<path class="st4" d="M408.15,93.91c-4.1,2.66-6.79,8.9-3.2,19.65c1.47,4.39,10.94,16.29,12.25,17.75
			c-6.07,9.28-12.56,20.65-12.56,20.65s0.62,1.8,3.36,4.96c1.44,1.67,4.69,0.63,4.69,0.63s13.26-13.86,16.44-18.96
			c2.43-3.9,5.57-5.53,4.03-9.28c-1.47-3.56-3.28-8.05-5.13-12.21C424.12,108.31,412.69,90.97,408.15,93.91z"/>
		<path class="st31" d="M338.61,103.14l1.91-2.13l13.33,6.93c0,0,4.81,6.18,8.85,12.7c4.23,6.82,6.24,12,6.24,12l-0.68,0.59
			l-1.32-1.12l0.58,1.65l-1.91,1.49L338.61,103.14z"/>
		<g>
			<path class="st32" d="M367.89,136.08l-14.03-24.3c-0.84-1.45-2.71-3.16-4.17-3.78l-13-7.53c-0.61-0.27-1.05-0.29-1.29-0.13
				l-0.01-0.01l-1.32,0.77l1.1,1l0.32-0.31c0.03,0.06,0.05,0.11,0.09,0.18l14.03,24.3c0.84,1.45,2.71,3.16,4.17,3.78l12.27,7.1
				l0.65,1.36l1.39-0.8l-0.01-0.01C368.4,137.48,368.37,136.92,367.89,136.08z"/>
			<path class="st33" d="M334.22,102.74l14.03,24.3c0.84,1.45,2.71,3.16,4.17,3.78l13,7.53c1.45,0.63,1.95-0.04,1.12-1.5
				l-14.03-24.3c-0.84-1.45-2.71-3.16-4.17-3.78l-13-7.53C333.88,100.61,333.38,101.29,334.22,102.74z"/>
		</g>
		<path class="st12" d="M340.62,111.91c3.72-0.79,8.7,5.45,7.86,9.33c-0.84,3.88-6.47,1.98-8.09-1.82
			C338.55,115.08,337.43,112.58,340.62,111.91z"/>
	</g>
	<g>
		<g>
			<path class="st5" d="M227.11,237.37c1.32-0.98,0.39-3.04-0.89-2.85c-2.39-2.46-5.06-3.56-8.7-2.47c-3.08,0.92-5.85,1.7-7.33,4.51
				c-0.94,1.78-1.36,3.88-2.9,5.63c-1.15,1.3-1.31,0.37-2.26,1.97c-0.49,0.83-0.31,1.79-0.61,2.58c-0.96,2.55-4.92,5.33-3.46,8.49
				c0.99,2.15,5.42,3.95,7.54,4.61c3.57,1.11,7.48-0.39,10.02-3c1.27-1.3,1.8-2.54,2.26-4.25c0.57-2.07-0.36-1.35,1.04-4.14
				c1.26-2.49,1.7-2.28,3.58-3.67c1.18-0.88,2.21-1.71,2.54-3.21C228.1,240.89,227.16,237.33,227.11,237.37z"/>
			<path class="st34" d="M221.86,237.47c0.01-0.02,0.03-0.02,0.03-0.04c0.07-3.11-4.76-1.51-6.17-0.9
				c-0.92,0.39-1.59,0.93-1.43,1.98c0.05,0.35,0.29,0.51,0.2,0.88c-0.06,0.25-0.4,0.51-0.49,0.78c-0.14,0.42-0.15,0.81,0.04,1.21
				c0.31,0.67,0.95,2.6,1.34,2.97c0.86,0.84,2.15,0.72,3.09,0.1C220.49,243.15,222.4,240,221.86,237.47z"/>
			<path class="st35" d="M211.98,254.2c0,0-0.68,9.36,4.76,19.73c5.44,10.37,8.52,14.79,19.64,15.18
				c11.12,0.39,44.33-7.4,54.59-12.46c9.43-4.65,13.58-12.75,8.37-14.86c-5.22-2.1-13.01,1.65-15.08-0.63
				c-2.07-2.29,1.2-5.67,5.53-10.43c4.34-4.76,3.92-9.64-2.47-12.67c-6.39-3.04-41.35-3.67-49.57-2.85
				c-8.22,0.82-10.64-0.18-14.52,6.83C219.34,249.03,211.98,254.2,211.98,254.2z"/>
			<path class="st35" d="M159.95,304.17c-0.98,0.66-1.9,2.73-1.89,3.9c0,1.78-2.94,4.35-5.32,5.72c-3.3,1.9-4.26,2.7-4.61,5.9
				c-0.36,3.2-5.48,6.5-6.44,8.15c-1.95,3.35,2,4.72,0.64,7.69c-1.36,2.96-4.61,5.47-0.64,7.98c2.69,1.7,7.51,3.97,23.95,5.04
				c12.99,0.84,18.38,8.49,27.97,7.44c1.21-0.13,5.22-2.36,6.21-5.49c1.82-5.72,2.78-4.92,9.4-3.5c6.05,1.3,7.53-5.38,11.79-8.05
				c3.16-1.98,3.83-6.75,7.06-8.7c3.23-1.95,4.69-4.61,4.29-7.66c-0.39-3.05-3.41-7.63-8.45-11.37c-5.04-3.74-6.14-8.24-25.23-9.66
				C179.59,300.15,159.95,304.17,159.95,304.17z"/>
			<g>
				<path class="st5" d="M194.62,267.72c-2.61-1.31-4.31-2.72-7.2-0.75c-1.64,1.12-2.74,3.03-4.47,4.18
					c-1.59,1.05-3.54,1.66-4.9,3.05c-1.75,1.79-1.4,3.44-2.66,5.6c-1.24,2.13-3.66,3.34-5.03,5.39c-3.72,5.54,1.9,10.93,7.25,6.89
					c0.9-0.68,1.39-1.75,2.24-2.42c5.13-3.98,3.21-1.46,5.96-2.33c2.18-0.7,3.8-1.42,5.64-2.86c4.09-3.2,9.59-6.87,9.6-12.11
					C201.06,268.49,197.17,268.99,194.62,267.72z"/>
				<path class="st34" d="M194.62,270.65c-1.01-1.36-2.44-0.5-3.68,0.07c-1.06,0.49-2.26,0.51-3.3,1.07
					c-0.79,0.43-2.59,2.13-1.53,5.05c0.18,0.5,0.65,0.82,1.15,0.98c1.44,0.44,2.53-0.74,3.4-1.68c1.22-1.31,3.59-1.46,4.4-3.17
					C195.46,272.14,195.29,271.16,194.62,270.65z"/>
				<path class="st34" d="M181.3,278.87c-0.19,0.15-0.66,1.26-0.66,1.25c-0.3,0.36-0.73,0.6-1.1,0.87
					c-0.61,0.43-1.21,0.84-1.69,1.43c-0.44,0.55-1.36,1.83-0.8,2.57c0.52,0.7,1.6,0.25,2.18-0.11c0.53-0.33,0.97-0.79,1.5-1.12
					c0.75-0.46,1.61-0.68,2.39-1.06c1.06-0.51,2.04-1.38,1.88-2.67C184.81,278.45,183.02,277.47,181.3,278.87z"/>
			</g>
			<g>
				<path class="st36" d="M299.73,258.44c0,0,1.4,4.79,0.16,7.1c-0.6,1.11-1,2.22-6.44,5.5c-5.45,3.28-10.25,4.79-15.7,6.57
					c-5.45,1.77-27.19,6.64-30.83,7.26c-3.64,0.62-14.57,0.68-19.52-2.29c-6.21-3.73-6.48-7.54-9.14-12.33
					c-1.95-3.51-5.55-9.56-4.59-14.1c0.96-4.54,11.6,3.84,14.62,7.41c3.02,3.58,25.47,8.72,32.83,7.66
					C268.47,270.15,299.73,258.44,299.73,258.44z"/>
				<path class="st36" d="M251.08,260.13c0,0,3.99-3.19,11.27-4.17c7.28-0.98,18.51-4.88,23.14-9.23c4.63-4.35,5.14-5.24,4.88-7.72
					c-0.25-2.48-0.74-3.81-0.74-3.81s-17.17,10.78-25.86,12.04c-8.7,1.26-15.44,3.48-17.13,5.88c-1.69,2.4-9.14,9.58-9.14,9.58
					L251.08,260.13z"/>
				<path class="st37" d="M293.41,256.51c0,0,0.35-2.74-1.24-3.6c-1.6-0.86-1.06,0.24-1.15,2c-0.09,1.76-0.02,2.29-0.02,2.29
					L293.41,256.51z"/>
				<path class="st37" d="M289.75,257.75c0,0,0.35-2.74-1.24-3.6c-1.6-0.86-1.06,0.24-1.15,2c-0.09,1.76-0.02,2.29-0.02,2.29
					L289.75,257.75z"/>
				<path class="st37" d="M285.46,259.43c0,0,0.35-2.74-1.24-3.6c-1.6-0.86-1.06,0.24-1.15,2c-0.09,1.76-0.02,2.29-0.02,2.29
					L285.46,259.43z"/>
				<path class="st37" d="M281.12,261.09c0,0,0.35-2.74-1.24-3.6c-1.6-0.86-1.06,0.24-1.15,2c-0.09,1.76-0.02,2.29-0.02,2.29
					L281.12,261.09z"/>
				<path class="st37" d="M276.95,262.87c0,0,0.35-2.74-1.24-3.6c-1.6-0.86-1.06,0.24-1.15,2c-0.09,1.76-0.02,2.29-0.02,2.29
					L276.95,262.87z"/>
				<path class="st38" d="M296.51,255.57c-2.66-0.9-5.84,0.48-8.34,1.22c-6.4,1.91-14.34,6.03-21.22,4.99
					c-4.9-0.74-8.74-2.86-13.84-3.12c-4.41-0.22-10.65,2.21-12.21,2.6c1.94-2.83,3.98-4.76,9.04-6.44
					c3.54-1.17,7.42-1.49,10.12-2.16c6.74-1.67,13.81-2.57,19.52-6.54c2.74-1.9,7.6-5.15,9.58-8.35c2.48-4.01-3.74-7.35-6.39-8.33
					c-5.89-2.17-13.25-0.17-19.24,0.98c-9.15,1.75-17.52,1.33-26.72,2.2c-7.16,0.68-11.18-0.16-15.8,5.15
					c-2.76,2.42-4.61,8.35-6.73,14.89c-2.41,7.42,3.49,12.25,7.62,18.37c11.2,16.6,33.36,8.01,49.19,4.35
					c8.43-1.95,18.36-4.34,25.28-9.88C299.81,262.76,302.1,257.46,296.51,255.57z M240.68,245.54c-1.17,3.12-4.3,1.56-8.98-1.56
					c-1.16-0.77-1.93-1.52-2.38-2.23c0.64-0.8,1.87-1.41,3.55-1.69c4.89-0.84,7.25,2.45,7.86,5.3
					C240.71,245.41,240.7,245.48,240.68,245.54z M244.75,245.13c-0.73-1.02,0.25-3.1-0.68-6.01c1.97-1.82,9.67-0.74,12.69-0.81
					c1.47-0.03,2.46,0.32,3.04,0.87c-0.29,0.47-0.66,0.94-1.18,1.41c-2.84,2.56-9.23,4.19-11.22,5.26
					C246.72,246.22,245.32,245.91,244.75,245.13z"/>
				<path class="st36" d="M232.87,240.06c4.89-0.84,7.25,2.45,7.86,5.3c0.79-2.61-1.17-9.17-7.86-8.02
					c-3.24,0.56-4.92,2.27-3.55,4.41C229.96,240.94,231.19,240.34,232.87,240.06z"/>
				<path class="st36" d="M256.77,238.31c1.47-0.03,2.46,0.32,3.04,0.87c1.33-2.11,0.42-4.07-3.04-3.99
					c-3.54,0.08-13.52-1.44-13.17,2.01c0.06,0.54,0.26,1.21,0.47,1.91C246.04,237.29,253.75,238.38,256.77,238.31z"/>
				<path class="st39" d="M288.92,240.06c-1.26,0.44-2.41,2.1-2.24,3.52c0.18,1.42,1.08,2.13,1.79,3.3
					c0.71,1.17,1.93-1.22,1.95-3.98C290.44,240.8,290.08,239.65,288.92,240.06z"/>
				<path class="st39" d="M284.6,244.13c-1.16,0.4-2.23,1.95-2.07,3.26c0.16,1.31,1,1.97,1.66,3.05c0.66,1.08,1.79-1.13,1.8-3.68
					C286,244.82,285.67,243.76,284.6,244.13z"/>
				<path class="st39" d="M280.61,246.79c-1.08,0.38-2.07,1.81-1.92,3.02c0.15,1.22,0.93,1.83,1.54,2.83c0.61,1,1.66-1.05,1.68-3.41
					C281.92,247.43,281.61,246.45,280.61,246.79z"/>
				<path class="st39" d="M276.44,248.79c-1.08,0.38-2.07,1.81-1.92,3.02c0.15,1.22,0.93,1.83,1.54,2.83c0.61,1,1.66-1.05,1.68-3.41
					C277.75,249.43,277.44,248.45,276.44,248.79z"/>
				<path class="st39" d="M271.74,250.39c-1.08,0.38-2.07,1.81-1.92,3.02c0.15,1.22,0.93,1.83,1.54,2.83c0.61,1,1.66-1.05,1.68-3.41
					C273.05,251.02,272.73,250.04,271.74,250.39z"/>
				<path class="st37" d="M295.89,257.83c-1.43-1.15-6.67,0.43-9.9,2.29c-3.23,1.86-5.36,3.43-9.01,3.99
					c-5.13,0.79-8.42,1.86-12.06,0.35c-2.58-1.07-10.17-2.82-12.94-3.01c-2.77-0.19-8.27,0.47-10.4,2.09
					c-2.13,1.62-1.42,3.93,2.49,3.04c3.9-0.89,8.52-2.84,11.53-1.42c3.02,1.42,7.91,4.12,14.2,3.73c7.18-0.44,11.25-2.31,15.68-5.29
					C289.93,260.63,292.88,258.97,295.89,257.83z"/>
				<g>
					<path class="st36" d="M283.47,235.03c0.82,0.33,1.4,0.67,1.82,1c1.19-0.77,1.64-2.39-1.82-3.77c-1.36-0.54-2.71-0.44-3.18,0.71
						c-0.24,0.6,0.01,1.37,0.62,2.04C281.56,234.61,282.5,234.64,283.47,235.03z"/>
					<path class="st35" d="M285.29,236.03c-0.42-0.34-1-0.68-1.82-1c-0.97-0.38-1.91-0.42-2.55-0.02c0.57,0.62,1.44,1.17,2.55,1.42
						C284.03,236.56,284.74,236.39,285.29,236.03z"/>
				</g>
				<path class="st37" d="M283.01,240.01c0,0-4.34,3.57-9.48,5.34c-4.8,1.65-9.69,2.04-13.32,2.48c-3.62,0.44-8.86,0.85-10.99,2.02
					c-2.13,1.17-2.66,2.41-2.75,3.3c-0.09,0.89,1.33-0.53,4.88-1.77c3.55-1.24,9.05-0.88,15.88-2.39c6.83-1.51,9.68-3.05,11.87-4.65
					C281.76,242.41,283.01,240.01,283.01,240.01z"/>
			</g>
			<g>
				<path class="st5" d="M233.38,259.94c-0.38-1.24-2.7-2.74-4.14-3.12c-1.22-0.32-2.17,0.77-2.9,1.61
					c-0.98,1.13-5.64,2.44-2.73,4.6c0.98,0.72,2.33,0.61,3.47,0.51c1.55-0.14,3.74,0,5.11-0.9
					C233.07,262.07,233.7,261,233.38,259.94z"/>
				<path class="st5" d="M225.68,256.24c-0.67-1.58-4.31-2.04-5.91-0.03c-1.38,1.73,2.38,2.28,3.44,2.41
					C224.68,258.82,226.42,257.99,225.68,256.24z"/>
				<path class="st5" d="M227.99,254.83c-0.02,0.26,0,0.51,0.24,0.58c0.56,0.17,1.05,0.07,1.39-0.42
					C230.23,254.08,228.06,253.85,227.99,254.83z"/>
				<path class="st5" d="M270.56,233.97c-0.02,0.26,0,0.51,0.24,0.58c0.56,0.17,1.05,0.07,1.39-0.42
					C272.8,233.23,270.63,233,270.56,233.97z"/>
				<path class="st5" d="M229.58,265.52c-0.02,0.26,0,0.51,0.24,0.58c0.56,0.17,1.05,0.07,1.39-0.42
					C231.83,264.78,229.66,264.55,229.58,265.52z"/>
				<path class="st5" d="M226.11,264.98c-0.55-0.24-2.26-0.37-2.21,0.25c0.07,0.82,2.12,1.04,2.38,0.18
					C226.33,265.27,226.26,265.05,226.11,264.98z"/>
				<path class="st5" d="M275.52,234.54c-0.55-0.24-2.26-0.37-2.21,0.25c0.07,0.82,2.12,1.04,2.38,0.18
					C275.74,234.82,275.67,234.6,275.52,234.54z"/>
				<path class="st5" d="M274.51,236.7c-0.57-0.88-3.97-1.1-4.68,0.52c-0.72,1.64,2.12,1.44,3.02,1.41
					C273.78,238.6,275.29,237.9,274.51,236.7z"/>
			</g>
			<g>
				<path class="st36" d="M209.17,264c0,0,2.96,4.47,2.07,9.71c-0.89,5.26-4.08,10.12-9.76,13.75c-6.51,4.17-8.53,4.73-13.31,5.32
					c-4.48,0.56-7.65-1.96-7.06-4.3c0.06-0.26,0.37-1.72,0.61-1.88C184.86,284.53,209.17,264,209.17,264z"/>
				<path class="st38" d="M208.93,263.61c-1.81-2.63-6.74,5.3-11.71,9.56c-4.97,4.26-9.58,8.46-14.2,12.04
					c-4.61,3.58,1.77,5.71,7.1,5s9.58-3.72,14.91-9.31C210.35,275.3,212.13,268.25,208.93,263.61z"/>
				<path class="st37" d="M206.46,265.96c-0.53-0.65-1.61,0.47-0.75,1.4c1.08,1.17,2.04,2.97,2.63,3.68c0.59,0.71,1.2-1.02,0-2.75
					C207.92,267.68,207.33,267.02,206.46,265.96z"/>
				<path class="st37" d="M204.39,268.68c-0.53-0.65-1.61,0.47-0.75,1.4c1.08,1.17,2.04,2.97,2.63,3.68c0.59,0.71,1.2-1.02,0-2.75
					C205.85,270.4,205.26,269.74,204.39,268.68z"/>
				<path class="st37" d="M201.84,271.4c-0.53-0.65-1.61,0.47-0.75,1.4c1.08,1.17,2.04,2.97,2.63,3.68c0.59,0.71,1.2-1.02,0-2.75
					C203.31,273.12,202.72,272.45,201.84,271.4z"/>
				<path class="st37" d="M199.06,274.43c-0.53-0.65-1.61,0.47-0.75,1.4c1.08,1.17,2.04,2.97,2.63,3.68c0.59,0.71,1.2-1.02,0-2.75
					C200.53,276.15,199.94,275.49,199.06,274.43z"/>
				<path class="st37" d="M196.11,277.15c-0.53-0.65-1.61,0.47-0.75,1.4c1.08,1.17,2.04,2.97,2.63,3.68c0.59,0.71,1.2-1.02,0-2.75
					C197.57,278.87,196.98,278.21,196.11,277.15z"/>
				<path class="st37" d="M192.85,279.87c-0.53-0.65-1.61,0.47-0.75,1.4c1.08,1.17,2.04,2.97,2.63,3.68c0.59,0.71,1.2-1.02,0-2.75
					C194.32,281.59,193.72,280.92,192.85,279.87z"/>
				<path class="st37" d="M189.78,282.29c-0.53-0.65-1.61,0.47-0.75,1.4c1.08,1.17,2.04,2.97,2.63,3.68c0.59,0.71,1.2-1.02,0-2.75
					C191.24,284.01,190.65,283.35,189.78,282.29z"/>
				<path class="st37" d="M185.56,285.17c0.49,0.74,1.53,2,2.04,2.85c0.51,0.85,1.44,0.48,0.98-0.89c-0.46-1.37-1.49-2.39-2.06-2.79
					C185.96,283.95,185.17,284.58,185.56,285.17z"/>
			</g>
			<path class="st34" d="M214.58,246.17c-0.47-0.92-1.43-0.83-2.22-0.37c-0.44,0.26-0.98,0.86-1.3,2.37
				c-0.15,0.74-1.18,0.84-1.5,1.49c-0.32,0.64-0.58,1.61-0.01,2.17c0.6,0.58,1.85,0.84,2.57,0.35c0.38-0.26,0.47-0.56,0.59-0.97
				c0.12-0.41,0.04-0.52,0.27-0.96c0.22-0.42,0.52-0.68,0.81-1.05C214.39,248.43,215.08,247.16,214.58,246.17z"/>
			<g>
				<path class="st5" d="M268.21,283.94c-0.7-2.05-8.39-2.28-9.42-2.54c-1.69-0.43-2.77-1.39-4.24-2.21
					c-3.54-1.97-7.54-2.49-11.15-0.23c-3.01,1.89-2.97,3.95-6.9,5.25c-1.23,0.41-2.63-0.23-3.82,0.67
					c-2.33,1.78-1.32,3.58,0.38,5.06c0.97,0.85,2.65,1.36,3.79,1.99c2.15,1.18,4.52,3.48,6.57,4.47c1.63,0.78,3.08,0.72,4.88,0.56
					c5.81-0.5,9.38-4.9,14.43-7C264.87,289.07,269.31,287.18,268.21,283.94z"/>
				<path class="st34" d="M257.23,288.45c-0.2-0.61-1.64-1.42-1.94-1.46c-0.38-0.05-0.75,0.15-1.07,0.34
					c-0.27,0.15-0.47,0.42-0.73,0.58c-0.58,0.37-1.15,0.4-1.81,0.47c-2.11,0.24-4.3,1.2-2.64,3.45c1.99,2.7,4.72,0.48,6.71-1.03
					C256.48,290.25,257.58,289.5,257.23,288.45z"/>
				<path class="st34" d="M246.14,287.97c-0.92-1.33-2.55-1.62-5.46-0.53c-1,0.38-1.96-0.23-2.76,0.67
					c-0.29,0.32-0.22,0.74,0.13,0.99c1.47,1.05,3.76,2.48,5.68,2.31c0.56-0.05,1.08-0.28,1.4-0.75c0.23-0.34,0.2-0.72,0.35-1.08
					c0.16-0.4,0.46-0.59,0.67-0.94C246.26,288.46,246.27,288.17,246.14,287.97z"/>
			</g>
			<g>
				<path class="st36" d="M309.23,276.93c0,0-0.82,1.36-0.26,2.72c0.56,1.36,3.51,3.91,5.17,3.43c1.66-0.47,5.56-1.56,6.63-3.37
					c1.28-2.18,1.22-2.78,0.63-3.36C320.15,275.12,309.23,276.93,309.23,276.93z"/>
				<path class="st38" d="M315.18,281.36c-1.04,0.33-2.23,0.19-3.05-0.53c-1.77-1.57-4.43-1.61-2.48-4.69
					c2.95-4.65,4.49-5,8.74-2.52C322.71,276.13,322.98,278.89,315.18,281.36z"/>
			</g>
			<g>
				<path class="st36" d="M159.26,305.54c0,0,0.17,3.95,9.16,2.3c5.06-0.93,14.75-2.74,25.3-2.49c8.21,0.2,22.16,4.47,26.08,7.9
					c10.83,9.5,13.1,9.82,14.7,6.45c1.6-3.37-15.95-13.77-23.92-17.09c-7.96-3.32-29.86-2.84-37.67-1.18
					C165.1,303.08,159.26,305.54,159.26,305.54z"/>
				<path class="st38" d="M164.1,301.04c5.22-1.78,26.66-4.49,41.21-1.23c18.35,4.12,23.88,10.21,27.68,15.41
					c3.8,5.21-0.56,5.21-3.02,3.32c-2.46-1.89-9-9.06-19.34-12.36c-14.54-4.64-25.54-3.7-36.54-1.42c-8.6,1.78-12.11,3.45-14,1.87
					C158.21,305.05,158.66,302.89,164.1,301.04z"/>
			</g>
			<g>
				<path class="st36" d="M150.03,316.48c0,0,0.16,3.84,8.91,2.24c4.92-0.9,14.34-2.67,24.61-2.42c7.99,0.19,21.56,4.34,25.37,7.69
					c10.53,9.24,12.75,9.55,14.3,6.27c1.55-3.28-15.52-13.4-23.27-16.63c-7.75-3.23-29.05-2.76-36.64-1.15
					C155.72,314.08,150.03,316.48,150.03,316.48z"/>
				<path class="st38" d="M154.74,312.1c5.08-1.73,25.93-4.37,40.09-1.19c17.85,4,23.23,9.93,26.93,15c3.7,5.06-0.54,5.07-2.93,3.23
					c-2.39-1.84-8.76-8.82-18.82-12.03c-14.14-4.52-24.85-3.6-35.55-1.38c-8.37,1.73-11.78,3.35-13.62,1.81
					C149.01,316,149.45,313.9,154.74,312.1z"/>
			</g>
			<g>
				<path class="st36" d="M141.68,327.85c0,0,0.16,3.84,8.91,2.24c4.92-0.9,14.34-2.67,24.61-2.42c7.99,0.19,21.56,4.34,25.37,7.69
					c10.53,9.24,12.75,9.55,14.3,6.27c1.55-3.28-15.52-13.4-23.27-16.63c-7.75-3.23-29.05-2.76-36.64-1.15
					C147.37,325.45,141.68,327.85,141.68,327.85z"/>
				<path class="st38" d="M146.39,323.46c5.08-1.73,25.93-4.37,40.09-1.19c17.85,4,23.23,9.93,26.93,15
					c3.7,5.06-0.54,5.07-2.93,3.23c-2.39-1.84-8.76-8.82-18.82-12.03c-14.14-4.52-24.85-3.6-35.55-1.38
					c-8.37,1.73-11.78,3.35-13.62,1.81C140.66,327.37,141.11,325.26,146.39,323.46z"/>
			</g>
			<g>
				<path class="st36" d="M139.73,339.88c0,0,0.41,3.04,5.38,1.98c4.97-1.06,17.63-5.21,31.59,1.14
					c11.33,5.15,15.97,8.45,17.75,7.26c1.77-1.18,1.34-3.82,1.34-3.82s-21.67-11.79-36.53-10.85
					C144.4,336.53,139.73,339.88,139.73,339.88z"/>
				<path class="st38" d="M142.27,336.42c4.58-1.94,21.45-4.74,33.72-1.42c10.48,2.84,15.28,7.34,18.36,9.59
					c3.08,2.25,1.1,5.2-2.45,3.43c0,0-14.41-8.33-21.37-9.23c-14.65-1.89-22.82,1.89-27.31,2.25
					C138.72,341.39,138.36,338.07,142.27,336.42z"/>
			</g>
			<g>
				<path class="st5" d="M137.97,312.62c-1.7-4.46-8.3-1.02-13.12,0.76c-6.09,2.25-10.61,6.19-14.82,11.11
					c-5.17,6.04-0.58,7.46,0.53,14.14c0.47,2.81-0.13,5.59,2.64,7.47c2.59,1.76,6.09,0.86,8.86,2.44c4.64,2.66,9.99,6.11,14.12,0.13
					c3.69-5.35-0.51-9.91-3.77-13.96C124.25,324.59,141.34,321.45,137.97,312.62z"/>
				<path class="st34" d="M120.24,336.67c-2.29,0.23-3.55,0.22-2.6,2.51c0.95,2.3,3.08,2.8,7.1,5.04c4.02,2.23,5.92-1.71,3.55-5.54
					C125.92,334.86,122.84,336.41,120.24,336.67z"/>
				<path class="st34" d="M117.32,320.19c-1.21,1.11-5.13,3.91-6.07,7.63c-0.95,3.73,1.58,6.12,3.04,3.38
					c1.46-2.73,3.59-6.05,7.61-9.83C125.92,317.58,121.11,316.71,117.32,320.19z"/>
			</g>
			<g>
				<path class="st5" d="M263.43,303.5c-2.97-1.09-6.31,0.08-9.37,1.38c-1.28,0.04-2.59,0.12-3.73-0.07
					c-3.74-0.62-8.14-2.61-11.65,0.02c-4.16,3.12-4.22,13.99,2.3,14.21c5.61,0.19,12.71-2.8,18.15-4.16
					c2.92-0.73,6.95-1.39,8.09-4.69C268.21,307.34,266.03,304.45,263.43,303.5z"/>
				<path class="st34" d="M261.4,307.11c-0.42-0.76-1.09-1.08-2.13-1.11c-1.53-0.05-3.07,1.11-4.53,1.43
					c-2.59,0.56-4.72-0.13-7.26-0.45c-3.87-0.48-9.2,2.45-5.74,6.86c1.16,1.48,3.15,2.02,4.95,1.9c1.93-0.13,3.57-1.12,5.38-1.64
					c1.84-0.54,3.71-0.53,5.59-0.81C261.78,312.66,265.11,309.96,261.4,307.11z"/>
			</g>
			<g>
				<path class="st36" d="M241.2,320.78c0,0,0.34,4.44,5.27,3.85c4.94-0.59,15.83-5.21,21.68-7.22c5.85-2.01,16.37-4.65,19.16-6.53
					c2.79-1.87,2.05-5.42,2.05-5.42L241.2,320.78z"/>
				<path class="st38" d="M252.35,312.21c-4.45,0.89-11.45,0.47-11.46,4.73c-0.01,4.26,0.17,7.03,5.99,5.64
					c5.82-1.38,23.04-9.17,35.02-11.7c6.74-1.42,8.08-4.08,7.24-6.49c-0.92-2.64-4.34-3.21-7.24-1.66
					c-2.39,1.28-6.18,3.32-8.87,4.02C265.14,308.85,257.1,311.26,252.35,312.21z"/>
			</g>
			<g>
				<path class="st36" d="M287.7,300.14c0,0-0.49,2.37,2.73,3.56c3.22,1.18,4.4,0.46,7.83-3.56c3.43-4.01,8.52-9.14,11.95-11.94
					c3.43-2.8,2.6-4.88,1.6-5.8C310.8,281.47,287.7,300.14,287.7,300.14z"/>
				<path class="st38" d="M290.57,302.26c-2.78-1.33-5.08-3.11,0.8-6.48c1.72-0.99,6.37-4.35,8.38-6.28
					c2.18-2.1,4.08-4.29,5.46-6.04c1.93-2.44,3.68-3.22,5.6-1.98c3.97,2.55-1.42,5.85-7.57,11.05c-1.98,1.68-4.44,4.35-6.03,6.03
					C294.82,301.06,293.68,303.75,290.57,302.26z"/>
			</g>
			<path class="st38" d="M316.14,270.82c-1.19-0.18,0.11-2.38,2.12-4.04c2.01-1.66,3.31-2.94,4.73-2.48
				c1.42,0.46-0.96,2.26-2.43,3.44C319.1,268.92,317.68,271.06,316.14,270.82z"/>
			<path class="st38" d="M322.66,274.71c-1.08-0.35,0.46-2.2,2.59-3.44c2.13-1.24,3.53-2.24,4.79-1.59
				c1.25,0.64-1.24,1.96-2.78,2.84C325.71,273.39,324.06,275.16,322.66,274.71z"/>
			<path class="st38" d="M325.83,266.21c-1.07,0.45-2.69,1.48-4.1,2.74c-1.4,1.26-3.01,2.47-2.18,3.17c0.83,0.7,2.59-1.05,4.68-2.49
				c1.2-0.83,2.27-1.69,3.19-2.61C328.13,266.31,327.13,265.66,325.83,266.21z"/>
			<path class="st5" d="M346.89,283.07c-0.62-4.88-5.71-6.91-9.89-7.73c-3.59-0.71-9.75,3.44-11.34,4.62
				c-1.98,1.47-3.39,3.03-4.37,5.3c-0.27,0.63-0.22,1.35-0.4,2c-1.43,5.03-1.31,4.39-3.01,7.97c-4.57,9.63,5.5,19.03,15.03,15.12
				c4.76-1.95,6.99-6.28,8.04-11.03c0.93-4.21,1.87-7.08,4.13-10.86C346.21,286.57,347.19,285.41,346.89,283.07z"/>
			<path class="st5" d="M192.19,250.23c-5.6-2.55-12.96-1.96-18.58,0.1c-2.89,1.06-9.53,3.47-8.98,7.45
				c0.1,0.74,0.85,1.25,1.04,1.91c0.62,2.12-0.7,3.28-0.76,5.15c-0.05,1.54-0.11,2.67,0.76,4.01c2.53,3.9,7.63,3.07,10.84,0.61
				c2.41-1.85,3.54-5.24,5.97-6.9c3.79-2.59,7.64,0.65,10.84-1.79C198,257.2,195.33,251.66,192.19,250.23z"/>
			<path class="st34" d="M171.65,256.72c-1.43-1.49-4.53-2.36-4.66,0.5c-0.05,1.17,0.72,2.29,0.81,3.46
				c0.1,1.33-0.25,2.66-0.35,3.98c-0.1,1.28-0.22,2.98,1.13,3.67c2.19,1.11,5.98-1.34,5.71-3.8
				C174.16,263.34,174.06,259.23,171.65,256.72z"/>
			<path class="st34" d="M335.59,301.32c-0.64-0.52-4.86,1.12-7.57-0.03c-1.14-0.49-2.3-0.75-3.56-0.78
				c-1.31-0.03-2.95-0.06-3.13,1.5c-0.18,1.5,1.12,3.03,2.26,3.81c3.48,2.4,8.79,1.31,11.59-1.68
				C335.88,303.4,336.62,302.15,335.59,301.32z"/>
			<path class="st37" d="M249.85,270.02c-2.57,0-4.54,4.51-9.12,3.9c-4.59-0.6-8.73-5.15-11.01-3.9c-2.28,1.25-1.36,4.24,2.7,5.9
				c4.06,1.66,10.43,1.28,16.03-0.66S252.88,270.02,249.85,270.02z"/>
			<path class="st37" d="M225.11,241.28c-1.88,0.75-1.82,5.98,1.2,7.24c3.02,1.25,8.92,1.82,7.16,0c-1.76-1.82-4.3-1.43-5.5-3.16
				C226.76,243.63,226.99,240.53,225.11,241.28z"/>
			<path class="st37" d="M285.29,304.21c-2.05-0.52-3.84,1.93-6.62,2.92c-2.78,1-8.88,2.39-13.94,3.74
				c-5.05,1.35-15.36,4.11-18.05,4.86c-2.7,0.76-2.32,2.57-2.08,3.97c0.24,1.4,3.25-0.94,5.24-2.08c1.99-1.14,14.15-5.07,20.7-6.17
				c6.55-1.1,12.16-2.64,13.7-3.32C285.8,307.45,286.74,304.57,285.29,304.21z"/>
			<path class="st37" d="M308.27,283.14c-1.5,0.05-2.12,1.89-4.44,4.39c-2.33,2.5-9.31,7.67-11.62,9.52c-2.31,1.85-1.27,3.15,0,3.44
				c1.27,0.29,2.81-3.46,6.22-6.02c3.41-2.56,9.1-6.7,10.35-8.13C310.03,284.92,310.17,283.08,308.27,283.14z"/>
			<g>
				<path class="st5" d="M251.72,368.2c-0.73-4.12-4.54-6.81-8.39-8.48c-2.16-2.5-4.55-4.77-7.7-5.41
					c-3.61-0.74-7.78,0.23-11.52-0.11c-3.57-0.33-6.66-0.38-10.07,0.91c-4.03,1.53-9.94,5.59-9.98,10.52
					c-0.02,2.81,1.22,6.48,1.71,9.25c0.47,2.63,1.12,4.68,2.84,6.84c8.19,10.31,26.11,7.3,35.58,0.48
					C248.38,379.18,252.7,373.73,251.72,368.2z"/>
				<path class="st34" d="M247.68,368.71c-0.55-3.58-4.66-6.33-7.8-3.77c-0.29,0.24-0.34,0.6-0.23,0.93
					c-0.63,1.42-0.54,3.43-0.66,4.74c-0.19,2.09-2.56,11.38,2.42,9.16C244.95,378.18,248.27,372.56,247.68,368.71z"/>
				<path class="st34" d="M216.24,376.39c-0.89-1.76-2.25-2.8-2.62-4.88c-0.34-1.95-0.05-3.95-0.28-5.91
					c-0.11-0.93-0.3-1.96-0.73-2.76c-0.2-2.34-4.12-2.84-5.53-0.06c-1.23,2.42-0.22,5.94,0.15,8.48c0.37,2.52,0.93,5.21,2.58,7.23
					c1.22,1.49,3.29,2.87,5.26,1.89C216.67,379.59,216.99,377.88,216.24,376.39z"/>
			</g>
			<g>
				<path class="st5" d="M267.34,215.61c-6.45,1.69-12.88,1.38-15.6,1.4c-2.52,0.01-6.9,0.25-8.42,2.78
					c-3.05,5.06,7.76,7.54,10.9,7.53c3.9-0.02,16.74-2.21,16.89-7.65C271.17,217.54,269.29,215.09,267.34,215.61z"/>
				<path class="st34" d="M261.76,219.39c-1.87,0.8-3.9,0.99-5.87,1.41c-1.18,0.25-1.95,0.36-2.42,1.49
					c-0.09,0.22,0.02,0.54,0.19,0.7c2.2,2.05,6.05,1.32,8.7,0.83c2.64-0.5,6.03-1.35,5.46-4.29
					C267.47,217.69,263.24,218.75,261.76,219.39z"/>
			</g>
			<g>
				<path class="st5" d="M144.21,276.56c-2.29-3.03-7.68-4.95-11.14-2.66c-1.24,0.82-1.85,1.8-2.16,3.21
					c-1.58,7.11-4.09,10.14-7.26,12.89c-2.36,2.06-4.52,4.33-6.25,6.96c-1.84,2.8-4.61,8.94,0.5,10.38c1.94,0.55,4.38-0.66,6.2-1.2
					c4.13-1.22,8.39-2.27,12.42-3.8c1.99-0.75,4.44-1.6,5.71-3.43c1.62-2.34,0.47-5.03,1.1-7.68
					C144.59,285.99,148.06,281.66,144.21,276.56z"/>
				<path class="st34" d="M132.19,286.06c-1.55-1.18-3.16,0.3-3.94,1.63c-0.63,1.08-3.02,5.89-3.88,6.96
					c-1.19,1.47-3.78,3.68-3.53,5.87c0.56,4.86,8.22,0.41,9.82-1.35c2.2-2.41,0.82-4.91,1.59-7.84
					C132.68,289.69,133.98,287.42,132.19,286.06z"/>
			</g>
			<g>
				<path class="st5" d="M281.61,323.97c-4.2-2.55-9.26,0.28-13.61,2.49c-4.37,1.27-8.2,1.68-12.74,1.53
					c-4.55-0.15-9.32,0.02-12.44,3.82c-1.9,2.31-4.37,7.43-1.97,10.19c2.81,3.25,12.2,2.86,16.12,3.35c6.6,0.83,12.67,2,18.54-1.78
					c4.01-2.58,8.62-6.54,9.44-11.49C285.46,329,284.34,325.62,281.61,323.97z"/>
				<path class="st34" d="M267.81,337.99c-1.71-3.94-10.51-3.42-16.82-2.14c-2.38,0.48-6.14-1.08-7.63,1.68
					c-2.89,5.36,9.45,5.05,11.51,5.19C257.46,342.9,270.73,344.72,267.81,337.99z"/>
			</g>
		</g>
		<path class="st5" d="M159.01,238.92c-3.09-4.7-12.67,0-14.25,0.75c-2.07,0.98-3.06,3.58-4.17,5.39c-2.85,4.62,5.27,4.98,8.01,3.87
			c2.74-1.12,5.6-3.21,7.9-5.06C157.94,242.71,160.15,240.66,159.01,238.92z"/>
		<path class="st5" d="M229.59,206.03c-0.91,3.85,6.34,5.32,8.81,5.41c3.16,0.12,11.22-2.16,10.76-6.52
			C248.63,199.95,231.06,199.78,229.59,206.03z"/>
		<path class="st5" d="M307.75,351.24c-2.1-0.59-4.83-0.75-6.52,0.82c-0.85,0.79-11.22,8.79-7.1,11.64
			c3.89,2.69,11.8,0.26,15.03-2.53C312.58,358.2,312.61,352.6,307.75,351.24z"/>
		<path class="st5" d="M349.14,258.85c-1.93-1.61-4.37-2.54-6.81-3.11c-2.01-0.47-5.5-1.38-7.15,0.35
			c-3.57,3.74,3.55,8.13,5.97,9.57c2.84,1.69,9.21,7.55,12.06,2.37C354.97,264.84,352.23,260.83,349.14,258.85z"/>
		<path class="st5" d="M193.3,384.33c-2.52-0.21-5.03-0.42-7.57-0.76c-1.7-0.23-3.8-0.36-4.93,1.24c-2.93,4.12,3.83,8.3,7.05,8.93
			c3.78,0.75,11.07-0.9,12.1-5.33C200.92,384.28,196.49,383.57,193.3,384.33z"/>
		<path class="st5" d="M96.7,307.55c-2.52-4.5-8.28-1.78-10.55,1.43c-3.02,4.26-3.43,11.39,1.97,14.02
			c5.36,2.62,10.49-1.99,10.22-7.46C98.25,313.72,96.75,307.64,96.7,307.55z"/>
		<path class="st2" d="M236.15,188.44h8.29l102.69,58.18c0.15-0.17,0.29-0.35,0.43-0.52c0.1-0.13,0.21-0.28,0.32-0.45L244.9,187.29
			l-0.14-0.08h-8.74l-88.63,37.23l0.48,1.14L236.15,188.44z"/>
		<g>
			
				<rect x="71.68" y="258.18" transform="matrix(0.6308 -0.776 0.776 0.6308 -157.8766 185.799)" class="st2" width="89.24" height="1.23"/>
		</g>
		<path class="st40" d="M90.15,286.92c-4.31,0.01-6.62,0.81-6.28,5.8c0.34,4.99,2.55,20.22,2.55,20.22c0,1.16,1.67,2.1,3.74,2.1
			s3.74-0.94,3.74-2.1c0,0,0.12-5.63,0.27-12.55C94.26,295.56,96.34,286.91,90.15,286.92z"/>
		<path class="st40" d="M148.58,214.84c-4.31,0.01-6.62,0.81-6.28,5.8c0.34,4.99,2.55,20.22,2.55,20.22c0,1.16,1.67,2.1,3.74,2.1
			s3.74-0.94,3.74-2.1c0,0,0.12-5.63,0.27-12.55C152.69,223.48,154.77,214.83,148.58,214.84z"/>
		<path class="st40" d="M190.03,362.93c4.31,0.01,6.62,0.81,6.28,5.8c-0.34,4.99-2.55,20.22-2.55,20.22c0,1.16-1.67,2.1-3.74,2.1
			s-3.74-0.94-3.74-2.1c0,0-0.12-5.63-0.27-12.55C185.93,371.57,183.85,362.92,190.03,362.93z"/>
		<path class="st40" d="M239.07,179.67c4.31,0.01,6.62,0.81,6.28,5.8c-0.34,4.99-2.55,20.22-2.55,20.22c0,1.16-1.67,2.1-3.74,2.1
			s-3.74-0.94-3.74-2.1c0,0-0.12-5.63-0.27-12.55C234.96,188.31,232.88,179.65,239.07,179.67z"/>
		<path class="st40" d="M346.13,236.6c4.31,0.01,6.62,0.81,6.28,5.8c-0.34,4.99-2.55,20.22-2.55,20.22c0,1.16-1.67,2.1-3.74,2.1
			c-2.06,0-3.74-0.94-3.74-2.1c0,0-0.12-5.63-0.27-12.55C342.02,245.24,339.94,236.58,346.13,236.6z"/>
		<path class="st40" d="M302.57,333.07c4.31,0.01,6.62,0.81,6.28,5.8c-0.34,4.99-2.55,20.22-2.55,20.22c0,1.16-1.67,2.1-3.74,2.1
			c-2.06,0-3.74-0.94-3.74-2.1c0,0-0.12-5.63-0.27-12.55C298.46,341.71,296.38,333.06,302.57,333.07z"/>
		<path class="st2" d="M351.84,247.9c-0.19,0.37-0.98,2.1-0.98,2.1c-2.97,6.76-41.66,94.71-43.87,98c-1.83,2.72-3.63,3.1-6.61,3.73
			c-0.57,0.12-1.18,0.25-1.83,0.4l-5.7,1.34c-23.12,5.45-93.5,22.04-96.43,22.98c-2.62,0.84-7.79,1.75-12.98-1.64
			c-4.74-3.09-95.37-72.46-98.91-75.69c0,0-0.61,0.42-0.3,1.41c0.17,0.53,1.97,1.62,4.41,3.53c18.78,14.72,89.92,69.04,94.12,71.78
			c3.07,2,6.13,2.62,8.73,2.62c2.16,0,4.01-0.43,5.3-0.84c1.91-0.61,34.32-8.34,96.33-22.95l5.7-1.34c0.64-0.15,1.23-0.28,1.79-0.39
			c3.06-0.64,5.26-1.11,7.37-4.24c2.35-3.5,43.29-94.45,44.15-98.6C352.45,248.74,351.84,247.9,351.84,247.9z"/>
	</g>
	<g>
		<path class="st5" d="M275.23,139.71c-5.5-3.46-11.29-1.41-17.75-1.71c-1.17-0.05-4.24-2.19-6.27-1.86
			c-2.85,0.47-5.01,3.63-7.89,3.63c-8.54,0-14.86,5.16-19.11,11.27c-0.28,0.4-0.55,0.84-0.16,1.22c5.58,5.5,14.23,2.34,20.51,0.53
			c9.25-2.66,18.14,2.07,26.83-2.83C275.78,147.49,281.51,143.65,275.23,139.71z"/>
		<path class="st34" d="M273.3,144.16c-0.52-0.9-1.5-1.21-2.84-1.34c-1.83-0.18-3.49,0.76-5.41,0.41c-1.51-0.28-2.75-1.04-4.23-1.37
			c-1.16-0.26-2.04-0.26-3.21-0.05c-2.34,0.42-3.84,1.25-6.32,1.31c-1.02,0.03-1.88-0.15-2.9-0.02c-2.97,0.38-6,1.9-8.88,2.76
			c-1.62,0.48-6.55,1.95-5.92,4.69c0.45,1.95,2.49,1.8,4.06,1.65c3.94-0.38,7.72-1.97,11.72-2.28c3.43-0.27,6.71,0.29,10.11,0.6
			c4.26,0.39,9.96,0.25,13.29-3.02C273.96,146.35,274.55,145.2,273.3,144.16z"/>
	</g>
	<g>
		<g>
			<path class="st36" d="M341.96,208.63c0,0-0.34,4.44-5.27,3.85c-4.94-0.59-15.83-5.21-21.68-7.22
				c-5.85-2.01-16.37-4.65-19.16-6.53c-2.79-1.87-2.05-5.42-2.05-5.42L341.96,208.63z"/>
			<path class="st38" d="M330.8,200.06c4.45,0.89,11.45,0.47,11.46,4.73c0.01,4.26-0.17,7.03-5.99,5.64
				c-5.82-1.38-23.04-9.17-35.02-11.7c-6.74-1.42-8.08-4.08-7.24-6.49c0.92-2.64,4.34-3.21,7.24-1.66c2.39,1.28,6.18,3.32,8.87,4.02
				C318.02,196.69,326.06,199.1,330.8,200.06z"/>
		</g>
		<g>
			<path class="st36" d="M295.46,187.98c0,0,0.49,2.37-2.73,3.56c-3.22,1.18-4.4,0.46-7.83-3.56c-3.43-4.01-8.52-9.14-11.95-11.94
				c-3.43-2.8-2.6-4.88-1.6-5.8C272.36,169.32,295.46,187.98,295.46,187.98z"/>
			<path class="st38" d="M292.59,190.1c2.78-1.33,5.08-3.11-0.8-6.48c-1.72-0.99-6.37-4.35-8.38-6.28c-2.18-2.1-4.08-4.29-5.46-6.04
				c-1.93-2.44-3.68-3.22-5.6-1.98c-3.97,2.55,1.42,5.85,7.57,11.05c1.98,1.67,4.44,4.35,6.03,6.03
				C288.34,188.9,289.48,191.59,292.59,190.1z"/>
		</g>
		<path class="st37" d="M297.86,192.05c2.05-0.52,3.84,1.93,6.62,2.92c2.78,1,8.88,2.39,13.94,3.74c5.05,1.35,15.36,4.11,18.05,4.86
			c2.7,0.76,2.32,2.57,2.08,3.97c-0.24,1.4-3.25-0.94-5.24-2.08c-1.99-1.14-14.15-5.07-20.7-6.17c-6.55-1.1-12.16-2.64-13.7-3.32
			S296.42,192.41,297.86,192.05z"/>
		<path class="st37" d="M274.89,170.99c1.5,0.05,2.12,1.89,4.44,4.39c2.33,2.5,9.31,7.67,11.62,9.52c2.31,1.85,1.27,3.15,0,3.44
			c-1.27,0.29-2.81-3.46-6.22-6.02c-3.41-2.56-9.1-6.7-10.35-8.13C273.13,172.76,272.99,170.92,274.89,170.99z"/>
	</g>
	<g>
		<path class="st36" d="M239.79,158.77c0,0-0.93,3.19,0,4.17c0.93,0.99,2.51,4.15,8.83,1.51c6.32-2.63,21.07-10.71,28.26-11.41
			c7.2-0.7,9.78-0.97,8.99-4.32c-0.59-2.48-5.79-0.89-5.79-0.89L239.79,158.77z"/>
		<path class="st38" d="M280.09,144.83c-3.74,0.23-4.43,2.32-11.8,4.48c-7.37,2.16-19.84,6.58-23.52,6.92
			c-3.69,0.34-6.14,1.36-4.39,4.01c1.76,2.65,4.74,3.7,8.95,1.6c4.21-2.11,24.45-9.83,28.55-10.71c4.1-0.88,9.32-0.25,7.61-3.28
			C284.26,145.67,282.06,144.7,280.09,144.83z"/>
		<path class="st37" d="M279.33,146.62c-1.29,0.05-2.96,1.19-4.61,2.04c-1.65,0.86-5.2,1.98-7.37,2.7
			c-2.17,0.72-13.36,4.04-17.31,5.05c-3.95,1.01-6.45,1.68-7.18,2.37c-0.72,0.68,0.07,1.27,1.05,1.8c0.99,0.53,2.7-0.53,4.35-1.45
			c1.65-0.92,12.44-4.13,16.26-5.32c3.82-1.19,11.92-4.25,13.76-4.5c1.84-0.25,5-0.71,4.15-1.47
			C281.56,147.08,280.6,146.57,279.33,146.62z"/>
	</g>
	<g>
		<path class="st5" d="M260.82,160.72c-2.22-1.48-4.77-1.13-7.19-2.02c-4.53-1.68-5.34,0.29-9.53,1.71
			c-5.04,1.71-8.62,1.03-12.41,5.57c-2.11,2.53-2.17,4.42,0.3,6.63c3.35,2.99,6.29,4,10.62,3.35c4.51-0.68,9.98-0.93,13.75-3.81
			c1.13-0.86,1.67-1.89,2.65-2.85c1.05-1.03,2.07-1.15,3.32-2.13c1.12-0.88,1.69-0.71,1.68-2.39
			C264,162.94,262.08,161.55,260.82,160.72z"/>
		<path class="st34" d="M260.25,164.68c-0.33-1.65-2.04-1.8-3.39-1.61c-0.06,0.01-0.1,0.04-0.15,0.06c-1.32-0.07-2.88,2.48-3.67,3.1
			c-1.7,1.33-3.99,1.24-5.93,2.09c-1.56,0.68-4.73,1.53-3.51,3.1c1.37,1.75,6.15,1.49,8.93,0.54c2.42-0.83,3.26-3.24,5.37-4.53
			C258.98,166.76,260.56,166.29,260.25,164.68z"/>
	</g>
	<g>
		<path class="st5" d="M321.29,170.72c-0.92-1.15-3.13-1.71-4.32-2.53c-1.63-1.13-2.9-2.92-4.61-3.92
			c-3.88-2.26-5.11,2.42-9.59,3.28c-4.13,0.8-9.71,3.41-11.68,7.56c-1.18,2.49-0.26,3.37,2.25,4.61c4.34,2.13,10.7,4.01,15.51,4.39
			c1.39,0.11,2.8,0.07,3.98-0.82c1.52-1.15,1.35-2.92,2.95-3.92c1.36-0.86,2.91-0.22,4.34-1.63c0.99-0.98,1.95-2.77,2.03-4.2
			C322.21,172.31,322.05,171.68,321.29,170.72z"/>
		<path class="st34" d="M319.5,173.93c-0.27-1.24-1.82-1.93-3.17-2.12c-1.12-0.89-2.38-2.25-3.75-1.62
			c-0.56,0.26-0.6,0.62-0.81,1.07c-0.31,0.65-0.31,2.15-0.46,2.46c-0.42,0.9-1.34,1.82-2.16,2.34c-2.31,1.46-8.34,2.48-3.65,5.52
			c2.03,1.32,3.58,0.85,5.48-0.48c0.79-0.55,1.54-1.17,2.25-1.82c1.43-1.3-1.23,0.59,1.56-1.57c1.59-1.23,0.87-0.45,2.22-0.99
			C318.29,176.23,319.89,175.71,319.5,173.93z"/>
	</g>
</g>
</svg>
