<svg width="515" height="653" viewBox="0 0 515 653" fill="none" xmlns="http://www.w3.org/2000/svg">
<path d="M265.616 155.364C211.155 130.091 148.799 177.84 125.881 209.479L156.635 259.785C187.43 211.358 228.389 208.05 245.614 226.013C274.025 255.642 232.932 312.054 209.957 322.37L294.658 442.579L354.721 409.642L281.693 324.561C335.089 273.391 329.212 184.876 265.616 155.364Z" fill="#FED357"/>
<path d="M320.138 470.831C320.399 462.253 353.249 443.939 370.398 438.882C383.495 444.09 387.416 470.596 389.117 479.805C381.304 489.87 358.643 506.606 345.368 507.231C328.774 508.012 319.81 481.552 320.138 470.831Z" fill="#FED357"/>
<path d="M265.616 155.364C211.155 130.091 148.799 177.84 125.881 209.479L156.635 259.785C187.43 211.358 228.389 208.05 245.614 226.013C274.025 255.642 232.932 312.054 209.957 322.37L294.658 442.579L354.721 409.642L281.693 324.561C335.089 273.391 329.212 184.876 265.616 155.364Z" stroke="#3D0F57" stroke-width="20"/>
<path d="M320.138 470.831C320.399 462.253 353.249 443.939 370.398 438.882C383.495 444.09 387.416 470.596 389.117 479.805C381.304 489.87 358.643 506.606 345.368 507.231C328.774 508.012 319.81 481.552 320.138 470.831Z" stroke="#3D0F57" stroke-width="20"/>
</svg>
