<?xml version="1.0" encoding="utf-8"?>
<!-- Generator: Adobe Adobe Illustrator 24.2.0, SVG Export Plug-In . SVG Version: 6.00 Build 0)  -->
<svg version="1.1" id="Layer_1" xmlns="http://www.w3.org/2000/svg" xmlns:xlink="http://www.w3.org/1999/xlink" x="0px" y="0px"
	 width="817.12px" height="841.66px" viewBox="0 0 817.12 841.66" style="enable-background:new 0 0 817.12 841.66;"
	 xml:space="preserve">
<style type="text/css">
	.st0{fill:#6F1E88;}
	.st1{fill:#6F1E88;}
	.st2{fill:#6F1E88;}
	.st3{fill:#6F1E88;}
	.st4{fill:#6F1E88;}
	.st5{fill:#6F1E88;}
</style>
<g>
	<path fill="#6F1E88" d="M28.98,277.06c-7.78-22.23-12.94-44.54-17.69-66.95c-6.58-31.02-8.58-62.4-7.48-94.06C4.56,94.29,8.42,73.27,16.75,53.1
		c2.6-6.3,6.43-11.99,10.43-17.25c9.59-12.65,19.37-25.41,34.76-31.9c1.73-0.73,3.32-1.83,5.07-2.51
		c10.41-4.03,17.77,0.57,18.66,11.65c0.13,1.61,0.15,3.24,0.09,4.86c-0.2,5.62,1.97,9.61,6.93,12.7c7.95,4.95,7.78,5.22,10.42,10.96
		c-1.12,4.52-5.08,8.05-5.37,12.62c-3.16,3.48-6.81,4.12-10.71,3.79c-9.38-0.79-16.93,4.75-25.17,7.64
		c-5.14,1.8-7.91,7.36-9.19,12.74c-2.87,12.07-6.53,23.92-9.15,36.07c-2.67,12.35-1.24,24.74-1.65,37.1
		c-0.49,15.13-0.33,30.32,4.89,44.8c4.74,13.14,6.79,27.08,13.31,39.78c3.22,6.29,5.21,13.47,7.81,20.24
		c3.42,8.92,9.03,16.49,13.45,24.78c10.65,19.99,22.81,39.21,38.21,55.79c10.51,11.32,21.18,22.7,33.42,32.48
		c7.29,5.83,14.06,12.36,21.56,18.03c3.76,2.84,7.85,4.73,12.14,6.3c22.33,8.13,45.49,13.31,68.48,19.06
		c9.45,2.36,19.2,3.19,28.9,3.12c19.94-0.15,39.26,3.81,58.21,9.13c8.66,2.44,16.78,7.43,24.57,12.19
		c15.4,9.42,31.45,17.54,47.7,25.31c1.21,0.58,2.33,1.35,3.44,2.12c23.26,16.12,46.16,32.67,67.9,50.86
		c6.48,5.42,12.02,11.3,17.02,17.91c1.35,1.79,3.21,2.8,5.08,3.9c14.86,8.72,29.89,17.16,45.61,24.16
		c12.29,5.47,24.51,11.11,36.46,17.22c24.45,12.52,49.02,24.76,75.05,33.58c27.96,9.48,56.77,15.14,86.42,15.21
		c8.6,0.02,17.25-0.72,25.64-3.26c3.85-1.16,7.79-2.18,11.91-2.18c3.46,0,6.27-1.38,7.74-4.53c0.42-3.06-2.91-4.84-2.13-7.79
		c0.29-0.45,0.51-1.19,0.89-1.29c4.76-1.24,14.14,3.35,16.85,8.17c2.5,4.45,1.11,9.78-3.81,14.27
		c-21.94,20.04-48.15,30.02-77.47,32.1c-15.37,1.09-30.74,0.23-46.1-1.51c-26.34-2.98-52.86-2.31-79.3-3.07
		c-12.73-0.37-25.32-1.55-37.89-3.49c-7.17-1.11-14.38-2.31-21.3-1.14c-1.82,1.47-1.96,3.06-1.68,4.71
		c2.74,16.11,1.62,32.28,0.64,48.44c-0.18,2.98-0.35,5.93,0.15,8.87c2.12,12.5,4.75,24.82,9.44,36.71
		c4.98,12.61,7.71,25.78,7.39,39.45c-0.2,8.36-2.9,12.51-11.2,12.85c-14.83,0.6-29.61-0.85-43.83-5.7c-0.43-0.15-0.69-0.78-1.4-1.62
		c2.4-4.94,6.71-8.67,10.6-12.44c4.41-4.28,5.32-8.55,2.67-13.75c-4.89-9.6-7.84-20.06-13.42-29.36
		c-3.19-5.31-4.74-11.45-6.92-17.18c-4.71-12.37-12.84-23.07-16.6-35.83c-1.98-6.69-2.61-13.75-5.98-20.09
		c-2.28-4.29-4.91-7.68-10.16-8.38c-5.94,2.23-7.68,7.9-10.34,12.79c-0.25,0.46-0.22,1.07-0.44,1.55
		c-9.03,20.11-9.88,40.46-2.93,61.46c2.44,7.36,3.15,15.33,2.82,23.22c-0.27,6.52,0.25,12.93,2.23,19.2
		c0.73,2.3,1.35,4.69,0.09,8.68c-12.37,9.28-27.24,4.37-41.23,4.87c-3.42-5.37-2.07-9.83,0.09-13.86c2.8-5.23,2.48-10.05,0.55-15.49
		c-9.13-25.76-16.45-51.92-15.65-79.65c0.04-1.34-0.1-2.7-0.32-4.02c-0.12-0.76-0.57-1.47-1.16-2.9
		c-18.91,0.25-37.69,4.9-56.77,4.26c-19.05-0.64-37.88-4.09-56.56-5.65c-0.84,1.51-1.52,2.18-1.57,2.91
		c-1.85,23.74-8.39,46.55-13.84,69.57c-2.62,11.09-4.48,22.19-3.91,33.63c0.22,4.31,0.21,8.64,0.16,12.96
		c-0.11,9.44-3.25,13.35-12.6,14.59c-13.69,1.8-27.48,1.9-41.26,1.49c-4.44-0.13-7.85-1.89-8.66-6.62c0.23-4,5.58-5.52,4.52-10.01
		c-8.92,2.93-15.46,12.04-14.76,20.7c0.41,5.05-0.97,9.56-3.1,13.77c-2.57,2.21-5.62,2.62-8.47,3.18
		c-12.72,2.51-24.98,6.77-37.57,9.77c-7.26,1.73-9.36,0.99-14.57-6c2.64-14.78,6.5-29.34,13.93-43.15
		c8.32-15.46,19.19-29.22,27.83-44.4c6.38-11.2,12.82-22.36,18.99-33.66c1.81-3.31,2.28-7.16,2.26-11.01
		c-0.09-21.6-0.18-43.2-0.14-64.8c0.01-6.21-2.05-11.2-5.79-16.3c-10.64-14.53-21.44-29.18-28.95-45.54
		c-5.45-11.87-9.83-24.44-12.39-37.46c-0.88-4.48-2.28-8.89-3.82-13.2c-4.91-13.79-7.8-27.99-9.07-42.53
		c-0.24-2.74-0.93-5.31-2.07-7.78c-7.25-15.75-16.2-30.37-27.75-43.41c-10.37-11.7-17.52-25.5-21.17-40.44
		c-2.64-10.81-7.69-20.16-13.06-29.36c-5.03-8.6-10.09-17.27-14.57-26.08c-7.29-14.33-15.13-28.53-19.77-44.1
		C33.95,286.72,31.65,282.13,28.98,277.06z"/>
</g>
</svg>
