<?xml version="1.0" encoding="utf-8"?>
<!-- Generator: Adobe Adobe Illustrator 24.2.0, SVG Export Plug-In . SVG Version: 6.00 Build 0)  -->
<svg version="1.1" id="Layer_1" xmlns="http://www.w3.org/2000/svg" xmlns:xlink="http://www.w3.org/1999/xlink" x="0px" y="0px"
	 width="1728px" height="1296px" viewBox="0 0 1728 1296" style="enable-background:new 0 0 1728 1296;" xml:space="preserve">
<style type="text/css">
	.st0{fill:#6F1E88;}
	.st1{fill:#6F1E88;}
	.st2{fill:#6F1E88;}
	.st3{fill:#6F1E88;}
	.st4{fill:#6F1E88;}
	.st5{fill:#6F1E88;}
</style>
<g>
	<path class="st5" d="M0,1071.59c32.38-4.1,64.89-7.54,97.09-11.7c22.11-2.86,43.87-6.58,65.63-10.19
		c145.8-24.19,291.52-48.53,437.34-72.68c128.03-21.2,256.82-40.92,386.64-58.6c4.05-0.55,6.93-1.54,9.29-3.45
		c6.31-5.12,13.17-10.03,19.38-15.18c4.73-3.92,11.07-6.33,19.26-7.37c3.87-0.49,7.18-1.39,10.36-2.76
		c9.49-4.08,20.72-5.97,32.48-6.8c13.21-0.93,26.53-1.32,39.58-2.95c2.56-0.32,4.71-0.57,6.52-1.72c4.23-2.69,9.01-4.97,15.18-6.38
		c2.02-0.46,3.59-1.86,4.78-3.01c9.3-8.99,18.34-18.06,27.71-27.03c4.45-4.26,9.04-8.5,16.78-11.37c1.54-0.57,2.27-1.83,3.28-2.8
		c2.61-2.52,4.98-5.12,7.83-7.55c1.46-1.24,3.51-2.36,5.68-3.25c4.17-1.71,7.42-1.72,11.15,0.24c3.4,1.78,7.57,2.73,11.76,2.78
		c10.11,0.14,19.47,1.94,28.78,3.57c20.77,3.65,41.43,7.53,61.78,11.83c8.69,1.84,16.61,4.83,24.65,7.5
		c9.96,3.31,14.93,8.4,16.06,14.67c0.09,0.5,0.13,1.01,0.25,1.51c0.09,0.37,0.25,0.73,0.48,1.36c4.13,0.43,8.39,0.82,12.62,1.31
		c12.71,1.47,24.84,3.77,35.33,8.1c2.5,1.03,4.91,1.17,7.72,0.94c25.23-2.1,50.45-4.24,75.71-6.26c18.88-1.51,37.81-2.86,56.72-4.29
		c3.17-0.24,6.33-0.52,9.56-0.78c3.66-6.31,12.13-10.94,17.94-16.46c-14.67-3.26-15.49-3.78-14.61-9.1c0.82-4.95,2.72-5.99,11.83-7
		c8.97-7.37,17.62-14.33,25.99-21.41c4.71-3.98,11.4-4.92,19.18-4.03c4.65,0.54,9.09,1.61,14.25,2.56c3.47-2.05,7.66-4.2,11.17-6.65
		c11.73-8.16,27.47-10.54,45.46-9.63c13.31,0.67,26.43,1.89,39.03,5.22c0.51,177.05,0.51,354.17,0.02,531.68
		c-2.01,2.39-3.52,4.38-5.03,6.37c-47.92,0-95.83,0-144.56-0.29c0.17-2.09,1.14-3.88,2.49-6.38c-5.25,2.5-9.64,4.59-14.03,6.68
		c-522.01,0-1044.03,0-1566.5,0C0,1244.53,0,1158.24,0,1071.59z"/>
</g>
</svg>
