<?xml version="1.0" encoding="utf-8"?>
<!-- Generator: Adobe Adobe Illustrator 24.2.0, SVG Export Plug-In . SVG Version: 6.00 Build 0)  -->
<svg version="1.1" id="Layer_1" xmlns="http://www.w3.org/2000/svg" xmlns:xlink="http://www.w3.org/1999/xlink" x="0px" y="0px"
	 width="266.88px" height="716.98px" viewBox="0 0 266.88 716.98" style="enable-background:new 0 0 266.88 716.98;"
	 xml:space="preserve">
<style type="text/css">
	.st0{fill:#A476BB;}
	.st1{fill:#A476BB;}
	.st2{fill:#A476BB;}
	.st3{fill:#A476BB;}
	.st4{fill:#A476BB;}
	.st5{fill:#A476BB;}
</style>
<path class="st2" d="M0.94,716.96c-0.32,0-0.5-0.12-0.61-0.13c-0.16-1.38-0.24-2.76-0.24-4.14C0.08,492.87,0.08,273.03,0.08,53.2
	c0-11.17,0-22.34,0-33.83c0.07-1.14,0.15-1.95,0.1-2.95C0.05,15.08,0.05,13.91,0,12.45c0.41-0.11,1.07-0.06,1.28,0.27
	c0.48,0.75,0.74,1.64,1.21,2.89c0.18,1.34-0.05,2.37,1.56,2.65c-0.46-0.9-0.93-1.8-1.39-2.7c-0.17-1.3-0.45-2.59-0.47-3.89
	c-0.01-0.61,0.46-1.24,1-1.85c1.13,2.49,2.06,4.95,2.79,7.46c0.35,1.19,0.71,2.03,2.07,2.35c5.88,1.41,11.74,2.93,17.61,4.4
	c1.41,0.35,2.78,0.91,4.28-0.03c0.48-0.3,1.46,0.22,2.32,0.39c0.87-0.81-0.94-2.74,1.57-3.13c0.92,1.64,1.37,3.13,1.9,4.91
	c1.09,0.19,2.36,0.41,4.34,0.76c-2.66-2.41-3.96-4.73-4.83-7.32c-0.09-1.38-0.19-2.75-0.28-4.62c-0.11-0.9-0.22-1.31-0.33-1.72
	c0.29-2.68,0.59-5.37,1.19-8.26c0.49-0.21,0.63-0.3,0.72-0.46c2.96,0.07,5.16,1.02,5.47,4.43c0.15,1.65,0.99,2.3,2.83,1.97
	c1.78-0.32,3.68-0.26,5.5-0.08c3.12,0.31,3.82,1.61,2.73,4.68c-0.56,1.59-1.19,3.16-1.81,4.79c2.08,0.32,3.92,0.43,5.65,0.9
	c2.6,0.7,4.62,2.11,4.71,5.18c0.01,0.23,0.09,0.45,0.14,0.68c0.98,5.29,0.83,5.49-4.33,5.99c-0.91,2.09-1.82,4.18-2.89,6.62
	c4.07,3.57,8.28,7.27,12.58,11.06c2.65-2.17,4.76-4.58,5.36-7.87c1.04-5.66,1.49-11.38,1.38-17.14c-1.64-0.64-3.18-1.09-4.56-1.83
	c-1.56-0.84-3.02-1.9-1.74-4.08c0.15-0.26,0.04-0.96-0.19-1.12c-1.65-1.18-1.28-2.83-1.09-4.41c0.41-3.43,0.9-6.84,1.32-10.27
	c0.35-2.89,2.27-4.43,5.16-3.95c0.89,0.15,1.78,0.49,2.58,0.9c1.94,0.99,3.81,2.1,5.74,3.13C82.77,5,83.68,6.3,83.76,8.23
	c0.1,2.29,0.29,4.58,0.45,7.12c0.89-0.22,1.7-0.57,2.52-0.59c2.58-0.06,5.14,0.06,6.36,2.97c0.04,0.1,0.06,0.23,0.12,0.32
	c0.92,1.19,2.87,1.98,1.81,3.99c-1.19,2.26-2.47,4.51-5.53,4.56c-0.33,0-0.65,0.15-0.94,0.22c-3.12,8.83-4.5,10.02-11.74,10.11
	c-1.13,5.21-2.27,10.45-3.5,16.15c0.58,0.52,2.44,0.96,1.63,2.84c1.56,0.63,2.49,1.54,1.33,3.51c-0.7,0-1.52,0-3.08,0
	c0.93,0.87,1.35,1.62,1.91,1.73c3.31,0.7,5.98,2.27,7.92,5.08c0.31,0.44,0.89,0.71,1.38,1.01c1.38,0.84,3.12,1.59,3.14,3.38
	c0.03,2.73-0.09,5.54-0.79,8.15c-0.28,1.04-2.27,1.61-3.71,2.54c1.4,3.61,2.87,7.42,4.52,11.67c3.17-3.05,5.17-7.15,10.73-6.84
	c-1.26-1.08-1.89-1.51-2.38-2.07c-0.36-0.4-0.7-0.95-0.76-1.46c-0.23-2.18,2.43-5.78,4.62-6.19c4.72-0.88,9.46-2.32,14.34,0.15
	c1.79-2.43,3.46-4.73,5.18-6.99c1.25-1.65,2.83-2.65,5.04-2.34c2.14,0.31,2.42,0.69,1.98,3.33c2.82,0.75,5.68,1.46,8.5,2.27
	c2.4,0.68,4.77,1.44,4.15,4.81c-0.07,0.35,0.31,0.8,0.51,1.18c0.61,1.14,1.24,2.26,1.96,3.58c1.6,0.16,3.55,0.24,5.45,0.58
	c0.98,0.18,1.97,0.69,2.79,1.28c1.22,0.86,1.22,1.86,0.06,2.84c-1.84,1.56-4.01,2.26-6.41,1.98c-1.47-0.17-2.91-0.54-4.57-0.86
	c-0.62,1.34-1.19,2.85-3,3.26c-0.58,0.14-1.13,0.78-1.52,1.32c-2.27,3.14-5.03,5.36-9.55,4.88c0.36,4.41,0.69,8.46,1,12.34
	c4.26-1.93,8.37-3.87,12.54-5.66c1.82-0.78,2.74-1.98,2.72-4.32c-1.97-1.06-4.11-2.22-6.25-3.37c3.08-4.89,5.55-5.97,10.52-4.91
	c1,0.21,2.03,0.25,3.04,0.41c1.24,0.2,2.51,0.32,3.7,0.69c1.47,0.46,2.81,1.22,2.58,3.14c-0.23,1.9-1.74,3.48-3.55,3.7
	c-2.37,0.28-4.75,0.52-7.24,0.79c-0.25,0.72-0.52,1.34-0.67,1.99c-0.56,2.44-2.02,4.24-4.33,5c-6.37,2.1-9.91,6.87-12.11,12.79
	c-0.86,2.32-1.24,4.89-1.47,7.38c-0.84,9.18-3.97,17.44-9.53,24.79c-1.39,1.84-2.58,3.83-4.09,5.56c-2.26,2.58-2.54,5.13-1.55,8.5
	c4.15,14.12,7.98,28.33,11.88,42.53c1.28,4.65,2.38,9.34,3.61,14.19c4.57,0.25,7.61,3.02,10.47,6.07c2.38,2.54,2.23,3.27-1.43,5.17
	c-2.26,0.43-4.27-0.32-6.23,1.51c2.47,0,4.39,0,6.31,0c1.8,1.14,3.74,2.11,5.35,3.47c1.96,1.66,1.95,4.24,2.34,6.59
	c0.2,1.17-0.42,2.58,1.27,3.74c0.52,0.43,0.74,0.53,0.96,0.63c0.36,0.42,0.73,0.83,1.07,1.76c0.06,1.73,0.14,2.95,0.23,4.17
	c0.06,5.87,0.13,11.73,0.19,17.6c0.03,3.57,0.04,7.14-0.09,11.17c0,0.84,0.15,1.22,0.3,1.59c0.31-0.49,0.62-0.98,0.92-1.47
	c1.24-3.11,3.55-4.72,6.89-4.78c3.25-0.06,4.64,1.1,4.77,4.51c0.14,3.9,0.32,7.87-0.24,11.71c-1.49,10.23-2.99,20.48-5.86,30.46
	c-0.32,1.12-0.08,2.51,0.23,3.69c11.63,44.98,23.26,89.96,36.31,134.56c7.88,26.93,15.21,54.02,22.8,81.03
	c0.43,1.51,0.94,3,1.42,4.5c0.24-0.02,0.49-0.04,0.73-0.05c0-2.67-0.09-5.34,0.03-8c0.13-2.88,0.84-3.54,3.43-3.68
	c2.92-0.16,4.39,0.75,4.46,3.48c0.08,3.31-0.31,6.64-0.65,9.95c-0.19,1.79-1.6,2.46-3.23,2.5c-1.09,0.03-2.2-0.21-3.76-0.38
	c1.53,5,2.98,9.74,4.44,14.49c0.17-0.02,0.34-0.04,0.51-0.07c0.33-2.19,0.67-4.38,0.98-6.58c0.36-2.52,1.85-3.76,4.3-4.23
	c4.85-0.94,8,0.45,9.39,5.17c1.51,5.16,2.79,10.48,3.38,15.81c0.86,7.76,1.41,15.61,1.35,23.41c-0.06,8.61,1.41,16.91,3.19,25.25
	c4.68,21.85,11.7,43.04,17.97,64.44c2.36,8.05,4.71,16.11,6.89,24.42c-1.67,0.2-3.16,0.11-4.65,0.11
	c-50.15-0.01-100.29-0.01-150.44-0.01c-1.49,0-2.98,0-4.49,0c-0.64-0.93-1.22-1.77-2.08-3.01c-0.23,1.12-0.38,1.9-0.61,3.02
	C70.21,716.96,35.74,716.96,0.94,716.96z M120.66,123.36c-3.6-1.12-5.77-3.55-6.67-7.2c-0.55-2.22-1.19-4.41-1.78-6.58
	c-2.77-1.39-6.56-0.48-8.51-3.96c1.44-1.55,2.81-3.03,4.64-5c-3.58-0.03-6.38,0.92-9.24,1.18c-2.86,0.27-5.78-0.15-9-0.28
	c5.4,17.36,10.8,34.74,16.48,53.01c4.08-5.35,7.69-9.93,11.11-14.65c1.27-1.75,2.36-3.72,3.08-5.75c1.26-3.57,2.45-7.28-0.35-10.79
	c-0.05-0.06,0.27-0.42,0.95-0.88c1.57,0.43,1.4-0.8,1.41-1.62c0.05-4.36,0.1-8.72,0.03-13.08c-0.05-3.18-0.27-6.35-0.41-9.34
	c-2.64,0.5-5,0.94-7.38,1.38c0.85,0.46,1.86,0.94,2.8,1.53c1.87,1.18,2.19,2.13,0.94,3.96c-1.07,1.56-2.49,2.87-4.12,4.69
	c1.08,4.27,1.49,9.4,6.33,12.43C120.97,122.45,120.89,122.64,120.66,123.36z M82.51,24.54c-0.4-0.54-1.05-1.04-1.16-1.63
	c-0.35-1.84-1.37-1.46-2.61-0.97c0.69,2.59-2.89,3.54-2.17,6.42c0.56,2.24,0.11,4.73,0.11,7.05c5.71,0.89,9.09-2.69,9.02-9.2
	C84.78,25.75,83.86,25.29,82.51,24.54z M48.63,33.69c0.82,0.76,1.63,1.51,2.72,2.53c0.84-1.63,1.51-2.91,2.46-4.74
	c-4.9-0.99-2.83-5.15-3.94-7.92c-2.01,0.1-3.91,0.2-6.29,0.33c0.18,1.58,0.34,3.02,0.57,4.98c1.29-1.64,2.33-1.99,3.35-0.97
	c1.5,1.49-0.42,2.62-0.72,3.88C47.34,32.37,47.81,32.87,48.63,33.69z M105.79,89.55c-0.79-0.17-1.57-0.35-2.36-0.52
	C104.06,90.25,104.87,90.63,105.79,89.55z"/>
</svg>
