<?xml version="1.0" encoding="utf-8"?>
<!-- Generator: Adobe Adobe Illustrator 24.2.0, SVG Export Plug-In . SVG Version: 6.00 Build 0)  -->
<svg version="1.1" id="Layer_1" xmlns="http://www.w3.org/2000/svg" xmlns:xlink="http://www.w3.org/1999/xlink" x="0px" y="0px"
	 width="751.71px" height="867.99px" viewBox="0 0 751.71 867.99" style="enable-background:new 0 0 751.71 867.99;"
	 xml:space="preserve">
<style type="text/css">
	.st0{fill:#B18BC5;}
	.st1{fill:#B18BC5;}
	.st2{fill:#B18BC5;}
	.st3{fill:#B18BC5;}
	.st4{fill:#B18BC5;}
	.st5{fill:#B18BC5;}
</style>
<g>
	<path class="st1" d="M0,750.12c1.84-0.46,1.53-2.14,1.87-3.18c3.32-10.42,6.62-20.85,9.77-31.32c11.95-39.6,26.3-78.35,40.96-117
		c6.9-18.19,14-36.29,21.93-54.08c3.08-6.91,5.21-14.26,7.68-21.44c10.77-31.28,23.2-61.87,38.05-91.44
		c8.27-16.47,17.18-32.59,27.04-48.17c0.55-0.87,1.07-1.75,1.67-2.75c-3.58-3.46-5.1-7.7-5.33-12.81c2.12-0.46,3.99-0.87,6.24-1.36
		c0.33-1.23,0.72-2.76,1.16-4.27c0.82-2.83,1.43-3.15,4.15-2.16c0.53,0.19,1.02,0.51,1.51,0.76c1.09-0.8,2.05-2,3.2-2.22
		c1.21-0.23,2.6,0.49,4.29,0.88c9.12-11.14,19.68-21.09,33.36-28.48c-4.41-0.79-8.18-1.05-10.5-5.15c1.66-0.89,3.09-1.65,4.74-2.53
		c-0.81-0.85-1.64-1.59-2.32-2.46c-1.16-1.48-0.98-2.69,0.52-3.84c0.45-0.34,0.98-0.63,1.51-0.82c4.19-1.47,8.45-2.08,12.89-1.18
		c3.16,0.65,4.95,2.63,6.05,5.47c0.57,1.46-0.29,2.24-1.48,2.6c-1.98,0.6-4,1.04-6.02,1.5c-0.98,0.22-1.99,0.34-3.23,0.55
		c0.67,1.4,1.23,2.57,1.89,3.95c16.29-6.95,33.09-7.22,50.58-3.63c-0.5-4.64-0.97-9-1.43-13.3c3.14-0.62,3.64-0.47,4.63,1.46
		c0.58,1.12,0.86,2.4,1.48,3.49c0.8,1.42,1.68,2.43,3.82,1.9c1.61-0.4,3.49,0.3,5.61,0.54c0.66-1.38,1.47-3.01,2.22-4.67
		c6.18-13.64,12.76-27.08,20.47-39.94c0.64-1.07,1.22-2.24,1.51-3.45c2.13-8.61,4.16-17.26,4.62-26.14
		c0.22-4.32,2.18-7.08,5.66-9.12c5.27-3.08,10.61-6.03,16.45-7.91c0.54-0.17,1.06-0.42,1.91-0.77c-1.69-0.79-3.16-1.36-4.5-2.15
		c-1.07-0.63-2.1-1.41-2.95-2.32c-0.86-0.93-0.61-2.04,0.51-2.59c1.01-0.49,2.18-0.9,3.27-0.9c2.98,0.02,5.96,0.24,8.94,0.45
		c0.99,0.07,2.08,0.59,2.42-1.11c-1.12-0.81-2.26-1.64-3.83-2.77c2.2-1.2,3.87-0.98,5.18,0.16c1.58,1.37,3.3,1.36,5.54,1.3
		c-0.25-1.63-0.52-3.15-0.69-4.68c-0.13-1.17-1.05-2.63,0.58-3.37c1.52-0.69,3.2-0.74,4.54,0.47c1.25,1.12,2.36,2.41,3.52,3.63
		c2.32-2.58,3.78-2.95,7.05-1.72c3.53,1.33,4.98,3.21,5.02,6.57c0.02,1.37,0,2.73,0,4.34c0.96,0.06,1.84,0.2,2.71,0.16
		c9.54-0.46,19.09-0.78,28.62-1.48c14.67-1.08,29.22-0.21,43.68,2.2c9.55,1.59,18.97,3.78,27.72,8.13c2.56,1.28,5.12,2.72,7.32,4.52
		c1.81,1.48,3.39,3.45,4.53,5.5c0.81,1.47,1.56,2.25,3.22,2.58c25.37,4.9,47.93,15.92,68.22,31.72
		c13.92,10.84,25.51,23.92,35.82,38.16c14.15,19.53,26.16,40.37,37.21,61.78c16.17,31.35,30.01,63.73,42.58,96.66
		c12.47,32.69,24.47,65.56,35.23,98.86c9.88,30.58,17.96,61.63,23.61,93.29c1.68,9.4,2.76,18.92,4.72,28.25
		c2.13,10.12,5.15,20.06,7.48,30.14c4.78,20.74,9.78,41.44,13.89,62.31c2.91,14.77,4.58,29.78,6.65,44.71
		c1.7,12.31,3.18,24.65,4.76,37.26c-250.56,0.29-501.14,0.29-751.71,0.29C0,828.75,0,789.6,0,750.12z M158.99,364.39
		c-2.08,0.44-1.18,1.96-1.34,3.09c0.22,0.09,0.44,0.18,0.67,0.27C158.66,366.73,159.02,365.71,158.99,364.39z"/>
	<path class="st1" d="M358.64,218.39c0.43-2.33,1.93-2.58,3.66-2.49c1.67,0.09,1.9,1.5,2.26,2.63c0.16,0.5-0.16,1.59-0.53,1.74
		c-1.01,0.4-2.18,0.61-3.27,0.57C359.52,220.8,358.63,220.08,358.64,218.39z"/>
	<path class="st1" d="M102.59,465.36c-0.23-1.39-0.69-2.72-1.46-3.97c-0.05-0.15-0.1-0.31-0.16-0.46c-0.48-2.1-3.21-4.79-5.17-2.72
		c-1.07,0.7-1.49,1.96-1.92,3.11c-0.7,1.76-1.21,3.59-1.78,5.4c-0.62,1.91-1.17,3.84-1.72,5.77c-0.16,0.45-0.33,0.91-0.49,1.36
		c-1.67,4.29-3.01,9.18-0.88,13.56c2.2,3.71,4.17,2.24,5.71-0.41c0.88,0.14,1.88-0.24,2.94-1.43c1.08-1.48,1.77-3.17,2.32-4.91
		c0.91-0.78,1.74-2.04,2.34-3.75C103.65,473.36,104.13,468.93,102.59,465.36z"/>
	<g>
		<path class="st1" d="M88.93,474.7c-0.14-4.82-1.47-12.07-4.37-11.56c-0.52,0.13-0.94,0.41-1.28,0.79
			c-1.29,0.33-2.41,2.07-2.77,4.68c-0.34,4.6,0.3,9.84,3.18,13.58c1.35,1.21,1.53,0.67,2.03,0.96c2.03-0.28,2.48-3.1,2.95-4.75
			c0.05-0.14,0.09-0.32,0.12-0.52C89.01,476.87,89.03,475.8,88.93,474.7z"/>
		<path class="st1" d="M94.93,483.53c-1.12-3.08-2.53-1.77-3.54,0.16c-0.64,0.11-1.34,0.52-1.98,1.12
			c-1.27,0.02-2.06,1.23-2.47,2.77c-0.82-0.8-1.69-1.5-2.72-1.9c-3.06,0.62-2.97,6.55-1.82,8.77c0.97,2.16,2.85,3.72,4.42,5.43
			c1.21,1.08,2.27,2.74,3.99,2.91c1.73-0.18,2.61-1.86,3.09-3.35c0.06-0.23,0.11-0.46,0.16-0.68c0.56-0.92,0.8-2.17,0.97-3.14
			c0.25-1.78,0.01-3.53-0.46-5.23C95.18,488.16,95.73,485.77,94.93,483.53z"/>
		<path class="st1" d="M239.5,560.12c2.9-6.28,4.77-12.97,6.01-19.77C242.61,546.63,240.73,553.32,239.5,560.12z"/>
		<path class="st1" d="M509.3,254.21c-0.05-0.14-0.11-0.28-0.17-0.43c-0.08-0.32-0.18-0.64-0.29-0.96c0,0,0-0.01,0.01-0.01
			c-0.01-0.02-0.02-0.03-0.02-0.05c-0.49-1.4-1.16-2.74-1.63-4.15c0.07,0.19,0.15,0.38,0.22,0.57c-0.73-1.74-1.21-3.61-2.02-5.3
			c-0.18-0.35-0.62-0.74-1.03-0.55c-0.73,0.34-1.06,1.1-1.16,1.93c-0.12,0.32-0.2,0.66-0.23,0.92c-0.3,1.66,0.41,3.19,1.15,4.63
			c0.53,1.15,1.06,2.3,1.59,3.45c0.49,1.38,1,2.77,1.85,3.91C509.36,259.35,509.77,255.29,509.3,254.21z"/>
		<path class="st1" d="M506.97,252.84c-0.12-0.37-0.34-0.67-0.59-0.95c-0.06-0.14-0.13-0.27-0.21-0.37
			c-0.26-0.2-0.49-0.43-0.73-0.66c-0.12-0.2-0.24-0.4-0.36-0.6c-0.32-0.5-0.59-1.05-1.08-1.39c-0.42-0.19-0.77-0.13-1.05,0.09
			c-0.19-0.01-0.38,0.05-0.56,0.2c-1.24,1.35-1.15,3.75-0.21,5.26c0.74,0.89,3.03,5,4.17,2.96c0.08-0.11,0.18-0.28,0.27-0.51
			C507.47,255.79,507.4,254.09,506.97,252.84z"/>
		<path class="st1" d="M514.66,250.32c-0.31-1.21-0.84-2.23-1.7-2.55c-0.34-0.54-0.69-0.84-1.03-0.94
			c-0.59-0.39-1.27-0.51-1.97,0.06c-1.07,0.75-1.52,2.05-1.85,3.26c-0.45,1.81-0.64,3.7-0.49,5.56c0.05,1.67,1.23,3.98,2.85,3.47
			c0.29,0.3,0.62,0.52,0.98,0.63c0.62,1.34,1.71,2.36,3.03,0.85c0.93-1.28,1.13-2.94,1.22-4.48
			C515.69,254.27,515.71,252,514.66,250.32z"/>
		<path class="st1" d="M517.39,252.73c0,0,0,0.01-0.01,0.01c-0.26,0.09-0.52,0.31-0.72,0.75c-0.28,0.35-0.6,1.92-0.68,2.39
			c-0.26,1.21-0.27,2.5,0.23,3.64c0.45,0.8,0.89,0.94,1.28,0.74c0.39,0.11,0.82-0.07,1.16-0.77c0.25-0.68,0.39-1.41,0.45-2.16
			c0.37-0.84,0.69-1.7,0.67-2.63C519.93,253.32,518.63,250.52,517.39,252.73z"/>
		<path class="st1" d="M82.71,498.48c-0.35-1.08-0.29-2.5-1.3-3.21c-1.56-0.47-1.89,2.05-1.71,3.49c-0.36,0.44-0.53,1.18-0.61,1.65
			c-0.2,1.41,0.13,2.96,1.33,3.84c0.92,0.94,1.84,1.28,2.51-0.12C83.89,502.35,83.16,500.31,82.71,498.48z"/>
		<path class="st1" d="M224.42,323.52c-8.8-0.32-17.32,2.16-25.75,4.38c-3.07,0.81-6.17,1.47-9.22,2.37
			c-1.3,0.34-2.64,0.75-3.43,1.92c-3.23,4.51-5.2,9.79-7.07,14.97c-0.67,2.02-1.77,4.72-0.12,6.52c0.16,0.2,0.49,0.3,0.72,0.19
			c0.32-0.03,0.51-0.3,0.68-0.55c0.99-1.53,1.94-3.08,2.93-4.6c2.52-4.08,5.35-8.08,6.91-11.12c0.15-0.51,0.23-1.24,0.19-1.96
			c0.14-0.04,0.28-0.08,0.43-0.13c3.08-0.82,9.05-2.26,13.38-3.43c5.71-1.5,11.51-2.82,17.44-2.97c1.24-0.19,3.31,0.59,3.9-0.82
			C226.05,326.95,226.13,323.99,224.42,323.52z"/>
		<path class="st1" d="M45.59,602.87c0-0.01-0.01-0.02-0.01-0.03c0-0.01-0.01-0.01-0.01-0.02c-0.23-0.49-0.51-0.9-0.82-1.19
			c-0.14-0.25-0.28-0.49-0.44-0.73c-1.93-2.01-3.14,1.1-3.24,2.77c-0.1,1.99-0.06,4.13,0.48,6.09c0.03,0.13,0.07,0.26,0.11,0.39
			c0.27,0.85,0.62,1.67,1.12,2.41c1.47,1.67,3.04,0.18,3.39-1.53c0.23-0.85,0.29-1.71,0.27-2.58
			C46.6,606.55,46.29,604.35,45.59,602.87z"/>
		<path class="st1" d="M43.71,614.84c0.01-1.27-1.15-7.18-3.02-5.7c-0.21-0.27-0.44-0.53-0.71-0.76c-0.25-0.22-0.55-0.51-0.89-0.33
			c-1.49,0.49-1.83,3.92-0.48,6.23c0.83,1.36,2.64,5.66,4.06,4.06c0.07-0.1,0.12-0.21,0.18-0.32
			C43.39,617.49,43.71,616.32,43.71,614.84z"/>
		<path class="st1" d="M472.55,247.2c-2.31-3.97-4.98-7.69-7.76-11.34c-1.2-1.43-2.04-3.27-3.5-4.43
			c-7.28-2.8-14.97-4.02-22.72-4.51c-2.3-0.14-4.61-0.19-6.91-0.21c-0.22,0-0.4,0.08-0.54,0.24c-1.12,1.12-1.03,3.15-0.45,4.53
			c0.37,0.87,1.09,0.86,1.91,0.82c1.71,0.03,3.42,0.08,5.13,0.15c5.51,0.41,11.94,1.01,16.14,2.24c2.25,0.63,4.48,1.34,6.69,2.13
			c0.09,0.11,0.18,0.23,0.26,0.34c3.78,5.22,7.08,9.31,9.77,13.99c0.22,0.58,1.01,1.15,1.53,0.58
			C473.21,250.6,473.14,248.58,472.55,247.2z"/>
	</g>
</g>
</svg>
