<?xml version="1.0" encoding="utf-8"?>
<!-- Generator: Adobe Adobe Illustrator 24.2.0, SVG Export Plug-In . SVG Version: 6.00 Build 0)  -->
<svg version="1.1" id="Layer_1" xmlns="http://www.w3.org/2000/svg" xmlns:xlink="http://www.w3.org/1999/xlink" x="0px" y="0px"
	 width="830px" height="1020.94px" viewBox="0 0 830 1020.94" style="enable-background:new 0 0 830 1020.94;" xml:space="preserve"
	>
<style type="text/css">
	.st0{fill:#C9B1D7;}
	.st1{fill:#C9B1D7;}
	.st2{fill:#C9B1D7;}
	.st3{fill:#C9B1D7;}
	.st4{fill:#C9B1D7;}
	.st5{fill:#C9B1D7;}
</style>
<g>
	<path class="st0" d="M368.5,113.48c6.8-3.26,12.93-2.14,18.61,2.9c0.59-1.26,1.16-2.48,1.86-3.97c-0.99-0.29-1.71-0.49-2.43-0.71
		c-1.2-0.39-2.44-0.71-3.59-1.21c-4.95-2.14-5.59-3.88-3.32-8.8c0.34-0.73,0.78-1.41,1.1-2.15c1.26-2.84,3.61-3.95,6.46-3.48
		c3.14,0.52,6.19,1.53,9.74,2.44c0.04-0.04,0.61-0.42,1.03-0.94c3.09-3.82,7.26-4.16,11.51-1.77c2.89,1.63,6.46,2.74,7.85,6.38
		c0.13,0.34,0.65,0.61,1.05,0.76c3.01,1.1,6.04,2.17,9.41,3.36c1-4.45,1.91-8.79,2.95-13.11c1.05-4.36,2.34-8.67,3.31-13.05
		c0.95-4.29,3.31-8.3,2.97-12.83c-4.3-0.96-4.3-0.96-5.01-5.16c-0.27-1.59-0.6-3.17-0.69-4.77c-0.14-2.39,0.47-3.08,2.83-3.46
		c1-0.16,2.04-0.14,3.05-0.19c-0.08-5.29,0.19-8.02,7.8-5.33c1.46-3.19,2.91-6.43,4.42-9.63c2.41-5.09,4.68-10.26,7.37-15.21
		c1.69-3.11,3.99-5.9,6.07-8.79c1.21-1.68,2.86-2.39,4.81-1.41c2.74,1.37,4.89,0.39,7.32-1.06c14.48-8.7,30.3-12.6,47.12-12.28
		c7.7,0.15,15.39,0.77,23.09,1.21c1.03,0.06,2.04,0.36,3.07,0.46c1.5,0.15,2.11,1.11,2.55,2.42c6.5,19.5,9.48,39.56,9.71,60.07
		c0.06,5.07,0.01,10.13,0.02,15.2c0,1.13,0,2.27,0,3c0.35,0.49,0.4,0.63,0.49,0.67c10.53,4.67,19.55,11.62,28.49,18.71
		c4.19,3.33,8.71,6.02,14.1,6.92c0.43,0.07,0.87,0.08,1.7,0.16c-0.79-3.85-1.94-7.26-3.91-10.38c-2.42-3.83-5.25-7.36-9.01-9.9
		c-4.58-3.09-7.92-6.72-7.09-12.75c-1.12-0.56-2.04-0.99-2.94-1.47c-4.37-2.32-7.96-5.47-10.38-9.83c-1.34-2.41-1.47-4.68,0.44-7.02
		c1.89-2.31,3.45-4.88,5.16-7.34c1.64-2.38,2.76-3.01,5.53-2.11c2.48,0.81,4.81,2.1,7.14,3.32c1.11,0.58,2.05,1.46,3.38,2.44
		c2.41-3.14,4.79-6.22,7.14-9.32c0.63-0.82,1.16-1.72,1.77-2.56c2.21-3.03,3.56-3.48,7.06-2.23c1.29,0.46,2.53,1.09,3.8,1.65
		c4.21-2.17,8.65-3.57,13.4-4.11c1.8-0.2,2.84,0.41,3.7,1.81c1.92,3.1,1.78,8.99-0.52,11.81c-0.78,0.95-2.12,1.44-3.38,2.26
		c0.72,1,1.5,2.11,2.35,3.3c1.09,0,2.23-0.28,3.12,0.06c1.55,0.6,3.24,1.31,4.35,2.47c1.53,1.6,0.76,3.26-1.47,3.73
		c-0.78,0.16-1.6,0.11-2.41,0.14c-0.66,0.02-1.33,0-2.53,0c0.56,0.88,0.83,1.72,1.16,1.74c5.01,0.35,8.19,3.27,10.61,7.32
		c0.3,0.49,0.63,0.97,0.94,1.43c3.84-2.35,7.5-1.24,11.05-0.66c1.12,0.18,2.31,1.5,2.98,2.59c0.87,1.42,1.26,3.13,1.81,4.57
		c-3.01,3.63-6.52,4.24-10.7,3.01c-0.31,0.42-0.63,0.85-0.96,1.28c-2.53,3.33-5.51,4.45-9.4,2.81c-2.79-1.18-5.31-0.97-8.21,0.01
		c-0.17,3.48-2.81,4.8-5.72,5.84c-3.66,1.31-7.45,1.32-11.26,1.15c-1.25-0.05-2.5-0.15-3.72-0.23c-1.69,3.15-2.04,5.96,0.19,9.03
		c1.59,2.2,2.49,4.89,3.72,7.4c8.55,1.06,17.07,2.12,25.7,3.19c-0.8-1.04-1.64-2.11-2.45-3.19c-0.55-0.74-1.25-1.43-1.55-2.27
		c-0.32-0.89-0.69-2.37-0.26-2.78c0.69-0.67,2.18-1.16,3.06-0.88c2.12,0.67,4.1,1.81,6.12,2.8c0.39,0.19,0.68,0.59,0.87,0.75
		c2.04-0.1,3.86-0.31,5.68-0.24c0.99,0.04,2.23,0.28,2.87,0.92c0.82,0.81,1.6,2.14,1.53,3.19c-0.05,0.74-1.44,1.58-2.4,2.02
		c-0.78,0.36-1.82,0.13-2.72,0.3c-1.06,0.2-2.08,0.55-3.11,1.49c0.68,0.18,1.36,0.44,2.05,0.54c2.85,0.39,5.7,0.83,8.56,1.05
		c3.29,0.25,5.17,2.2,6.54,4.92c2.96,5.89,5.25,12.04,6.74,18.44c2.87,12.32,5.55,24.69,8.31,37.04c0.12,0.55,0.26,1.11,0.41,1.75
		c1.45,0.47,2.86,0.89,4.25,1.39c4.02,1.44,6.52,4.13,7.1,8.49c0.87,6.5,1.83,12.99,2.74,19.48c0.26,1.82,0.5,3.63,0.72,5.21
		c1.68,0.56,3.45,0.69,4.49,1.62c0.87,0.78,1.12,2.48,1.24,3.81c0.19,2.24-0.51,2.66-4.84,3.34c0.2,2.4,0.4,4.83,0.62,7.48
		c2.98-3.76,4.16-4.11,7.96-2.51c0,3.29,0.12,6.6-0.1,9.89c-0.05,0.66-1.35,1.53-2.22,1.76c-1.51,0.41-3.13,0.41-5.17,0.62
		c0.22,1.57,0.28,3.15,0.66,4.65c9.52,38.17,19.11,76.32,28.59,114.5c5.38,21.66,10.33,43.42,15.92,65.03
		c5.27,20.38,11.14,40.6,16.69,60.9c6.33,23.13,10.67,46.63,13.62,70.42c2.08,16.79,4.49,33.53,6.52,50.33
		c1.46,12.11,2.6,24.26,3.73,36.41c1.14,12.26,2.21,24.53,3.12,36.82c0.65,8.84,0.75,17.72,1.53,26.55
		c0.8,9.05,2.05,18.06,3.23,27.07c1.91,14.49,3.89,28.96,5.93,43.43c2.15,15.27,4.45,30.51,6.57,45.78
		c1.82,13.11,3.55,26.23,5.19,39.35c2.06,16.44,3.97,32.9,5.98,49.35c1.66,13.59,3.4,27.17,5.06,40.77
		c1.79,14.73,3.62,29.47,5.25,44.22c1.35,12.24,2.64,24.49,3.58,36.77c1.36,17.79,2.39,35.6,3.59,53.71
		c-153.77,0.3-307.58,0.3-461.5,0.3c-2.03-14.05-356.65,161.75-379.98,0c-3.35-23.24,97.34-358.47,172.67-563.12
		c3.88-10.55,46.35-55.9,49.87-65.5c3.15-8.61-1.84-25.91,1-33.6c4.32-11.7,70.9,5.86,70.53,0c-0.91-14.47,41.25-90.49,38.91-94.34
		c-2.71-4.43,27.31-46.05,26-47.2c-6.76-5.88,21.2-51.68,21.22-80.53c2.69-2.16,5.26-3.75,8.45-3.12c1.75,0.34,3.44,1.01,5.11,1.51
		c10.76-13.45,21.57-26.96,32.48-40.61c-1.8-4.08-4.45-7.59-8.46-9.93c-4.78-2.79-9.81-4.98-15.3-6.01
		c-1.79-0.34-3.65-0.75-5.25-1.58c-1.34-0.7-2.77-1.86-3.4-3.17c-0.89-1.88-2.05-3.09-3.87-4.05c-1.98-1.04-2.08-1.91-1.18-3.97
		c0.39-0.9,0.81-1.78,1.06-2.32c-3.46-1.29-6.66-2.48-9.86-3.67C368.5,121.21,368.5,117.51,368.5,113.48z M320.01,322.91
		c0.07-0.29,0.04-0.66-0.02-0.86c-0.01-0.04-0.04-0.11-0.07-0.2c0-0.02,0-0.02-0.01-0.04c-0.21-1.25-0.49-2.77-1.08-4
		c-0.12-0.25-0.4-0.59-0.7-0.46c-0.05,0.02-0.08,0.05-0.13,0.08c-0.24-0.36-0.53-0.68-0.89-0.95c-0.41-0.24-0.88,0.06-1.07,0.44
		c-0.85,1.42-0.45,3.26,0.06,4.74c0.33,0.77,1.12,3.91,2.02,4.08c0.15,0.28,0.33,0.55,0.64,0.6c0.26,0.11,0.59-0.05,0.75-0.28
		C320.13,325.07,320.18,324,320.01,322.91z M415.54,151.47c0.97,1.27,1.94,2.53,2.96,3.85c2.15-1.42,2.96-3.3,3.24-5.76
		c1.15-9.92,2.52-19.82,3.78-29.73c0.09-0.73,0.01-1.48,0.01-2.17c-2.24,0.4-4.25,0.76-6.33,1.13c-0.06,0.5-0.18,0.94-0.17,1.38
		c0.23,6.44-1.18,12.51-3.82,18.38c-1.39,3.1-2.32,6.41-3.4,9.46C413.17,149.24,414.19,150.17,415.54,151.47z M405.84,145.03
		c0.81,0.35,1.62,0.7,2.3,0.99c3.65-5.56,0.22-10.13-1.34-14.74c-2.31,0.39-4.4,1.05-6.46,1c-2.09-0.05-4.15-0.81-6.13-1.24
		c-1.81,3.84-1.88,3.92-3.54,4.3c-2.29,0.53-4.57,1.05-6.88,1.57c1.24,3.42,2.27,4.15,6.17,4.64
		C395.18,142.2,400.47,142.55,405.84,145.03z M594.69,83.46c-0.3-0.34-0.63-0.67-0.91-1.03c-2.43-3.21-2.19-4.94,1.19-7
		c1.74-1.07,3.67-1.84,5.5-2.76c0.17-0.09,0.26-0.33,0.52-0.66c-0.78-0.42-1.54-0.83-2.3-1.24c-3.18,3.02-6.48,5.36-10.89,5.35
		c-0.18,4.39,1.21,7.66,4.59,10.1c4.07,2.94,8.05,6,12.19,9.1c0.13-0.87,0.27-1.83,0.38-2.57c-1.67-1.32-3.17-2.38-4.51-3.6
		C598.58,87.44,596.84,85.6,594.69,83.46z M417.24,120.74c0-0.78,0-1.56,0-2.45c-1.89-0.65-3.7-1.27-4.65-1.6
		c-2.86,0.96-4.92,1.66-6.33,2.13c3.16,1.08,6.83,2.34,10.64,3.64C416.93,122.3,417.04,121.76,417.24,120.74z M414.77,130.4
		c0.28-0.67,0.57-1.35,1.04-2.47c-2.52,1.25-4.53,2.24-6.94,3.43c0.65,1.69,1.3,3.38,2.18,5.68
		C412.46,134.54,413.51,132.68,414.77,130.4z M387.77,122.11c0.25-0.98,1.49-1.83,0.38-3.25c-1.32,2.72-2.54,5.23-3.82,7.86
		c0.54,0.25,0.93,0.43,1.27,0.59C386.29,125.64,386.92,124.09,387.77,122.11z"/>
	<g>
		<path class="st0" d="M316.86,327.45c-0.57-0.81-0.97-1.91-1.83-2.43c-1.65-0.48-1.91,2.01-1.76,3.15
			c0.21,1.63,1.35,2.91,2.44,4.06c0.08,0.07,0.16,0.17,0.25,0.25c0.23,0.39,0.46,0.78,0.7,1.17c0.15,0.22,0.27,0.53,0.55,0.59
			c0.34,0.11,0.64-0.33,0.83-0.56C319.11,331.65,317.88,329.26,316.86,327.45z"/>
		<path class="st0" d="M354.34,262.2c-0.14-0.02-0.28,0.02-0.43,0.1c-0.02-0.14-1.74,0.33-3.18,0.85c-0.59-0.55-1.36-0.82-2.17-0.42
			c-0.53,0.32-0.9,0.78-1.19,1.29c-0.08,0.11-0.17,0.23-0.27,0.39c-5.71,6.78-6.07,18.81,1.22,24.56c1.36,0.78,2.71-0.51,3.24-1.71
			c0.66-1.45,0.98-3.07,0.99-4.69c0.11-1.05,0.03-2.15-0.23-2.93c-0.17-0.51-0.32-0.86-0.46-1.12c-0.11-0.31-0.23-0.63-0.37-0.93
			c-0.29-0.48-0.6-0.93-0.91-1.39c0.1-0.2,0.21-0.43,0.35-0.73c0.03-0.03,0.06-0.05,0.08-0.08c1.12-1.54,1.5-3.53,1.36-5.46
			c0.12-0.96,0.09-1.93-0.05-2.88c0.84-0.69,1.81-1.26,2.5-2.06C355.16,264.14,355.26,262.68,354.34,262.2z"/>
		<path class="st0" d="M358.64,257.14c-0.45-0.07-0.91-0.14-1.38-0.2c0.1-2.2-0.53-5.15-2.71-4.47c-0.31,0.21-0.61,0.44-0.91,0.68
			c-2.46,1.73-4.68,4-5.08,7.1c-0.07,0.66-0.11,1.34-0.12,2.03c-0.03,0.59-0.01,1.19,0.06,1.79c0.14,1.61,0.54,3.18,1.42,4.48
			c0.88,1.04,1.8,0.26,2.26-0.71c0.68-0.56,1.04-2,0.99-2.91c-0.1-1.38-0.2-1.62-0.37-2.05c0.74-0.77,1.03-0.95,2.27-1.85
			c0.88-0.61,1.68-1.36,1.91-2.45c0.08-0.24,0.14-0.54,0.19-0.88C357.7,257.49,358.19,257.3,358.64,257.14z"/>
		<path class="st0" d="M343.38,278.2c-0.02-0.06-0.03-0.11-0.05-0.17c-0.03-0.41-0.07-0.82-0.09-1.22
			c-0.32-2.57-0.89-5.56-2.93-7.33c-0.3-0.51-0.7-0.8-1.28-0.41c-0.16,0.15-0.28,0.35-0.39,0.56c-0.22,0.22-0.41,0.52-0.52,0.9
			c-0.58,1.4-0.38,2.81,0.07,4.19c-0.07-0.18-0.15-0.39-0.07-0.13c0.88,2.94,1.43,6.08,2.92,8.78c0.41,0.61,1.36,0.61,1.77,0
			C343.88,281.88,343.81,279.9,343.38,278.2z"/>
		<path class="st0" d="M346.52,285.61c-0.02-0.9-0.32-1.91-1.06-2.4c0-0.01,0-0.03,0.01-0.04c-0.04-0.03-0.09-0.06-0.13-0.08
			c-0.11-0.22-0.23-0.42-0.36-0.58c-0.15-0.13-0.31-0.26-0.48-0.38c0-0.01,0-0.01,0-0.02c-0.07-0.04-0.13-0.08-0.2-0.12
			c-0.7-0.49-1.5-0.93-2.29-1.36c-0.35-0.2-0.7-0.4-1.06-0.6c-0.16-0.1-0.33-0.19-0.48-0.29c-0.62-0.37-1.25-0.72-1.86-1.12
			c-0.34-0.23-0.68-0.18-0.99,0.02c-1,0.23-1.49,1.85-1.6,2.79c-0.14,1.62-0.08,3.7,1.35,4.75c1.5,0.99,3.04,1.93,4.62,2.78
			c0.71,0.27,1.47,1.05,2.26,0.81c0.44-0.18,0.78-0.51,1.05-0.93C346.43,288.41,346.57,286.68,346.52,285.61z"/>
		<path class="st0" d="M287.16,423.17c0.04-1.47-0.32-2.85-0.87-4.17c0,0,0-0.01,0.01-0.01c-1.85-4.23-0.95-2.26-2.61-6.44
			c-0.05-0.13-0.01-0.03,0.06,0.16c-0.48-1.24-0.97-2.48-1.46-3.72c-0.5-1.47-0.22-1.06-1.4-2.98c-3.31-3.08-4.97,3.59-4.52,6.02
			c0.07,2.32,1.17,4.46,1.89,6.63c1.13,2.96,2.28,5.94,3.87,8.69C284.81,432.06,287.44,426.13,287.16,423.17z"/>
		<path class="st0" d="M284.53,423.17c-0.19-0.4-0.53-0.68-0.91-0.89c-1.45-1-1.55-1.07-2.41-1.88c-2.17-2.22-4.52-4.74-7.45-5.84
			c-0.65,0.06-0.97,0.77-1.15,1.32c-0.49,1.6-0.12,3.4,0.92,4.7c0.96,1.41,2.38,2.32,3.94,2.94c0.93,0.96,1.87,1.9,2.89,2.76
			c0.96,0.68,2.04,1.35,3.19,1.62C285.25,427.48,285.13,424.46,284.53,423.17z"/>
		<path class="st0" d="M274.05,402.34c-2.38,0.58-2.52,4.38-2.17,6.37c0.27,1.12,0.48,2.47,1.42,3.23c0.37,0.16,0.68,0.09,0.94-0.09
			c0.02,0.02,0.03,0.04,0.05,0.05c0.06-0.01,0.06-0.08,0.07-0.13c-0.02,0.04-0.04,0.04-0.07,0.03c0.38-0.31,0.63-0.87,0.73-1.34
			c0.05-0.2,0.09-0.4,0.12-0.61C276.46,408.08,276.6,402.91,274.05,402.34z"/>
		<path class="st0" d="M739.33,404.59c-0.37-2.38-0.69-4.04-1.4-9.44c-0.23-2.65-0.42-5.3-0.7-7.94c-0.21-2.07-0.53-4.13-0.88-6.19
			c-0.04-0.37-0.08-0.74-0.12-1.11c-0.03-2.04-0.15-4.08-0.39-6.12c-0.35-3.42-1.3-6.73-2.65-9.87c-0.1-2.19-0.44-4.35-1.38-6.36
			c-2.18-3.46-5.69-5.88-8.65-8.66c-1.51-1.3-3.09-2.52-4.72-3.66c-0.15-0.1-0.32-0.21-0.48-0.32c-0.2-0.15-0.4-0.3-0.61-0.44
			c-2.5-1.44-5,0.93-5.97,3.16c-2.13,4.7-2.33,9.95-0.95,14.96c1.49,5.05,6.13,8.17,8.95,12.45c0.21,0.3,0.42,0.61,0.63,0.91
			c0.99,1.56,1.99,3.12,3,4.67c0.41,2.11,0.8,4.23,1.15,6.36c0.51,4.52,0.92,9.05,1.47,13.56c0.43,4.81,1.05,9.61,1.47,14.42
			c0.06,1.92,0.36,3.81,1.24,5.57c0.65,0.96,1.22,2.28,2.49,2.41c0.5,3.59,1.05,7.16,1.87,10.69c0.24,0.98,0.88,4.03,0.64,1.93
			c-0.31-4.29-0.32-8.71-0.23-13.09c0.2-0.16,0.38-0.34,0.54-0.57c0.3-0.39,0.55-0.8,0.78-1.22c0.72-0.23,1.38-0.7,1.89-1.44
			C739.48,415.2,739.89,409.53,739.33,404.59z"/>
		<path class="st0" d="M722.72,337.5c-0.48,1.64-0.63,3.36-0.71,5.06c-0.01,0.57,0.01,1.16,0.13,1.73c0.04,0.35,0.13,0.69,0.32,1.01
			c0.15,0.32,0.36,0.43,0.58,0.43c0.58,0.16,1.19-0.59,1.38-1.15c0.06-0.14,0.12-0.28,0.18-0.43c1.06-1.82,1.48-3.98,1.76-6.05
			C726.71,333.69,723.95,333.34,722.72,337.5z"/>
		<path class="st0" d="M727.49,343.02c-0.72,0.27-1.28,0.82-1.81,1.38c-0.32,0.15-0.64,0.34-0.79,0.66
			c-0.07,0.12-0.11,0.27-0.14,0.43c-0.27,0.43-0.43,0.91-0.33,1.45c0.06,0.38,0.26,1.14,0.78,0.93c0.77-0.38,1.39-1.01,1.96-1.68
			c0.47-0.24,0.91-0.54,1.16-0.96C728.65,344.57,728.63,342.66,727.49,343.02z"/>
	</g>
</g>
</svg>
