<?xml version="1.0" encoding="utf-8"?>
<!-- Generator: Adobe Adobe Illustrator 24.2.0, SVG Export Plug-In . SVG Version: 6.00 Build 0)  -->
<svg version="1.1" id="Layer_1" xmlns="http://www.w3.org/2000/svg" xmlns:xlink="http://www.w3.org/1999/xlink" x="0px" y="0px"
	 width="1000px" height="1000px" viewBox="0 0 1000 1000" style="enable-background:new 0 0 1000 1000;" xml:space="preserve">
<style type="text/css">
	.st0{fill:#EBEBEB;}
	.st1{clip-path:url(#SVGID_2_);}
	.st2{fill:#FFFFFF;}
	.st3{fill:#702B89;}
	.st4{fill:#FFC600;}
</style>
<circle class="st0" cx="500" cy="500" r="500"/>
<g>
	<g>
		<defs>
			<rect id="SVGID_1_" width="1000" height="1000"/>
		</defs>
		<clipPath id="SVGID_2_">
			<use xlink:href="#SVGID_1_"  style="overflow:visible;"/>
		</clipPath>
		<g class="st1">
			<g>
				<path class="st2" d="M802.83,763.62c-1.59-0.8-3.54-0.1-4.29,1.52c-1.11,2.33-3.13,4.75-5.97,7.17
					c-1.08,0.92-2.74,0.19-2.84-1.24c-2.43-31.98-6.39-63.95-13.57-95.22c-7.11-30.99-17.66-61.22-32.97-89.08
					c-4.15-7.57-8.65-14.93-13.64-21.98c-4.94-7.02-10.14-14.28-16.27-20.31c-1.25-1.23-3.52,0.38-2.5,1.94
					c4.27,6.36,9.04,12.38,13.25,18.8c4.07,6.22,7.95,12.62,11.61,19.12c7.54,13.33,13.93,27.26,19.45,41.57
					c11.74,30.49,18.97,62.57,23.42,94.91c1.76,12.84,2.99,25.75,3.93,38.7c0.12,1.66-1.88,2.52-3.04,1.33
					c-2.17-2.25-4.92-4.06-7.33-5.72c-0.43-0.29-2.63-1.38-2.65-1.99c-0.14-25.98-2.63-52.08-8.02-77.47
					c-6.02-28.38-15.66-55.64-28.56-81.56c-7.23-14.5-14.96-29.12-24.39-42.29c-1.68-2.3-5.4-0.26-3.88,2.3
					c7.23,12.32,14.65,24.51,20.73,37.47c6.03,12.81,11.18,25.96,15.79,39.34c9.23,26.84,16.24,54.56,19.66,82.81
					c1.52,12.7,2.36,25.41,2.48,38.16c0.02,0.67-0.36,1.31-0.94,1.62c-15.42,8.11-33.56,11.61-50.29,15.85
					c-2.34,0.6-4.77,1.24-6.58,2.83c-4.58,3.98-2.85,11.84-2.77,17.23c0.02,1.11,0.75,13.36-0.39,13.59
					c-27.88,5.12-59.61,9.04-94.39,11.7c-1.01,0.09-1.88-0.73-1.9-1.76c-0.02-6.41-3.01-26.72-3.66-28.88
					c-2.03-6.67-7.54-6.14-13.37-6.48c-5.16-0.29-12.56-1.05-16.73,2.82c-1.13,1.07-4.79,11.17-5.15,11.17
					c-11.76-0.54-23.93,1.02-35.68,1.64c-3.56,0.19-13.18,2.75-15.5-0.55c-2.53-3.61-3.28-7.48-7.2-10.18
					c-3.5-2.44-9.59-1.31-13.78-1.33c-3.97-0.02-9.49-0.95-12.96,1.61c-5.57,4.15-5.59,14.73-5.93,21
					c-0.05,0.86,0.03,9.21-0.03,12.93c-0.02,0.99-0.82,1.76-1.79,1.75c-27.25-0.48-53.79-1.71-79.04-3.65
					c-0.87-0.07-1.54-0.78-1.61-1.68c-0.43-7-1.74-14.07-1.74-21.07c0-4.8,0.38-9.73-4.99-10.77c-6.79-1.3-13.68-2.16-20.5-3.21
					c-16.8-2.64-33.64-4.29-50.55-6c-3.23-0.29-11.74-2.59-14.5,0c-3.42,3.27-7.86,5.98-10.29,10.16
					c-0.84,1.45-2.24,11.75-2.02,16.49c0.03,1.16-0.99,2.04-2.12,1.81c-12.41-2.56-24.75-5.53-36.87-9.26
					c-9.76-3.01-19.49-6.46-28.58-11.15c-2.2-1.16-4.38-2.37-6.48-3.72c-4.53-2.9-8.43-6.93-12.26-10.77
					c-0.8-0.81-0.63-2.14,0.32-2.77c6.63-4.36,12.31-10.04,16.99-16.49c2.31-3.16,4.38-6.52,6.24-9.96c0.13-0.24,0.32-0.55,0.53-0.9
					c5.59-7.34,6.05-16.82,6.05-16.82l-6.99,3.15l-4.35,8.55c-0.18,0.33-0.35,0.66-0.5,0.98c-3.64,7.74-10.34,14.73-16.58,20.48
					c-1.47,1.33-3.01,2.59-4.6,3.79c-1.56,1.18-3.4,1.99-4.82,3.37c-2.72,2.64-2.14,6.19-0.39,9.26c1.4,2.47,4.26,4.37,6.44,6.14
					c9.08,7.28,19.13,12.79,29.88,17.08c11.69,4.65,23.81,8.16,36,11.17c3.88,0.97,7.76,1.87,11.66,2.73
					c0.96,0.21,11.09,2,11.09,2.32c0.1,5.03,2.31,6.83,6.85,9.06c3.74,1.81,7.86,2.66,11.91,3.46c14.1,2.75,28.12,5.22,42.38,7.41
					c8.84,1.35,19.49,4.22,28.36,1.94c4.75-1.23,7.83-4.63,11.09-8.02c0.38-0.36,0.87-0.57,1.4-0.52
					c26.12,2.07,53.66,3.39,81.97,3.91c0.96,0.02,1.73,0.83,1.71,1.8c-0.02,1,0.05,1.99,0.24,2.92c0.92,4.98,9.08,3.98,12.58,3.87
					c8.5-0.22,16.99-0.31,25.49-0.47c16.94-0.33,33.88-0.69,50.82-1.33c8.55-0.33,17.09-0.64,25.64-0.97
					c3.32-0.12,15.5,1.64,15.56-3.73c0.02-1.33,0.02-2.64,0.02-3.96c0-0.93,0.72-1.69,1.62-1.76c36.09-2.75,68.91-6.84,97.69-12.17
					c0.22-0.05,0.44-0.05,0.67-0.02c3.21,0.64,6.07,2.51,9.59,2.96c10.91,1.42,22.79-1.76,33.2-4.82
					c7.06-2.07,13.98-4.63,20.77-7.54c4.22-1.8,14.84-4.39,14.56-10.4c-0.03-0.83-0.27-1.64-0.17-2.47c0.2-1.92,3.03-2.83,4.44-3.56
					c2.1-1.07,4.12-2.32,6.03-3.72c4.19-3.04,8.1-6.86,10.32-11.63C805.12,766.31,804.44,764.38,802.83,763.62L802.83,763.62z"/>
				<path class="st3" d="M821.19,767.21c-0.05-1.02-0.42-1.96-1.08-2.63c-0.24-0.26-0.4-0.59-0.44-0.94
					c-0.67-7.99-6.96-15.7-18.08-22.87l-1.06,0.12c-6.54-53.71-15.81-107.75-42.94-154.02c-3.83-6.51-7.96-12.89-12.5-18.95
					c-0.74-0.99-0.29-2.44,0.89-2.77c2.08-0.61,4.63-1.7,5.19-1.96c2.81-1.27,5.4-3.09,7.58-5.3c2.4-2.45,4.48-5.36,5.77-8.56
					c1.08-2.59,0.44-6.74,2.07-8.83c0.75-0.97,1.8-1.66,2.77-2.4c3.81-2.89,6.9-6.95,8.36-11.57c1.23-3.92,0.58-7.87-0.4-11.79
					c-0.51-2.08-1.46-3.75-0.51-5.49c1.91-3.56,5.23-5.73,6.89-9.68c2.72-6.5,2.55-13.9-0.27-20.31c-0.44-1,0.12-2.17,1.2-2.41
					c4.29-0.99,8.37-2.96,11.78-5.6c3.07-2.4,5.58-5.43,7.4-8.89c1.73-3.31,2.51-8.05-0.16-10.84c-0.4-1.03-1.34-1.87-2.7-1.81
					c-6.12,0.21-11.72,1.55-17.01-2.49c-2.92-2.24-5.14-5.27-7.38-8.21c-2.27-2.99-5.14-5.81-8.26-8.14
					c-3.07-2.33-2.33-4.25-3.76-7.59c-0.8-1.83-1.86-3.43-3.08-4.97c-2.44-3.15-5.31-5.86-8.65-8.02
					c-5.95-3.85-16.58-8.05-23.71-4.84c-0.69,0.29-1.49,0.14-1.96-0.44c-3.11-3.66-7.97-6.17-12.31-7.52
					c-1.44-0.45-2.86-0.77-4.28-0.98c-1.46-0.21-1.99-2.03-0.92-3.05c2.4-2.27,4.42-5.11,5.87-8.33c2.7-6,3.6-13.15,2.77-21.79
					c-0.71-6.88-3.29-19.13-13.03-24.52c-0.29-0.15-0.53-0.4-0.69-0.69c-1.11-2.11-2.58-4-4.34-5.5c-0.58-0.49-1.37-0.49-1.96-0.07
					c-0.04,0-0.06,0-0.07,0.02c-0.86,0.26-1.33,1.17-1.06,2.04c1.07,3.51,0.47,7.61-1.56,10.66c-2.03,3.06-5.58,5.15-9.23,5.45
					c-7.44,0.62-13.69-5.62-16.78-11.15c-2.22-4.01-3.64-8.3-5.14-12.88c-0.94-2.85-1.89-5.79-3.07-8.63
					c-3.82-9.19-9.64-15.29-16.41-17.16c-0.92-0.26-1.88-0.42-2.84-0.51c-0.05-0.05-0.12-0.1-0.14-0.12
					c-0.18-0.14-0.36-0.3-0.51-0.45c-0.18-0.18-0.32-0.33-0.48-0.51c-0.02-0.01-0.05-0.08-0.11-0.15c-0.03-0.04-0.07-0.09-0.08-0.13
					c-0.25-0.34-0.48-0.72-0.71-1.12c-0.03-0.1-0.08-0.22-0.14-0.31c-0.08-0.24-0.15-0.45-0.22-0.68c-0.07-0.19-0.12-0.4-0.18-0.61
					c-0.03-0.1-0.03-0.22-0.05-0.35c0-0.03-0.02-0.08-0.02-0.12v-0.05c-0.01-0.16-0.03-0.35-0.03-0.52v-0.35
					c0-0.07-0.04-0.51-0.05-0.51c0.01-0.17,0.01-0.34,0.03-0.52c0.02-0.15,0.05-0.28,0.09-0.42c0.02-0.15,0.03-0.31,0.05-0.47
					c0.58-0.05,1.1-0.47,1.15-1.06c0.07-0.53-0.16-0.92-0.53-1.21c-0.05-0.02-0.11-0.04-0.14-0.06c-0.07-0.03-0.16-0.08-0.25-0.12
					c-0.12-0.05-0.24-0.07-0.35-0.08c-0.6-0.2-1.2-0.35-1.85-0.35c-0.92,0-1.8,0.38-2.6,0.84c-1.47,0.9-2.67,2.42-3.04,4.13
					c-0.41,1.8,0.02,3.63,1.22,5.03c0.28,0.34,0.65,0.72,1.06,1.01c-2.38,0.72-4.67,1.87-6.68,3.43c-4.31,3.32-7.54,8.31-9.17,14.14
					c-0.15,0.59-0.6,1.05-1.16,1.23c-2.24,0.67-4.45,1.36-6.68,1.92c-0.69,0.19-1.22,0.82-1.3,1.54c-0.11,0.75,0.26,1.38,0.87,1.81
					c1.38,1.02,2.8,1.94,4.29,2.79c0.72,0.43,1.46,0.82,2.2,1.19c0.43,0.21,0.92,0.49,1.44,0.69c0.1,1.82,0.14,3.58-0.14,5.26
					c-0.57,3.62-2.6,6.98-4.55,10.25l-0.83,1.4c-2.75,4.65-6.04,10.89-6.92,17.92c-0.64,4.86,0.09,9.59,1.89,13.53
					c0.48,1.02-0.09,2.21-1.16,2.45c-2.28,0.52-4.5,1.26-6.66,2.23c-0.42,0.19-0.88,0.21-1.32,0.03c-2.17-0.82-4.38-1.61-6.62-2.22
					c-4.68-1.33-9.57-2.08-14.44-1.93c-4.49,0.13-8.99,0.99-13.23,2.51c-2.93,1.05-6.34,2.36-8.85,4.55
					c-0.04-0.07-0.09-0.14-0.16-0.21c-0.44-0.51-1.08-0.9-1.66-1.25c-0.85-0.55-1.74-1.01-2.65-1.45c-1.89-0.93-3.85-1.75-5.81-2.48
					c-1.25-0.49-2.68-0.83-4.12-0.9c-0.72-0.05-1.36-0.52-1.55-1.23c-0.62-2.13-1.73-4.16-3.25-5.82c-1.64-1.78-3.88-3.15-6.22-3.46
					c-0.6-0.09-1.06-0.53-1.32-1.05c-1.38-3.07-3.47-5.76-6.04-7.9c-1.86-1.56-3.86-2.77-6.07-3.7c-0.95-0.38-2.15-0.84-3.33-1.06
					c-0.07-0.13-0.14-0.21-0.21-0.34c0.39-0.24,0.77-0.52,1.13-0.82c1.32-1.09,2.38-2.49,2.95-4.11c0.46-1.28,0.56-2.66,0.32-3.99
					c-0.07-0.41-0.03-0.8,0.16-1.16c5.47-10.61,9.32-22.26,11.91-33.9c2.71-11.99,4.31-24.55,3.89-36.87
					c-0.12-3.49-0.36-6.96-0.72-10.44c-0.09-0.83-0.18-1.66-0.29-2.49c-0.14-1.07,0.67-2.06,1.73-2.04c0.7,0.02,1.41-0.02,2.14-0.12
					c4.15-0.6,7.68-2.87,9.96-6.23c0.28-0.4,0.7-0.66,1.18-0.74c2.12-0.35,4.05-1.29,5.83-2.85c1.89-1.64,3.46-3.9,4.41-6.3
					c0.26-0.63,0.8-1.04,1.47-1.13c5.06-0.54,9.8-3.42,13.07-7.38c3.75-4.53,5.49-10.16,6.22-15.92c0.09-0.68,0.53-1.23,1.16-1.45
					c1.86-0.71,3.63-1.77,5.18-2.79c2.51-1.66,4.84-3.62,6.77-5.94c2.05-2.42,3.64-4.93,4.8-7.88c0.76-1.94,1.54-4.15,1.69-6.31
					c0.04-0.38,0.14-0.77,0.41-1.03c0.32-0.35,0.6-0.79,0.74-1.31c0.25-0.88,0.5-1.7,0.46-2.61c-0.03-0.84-0.26-1.71-0.55-2.51
					c-0.59-1.69-1.41-3.13-2.52-4.53c-1.91-2.45-4.55-4.21-7.46-5.23c-3.35-1.14-7.15-1-10.54-0.24c-1.66,0.38-3.35,0.94-4.87,1.74
					c-0.36,0.2-0.8,0.42-1.24,0.68c-2.12-1.76-5.14-2.34-7.84-2.4c-1.93-0.03-3.9,0.11-5.81,0.39c-1.11,0.15-2.21,0.36-3.25,0.75
					c-0.3,0.12-0.63,0.28-0.94,0.44c-0.48,0.24-1.02,0.26-1.5,0.01c-0.77-0.38-1.56-0.82-2.29-1.12c-1.08-0.43-2.18-0.75-3.31-0.96
					c-2.68-0.51-5.35-0.58-8.05-0.18c-2.56,0.35-5.04,1.13-7.35,2.32c-1.14,0.61-2.18,1.33-3.19,2.12c-0.19,0.15-0.53,0.5-0.92,0.89
					c-0.53,0.56-1.35,0.71-2.02,0.37c-2.17-1.17-4.59-1.49-7.18-1.35c-3.09,0.16-6.27,0.63-9.27,1.4c-2.51,0.66-5.23,1.77-7.49,3.38
					c-0.05-0.07-0.08-0.16-0.14-0.23c-0.81-1.24-1.93-2.31-3.21-3.04c-2.49-1.44-5.54-1.77-8.34-1.51
					c-2.79,0.26-5.47,1.07-7.96,2.35c-0.43,0.24-0.84,0.52-1.27,0.77c-0.29-0.42-0.59-0.77-0.87-1.14
					c-0.85-1.08-1.86-2.06-2.95-2.92c-2.3-1.78-5-3.11-7.86-3.54c-3.96-0.62-8.48,0.18-11.99,2.37c-0.71,0.43-1.61,0.29-2.17-0.33
					c-1.27-1.37-2.86-2.42-4.56-3.1c-1.72-0.7-3.59-0.89-5.42-0.7c-1.06,0.12-2.14,0.26-3.15,0.64c-0.42,0.16-0.88,0.42-1.32,0.66
					c-0.09-0.07-0.17-0.14-0.26-0.21c-0.36-0.24-0.74-0.47-1.09-0.68c-1.03-0.55-2.12-0.99-3.22-1.33c-2.08-0.6-4.32-0.77-6.48-0.52
					c-1.94,0.25-4.73,1.11-6.9,2.52c-0.53,0.35-1.2,0.42-1.77,0.13c-0.94-0.53-1.93-0.95-2.8-1.63c-1.12-0.86-2.35-2.1-3.31-3.27
					c-0.99-1.19-1.87-2.59-2.61-4.03c-0.72-1.36-1.08-2.76-0.77-3.95c0.65-2.4,3.62-4.29,6.12-5.46c1.42-0.68,3.2-1.25,4.72-0.88
					c1,0.24,1.91,0.93,2.05,1.75c0,0-0.02,0.14-0.02,0.24c-0.03,0.07-0.09,0.24-0.07,0.24c-0.02,0.11-0.1,0.21-0.12,0.23
					c-0.01,0.03-0.03,0.04-0.04,0.05c-0.12,0.14-0.24,0.25-0.37,0.39l-0.16,0.15c-0.15,0.12-0.3,0.21-0.46,0.3
					c-0.6,0.35-0.83,0.38-1.73,0.59c-1.09,0.26-2.13,0.47-2.89,1.37c-0.69,0.79-1.04,2.07-0.39,3.02c1.78,2.61,5.11,1.91,7.58,0.76
					c2.06-0.95,3.86-2.77,4.46-5.03c1.45-5.51-3.55-10.06-8.7-10.22c-2.84-0.07-5.62,1.02-8.09,2.32c-2.07,1.08-4.08,2.54-5.59,4.35
					c-1.61,2-2.71,4.39-2.67,7c0.03,2.8,1.27,5.45,2.7,7.78c0.49,0.77,1.02,1.57,1.57,2.31c-1.32,0.12-2.59,0.35-3.88,0.66
					c-4.91,1.26-9.23,3.97-12.6,7.7c-0.37,0.43-0.92,0.62-1.48,0.57c-3.71-0.33-7.81,0.91-10.84,2.66c-3.04,1.79-5.6,4.36-7.3,7.4
					c-0.32,0.56-0.88,0.88-1.52,0.92c-3.72,0.19-7.38,2.45-9.14,5.75c-0.29,0.52-0.78,0.86-1.33,0.97c-2.56,0.48-5,2.19-6.84,4.2
					c-1.02,1.1-2.36,2.88-3.35,4.81c-0.37,0.75-1.22,1.15-2.02,0.94c-2.45-0.68-4.97-1-7.62-0.89c-1.93,0.08-3.85,0.54-5.62,1.31
					c-0.01,0.01-0.03,0.02-0.04,0.02c-0.6,0.26-1.27,0.14-1.78-0.28c-5.62-4.46-13.18-5.36-20.1-3.5c-0.56,0.15-1.14,0.01-1.59-0.37
					c-1.45-1.23-3.16-2.24-4.78-3.04c-2.69-1.35-5.56-2.33-8.55-2.82c-3.08-0.49-6.11-0.49-9.18,0c-1.64,0.26-3.41,0.63-5.02,1.28
					c-0.49,0.21-1.05,0.19-1.53-0.07c-1.1-0.59-2.23-1.09-3.23-1.51c-3.08-1.26-6.4-1.8-9.7-1.73c-3.64,0.07-7.26,0.81-10.72,1.98
					c-1.73,0.59-3.42,1.26-5.06,2.04c-0.64,0.3-1.32,0.61-2,0.91c-0.27-0.01-0.56,0-0.87,0.09c-3.23,0.86-5.31,4.36-5.42,7.63
					c-0.14,3.48,1.87,6.51,4.02,9.04c1.91,2.24,4.23,4.2,6.73,5.76c1.2,0.75,2.42,1.38,3.72,1.96c0.31,0.13,0.62,0.27,0.91,0.4
					c0.61,0.27,1,0.87,1.04,1.55c0.35,5.27,2.93,10.49,5.9,14.71c1.91,2.71,4.11,5.25,6.71,7.33c1.38,1.12,2.82,2.15,4.34,3.09
					c0.8,0.47,2,0.9,2.94,1.42v0.05c-0.04,0.51-0.04,1,0,1.51c0.09,1.24,0.28,2.5,0.69,3.67c0.73,2.23,2.03,4.38,3.76,5.95
					c2.75,2.45,6.32,3.68,9.89,3.54c0.72-0.03,1.36,0.33,1.71,0.95c3.01,5.41,9.47,8.4,15.7,7.88c0.54-0.06,1.07,0.15,1.45,0.55
					c3.88,3.98,10.2,4.29,15.52,2.08c1.13-0.47,2.38,0.28,2.44,1.52c0.16,2.4,0.36,4.83,0.62,7.23c0.77,6.76,2.26,13.46,4.04,20.02
					c3.34,12.08,8.23,24.35,14.86,35.08c0.22,0.37,0.28,0.78,0.24,1.2c-0.53,3.71,0.67,7.61,3.29,10.18
					c0.39,0.38,0.56,0.91,0.51,1.45c-0.12,1.45,0.15,2.99,0.83,4.44c1.69,3.6,5.53,5.12,9.08,6.2c0.07,0.01,0.12,0.01,0.21,0.03
					c0.4,0.98,0.85,1.94,1.33,2.89c0.33,0.68,0.22,1.49-0.31,2.04c-4.29,4.5-7.64,9.54-9.28,15.79c-1.27,4.89-1.66,11.49,0.4,16.62
					c0.27,0.7,0.11,1.47-0.46,1.96c-2.08,1.83-3.69,4.02-4.77,6.84c-1,2.64-1.32,5.43-0.9,8.14c0.11,0.7-0.15,1.42-0.75,1.8
					c-3.08,1.99-5.15,5.58-4.98,9.23c0.02,0.57-0.27,1.12-0.76,1.43c-1.21,0.81-2.27,1.89-2.97,3.1c-0.41,0.68-1.18,1.03-1.93,0.84
					c-1.11-0.28-2.17-0.49-3.12-0.59c-5.66-0.68-11.48,0.89-16.45,3.59c-5.36,2.92-9.96,7.45-12.89,12.86
					c-1.5,2.78-2.65,5.83-3.28,8.92c-0.34,1.59-0.55,3.22-0.62,4.85c-0.03,0.87-0.05,1.8,0.04,2.67c0.03,0.4,0.14,0.78,0.27,1.14
					c0.17,0.53,0.07,1.07-0.23,1.54c-0.9,1.42-1.59,3.05-2.12,4.59c-0.94,2.64-1.57,5.37-1.98,8.15c-0.69,4.57-1.38,8.92-0.51,13.39
					c0.49,2.65,1.61,5.43,3.59,7.3c0.46,0.43,0.7,1.02,0.59,1.62c-0.24,1.33-0.59,3.58-0.59,3.94c-0.04,1.77-0.09,3.54-1.12,5.05
					c-0.86,1.26-2.26,2.06-3.58,2.81c-3.18,1.8-6.57,3.45-9.65,5.38c-2.77,1.75-4.68,4.77-6.2,7.61c-3.95,7.45-6.41,15.9-9,23.9
					c-3.01,9.28-5.94,18.57-8.78,27.9c-10.08,33.14-19,66.62-26.77,100.4c-1.91,8.33-3.71,16.67-5.52,25.02
					c-0.43,1.96-0.85,3.89-1.34,5.83c0,0-0.46,9.47-6.05,16.81c-0.22,0.35-0.4,0.66-0.54,0.9c-1.86,3.44-3.93,6.79-6.23,9.96
					c-4.68,6.44-10.37,12.13-16.99,16.48c-0.96,0.63-1.13,1.96-0.32,2.77c3.83,3.83,7.73,7.86,12.25,10.76
					c2.1,1.35,4.28,2.56,6.48,3.72c9.1,4.68,18.83,8.13,28.58,11.14c12.12,3.73,24.46,6.71,36.87,9.26
					c1.13,0.23,2.16-0.66,2.12-1.81c-0.22-4.74,1.18-15.04,2.02-16.49c2.42-4.18,6.87-6.9,10.29-10.17c2.75-2.59,11.27-0.29,14.5,0
					c16.9,1.72,33.74,3.36,50.54,6c6.82,1.06,13.71,1.93,20.5,3.22c5.37,1.04,5,5.97,5,10.77c0,7,1.32,14.07,1.74,21.07
					c0.07,0.89,0.74,1.61,1.61,1.67c25.25,1.94,51.8,3.17,79.05,3.65c0.97,0.02,1.78-0.76,1.79-1.75
					c0.07-3.71-0.01-12.06,0.04-12.93c0.34-6.28,0.35-16.85,5.93-21c3.47-2.56,8.99-1.63,12.96-1.61c4.19,0.02,10.28-1.1,13.78,1.33
					c3.92,2.7,4.66,6.57,7.19,10.18c2.33,3.31,11.95,0.74,15.5,0.56c11.75-0.63,23.92-2.17,35.68-1.64c0.35,0,4.01-10.1,5.14-11.17
					c4.17-3.87,11.57-3.11,16.74-2.82c4.37,0.26,8.56,0.02,11.24,2.71c0.67,0.66,1.25,1.51,1.71,2.6c0.16,0.37,0.29,0.75,0.42,1.17
					c0.65,2.16,3.64,22.47,3.65,28.88c0.02,1.03,0.89,1.85,1.9,1.77c34.79-2.67,66.51-6.59,94.39-11.71
					c1.15-0.23,0.41-12.48,0.39-13.58c-0.09-5.39-1.82-13.26,2.77-17.24c1.82-1.59,4.24-2.22,6.59-2.83
					c16.74-4.24,34.87-7.74,50.29-15.85c0.58-0.32,0.96-0.95,0.94-1.63c-0.12-12.76-0.96-25.46-2.48-38.17
					c-3.42-28.24-10.42-55.96-19.65-82.8c-4.62-13.38-9.77-26.53-15.8-39.34c-6.08-12.97-13.5-25.15-20.73-37.47
					c-1.52-2.56,2.21-4.6,3.88-2.3c9.44,13.18,17.17,27.79,24.39,42.3c12.91,25.92,22.55,53.18,28.56,81.56
					c5.39,25.39,7.88,51.49,8.02,77.47c0.02,0.61,2.23,1.7,2.65,1.99c2.41,1.67,5.16,3.48,7.33,5.73c1.17,1.19,3.16,0.33,3.04-1.33
					c-0.94-12.95-2.17-25.87-3.93-38.7c-4.45-32.34-11.68-64.42-23.42-94.9c-5.53-14.32-11.92-28.25-19.46-41.57
					c-3.66-6.49-7.54-12.89-11.6-19.11c-4.21-6.43-8.98-12.44-13.25-18.81c-1.02-1.56,1.25-3.16,2.49-1.94
					c6.13,6.04,11.34,13.29,16.27,20.31c5,7.05,9.49,14.41,13.64,21.98c15.31,27.86,25.87,58.08,32.97,89.07
					c7.18,31.27,11.14,63.25,13.58,95.22c0.1,1.44,1.76,2.16,2.84,1.24c2.84-2.41,4.85-4.84,5.97-7.17c0.75-1.63,2.7-2.31,4.29-1.52
					c1.6,0.76,2.29,2.69,1.53,4.32c-2.22,4.78-6.13,8.59-10.32,11.64c-1.91,1.4-3.94,2.64-6.04,3.71c-1.42,0.72-4.24,1.64-4.45,3.55
					c-0.1,0.83,0.14,1.65,0.18,2.47c0.27,6.02-10.35,8.61-14.57,10.41c-6.79,2.91-13.71,5.46-20.77,7.54
					c-10.41,3.06-22.29,6.25-33.2,4.83c-3.52-0.45-6.38-2.31-9.59-2.96c-0.23-0.03-0.44-0.03-0.67,0.02
					c-28.78,5.32-61.6,9.42-97.69,12.16c-0.91,0.07-1.63,0.83-1.63,1.77c0,1.31,0,2.63-0.01,3.96c-0.06,5.37-12.24,3.6-15.56,3.73
					c-8.55,0.33-17.1,0.64-25.64,0.96c-16.94,0.65-33.88,1-50.83,1.33c-8.49,0.16-16.99,0.25-25.48,0.47
					c-3.5,0.11-11.66,1.11-12.58-3.87c-0.19-0.93-0.26-1.92-0.24-2.92c0.01-0.96-0.76-1.78-1.71-1.8
					c-28.31-0.52-55.85-1.83-81.97-3.9c-0.53-0.06-1.02,0.15-1.39,0.52c-3.27,3.39-6.35,6.79-11.1,8.02
					c-8.87,2.27-19.51-0.6-28.36-1.94c-14.25-2.19-28.27-4.67-42.38-7.42c-4.05-0.79-8.17-1.65-11.92-3.46
					c-4.54-2.23-6.74-4.03-6.85-9.06c0-0.32-10.14-2.11-11.09-2.32c-3.9-0.86-7.77-1.76-11.66-2.73c-12.18-3.01-24.3-6.51-36-11.16
					c-10.76-4.29-20.81-9.8-29.88-17.08c-2.19-1.77-5.05-3.66-6.45-6.14c-1.75-3.08-2.33-6.62,0.39-9.26
					c1.42-1.38,3.27-2.19,4.82-3.38c1.59-1.19,3.13-2.45,4.6-3.78c6.23-5.75,12.94-12.74,16.58-20.48c0.16-0.33,0.32-0.66,0.5-0.98
					l4.36-8.55c-35.63,11.84-62.62,27.53-63.17,42.62c0,0.11-0.02,0.21-0.05,0.32c-0.74,2.57-0.84,5.3-0.46,7.96
					c-0.02,0.33-0.04,0.64-0.04,0.96c0.02,0.49,0.07,0.97,0.12,1.44c0.09,0.79,0.16,1.61,0.5,2.33
					C165.88,817.64,311.72,850,491.18,850c177.25,0,321.69-31.55,328.3-71.03c0.12-0.4,0.26-0.79,0.35-1.19
					c0.29-1.06,0.53-2.11,0.74-3.17C821.02,772.18,821.31,769.7,821.19,767.21L821.19,767.21z"/>
				<g>
					<path class="st2" d="M613.99,542.95c-0.26-0.19-0.82-0.59-1.38-0.69c-0.6-0.09-0.65-0.09-1.23-0.17
						c-0.63-0.1-0.72-0.1-1.35-0.22c-0.41-0.09-0.82-0.19-1.23-0.29c-1.71-0.48-2.97-1.05-4.51-1.99c-2.75-1.71-5.15-4.3-6.62-7.33
						c-0.96-1.94-4.31-0.57-3.5,1.49c1.57,3.99,4.21,7.24,7.79,9.56c1.69,1.12,3.61,1.97,5.54,2.52c1.03,0.31,2.1,0.54,3.16,0.64
						c0.48,0.05,0.99,0.09,1.5,0.05c0.36-0.03,0.72-0.09,1.06-0.21c0.15-0.05,0.31-0.14,0.43-0.22c0.44-0.28,0.55-0.36,0.34-0.28
						C615.04,545.1,615.05,543.66,613.99,542.95L613.99,542.95z M613.99,542.95c-0.26-0.19-0.82-0.59-1.38-0.69
						c-0.6-0.09-0.65-0.09-1.23-0.17c-0.63-0.1-0.72-0.1-1.35-0.22c-0.41-0.09-0.82-0.19-1.23-0.29c-1.71-0.48-2.97-1.05-4.51-1.99
						c-2.75-1.71-5.15-4.3-6.62-7.33c-0.96-1.94-4.31-0.57-3.5,1.49c1.57,3.99,4.21,7.24,7.79,9.56c1.69,1.12,3.61,1.97,5.54,2.52
						c1.03,0.31,2.1,0.54,3.16,0.64c0.48,0.05,0.99,0.09,1.5,0.05c0.36-0.03,0.72-0.09,1.06-0.21c0.15-0.05,0.31-0.14,0.43-0.22
						c0.44-0.28,0.55-0.36,0.34-0.28C615.04,545.1,615.05,543.66,613.99,542.95L613.99,542.95z M645.55,542.56
						c-2.94-1.81-6.46-1.87-9.76-1.12c-3.08,0.71-6.07,1.99-8.94,3.54c-4.14-8.42-10.84-15.47-19.56-19.1
						c-5.66-2.35-10.77-1.71-16.15,1.04c-2.63,1.37-5.26,2.77-7.9,4.17c-0.29,0.16-0.56,0.29-0.85,0.45
						c-2.1-2.25-5.35-3.13-8.38-2.26c-3.73,1.05-6.26,4.49-7.4,8.07c-1.5,4.72-0.87,10.04-0.75,14.9c0.07,2.87,0.15,5.74,0.26,8.59
						c-2.1,0.12-4.12,0.24-6.29-0.24c-2.53-0.55-4.96-1.47-7.4-2.33c-2.51-0.9-5.06-1.73-7.73-2.11c-2.34-0.33-5.21-0.62-7.44,0.43
						c-4.87,2.32-1.68,9.42,0.53,12.63c2.63,3.84,6.27,6.76,10.14,9.23c4.94,3.18,10.32,5.51,16.1,6.59
						c0.27,0.03,0.55,0.03,0.79,0.02c19.47,3.06,37.44-4.34,54.1-13.84c1.2-0.02,2.41-0.41,3.57-0.69c2.02-0.5,4.02-1.11,6.02-1.64
						c2.39-0.6,4.97-1.04,7.26-1.92c2.51-0.95,4.99-2.02,7.49-3.02c2.24-0.9,4.55-2.21,6.1-4.13
						C653.62,554.59,651.04,545.89,645.55,542.56L645.55,542.56z M583.74,579.58c-0.29,0.16-0.53,0.36-0.7,0.62
						c-6.03,0.95-12.19,1.02-18.5-0.16c-0.34-0.05-0.65-0.03-0.94,0c-4.82-1.62-9.52-3.63-13.83-6.38
						c-3.85-2.44-7.79-5.79-9.42-10.21c-0.19-0.48-0.34-1-0.46-1.5c-0.05-0.29-0.12-0.6-0.17-0.9v-0.07
						c1.03-0.24,2.26-0.16,3.26-0.02c2.85,0.36,5.64,1.49,8.29,2.56c4.6,1.81,10.14,4.17,15.18,3.08v0.03
						c-0.34,0.31-0.62,0.66-0.73,1.14c-0.36,1.28-0.51,2.7-0.15,3.99c0.22,0.81,0.63,1.52,1.18,2.14c0.62,0.69,1.4,1.09,2.22,1.42
						c0.55,0.24,1.38,0.03,1.88-0.24l0.02-0.02c3.69,1,7.44,1.52,11.28,1.57c2.36,0.03,4.72-0.22,7.04-0.54
						c0.12-0.02,0.24-0.03,0.36-0.05C587.69,577.35,585.77,578.56,583.74,579.58L583.74,579.58z M587.67,564.94
						c-2.99,0.24-5.98,0.35-8.97,0.28c-2.77-0.07-5.68-0.57-8.46-0.45c0.09-7-0.41-14-0.26-21c0.05-3.16,0.56-6.69,2.94-8.99
						c1.38-1.33,3.69-1.99,5.38-1.11c-1.09,0.67-2.1,1.4-2.99,2.32c-0.75,0.76-0.27,2.49,0.96,2.33c2.53-0.31,4.68-1.45,6.97-2.54
						c2.46-1.18,4.96-2.37,7.42-3.54c2.39-1.14,4.8-2.54,7.42-3.09c2.48-0.52,4.99,0.07,7.32,1c7.59,3.04,14.22,9.66,17.28,17.34
						c-1.88,1.21-3.68,2.51-5.38,3.79c-4.32,3.25-8.29,6.91-12.07,10.77c-1.37-0.48-2.72,0.14-4.09,0.5
						c-1.49,0.43-2.99,0.8-4.53,1.11C593.67,564.27,590.66,564.7,587.67,564.94L587.67,564.94z M642.13,558.75
						c-2.31,2.2-5.04,3.54-7.98,4.48c0.1-0.05,0.17-0.1,0.26-0.17c0.51-0.31,0.62-0.41,0.34-0.28c1.08-0.54,1.25-2.26,0.39-3.06
						c-1.03-0.97-3.06-0.86-4.31-0.57c-1.54,0.36-2.94,1.18-4.32,1.99c-9.59,5.6-19.08,11.42-29.52,15.3
						c1.74-1.45,3.42-3.01,5.04-4.61c1.23-1.21,2.38-2.42,3.56-3.63c0.85-0.88,1.73-1.75,2.65-2.58c2.24-2.02,4.5-4.04,6.82-5.98
						c4.58-3.85,9.4-7.43,14.7-10.23c3.08-1.64,6.56-3.13,10.09-3.32c2.77-0.17,5.23,0.92,6.14,3.73
						C647.07,553.26,644.46,556.52,642.13,558.75L642.13,558.75z M607.5,545.82c1.03,0.31,2.1,0.54,3.16,0.64
						c0.48,0.05,0.99,0.09,1.5,0.05c0.36-0.03,0.72-0.09,1.06-0.21c0.15-0.05,0.31-0.14,0.43-0.22c0.44-0.28,0.55-0.36,0.34-0.28
						c1.04-0.71,1.06-2.14,0-2.85c-0.26-0.19-0.82-0.59-1.38-0.69c-0.6-0.09-0.65-0.09-1.23-0.17c-0.63-0.1-0.72-0.1-1.35-0.22
						c-0.41-0.09-0.82-0.19-1.23-0.29c-1.71-0.48-2.97-1.05-4.51-1.99c-2.75-1.71-5.15-4.3-6.62-7.33c-0.96-1.94-4.31-0.57-3.5,1.49
						c1.57,3.99,4.21,7.24,7.79,9.56C603.65,544.42,605.57,545.27,607.5,545.82L607.5,545.82z"/>
					<path class="st2" d="M595.67,501.82c-46.02,0-83.44,24.73-83.44,55.14c0,30.42,37.42,55.15,83.44,55.15
						s83.45-24.73,83.45-55.15C679.12,526.55,641.69,501.82,595.67,501.82L595.67,501.82z M595.65,602.62
						c-40.53,0-73.49-20.1-73.49-44.83c0-24.72,32.96-44.82,73.49-44.82c40.51,0,73.49,20.1,73.49,44.82
						C669.14,582.52,636.16,602.62,595.65,602.62z"/>
				</g>
				<path class="st2" d="M740.15,561.47c-23.8-30.12-55.04-54.27-89.53-71c-43.06-20.88-90.93-30.56-138.7-31.62
					c0.27-0.37,0.56-0.76,0.82-1.14c0.55-0.81,0.66-1.61,0.74-2.57c0.11-1.63-1.82-3.22-3.39-2.6c-0.74,0.29-1.4,0.55-1.97,1.12
					c-0.65,0.63-0.79,1.01-1.24,1.59c-0.66,0.88-0.98,1.32-1.68,2.16c-1.37,1.68-2.84,3.27-4.5,4.65c-2.13,1.79-5,3.29-7.92,3.71
					c-0.48-1.35-0.92-2.95-2.27-3.53c-0.9-0.42-1.71-0.23-2.32,0.6c-0.85,1.16-0.45,2.67-0.45,4.02c0.02,1.42,0.15,2.83,0.21,4.26
					c0.13,2.69-0.02,5.39-0.32,8.06c-0.29,2.54-0.89,5.08-1.68,7.5c-0.87,2.73-2.29,5.22-3.21,7.92c-0.34,0.99-0.06,1.95,0.52,2.7
					c0.02,0.2,0.03,0.41,0.06,0.6c0.08,0.47,0.21,0.93,0.29,1.38c0.02,0.03,0.05,0.28,0.06,0.37c0.02,0.11,0.03,0.34,0.03,0.37
					c0.16,1.72,0.19,3.45,0.05,5.17c0,0.1-0.02,0.18-0.02,0.23c-0.03,0.16-0.05,0.33-0.08,0.49c-0.06,0.41-0.15,0.83-0.24,1.24
					c-0.19,0.81-0.42,1.63-0.71,2.41c-0.06,0.2-0.15,0.39-0.23,0.59c-0.05,0.11-0.1,0.23-0.1,0.24c-0.18,0.37-0.35,0.75-0.55,1.12
					c-0.42,0.8-0.9,1.53-1.31,2.31c-0.74,1.45-0.47,3.16,0.82,4.17c0.13,0.1,0.27,0.2,0.44,0.28c0.11,0.59,0.24,1.16,0.32,1.68
					c0.32,1.92,0.76,3.81,1.06,5.73c0.56,3.69,0.68,7.4,0.64,11.11c-0.03,3.69-0.29,7.37-0.97,11.02
					c-0.71,3.82-2.26,7.55-2.71,11.41c-0.16,1.37,0.53,2.28,1.52,2.73c0.08,0.24,0.15,0.49,0.19,0.73c0.03,0.16,0.05,0.31,0.08,0.47
					v0.05c0.03,0.72,0.1,1.42,0.08,2.13c0,0.36-0.03,0.72-0.06,1.07c0,0.02-0.03,0.23-0.05,0.36c-0.02,0.11-0.05,0.26-0.05,0.26
					c-0.13,0.7-0.32,1.4-0.55,2.07c-0.05,0.15-0.11,0.29-0.18,0.49c-0.15,0.28-0.27,0.55-0.4,0.83c-0.11-0.2-0.21-0.39-0.32-0.57
					c-1.39-2.21-5-0.81-4.27,1.84c1.69,6.22,3.61,12.33,4.69,18.71c0.44,2.59,0.69,5.21,0.84,7.81c-5.24,2.1-10.48,4.21-15.76,6.22
					c-2.97,1.12-5.9,2.26-8.82,3.5c-1.47,0.62-2.92,1.22-4.39,1.84c-0.4,0.16-0.79,0.33-1.18,0.5c-0.98-0.76-2.18-1.25-3.31-1.76
					c-1.26-0.59-2.53-1.16-3.79-1.74c-2.71-1.25-5.43-2.46-8.18-3.65s-5.47-2.41-8.22-3.53c-1.45-0.59-3.26-1.61-4.98-2
					c-0.11-2.64-0.15-5.27-0.06-7.91c0.11-3.51,0.42-7.03,0.92-10.5c0.47-3.22,1.64-6.7,1-9.96c-0.53-2.67-2.64-4.52-3.53-7.03
					c-0.94-2.64-1-5.44-0.24-8.12c0.94-3.25,1.95-6.17,1.03-9.57c-0.77-2.9-2.03-5.57-2.58-8.56c-1.24-6.64,0.1-13.57,2.87-19.66
					c1.16-2.54-2.03-4.43-3.64-2.18c-0.32,0.46-0.63,0.93-0.92,1.42c0.1-2.29,0.56-4.59,1.18-6.9c0.76-2.85,1.68-5.66,2.74-8.43
					c1.06-2.78,2.76-5.53,3.43-8.43c0.16-0.67,0.03-1.3-0.26-1.84c-0.53-5.92-0.71-11.54,1.14-17.35
					c1.82-5.71,5.56-10.67,10.43-14.09c2.31-1.61,4.79-2.95,7.47-3.84c1.45-0.49,2.93-0.86,4.43-1.12c1.56-0.26,3.16-0.29,4.63-0.94
					c2.42-1.09,3.56-3.71,6.1-4.61c2.29-0.81,5.14-0.47,7.06,1.09c1.27,1.04,3.02,0.98,3.95-0.52c1.56-2.49,4.03-3.97,6.89-4.51
					c1.29-0.24,2.66-0.26,3.97-0.03c1.5,0.26,2.79,1.06,4.27,1.3c2.21,0.36,3.47-1.89,2.11-3.66c-2.45-3.16-8.13-3.12-11.64-2.36
					c-3.14,0.68-5.97,2.33-8.19,4.62c-3.56-2.05-7.92-2.26-11.74-0.42c-1.1,0.54-2.1,1.25-2.98,2.08c-0.92,0.88-1.48,1.84-2.79,2.05
					c-2.79,0.47-5.48,0.68-8.19,1.58c-10.76,3.56-19.43,12.48-22.21,23.64c-0.32,1.3-0.58,2.67-0.74,4.04
					c-0.44,0.1-0.85,0.29-1.23,0.63c-2.1,1.86-5.42,1.51-6.61-1.14c-0.74-1.68-3.6-2.07-4.74-0.62c-1.21,1.53-3.08,2.62-5.06,2
					c-1.81-0.55-2.98-2.39-2.97-4.25c0.02-1.43-1.02-2.75-2.37-3.14c-3.4-0.96-6.22-2.08-8.37-5.13c-0.98-1.4-1.66-2.95-1.97-4.62
					c-0.37-1.94,0.03-3.92-0.18-5.86c-0.5-4.33-4.56-6.33-6.22-10.12c-1.61-3.66-1.69-7.86-0.32-11.59c0.87-2.38-3-4.04-4.1-1.72
					c-2.05,4.33-2.64,9.16-1.37,13.82c0.63,2.28,1.66,4.49,3.05,6.4c0.65,0.9,1.47,1.68,2.1,2.57c0.71,1.03,0.63,2.07,0.58,3.27
					c-0.15,4.82,1.23,9.16,4.24,12.92c2.21,2.77,5.53,5.16,9.08,6.05c0.32,0.98,0.74,1.89,1.27,2.72
					c-6.72,8.22-17.22,13.2-27.79,13.18c-0.53-1.51-1.13-2.99-1.76-4.51c-0.92-2.28-4.29-1.5-3.76,1.07
					c1.35,6.53,1.89,13.54,1.68,20.19c-0.1,3.25-0.44,6.49-1.06,9.7c-0.66,3.45-1.98,6.79-2.44,10.25c-0.26,2.07,1.42,3.32,3.21,3.5
					c2.31,4.77,4.47,9.6,6.89,14.34c1.37,2.68,2.81,5.34,4.05,8.09c0.47,1.03,0.94,2.23,0.97,3.37c-0.37-0.29-0.74-0.62-1.14-0.91
					c-2.02-1.45-3.9,1.59-2.5,3.29c4.37,5.27,7.79,11.56,9.74,18.11c0.97,3.25,1.68,6.62,2.1,9.99c0.03,0.21,0.03,0.42,0.06,0.63
					c-1.55,1.33-3.05,2.78-4.55,4.1c-2.4,2.1-4.81,4.2-7.22,6.3c-2.25,1.95-4.49,3.92-6.73,5.88c-1.67,1.46-3.29,4.01-5.45,4.74
					c-1.46,0.5-3.46-0.21-4.98-0.37c-2.43-0.25-4.86-0.56-7.29-0.84c-6.21-0.63-12.48-1.91-18.7-2.21
					c-1.34-0.07-0.64-12.85-0.61-13.97c0.07-3.06,0.19-6.11,0.29-9.17c0.04-1.3,0.25-2.72-0.05-3.99c-0.47-1.97-1.97-3.41-2.95-5.12
					c-1.16-2.02-1.77-4.39-2.42-6.62c-1.5-5.11-2.42-10.37-2.96-15.67c-0.27-2.7-0.45-5.42-0.57-8.13
					c-0.11-2.37,0.22-5.03-0.41-7.33c-0.47-1.69-1.82-3.23-2.63-4.78c-0.98-1.9-1.8-3.89-2.45-5.93
					c-2.42-7.66-2.08-15.34,0.45-22.91c0.77-2.33-2.55-3.53-3.77-1.63c-0.13,0.2-0.23,0.41-0.35,0.62c0.08-0.13-0.93-3.28-0.98-3.84
					c-0.16-1.82-0.12-3.68-0.03-5.5c0.2-4.51,0.79-9.36,2.5-13.57c0.53-1.3,1.31-2.49,1.69-3.86c0.52-1.76,0.05-3.91,0.32-5.76
					c1-7,4.4-13.66,10.04-17.98c5.54-4.24,14.34-7.11,20.85-3.49c1.94,1.09,3.1,2.88,4.85,4.18c2.39,1.76,5.02-1.14,4.55-3.53
					c-0.45-2.38-2.1-4.21-4.18-5.58c0.35-1.51,0.9-2.8,2.94-2.65c2.21,0.16,3.21-2.42,2.35-4.15c-1.34-2.69,0.66-6.36,3.73-6.28
					c1.71,0.05,3.39-1.89,2.73-3.61c-1.05-2.75-1.14-5.65-0.1-8.41c0.87-2.33,2.84-5.08,5.31-5.83c1.63-0.49,2.6-2.18,2.16-3.86
					c-0.74-2.93-2.11-5.57-2.37-8.64c-0.23-2.82,0-5.68,0.69-8.41c1.21-4.74,3.55-9.39,6.27-13.56c1.4,1.84,2.9,3.58,4.56,5.19
					c4.23,4.08,9.03,7.53,14.19,10.32c11.63,6.26,24.77,9.7,37.78,11.42c7.68,1.03,15.27,1.06,22.83-0.7
					c0.58-0.13,1.08-0.42,1.52-0.81c1.64-0.05,3.35-0.5,4.87-0.83c2.77-0.6,5.47-1.45,8.14-2.42c5.63-2.08,11.06-4.7,16.11-7.97
					c9.11-5.92,17.17-13.77,20.85-24.26c3.79-0.41,7.69-1.77,9.74-5.13c0.31-0.5,0.57-1.92,1.15-2.04c0.45-0.09,1.63,0.87,2,1.12
					c1.34,0.88,2.56,1.94,3.64,3.13c2.01,2.23,3.4,4.86,4.23,7.74c0.79,2.75,2.29,2.94,4.91,2.7c4.38-0.4,4.35,5.79,5.17,8.55
					c0.65,2.16,2.95,3.68,4.89,1.86c0.03-0.02,0.05-0.03,0.08-0.05c1.97-1.03,4.7,0.67,6.37,1.63c2.15,1.24,4.57,3.46,7.04,3.81
					c2.36,0.34,4.43-1.26,6.56-1.95c2.47-0.8,4.7-2.24,7.19-3.03c3.95-1.25,8.05-1.9,12.19-1.95c4.31-0.05,8.53,0.67,12.66,1.89
					c2.27,0.67,4.52,1.46,6.72,2.34c2.1,0.83,4.26,2.31,6.55,1.74c1.5-0.37,2.13-2.18,1.4-3.47c-0.05-0.08-0.11-0.15-0.16-0.23
					c2.06-0.65,4.19-1.09,6.35-1.3c3.18-0.21,6.4,0.05,9.48,0.91c3.13,0.88,6.06,2.28,8.76,4.12c1.34,0.91,2.53,1.97,3.73,3.06
					c0.06,0.07,0.13,0.13,0.21,0.2c1.23,1.11,2.44,2.25,3.76,3.25c0.85,0.65,1.71,0.62,2.42,0.21c0.26-0.05,0.53-0.13,0.74-0.33
					c0.4-0.33,0.58-0.8,0.56-1.29c0.29-0.73,0.32-1.56-0.02-2.28c2.61-0.24,5.22-0.21,7.82,0.31c2.11,0.44,4.29,1.09,6.18,1.99
					c1.02,0.49,2,1.04,2.95,1.63c0.76,0.47,1.4,0.96,2.31,1.09c0.44,0.07,0.76,0.05,1.19-0.03c0.03-0.02,0.16-0.05,0.32-0.08
					c0.23,0.11,0.47,0.2,0.73,0.2c0.48,0,0.95-0.21,1.27-0.63c0.35-0.46,0.4-1.04,0.21-1.55c0.03-0.15,0.08-0.29,0.08-0.44
					c0-0.86-0.03-1.68-0.48-2.44c-0.03-0.05-0.08-0.1-0.11-0.15c4.22-0.91,8.56-1.55,12.84-1.43c7.45,0.44,14.38,2.91,18.69,9.88
					c0.44,0.7,1.23,1.22,2.05,1.29l0.21,0.37l1.26-0.42c1.6-0.54,3.24-0.86,4.93-1.04c3.18-0.11,6.43,0.46,9.39,1.46
					c5.01,1.72,8.45,5.14,12.38,8.49c0.73,0.6,1.5,0.8,2.19,0.68c0.15,0.03,0.27,0.1,0.42,0.1c0.32,0,0.66-0.1,0.95-0.31
					c0.26-0.2,0.44-0.46,0.55-0.75c1.42-0.36,2.79-1.01,4.26-1.17c2.08-0.24,4.16,0.08,6.16,0.65c4.08,1.19,8.01,3.34,11.5,5.74
					c3.14,2.2,5.98,5.04,7.58,8.59c0.79,1.77,1.27,3.73,1.29,5.68c0.03,2.31-1.13,4.28,0.55,6.27c0.56,0.67,1.64,0.88,2.45,0.65
					c0.1-0.03,0.19-0.05,0.29-0.08c1-0.28,1.84-1.09,2.1-2.12c0.1-0.39,0.16-0.76,0.23-1.16c1.5,1.27,2.81,2.75,4.02,4.31
					c2.58,3.32,4.76,6.95,7.53,10.11c2.79,3.16,6.31,5.63,10.42,6.66c3.63,0.91,8.05,1.16,11.93,0.54c0.37,1.63-1.55,4.36-2.29,5.35
					c-1.66,2.23-3.87,4.21-6.21,5.7c-2.42,1.56-4.92,2.6-7.72,3.25c-2.84,0.65-5.92,0.52-8.69,0.2c-3.68-0.42-4.53,5.86-0.89,6.56
					c1.35,0.26,2.73,0.39,4.11,0.41c2.37,5.13,2.73,11.07,0.97,16.44c-0.77,2.34-1.92,4.59-3.45,6.53
					c-0.82,1.03-1.74,1.95-2.71,2.83c-1.16,1.06-2.52,1.92-3.27,3.35c-0.52,0.99-0.44,2.28,0.11,3.25
					c-0.34,2.41,0.87,5.35,1.35,7.47c0.61,2.59,0.79,5.03-0.19,7.55c-0.97,2.49-2.76,4.57-4.66,6.38c-1.03,0.98-2.13,1.9-3.24,2.78
					c-1.5,1.19-3.27,2.39-3.06,4.57c0.06,0.76,0.31,1.38,0.71,1.87c-0.26,0.72-0.5,1.45-0.71,2.18c-0.18,0.65-0.4,1.27-0.64,1.9
					c-0.05,0.13-0.06,0.18-0.08,0.21s-0.03,0.08-0.06,0.15c-0.13,0.28-0.26,0.55-0.4,0.83c-0.53,1.12-1.1,2.21-1.76,3.27
					c-0.16,0.26-0.34,0.52-0.52,0.78c-0.03,0.07-0.15,0.2-0.23,0.31c-0.39,0.52-0.84,1.03-1.29,1.51c-0.42,0.46-0.85,0.89-1.32,1.32
					c-0.23,0.21-0.45,0.42-0.69,0.62c-0.06,0.07-0.42,0.34-0.53,0.44c-0.94,0.7-1.94,1.33-2.95,1.89c-0.27,0.15-0.55,0.28-0.82,0.42
					c-0.05,0.03-0.32,0.15-0.47,0.21c-0.5,0.2-1,0.37-1.52,0.55c-0.58,0.18-1.18,0.34-1.77,0.47c-0.35,0.08-0.71,0.13-1.06,0.2
					c-0.02,0-0.04,0.01-0.05,0.02c-0.35,0.02-0.68,0.08-1.02,0.18C740.94,558.51,740.13,559.99,740.15,561.47L740.15,561.47z"/>
				<path class="st3" d="M479.88,797.02c-0.1,0-0.1,0.16,0,0.16S479.97,797.02,479.88,797.02z"/>
				<path class="st3" d="M597.26,482.27c-0.05,0.02-0.05,0.08,0,0.08S597.31,482.27,597.26,482.27z"/>
				<path class="st3" d="M596.76,481.72c-0.11,0-0.11,0.16,0,0.16C596.85,481.88,596.85,481.72,596.76,481.72z"/>
				<path class="st3" d="M174.64,717.85c0.1,0,0.1-0.16,0-0.16S174.55,717.85,174.64,717.85z"/>
				<path class="st3" d="M166.15,736.78c2.26,1.74,4.5-1.5,3.52-3.55c-0.08-0.18-0.18-0.34-0.26-0.52c3.13-5.3,4.89-11.2,5.29-17.23
					c0.9,3.01,1.5,6.12,1.73,9.32c0.18,2.6,3.39,2.88,4.31,0.59c2.85-7.03,4.69-14.39,4.58-22.03c-0.02-1.74-0.15-3.5-0.35-5.24
					c2.34,8.25,2.85,17.12,1.26,25.22c-0.48,2.47,2.74,3.25,3.66,1.03h0.03c0-0.03,0.02-0.08,0.02-0.11
					c1.81-4.34,4.06-8.43,6.45-12.48c1.4-2.39,2.94-4.72,4.58-6.95c-0.42,4.82,0.02,9.67,1.44,14.39c0.63,2.12,3.63,2.12,4.26,0
					c0.6-2.02,1.48-3.86,2.6-5.55c0.03,1.63,0.16,3.24,0.53,4.77c0.44,1.81,3.05,2.13,3.93,0.52c1.42-2.55,3.08-4.74,3.77-7.65
					c0.39-1.59,0.45-3.19,0.27-4.77c0-0.03,0.02-0.07,0.02-0.11c0.02,0.1,0.05,0.21,0.08,0.31c0.11,0.46,0.19,0.91,0.27,1.37
					c0.02,0.1,0.03,0.18,0.05,0.23v0.05c0.02,0.21,0.05,0.41,0.06,0.62c0.08,0.93,0.1,1.86,0.06,2.77
					c-0.03,0.93-0.03,1.74,0.24,2.46c0,0.16,0.02,0.39,0.02,0.44c0,0.34-0.02,0.7-0.05,1.04c-0.05,0.65,0.05,1.25,0.05,1.9
					c-0.03,1.29,1.66,2,2.53,1.06c0.56-0.6,1.1-1.09,1.48-1.84c0.27-0.55,0.65-1.46,0.84-1.87c1.21-1.56,1.05-4.18,0.81-6.12
					c-0.29-2.41-0.9-4.64-1.87-6.85c-0.21-0.47-0.42-0.94-0.66-1.38c-0.29-0.54-0.69-0.94-0.92-1.24c-0.66-0.86-1.31-1.74-2.05-2.54
					c-1.37-1.45-3.61-3.38-5.74-3.21c-1,0.08-1.52,0.96-1.32,1.76h-0.03c0.13,0.36,0.32,0.7,0.52,1.04
					c1.02,3.69,1.74,7.45,1.29,11.21c-0.34-1.71-2.31-2.34-3.64-1.19c-1.81,1.55-3.37,3.35-4.63,5.35c-0.66-4.04-0.69-8.17,0-12.24
					c0.26-1.48-1.55-2.98-2.74-1.61c-0.21,0.23-0.4,0.47-0.61,0.7c-0.06-7.09-1.08-14.32-1.97-21.3c-0.97-7.6-2.35-15.17-3.97-22.65
					c-0.69-3.19-1.4-6.4-2.13-9.58c2.4-0.03,5.13-1.43,7.13-2.15c3.03-1.09,6.05-2.23,9.03-3.4c5.53-2.18,10.89-4.95,14.05-10.27
					c2.85-4.78,3.53-10.97,2.82-16.42c-0.4-3.19-1.26-6.27-2.39-9.28c-0.56-1.53-1.21-3.03-1.85-4.51
					c-0.69-1.56-1.95-3.16-2.34-4.78c-0.35-1.42-2.02-1.64-3-0.8c-2.05,1.76-3.76,3.95-5.61,5.92c-1.87,1.99-3.76,3.94-5.61,5.92
					c-3.56,3.81-7.13,7.6-10.06,11.93c-2.63,3.87-4.76,8.33-5.89,12.95c-1.87-6.87-3.93-13.67-6.37-20.36
					c-1.08-2.96-2.19-5.89-3.37-8.82c-0.21-0.59-0.44-1.16-0.69-1.72c-0.02-0.05-0.05-0.08-0.06-0.11l-0.39-0.98
					c-0.89-2.07-1.79-4.12-2.73-6.15c-0.06-0.13-0.13-0.24-0.18-0.36c1.39,0.39,2.82,0.68,4.32,0.81c3.95,0.36,9.03-0.37,11.93-3.4
					c1.52-1.59,0.63-3.73-1.18-4.49c-0.73-0.31-1.52-0.96-2.29-1.33c-0.87-0.42-1.76-0.81-2.66-1.16c-1.73-0.67-3.53-1.14-5.35-1.42
					c-1.23-0.18-2.47-0.31-3.71-0.36c1.16-1.38,2.58-2.57,3.93-3.79c3.39-3.04,5.84-6.43,7.21-10.82c3.1-9.86-0.13-19.98-3.66-29.23
					c-0.5-1.3-1.56-2.18-3-1.99c-1.23,0.16-2.52,1.35-2.37,2.72c0.02,0.2-0.19,0.39-0.5,0.59c-1.11-1.79-2.9-3.06-5.11-3.17
					c-1.39-0.07-2.66,0.55-3.63,1.53c-0.32,0.33-0.58,0.7-0.87,1.04c-0.05,0.07-0.11,0.13-0.18,0.18c-1.13-0.2-2.31-0.03-3.39,0.49
					c-0.77,0.37-1.44,0.98-1.89,1.71c-0.21,0.34-0.35,0.72-0.52,1.09c-0.08,0.18-0.23,0.54-0.29,0.62
					c-0.32,0.34-1.27,0.76-1.77,1.17c-0.61,0.5-1.13,1.16-1.5,1.86c-0.32,0.62-0.48,1.32-0.55,2.03c-0.37-0.1-0.73-0.21-1.1-0.29
					c-1.61-0.33-3.14-0.21-4.32,1.06c-0.11,0.11-0.19,0.24-0.29,0.36c-1.31-0.5-2.87-0.62-4.32-0.72c-0.34-0.02-0.77-0.13-1.13-0.31
					c-0.73-0.39-1.42-0.76-2.26-0.81c-1.34-0.07-2.45,0.6-3.37,1.51c-0.34,0.34-0.63,0.72-0.97,1.04c-0.06,0.05-0.31,0.23-0.31,0.26
					c-0.02,0-0.03,0.02-0.03,0.02c-0.1,0.03-0.16,0.05-0.26,0.07c0,0-0.4,0.05-0.45,0.05c-0.24,0.02-0.48,0.02-0.73,0.03
					c-0.65,0.03-1.32,0.1-1.95,0.29c-1.42,0.44-2.52,1.55-2.93,2.99c-0.37,1.22-0.16,2.46,0.08,3.68c-1.6,0.47-3.31,1.22-3.98,2.69
					c-0.06,0.15-0.11,0.31-0.15,0.47c-0.48,0.46-0.74,1.19-0.37,2.02c1.68,3.81,3.37,7.52,5.84,10.9c2.47,3.38,5.27,6.36,8.71,8.75
					c3.31,2.31,7.11,3.99,10.95,5.22c0.92,0.29,1.85,0.57,2.79,0.83c-0.31,0.37-0.61,0.76-0.92,1.16c-0.02,0.02-0.05,0.03-0.06,0.05
					c-1.42,1.07-2.68,2.26-3.74,3.71c-2.1,2.82-3.02,6.4-2.31,9.86c0.29,1.4,2.27,2.31,3.47,1.42c1.61-1.22,3.43-2.12,5.13-3.21
					c1.74-1.12,3.48-2.36,4.95-3.84c0.66-0.67,1.24-1.42,1.74-2.21c0.08,0.16,0.16,0.33,0.24,0.47c0.27,0.47,0.56,0.96,0.89,1.4
					c0.06,0.1,0.15,0.2,0.23,0.28c0.08,0.15,0.16,0.29,0.24,0.44c0.68,1.16,1.5,2.2,2.26,3.3c0.74,1.11,1.42,2.26,2.03,3.43
					c0.32,0.6,0.65,1.2,0.98,1.81c0.19,0.34,0.39,0.63,0.61,0.94c3.6,10.22,7,20.52,9.82,30.98c1.45,5.4,2.79,10.85,3.97,16.32
					c-6.26-7.5-15.05-12.58-24.16-15.82c-9.58-3.4-19.98-4.62-30.09-3.42c-2.92,0.34-5.82,0.83-8.66,1.61
					c-1.47,0.41-2.87,0.93-4.27,1.53c-1.6,0.68-2.03,1.77-3.03,3.08c-0.42,0.54-0.42,1.66,0.47,1.79c0.82,0.11,1.5,0.33,2.19,0.44
					c11.4,4.59,20.19,13.67,31.41,18.6c5.85,2.57,12.3,3.91,18.69,3.45c6.72-0.47,12.56-2.57,18.17-6.3
					c0.11-0.07,0.18-0.16,0.26-0.24c1.55,7.71,2.84,15.49,3.77,23.32c1.02,8.4,1.85,16.81,2.39,25.24c0,0.11,0.03,0.21,0.05,0.31
					c-0.82,1.09-1.63,2.21-2.39,3.35c-0.73,1.09-1.4,2.23-2.05,3.37c0.02-3.82-0.35-7.65-1.16-11.42c-1.61-7.49-5.11-14.4-9.5-20.62
					c-0.87-1.22-3.29-0.54-2.63,1.12c0.05,0.11,0.08,0.23,0.11,0.34l0.02,0.02c2.45,6.44,3.03,13.96,2.81,20.78
					c-0.13,3.94-0.55,7.91-1.35,11.78c-1.31-4.9-3.34-9.58-6.1-13.88c-1.4-2.2-4.87-0.83-4.23,1.79c2.08,8.32,1.32,17.33-1.77,25.32
					c-1.5-2.95-2.74-5.96-2.52-9.52c0.15-2.21-2.6-2.95-4.03-1.68c-3.08,2.72-5.55,5.91-7.43,9.39
					c-2.23-9.41-7.24-18.19-13.98-25.03c-1.26-1.27-3.05,0.33-2.35,1.82c1.35,2.88,1.68,6.62,2.08,9.75
					c0.42,3.21,0.71,6.36,0.6,9.58c-0.13,4.1-0.37,8.14-1,12.13c-0.09-0.23-0.2-0.45-0.27-0.69c-0.79-2.51-1.05-5.01-0.87-7.63
					c0.16-2.55-3.39-3.27-4.6-1.25c-2.95,4.9-5.37,10.12-7.14,15.57c-0.14,0.42-0.23,0.84-0.36,1.25c-0.41-1.44-0.88-2.86-1.4-4.21
					c-1.21-3.16-2.68-6.25-4.47-9.11c-1.85-2.96-4.16-5.48-6.43-8.1c-1.02-1.17-2.89,0.08-2.52,1.48c2.5,9.23,4.61,18.91,5.03,28.51
					c0.37,8.36-0.97,17.38-5.14,24.72c-1.44,2.46,2.13,4.41,3.74,2.18c5.52-7.7,7.42-16.87,6.93-26.25
					c-0.3-5.96-1.65-11.59-3.36-17.14c0.78,1.85,1.46,3.72,2.02,5.55c1.89,6.18,2.4,12.22,2.4,18.65c0,3.15,4.74,3.16,4.85,0.01
					c0.01,0,0.02,0,0.03,0c0.09-0.91,0.15-1.83,0.17-2.75c0.63-7.05,2.81-14.09,5.89-20.56c0.67,2.95,1.88,5.72,3.85,7.7
					c0.27,2.31,3.93,2.84,4.95,0.26c2.53-6.43,4.27-13.7,3.56-20.67c-0.23-2.13-0.47-4.26-0.84-6.38
					c3.26,7.76,4.58,16.31,4.24,24.86c0,0.05-0.02,0.08-0.02,0.13h0.02c-0.13,3.58,5.32,3.55,5.52-0.02
					c0.32-5.79,2.47-11.41,5.85-16.08c0.16,1.24,0.37,2.47,0.73,3.69c0.44,1.48,1.03,2.95,1.71,4.34
					C163.42,734.63,164.66,735.64,166.15,736.78L166.15,736.78z M139.1,553.32c0,0.02,0,0.03,0.02,0.03c0,0,0-0.02,0.02-0.05
					c0.08-0.02,0.16-0.03,0.23-0.03c0.1-0.02,0.37-0.03,0.4-0.03c0.98-0.05,2-0.08,2.92-0.44c0.97-0.37,1.71-0.99,2.4-1.76
					c0.21-0.23,0.42-0.47,0.63-0.7c0.15,0.11,0.34,0.2,0.47,0.28c0.53,0.29,1.13,0.54,1.71,0.7c0.94,0.24,1.9,0.28,2.82,0.5
					c0.19,0.05,0.39,0.11,0.56,0.18c0.02,0.01,0.04,0.02,0.05,0.02c0.02,0.02,0.03,0.02,0.1,0.07c0.05,0.03,0.08,0.05,0.11,0.08
					c0.03,0.02,0.05,0.03,0.08,0.07c0.1,0.07,0.18,0.13,0.26,0.21v0.02c-0.35,1.56-0.77,3.17-1.18,4.82
					c-2.74-1.58-5.9-2.39-9.06-2.52c-0.89-0.03-1.77,0-2.66,0.08c0.02-0.23,0.03-0.47,0.05-0.7c0.02-0.21,0.03-0.42,0.06-0.63
					C139.09,553.4,139.09,553.37,139.1,553.32L139.1,553.32z M139.07,553.28c-0.02,0.02-0.03,0.05-0.06,0.05
					C138.91,553.33,138.99,553.3,139.07,553.28z M147.87,575.95c-5.71-3.63-9.6-9.58-13.42-15.13c0.81-0.2,1.63-0.49,2.55-0.68
					c0.79-0.16,1.06-0.2,1.97-0.24c0.79-0.05,1.58-0.03,2.37,0.03c0.19,0.02,0.37,0.03,0.56,0.05c0.08,0.02,0.24,0.03,0.24,0.03
					c0.34,0.07,0.66,0.11,1,0.2c0.77,0.16,1.53,0.39,2.27,0.67c0.19,0.07,0.37,0.15,0.55,0.21c0.02,0.02,0.15,0.07,0.21,0.11
					c0.34,0.16,0.66,0.33,1,0.5c0.74,0.41,1.42,0.89,2.13,1.35c0.05,0.03,0.11,0.05,0.16,0.08c-0.58,3.71-0.66,7.44,0.55,10.9
					c0.58,1.66,1.45,3.08,2.48,4.33C150.91,577.68,149.36,576.9,147.87,575.95L147.87,575.95z M173.21,539.97
					c0.11-0.13,0.23-0.24,0.35-0.36c0,0.02,0.02,0.02,0.03,0.02c0.02,0.03,0.11,0.11,0.21,0.2c0,0.05,0.06,0.2,0.15,0.29
					c0,0.03,0.06,0.2,0.11,0.33c-0.66,0.07-1.31,0.28-1.89,0.6C172.53,540.72,172.87,540.35,173.21,539.97L173.21,539.97z
					 M162.36,547.39c0-0.01,0.01-0.02,0.02-0.03c0.03-0.05,0.11-0.15,0.24-0.34c0.13-0.2,0.21-0.39,0.34-0.59
					c0.4-0.68,0.95-0.94,1.69-1.27c1.37-0.6,1.95-1.58,2.53-2.9c0.11-0.24,0.05-0.15,0.21-0.46c0.03-0.05,0.03-0.1,0.06-0.11
					c0.05-0.03,0.11-0.08,0.16-0.11c0.01,0,0.02-0.01,0.03-0.02c0.02,0,0.05,0,0.08-0.02h0.05c0.05,0,0.1,0.03,0.15,0.03v-0.02
					c0.02,0.02,0.03,0.02,0.06,0.03h-0.03c0,0,0.02,0.02,0.03,0.02H168c0,0,0.02,0,0.02,0.02c0.95,0.59,1.71,0.76,2.79,0.33
					c0.13-0.05,0.26-0.13,0.37-0.2c-0.61,0.55-1.14,1.24-1.55,2.07c-1.24,2.52-1.47,4.96-1.15,7.47c-0.53-0.46-1.08-0.91-1.66-1.33
					c-1.35-0.98-2.89-1.82-4.48-2.51C162.36,547.44,162.36,547.43,162.36,547.39L162.36,547.39z M172.03,575.54
					c-0.73,3.04-2.29,4.96-4.47,7c-0.47-0.26-1.02-0.41-1.58-0.33c-0.08,0.02-0.16,0.05-0.24,0.07c-0.71-0.15-1.42-0.26-2.06-0.42
					c-0.15-0.03-0.29-0.08-0.44-0.11c-0.64-0.41-1.27-0.83-1.89-1.29c-2.23-1.59-4.68-3.43-6.11-5.84c-2.77-4.67-1.05-11.11,0-16.05
					c0.29-1.4,0.61-2.78,1-4.17c0.23-0.8,0.45-1.59,0.69-2.39c0.03-0.11,0.19-0.47,0.27-0.75c0.82,0.31,2.53,0.8,2.85,0.94
					c1.18,0.54,2.31,1.2,3.37,1.94c4.27,2.95,7.29,7.29,8.51,12.37C172.66,569.48,172.72,572.58,172.03,575.54z M171.71,554.6
					c0.02-0.07,0.05-0.13,0.05-0.21c0.05-1.81,0.58-3.58,1.03-5.32c0.21-0.76,1.53-3.78,1.34-4c0.95,1.16,3.18,0.85,3.81-0.49
					c0.53-1.14,2.1-1.43,3.35-1.92c2.82,7.39,5.29,15.64,2.05,23.04c-1.32,3.01-3.56,5.14-5.92,7.23c0.13-1.89,0.08-3.81-0.18-5.66
					C176.61,562.53,174.66,558.2,171.71,554.6z M183.85,653.41c-2.47-0.8-4.95-1.58-7.42-2.38c-2.32-0.75-4.64-1.45-7-2.07
					c-1.26-0.33-2.52-0.65-3.77-0.98c-1.4-0.36-2.44-0.72-3.63,0.34c-0.47,0.39-0.63,1.11-0.47,1.66c0.45,1.5,1.6,1.74,2.93,2.15
					c1.24,0.39,2.48,0.76,3.73,1.16c2.34,0.73,4.68,1.35,7.05,1.94c2.52,0.63,5.03,1.27,7.56,1.89c0.05,0.02,0.11,0.03,0.14,0.05
					c-10.19,3.45-21.91,2.93-31.48-1.92c-8.16-4.15-15.34-10.61-23.64-14.48c2.69-0.62,5.39-1.17,8.14-1.46
					c6.08-0.63,12.24-0.39,18.24,0.7c11.03,1.99,20.8,6.93,29.77,13.46C183.96,653.44,183.9,653.43,183.85,653.41L183.85,653.41z
					 M200.25,617.89c2.81-4.04,6.14-7.68,9.6-11.16c2.66-2.7,5.77-5.35,8.24-8.36c0.15,0.47,0.31,0.94,0.48,1.37
					c0.58,1.4,1.14,2.82,1.66,4.26c0.97,2.72,1.79,5.53,2.19,8.38c0.73,5.14,0,10.59-3.23,14.79c-3.14,4.08-8.29,5.87-12.97,7.47
					c-2.95,1.01-5.9,1.99-8.82,3.06c-0.4,0.15-0.84,0.29-1.29,0.46c1.1-1.94,2.26-3.81,3.47-5.63c1.1-1.66,2.27-3.27,3.53-4.8
					c0.73-0.88,1.23-1.84,1.94-2.73c0.73-0.91,1.45-1.74,1.95-2.82c0.76-1.61-0.77-3.09-2.34-2.36c-1.08,0.5-1.87,1.22-2.73,2.03
					c-0.79,0.75-1.69,1.43-2.39,2.28c-1.48,1.82-2.89,3.73-4.14,5.73c-0.77,1.22-1.45,2.49-2.08,3.76
					C194.35,627.98,196.98,622.59,200.25,617.89L200.25,617.89z"/>
				<path class="st3" d="M907.92,754.19c-1.58,1.55-3.63,2.39-5.11,4.08c-1.4,1.59-2.71,3.29-3.9,5.04
					c-1.51,2.22-2.81,4.59-3.92,7.04c-1.36-3.05-2.3-6.28-2.73-9.63c-0.19-1.56-2.52-2.78-3.37-0.93c-1.58,3.42-2.97,6.95-4,10.59
					c-0.5,1.76-0.85,3.54-1.17,5.33c-1.72-4.12-3.31-8.27-4.36-12.68c-1.53-6.51-2.45-13.34-2.55-20.02
					c-0.03-2.02-2.89-1.98-3.08-0.04c-0.01,0-0.02,0-0.03,0c-0.03,0.33-0.05,0.65-0.08,0.98c-0.57,5.86-2.24,11.87-4.77,17.26
					c-0.59-2.89-0.6-5.84,0.25-8.76c0.42-1.43-1.47-2.55-2.5-1.46c-2.53,2.68-4.9,5.51-6.87,8.63c-0.06-2.17-0.29-4.33-0.68-6.38
					c-1.14-6.05-3.53-11.41-6.11-16.94c-0.73-1.56-2.9-0.65-2.98,0.81c-0.27,4.83-0.6,9.67-0.84,14.5
					c-0.06,1.25-0.06,2.51-0.06,3.77c-0.95-3.43-2.34-6.73-4.24-9.83c-0.77-1.27-3.13-0.86-2.98,0.81c0.29,3.3-0.5,6.48-1.11,9.71
					c-0.14,0.74-0.3,1.47-0.48,2.2c-1.66-5.63-2.75-11.42-3.22-17.26c12.27-6.31,21.1-18.93,26.29-31.41
					c6.97-16.74,7.93-35.28,8.68-53.2c0.23-5.4,0.44-10.81,0.63-16.22c0.19-5.61,0.81-11.44,0.27-17.04c-0.05-0.54-0.31-1-0.67-1.35
					c-0.43-1.04-1.63-1.65-2.76-1.38c-2.35,0.57-3.85,3.48-5.22,5.35c-1.53,2.1-2.95,4.28-4.35,6.48c-2.76,4.3-5.47,8.59-7.93,13.05
					c-1.03,1.88-2.01,3.79-2.95,5.71c0.58-2.61,1.13-5.23,1.64-7.87c1.44-7.49,2.69-15.04,3.68-22.6
					c0.98-7.62,1.52-15.26,1.45-22.94c-0.03-3.87-0.18-7.76-0.55-11.62c-0.33-3.4-1.14-6.64-2-9.91c2.03-0.73,4.06-1.99,5.9-2.95
					c2.16-1.11,4.27-2.38,6.1-4c4.05-3.61,6.45-8.77,5.76-14.22c-0.81-6.31-3.82-12.22-6.29-18c-2.82-6.59-5.6-13.2-8.47-19.76
					c-1.16-2.67-4.85-1.04-5,1.37c-0.06,0.88-0.21,1.74-0.4,2.6c-0.12-0.09-0.23-0.2-0.34-0.29c-1.11-0.88-2.27-1.66-3.58-2.25
					c-1.29-0.59-2.61-1.09-3.98-1.37c-0.92-0.2-1.92-0.42-2.85-0.21c-0.18,0.04-0.36,0.08-0.53,0.13c-1.11-0.33-2.26,0.21-2.95,1.18
					c-1.31,1.87-2.31,3.95-3.02,6.12c-0.31,0.96-0.51,1.92-0.65,2.91c-1.47-1.27-2.98-2.5-4.54-3.66c-2.39-1.77-4.79,1.16-4.43,3.45
					c0.9,5.94,1.18,11.98,0.87,17.98c-0.29,5.63-1.1,11.5,0.95,16.91c1.79,4.7,5.29,8.32,9.3,11.2c3.14,2.25,6.79,4.33,10.62,4.66
					c0.04,0.43,0.09,0.87,0.14,1.31c0.19,1.99,0.34,3.95,0.58,5.92c0.42,3.69,0.73,7.4,0.89,11.11c0.13,2.87,0.16,5.75,0.13,8.62
					c-0.23,4.07-0.56,8.14-1.03,12.19c-1.25,10.89-3.41,21.58-6.08,32.18c-2.18-10.27-5.36-20.33-9.58-29.97
					c-1.95-4.46-4.13-8.82-6.5-13.07c-1.19-2.12-2.42-4.23-3.73-6.28c-0.73-1.12-1.5-2.2-2.31-3.27c-0.79-1.06-1.74-1.76-2.77-2.59
					c-0.89-0.76-2.55-0.13-2.11,1.24c0.19,0.57,0.38,1.12,0.58,1.65c-0.05,2.28,0.42,4.58,0.63,6.84c0.23,2.34,0.37,4.7,0.47,7.06
					c0.23,4.74,0.19,9.47,0.03,14.21c-0.34,9.54-1.19,19.04-1.9,28.54c-1.24,16.65-1.87,33.57,1.74,49.99
					c1.94,8.75,5.08,17.66,10.22,25.04c0.14,0.21,0.31,0.37,0.47,0.52c-0.66,1.38-1.28,2.78-1.84,4.2
					c-1.27-6.7-3.96-13.09-7.97-18.65c-0.01-0.03-0.02-0.05-0.04-0.08c-0.01,0-0.01,0.01-0.02,0.01c-1.41-1.87-4.3-0.24-3.19,1.94
					c3.64,7.26,3.27,16.03-0.82,23.01c-1.19,1.94,1.84,3.71,3.02,1.76c2.33-3.9,3.6-8.25,3.85-12.67c1.54,4.83,2.26,9.92,2.04,15.09
					c-0.1,2.23,3.4,2.73,3.89,0.54c1.62-7.21,4.61-14.42,8.83-20.65c-0.79,4.55-1.21,9.16-1.22,13.77c-1.65,1.13-1.25,3.7,0.13,4.69
					c0.51,8.73,2.54,16.98,5.97,25.02c0.92,2.13,3.77,1.14,4.42-0.59c1.21-3.24,2.06-6.57,2.55-10.01c0.04-0.25,0.06-0.51,0.08-0.76
					c0.61,2.74,0.9,5.56,0.82,8.43c-0.05,1.5,1.45,2.47,2.81,2.16c4.79-1.14,4.68-6.95,4.74-10.85c0.06-3.18-0.01-6.37-0.12-9.55
					c2.17,7.95,1.91,16.75,1.16,24.7c-0.19,2.11,3.21,2.59,3.69,0.56c0.01,0,0.03,0.01,0.04,0.01c0.25-0.87,0.45-1.76,0.64-2.66
					c1.22-4.08,3.36-8.05,6.03-11.45c-0.21,3.18,0.41,6.37,2,9.27c0.73,1.35,2.45,0.81,2.95-0.39c1.31-3.24,2.55-6.54,3.66-9.86
					c0.26,2.58,0.69,5.15,1.31,7.75c1.58,6.66,3.92,13.72,7.89,19.32c1.02,1.43,3.52,1.06,3.48-0.96
					c-0.08-5.06,1.36-10.48,3.35-15.41c0.82,3.38,2.08,6.63,3.78,9.71c0.95,1.72,3.29,1.14,3.87-0.5c1.34-3.73,2.97-7.31,5.11-10.64
					c0.7-1.08,1.45-2.11,2.24-3.12c-2.14,7.24-2.54,14.93-1.12,22.42c0.68,3.61,6.63,2.03,5.5-1.53c-2.92-9.18-2.6-18.81,0.89-27.78
					C910.38,754.17,908.71,753.41,907.92,754.19L907.92,754.19z M851.82,532.18c0.97-1.81,1.89-3.64,2.66-5.51
					c1.54,3.58,3.09,7.16,4.63,10.73c2.27,5.27,5.08,10.58,6.45,16.19c0.56,2.29,0.95,5.17,0.44,7.5c-0.55,2.41-2.19,4.05-4.22,5.29
					c-1.94,1.17-4.05,2-6.16,2.82c-1.22,0.46-2.5,0.86-3.7,1.4c0.28-1.26,0.54-2.52,0.65-3.8c0.23-2.47-0.08-5-0.44-7.44
					c-0.74-5.11-2.4-9.96-4.82-14.52c-0.14-0.26-0.3-0.51-0.44-0.77C847.48,539.93,849.91,535.75,851.82,532.18L851.82,532.18z
					 M836.95,530.08c0.18-0.44,0.29-0.88,0.42-1.33c0.27-0.98,0.56-1.95,0.9-2.91c0.08-0.23,0.16-0.44,0.26-0.65
					c-0.18,0.46,0.08-0.18,0.11-0.26c0.23-0.5,0.47-0.98,0.73-1.46c0.03-0.05,0.06-0.1,0.09-0.15c0.21,0.17,0.41,0.34,0.61,0.52
					c0.95,0.85,1.84,1.76,2.64,2.73c0.1,0.11,0.18,0.23,0.27,0.34c0.01,0.02,0.06,0.08,0.1,0.14c0.05,0.07,0.12,0.17,0.14,0.19
					c0.11,0.15,0.21,0.29,0.32,0.44c0.35,0.5,0.68,1.03,1,1.56c0.31,0.54,0.58,1.09,0.87,1.63c0.25,0.47,0.5,1.01,0.82,1.47
					c-0.92,2.02-1.88,4.13-2.35,6.31c-0.04,0.18-0.05,0.37-0.08,0.56c-2.13-3.03-4.55-5.86-7.18-8.46
					C836.74,530.55,836.85,530.34,836.95,530.08L836.95,530.08z M846.99,573.39c-3.75-0.77-7.39-3.32-10.16-5.67
					c-3.37-2.86-5.97-6.43-6.45-10.95c-0.53-5.01,0.52-10.14,0.58-15.15c0.04-2.78-0.07-5.55-0.28-8.31
					c4.52,4.1,8.47,8.83,11.43,14.21c2.16,3.92,3.82,8.17,4.84,12.55c0.52,2.23,0.76,4.48,1.03,6.74c0.24,2.03,0.52,3.94,0.42,5.94
					C847.85,572.78,847.33,572.99,846.99,573.39L846.99,573.39z M834.34,714.34c-0.19,0.81-0.4,1.62-0.6,2.44
					c-1.94,2.31-3.73,4.7-5.35,7.24c-3.52-6.29-6.25-12.83-7.99-19.9c-1.9-7.71-2.74-15.64-2.98-23.58
					c-0.56-17.77,2.03-35.39,2.53-53.13c0.15-5.26,0.15-10.53-0.16-15.78c-0.08-1.4-0.2-2.8-0.34-4.2c1.91,3.5,3.69,7.08,5.32,10.74
					c3.42,7.68,6.16,15.7,8.27,23.84c4.29,16.5,5.82,33.73,4.56,50.74c-0.35,4.83-0.95,9.65-1.81,14.42
					C835.37,709.57,834.89,711.96,834.34,714.34L834.34,714.34z M837.81,722c1.98-3.42,2.49-8.21,3.21-12.01
					c0.84-4.39,1.47-8.82,1.92-13.26c0.82-7.98,1-16.06,0.54-24.07c3.75-8.5,7.93-16.9,12.53-24.96c2.47-4.31,5.06-8.61,7.97-12.63
					c1.33-1.82,2.72-3.61,4.11-5.39c-0.13,2.29-0.19,4.59-0.32,6.87c-0.26,4.74-0.52,9.47-0.79,14.19
					c-0.5,8.92-0.97,17.83-1.94,26.72c-1.73,15.75-5.63,31.76-15.11,44.7c-2.26,3.08-4.87,5.92-7.72,8.45
					c-1.71,1.5-3.53,2.78-5.41,3.97C836.78,730.37,837.12,726.16,837.81,722L837.81,722z"/>
				<path class="st3" d="M711.54,418.77c-2.42-1.99-5.89-3.04-8.76-1.89c-0.19,0.08-2.06-1.2-2.41-1.35
					c-1.08-0.45-2.25-0.62-3.41-0.66c-1.52-0.05-3.03,0.1-4.55,0.04c-1.1-0.04-2.22-0.2-3.25-0.62c-0.97-0.41-1.67-1.15-2.6-1.61
					c-2.66-1.33-5.69-1.8-8.63-1.45c-3.18,0.37-5.73,1.88-8.54,3.28c-4.25,2.14-4.95,7.73-3.84,12c0.71,2.82,2.08,5.24,3.58,7.63
					c-1.76,2.99-2.52,6.57-2.16,10.03c0.18,1.7,0.82,3.24,1.04,4.93c0.27,2.08-0.09,4.37,0.5,6.34c0.29,0.96,0.69,1.89,1.21,2.75
					c0.16,0.26,1.78,2.12,1.75,2.21c-1.26,3.78-0.48,8.12,1.98,11.23c-1.55,2.57-1.87,6.09-0.95,10.32
					c0.98,4.49,2.81,8.84,5.29,12.69c0,1.04,0.66,2,1.69,2.31c0.08,0.03,0.16,0.06,0.26,0.08c0.32,0.18,0.68,0.26,1.05,0.28
					c1.87,0.5,3.81,0.78,5.76,0.78c2.58,0,5.14-0.47,7.55-1.33c0.35,0.2,0.74,0.29,1.13,0.29c0.42,0,0.84-0.11,1.23-0.33
					c0.4-0.26,0.76-0.54,1.06-0.88c1.55-1.72,1.44-4.34,0.63-6.2c-0.31-0.65-0.66-1.25-0.98-1.77c-0.37-0.63-0.74-1.22-0.85-1.72
					c-0.15-0.54-0.1-1.22-0.03-2c0.06-0.91,0.13-1.94-0.05-2.99c-0.16-0.98-0.48-1.82-0.79-2.57c-0.24-0.67-0.48-1.29-0.52-1.77
					c-0.03-0.49,0.11-1.12,0.26-1.79l0.13-0.57c0.69-3.29,0.5-6.77-0.47-10.01c0.31,0.03,0.61,0.07,0.95,0.07
					c0.63,0,1.29-0.05,1.95-0.13c0.97-0.13,1.9-0.34,2.81-0.54c1.31-0.29,2.53-0.55,3.69-0.57c0.63,0,1.23,0.05,1.82,0.11
					c1.26,0.1,2.68,0.23,4.13-0.06c0.32-0.07,0.84-0.18,1.39-0.42c0.92-0.39,1.48-1.29,1.48-2.25c0.74-0.99,1.24-2.25,1.4-3.6
					c0.21-1.77-0.1-3.4-0.44-4.88c0.37-3.06-1.87-6.15-5.14-6.92c-1.79-0.39-3.76-0.11-5.61,0.78c0.08-0.04-3.79-2.54-4.28-2.71
					c-1.86-0.64-3.64-0.3-5.54-0.37c-0.17-0.87,0.14-2.03,0.15-2.97c0-1.08-0.09-2.15-0.27-3.21c0.14,0.82,5.94,0.79,6.67,0.75
					c1.48-0.08,2.98-0.71,4.47-0.42c1.61,0.32,2.82,1.19,4.57,1.19c2.4,0,4.81-0.98,6.48-2.82c0.35-0.39,0.52-0.88,0.56-1.37
					C717.78,428.72,715.91,422.4,711.54,418.77L711.54,418.77z"/>
				<path class="st4" d="M711.49,432.64c-1.21,0.91-3.02,1.07-4.31,0.31l-0.21-0.11c-0.37-0.24-0.94-0.59-1.66-0.75
					c-1.13-0.26-2.11,0-2.79,0.18c-3.76,0.93-7.85,0.37-11.22-1.55c-1.16-0.65-2.63-0.24-3.29,0.94c-0.1,0.18-0.16,0.37-0.23,0.59
					c-0.37,0.65-0.47,1.46-0.13,2.21c1.42,3.29,1.48,7.23,0.16,10.53c-0.24,0.59-0.23,1.22-0.02,1.77c0.29,1.14,1.37,1.94,2.56,1.82
					c0.97-0.08,1.85-0.31,2.71-0.52c0.71-0.18,1.39-0.34,2-0.41c2.18-0.2,4.45,0.96,5.55,2.85l1.39,2.34l2.16-1.66
					c1.24-0.96,2.61-1.38,3.68-1.16c0.77,0.18,1.35,0.9,1.4,1.43c-0.11,0.39-0.15,0.81-0.05,1.24c0.31,1.29,0.61,2.62,0.47,3.78
					c-0.1,0.8-0.5,1.51-0.98,1.72c-0.26,0.1-0.47,0.24-0.66,0.42c-0.47-0.02-0.98-0.05-1.52-0.1c-0.74-0.07-1.5-0.15-2.29-0.13
					c-1.68,0.02-3.21,0.36-4.69,0.68c-0.81,0.18-1.61,0.36-2.43,0.46c-1.74,0.26-3.29,0-4.21-0.75c-0.03-0.02-0.06-0.05-0.1-0.08
					c-0.86-0.97-2.45-1.11-3.41-0.2c-2,1.9-0.08,4.68,0.62,6.62c0.94,2.62,1.19,5.59,0.58,8.32l-0.11,0.5
					c-0.21,0.93-0.44,1.99-0.37,3.16c0.08,1.25,0.5,2.33,0.85,3.25c0.23,0.59,0.44,1.12,0.52,1.59c0.08,0.5,0.05,1.16,0,1.85
					c-0.08,1.18-0.2,2.52,0.16,3.66c0.4,1.28,1.56,2.49,1.83,3.76c0.16,0.77-0.27,0.72-1.04,1c-0.66,0.23-1.33,0.42-2,0.57
					c-1.31,0.29-2.66,0.42-4,0.4c-1.04-0.01-2.26,0.12-3.28-0.27c-1.23-0.46-1.71-1.67-2.32-2.74c-1.63-2.89-2.84-6.02-3.56-9.27
					c-0.45-2.08-0.9-5.83,1.08-7.62l2.14-1.92l-2.26-1.81c-2.45-1.97-3.21-5.94-1.66-8.69l1.14-2l-1.93-1.25
					c-1.74-1.14-2.85-3.24-2.82-5.4c0-0.33,0.03-0.67,0.05-1.01c0.06-0.67,0.11-1.42,0.03-2.2c-0.08-1.03-0.37-1.95-0.63-2.77
					c-0.1-0.29-0.18-0.59-0.27-0.9c-0.92-3.27-0.23-6.98,1.82-9.7l0.95-1.5l-0.92-1.43c-1.58-2.49-3.08-4.85-3.74-7.44
					c-0.91-3.56,0.62-5.76,3.6-7.59c3.13-1.93,7.29-2.3,10.6-0.64c0.65,0.31,1.26,0.7,1.87,1.07c0.05,0.02,0.1,0.05,0.15,0.08
					c0.02,0.11,0.02,0.24,0.05,0.36c0.32,1.32,1.63,2.12,2.92,1.81c0.5-0.13,0.98-0.24,1.47-0.33c1.47-0.28,2.92-0.41,4.35-0.39
					c1.81,0.02,4.21,0.36,5.35,1.79l1.63,2.03l1.9-1.77c0.94-0.88,3.02-0.28,4.35,0.83C711.3,424.89,712.56,429.12,711.49,432.64
					L711.49,432.64z"/>
				<path class="st3" d="M741.57,442.06c-0.13-1.22-0.16-2.47-0.19-3.79c-0.05-2.59-0.1-5.27-1-7.94c-0.98-2.88-3.26-5.35-5.93-6.46
					c-2.36-0.99-6.08-1.4-8.19,0.29c-2.79,2.23-2.94,6.54-2.92,7.81c0.06,4,0.63,7.99,1.69,11.86c-2.4,2.07-3.21,5.7-2.85,8.87
					c0.11,1.09,0.32,2.16,0.52,3.19c0.34,1.76,0.66,3.43,0.44,4.95c-0.1,0.57-0.26,1.17-0.4,1.76c-0.53,1.97-1.18,4.43,0.11,6.77
					c0.63,1.14,1.41,1.73,0.77,3.03c-0.42,0.86-0.79,1.68-1.01,2.65c-0.43,1.85-0.45,3.8-0.07,5.67c0.73,3.62,3.11,6.92,6.8,7.8
					c0.71,0.17,1.43,0.25,2.16,0.25c1.4,0,2.81-0.21,4.23-0.24c2.1-0.05,4.05-1.49,4.94-3.38c1.35-2.86-0.05-5.59-0.27-8.47
					c-0.11-1.48,0.31-3.12,0.74-4.87c0.47-1.89,0.95-3.81,0.88-5.77c-0.03-0.94-0.14-2.03-0.49-2.91c-0.34-0.86-1.01-1.52-0.83-2.52
					c0.19-1.08,1.25-2.07,1.66-3.13c0.48-1.25,0.72-2.57,0.78-3.91c0.12-2.54-0.39-5.05-0.88-7.53
					C741.97,444.65,741.71,443.33,741.57,442.06L741.57,442.06z"/>
				<path class="st4" d="M737.2,456.7c-0.94,2.21-1.98,4.34-0.87,6.99c0.47,1.12,0.88,1.85,0.83,3.11c-0.06,1.29-0.42,2.56-0.73,3.8
					c-0.53,2.07-0.88,4.21-0.82,6.36c0.06,1.93,1.08,4.06,0.72,5.96c-0.05,0.26-0.39,0.59-0.66,0.72c-0.56-0.55-1.58-0.91-2.33-0.61
					c-0.42,0.17-0.77,0.47-1.16,0.7c-1.22,0.74-2.64-0.27-3.55-1.16c-1.4-1.36-1.68-4.01-1.41-5.86c0.27-1.83,1.52-3.36,1.73-5.2
					c0.21-1.91-1.35-3.03-1.79-4.75c-0.5-1.97,0.62-3.81,0.81-5.73c0.21-2.06-0.17-4.05-0.54-6.07c-0.18-0.96-0.35-1.87-0.45-2.77
					c-0.14-1.25-0.04-2.71,0.58-3.83c0.69-1.24,2.1-1.49,3.33-1.96c-1.49-4.76-2.64-9.45-2.72-14.48c-0.01-0.88-0.08-2.5,0.69-3.09
					c0.79-0.61,2.85-0.82,3.75-0.44c1.37,0.57,2.68,2.02,3.19,3.55c0.86,2.55,0.64,5.25,0.78,7.9c0.22,4.24,1.62,8.35,1.72,12.56
					C738.32,453.95,737.78,455.34,737.2,456.7L737.2,456.7z"/>
				<path class="st3" d="M737.99,499.29c0.71-1.35,0.71-2.98,0-4.44c-0.79-1.68-2.37-2.9-4.14-3.22c-1.89-0.33-3.92,0.26-5.77,1.64
					c-0.74-0.37-1.6-0.52-2.48-0.37c-1.47,0.24-2.79,1.22-3.47,2.54c-0.97,1.95-0.56,4.04-0.16,5.44l0.16,0.59
					c0.24,0.81,0.47,1.58,0.4,2.13c-0.03,0.34-0.15,0.68-0.24,1.04c-0.35,1.35-0.9,3.38,0.55,5.24c0.03,0.02,0.05,0.05,0.06,0.07
					c-0.6,1.79-0.45,3.69,0.4,5.19c0.92,1.58,2.64,2.6,4.4,2.6c0.31,0,0.61-0.03,0.9-0.1c0.23,0.21,0.48,0.37,0.79,0.49
					c0.74,0.28,1.52,0.39,2.27,0.39c2.47,0,4.92-1.29,6.18-3.43c1.32-2.2,1.29-5,0.08-7.19
					C739.36,505.23,739.42,501.89,737.99,499.29L737.99,499.29z"/>
				<path class="st4" d="M733.3,509.74c0.73,0.67,0.92,1.99,0.4,2.83c-0.5,0.85-1.74,1.3-2.66,0.96c-0.27-0.1-0.55-0.15-0.84-0.15
					c-0.65-0.65-1.63-0.88-2.53-0.55c-0.06-0.02-0.15-0.08-0.18-0.15c-0.18-0.33-0.16-0.86,0.11-1.5c0.18-0.41,0.5-1.16,0.35-2.07
					c-0.16-1.14-0.85-1.86-1.24-2.21c0.05-0.26,0.16-0.7,0.24-1.01c0.15-0.52,0.29-1.11,0.37-1.74c0.18-1.55-0.24-2.96-0.56-4.1
					l-0.16-0.52c-0.24-0.85-0.27-1.35-0.24-1.61c0.29,0.13,0.6,0.18,0.9,0.2c0.94,0.6,2.18,0.54,3-0.29l0.35-0.36
					c0.82-0.76,1.74-1.16,2.4-1.03c0.34,0.05,0.64,0.49,0.64,0.63c-0.24,0.37-0.69,1.09-0.73,2.03c-0.05,1.01,0.39,1.79,0.63,2.21
					l0.1,0.18c0.85,1.43,0.63,3.53-0.52,4.77l-1.66,1.81L733.3,509.74L733.3,509.74z"/>
				<path class="st3" d="M639.6,292.92c0.03-0.11,0.13-0.03-0.02,0.03C639.6,292.94,639.6,292.92,639.6,292.92z"/>
				<path class="st2" d="M661.76,356.89c3.72,3.55,9.05,6.15,14.14,6.83c2.81,0.37,5.64,0.11,8.37-0.59c1.4-0.36,2.74-0.78,4.1-1.3
					c0.64-0.24,1.31-0.54,1.98-0.73c0.68-0.2,1.35-0.21,2.02-0.46c0.74-0.26,1.77,0.31,1.92,1.11c0.37,2.05,0.45,4.17-0.03,6.2
					c-0.18,0.8-0.52,1.51-0.94,2.2c0.4,0.26,0.77,0.59,1.06,0.99c1.79,2.52,0.82,6.09-0.65,8.48c-3.34,5.42-9.69,7.88-15.72,8.54
					c-1.26,0.15-2.29-1.06-2.45-2.18c-0.19-1.3,0.63-2.33,1.79-2.77c3.23-1.2,6.66-1.9,9.58-3.84c1.52-1.01,2.77-2.25,3.74-3.79
					c0.29-0.46,1.14-1.5,0.92-2.03c-0.15-0.36-0.44-0.57-0.66-0.31c-1.53,1.84-4.06-0.78-2.6-2.6l-0.02-0.02
					c0.02-0.02,0.03-0.02,0.03-0.03c0.92-1.12,1.21-2.62,1.76-3.95c-0.1,0.05-0.18,0.1-0.26,0.15c-1.48,0.72-3.05,1.37-4.66,1.74
					c-3.37,0.78-6.81,0.89-10.22,0.37c-6.61-0.99-11.92-4.54-15.84-9.93C657.94,357.34,660.45,355.63,661.76,356.89L661.76,356.89z"
					/>
				<path class="st2" d="M627.45,318.4c0.44-0.46,0.97-0.6,1.58-0.67l2.32-0.24c0.77-0.08,1.55-0.05,2.32-0.07
					c0.77-0.02,1.55-0.02,2.32-0.03c1.03,0,2.21-0.16,3.11,0.46c0.68,0.47,1.13,1.12,1.13,1.99c0,0.88-0.47,1.48-1.13,1.99
					c-0.85,0.65-2.1,0.5-3.11,0.52l-2.32,0.05c-0.77,0.02-1.55,0.07-2.32,0.02c-0.77-0.05-1.55-0.11-2.32-0.16
					c-1.26-0.08-2.19-0.96-2.24-2.25C626.77,319.44,627.06,318.79,627.45,318.4L627.45,318.4z"/>
				<path class="st3" d="M441.35,176c0.15,0.11,0.24,0.2,0.31,0.26c-0.06-0.03-0.13-0.1-0.24-0.18c-0.03-0.03-0.06-0.05-0.11-0.08
					L441.35,176L441.35,176z"/>
				<path class="st3" d="M282.7,255.57c-0.02,0.07-0.02,0.13-0.03,0.2c0-0.02-0.02-0.05-0.03-0.07
					C282.78,254.89,282.8,254.86,282.7,255.57z"/>
				<path class="st2" d="M369.07,363.2c-1.35-0.42-3.24-0.81-4.23-1.95c-0.24-0.29-0.44-0.93-0.53-0.93
					c2.73-1.76,2.18-5.87-0.9-6.85c-1.39-0.44-2.31-1.72-2.45-3.24c-0.02-0.24,0.13-1.07,0.16-1.17c0.32-0.85,0.79-1.51,0.79-2.47
					c0-1.11-0.55-2.05-1.06-2.98c-3.08-5.42-5.98-10.87-8.47-16.6c-4.79-11.05-8.22-22.81-10.27-34.69
					c-0.56-3.34-1.21-6.66-1.63-10.01c-0.31-2.46-0.45-4.93-0.79-7.36c0.06-0.16,0.16-0.31,0.23-0.47c0.58-1.53-0.08-2.83-1.19-3.6
					c-1.02-1.59-3.63-1.63-4.5,0.13c-0.23,0.21-0.44,0.47-0.61,0.78c-1.56,2.88-4.29,4.67-7.51,5.14c-1.73,0.24-5.16-0.05-5.9-1.86
					c-0.71-1.74-2.37-3.17-4.4-2.52c-2.85,0.93-5.84,0.9-8.5-0.65c-1.85-1.07-3.08-2.46-4.16-4.1c0.44-2.51-1.47-5.47-4.6-4.48
					c-3.9,1.22-8.1-1.11-8.35-5.45c-0.08-1.29,0.35-2.52,0.02-3.79c-0.39-1.46-1.4-2.67-2.66-3.45c-1.94-1.22-4.18-1.92-6.14-3.17
					c-3.76-2.41-7.08-5.66-9.53-9.41c-2.05-3.12-3.32-6.61-4.74-10.02c0.52-0.68,0.65-1.61,0.45-2.41c-0.5-2.02-2.37-2.36-4.03-3.01
					c-0.11-0.05-0.18-0.07-0.21-0.08c0,0-0.06-0.03-0.24-0.11c-0.24-0.11-0.48-0.23-0.73-0.34c-0.53-0.26-1.05-0.54-1.56-0.85
					c-2.11-1.22-3.4-2.21-5.13-3.97c-0.69-0.7-1.6-1.72-1.95-2.25c-0.74-1.09-1.11-1.79-1.39-2.83c-0.13-0.47-0.03-0.03-0.05-0.31
					c-0.02-0.2,0-0.39,0.02-0.57c0.02-0.07,0.08-0.47,0.1-0.55c0.02-0.11,0.02-0.16,0.02-0.2c0.03-0.03,0.06-0.08,0.11-0.18
					c0.11-0.21,0.24-0.42,0.37-0.63c0.06-0.07,0.11-0.13,0.18-0.2c0.42-0.41,0.81-0.81,1.23-1.22c0.16-0.16,0.29-0.34,0.4-0.52
					c0.24-0.1,0.5-0.18,0.74-0.26c1.63-0.5,3.27-0.99,4.92-1.4c2.98-0.75,6.03-1.17,9.11-1.07c2.53,0.1,5.08,0.6,7.48,1.46
					c1.21,0.44,2.35,1.06,3.44,1.76c1.16,0.76,2.1,1.86,3.34,2.51c2.69,1.42,5.4-1.12,4.63-3.79c0.71-0.16,1.44-0.33,2.16-0.39
					c2.34-0.23,4.74-0.15,7.05,0.29c2.32,0.44,4.58,1.17,6.68,2.28c2.27,1.22,4,3.08,6.19,4.36c0.89,0.52,2.24,0.63,3.11,0
					c6.27-4.56,15.45-1.45,19.82,4.25c0.92,1.2,2.95,0.96,3.92,0c0.52-0.5,0.74-1.09,0.77-1.68c0.18,0,0.35,0.02,0.53,0.02
					c1.53,0.03,3.05-0.02,4.58,0.13c0.21,0.02,0.4,0.05,0.61,0.07c0.4,0.08,0.81,0.15,1.19,0.23c0.69,0.15,1.39,0.34,2.06,0.55
					c0.71,0.21,1.39,0.46,2.08,0.72c0.1,0.05,0.69,0.29,0.79,0.34c0.37,0.18,0.73,0.37,1.08,0.57c1.64,0.89,3.97,0.47,4.9-1.3
					c0.63-1.19,0.6-2.73-0.13-3.86c0.02-0.07,0.03-0.11,0.05-0.18c0.42-1.17,1.02-2.33,1.76-3.32c0.68-0.91,1.5-1.79,2.39-2.49
					c0.42-0.33,0.87-0.65,1.35-0.89c0.31-0.15,1.44-0.33,1.1-0.6c1.56,1.29,4.84,1.2,5.19-1.38c0.44-3.06,2.79-5.84,6.13-4.87
					c1.52,0.44,3.18-0.54,3.6-2.07c0.94-3.42,3.16-6.07,6.22-7.76c2.85-1.58,5.53-1.68,8.53-1.43c0.61,0.29,1.31,0.39,1.94,0.13
					c1.1-0.11,2-1.14,2.21-2.18c2.74-2.9,6.19-5,10.05-6.02c2.11-0.57,4.32-0.8,6.5-0.59c2.08,0.21,3.42,1.03,4.9,2.42
					c1.24,1.17,2.79,1.06,3.9,0.29c0.03,0,0.08,0.02,0.11,0.02c1.56,0.07,2.84-1.27,4.18-1.99c1.14-0.62,2.47-0.94,3.74-1.14
					c2.29-0.34,4.71,0.07,6.72,1.37c1.55,1.01,2.9,2.39,5.02,1.84c1.56-0.41,2.63-1.77,4.27-1.99c2.73-0.34,4.79,1.77,5.69,4.15
					c1.21,3.21,4.98,2.86,6.11,0.44c1.47-1.17,3.02-2.28,4.74-2.85c2.02-0.67,4.05-0.85,5.93-0.42c0.98,0.21,1.94,0.55,2.6,0.88
					c0.89,0.46,1.95,1.14,2.45,1.59c0.4,0.36,0.79,0.73,1.15,1.12c0.18,0.21,0.35,0.41,0.52,0.62c0.02,0.02,0.18,0.23,0.19,0.26
					c0.4,0.6,0.71,1.19,1.06,1.76c-0.02,0.08-0.05,0.16-0.06,0.24c-0.27,1.9,1.02,3.3,2.95,2.96c1.1-0.2,1.81-1.12,2.66-1.74
					c0.85-0.6,1.76-1.14,2.69-1.59c0.85-0.42,1.44-0.67,2.37-0.96c0.5-0.16,1-0.29,1.52-0.41c0.23-0.05,0.45-0.1,0.68-0.15
					c0.05-0.02,0.48-0.08,0.48-0.08c1.94-0.26,3.76-0.29,5.47,0.34c0.64,0.24,1.13,0.59,1.61,1.17c0,0.05,0.27,0.47,0.29,0.47
					c0.26,0.55,0.47,1.14,0.73,1.71c-0.32,0.73-0.58,1.5-0.73,2.33c-0.47,2.68,2.89,4.31,4.45,1.89c2.39-3.71,5.76-5.81,10-6.77
					c4.42-0.99,9.01-1.4,13.32,0.18c0.69,0.26,1.35,0.18,1.95-0.1c1.69-0.11,2.89-1.09,4.37-2.28c1.52-1.2,3.29-2.1,5.11-2.72
					c3.63-1.22,7.47-1.3,11.13-0.18c1.9,0.59,3.5,1.9,5.37,2.42c2.39,0.65,4.27-1.07,6.55-1.46c3.03-0.54,7.89-1.07,10.03,1.56
					c1.42,1.74,3.52,1.11,4.61-0.36c1.68-0.36,3.42-1.12,4.71-1.45c2.5-0.63,5.08-0.72,7.5-0.02c2.03,0.59,3.47,1.45,4.98,3.22
					c0.06,0.08,0.1,0.1,0.11,0.11c0.02,0.05,0.05,0.08,0.1,0.16c0.13,0.2,0.26,0.39,0.39,0.6c0.15,0.26,0.29,0.52,0.42,0.78
					c0.05,0.1,0.06,0.13,0.08,0.15c0.02,0.03,0.03,0.1,0.05,0.13c0.19,0.57,0.31,1.14,0.45,1.71c0.1,0.41,0.23,0.83,0.44,1.2
					c0.06,0.13,0.11,0.18,0.14,0.23c0,0.05,0.02,0.11,0.05,0.21c0.05,0.2,0.16,0.34,0.24,0.5c-0.9,1.69-1.53,3.58-2.5,5.22
					c-1.23,2.07-2.68,4.12-4.29,5.89c-1.61,1.79-3.43,3.43-5.43,4.78c-2.11,1.42-4.53,2.15-6.64,3.5c-2.68,1.71-2.13,5.57-2.77,8.4
					c-0.66,2.91-1.76,5.6-3.31,8.17c-2.76,4.61-7.21,7.29-12.48,7.76c-1.15,0.1-2.13,0.68-2.58,1.68c-0.08,0.08-0.16,0.15-0.24,0.23
					c-2.5,2.85-4.43,7.53-8.77,6.95c-1.64-0.21-3.03,1.32-3.53,2.72c-0.81,2.29-3,4.62-5.74,5.06c-2.73,0.44-5.53-0.94-7.06-3.22
					c-1.02-1.53-2.97-2.2-4.61-1.22c-1.44,0.85-2.31,3.17-1.21,4.65c0.81,1.09,1.74,2.07,2.77,2.91c-0.44,3.09-0.15,6.25,0,9.37
					c0.16,3.84,0.13,7.68,0.05,11.52c-0.15,7.44-0.66,14.84-1.85,22.18c-2.45,15.07-7.29,29.24-13.66,43.04
					c-0.97,2.1-0.58,4.64,1.53,5.87c0.05,0.03,0.1,0.03,0.13,0.07c0,0.02,0,0.05,0.02,0.07c-0.02,0.07-0.03,0.13-0.05,0.21
					s-0.08,0.23-0.11,0.33c-0.06,0.11-0.13,0.23-0.19,0.36c-0.06,0.13-0.1,0.2-0.11,0.23c-0.03,0.03-0.06,0.08-0.16,0.18
					c-0.32,0.36-0.66,0.7-1.03,1.01c-0.68,0.59-1.63,1.43-2.47,2.26c-1.31,1.3-0.68,3.09,0.68,3.92c0,0.03,0.06,0.08,0.18,0.18
					c0.05,0.1,0.16,0.28,0.21,0.34c0.06,0.18,0.1,0.36,0.15,0.55c-0.02,0.08,0.02,0.46,0.02,0.52c0,0.1,0,0.15,0.02,0.18
					c-0.03,0.02-0.05,0.07-0.1,0.16c-0.08,0.18-0.1,0.23-0.08,0.23c-0.02,0.03-0.03,0.07-0.08,0.13c-0.03,0.07-0.32,0.42-0.32,0.46
					c-0.19,0.21-0.42,0.41-0.63,0.62c-0.08,0.08-0.18,0.15-0.26,0.23c-0.02,0,0,0-0.03,0.02c-0.24,0.18-0.5,0.34-0.77,0.49
					c-0.11,0.07-0.23,0.13-0.34,0.18c-0.34,0.13-0.68,0.24-1.02,0.34c-0.35,0.1-0.71,0.18-1.08,0.24c-0.16,0.03-0.34,0.07-0.52,0.1
					h-0.1c-0.81,0.1-1.61,0.15-2.4,0.24c-1.47,0.18-2.92,1.11-3.16,2.64c-0.5,0.39-0.92,0.93-1.18,1.64
					c-3.24,9.02-10.87,15.62-18.85,20.37c-4.48,2.67-9.21,4.96-14.14,6.7c-2.45,0.86-4.93,1.63-7.43,2.33
					c-1.42,0.41-3.05,0.68-4.47,1.25c-0.65-0.16-1.34-0.18-2.03-0.05c-7.66,1.5-15.72,1.04-23.38-0.21
					c-7.48-1.24-14.93-3.01-22.06-5.65c-6.58-2.42-12.8-5.76-18.43-9.99c-2.66-2-5.03-4.31-7.32-6.72c-2.24-2.36-4.61-4.8-6.45-7.49
					C371.53,365.09,370.78,363.72,369.07,363.2L369.07,363.2z"/>
				<ellipse class="st2" cx="391.73" cy="701.98" rx="75.42" ry="73.24"/>
				<path class="st2" d="M327.95,611.8c1.18,0.23,2.37,0.39,3.52,0.57c2.84,0.42,5.68,0.81,8.53,1.16c2.74,0.34,5.48,0.55,8.22,0.72
					c2.11,0.13,4.35,0.39,6.5,0.33c0.06,0.72,0.24,1.45,0.4,2.13c0.11,0.52,0.21,1.06,0.37,1.56c0.15,0.44,0.35,0.88,0.53,1.3
					c0.37,0.93,0.76,1.87,1.13,2.8c0,0.02,0.02,0.03,0.02,0.05c-4.31,0.68-8.74,0.65-13.05-0.05c-3.29-0.54-6.39-1.55-9.51-2.64
					c-1.73-0.6-3.4-1.37-5.08-2.1C328.9,615.71,328.39,613.77,327.95,611.8L327.95,611.8z"/>
				<path class="st2" d="M360.43,613.85c4.24-3.58,8.47-7.14,12.71-10.74c2.29-1.94,4.6-3.89,6.89-5.83c0.84-0.7,1.66-1.4,2.48-2.1
					c0.15,1.71,0.34,3.4,0.69,5.06c0.06,0.31,0.16,0.57,0.29,0.83c-1.4,4.15-3.71,7.66-6.97,10.89c-3.76,3.71-7.79,6.88-12.74,8.74
					c-0.13-0.33-0.27-0.65-0.42-0.98c-0.4-0.93-0.81-1.84-1.21-2.77c-0.19-0.42-0.35-0.86-0.56-1.29c-0.24-0.47-0.56-0.91-0.85-1.35
					C360.64,614.18,360.53,614.01,360.43,613.85L360.43,613.85z"/>
				<path class="st2" d="M423.32,602.28c0.98,0.49,1.98,0.98,2.97,1.45c2.68,1.32,5.42,2.51,8.13,3.74
					c2.71,1.24,5.45,2.44,8.19,3.63c1.27,0.55,2.56,1.11,3.84,1.66c0.52,0.23,1.02,0.44,1.53,0.65c-0.03,0.11-0.05,0.21-0.08,0.33
					c-0.11,0.52-0.23,1.04-0.32,1.58c-0.24,1.35-0.35,2.69-0.42,4.05c-0.03,0.76-0.05,1.53-0.03,2.28
					c-3.47-0.59-6.82-1.69-10.06-3.16c-2.68-1.2-5.13-2.73-7.56-4.34c-1.84-1.22-3.52-2.62-5.24-3.97
					C423.84,607.57,423.55,604.92,423.32,602.28z"/>
				<path class="st2" d="M471.81,616.83c-5.81,2.62-11.82,5.03-18.25,5.26c-0.05-0.91-0.1-1.82-0.18-2.72
					c-0.05-0.55-0.06-1.11-0.11-1.66c-0.05-0.46-0.1-0.91-0.18-1.38c-0.03-0.16-0.03-0.23-0.03-0.23c-0.03-0.26-0.08-0.54-0.11-0.8
					c-0.03-0.24-0.1-0.49-0.13-0.73c0.47-0.16,0.94-0.34,1.42-0.52c1.48-0.54,2.97-1.09,4.43-1.64c2.97-1.09,5.9-2.28,8.82-3.47
					c4.76-1.94,9.55-3.78,14.34-5.65c0.02,1.59,0.08,3.21,0.39,4.74C481.67,612.68,475.44,615.2,471.81,616.83z"/>
				<path class="st2" d="M643.17,769.81c-1.55,0.72-3.26,1.06-4.9,1.5c-1.48,0.39-2.97,0.72-4.45,1.06c-3.02,0.72-6.03,1.5-9.1,2.05
					c-1.52,0.28-3.05-0.39-3.45-1.99c-0.18-0.63-0.11-1.25,0.13-1.82c-1.24-31.65-3.45-63.82-6.55-95.67
					c-1.32,0.23-2.64,0.46-3.97,0.68c-7.31,1.25-14.66,2.9-22.04,3.5c-0.05,1.81-0.16,3.61-0.4,5.48c-0.44,3.3-0.97,6.59-1.68,9.86
					c-1.44,6.56-3.32,13.02-5.61,19.33c-2.31,6.35-5,12.58-8.13,18.55c-1.03,1.95-2.11,3.87-3.24,5.76
					c2.35-0.49,4.71-0.98,7.06-1.48l12.14-2.54c0.94-0.2,2.48-0.5,3.64,0.47c0.95,0.76,1.21,2.02,1.34,2.7
					c1.1,5.7,1.95,11.55,2.53,17.43c0.13,0.13,0.24,0.28,0.34,0.44c0.08,0.18,0.16,0.37,0.24,0.55c0.13,0.42,0.24,0.81,0.26,1.25
					v0.62c0,0.42,0.02,0.86-0.03,1.3c0,0.11-0.03,0.23-0.05,0.33c0.02,0.98-0.4,1.99-1.31,2.59c-2.14,1.43-4.95,1.97-7.4,2.73
					c-2.39,0.75-4.79,1.48-7.19,2.21c-4.69,1.42-9.37,2.8-14.08,4.13c-4.84,1.38-9.66,2.75-14.53,3.99
					c-2.44,0.62-4.87,1.22-7.31,1.82c-2.35,0.59-4.85,1.48-7.31,1.17c-1.4-0.18-2.26-1.24-2.29-2.34c-0.03-0.07-0.06-0.11-0.08-0.18
					l-0.11-0.31c-0.06-0.23-0.15-0.46-0.21-0.68c-2.74-8.06-4.45-16.58-5.08-25.29c-0.02-0.18-0.02-0.24-0.02-0.34
					c0-0.33,0.13-0.62,0.34-0.85c0.13-0.39,0.34-0.78,0.63-1.07c1.27-1.3,2.55-2.6,3.85-3.89c8.66-11.54,16.46-23.86,23.25-36.68
					c3.53-6.67,6.95-13.9,8.13-21.5c1.18-7.45-0.16-14.63-3.63-19.85c-0.45,0.18-0.97,0.1-1.32-0.28c-1.24-1.3-2.95-1.84-4.66-1.89
					c-0.97,0.23-1.89,0.63-2.73,1.11c-2.53,1.4-4.6,3.43-6.51,5.58c-3.95,4.39-6.98,9.5-8.84,15.13c-0.69,2.12-3.21,2.83-4.85,1.29
					c-0.26-0.24-0.53-0.49-0.79-0.73c-2.77-1.35-5.55-2.7-8.32-4.05l-4.81-2.33c-1.97,0.26-4.14-1.22-3.37-3.69
					c4.35-13.88,9.69-28.36,21.58-37.49c9.45-7.26,23.06-9.11,32.93-2.21c0.11,0.07,0.21,0.11,0.31,0.18
					c6.82,4.08,12.09,11.11,14.93,19.72c25.93-3.21,52.01-7.65,77.57-13.2c0.65-0.57,1.63-0.8,2.44-0.52h0.02
					c0.32,0.11,0.63,0.31,0.87,0.59c1.73,2.08,1.69,5.32,2.03,7.89c0.31,2.33,0.64,4.65,0.79,7c0.16,2.69-0.29,5.44-2.52,7.16
					c-0.23,0.18-0.48,0.36-0.73,0.52c-0.5,0.54-1.18,0.89-1.94,0.93c-0.42,0.15-0.84,0.23-1.27,0.26c-2.64,1.4-5.85,1.64-8.74,2.15
					c-5.35,0.94-10.71,1.87-16.06,2.82c0.9,31,2.5,62.23,4.81,93.03c0.47,0.54,0.77,1.07,0.79,1.81c0,0.46-0.1,0.59-0.03,0.93
					C644.73,767.71,644.36,769.26,643.17,769.81L643.17,769.81z"/>
				<path class="st2" d="M704.62,610.11c4.05,2.44,7.45,5.73,10.24,9.55c0.32,0.44,0.6,0.93,0.9,1.38
					c5.26,6.83,7.61,15.69,6.16,24.38c-1.48,8.93-6.84,16.81-14.24,21.69c2.26,1.42,4.4,3.19,6.39,5.34
					c2.35,2.16,4.5,4.52,6.45,7.06c8.85,11.54,12.95,26,11.13,40.52c-1,8.01-4.34,16.71-10.09,22.46c-1.34,1.82-2.92,3.47-4.66,4.85
					c-3.26,2.59-7.03,4.51-10.95,5.86c-1.92,0.67-3.87,1.22-5.82,1.74c-0.71,0.2-1.81,0.52-2.82,0.57
					c-2.05,0.34-4.11,0.55-6.18,0.55c-1.77,0-3.55-0.13-5.32-0.42c-16.55-2.62-30.46-17.92-31.67-34.81
					c-0.02-0.33,0.1-0.62,0.27-0.86c0-0.03-0.02-0.05-0.02-0.08c-0.1-0.67,0.37-1.29,1.03-1.37l16.35-2.16
					c0.68-0.1,1.27,0.37,1.35,1.04c0.02,0.07,0,0.13,0,0.2c0.24,0.07,0.48,0.2,0.65,0.42c2.66,3.65,6.47,6.18,10.42,6.95
					c4.26,0.85,8.71-0.39,11.61-3.21c5-4.87,4.68-13.34,2.69-19.66c-0.84-2.75-1.9-5.21-3.19-7.39c-1.1-1.27-2.34-2.44-3.69-3.43
					c-3.05-2.2-6.4-3.74-10.11-4.36c-2.1-0.34-4.27-0.21-6-1.69c-1.69-1.45-2.06-3.53-2.06-5.66c-0.02-2.57,0.03-5.14,0.11-7.71
					c0.03-1.29,0.08-2.57,0.11-3.86c0.03-1.29-0.08-2.64,0.39-3.84c0.55-1.43,1.89-1.94,3.02-1.53c0.06-0.03,0.13-0.07,0.21-0.08
					c1.29-0.23,2.76-0.55,4.27-1.01c4.32-2.46,8.51-5.45,11.29-9.65c2.79-4.2,4.35-9.71,2.42-14.6c-1.73-4.33-5.98-7.47-10.69-6.67
					c-2.61,0.44-5.02,1.82-7.05,3.5c-2.34,1.95-4.13,4.51-6.47,6.43c-1.18,0.99-2.77,0.62-3.52-0.36c-0.05-0.03-0.1-0.02-0.15-0.05
					c-3.82-1.89-7.64-3.74-11.48-5.63c-1.06-0.54-2.48-1.27-3.03-2.82c-0.53-1.61,0.18-3.09,0.94-4.34c0.27-0.47,0.58-0.96,0.89-1.4
					c4.63-10.38,14.74-18.03,25.7-19.87c3.31-0.96,7-0.99,10.26-0.62C695.58,606.01,700.37,607.54,704.62,610.11L704.62,610.11z"/>
				<path class="st3" d="M387.31,667.6c1.55,0.76,2.68,2.2,3.52,3.82c0.6-0.05,1.23,0.02,1.85,0.23c2.71,0.9,4.84,3.81,6.18,6.17
					c1.16,2.07,1.97,4.31,2.55,6.61c-0.06-0.31-0.1-0.62-0.16-0.93c-0.48-2.38-1.52-4.74-2.27-7.05c-0.74-2.28-1.81-4.67-2.23-7.03
					c-0.35-2.08,2.16-3.21,3.37-1.43c1.39,2.07,2.23,4.93,2.93,7.32c0.71,2.41,0.95,4.83,1.5,7.26c1.11,4.96,2.19,10.01,1.95,15.12
					c0,0.11-0.05,0.21-0.08,0.33c0.02,0,0.03-0.02,0.05-0.02l1.79-1.56c0.18-4.05,0.42-8.1,0.74-12.16c0.11-1.42,0.16-3.37,0.4-5.3
					c-0.58-2.18-0.79-4.48-1.35-6.66c-0.35-1.42-0.81-2.82-1.34-4.17c-0.21-0.5-0.42-0.99-0.66-1.48c-1.42,0.55-3.42-0.49-3.35-2.25
					c0.05-1.69-0.79-3.04-1.69-4.39c-0.37-0.55-0.73-1.11-1.18-1.59c-0.05-0.05-0.06-0.08-0.1-0.11c-0.45,1.11-1.85,1.87-2.92,1.07
					c-0.5-0.39-1.03-1.03-1.73-0.75c-0.71,0.28-0.92,1.3-0.95,1.97c-0.1,1.51-1.29,2.28-2.69,2.07c-0.95-0.15-3.05-0.44-3.84,0.39
					c-0.53,0.55-0.26,1.64-0.23,2.33C387.39,666.14,387.36,666.87,387.31,667.6L387.31,667.6z"/>
				<path class="st3" d="M372.14,731.73c-2.77,0.03-5.79,3.31-7.01,5.28c-2.04,3.29,0.14,7.31,4.18,4.98c1.36-0.79,2.52-2.04,3.74-3
					c1.92-1.52,3.67-4.33,1.32-6.4C373.68,731.97,372.92,731.72,372.14,731.73z"/>
				<path class="st3" d="M417.36,673.7c0.28,0.92,0.06,1.85-0.65,2.5c-0.67,0.63-2.29,0.45-2.67,1.03
					c-0.14,0.22-0.18,0.49-0.21,0.75c-0.48,3.79-0.84,7.56-1.13,11.37c-0.35,4.83-0.52,9.68-0.58,14.53
					c0.77-0.44,1.58-0.83,2.4-1.17c-1.02-2.07-0.21-5.06,0.15-7.23c0.37-2.33,0.87-4.65,1.45-6.95c0.58-2.29,1.27-4.56,2.06-6.79
					c0.37-1.04,0.76-2.07,1.18-3.09c0.52-1.29,0.92-2.67,1.97-3.61c1.5-1.37,4.08-0.47,4.08,1.71c0,1.37-0.63,2.52-1.13,3.76
					c-0.4,1.03-0.79,2.07-1.16,3.11c-0.74,2.08-1.39,4.21-1.94,6.35s-1.02,4.3-1.39,6.48c-0.27,1.58-0.32,3.5-0.84,5.13
					c1.11-0.16,2.24-0.26,3.35-0.23c0.4-2.67,2.45-4.59,4.82-5.86c0.84-0.44,2.81-1.04,3.18-2.05c0.08-0.23,0.31,0.16-0.27-0.39
					c-0.48-0.46-1.1-0.76-1.69-1.06c-1.39-0.7-1.81-3.09-0.53-4.12c2.74-2.21,6.13-6.28,2.6-9.37c-1.98-1.72-1.76-3.04-1.11-5.35
					c0.23-0.85,0.34-2.12-0.08-2.93c-0.11-0.21-0.6-1.03-0.94-0.72c-1.56,1.48-3.71,0.59-4.27-1.22c-0.55,0.76-1.15,1.5-1.95,2.02
					C420.48,671.29,416.42,670.66,417.36,673.7L417.36,673.7z"/>
				<path class="st3" d="M412.53,670.17c0.37-0.88,0.89-1.71,1.56-2.41c1.07-1.08,2.33-1.66,3.79-1.93c1.07-0.19,1.67-0.58,2.3-1.46
					c-0.18,0.25-1.17-1.14-1.22-1.32c-0.31-0.96,0-1.96-0.19-2.92c-0.2-0.97-0.47-0.68-1.31-0.77c-0.85-0.1-1.54-0.66-1.89-1.43
					c-0.51,1.78-2.85,2.57-4.22,1.26c-0.08,0.21-0.11,0.45-0.13,0.69c-0.12,1.54-0.22,3.09-0.33,4.63
					C410.75,666.53,411.91,668.29,412.53,670.17L412.53,670.17z"/>
				<path class="st3" d="M366.87,729.58c0.43-0.49,0.8-0.98,1.09-1.43c0.78-1.2,1.03-2.87,0.23-4.05c-2.56-3.8-7.04,0.92-8.92,2.78
					c-1.94,1.92-2.94,6.8,1.07,6.72C362.76,733.55,365.36,731.31,366.87,729.58L366.87,729.58z"/>
				<path class="st3" d="M375.19,799.64c-0.09,0.61-25.57-2.79-27.3-3.01c-10.9-1.36-21.79-2.76-32.67-4.21
					c-6.37-0.84-12.91-1.34-19.17-2.84c0.32,6.87,0.41,13.74,0.52,20.62c0.01,0.63,19.02,3.63,20.99,4.01
					c19.16,3.66,38.21,6.64,57.64,8.52C375.1,812.47,375.57,805.74,375.19,799.64z"/>
				<path class="st3" d="M339.92,680.18c-0.1,0.03-0.18,0.05-0.19,0.08C339.82,680.23,339.87,680.2,339.92,680.18z"/>
				<path class="st3" d="M347.84,689.47c0.03,0,0.05,0,0.06-0.02c0.03-0.05,0.16-0.15,0.24-0.18l0.03-0.03
					c0.13-0.13,0.24-0.26,0.35-0.37c0.08-0.15,0.18-0.29,0.26-0.46c0-0.02,0.02-0.02,0.02-0.03c0.02-0.02,0.02-0.05,0.03-0.07
					c0.02-0.03,0.02-0.07,0.03-0.08c0.02-0.07,0.03-0.11,0.05-0.15v-0.02c0.1-0.26,0.23-0.5,0.29-0.67
					c0.08-0.16,0.16-0.33,0.24-0.49c0.02-0.03,0.1-0.21,0.16-0.33v-0.02c0.02-0.03,0.03-0.05,0.03-0.07
					c0.01-0.01,0.02-0.02,0.02-0.03v-0.02l0.02-0.02c0.02-0.07,0.05-0.13,0.05-0.15c0.02-0.05,0.03-0.08,0.05-0.11v-0.03
					c-0.18-2,2.19-2.93,3.71-2.15c0.06,0.03,0.13,0.07,0.19,0.1c0.02,0,0.05,0.02,0.1,0.03c0.18,0.08,0.32,0.13,0.44,0.18
					c0.11,0.05,0.21,0.07,0.32,0.11c0.18,0.07,0.35,0.1,0.53,0.15c0.11,0.02,0.21,0.02,0.31,0.02c0.1,0,0.19,0,0.27-0.02
					c0.1-0.03,0.29-0.08,0.4-0.11c0.08-0.05,0.16-0.08,0.24-0.13l0.02-0.02c0.05-0.1,0.11-0.2,0.18-0.31
					c-0.63-0.57-0.95-1.48-0.68-2.33c0.06-0.2,0.08-0.42,0.13-0.63c0,0,0-0.02,0.02-0.05c0.02-0.03,0.02-0.05,0.02-0.08v-0.2
					c-0.02-0.07-0.03-0.11-0.06-0.18c0-0.02-0.02-0.03-0.03-0.07c-0.03-0.05-0.03-0.07-0.05-0.1c-0.05-0.05-0.1-0.08-0.13-0.13
					c-0.03,0-0.02,0-0.05-0.02c-0.02-0.02-0.03-0.02-0.05-0.03c-0.06-0.02-0.15-0.03-0.24-0.07h-0.03c0,0,0,0,0,0
					c-0.02,0-0.01,0-0.04,0h-0.02c-0.06,0-0.19,0.03-0.26,0.03h-0.03c-0.02,0.02-0.05,0.03-0.08,0.03h0.03
					c-0.03,0-0.06,0.02-0.1,0.03l-0.02,0.02c-0.69,0.7-1.74,0.88-2.63,0.5c-0.97-0.41-1.39-1.22-1.48-2.21
					c-0.02-0.08-0.08-0.63-0.08-0.67c-0.03-0.24-0.08-0.5-0.15-0.76c-0.02-0.07-0.18-0.57-0.19-0.63c-0.06-0.13-0.13-0.24-0.21-0.37
					c-0.05-0.05-0.11-0.13-0.18-0.21c-0.02-0.02-0.03-0.03-0.06-0.05h-0.03c-0.03,0-0.05,0.02-0.08,0.02h-0.02
					c-0.08,0.07-0.44,0.23-0.5,0.26c-0.15,0.08-0.34,0.18-0.5,0.28c-0.02,0.02-0.06,0.05-0.15,0.13c-0.11,0.08-0.21,0.18-0.31,0.28
					c-0.14,0.13-0.27,0.29-0.42,0.46c-0.05,0.08-0.27,0.39-0.32,0.47c-0.05,0.07-0.26,0.5-0.27,0.5c-0.29,0.8-0.52,1.66-1.37,2.03
					c-0.34,0.15-0.64,0.21-0.97,0.23c-0.6,0.26-1.18,0.33-1.85,0.16c-0.31-0.03-0.61-0.13-0.89-0.33c-0.08-0.05-0.15-0.08-0.23-0.11
					c-0.02,0-0.02-0.02-0.03-0.02c-0.13-0.05-0.27-0.08-0.4-0.11c-0.06-0.02-0.13-0.03-0.19-0.05c0.03,0,0.08,0.02,0.13,0.02
					c-0.05-0.05-0.19-0.05-0.34-0.05c-0.19,0-0.39,0.03-0.48,0.03h-0.06c-0.08,0.02-0.16,0.03-0.23,0.05
					c-0.03,0-0.19,0.03-0.35,0.08c0,0-0.02,0.02-0.05,0.02c-0.03,0.03-0.06,0.05-0.11,0.07c-0.11,0.07-0.24,0.13-0.35,0.21
					c-0.05,0.03-0.06,0.05-0.1,0.07c-0.05,0.05-0.1,0.08-0.15,0.13c-0.06,0.07-0.11,0.13-0.18,0.21c-0.13,0.16-0.23,0.37-0.31,0.52
					c-0.02,0.05-0.03,0.08-0.05,0.1c-0.03,0.07-0.05,0.11-0.06,0.18c-0.06,0.21-0.1,0.42-0.15,0.63c-0.02,0.07-0.02,0.15-0.02,0.21
					v0.39c0.02,0.11,0.02,0.15,0.02,0.18c0.03,0.16,0.1,0.33,0.11,0.47c0.19,1.17-0.14,2.23-1.16,2.9c-0.73,0.47-1.9,0.42-2.68-0.1
					c-0.05-0.02-0.08-0.02-0.13-0.03h-0.06c-0.13,0-0.26-0.02-0.37,0c-0.02,0-0.05,0-0.08,0.02s-0.1,0.02-0.18,0.03
					c-0.16,0.07-0.34,0.11-0.5,0.16c-0.06,0.05-0.39,0.2-0.45,0.24c-0.01,0.01-0.02,0.02-0.03,0.02c-0.06,0.07-0.14,0.13-0.21,0.2
					c-0.06,0.07-0.11,0.13-0.18,0.18c-0.02,0.03,0,0.03-0.03,0.07c-0.03,0.05-0.16,0.31-0.21,0.41c-0.03,0.13-0.1,0.37-0.11,0.41
					v0.03c-0.02,0.1-0.03,0.2-0.03,0.29c0,0.08,0.03,0.46,0.02,0.52c0.05,0.18,0.1,0.36,0.13,0.54c0.03,0.1,0.05,0.11,0.05,0.15
					c0.03,0.07,0.06,0.13,0.1,0.2c0,0.02,0.02,0.03,0.03,0.05c1.23,0.36,2.13,1.76,1.34,3.16c-0.02,0.03-0.03,0.05-0.03,0.07
					c-0.02,0.1-0.05,0.23-0.1,0.33v0.02c-0.02,0.1-0.02,0.21-0.02,0.33c-0.02,0.23-0.02,0.44,0,0.65v0.1c0,0.03,0,0.07,0.02,0.1
					v-0.13c0.02,0.1,0.03,0.24,0.05,0.28c0.03,0.13,0.08,0.26,0.11,0.37c0.02,0.07,0.11,0.28,0.13,0.31v0.02
					c0.06,0.1,0.13,0.21,0.19,0.33l0.19,0.29c0.15,0.16,0.31,0.33,0.45,0.49c0.03,0.02,0.06,0.03,0.11,0.07
					c0.02,0,0.02-0.02,0.03-0.02c0.02-0.02,0.05-0.03,0.06-0.03c0.1-0.07,0.21-0.13,0.31-0.2c0.19-0.16,0.39-0.33,0.58-0.46
					c0.01,0,0.02-0.01,0.02-0.02c0.47-0.39,0.95-0.8,1.47-1.14c0.79-0.54,1.68-0.39,2.4,0.07c0.08,0.03,0.18,0.07,0.23,0.08
					c0.02,0,0.03,0.02,0.05,0.02h0.02c0.19,0.02,0.37,0.02,0.55,0.02h0.02c0.05-0.02,0.24-0.05,0.39-0.1c0.02,0,0.03-0.02,0.06-0.03
					c0.15-0.07,0.27-0.16,0.4-0.23c0.01,0,0.02-0.01,0.03-0.02c0.11-0.11,0.23-0.24,0.34-0.36c-0.11,0.1-0.18,0.15-0.21,0.2
					c0.03-0.05,0.1-0.11,0.14-0.2c0.08-0.13,0.16-0.24,0.24-0.37c0.02-0.03,0.03-0.05,0.03-0.07c0.08-0.28,0.15-0.55,0.21-0.85
					c0.03-0.16,0.06-0.33,0.11-0.49c0-0.1,0.03-0.16,0.05-0.24c-0.03-0.31-0.03-0.62,0.03-0.93c0.27-1.17,1.42-1.86,2.53-1.94
					c0.48-0.03,0.95,0.07,1.42,0.16c0.06,0.02,0.11,0.02,0.15,0.03h0.06c0.24,0.02,0.47,0.03,0.71,0.03c0.13,0,0.24,0,0.35-0.02
					C347.8,689.49,347.84,689.47,347.84,689.47L347.84,689.47z"/>
				<path class="st3" d="M359.25,707.71c0.39-0.21,0.77-0.44,1.16-0.65c-0.42-0.88-0.82-1.77-1.24-2.6
					c-0.79-1.56-1.56-3.14-2.35-4.7c-1.18-2.33-2.4-4.64-3.61-6.93c-0.16,0.21-0.32,0.42-0.5,0.6c-1.18,1.17-2.76,1.76-4.39,1.84
					c-0.24,0.02-0.53,0-0.81-0.02c-0.02,0.08-0.02,0.18-0.03,0.28c0,0.02-0.02,0.05-0.02,0.07c2.14,2.23,4.24,4.51,6.42,6.72
					c1.26,1.3,2.52,2.57,3.79,3.84C358.19,706.67,358.72,707.19,359.25,707.71L359.25,707.71z"/>
				<path class="st3" d="M775.53,769.52c-4.16,2.12-4.64,2.32-5.7,2.69c-8.79,3.09-17.69,6.53-26.73,9.13
					c-1.89,0.54-22.79,6.03-23.22,3.58c0.29,1.66,2.34,19.74,1.68,19.82c0.92-0.11,1.81-0.21,2.61-0.36
					c10.04-1.82,20.01-4.17,29.72-7.36c4.9-1.62,9.74-3.45,14.47-5.53c1.14-0.5,2.28-1.02,3.4-1.55c0.84-0.4,2.7-0.88,3.29-1.6
					c1.14-1.39,0.62-6.2,0.57-7.94C775.46,774.59,775.78,774.28,775.53,769.52L775.53,769.52z"/>
				<path class="st3" d="M486.02,826c2,0.79,4.68,0.36,7.17,0.34c20.58,0,41.18-0.45,61.74-1.4c13.36-0.61,26.7-1.52,40.05-2.28
					c0.93-0.05,1.9-0.12,2.69-0.61c2.34-1.46,1.2-6.93,1.21-9.19c0.03-5.07-0.13-10.15,0.4-15.19c0.17-1.62-1.26-2.95-2.86-2.71
					c-5,0.74-10.06,0.94-15.1,1.09c-2.53,0.07-5.27-0.16-7.78,0.23c-1.95,0.3-2.75,1.5-3.51,3.33c-0.75,1.82-2.57,4.97-4.67,5.44
					c-8.16,1.86-16.8,2.23-25.12,2.7c-4.98,0.28-9.98,0.05-14.93,0.52c-2.29,0.22-4.61,0.44-6.86-0.03
					c-2.91-0.61-4.85-2.34-5.93-5.09c-0.9-2.31-1.44-4.65-4.34-4.81c-7.64-0.43-15.28,0.26-22.94-0.14
					c-3.39-0.18-2.6,4.27-2.42,6.38c0.39,4.48,0.31,8.99,0.36,13.48C483.23,820.92,482.73,824.7,486.02,826L486.02,826z"/>
				<path class="st3" d="M427.44,705.14c-1.67,0.1-3.31,0.62-4.8,1.64c3.69,0.65,7.06,3.32,8.21,7l0.81,2.52l-2.6-0.42
					c-5.06-0.86-10.37-0.62-15.38,0.7c-0.13,0.03-0.26,0.05-0.39,0.05l-0.23,11.39l-2.71-2.88c-1.55-1.66-2.87-3.5-3.95-5.52
					c-2.55,2.91-4.63,6.28-6.06,9.83l-1.35,3.32l-1.58-3.21c-1.97-3.95-1.61-8.46-0.89-12.35c-0.05,0.24-1.75,0.85-1.97,0.96
					c-1.14,0.56-2.22,1.17-3.41,1.61c-3.16,1.19-6.43,2.76-8.1,5.82c-1.66,3.05-2.03,6.84-1.03,10.16c0.97,3.21,3.01,5.99,5.53,8.15
					c6.27,5.36,15.04,6.4,22.93,6.2c3.37-0.08,7.69-0.39,11.37-2.08c2.58-1.17,4.87-3.01,6.6-4.49c5.42-4.64,9.08-9.19,11.19-13.95
					c2.52-5.63,2.71-11.81,0.55-16.53C438.07,708.45,432.61,704.82,427.44,705.14L427.44,705.14z"/>
				<path class="st3" d="M392.41,710.06c3.13-1.95,6.76-3.14,10.45-3.3l-1.02-4.59c-0.08-0.39-0.24-1.07-0.05-1.82
					c-0.69-0.08-1.35-0.46-1.82-1.25c-2.29-3.92-2.29-8.3-3.08-12.64c-0.42-2.29-1.15-4.54-2.06-6.67
					c-0.45-1.04-0.89-2.16-1.44-3.16c-0.15-0.28-1.21-1.97-1.23-1.42c-0.08,2.86-4.06,3.38-4.89,0.67
					c-0.31-1.03-0.58-2.26-1.32-3.06c-0.23-0.24-0.5-0.34-0.77-0.47c0.73,2.72-2.81,4.38-4.71,2.59c-1.08-1.01-1.95-2.25-3.08-3.21
					c-0.45-0.37-1.02-0.83-1.63-0.91c-0.5-0.07-0.56-0.02-0.61-0.02h-0.02c2.21,2-0.39,6.09-2.82,4.18
					c-0.18-0.15-0.32-0.33-0.47-0.47l-0.05,0.05c-0.45-0.42-0.98-0.21-0.95,0.42c0.02,0.46,0.9,1.14,1.18,1.5
					c0.92,1.19,1.27,2.36,0.92,3.84c-0.19,0.76-0.71,1.27-1.34,1.5c0.03,0.08,0.1,0.15,0.13,0.26c0.16,0.29,0.32,0.6,0.5,0.89
					c0.34,0.59,0.71,1.17,1.08,1.76c0.82,1.25,1.74,2.42,2.6,3.65c1.19,1.71-1.18,4.12-2.89,2.91c-1.1-0.78-1.95,0.39-2.02,1.48
					c-0.08,1.27,0.68,2.31,1.5,3.17c1.73,1.81,3.9,3.35,5.93,4.8c2.19,1.58,4.47,3.03,6.82,4.33c2.19,1.22,4.52,2.21,6.48,3.79
					C392.2,709.21,392.39,709.63,392.41,710.06z M381.15,686.72c-0.82-1.09-1.58-2.23-2.4-3.32c-0.81-1.06-1.73-1.94-1.79-3.34
					c-0.03-0.91,0.89-1.99,1.85-1.86c1.61,0.21,2.45,1.27,3.56,2.38c0.94,0.94,1.94,1.86,2.81,2.86c1.76,2.02,3.4,4.17,5,6.33
					c3.23,4.34,5.97,8.93,8.42,13.75c1.53,3.01-2.85,5.65-4.53,2.67c-2.56-4.56-5.39-8.98-8.34-13.28
					C384.27,690.8,382.72,688.77,381.15,686.72L381.15,686.72z"/>
				<path class="st3" d="M391.73,635.25c-38.02,0-68.97,29.94-68.97,66.73s30.95,66.73,68.97,66.73s68.97-29.94,68.97-66.73
					S429.76,635.25,391.73,635.25z M444.06,731.6c-2.42,5.44-6.5,10.56-12.48,15.65c-1.95,1.69-4.6,3.81-7.72,5.24
					c-4.48,2.05-9.43,2.42-13.26,2.51c-0.68,0.02-1.34,0.03-2,0.03c-5.82,0-10.66-0.73-14.93-2.21c-0.11,0.52-0.26,1.04-0.52,1.55
					c-1.06,2.18-3.24,3.73-5.56,3.97c-0.31,0.03-0.63,0.05-0.94,0.05c-3,0-5.61-1.55-8-3.27c-9.29-6.7-17.17-14.99-23.4-24.59
					c-2.42-3.73-5.4-9.32-3.5-14.86c0.64-1.86,1.74-3.37,3.06-4.67c-0.29-0.29-0.56-0.6-0.85-0.9c-1.24-1.3-2.5-2.6-3.73-3.91
					c-2.03-2.16-4.06-4.34-6-6.59c-1.39,0.72-3,0.8-4.5,0.36c-0.6,0.83-1.37,1.53-2.26,1.99c-2.19,1.12-4.76,0.46-6.47-1.24
					c-2.11-2.08-3.08-5.68-1.9-8.45c-0.4-0.57-0.74-1.2-0.95-1.76c-0.55-1.45-0.58-3.14-0.03-4.59c0.61-1.61,1.84-2.98,3.42-3.68
					c0.58-0.26,1.16-0.42,1.77-0.54c0.23-2.07,1.24-4.07,2.81-5.37c1.45-1.22,3.19-1.87,5.08-1.94c0.73-0.03,1.52,0.07,2.29,0.28
					c0.15-0.28,0.27-0.54,0.42-0.75c1.08-1.63,2.63-2.98,4.58-3.34c2.32-0.42,4.4,0.57,5.72,2.51c0.45,0.67,0.71,1.4,0.9,2.15
					c1.34-0.1,2.69,0.29,3.82,1.25c1.14,0.98,1.84,2.55,1.9,4.1c0.26,0.26,0.48,0.54,0.68,0.85c0.48,0.8,0.69,1.66,0.77,2.59
					c0.16,1.72-0.52,3.45-1.76,4.65c-0.85,0.83-1.94,1.32-3.06,1.55c1.31,2.34,2.6,4.7,3.85,7.08c0.82,1.55,1.64,3.09,2.42,4.65
					c0.31,0.6,0.63,1.22,0.95,1.84c1.82-1.03,4.03-1.77,6.43-1.2c2.82,0.67,4.71,2.86,6.05,4.7c2.48,3.45,4.43,7.18,5.87,11.08
					c0.27-0.21,0.53-0.46,0.82-0.65c0.42-0.26,0.89-0.37,1.35-0.37c1.15-1.99,2.66-3.73,4.37-5.21c-3.74-0.7-7.45-3.29-10.58-5.35
					c-3.16-2.1-6.55-4.41-9.08-7.29c-2.18-2.47-3.87-6.15-2.31-9.41c0.53-1.11,1.35-1.92,2.31-2.44c-1.21-1.77-2.26-3.71-2.76-5.57
					c-0.35-1.35-0.03-2.57,0.66-3.43c-0.13-0.15-0.26-0.29-0.37-0.46c-0.44-0.62-0.76-1.25-0.94-2c-0.31-1.37-0.02-2.9,0.66-4.08
					c0.74-1.3,1.95-2.08,3.29-2.39c0.34-1.43,1.29-2.75,2.87-3.43c3.1-1.33,5.63,0.15,7.93,2.02c0.58-0.52,1.29-0.91,2.08-1.12
					c-0.48-2.64-0.69-5.52,1.39-7.36c1.55-1.37,3.61-1.64,5.61-1.51c0.58-1.61,1.64-3.01,3.32-3.68c1.19-0.47,2.6-0.47,3.77-0.02
					c1.55-0.91,3.82-0.75,5.34,0.42c1.27,0.99,2.26,2.62,3.08,3.99c0.45,0.78,0.84,1.61,1.11,2.46c0.16,0.03,0.31,0.08,0.47,0.15
					c-0.06-0.37-0.11-0.73-0.16-1.09c-0.24-1.72-0.35-3.47,0.5-5.06c0.9-1.68,2.71-2.36,4.52-2.08c0.76-0.62,1.66-1.06,2.6-1.19
					c1.08-0.15,2.19,0.16,3.14,0.76c0.45-0.03,0.9,0.05,1.32,0.26c2.84,1.45,5,5.08,4.45,8.32c0.52-0.08,1.08-0.08,1.71,0.08
					c1.52,0.39,2.45,1.46,2.97,2.75c1.71,0.02,3.39,0.8,4.55,2.39c0.98,1.35,1.4,3.03,1.44,4.69c0.02,0.88-0.1,1.79-0.37,2.64
					c-0.06,0.21-0.19,0.63-0.34,0.93c1.1,0.62,2.16,2.21,2.6,3.16c0.71,1.51,0.89,3.25,0.68,4.9c-0.29,2.34-1.45,4.34-2.98,6.07
					c0.47,0.39,0.89,0.86,1.21,1.43c0.97,1.68,0.97,3.79,0.06,5.5c-0.89,1.69-2.5,2.95-4.13,3.84c-0.24,0.13-0.65,0.29-1.08,0.49
					c5.95,0.59,11.69,4.64,14.43,10.59C447.37,717.09,447.17,724.6,444.06,731.6L444.06,731.6z"/>
				<path class="st3" d="M385.18,333.1c2.98-0.44,5.85-1.37,8.53-2.78c2.29-1.2,5.08-2.96,6.58-5.26c0.05,0.02,0.08,0.03,0.13,0.03
					c0.92,0.15,1.85,0.26,2.79,0.31c1.94,0.08,4.02-0.57,5.03-2.38c0.94-1.68,0.73-3.71-0.15-5.35c-0.4-0.78-1.03-1.43-1.69-2
					c-0.29-0.26-0.6-0.5-0.9-0.75c-0.05-0.05-0.1-0.1-0.16-0.13c0.03-2.44-1.03-5.06-1.9-7.27c-1.02-2.59-2.18-5.14-3.56-7.55
					c-2.66-4.62-6.14-8.8-10.22-12.19c-4.69-3.89-10.06-6.85-16.14-7.52c-5.02-0.55-10.09,0.94-14.16,3.97
					c-4.66,3.48-7.79,8.48-8.1,14.37c-0.06,0.2-0.11,0.41-0.11,0.63c-0.19,6.1,1.14,12.17,3.92,17.61
					c2.66,5.21,7.03,10.43,12.19,13.21C372.77,333.02,379.02,333.99,385.18,333.1L385.18,333.1z M370.24,324.29
					c-4.63-2.36-8.13-5.52-10.71-10.09c-2.6-4.56-3.92-9.73-4.02-14.97c0-0.13-0.02-0.24-0.03-0.37c1.08-5.21,4.5-9.75,9.34-11.96
					c5.66-2.59,11.24-0.41,16.22,2.67c4.74,2.91,8.92,6.62,12.27,11.1c1.69,2.26,3.23,4.74,4.37,7.32c1.23,2.75,1.63,5.92,3.05,8.56
					c0.29,0.54,0.71,0.88,1.14,1.06c0.03,0.03,0.06,0.08,0.1,0.11c0.16,0.2,0.32,0.39,0.5,0.59c0.27,0.31,0.55,0.62,0.79,0.94
					c0.19,0.24,0.35,0.52,0.48,0.78c0.03,0.07,0.03,0.11,0.05,0.18c-0.31,0-0.63-0.02-0.95-0.05c-0.66-0.11-1.34-0.23-2.02-0.39
					c-0.27-0.07-0.53-0.11-0.81-0.16c-0.35-0.05-0.71-0.02-1.05,0.07c-0.44-0.1-0.92-0.08-1.45,0.11c-2.52,0.93-4.31,3.14-6.66,4.46
					c-2.11,1.19-4.48,1.94-6.89,2.29C379.38,327.21,374.36,326.41,370.24,324.29L370.24,324.29z"/>
				<path class="st3" d="M387.96,319.83c0.74-0.41,1.33-0.94,1.82-1.55c0.99-0.82,1.74-1.98,2.08-3.19
					c0.73-2.52-0.19-5.19-1.26-7.47c-1.68-3.56-4.82-6.61-8.27-8.41c-2.33-1.22-4.88-2-7.49-2.36c-0.05-0.01-0.1-0.02-0.15-0.02
					c-0.32-0.04-0.64-0.07-0.96-0.1c-0.11-0.01-0.22-0.02-0.33-0.03c-1.39-0.11-2.79-0.1-4.18,0.04c-2.18,0.23-4.42,0.54-6.26,1.86
					c-1,0.71-1.81,1.65-2.09,2.84c-1.1,2.01-0.27,4.43,1.59,5.66c1.73,1.14,3.92,1.16,5.87,1.59c1.69,0.37,3.37,0.91,4.74,1.99
					c1.37,1.09,2.55,2.62,3.52,3.97c1.27,1.76,2.45,3.66,4.32,4.83C383.04,320.81,385.73,321.09,387.96,319.83L387.96,319.83z"/>
				<path class="st3" d="M468.12,323.33c0.95-0.07,1.81-0.34,2.66-0.76c0.31-0.15,0.6-0.33,0.89-0.52c0.11-0.08,0.24-0.18,0.35-0.26
					c0.16,0.29,0.35,0.57,0.71,0.8c8.84,5.89,20.5,6.3,29.83,1.27c7.72-4.17,13.09-11.94,14.85-20.5c0.53-0.55,0.85-1.32,0.97-2.15
					c0.74-5.71-0.53-11.78-3.63-16.65c-1.6-2.52-3.58-4.82-6.05-6.51c-2.21-1.53-4.98-2.55-7.51-3.47
					c-5.26-1.9-11.05-1.89-16.24,0.21c-5.89,2.36-10.06,7.11-12.77,12.81c-3.24,6.82-4.79,14.55-3.63,22.05
					c-0.79,0.62-1.48,1.42-2.05,2.12c-0.97,1.16-1.85,2.39-2.52,3.74c-0.84,1.71-1.35,3.73-0.35,5.5
					C464.52,322.57,466.36,323.45,468.12,323.33L468.12,323.33z M467.96,317.85c0.03-0.07,0.06-0.13,0.08-0.16
					c0.1-0.21,0.21-0.41,0.31-0.62c0.34-0.67,0.73-1.3,1.16-1.9c0.06-0.1,0.13-0.2,0.19-0.29c0.05-0.05,0.08-0.1,0.11-0.13
					c0.06-0.08,0.15-0.2,0.18-0.23c0.23-0.26,0.45-0.52,0.68-0.78c0.61-0.67,1.39-1.22,1.81-2.05c0.24-0.47,0.26-0.98,0.15-1.43
					c0.05-0.2,0.11-0.37,0.11-0.6c-0.1-13.29,4.35-29.45,19.5-31.52c2.92-0.39,5.9-0.36,8.71,0.62c2.79,0.98,4.98,3.43,6.85,5.68
					c3.35,4,5.06,9.23,4.95,14.43c-0.24,0.37-0.44,0.83-0.48,1.37c-0.81,7.86-5.84,14.79-12.63,18.55c-7.58,4.18-17.17,3.91-25,0.57
					c-0.03-0.02-0.06-0.02-0.1-0.02c0.03-1.5-1.32-2.72-2.81-2.73c-1.18-0.02-2.02,0.55-2.85,1.29c0,0.02-0.02,0.02-0.03,0.03
					c-0.02,0.02-0.05,0.03-0.06,0.05l-0.02,0.02c-0.11,0.08-0.23,0.15-0.31,0.2c-0.13,0.08-0.26,0.15-0.39,0.23
					c-0.08,0.03-0.16,0.07-0.26,0.08c-0.02,0-0.05,0.02-0.08,0.02h-0.03C467.75,318.27,467.86,318,467.96,317.85L467.96,317.85z
					 M467.7,318.53c0,0.02,0.02,0.02,0.02,0.02h-0.03L467.7,318.53z M467.52,318.48l0.02,0.02c-0.06,0-0.15,0.02-0.15,0.02
					C467.43,318.5,467.48,318.48,467.52,318.48z"/>
				<path class="st3" d="M480.86,315c3.43,2.49,7.53,0.7,9.8-2.41c1.02-1.38,1.66-2.99,2.48-4.49c0.87-1.58,1.82-3.12,2.92-4.56
					c1-1.32,2.14-2.65,3.52-3.61c0.21-0.15,0.43-0.28,0.65-0.41c0.73,0.02,1.46,0.05,2.2,0.12c0.06,0.01,0.12,0.02,0.19,0.03
					c0.71,0.14,1.5,0.14,2.19-0.17c0.21,0,0.42-0.03,0.64-0.09c0.48-0.15,0.92-0.39,1.27-0.75c0.02-0.03,0.05-0.05,0.06-0.08
					c0.16-0.2,0.39-0.46,0.52-0.67c0-0.02,0.02-0.03,0.02-0.05c0.1-0.24,0.21-0.49,0.31-0.73c0.1-0.31,0.11-0.6,0.11-0.89
					c-0.02-0.42-0.08-0.86-0.15-1.29c-0.05-0.36-0.13-0.7-0.26-1.03c-0.15-0.39-0.31-0.78-0.48-1.16c-0.03-0.08-0.08-0.15-0.11-0.21
					c-0.02-0.03-0.05-0.08-0.06-0.11c-0.16-0.21-0.31-0.41-0.47-0.62c-0.18-0.2-0.39-0.36-0.63-0.49c-0.1-0.05-0.21-0.09-0.31-0.13
					c-0.03-0.03-0.06-0.08-0.09-0.11c-0.19-0.21-0.4-0.44-0.6-0.65c0.53,0.57-0.34-0.47-0.55-0.67c-1.31-1.27-3.56-1.66-5.31-1.74
					c-3.43-0.2-6.98,1.09-10.03,2.6c-2.87,1.42-5.4,3.5-7.05,6.28c-0.45,0.76-0.89,1.64-1.14,2.49c-0.08,0.26-0.13,0.51-0.16,0.77
					c-0.88,1.38-1.54,2.9-1.97,4.5c-0.48,1.82-0.9,3.76-0.52,5.63C478.23,312.2,479.31,313.88,480.86,315L480.86,315z"/>
				<path class="st3" d="M426.27,359.96c0.95,0.57,1.92,1.09,2.9,1.58c1.4,0.68,2.89,1.37,4.42,1.76c-0.06,1.32,0.05,2.67,0.08,3.95
					c0.02,1.35,0.05,2.7,0.1,4.04h-0.31c-0.76,0-1.53-0.11-2.27-0.08c-0.65,0.02-0.69,0.07-1.31,0.08c-0.53,0.02-1.03,0.02-1.55,0.2
					c-1.87,0.62-2.08,2.9-0.53,3.99c0.47,0.34,1.03,0.49,1.58,0.65c0.45,0.15,0.73,0.28,1.24,0.41c1.02,0.28,2.11,0.37,3.16,0.5
					c1.95,0.24,4.03,0.05,5.95-0.34c3.39-0.7,6.4-2.65,8.3-5.57c0.69-1.04,0.37-2.49-0.44-3.35c-0.35-0.37-0.74-0.54-1.21-0.72
					c-1.18-0.42-2.29,0.26-3,1.14c-0.03,0.05-0.06,0.08-0.1,0.13c0.03-0.03,0.06-0.07,0.06-0.1c-0.11,0.1-0.4,0.46-0.45,0.5
					c-0.21,0.21-0.42,0.39-0.65,0.57c-0.1,0.07-0.4,0.29-0.47,0.34c-0.26,0.16-0.52,0.31-0.77,0.44c-0.26,0.15-0.53,0.26-0.79,0.37
					c-0.15,0.05-0.58,0.23-0.66,0.24c-0.05,0.02-0.08,0.02-0.13,0.03c-0.06-1.16-0.15-2.33-0.21-3.48
					c-0.06-0.89-0.11-1.79-0.18-2.67c-0.03-0.47-0.05-0.94-0.1-1.42c1.44-0.39,2.81-1.03,4.05-1.87c2.05-1.42,4.71-3.34,5.5-5.79
					c0.82-2.57-1.87-5.34-4.43-4.48c-1.97,0.67-3.23,2.39-4.81,3.69c-0.06,0.03-0.55,0.37-0.69,0.47c-0.34,0.23-0.71,0.42-1.06,0.62
					c-0.06,0.03-0.1,0.05-0.13,0.07c-0.11,0.05-0.24,0.1-0.37,0.13c-0.19,0.07-0.39,0.11-0.58,0.16c-0.08,0.02-0.4,0.05-0.52,0.07
					h-0.4c-0.1-0.02-0.42-0.05-0.47-0.07c-0.24-0.05-0.47-0.11-0.69-0.18c-0.45-0.13-0.9-0.29-1.35-0.47
					c-0.21-0.08-0.44-0.16-0.64-0.26c-0.03-0.02-0.27-0.11-0.39-0.16c-0.02-0.02-0.05-0.02-0.05-0.02
					c-0.11-0.07-0.31-0.15-0.34-0.16l-0.63-0.29c-0.42-0.2-0.84-0.41-1.24-0.63c-0.56-0.29-1.14-0.54-1.74-0.78
					c-0.03-0.02-0.29-0.11-0.39-0.15c0,0,0-0.02-0.03-0.02l-0.02-0.02c-0.15-0.07-0.53-0.24-0.55-0.24
					c-1.37-0.62-2.92-0.5-3.87,0.78c-0.85,1.19-0.87,2.96,0.24,4C424.27,358.43,425.21,359.33,426.27,359.96L426.27,359.96z"/>
				<path class="st3" d="M331.86,257.62c-1.63-0.49-3.05,0.02-4.66,0.11c-1.45,0.1-2.95,0.05-4.39-0.18
					c-2.73-0.42-5.42-1.55-7.64-3.22c-5.26-3.99-8.1-10.85-11.72-16.22c-3.81-5.63-7.89-11.07-12.71-15.87
					c-2.4-2.39-4.97-4.64-7.69-6.62c-2.47-1.79-5.34-4.02-8.51-4.13c-3.21-0.13-6.37,1.99-6.35,5.45c0.02,2.25,1.24,4.13,3.06,5.08
					c1.42,2.23,3.6,4.04,5.47,5.91c3.19,3.21,6.48,6.31,9.77,9.42c6.21,5.87,12.45,11.67,18.77,17.4c2.34,3.43,5.13,6.46,8.92,8.49
					c2.93,1.58,6.06,2.54,9.35,2.93c3.23,0.39,7.58,0.39,10.06-1.95C335.77,262.15,334.6,258.44,331.86,257.62L331.86,257.62z"/>
				<path class="st3" d="M524.71,241.6c11.09,4.54,19.96-4.72,26.37-13.41c0.61-0.13,1.19-0.41,1.63-0.83
					c0.29-0.28,0.56-0.6,0.84-0.89c0.56-0.6,1.18-1.16,1.69-1.79c0.37-0.46,0.81-0.96,1.21-1.5c0.42-0.31,0.82-0.62,1.24-0.94
					c1.35-1.06,2.74-2.1,4.05-3.24c2.4-2.08,4.76-4.23,7.11-6.36c2.29-2.08,4.56-4.17,6.81-6.31c0.71-0.68,1.44-1.38,2.14-2.07
					c0.79-0.54,1.45-1.3,2.18-2c1.19-1.19,2.61-2.2,3.61-3.56c2.02-2.77,1.27-6.83-2.27-7.81c-2.85-0.78-5.84,0.86-8.27,2.18
					c-2.64,1.43-5.1,3.22-7.39,5.19c-4.61,4-8.35,8.93-11.8,13.98c-3.69,5.4-6.85,11.23-11.01,16.29
					c-4.03,4.91-9.92,9.81-16.69,7.88C522.74,235.43,521.61,240.33,524.71,241.6L524.71,241.6z"/>
				<path class="st2" d="M312.39,539.76c-0.29,2.37-0.46,4.75-0.5,7.16c-0.03,1.8,0.03,3.58,0.19,5.34
					c-17.68,14.28-32.53,31.61-44.96,50.73c-0.1,0.14-0.21,0.22-0.31,0.31c-0.15,0.24-0.29,0.48-0.43,0.73
					c-0.8,1.24-2.82,0.47-2.41-1.02c1.69-6.34,5.21-12.29,8.46-17.96c3.35-5.84,7.04-11.46,11.08-16.83
					c8.02-10.73,17.25-20.43,27.25-29.3c0.58-0.5,1.21-0.67,1.81-0.6C312.51,538.79,312.46,539.27,312.39,539.76L312.39,539.76z"/>
				<path class="st2" d="M420.81,492.58c-1.56,1.94-2.63,4.34-3.61,6.65c-9.45,1.95-18.7,4.72-27.57,8.54
					c-8.43,3.63-16.26,8.16-23.95,13.07c0,0,0.05-0.48,0.1-1.31c0.03-0.32,0.03-0.65,0.06-0.97c0.11-1.9,0.21-4.75,0.12-7.65
					c-0.03-0.57-0.03-1.13-0.07-1.69c-0.02-0.21-0.03-0.41-0.05-0.61c-0.03-0.47-0.07-0.93-0.12-1.38c0.29-0.17,0.56-0.36,0.84-0.54
					c2.27-1.52,4.6-2.96,6.96-4.34c4.7-2.73,9.57-5.13,14.56-7.26c10-4.29,20.43-7.38,31.11-9.39
					C419.41,488.09,419.92,490.42,420.81,492.58L420.81,492.58z"/>
			</g>
			<g>
				<path class="st3" d="M799.21,835.15c-1.35-0.34-2.75-0.18-4.1,0.05c-1.55,0.27-3.09,0.63-4.6,1.09
					c-6.14,1.85-11.84,5.16-16.47,9.6c-0.56,0.54-1.1,1.09-1.63,1.66c-0.43,0.46-0.3,1.06,0.17,1.42c2.72,2.03,5.76,3.62,8.98,4.71
					c-0.31,1.08-1.17,1.99-2.3,2.22c-1.3,0.27-2.86-0.55-3.35-1.79c-0.14-0.34-0.35-0.61-0.74-0.66c-0.33-0.05-0.75,0.1-0.91,0.43
					c-0.79,1.64-0.52,3.35-0.54,5.11c-0.01,0.99-0.48,3.11-1.84,2.94c-0.64-0.08-1.15-0.67-1.51-1.15
					c-0.55-0.74-1.04-1.55-1.52-2.33c-1.07-1.73-2.07-3.51-2.98-5.32c-0.35-0.7-0.67-1.42-1-2.13c0.47-1.06,0.51-2.18-0.02-3.23
					c-0.48-0.97-1.5-1.73-2.62-1.63c-0.52,0.05-1.12,0.52-0.89,1.13c0.46,1.23,0.97,2.44,1.5,3.64c-0.06,0.08-0.11,0.16-0.18,0.24
					c-0.71,0.81-1.59,1.42-2.39,2.12c-0.85,0.74-1.56,1.58-1.98,2.64c-0.12,0.31,0.02,0.65,0.25,0.88c-0.17-0.02-0.35,0-0.54,0.12
					c-3.4,2.2-4.51,7.26-2.14,10.6c0.3,0.42,1.02,0.69,1.42,0.19c1.43-1.77,2.35-3.91,2.6-6.16c0.73,0.58,1.57,0.98,2.5,0.91
					c-0.33,0.02-0.63,0.22-0.73,0.64c-1.14,4.72-4.9,8.63-9.48,10.17c-1.13,0.38-2.31,0.64-3.51,0.7c-1.53,0.09-3.06-0.11-4.56-0.37
					c-2.23-0.39-4.54-0.88-6.83-0.81c2.53-4.21,4.13-8.98,4.59-13.88c0.22-2.35,0.15-4.71-0.17-7.04c-0.06-0.48-0.66-0.76-1.1-0.65
					c-0.51,0.13-0.71,0.61-0.64,1.09c0.98,7.23-0.96,14.71-4.99,20.77c-0.05,0.01-0.1,0.02-0.15,0.04
					c-1.05-3.26-2.11-6.52-3.22-9.77c-1-2.94-2.02-5.88-3.06-8.8c-0.16-0.46-0.59-0.78-1.1-0.65c-0.44,0.11-0.82,0.64-0.65,1.1
					c2.21,6.2,4.31,12.45,6.32,18.72c-2.4,1.17-4.36,3.54-4.08,6.33c0.08,0.8,0.9,1.19,1.54,0.66c1.32-1.1,2.51-2.33,3.62-3.63
					c0.95,3.02,1.88,6.05,2.79,9.09c0.88,2.98,1.75,5.96,2.59,8.95c0.31,1.12,2.06,0.67,1.75-0.45c-1.82-6.46-3.75-12.88-5.78-19.28
					c0.17-0.23,0.33-0.45,0.49-0.68c2.84-0.45,5.76,0.36,8.56,0.79c2.76,0.42,5.49,0.4,8.15-0.52c2.42-0.83,4.63-2.22,6.44-4.02
					c2.02-2.02,3.53-4.57,4.2-7.35c0.17-0.7-0.43-1.15-0.98-1.13c0.24-0.02,0.48-0.07,0.73-0.16c0.85-0.3,1.49-0.96,1.65-1.86
					c0.16-0.9-0.16-1.81-0.96-2.3c-0.99-0.61-1.91,0.95-0.92,1.55c0.03,0.02,0.04,0.02,0.05,0.03c0,0,0,0,0,0.01
					c0.09,0.12,0.05,0.07,0.07,0.18c-0.02-0.12,0,0.15,0,0.16c0.01-0.09-0.03,0.14-0.04,0.17c-0.03,0.09-0.09,0.18-0.24,0.27
					c-0.17,0.1-0.36,0.12-0.55,0.12c-1.13-0.02-1.91-1.13-2.54-1.94c-0.18-0.23-0.46-0.3-0.74-0.25c0.54-0.38,0.46-1.06,0.11-1.43
					c0.45,0.06,0.82-0.22,0.99-0.63c0.44-1.09,1.49-1.85,2.37-2.56c0.44-0.35,0.88-0.73,1.28-1.14c1.1,2.31,2.3,4.56,3.65,6.73
					c0.56,0.89,1.11,1.8,1.76,2.63c0.54,0.7,1.24,1.33,2.11,1.58c2.02,0.58,3.58-1.13,4.1-2.91c0.29-0.99,0.24-2.01,0.2-3.03
					c-0.02-0.4-0.03-0.82-0.02-1.24c1.09,0.99,2.57,1.51,4.11,1.24c1.77-0.31,3.2-1.75,3.7-3.45c1.24,0.35,2.51,0.62,3.78,0.82
					c0.73,0.11,1.46-0.57,1.03-1.31c-1.49-2.57-2.98-5.14-4.47-7.7c-0.58-1.01-2.15-0.12-1.56,0.89c1.16,2,2.32,4.01,3.49,6.01
					c-0.74-0.16-1.47-0.36-2.19-0.57c-0.24-0.41-0.78-0.54-1.18-0.37c-2.74-0.93-5.34-2.25-7.74-3.91
					c3.96-4.04,8.79-7.23,14.09-9.21c1.43-0.53,2.89-0.99,4.37-1.35c1.32-0.33,2.68-0.65,4.04-0.73c1.09-0.07,2.31,0.01,3.1,0.86
					c0.89,0.96,0.64,2.45,0.3,3.59c-0.41,1.38-1.12,2.65-1.78,3.92c-0.67,1.29-1.37,2.56-2.1,3.82c-1.45,2.49-3.01,4.92-4.69,7.27
					c-3.34,4.7-7.12,9.08-11.26,13.09c-3.76,3.64-7.83,6.95-12.15,9.91c0.01-0.03,0.03-0.05,0.04-0.08
					c0.58-1.01-0.97-1.93-1.55-0.92c-0.64,1.13-1.29,2.26-1.93,3.39c-0.43,0.75,0.44,1.74,1.22,1.24c5.13-3.23,9.97-6.95,14.4-11.09
					c4.43-4.14,8.47-8.71,12.05-13.61c1.79-2.45,3.46-4.98,5.01-7.59c0.77-1.3,1.5-2.6,2.21-3.93c0.73-1.37,1.48-2.76,2.03-4.21
					c0.52-1.39,0.88-3.04,0.41-4.49C801.78,836.54,800.64,835.52,799.21,835.15z M732.58,876.17c-0.33,0.38-0.65,0.76-1,1.12
					C731.85,876.88,732.19,876.5,732.58,876.17z M756.77,865.25c-0.73-2.09-0.24-4.6,1.37-6.16c-0.02,0.07-0.03,0.14-0.02,0.22
					C758.29,861.37,757.82,863.46,756.77,865.25L756.77,865.25z"/>
				<path class="st3" d="M832.86,829.72c-4.57,2.62-8.78,5.88-12.47,9.65c-0.17,0.17-0.32,0.36-0.49,0.53
					c-0.37-1.38-0.81-2.74-1.32-4.05c-0.25-0.63-0.5-1.26-0.78-1.88c-0.14-0.32-0.57-0.48-0.89-0.44c-0.39,0.05-0.61,0.29-0.76,0.64
					c-0.44,1.02-0.88,2.05-1.32,3.07c-0.13,0.31,0.04,0.65,0.23,0.88c0.35,0.42,0.42,1.06,0.28,1.62c-0.16,0.61-0.51,1.16-1.1,1.4
					c-1.16,0.47-2.62-0.71-2.59-1.94c0.01-0.45-0.33-0.84-0.77-0.9c-0.47-0.06-0.83,0.21-1,0.64c-0.34,0.87-0.68,1.74-1.02,2.61
					c-0.47-0.53-0.93-1.06-1.4-1.59c-0.15-0.17-0.33-0.23-0.53-0.24c-0.1-0.19-0.27-0.34-0.51-0.41c-0.43-0.11-1.04,0.15-1.12,0.63
					c-0.2,1.23-0.4,2.46-0.6,3.7c0,0,0,0,0.01,0c-0.01,0.07-0.03,0.14-0.04,0.22c-0.13,1.01,1.61,1.27,1.77,0.27
					c0.01-0.08,0.03-0.15,0.04-0.23c0.08-0.6,0.27-1.16,0.52-1.71c0.5,0.57,1.01,1.15,1.51,1.72c0.48,0.55,1.28,0.2,1.51-0.39
					c0.24-0.63,0.49-1.26,0.73-1.89c1.03,1.19,2.74,1.78,4.27,1.13c2.03-0.87,2.67-3.49,1.67-5.33c0.1-0.23,0.2-0.46,0.3-0.69
					c0.59,1.55,1.08,3.14,1.45,4.76c-2.85,3.21-5.36,6.72-7.42,10.48c-1.28,2.34-2.8,4.98-2.44,7.74c0.15,1.16,0.68,2.34,1.56,3.13
					c1,0.9,2.3,1.21,3.61,0.99c2.8-0.47,4.35-3.12,5.37-5.5c1.01-2.35,1.58-4.86,1.82-7.41c0.27-2.97,0.04-5.97-0.56-8.9
					c0.19-0.2,0.36-0.42,0.55-0.62c3.76-3.97,8.07-7.39,12.81-10.11C834.76,830.71,833.87,829.15,832.86,829.72L832.86,829.72z
					 M819.26,848.62c-0.02,2.33-0.33,4.65-1.01,6.88c-0.33,1.11-0.75,2.2-1.28,3.23c-0.51,1.01-1.15,2.07-2.11,2.72
					c-0.81,0.55-1.9,0.89-2.85,0.49c-0.88-0.37-1.39-1.28-1.59-2.17c-0.51-2.26,0.95-4.65,1.98-6.56c1.82-3.38,4-6.55,6.47-9.48
					C819.13,845.35,819.27,846.98,819.26,848.62L819.26,848.62z"/>
			</g>
			<path class="st2" d="M614.79,485.49c-5.76-2.55-11.56-5.04-17.49-7.17c-1.63-0.59-3.32-1.25-5.03-1.59
				c-25.91-7.48-52.98-10.72-79.91-9.43c-3.05,0.15-6.11,0.34-9.14,0.6c-2.76,1.94-5.95,3.01-9.22,3.06
				c0.37,2.91,0.48,5.84,0.18,8.77c0,0.07-0.02,0.15-0.03,0.21c2.5-0.11,5-0.37,7.51-0.54c4.05-0.28,8.11-0.49,12.16-0.65
				c8.13-0.33,16.25-0.33,24.38-0.07c16.32,0.52,32.48,2.47,48.52,5.52c8.98,1.71,17.9,3.81,26.7,6.28
				C616.61,491.38,617.96,486.37,614.79,485.49L614.79,485.49z"/>
		</g>
	</g>
</g>
</svg>
