<svg width="1006" height="650" viewBox="0 0 1006 650" fill="none" xmlns="http://www.w3.org/2000/svg">
<mask id="mask0_126_2745" style="mask-type:luminance" maskUnits="userSpaceOnUse" x="0" y="0" width="1006" height="650">
<path d="M1006 0H0V650H1006V0Z" fill="white"/>
</mask>
<g mask="url(#mask0_126_2745)">
<path d="M65.5838 42.9251C68.5008 45.6751 74.5016 48.4277 79.5034 48.4277C84.0872 48.4277 86.2549 46.8424 86.2549 44.3421C86.2549 41.508 82.7543 40.5089 78.1692 39.5914C71.2507 38.2584 62.3329 36.5916 62.3329 27.006C62.3329 20.2545 68.251 14.3364 78.8356 14.3364C85.6712 14.3364 91.0884 16.6711 95.0058 19.8365L90.8387 27.0901C88.4212 24.5057 83.8375 22.4209 78.9198 22.4209C75.0853 22.4209 72.585 23.8379 72.585 26.1726C72.585 28.6728 75.7517 29.5904 80.2527 30.5053C87.1711 31.8409 96.4228 33.6733 96.4228 43.6744C96.4228 51.0936 90.1722 56.5937 79.0026 56.5937C72.0014 56.5937 65.2499 54.2617 61 50.3443L65.5838 42.9251Z" fill="white"/>
<path d="M130.346 55.5946L119.677 40.0909L114.842 45.2597V55.5946H104.258V0H114.842V33.2579L130.096 15.3354H143.098L127.178 33.5892L143.598 55.5946L130.346 55.5946Z" fill="white"/>
<path d="M176.021 55.5946V50.5099C173.271 53.5939 168.436 56.5937 161.851 56.5937C153.016 56.5937 148.849 51.7614 148.849 43.9267V15.3354H159.434V39.757C159.434 45.3438 162.351 47.1763 166.852 47.1763C170.936 47.1763 174.187 44.9258 176.021 42.5912V15.3354H186.607V55.5946H176.021Z" fill="white"/>
<path d="M197.108 55.5946V0H207.693V55.5946H197.108Z" fill="white"/>
<path d="M236.45 14.3364C248.452 14.3364 256.62 23.3384 256.62 36.5075V38.8421H226.697C227.364 43.9268 231.448 48.1754 238.284 48.1754C242.034 48.1754 246.451 46.6768 249.035 44.1765L253.703 51.0095C249.619 54.7612 243.367 56.5937 237.116 56.5937C224.864 56.5937 215.612 48.3436 215.612 35.4243C215.612 23.7538 224.197 14.3364 236.45 14.3364ZM226.53 31.6726H246.368C246.118 27.8394 243.451 22.7547 236.45 22.7547C229.864 22.7547 227.031 27.6711 226.53 31.6726Z" fill="white"/>
<path d="M258.056 14.3363V3.53792H254.172V1.04919H264.77V3.53792H260.904V14.3363H258.056Z" fill="white"/>
<path d="M278.15 14.3363V4.77394L274.404 14.3363H273.17L269.424 4.77394V14.3363H266.596V1.04919H270.56L273.786 9.33661L277.014 1.04919H280.999V14.3363H278.15Z" fill="white"/>
<path d="M136.705 587.776V648.055H115.963V587.776H103V569.79H115.963V565.577C115.963 548.562 126.982 538.353 142.376 538.353C148.209 538.353 153.557 539.65 157.284 541.594L153.071 556.178C151.288 555.044 148.858 554.557 146.427 554.557C140.594 554.557 136.705 558.446 136.705 565.9V569.79H152.585V587.776H136.705Z" fill="white"/>
<path d="M179.602 623.587C186.732 623.587 192.565 629.582 192.565 636.713C192.565 643.68 186.732 649.676 179.602 649.676C172.472 649.676 166.638 643.68 166.638 636.713C166.638 629.582 172.472 623.587 179.602 623.587ZM170.528 612.893L166.962 539.974H191.917L188.676 612.893H170.528Z" fill="white"/>
<path d="M205.897 648.055V569.789H226.476V580.484C231.985 573.516 241.708 568.007 251.43 568.007V588.1C249.972 587.776 248.028 587.614 245.759 587.614C238.953 587.614 229.879 591.341 226.476 596.364V648.055H205.897Z" fill="white"/>
<path d="M259.207 608.841C259.207 586.641 274.763 567.845 300.528 567.845C326.454 567.845 342.01 586.641 342.01 608.841C342.01 631.203 326.454 650 300.528 650C274.763 650 259.207 631.203 259.207 608.841ZM320.621 608.841C320.621 596.688 313.329 586.156 300.528 586.156C287.726 586.156 280.597 596.688 280.597 608.841C280.597 621.156 287.726 631.689 300.528 631.689C313.329 631.689 320.621 621.156 320.621 608.841Z" fill="white"/>
<path d="M359.349 623.425C365.02 628.772 376.687 634.119 386.41 634.119C395.322 634.119 399.535 631.04 399.535 626.18C399.535 620.67 392.73 618.726 383.817 616.943C370.368 614.351 353.029 611.11 353.029 592.476C353.029 579.349 364.534 567.845 385.113 567.845C398.401 567.845 408.934 572.382 416.549 578.54L408.447 592.637C403.748 587.614 394.836 583.563 385.276 583.563C377.822 583.563 372.96 586.318 372.96 590.855C372.96 595.716 379.118 597.498 387.868 599.281C401.317 601.873 419.304 605.439 419.304 624.884C419.304 639.305 407.151 650 385.438 650C371.826 650 358.701 645.463 350.437 637.847L359.349 623.425Z" fill="white"/>
<path d="M487.523 648.055V600.415C487.523 589.558 481.852 586.156 472.94 586.156C465 586.156 458.68 590.693 455.115 595.392V648.055H434.536V539.974H455.115V579.998C460.138 574.002 469.861 567.845 482.662 567.845C499.838 567.845 508.103 577.243 508.103 592.476V648.055H487.523Z" fill="white"/>
<path d="M597.874 648.055L578.59 587.938L559.307 648.055H544.238L519.607 569.79H534.839L552.664 629.421L572.271 569.79H584.91L604.517 629.421L622.342 569.79H637.573L612.943 648.055H597.874Z" fill="white"/>
<path d="M684.89 567.845C708.386 567.845 722.969 586.156 722.969 610.138V613.702H661.07C662.204 626.99 671.926 638.009 687.644 638.009C695.908 638.009 704.983 634.768 710.816 628.772L717.622 638.333C709.844 645.948 698.825 650 686.186 650C662.852 650 645.676 633.472 645.676 608.841C645.676 586.156 662.042 567.845 684.89 567.845ZM660.907 603.169H708.71C708.385 592.799 701.418 579.836 684.89 579.836C669.172 579.836 661.718 592.476 660.907 603.169Z" fill="white"/>
<path d="M775.634 567.845C799.13 567.845 813.714 586.156 813.714 610.138V613.702H751.814C752.948 626.99 762.671 638.009 778.389 638.009C786.653 638.009 795.727 634.768 801.561 628.772L808.367 638.333C800.588 645.948 789.57 650 776.93 650C753.597 650 736.42 633.472 736.42 608.841C736.42 586.156 752.787 567.845 775.634 567.845ZM751.652 603.169H799.454C799.13 592.799 792.163 579.836 775.634 579.836C759.916 579.836 752.462 592.476 751.652 603.169Z" fill="white"/>
<path d="M884.527 648.055L858.439 614.351L846.61 626.342V648.055H832.026V539.974H846.61V609.489L884.366 569.79H902.676L868.971 605.276L903 648.055H884.527Z" fill="white"/>
<path d="M92.6894 438.59C92.6765 438.612 92.6613 438.633 92.6487 438.655C92.4519 438.999 92.2847 439.353 92.1409 439.715C92.1301 439.743 92.1169 439.769 92.1064 439.797C91.968 440.157 91.8579 440.525 91.7702 440.897C91.7629 440.929 91.7534 440.96 91.7463 440.992C91.6633 441.363 91.6077 441.739 91.5737 442.116C91.5705 442.15 91.5659 442.183 91.5632 442.217C91.5337 442.594 91.5305 442.973 91.5483 443.35C91.55 443.384 91.55 443.418 91.552 443.452C91.5742 443.828 91.6213 444.203 91.6894 444.574C91.696 444.608 91.7009 444.643 91.7077 444.678C91.7798 445.046 91.8757 445.409 91.9919 445.766C92.0036 445.801 92.0141 445.837 92.0263 445.873C92.1457 446.225 92.2873 446.568 92.4489 446.903C92.4675 446.941 92.4853 446.98 92.5046 447.019C92.6682 447.346 92.8525 447.662 93.0556 447.967C93.083 448.009 93.1101 448.05 93.1382 448.091C93.3423 448.386 93.5652 448.668 93.8059 448.937C93.8449 448.981 93.8842 449.025 93.9245 449.068C94.1648 449.326 94.4218 449.568 94.6958 449.795C94.7495 449.84 94.8034 449.884 94.8586 449.927C95.1311 450.142 95.4187 450.34 95.7216 450.521C95.7922 450.564 95.8635 450.604 95.9355 450.644C96.2373 450.812 96.552 450.964 96.8818 451.096C96.9692 451.131 97.0581 451.163 97.1477 451.195C97.4765 451.314 97.8171 451.416 98.1718 451.496C98.2761 451.52 98.3825 451.539 98.489 451.559C98.8454 451.626 99.2119 451.676 99.592 451.701C99.6421 451.705 99.6867 451.717 99.7373 451.72H99.7339C99.904 451.73 100.074 451.73 100.244 451.73C100.243 451.73 100.243 451.73 100.243 451.73C100.244 451.73 100.246 451.73 100.247 451.73H223.867C223.853 451.729 223.838 451.728 223.823 451.726H223.872C204.755 450.215 161.619 446.827 130.714 444.378C128.043 444.167 125.476 443.965 123.01 443.771C118.344 443.402 114.085 443.064 110.407 442.77C110.037 442.74 109.667 442.71 109.307 442.68H109.304L113.08 441.273C113.082 441.272 113.085 441.271 113.087 441.27L113.826 440.995C115.159 440.499 116.421 440.03 117.534 439.616L117.767 439.53L118.24 439.353C118.408 439.291 118.584 439.225 118.742 439.166L128.627 435.469L128.707 435.44L133.447 433.67C133.037 431.76 132.647 429.81 132.287 427.87C131.887 425.72 131.497 423.52 131.137 421.34C131.127 421.29 131.117 421.25 131.117 421.21C131.097 421.14 131.087 421.07 131.077 421.01C131.057 420.84 131.027 420.66 130.997 420.5C130.927 420.05 130.847 419.61 130.787 419.16L130.784 419.161C130.784 419.161 130.784 419.16 130.784 419.16L126.074 421.36C126.074 421.36 126.074 421.361 126.074 421.361C126.074 421.36 126.073 421.358 126.072 421.357L96.5742 435.127C96.2566 435.277 95.9756 435.448 95.6916 435.617C95.1809 435.92 94.7053 436.244 94.3073 436.61C94.3037 436.613 94.301 436.617 94.2971 436.621C93.9736 436.911 93.6819 437.22 93.417 437.544C93.4047 437.559 93.3908 437.572 93.3789 437.587C93.1198 437.908 92.8923 438.244 92.6894 438.59ZM113.078 441.273L109.297 442.68H109.287C110.386 442.272 111.496 441.86 112.58 441.457C112.746 441.396 112.914 441.334 113.078 441.273Z" fill="white"/>
<path d="M868.541 397.858L861.98 374.048L861.971 374.054L791.929 120.17C791.928 120.169 791.928 120.169 791.927 120.169C791.936 120.172 791.945 120.176 791.953 120.179C791.934 120.164 791.914 120.149 791.895 120.133C745.568 67.8726 683.191 30.6357 613.507 12.5C581.967 4.28998 548.927 0 515.197 0C474.406 0 432.616 6.28003 391.256 19.51C300.025 48.7 226.745 106.62 179.764 178.52C133.924 248.68 113.124 332.14 125.124 415.18L129.854 412.97C118.804 333.74 137.894 251.74 183.954 181.26C187.079 176.477 190.32 171.774 193.658 167.144C198.897 163.826 204.165 160.422 209.014 157.22L213.285 154.408C213.285 154.408 217.717 151.818 217.717 151.818C229.318 145.142 241.019 137.51 252.965 131.489L270.699 121.88L288.86 113.255C333.605 91.9302 381.382 76.9902 430.065 68.5334C437.091 67.6252 447.438 66.115 454.415 65.0665C564.876 52.4825 677.915 74.9805 781.158 115.832C783.274 118.073 785.368 120.332 787.419 122.63L857.518 376.715L844.031 384.778C836.931 389.028 829.671 393.378 822.961 397.398C807.731 406.488 795.291 413.939 793.601 414.959C771.871 427.989 747.541 436.089 722.141 438.649C668.361 442.579 588.061 447.899 533.502 451.729H717.521C747.151 451.729 776.331 444.719 802.721 431.319L850.71 406.928L864.091 400.129C864.642 401.208 865.567 402.063 866.719 402.51L926.59 425.97L986.46 449.43C990.76 451.13 994.41 454.04 997.02 457.84C999.62 461.66 1001 466.1 1001 470.71V478.37C1001 484.14 998.75 489.57 994.66 493.66C990.56 497.75 985.12 500 979.34 500H87.6537C81.8036 500 76.3236 497.71 72.2235 493.55C68.1137 489.38 65.9037 483.86 66.0035 478.01C66.0836 472.32 68.5035 466.98 72.7936 462.96C77.0936 458.94 82.7135 456.72 88.6237 456.72H94.7438C92.174 455.72 89.9635 454 88.3536 451.73C81.0936 451.79 74.3536 454.66 69.3837 459.31C64.3436 464.03 61.1134 470.58 61.0035 477.93C60.8834 485.38 63.8236 492.15 68.6635 497.06C73.4935 501.96 80.2235 505 87.6537 505H979.34C986.7 505 993.36 502.02 998.19 497.2C1003.02 492.38 1006 485.72 1006 478.37V470.71C1006 464.98 1004.24 459.55 1001.15 455.02C998.05 450.5 993.62 446.88 988.29 444.78L928.42 421.32L868.541 397.858ZM433.728 29.0939C354.577 42.1022 278.793 80.2528 219.923 134.712C235.629 117.376 253.005 101.411 271.945 86.98C308.055 59.47 348.706 38.37 392.776 24.27C432.756 11.49 473.946 4.99999 515.197 4.99999C548.127 4.99999 580.777 9.15001 612.247 17.34C646.618 26.28 679.128 39.9 708.898 57.82C729.974 70.5007 749.402 85.192 766.948 101.662C672.092 36.9186 546.298 9.67736 433.728 29.0939Z" fill="white"/>
<path d="M306.771 377.672V349.513C375.409 298.977 395.523 281.63 395.523 261.013C395.523 246.431 382.197 239.139 368.118 239.139C349.261 239.139 334.679 246.682 323.365 258.499L303 234.866C319.342 216.009 344.233 207.461 367.615 207.461C403.317 207.461 431.727 227.574 431.727 261.013C431.727 289.675 408.094 314.566 363.09 346.245H432.984V377.672H306.771Z" fill="white"/>
<path d="M477.9 377.672V195.984H412.533V154.082H590.869V195.984H525.837V377.672H477.9Z" fill="white"/>
<path d="M589.358 327.388C600.924 339.456 619.277 346.496 635.619 346.496C655.985 346.496 667.299 337.697 667.299 324.874C667.299 311.297 656.99 305.012 633.608 305.012C626.569 305.012 615.254 305.012 612.741 305.263V274.087C615.758 274.338 627.071 274.338 633.608 274.338C652.214 274.338 664.533 268.304 664.533 255.734C664.533 242.408 650.956 235.62 633.357 235.62C617.015 235.62 602.432 241.906 590.615 253.22L573.016 231.095C586.592 215.758 607.712 204.444 637.128 204.444C676.35 204.444 700.486 222.043 700.486 249.951C700.486 271.07 682.384 284.898 663.779 288.167C680.875 289.926 703 303.252 703 328.394C703 357.307 677.104 377.672 636.877 377.672C605.952 377.672 583.073 365.856 570.753 350.77L589.358 327.388Z" fill="white"/>
</g>
</svg>
