<?xml version="1.0" encoding="utf-8"?>
<!-- Generator: Adobe Adobe Illustrator 24.2.0, SVG Export Plug-In . SVG Version: 6.00 Build 0)  -->
<svg version="1.1" id="Layer_1" xmlns="http://www.w3.org/2000/svg" xmlns:xlink="http://www.w3.org/1999/xlink" x="0px" y="0px"
	 width="1217.74px" height="1218.21px" viewBox="0 0 1217.74 1218.21" style="enable-background:new 0 0 1217.74 1218.21;"
	 xml:space="preserve">
<style type="text/css">
	.st0{fill:#EBEBEB;}
	.st1{fill:#FFFFFF;}
	.st2{fill:#6E1D88;}
	.st3{fill:#F8C121;}
</style>
<g>
	<path class="st0" d="M1217.73,609.11c0,336.4-272.71,609.11-609.11,609.11S-0.48,945.51-0.48,609.11S272.22,0,608.62,0
		S1217.73,272.71,1217.73,609.11"/>
</g>
<g>
	<g>
		<path class="st1" d="M905.39,825.99c1.87-0.43,3.73-1.02,5.63-1.26c18.48-2.32,35.55-8.82,51.79-17.63
			c26.2-14.21,49.29-32.93,71.9-51.98c35.84-30.19,64.87-66.3,87.42-107.48c3.43-6.26,5.02-14.48,3.75-19.73
			c-0.62,1.17-1.16,2.04-1.57,2.97c-10.84,24.24-25.6,45.71-43.84,65.09c-25.9,27.52-54.84,50.78-88.28,68.62
			c-20.82,11.11-42.86,17.07-66.09,19.44c-1.73,0.18-3.55-0.45-5.32-0.7c0.02-0.64,0.04-1.28,0.07-1.92
			c2.29-0.47,4.56-1.14,6.87-1.37c17.71-1.73,34.82-5.86,50.87-13.57c33.1-15.9,62.38-36.98,88.12-63.37
			c21.03-21.55,40.09-44.24,52.62-71.87c1.49-3.29,2.85-6.64,4.53-10.57c-6.69-1.33-9.75,2.74-12.51,6.27
			c-11.33,14.5-25.59,25.92-40.45,36.21c-13.84,9.59-28.86,17.67-43.97,25.17c-31.06,15.42-64.07,21.65-98.67,17.61
			c-8.26-0.97-16.33-3.59-24.69-5.49c1.47,10.09,5.49,20.51,1.11,32.75c-0.94-2.61-1.48-3.68-1.71-4.81
			c-1.76-8.81-3.28-17.67-5.22-26.45c-5.63-25.59-17.46-48.84-28.9-72.02c-8.31-16.83-19.21-32.45-29.62-48.16
			c-13.91-20.98-30.83-39.56-49.52-56.28c-13.92-12.45-29.13-23.45-43.7-35.17c-4.46-3.59-8.72-7.44-13.83-11.82
			c-1.11,11.48-6.37,18.89-14.01,25.36c-7.71,6.52-15.8,8.03-25.1,4.95c-18.53-6.14-34.73-16.07-48.94-29.45
			c-10.36-9.75-22.45-16.4-36.72-18.61c-5.92-0.92-11.27-0.1-15.55,4.56c-3.11,3.38-6.28,6.7-9.39,10.07
			c-1.11,1.2-2.15,2.47-3.22,3.71c-0.43-0.26-0.87-0.51-1.3-0.76c0.59-1.5,0.96-3.15,1.81-4.48c2.37-3.72,5.24-7.15,7.36-11
			c4.32-7.82,10.22-11.12,18.99-9.66c15.85,2.64,30.18,8.78,41.81,20.06c12.98,12.59,28.09,21.74,44.56,28.85
			c7.16,3.09,14.4,4.2,21.07-1.01c7.9-6.18,13.66-13.7,14.37-24.3c0.28-4.23,0.93-8.18-4.26-10.05c-0.79-0.29-1.76-2.31-1.45-2.93
			c0.5-1.01,2.03-2.18,3.07-2.12c2.6,0.15,5.19,0.83,7.73,1.5c16.14,4.29,32.38,6.15,48.44,0.18c6.71-2.5,13.54-5.52,19.21-9.77
			c8.55-6.42,11.53-15.61,9.2-26.37c-2.1-9.7-1.15-10.71,8.23-11.63c17.12-1.67,32.14-8.17,41.9-22.65
			c5-7.41,7.61-16.52,10.73-25.07c4.68-12.83,0.99-24.19-7.09-34.58c-1.33-1.7-2.15-3.79-3.21-5.71c2.01-0.09,4.02-0.16,6.03-0.28
			c0.51-0.03,1.02-0.22,1.52-0.36c8.06-2.34,15.47-5.56,21.43-11.94c17.16-18.37,24.54-40.17,22.71-64.95
			c-1.12-15.11-8.4-26.38-23.42-31.61c-2.67-0.93-5.21-2.24-6.87-2.96c1.86-5.68,3.97-10.33,4.86-15.19
			c3.18-17.23,0.59-33.86-7.25-49.43c-5.11-10.14-12.25-18.08-24.2-21.28c-12.72-3.41-24.78-1.58-37.04,1.44
			c-1.26,0.31-2.78-0.42-4.18-0.67c0.76-1.21,1.25-2.87,2.35-3.54c2.12-1.28,3.88-2.26,3.01-5.25c-3.82-13.2-6.64-26.78-15.62-37.88
			c-7.55-9.33-16.4-15.83-29.16-15.58c-10.99,0.22-20.82,3.22-29.32,10.26c-2.18,1.81-5.66,2.83-5.15-0.75
			c1.21-8.53-3.8-13.78-8.36-19.18c-6.46-7.65-14.03-14.18-24.66-14.96c-13.95-1.02-27.34,1.68-38.61,10.08
			c-12.98,9.68-25.27,20.31-37.66,30.76c-5.08,4.29-5.5,4.55-10.15-0.36c-8.26-8.73-19.59-10.11-26.6-2.18
			c-13.35,15.1-25.56,31.04-32.07,50.6c-1.77,5.3-4.8,10.18-6.85,15.41c-0.8,2.03-1.42,4.92-0.58,6.7
			c10.27,21.85,20.59,43.68,31.43,65.25c4.42,8.8,4.95,9.67-1.22,17.44c-0.98,1.23-2.13,2.39-3.39,3.33
			c-13.67,10.13-28.85,17.01-45.38,20.92c-1.17,0.28-2.49-0.08-3.74-0.14c-0.16-0.47-0.31-0.94-0.47-1.42
			c1.49-0.91,2.9-2.02,4.49-2.69c2.6-1.1,5.37-1.78,7.97-2.86c12.94-5.36,25.34-11.67,35.91-21.07c3.62-3.22,5.15-6.59,0.73-10.55
			c-1.41-1.26-2.44-3.06-3.3-4.79c-12.04-24.33-24.25-48.58-35.95-73.08c-6.7-14.03-12.32-28.56-13.65-44.3
			c-0.63-7.54-0.69-15.15-1.66-22.65c-0.76-5.88-4.79-7.69-9.94-4.62c-2.25,1.34-4.44,3.71-5.41,6.11
			c-4.11,10.12-8.4,20.25-11.38,30.73c-3.23,11.32-5.29,22.99-7.44,34.59c-1.44,7.77-2.57,15.65-3.12,23.53
			c-1.28,18.28,1.66,36.16,4.48,54.21c2.22,14.21,10.9,21.58,21.39,28.55c2.17,1.44,4.43,2.76,6.64,4.14
			c-1.52,1.49-2.58,2.02-3.41,1.78c-10.82-3.11-18.88-9.96-25.09-19.1c-1.01-1.49-1.03-3.66-1.49-5.53
			c-2.03-8.31-4.05-16.63-6.12-25.15c-7.54,1-14.36,2.82-21.13,2.63c-15.79-0.42-29.06,6.2-41.18,14.71
			c-24.28,17.02-43.33,39.14-57.5,65.14c-5.88,10.8-11.73,22.13-14.64,33.94c-4.74,19.19-21.4,36.9-42.88,40.21
			c14.12-7.07,25.64-16.88,33.73-30.9c-3.1-2.82-5.73-5.74-8.86-7.96c-11.09-7.84-22.08-15.88-33.64-22.97
			c-7.29-4.47-15.44-7.62-23.41-10.85c-1.92-0.77-4.66,0.48-7.02,0.81c0.55,2.24,0.72,4.67,1.73,6.68
			c2.21,4.39,5.09,8.44,7.26,12.84c5.01,10.19,5.74,21.25,6.88,32.38c0.95,9.31-1.06,20.18,10.46,26.88
			c-3.15,0.9-5.95,2.54-6.85,1.82c-3.02-2.42-5.36-5.69-8.18-8.89c-0.24,0.13-1.08,0.45-1.74,0.98
			c-12.4,9.96-21.15,21.95-22.65,38.47c-1.25,13.85,0.12,27.35,3.16,41.65c3.82-1.92,6.78-3.93,10.04-4.93
			c6.16-1.89,12.44-4.2,18.77-4.55c18.74-1.03,35.78,7.25,53.66,11.07c9.41,2.01,18.34,6.2,27.72,8.44
			c13.6,3.24,26.99,2.97,40.35-2.79c8.47-3.65,17.91-5.06,26.9-7.53c1.3-0.36,2.67-0.8,3.76-1.55c1.45-1.01,2.67-2.38,3.98-3.59
			c1.06,2.11,2.64,4.12,3.07,6.35c0.68,3.48-0.03,6.03-4.47,3.2c-0.97-0.62-2.67-0.52-3.9-0.22c-4.27,1.04-8.57,2.11-12.72,3.55
			c-8.5,2.95-16.8,6.52-25.39,9.15c-13.95,4.27-27.7,0.67-41.16-2.66c-12.59-3.11-24.76-7.87-37.31-11.18
			c-10-2.63-20.2-5.01-30.46-5.94c-8.87-0.8-8.97,0.17-8.12,8.93c0.2,2.1,0.38,4.23,0.85,6.28c6.42,28.35,25.1,44.49,52.58,50.25
			c18.43,3.86,37.39,5.08,55.99,8.23c20.32,3.45,40.5,7.77,60.74,11.71c18.37,3.58,36.81,6.79,55.06,10.91
			c8.68,1.96,15.99,0.6,22.88-4.58c3.67-2.76,7.29-5.58,10.95-8.36c1.33-1.01,2.68-1.99,4.02-2.99l1.48,0.9
			c-0.54,1.5-0.67,3.4-1.69,4.41c-4.37,4.34-9.07,8.34-13.53,12.6c-6.8,6.49-14.77,7.53-23.52,5.38c-4.62-1.14-9.21-2.47-13.88-3.34
			c-16.49-3.08-33-6.08-49.54-8.88c-1.48-0.25-4.14,0.69-4.72,1.85c-4.23,8.52-7.96,17.3-12.09,25.88c-2.04,4.23-0.21,6.23,3.5,7.51
			c13.36,4.63,26.75,8.97,41.14,9.15c7.2,0.09,14.4,0.89,21.59,1.37c-23.37,2.42-46.31-0.12-68.81-6.22
			c-5.61,12.24-6.88,21.8-6.05,39.63c0.26,5.6,2.14,8.46,7.96,9.71c27.9,5.99,55.7,6.29,83.5-0.32c11.75-2.8,12.7,0.16,9.57-15.42
			c-2.58-12.89-3.44-26.13-4.67-39.26c-0.17-1.77,1.91-3.74,2.94-5.62c1.2,1.91,2.61,3.71,3.51,5.75c0.53,1.21,0.16,2.8,0.35,4.2
			c1.13,8.38,1.91,16.83,3.54,25.1c2.24,11.32,4.48,22.6-0.32,33.69c-3.71,8.57-7.29,17.33-12.2,25.21
			c-11.06,17.73-21.39,35.73-28.2,55.6c-1.28,3.74-2.12,7.01-0.76,11.14c1.27,3.83,1.07,8.25,0.98,12.4
			c-0.12,5.13-0.79,10.26-1.32,16.44c3.61-2.44,6.04-4.56,8.85-5.87c5.02-2.33,10.19-4.43,15.46-6.13c3.17-1.02,4.91,1.01,5.29,4.22
			c1.19,9.97,2.24,19.96,3.75,29.88c0.52,3.43-1.07,4.25-3.59,4.32c-20.85,0.6-36.97-8.33-34.69-31.97
			c0.56-5.87,0.08-11.84,0.08-19.12c-4.99,6.01-9.36,11.02-13.35,16.32c-0.66,0.87-0.24,3.66,0.65,4.38
			c2.69,2.2,5.92,3.75,8.81,5.73c0.86,0.6,1.31,1.8,1.94,2.73c-1.04,0.47-2.12,1.41-3.11,1.33c-5.61-0.48-9.83-3.35-13.24-7.8
			c-1.14-1.49-2.95-2.93-4.72-3.41c-16.49-4.52-33.02-8.89-49.58-13.13c-2.8-0.72-5.81-0.88-8.71-0.83
			c-8.64,0.14-17.28,0.68-25.91,0.72c-3.63,0.02-7.36-1.59-10.88-1.15c-11.78,1.49-23.38-4.47-28.3-15.18
			c-15.9,3.77-24.54-0.98-30.06-16.49c-8.79,0.73-14.54-4.4-19.43-10.56c-1.81-2.29-3.6-5.85-3.1-8.37
			c0.59-2.98,0.15-4.37-1.88-6.25c-14.95-13.82-24.83-30.63-25.73-51.15c-1.11-25.54,5.8-44.17,29.9-55.57
			c3.93-1.86,8.19-3.4,12.45-4.11c18.13-3.02,36.37-4.74,54.79-3.43c2.33,0.17,5.79,0.43,6.89-0.89c3.75-4.49,6.68-9.67,10.34-15.21
			c-5.62,0-10.23-0.53-14.67,0.09c-19.43,2.71-38.82,2.01-58.09-0.8c-26.53-3.86-52.93-8.59-79.46-12.48
			c-10.11-1.48-20.4-1.82-30.62-2.44c-31.45-1.91-62.79-3.61-91.96,12.45c-9.66,5.32-18.24,11.4-24.5,20.45
			c-5.72,8.28-7,17.5-3.12,26.65c3.63,8.57,7.81,17.09,12.99,24.79c12.56,18.64,27.71,35.19,45.1,49.41
			c14.09,11.51,29.42,20.9,47.21,26.49c19.17,6.03,37.35,15.33,56.63,20.88c32.87,9.47,66.26,17.18,99.45,25.52
			c27.88,7.01,55.74,14.16,83.73,20.74c29.19,6.87,58.31,13.81,86.63,23.93c26.42,9.45,53.07,18.29,79.82,26.74
			c16.47,5.2,33.55,8.47,49.97,13.81c26.51,8.62,52.46,19.02,79.1,27.21c28.51,8.76,57.49,15.99,86.34,23.58
			c41.99,11.04,84.76,17.15,128.14,18.32c20.47,0.55,41.13,1.2,61.43-0.87c24.32-2.48,48.37-7.64,72.49-11.94
			c23.91-4.26,47.19-10.79,68.93-21.86c4.18-2.13,8.89-5.36,10.86-9.32c6.49-13.05,12.3-26.5,17.48-40.14
			c3.61-9.5,5.14-19.34-1.81-28.68c-4.29-5.77-7.15-12.6-11.49-18.31c-9.28-12.21-18.8-24.27-28.84-35.86
			c-5.67-6.54-12.58-12.01-19.21-18.22c-4.91,6.37-9.07,11.76-13.43,17.41c1.54,1.11,2.63,1.95,3.76,2.72
			c15.65,10.53,29.04,23.1,36.4,40.98c4.29,10.43,6.31,20.97,1.15,31.79c-0.46,0.97-0.3,2.24-0.56,4.47
			c8.54-4.07,11.5-11.02,13.79-18.59c2.43,6.7,1.5,12.58-3.61,17.07c-5.02,4.42-10.06,9.18-15.9,12.23
			c-12.66,6.58-25.9,12.05-38.8,18.17c-29.58,14.03-60.61,22.58-93.39,22.92c-17.24,0.18-34.53-1.51-51.74-2.99
			c-25.35-2.19-50.65-4.91-75.96-7.49c-35.66-3.64-71.13-8.75-106.02-16.93c-25.23-5.91-50.25-12.82-75.08-20.25
			c-21.77-6.52-43.14-14.36-64.67-21.68c-5.04-1.71-9.94-1.31-14.55,1.07c-11.19,5.77-22.62,5.78-34.44,2.28
			c-2.24-0.66-4.94,0.06-7.41,0.35c-5.57,0.66-11.18,2.26-16.66,1.86c-3.09-0.23-6.01-3.58-8.82-5.76
			c-0.43-0.33-0.24-2.18,0.29-2.81c0.37-0.45,2.15-0.43,2.68,0.05c6.6,6.05,13.77,2.74,22.12,1.96c-1.99-8.64-3.8-16.49-5.87-25.45
			c-6.22,6.74-11.24,12.4-16.55,17.78c-1.23,1.24-3.43,1.51-5.19,2.23c0.27-1.89-0.12-4.31,0.91-5.58
			c5.89-7.25,11.97-14.35,18.3-21.22c3.01-3.26,6.04-2.3,7.38,2.13c1.84,6.08,3.4,12.24,4.99,18.39c0.84,3.25,0.4,7.82,2.44,9.5
			c2.52,2.07,6.97,2.06,10.64,2.4c3.67,0.34,7.49,0.51,11.09-0.11c10.23-1.77,19.62-5.37,20.86-19.35c0.08-0.86,0.55-1.67,0.8-2.52
			c3.94-13.36,8.7-26.55,11.64-40.13c7.88-36.39,14.62-73,18.08-110.14c0.17-1.85,2.06-3.53,3.15-5.3c0.84,1.85,2.51,3.75,2.4,5.54
			c-0.66,11.09-1.18,22.24-2.78,33.21c-2.39,16.4-4.96,32.83-8.79,48.93c-2.26,9.52,0.76,15.83,6.82,22.44
			c11.98,13.07,26.83,21.69,42.55,29.17c2.81,1.34,4.78,0.83,6.55-2.1c3.48-5.72,7.24-11.29,11.26-16.64
			c0.98-1.31,3.43-1.52,5.2-2.24c-0.46,1.66-0.66,3.46-1.43,4.97c-4.19,8.33-9.32,16.29-12.61,24.95
			c-5.8,15.25-3.9,30.47,2.33,45.41c1.25,3,2.72,4.72,5.65,5.42c29.86,7.09,59.51,15.3,89.64,20.92
			c33.26,6.2,66.95,10.06,100.47,14.82c11.02,1.57,12.97-0.05,17.74-10.49c7.98-17.46,11.38-35.91,12.99-54.83
			c0.15-1.73,0.79-3.41,1.2-5.11c0.55,0.06,1.1,0.12,1.65,0.19c0.13,1.78,0.41,3.57,0.36,5.35c-0.07,2.47-0.89,5.01-0.51,7.38
			c2.5,15.47-1.67,29.63-8.04,43.47c-2.6,5.17-5.2,10.34-7.75,15.43c11.96,1.25,24.65,2.23,37.23,3.94
			c34.43,4.68,68.65,3.87,101.61-7.47c22.78-7.84,44.63-18.39,66.86-27.8c1.2-0.51,2.36-1.51,3.11-2.58
			c11.05-15.71,10.53-31.93,2.02-48.48c-7.39-14.37-19.96-23.54-32.72-32.49c-0.73-0.51-2.83-0.22-3.49,0.47
			c-7.86,8.28-15.58,16.7-23.36,25.12c0.12,0.21,0.21,0.62,0.47,0.8c1.29,0.92,2.63,1.78,3.94,2.67
			c12.52,8.49,21.23,19.46,23.09,35.01c0.81,6.72-1.42,12.46-6.19,14.34c0.07-1.34,0.12-2.45,0.19-3.57
			c0.22-3.66,1.23-7.48,0.54-10.95c-2.97-14.83-11.74-25.79-24.24-33.88c-0.87-0.56-3.03-0.15-3.99,0.59
			c-12.79,9.94-25.73,19.73-38.14,30.14c-27.21,22.83-57.48,38.75-93.16,43.32C907.27,831.29,905.46,830.11,905.39,825.99
			 M665.95,854.38c-4.24-1.52-9.01-3.24-13.79-4.93c-13.8-4.89-27.48-10.18-41.45-14.55c-17.68-5.53-35.55-10.34-52.47-18.19
			c-7.44-3.45-15.67-5.39-23.72-7.29c-23.7-5.6-47.5-10.79-71.23-16.27c-7.29-1.68-7.24-1.86-9.53,5.53c-0.94,3.03-2.04,6-2.87,9.06
			c-2.2,8.15-4.91,10.93-13.32,10.47c-6.13-0.34-8.76,1.83-9.33,7.53c-0.09,0.86-0.51,1.69-0.74,2.54
			c-2.04,7.56-7.81,13.42-17.06,12.51c-9.64-0.94-19.33-1.7-28.83-3.42c-4.72-0.86-9.15-3.57-13.57-5.74
			c-0.89-0.44-1.11-2.23-1.64-3.39c1.07-0.28,2.22-0.96,3.21-0.79c15.89,2.79,31.77,5.68,48.26,8.66c2.13-6.06,4.39-12.48,6.8-19.34
			c-20.14-6.94-40.13-13.84-60.12-20.73c0.16-0.55,0.32-1.1,0.48-1.65c1.85,0.25,3.76,0.3,5.55,0.8
			c12.67,3.51,25.25,7.36,37.98,10.59c9.53,2.42,19.22,4.26,28.91,5.91c1.65,0.28,4.88-1.33,5.34-2.74
			c2.01-6.13,3.26-12.51,4.83-18.96c-1.67-0.63-2.77-1.18-3.93-1.46c-29.97-7.39-59.94-14.83-89.94-22.09
			c-11.13-2.69-11.18-2.51-13.6,8.4c-2.72,12.28-2.71,12.23,9.15,16.11c2.02,0.66,3.84,1.94,5.75,2.93c-9.7,3-8,11.5-10.66,17.23
			c-4.54,9.82,4.93,11.07,9.96,15.43c-1.74,0.79-3.18,1.18-4.5,0.94c-9.39-1.68-13.94-8.42-11.86-18.28
			c1.04-4.94,3.11-9.66,4.72-14.47c-11.31-4.21-13.26-7.69-10.92-19.63c0.87-4.43,1.77-8.85,2.6-12.98
			c-32.51-7.67-64.54-15.23-97.06-22.91c-0.52,2.04-1.05,3.85-1.43,5.7c-2.91,13.99-5.9,27.96-8.64,41.98
			c-3.14,16.1-6.38,32.19-8.89,48.4c-1.47,9.47,3.93,16.87,9.35,24.82c3.2-12.26,5.98-23.55,9.13-34.74
			c1.72-6.1,3.98-12.06,6.17-18.03c0.34-0.91,1.59-1.5,2.42-2.23c0.51,0.8,1.65,2.01,1.43,2.34c-3.29,5.01,1.16,8.86,1.83,13.24
			c4.91,32.33,16.68,62.73,26.65,93.6c4.54,14.06,8.97,28.5,16.12,41.28c14.72,26.31,29.7,52.66,49.27,75.84
			c9.54,11.3,19.21,22.69,30.16,32.55c11.49,10.34,24.56,18.94,37,28.21c6.93,5.17,13.69,10.68,21.09,15.09
			c8.76,5.22,18.13,9.41,27.21,14.09c8.16,4.21,16.05,9.04,24.48,12.62c21.42,9.09,44.11,13.77,66.97,17.33
			c31.02,4.83,62.14,8.98,93.18,13.63c29.15,4.37,58.22,9.23,87.81,9.92c33.13,0.78,65.33-2.96,94.96-19.04
			c28.69-15.57,57.65-30.74,85.48-47.73c16.29-9.95,31.19-22.47,45.69-35.01c24.16-20.9,47.22-43,64.51-70.31
			c13.13-20.73,26.46-41.34,39.65-62.04c4.11-6.45,8.08-12.99,12.11-19.49c-0.36-0.39-0.71-0.78-1.07-1.17
			c-2.92,1.26-7.21,1.73-8.5,3.95c-3.25,5.55-5.64,11.74-7.48,17.94c-3.56,12.03-11.45,17.13-23.71,17.71
			c-15.24,0.72-29.71-0.25-41.18-11.92c-1.01-1.03-1.95-3.13-1.59-4.33c1.1-3.69,2.73-7.25,4.44-10.72c0.4-0.8,1.96-1.02,2.99-1.51
			c0.39,1.07,1.3,2.27,1.07,3.17c-0.78,3.04-1.96,5.98-3.26,9.75c4.3,2.21,8.25,5.17,12.68,6.35c11.78,3.13,23.79,2.43,35.71,0.4
			c1.27-0.22,2.85-1.46,3.4-2.64c3.73-7.91,7.23-15.94,10.88-24.12c-0.89,0.1-1.73,0.33-2.54,0.25c-0.76-0.07-1.5-0.46-3.79-1.24
			c3.23-1.46,5.11-2.47,7.11-3.18c6.15-2.17,12.38-4.13,18.49-6.4c1.73-0.64,3.8-1.77,4.6-3.26c5.02-9.45,9.74-19.06,15.07-29.65
			c-2.49,0.41-3.53,0.46-4.48,0.76c-15.64,4.98-31.3,9.9-46.89,15.03c-13.85,4.56-27.88,7.42-42.59,6.16
			c-3.28-0.28-6.71,0.11-9.97,0.74c-5.07,0.98-8.03,10.49-4.77,14.35c2.43,2.87,4.63,5.94,6.92,8.92c-0.47,0.55-0.93,1.1-1.4,1.65
			c-3.99-3.03-9.44-5.3-11.56-9.33c-1.98-3.75-0.42-9.37-0.42-13.9c-12.38,0.61-25.91,1.69-39.46,1.84
			c-24.61,0.28-49.43,3.37-73.61-4.25c-1.97-0.62-4.21-0.35-6.33-0.51c-17.97-1.34-35.96-2.49-53.91-4.11
			c-7.15-0.64-14.2-2.31-20.86-3.45c-2.23,5.71-4.69,10.8-6.18,16.17c-1.31,4.73-4.35,6.78-8.62,7.32c-4.18,0.53-8.56,1.2-12.63,0.5
			c-10.76-1.86-21.4-4.41-32.07-6.77c-1.18-0.26-2.22-1.14-3.32-1.74c0.09-0.48,0.18-0.96,0.27-1.44c1.58-0.08,3.21-0.42,4.74-0.18
			c7.85,1.22,15.64,2.95,23.52,3.8c6.06,0.65,12.24,0.41,18.35,0.2c1.49-0.05,3.91-1.3,4.21-2.45c1.4-5.35,2.2-10.85,3.11-15.72
			c-34.42-11.73-68.52-23.35-103.45-35.25c-1.25,8.22-2.68,16.35-3.65,24.53c-0.47,3.98-2.33,8.58,3.29,11.4
			c-1.61,0.37-2.64,0.56-3.56,0.33c-5.54-1.39-7.81-5.35-7.22-10.65C662.92,874.84,664.46,865.15,665.95,854.38 M337.53,712.1
			c6.34-4.09,11.29-7.44,16.4-10.54c7.15-4.33,11.43-2.05,12.58,6.45c0.61,4.55,1.39,9.08,2.02,13.63c0.41,2.93,1.78,4.35,4.95,4.1
			c10.51-0.81,21.04-1.35,31.52-2.38c1.32-0.13,2.89-2.32,3.54-3.89c4.13-9.93,7.24-20.37,12.23-29.83
			c5.26-9.99,8.54-19.22,0.95-29.25c-0.2-0.26-0.18-0.68-0.28-1.01c-5.56-18.01-8.54-36.57-6.7-55.21
			c2.25-22.85,7.26-45.29,17.71-66.11c1.13-2.26,2.29-4.5,3.68-7.23c-12.64-2.63-24.66-4.64-36.39-7.75
			c-6.75-1.79-10.17,0.97-13.1,6.08c-0.26,0.46-0.46,0.96-0.75,1.41c-10.48,16.67-20.87,33.4-31.48,49.99
			c-10.06,15.73-20.64,31.13-30.47,47c-7.78,12.56-14.78,25.6-22.2,38.58c8.78-2.1,10.6-0.51,9.58,8.57
			c-0.71,6.36-1.78,12.68-2.47,17.52c6.62-4.67,13.69-10,21.13-14.77c4.97-3.19,8.01-1.68,8.81,4.18c0.59,4.31,0.5,8.76,0.3,13.13
			C338.83,700.14,338.14,705.52,337.53,712.1 M1126.62,859.83c-1.35,0.26-2.06,0.25-2.63,0.53c-25.29,12.33-52.44,18.58-79.64,24.88
			c-32.12,7.44-64.93,8.13-97.5,9.03c-24.75,0.69-49.67-2.67-74.43-5.06c-18.08-1.74-36.16-4.17-54-7.52
			c-17.81-3.35-35.43-7.86-52.94-12.56c-21.28-5.72-42.75-11.08-63.43-18.55c-40.03-14.46-80.32-27.89-121.21-39.78
			c-35.56-10.34-70.35-23.31-105.55-34.9c-8.7-2.86-17.61-5.2-26.56-7.19c-15.49-3.45-31.15-6.12-46.61-9.72
			c-16.66-3.88-33.1-8.7-49.76-12.62c-13.73-3.24-27.72-5.4-41.44-8.68c-41.02-9.8-82.06-19.66-120.98-36.41
			c-19.37-8.33-39.91-13.54-57.83-25.77c-23.25-15.88-43.44-34.33-58.82-57.91c-3.57-5.48-6.52-11.36-9.75-17.06
			c-0.56,0.3-1.13,0.61-1.69,0.91c5,9.42,10.06,18.81,14.97,28.28c11.79,22.72,28.84,40.84,50.88,53.3
			c30.69,17.36,61.98,33.57,95.5,45.31c18.43,6.46,37.24,10.7,56.16,14.92c26.32,5.86,52.64,11.71,78.91,17.82
			c21.82,5.08,43.62,10.28,65.31,15.88c22.7,5.86,45.2,12.5,67.91,18.32c18.62,4.77,37.59,8.23,56.08,13.42
			c13.2,3.7,25.75,9.69,38.82,13.91c11.91,3.84,24.41,5.93,36.17,10.12c22.42,8,44.48,17,66.72,25.49
			c14.97,5.71,29.83,11.76,45.04,16.77c15.68,5.17,31.51,10.3,47.66,13.53c17.61,3.52,35.65,4.98,53.53,7.04
			c7.33,0.85,14.77,0.75,22.13,1.4c20.01,1.78,39.99,5.09,60.01,5.25c23.61,0.19,47.24-2.17,70.86-3.66
			c19.87-1.25,39.83-1.4,59.09-8.07c20.33-7.04,41.16-12.65,61.46-19.76C1115.13,868.59,1122.34,866.92,1126.62,859.83
			 M444.37,203.27c-0.55-0.38-1.33-1.13-2.26-1.52c-23.59-9.96-43.11-25.9-62.27-42.35c-2.92-2.51-5.5-5.5-7.92-8.52
			c-12.22-15.29-24.23-30.76-36.62-45.91c-1.63-1.99-5.04-3.37-7.63-3.37c-1.27,0-3.22,3.68-3.69,5.93
			c-3.88,18.71-0.3,36.59,9.65,52.34c12.04,19.06,24.65,37.69,34.31,58.16c4.88,10.34,10.21,20.55,18.75,28.41
			c8.86-8.14,17.07-16.94,26.56-24.05C422.88,215.21,433.75,209.7,444.37,203.27 M522.5,623.87c-0.51-0.32-1.02-0.63-1.52-0.95
			c-0.85,0.18-1.69,0.39-2.55,0.53c-14.43,2.32-28.82,6.15-43.3,6.52c-15.76,0.4-31.62-2.28-47.41-3.89
			c-4.37-0.45-5.74,1.04-4.59,4.97c3.5,12.01,7.05,24,10.74,35.94c1.8,5.84,5.88,9.25,11.9,10.8c16.58,4.25,32.56,0.69,48.52-3.34
			c1.17-0.3,2.3-1.65,2.99-2.79c5.39-8.89,10.98-17.68,15.89-26.83C516.76,638.1,519.42,630.87,522.5,623.87 M858.36,596.42
			c5.91,10.12,11.06,19.15,16.49,28c0.9,1.47,2.96,2.42,4.67,3.15c9.58,4.09,19.18,8.16,28.85,12.02c13.27,5.3,26.29,11.56,40,15.34
			c23.78,6.55,46.44,15.52,68.33,26.72c1.27,0.65,3.2,1.23,4.33,0.72c5.69-2.55,11.22-5.46,18.2-8.94
			C979.61,645.01,918.82,622.78,858.36,596.42 M284.69,576.87c-16.92,8.54-23.24,23.05-23.96,40.03
			c-0.96,22.49,13.91,37.49,27.52,54.74c6.13-9.04,11.59-17.11,17.18-25.35c-4.85-3.47-4.36-7.07-3.75-11.44
			c1.19-8.5,2.01-17.21,1.5-25.75c-0.62-10.45-1.24-10.59-11.48-12.9c-4.18-0.94-5.99-2.88-6.03-7.14
			C285.65,585.08,285.06,581.1,284.69,576.87 M604.26,776.59c7.85,2.56,15.63,4.82,23.19,7.67c4.24,1.6,7.93,1.43,11.5-1.09
			c8.2-5.79,16.67-11.27,24.36-17.68c4.58-3.82,7.88-9.17,11.55-13.58c-14.62-8.47-28.24-16.36-41.72-24.18
			c-3.1,10.41-10.44,19.47-19.81,26.49c-5.25,3.94-7.31,8.78-8.53,14.5C604.31,771.07,604.45,773.55,604.26,776.59 M912.58,665.19
			c0.17-0.48,0.34-0.97,0.51-1.45c10.53,3.75,21.12,7.34,31.56,11.33c4.45,1.7,7.53,1.01,9.64-3.26c1.21-2.45,2.3-4.97,3.15-6.81
			c-19.03-7.87-37.55-15.52-56.96-23.55c-2.71,5.07-5.83,10.54-8.52,16.21c-0.72,1.52-0.57,3.81-0.04,5.5
			c2.81,8.88,5.84,17.7,8.89,26.5c0.42,1.2,1.2,2.89,2.17,3.18c7.43,2.18,14.91,4.18,22.45,5.93c1.46,0.34,4.1-0.16,4.71-1.17
			c2.58-4.29,4.61-8.91,7.15-14.05c-12.65-4.64-24.48-8.98-36.32-13.32c0.2-0.55,0.41-1.09,0.61-1.63
			c12.13,4.54,24.26,9.07,34.87,13.04c2.57-2.28,4.65-4.13,6.25-5.55C933.37,672.7,922.97,668.94,912.58,665.19 M288.62,573.05
			c0.55,4.56,1.58,8.26,1.3,11.85c-0.47,5.78,2.23,7.83,7.4,8.29c3.46,0.3,7.03,1.21,7.66,5.26c1.12,7.24,2.37,14.55,2.42,21.84
			c0.05,6.73-1.39,13.47-2.18,20.21c0.46,0.22,0.93,0.44,1.39,0.67c8.91-14.66,17.82-29.33,27.43-45.12
			c-7.43,0.56-13.62,1.03-19.81,1.5c-0.04-0.44-0.07-0.87-0.1-1.31c2.74-0.51,5.45-1.14,8.21-1.48c2.8-0.34,5.63-0.37,8.45-0.56
			c2.58-0.18,5.68,0.56,6.95-4.42c-12.12-0.68-23.63-1.33-35.78-2.02c1.42-0.4,2.26-0.88,3.07-0.84c10.17,0.5,20.33,1.12,30.51,1.6
			c1.63,0.08,4.16,0.24,4.78-0.66c4.54-6.62,8.69-13.51,13.41-21.01C331.04,566.24,309.65,567.45,288.62,573.05 M431.55,683.27
			c-5.96,14.54-11.85,28.93-17.85,43.59c1.96,0.6,4.27,1.39,6.61,2.03c12.55,3.41,25.08,6.92,37.7,10.06
			c2.01,0.5,5.06,0.01,6.54-1.28c2.72-2.37,4.62-5.67,6.52-8.15C457.96,714.17,445.03,699.04,431.55,683.27 M930.82,698.71
			c28.25,2.03,54.11-0.25,79.78-12.27c-16.41-8.38-31.64-16.22-48.28-21.37c-0.69,1.73-1.15,2.68-1.45,3.67
			c-2.18,7.2-6.09,12.24-14.45,12.23c-1.26,0-2.94,0.79-3.71,1.77C938.83,687.65,935.2,692.76,930.82,698.71 M443.54,684.69
			c10.57,13.49,20.84,26.59,31.09,39.67c6.05-15.44,11.7-29.89,17.02-43.48C476.49,682.08,460.62,683.34,443.54,684.69
			 M678.38,800.72c-2.11-6.9-4.65-12.78-5.56-18.91c-0.91-6.17-0.2-12.59-0.2-18c-11.04,8.07-22.15,16.18-33.9,24.77
			C651.92,792.63,665.05,796.64,678.38,800.72 M232.64,860.41c7.63,5.02,14.91,9.8,22.58,14.84c-2.34-9.31-4.83-18.2-6.76-27.22
			c-1.93-9-3.29-18.12-5.08-28.18C239.67,833.88,236.19,847.03,232.64,860.41 M513.11,771.41c-0.9-9.69-1.72-18.53-2.59-28.01
			c-10,2.63-16.92,9.52-25.24,14.89C493.07,766.39,502.99,768.38,513.11,771.41 M331.86,683.66c-0.58-0.24-1.16-0.48-1.74-0.72
			c-6.59,5.7-13.18,11.4-19.66,17.01c5.32,9.31,12.22,12.83,21.4,11.44V683.66z M609.94,753.11c9.67-7.92,16.69-16.7,20.9-27.6
			c0.31-0.79,0.2-2.17-0.31-2.79c-2.96-3.59-6.1-7.02-9.66-11.05C617.13,725.85,613.69,738.89,609.94,753.11 M301.87,696.27
			c0.9-8.69,1.65-15.87,2.51-24.14c-6.02,4.06-11.17,7.54-17.57,11.86C292.22,688.4,296.74,692.09,301.87,696.27 M877.37,629.82
			c3.92,8.95,7.26,16.56,10.65,24.3c3.19-5.27,5.99-9.88,8.98-14.82C890.75,636.28,884.69,633.36,877.37,629.82 M361.31,724.23
			c0.27-0.39,0.55-0.78,0.82-1.17c-1.1-5.68-2.2-11.36-3.43-17.68c-5.62,4.01-10.51,7.5-16.41,11.7c1.51,0.89,2.41,1.2,3.02,1.81
			C349.9,723.45,356.9,719.17,361.31,724.23"/>
		<path class="st2" d="M905.43,826.08c6.41-13.77,10.57-27.93,8.08-43.4c-0.38-2.37,0.44-4.91,0.51-7.38
			c0.05-1.78-0.23-3.56-0.36-5.35c-0.55-0.06-1.1-0.12-1.65-0.19c-0.41,1.7-1.06,3.39-1.2,5.11c-1.61,18.93-5.01,37.38-12.99,54.84
			c-4.77,10.44-6.73,12.06-17.74,10.49c-33.52-4.76-67.21-8.63-100.47-14.82c-30.13-5.62-59.78-13.84-89.64-20.92
			c-2.93-0.69-4.39-2.42-5.65-5.42c-6.24-14.94-8.13-30.16-2.33-45.41c3.29-8.66,8.42-16.62,12.61-24.95
			c0.76-1.51,0.96-3.31,1.42-4.97c-1.77,0.72-4.21,0.93-5.2,2.24c-4.02,5.35-7.78,10.92-11.26,16.64c-1.78,2.93-3.74,3.44-6.55,2.1
			c-15.72-7.47-30.57-16.1-42.55-29.17c-6.05-6.61-9.08-12.92-6.82-22.44c3.82-16.1,6.39-32.54,8.79-48.93
			c1.6-10.98,2.12-22.12,2.78-33.21c0.11-1.79-1.55-3.69-2.4-5.54c-1.09,1.76-2.98,3.45-3.15,5.3
			c-3.46,37.14-10.2,73.75-18.08,110.14c-2.94,13.58-7.71,26.76-11.64,40.13c-0.25,0.85-0.72,1.66-0.8,2.52
			c-1.24,13.98-10.63,17.57-20.86,19.34c-3.6,0.62-7.42,0.46-11.09,0.12c-3.67-0.34-8.12-0.32-10.64-2.4
			c-2.04-1.68-1.61-6.25-2.44-9.5c-1.58-6.15-3.15-12.31-4.99-18.39c-1.34-4.43-4.37-5.4-7.38-2.13
			c-6.33,6.87-12.41,13.98-18.3,21.22c-1.03,1.27-0.65,3.69-0.91,5.58c1.76-0.72,3.96-0.99,5.19-2.23
			c5.31-5.38,10.33-11.04,16.55-17.78c2.07,8.95,3.88,16.8,5.87,25.45c-8.36,0.79-15.52,4.09-22.12-1.96
			c-0.53-0.48-2.31-0.5-2.68-0.05c-0.52,0.64-0.72,2.48-0.29,2.81c2.82,2.17,5.74,5.53,8.82,5.76c5.48,0.4,11.09-1.21,16.66-1.86
			c2.46-0.29,5.17-1.02,7.41-0.35c11.82,3.51,23.25,3.5,34.44-2.28c4.61-2.38,9.5-2.78,14.55-1.07
			c21.53,7.31,42.9,15.16,64.67,21.67c24.82,7.43,49.85,14.34,75.08,20.25c34.89,8.18,70.36,13.29,106.02,16.93
			c25.31,2.58,50.61,5.3,75.96,7.49c17.21,1.49,34.5,3.17,51.74,2.99c32.78-0.34,63.81-8.89,93.39-22.92
			c12.91-6.12,26.14-11.59,38.8-18.17c5.85-3.04,10.88-7.81,15.9-12.23c5.1-4.49,6.03-10.36,3.61-17.07
			c-2.29,7.57-5.25,14.52-13.79,18.59c0.26-2.23,0.1-3.49,0.56-4.47c5.16-10.82,3.14-21.36-1.15-31.79
			c-7.36-17.88-20.75-30.44-36.4-40.98c-1.14-0.77-2.23-1.6-3.76-2.72c4.36-5.65,8.52-11.04,13.43-17.41
			c6.63,6.21,13.54,11.68,19.21,18.23c10.04,11.58,19.56,23.65,28.84,35.86c4.34,5.71,7.2,12.55,11.49,18.31
			c6.95,9.35,5.42,19.18,1.81,28.68c-5.18,13.63-10.99,27.08-17.48,40.14c-1.97,3.96-6.68,7.19-10.86,9.32
			c-21.74,11.07-45.02,17.59-68.93,21.86c-24.11,4.3-48.17,9.47-72.49,11.95c-20.3,2.07-40.96,1.42-61.43,0.87
			c-43.38-1.16-86.15-7.27-128.14-18.32c-28.85-7.59-57.83-14.82-86.34-23.58c-26.64-8.19-52.59-18.59-79.1-27.21
			c-16.42-5.34-33.5-8.61-49.97-13.81c-26.76-8.44-53.4-17.29-79.82-26.74c-28.32-10.12-57.44-17.07-86.63-23.93
			c-27.99-6.58-55.84-13.73-83.73-20.74c-33.2-8.35-66.58-16.05-99.46-25.52c-19.28-5.55-37.45-14.85-56.63-20.88
			c-17.79-5.6-33.11-14.98-47.21-26.49c-17.39-14.21-32.54-30.76-45.1-49.41c-5.19-7.7-9.36-16.22-12.99-24.79
			c-3.88-9.15-2.6-18.37,3.12-26.65c6.26-9.06,14.84-15.14,24.5-20.45c29.18-16.06,60.51-14.36,91.96-12.45
			c10.22,0.62,20.51,0.96,30.62,2.44c26.52,3.89,52.93,8.62,79.46,12.48c19.27,2.8,38.66,3.51,58.09,0.79
			c4.45-0.62,9.05-0.09,14.67-0.09c-3.66,5.54-6.59,10.72-10.34,15.21c-1.1,1.32-4.56,1.06-6.89,0.89
			c-18.43-1.31-36.66,0.41-54.79,3.43c-4.27,0.71-8.52,2.25-12.45,4.11c-24.1,11.4-31.01,30.03-29.9,55.57
			c0.9,20.53,10.77,37.33,25.73,51.15c2.03,1.88,2.47,3.27,1.88,6.25c-0.5,2.53,1.29,6.09,3.1,8.37
			c4.88,6.16,10.63,11.29,19.43,10.56c5.53,15.51,14.16,20.26,30.06,16.49c4.92,10.71,16.52,16.67,28.3,15.18
			c3.52-0.45,7.25,1.17,10.88,1.15c8.64-0.04,17.28-0.58,25.91-0.72c2.9-0.05,5.91,0.12,8.71,0.83
			c16.56,4.24,33.09,8.61,49.58,13.13c1.77,0.48,3.57,1.92,4.72,3.41c3.41,4.45,7.63,7.32,13.24,7.8c0.99,0.08,2.07-0.86,3.11-1.33
			c-0.64-0.93-1.08-2.14-1.94-2.73c-2.89-1.99-6.11-3.53-8.81-5.73c-0.89-0.72-1.3-3.51-0.65-4.38c3.99-5.29,8.36-10.31,13.35-16.32
			c0,7.29,0.48,13.26-0.09,19.12c-2.28,23.64,13.84,32.58,34.69,31.97c2.52-0.07,4.12-0.89,3.59-4.32
			c-1.51-9.92-2.56-19.91-3.75-29.88c-0.38-3.21-2.12-5.24-5.29-4.22c-5.27,1.69-10.44,3.79-15.46,6.13
			c-2.81,1.31-5.24,3.43-8.85,5.87c0.53-6.18,1.2-11.3,1.32-16.44c0.1-4.15,0.29-8.57-0.98-12.4c-1.36-4.13-0.52-7.39,0.76-11.14
			c6.8-19.87,17.14-37.87,28.2-55.6c4.91-7.88,8.49-16.64,12.2-25.21c4.8-11.1,2.56-22.37,0.32-33.69
			c-1.64-8.28-2.42-16.73-3.55-25.1c-0.19-1.4,0.18-2.98-0.35-4.2c-0.9-2.04-2.31-3.85-3.51-5.75c-1.04,1.88-3.11,3.86-2.94,5.62
			c1.24,13.12,2.09,26.37,4.67,39.26c3.12,15.58,2.18,12.62-9.57,15.42c-27.8,6.61-55.6,6.31-83.5,0.32
			c-5.82-1.25-7.7-4.11-7.96-9.71c-0.83-17.83,0.44-27.39,6.05-39.63c22.51,6.1,45.44,8.64,68.82,6.22
			c-7.2-0.48-14.39-1.28-21.59-1.37c-14.39-0.18-27.78-4.52-41.14-9.15c-3.71-1.29-5.54-3.28-3.5-7.51
			c4.13-8.58,7.86-17.35,12.09-25.88c0.57-1.15,3.24-2.1,4.72-1.85c16.54,2.8,33.05,5.79,49.54,8.88c4.67,0.87,9.26,2.2,13.88,3.34
			c8.74,2.16,16.72,1.11,23.52-5.38c4.46-4.25,9.16-8.26,13.53-12.6c1.02-1.01,1.15-2.92,1.69-4.41l-1.48-0.9
			c-1.34,0.99-2.69,1.98-4.02,2.99c-3.65,2.78-7.28,5.6-10.95,8.36c-6.89,5.18-14.2,6.54-22.88,4.58
			c-18.24-4.12-36.69-7.33-55.06-10.91c-20.24-3.94-40.42-8.26-60.74-11.71c-18.6-3.16-37.56-4.37-55.99-8.23
			c-27.47-5.75-46.15-21.9-52.58-50.25c-0.47-2.05-0.64-4.18-0.85-6.28c-0.85-8.76-0.75-9.74,8.12-8.93
			c10.26,0.93,20.46,3.31,30.46,5.94c12.55,3.31,24.72,8.06,37.31,11.18c13.47,3.33,27.22,6.93,41.16,2.66
			c8.59-2.63,16.89-6.2,25.39-9.15c4.15-1.44,8.44-2.51,12.72-3.55c1.23-0.3,2.93-0.4,3.9,0.22c4.44,2.84,5.15,0.28,4.48-3.2
			c-0.43-2.23-2.01-4.24-3.07-6.35c-1.32,1.21-2.53,2.57-3.98,3.59c-1.09,0.76-2.45,1.2-3.76,1.55c-8.99,2.47-18.43,3.88-26.9,7.53
			c-13.36,5.76-26.75,6.03-40.35,2.79c-9.38-2.24-18.31-6.43-27.72-8.44c-17.87-3.82-34.92-12.1-53.66-11.07
			c-6.33,0.35-12.61,2.66-18.77,4.55c-3.26,1-6.22,3.01-10.05,4.93c-3.03-14.3-4.41-27.8-3.15-41.65
			c1.49-16.52,10.25-28.51,22.65-38.47c0.67-0.54,1.5-0.85,1.74-0.98c2.82,3.2,5.16,6.47,8.18,8.89c0.9,0.72,3.7-0.91,6.85-1.82
			c-11.52-6.7-9.51-17.57-10.46-26.88c-1.14-11.13-1.87-22.19-6.88-32.38c-2.17-4.41-5.05-8.45-7.26-12.84
			c-1.01-2.01-1.18-4.44-1.73-6.68c2.36-0.32,5.1-1.58,7.02-0.81c7.97,3.23,16.12,6.37,23.41,10.85
			c11.56,7.09,22.55,15.13,33.64,22.97c3.13,2.22,5.76,5.14,8.86,7.96c-8.08,14.03-19.61,23.83-33.73,30.9
			c21.48-3.32,38.13-21.02,42.88-40.21c2.92-11.81,8.76-23.14,14.64-33.94c14.16-26.01,33.22-48.12,57.5-65.14
			c12.12-8.5,25.39-15.13,41.18-14.71c6.77,0.18,13.59-1.63,21.13-2.63c2.08,8.52,4.1,16.84,6.13,25.15
			c0.45,1.86,0.47,4.04,1.49,5.53c6.21,9.13,14.27,15.99,25.09,19.1c0.83,0.24,1.88-0.29,3.41-1.78c-2.22-1.38-4.47-2.69-6.64-4.14
			c-10.49-6.97-19.18-14.34-21.39-28.55c-2.81-18.05-5.76-35.93-4.48-54.21c0.55-7.88,1.68-15.76,3.12-23.53
			c2.15-11.6,4.22-23.27,7.44-34.59c2.99-10.48,7.28-20.61,11.38-30.73c0.98-2.4,3.16-4.77,5.41-6.11c5.14-3.07,9.18-1.26,9.94,4.62
			c0.97,7.49,1.02,15.1,1.65,22.65c1.32,15.75,6.95,30.27,13.65,44.3c11.69,24.5,23.9,48.75,35.95,73.08
			c0.85,1.73,1.89,3.53,3.3,4.79c4.41,3.96,2.89,7.33-0.73,10.55c-10.57,9.39-22.97,15.71-35.91,21.07
			c-2.6,1.08-5.37,1.77-7.97,2.86c-1.59,0.67-3,1.78-4.49,2.69c0.16,0.47,0.31,0.94,0.47,1.42c1.25,0.06,2.57,0.41,3.74,0.14
			c16.53-3.91,31.71-10.8,45.38-20.92c1.26-0.94,2.41-2.09,3.39-3.33c6.17-7.77,5.64-8.64,1.22-17.44
			c-10.84-21.57-21.15-43.4-31.43-65.25c-0.84-1.78-0.22-4.67,0.58-6.7c2.06-5.23,5.08-10.1,6.85-15.41
			c6.51-19.56,18.72-35.5,32.07-50.6c7.01-7.93,18.34-6.55,26.6,2.18c4.65,4.91,5.07,4.65,10.15,0.36
			c12.39-10.45,24.68-21.08,37.66-30.76c11.27-8.4,24.66-11.1,38.61-10.08c10.63,0.78,18.21,7.31,24.66,14.96
			c4.56,5.4,9.57,10.65,8.36,19.18c-0.51,3.57,2.96,2.56,5.15,0.75c8.5-7.04,18.33-10.04,29.32-10.26
			c12.76-0.25,21.61,6.25,29.16,15.58c8.98,11.09,11.81,24.67,15.62,37.88c0.86,2.99-0.9,3.98-3.01,5.25
			c-1.1,0.66-1.59,2.32-2.35,3.54c1.4,0.25,2.92,0.98,4.18,0.67c12.25-3.02,24.32-4.86,37.03-1.44c11.94,3.2,19.09,11.14,24.2,21.28
			c7.84,15.57,10.43,32.2,7.25,49.43c-0.9,4.86-3.01,9.51-4.86,15.19c1.66,0.72,4.2,2.03,6.87,2.96
			c15.01,5.22,22.3,16.5,23.42,31.61c1.83,24.78-5.55,46.58-22.71,64.95c-5.96,6.39-13.37,9.6-21.43,11.94
			c-0.5,0.14-1.01,0.33-1.52,0.36c-2.01,0.12-4.02,0.19-6.03,0.28c1.06,1.91,1.88,4,3.21,5.71c8.08,10.39,11.77,21.74,7.09,34.58
			c-3.12,8.55-5.74,17.66-10.73,25.07c-9.76,14.48-24.78,20.98-41.9,22.65c-9.39,0.91-10.34,1.93-8.23,11.63
			c2.33,10.76-0.65,19.95-9.2,26.37c-5.67,4.25-12.5,7.27-19.21,9.77c-16.05,5.98-32.3,4.12-48.44-0.18
			c-2.54-0.68-5.14-1.35-7.74-1.5c-1.03-0.06-2.56,1.11-3.06,2.12c-0.31,0.62,0.66,2.64,1.45,2.93c5.2,1.88,4.54,5.82,4.26,10.05
			c-0.71,10.59-6.47,18.11-14.37,24.3c-6.66,5.22-13.91,4.1-21.07,1.01c-16.47-7.11-31.57-16.26-44.56-28.85
			c-11.63-11.28-25.95-17.41-41.81-20.06c-8.76-1.46-14.67,1.84-18.98,9.66c-2.12,3.85-5,7.27-7.36,11
			c-0.85,1.34-1.22,2.98-1.81,4.48c0.43,0.26,0.87,0.51,1.3,0.76c1.07-1.24,2.11-2.51,3.22-3.71c3.12-3.37,6.29-6.69,9.39-10.07
			c4.28-4.65,9.63-5.48,15.55-4.56c14.27,2.21,26.37,8.86,36.72,18.61c14.22,13.38,30.42,23.31,48.94,29.45
			c9.3,3.08,17.4,1.57,25.1-4.95c7.64-6.47,12.9-13.88,14.01-25.36c5.1,4.38,9.36,8.23,13.83,11.82
			c14.57,11.72,29.78,22.72,43.7,35.17c18.69,16.73,35.62,35.3,49.52,56.28c10.41,15.71,21.31,31.33,29.62,48.16
			c11.45,23.17,23.27,46.43,28.9,72.02c1.93,8.77,3.45,17.64,5.22,26.45c0.23,1.13,0.77,2.2,1.71,4.81
			c4.38-12.24,0.36-22.67-1.11-32.75c8.35,1.9,16.42,4.52,24.69,5.49c34.59,4.04,67.61-2.19,98.67-17.61
			c15.11-7.5,30.13-15.59,43.97-25.17c14.86-10.29,29.12-21.71,40.45-36.21c2.76-3.54,5.81-7.6,12.51-6.27
			c-1.68,3.92-3.03,7.28-4.53,10.57c-12.53,27.63-31.59,50.31-52.62,71.87c-25.75,26.38-55.02,47.47-88.12,63.36
			c-16.06,7.71-33.16,11.84-50.87,13.57c-2.31,0.23-4.58,0.9-6.87,1.37c-0.02,0.64-0.04,1.28-0.07,1.92
			c1.78,0.25,3.59,0.88,5.32,0.7c23.23-2.37,45.27-8.33,66.09-19.44c33.44-17.84,62.37-41.09,88.28-68.62
			c18.24-19.38,33-40.85,43.84-65.09c0.41-0.92,0.95-1.8,1.57-2.97c1.27,5.24-0.32,13.47-3.75,19.73
			c-22.55,41.18-51.58,77.29-87.42,107.48c-22.61,19.05-45.7,37.76-71.9,51.98c-16.24,8.81-33.31,15.3-51.79,17.63
			c-1.9,0.24-3.75,0.83-5.63,1.26L905.43,826.08z M785.77,607.03c-1.21-2.96-1.83-7.39-4.33-10.04c-8.68-9.22-17.85-18-27.19-26.55
			c-3.28-3-7.82-3.98-11.49-0.22c-5.13,5.25-9.13,11.22-9.11,19.01c0.03,19.33,9.91,33.64,24.29,44.93c9,7.07,21.1,3.68,23.61-5.68
			C783.33,621.86,784.23,615.02,785.77,607.03 M744.07,403.13c5.35-0.97,10.85-1.43,16-3.04c6.83-2.14,12.49-6.18,13.42-14.05
			c0.85-7.24-3.83-11.75-8.88-15.8c-8.14-6.53-18.07-7.5-27.9-8.56c-7.13-0.77-13.99,0.21-20.4,3.85
			c-10.3,5.85-11.83,16.63-3.59,25.1C721.32,399.47,732.11,402.25,744.07,403.13 M868.54,643.62c-0.15-0.66-0.32-1.53-0.55-2.38
			c-5.85-21.1-17.17-38.99-32.36-54.52c-3.5-3.58-5.82-3.31-7,1.66c-1.43,6-2,12.52-1.38,18.65c2.05,20.05,14.46,33.06,31.06,42.65
			C862.98,652.38,868.34,648.99,868.54,643.62 M552.82,343.63c-0.18-9.52-8.64-23.51-17.22-29.19c-17.57-11.65-36.26-16-56.75-8.33
			c-7.09,2.65-7.57,3.11-5.97,10.27c0.27,1.2,0.74,2.37,0.98,3.58c0.65,3.27,2.25,3.73,5.33,2.58c25.62-9.62,51.88-0.69,66.23,22.27
			c0.88,1.41,2.62,2.28,3.96,3.4C550.78,346.34,552.18,344.49,552.82,343.63 M523.17,347.03c-1.11-2.27-2.3-7.43-5.46-10.67
			c-12.41-12.74-34.4-7.69-40.96,8.97c-3.4,8.63-1.13,18.27,5.95,23.37c8.02,5.77,16.73,6.32,25.56,1.96
			C516.94,366.38,522.25,359.59,523.17,347.03 M898.22,752.14c-0.28-0.07-0.56-0.15-0.85-0.22c-0.09-1.76,0.01-3.55-0.31-5.27
			c-1.65-8.83-9.27-13.25-16.21-8.85c-10.57,6.7-16.01,23.54-5.34,34.9c5.3,5.64,15.28,4.3,18.09-2.83
			C895.82,764.23,896.73,758.07,898.22,752.14 M766.73,538.43c-0.01-7.28-9-23.9-15.38-27.51c-2.51-1.42-5.62-2.2-8.52-2.38
			c-3.96-0.25-6.65,1.83-7.32,6.08c-1.65,10.43,7.6,28.02,17.16,32.49C759.65,550.38,766.74,546,766.73,538.43 M727.61,430.72
			c0.08-0.3,0.16-0.61,0.24-0.91c1.58,0,3.52,0.58,4.68-0.12c2.67-1.62,6.17-3.4,7.14-5.95c1.39-3.66,2.88-9.01-1.48-11.61
			c-5.33-3.17-11.3-5.74-17.33-7.12c-5.6-1.29-10.49,3.66-12.42,10.69c-1.4,5.1,0.2,8.58,6.2,11.19
			C718.74,428.69,723.27,429.48,727.61,430.72 M789.07,366.43c0.02,9.01,4.93,15.49,11.73,15.5c6.42,0.01,11.73-5.37,11.65-11.78
			c-0.11-8.46-6.77-15.7-14.58-15.84C792.37,354.21,789.06,358.78,789.07,366.43 M875.01,800.74c-0.31,7.26,3.64,11.42,9.42,9.95
			c7.49-1.91,12.4-12.41,8.83-19.33c-2.24-4.35-6.55-5.64-10.83-4.63c-2.4,0.57-5.08,2.92-6.21,5.18
			C874.97,794.43,875.34,797.76,875.01,800.74 M825.4,573.09c-0.97-7.99-5.1-13.3-12.32-15.27c-5.77-1.57-9.37,1.09-9.1,7.06
			c0.26,5.77,2.83,10.73,7.58,13.82c2.29,1.49,6.24,2.26,8.6,1.3C822.46,579.05,823.7,575.49,825.4,573.09 M860.01,777.54
			c-0.18-6.28-6.69-12.51-13.74-13.13c-6.36-0.57-10.95,5.41-7.41,10.68c2.65,3.95,7.07,7.15,11.36,9.45
			C855.23,787.21,860.17,783.27,860.01,777.54 M782,565.06c4.96-0.12,8.22-3.84,8.01-9.14c-0.31-7.74-4.13-12.19-10.36-12.09
			c-3.37,0.05-9.51,9.05-9.43,13.83C770.27,561.85,775.63,565.21,782,565.06"/>
		<path class="st2" d="M665.95,854.38c-1.5,10.77-3.03,20.46-4.12,30.21c-0.6,5.3,1.68,9.26,7.22,10.65
			c0.92,0.23,1.95,0.03,3.56-0.33c-5.62-2.82-3.76-7.43-3.29-11.4c0.97-8.18,2.4-16.31,3.65-24.53
			c34.94,11.9,69.03,23.52,103.45,35.25c-0.91,4.86-1.71,10.37-3.11,15.72c-0.3,1.14-2.72,2.39-4.2,2.45
			c-6.11,0.21-12.29,0.45-18.35-0.2c-7.88-0.85-15.67-2.58-23.52-3.8c-1.53-0.24-3.16,0.11-4.74,0.18
			c-0.09,0.48-0.18,0.96-0.27,1.44c1.1,0.6,2.15,1.48,3.32,1.74c10.67,2.37,21.31,4.91,32.07,6.77c4.07,0.7,8.45,0.03,12.63-0.5
			c4.27-0.54,7.31-2.59,8.62-7.32c1.49-5.37,3.95-10.47,6.18-16.17c6.66,1.13,13.72,2.8,20.86,3.45
			c17.95,1.62,35.94,2.77,53.91,4.11c2.12,0.16,4.36-0.11,6.33,0.51c24.19,7.62,49,4.53,73.61,4.25
			c13.54-0.15,27.07-1.23,39.46-1.84c0,4.54-1.56,10.15,0.42,13.9c2.12,4.02,7.57,6.29,11.56,9.33c0.47-0.55,0.93-1.1,1.4-1.65
			c-2.3-2.98-4.49-6.05-6.92-8.92c-3.26-3.86-0.3-13.37,4.77-14.35c3.25-0.63,6.68-1.03,9.97-0.74c14.71,1.27,28.74-1.59,42.59-6.16
			c15.59-5.13,31.25-10.05,46.88-15.03c0.95-0.3,1.99-0.35,4.48-0.76c-5.34,10.59-10.05,20.21-15.07,29.65
			c-0.8,1.5-2.87,2.62-4.6,3.26c-6.11,2.28-12.34,4.23-18.49,6.4c-2,0.71-3.88,1.72-7.11,3.18c2.3,0.77,3.03,1.17,3.79,1.24
			c0.81,0.08,1.65-0.15,2.54-0.26c-3.66,8.18-7.15,16.21-10.88,24.12c-0.56,1.18-2.13,2.42-3.4,2.64
			c-11.91,2.03-23.93,2.74-35.71-0.4c-4.43-1.18-8.38-4.13-12.68-6.35c1.3-3.77,2.49-6.71,3.26-9.75c0.23-0.91-0.68-2.11-1.07-3.17
			c-1.03,0.49-2.59,0.71-2.99,1.51c-1.72,3.47-3.34,7.03-4.44,10.72c-0.36,1.2,0.58,3.3,1.59,4.33
			c11.47,11.67,25.94,12.64,41.18,11.92c12.26-0.58,20.16-5.68,23.71-17.71c1.83-6.2,4.23-12.39,7.47-17.94
			c1.3-2.22,5.58-2.68,8.51-3.94c0.36,0.39,0.72,0.78,1.07,1.17c-4.03,6.5-8,13.04-12.11,19.49c-13.19,20.69-26.52,41.3-39.65,62.03
			c-17.29,27.31-40.35,49.4-64.51,70.31c-14.5,12.55-29.4,25.06-45.69,35.01c-27.83,17-56.8,32.17-85.49,47.73
			c-29.63,16.08-61.83,19.82-94.96,19.04c-29.58-0.7-58.65-5.55-87.81-9.92c-31.04-4.65-62.17-8.8-93.18-13.63
			c-22.86-3.56-45.55-8.25-66.97-17.33c-8.43-3.57-16.32-8.41-24.48-12.62c-9.08-4.68-18.46-8.87-27.22-14.09
			c-7.4-4.41-14.15-9.92-21.09-15.09c-12.44-9.27-25.51-17.87-37-28.21c-10.95-9.86-20.62-21.25-30.16-32.55
			c-19.57-23.19-34.56-49.53-49.27-75.84c-7.15-12.78-11.58-27.22-16.12-41.28c-9.97-30.88-21.74-61.27-26.65-93.6
			c-0.67-4.38-5.12-8.23-1.83-13.24c0.21-0.33-0.92-1.54-1.43-2.34c-0.83,0.73-2.08,1.31-2.42,2.23
			c-2.19,5.96-4.45,11.92-6.17,18.03c-3.15,11.19-5.93,22.48-9.13,34.74c-5.42-7.94-10.82-15.35-9.35-24.82
			c2.51-16.2,5.76-32.3,8.89-48.4c2.73-14.02,5.73-28,8.64-41.99c0.38-1.84,0.91-3.65,1.43-5.69c32.52,7.68,64.55,15.23,97.06,22.91
			c-0.83,4.13-1.73,8.55-2.6,12.98c-2.34,11.94-0.4,15.42,10.92,19.63c-1.61,4.82-3.68,9.54-4.72,14.47
			c-2.08,9.87,2.47,16.6,11.86,18.28c1.33,0.24,2.76-0.14,4.5-0.94c-5.03-4.36-14.51-5.61-9.96-15.43
			c2.65-5.74,0.95-14.23,10.66-17.23c-1.91-0.99-3.73-2.27-5.75-2.93c-11.85-3.88-11.87-3.83-9.15-16.11
			c2.42-10.91,2.46-11.1,13.6-8.4c30,7.26,59.97,14.7,89.94,22.09c1.16,0.29,2.26,0.83,3.93,1.46c-1.57,6.46-2.82,12.83-4.83,18.96
			c-0.46,1.41-3.69,3.02-5.34,2.74c-9.69-1.65-19.39-3.49-28.91-5.91c-12.74-3.23-25.32-7.09-37.98-10.59
			c-1.78-0.49-3.69-0.54-5.54-0.8c-0.16,0.55-0.32,1.1-0.47,1.65c19.99,6.89,39.98,13.78,60.12,20.73
			c-2.41,6.85-4.67,13.28-6.8,19.33c-16.49-2.98-32.37-5.88-48.26-8.66c-0.99-0.17-2.14,0.51-3.21,0.79
			c0.53,1.16,0.75,2.96,1.64,3.39c4.42,2.17,8.84,4.89,13.57,5.74c9.51,1.72,19.2,2.48,28.83,3.42c9.25,0.9,15.01-4.96,17.06-12.52
			c0.23-0.85,0.65-1.68,0.74-2.54c0.58-5.7,3.2-7.86,9.33-7.53c8.41,0.46,11.12-2.31,13.31-10.47c0.83-3.06,1.93-6.03,2.87-9.06
			c2.3-7.39,2.24-7.21,9.53-5.53c23.73,5.48,47.53,10.66,71.23,16.27c8.04,1.9,16.28,3.84,23.71,7.29
			c16.92,7.86,34.79,12.66,52.47,18.19c13.97,4.37,27.65,9.66,41.45,14.55C656.94,851.14,661.72,852.86,665.95,854.38
			 M674.51,1152.47c0.05-0.31,0.1-0.62,0.16-0.94c-4.75-1.3-9.45-2.87-14.27-3.84c-14.88-3-29.95-5.17-44.68-8.76
			c-34.12-8.3-68.14-17.04-102.1-26c-23.51-6.2-44.98-16.81-63.62-32.56c-11.32-9.57-21.96-19.95-33.22-29.58
			c-21.87-18.71-44.58-36.49-65.72-55.98c-11.57-10.66-20.45-24.18-30.9-36.11c-8.03-9.17-14.11-19.28-18.29-30.75
			c-8.67-23.79-14.34-48.34-19.35-73.08c-0.39-1.94-1.07-3.83-1.62-5.74c-0.62,0.05-1.25,0.1-1.87,0.15c0,1.87-0.29,3.8,0.05,5.6
			c2.12,11.45,3.61,23.09,6.75,34.27c7.41,26.42,13.06,53.65,32.83,74.81c10.34,11.07,18.82,24.07,29.98,34.16
			c36.9,33.37,73.69,66.99,114.8,95.29c8.82,6.07,18.1,11.99,28,15.84c16.07,6.26,32.71,11.16,49.31,15.92
			c32.28,9.25,65.06,16.28,98.3,21.21C650.91,1148.15,662.69,1150.43,674.51,1152.47 M1028.85,972.55c-2.9,0.62-4.83,0.59-6.28,1.41
			c-9.69,5.44-19.38,10.91-28.85,16.71c-2.61,1.6-4.67,4.23-6.68,6.64c-13.41,16.13-26.74,32.33-40.09,48.5
			c-7.41,8.98-14.89,17.9-22.16,27c-0.91,1.14-1.43,3.66-0.78,4.7c0.7,1.12,3.11,1.96,4.56,1.71c13.64-2.36,26.33-5.66,35.44-18.12
			c12.17-16.63,25.69-32.3,39.02-48.04C1013.12,1001.15,1021.93,988.53,1028.85,972.55 M689.68,938.56
			c-0.15,0.62-0.3,1.24-0.46,1.86c3.33,1.66,6.76,3.14,9.97,5.01c14,8.13,29.19,8.5,44.65,6.85c1.98-0.21,4.28-1.06,5.68-2.4
			c7.18-6.9,10.05-15.96,11.89-25.41c0.18-0.9-0.71-2.57-1.53-2.92c-0.78-0.34-2.58,0.22-3.1,0.97c-1.28,1.86-2.12,4.02-3.08,6.1
			c-2.15,4.63-4.06,9.39-6.51,13.86c-0.74,1.34-2.91,2.66-4.45,2.68c-15.94,0.2-31.6-1.78-46.89-6.51
			C693.97,938.05,691.74,938.56,689.68,938.56 M708.39,907.21c0.47-0.56,0.93-1.12,1.4-1.67c-1.09-1.23-1.97-3.18-3.31-3.58
			c-8.72-2.6-17.5-5.06-26.35-7.15c-4.3-1.02-7.14,1.99-8.67,5.45c-4.03,9.14-5.15,18.66-2.42,28.44c1.4,5.01,4.73,7.19,10.16,6.67
			c-9.09-12.47-3.54-24.88-0.49-37.82C689.08,900.92,698.73,904.07,708.39,907.21 M1042.67,923.7c0-0.45,0.01-0.91,0.01-1.36
			c-11.27-1.67-22.55-4.14-33.82-0.74c0,0.7,0,1.4,0,2.1H1042.67z"/>
		<path class="st2" d="M337.53,712.09c0.61-6.57,1.29-11.95,1.55-17.35c0.2-4.37,0.29-8.81-0.3-13.13c-0.8-5.86-3.84-7.37-8.81-4.18
			c-7.43,4.77-14.51,10.11-21.13,14.77c0.69-4.84,1.76-11.16,2.47-17.52c1.02-9.07-0.81-10.66-9.59-8.57
			c7.43-12.97,14.43-26.02,22.21-38.58c9.83-15.87,20.41-31.27,30.47-47c10.61-16.59,21-33.32,31.48-49.99
			c0.28-0.45,0.48-0.94,0.75-1.4c2.93-5.11,6.34-7.87,13.1-6.08c11.73,3.11,23.75,5.12,36.39,7.75c-1.39,2.73-2.55,4.98-3.68,7.23
			c-10.45,20.81-15.47,43.26-17.72,66.11c-1.83,18.64,1.14,37.21,6.7,55.21c0.11,0.34,0.09,0.76,0.28,1.01
			c7.59,10.04,4.31,19.27-0.95,29.25c-4.99,9.46-8.1,19.9-12.23,29.83c-0.65,1.57-2.22,3.76-3.54,3.89
			c-10.49,1.02-21.01,1.56-31.52,2.37c-3.16,0.25-4.54-1.17-4.95-4.1c-0.63-4.55-1.41-9.08-2.02-13.63
			c-1.15-8.5-5.43-10.78-12.58-6.45C348.82,704.65,343.87,708.01,337.53,712.09"/>
		<path class="st2" d="M1126.62,859.83c-4.29,7.08-11.49,8.76-17.56,10.88c-20.3,7.12-41.12,12.73-61.45,19.76
			c-19.26,6.67-39.21,6.82-59.09,8.07c-23.61,1.48-47.25,3.84-70.85,3.66c-20.01-0.16-40-3.47-60.01-5.24
			c-7.36-0.65-14.8-0.55-22.13-1.4c-17.89-2.07-35.92-3.52-53.53-7.04c-16.15-3.23-31.98-8.37-47.66-13.53
			c-15.2-5.01-30.07-11.05-45.04-16.77c-22.24-8.49-44.3-17.49-66.72-25.49c-11.76-4.2-24.26-6.28-36.17-10.12
			c-13.08-4.22-25.62-10.21-38.82-13.91c-18.49-5.18-37.46-8.65-56.08-13.42c-22.71-5.82-45.21-12.46-67.91-18.32
			c-21.69-5.6-43.49-10.8-65.31-15.88c-26.26-6.11-52.59-11.95-78.91-17.82c-18.92-4.21-37.73-8.46-56.16-14.92
			c-33.52-11.74-64.81-27.95-95.5-45.32c-22.03-12.46-39.09-30.58-50.88-53.3c-4.91-9.47-9.98-18.86-14.98-28.28
			c0.56-0.3,1.13-0.61,1.69-0.91c3.24,5.7,6.18,11.58,9.75,17.06c15.38,23.57,35.57,42.03,58.82,57.9
			c17.92,12.24,38.46,17.44,57.83,25.77c38.92,16.75,79.96,26.61,120.98,36.41c13.72,3.28,27.71,5.44,41.44,8.68
			c16.65,3.92,33.09,8.74,49.76,12.62c15.45,3.59,31.12,6.27,46.61,9.72c8.94,1.99,17.85,4.33,26.55,7.19
			c35.2,11.59,69.99,24.56,105.55,34.9c40.89,11.89,81.18,25.32,121.21,39.78c20.68,7.47,42.15,12.83,63.43,18.55
			c17.51,4.71,35.14,9.21,52.94,12.56c17.85,3.36,35.92,5.78,54,7.52c24.76,2.39,49.68,5.75,74.43,5.06
			c32.57-0.9,65.38-1.58,97.5-9.03c27.2-6.3,54.35-12.56,79.63-24.88C1124.56,860.08,1125.27,860.09,1126.62,859.83"/>
		<path class="st2" d="M905.39,825.99c0.07,4.12,1.88,5.31,6.11,4.77c35.68-4.56,65.95-20.48,93.16-43.32
			c12.41-10.41,25.35-20.2,38.14-30.14c0.96-0.74,3.12-1.15,3.99-0.59c12.5,8.09,21.27,19.05,24.24,33.87
			c0.7,3.48-0.32,7.29-0.54,10.96c-0.07,1.12-0.12,2.23-0.19,3.57c4.77-1.88,7-7.62,6.19-14.34c-1.86-15.54-10.58-26.52-23.09-35
			c-1.31-0.89-2.65-1.75-3.94-2.67c-0.26-0.18-0.35-0.59-0.47-0.8c7.78-8.42,15.49-16.84,23.36-25.12c0.65-0.69,2.75-0.98,3.49-0.47
			c12.76,8.95,25.33,18.12,32.72,32.49c8.51,16.55,9.03,32.77-2.02,48.48c-0.76,1.07-1.92,2.08-3.11,2.58
			c-22.23,9.41-44.08,19.96-66.86,27.8c-32.96,11.34-67.18,12.16-101.61,7.47c-12.58-1.71-25.27-2.69-37.23-3.94
			c2.56-5.09,5.15-10.26,7.73-15.46C905.43,826.08,905.39,825.99,905.39,825.99"/>
		<path class="st2" d="M444.38,203.27c-10.62,6.43-21.5,11.94-31.1,19.13c-9.49,7.1-17.71,15.91-26.56,24.05
			c-8.54-7.87-13.87-18.07-18.75-28.41c-9.66-20.46-22.27-39.1-34.31-58.16c-9.96-15.76-13.53-33.64-9.65-52.35
			c0.47-2.26,2.42-5.93,3.69-5.93c2.59,0,6,1.38,7.63,3.37c12.39,15.15,24.4,30.62,36.62,45.91c2.42,3.02,4.99,6.01,7.92,8.52
			c19.16,16.45,38.69,32.39,62.27,42.35C443.05,202.14,443.82,202.89,444.38,203.27"/>
		<path class="st2" d="M522.5,623.87c-3.08,7-5.74,14.23-9.34,20.96c-4.91,9.16-10.49,17.94-15.89,26.83
			c-0.69,1.14-1.82,2.49-2.99,2.79c-15.96,4.04-31.94,7.59-48.52,3.34c-6.03-1.55-10.1-4.95-11.9-10.8
			c-3.69-11.95-7.24-23.94-10.73-35.94c-1.15-3.93,0.22-5.42,4.59-4.97c15.79,1.61,31.65,4.29,47.41,3.89
			c14.48-0.37,28.87-4.2,43.3-6.52c0.85-0.14,1.7-0.35,2.55-0.53C521.48,623.23,521.99,623.55,522.5,623.87"/>
		<path class="st2" d="M858.36,596.42c60.46,26.37,121.25,48.6,180.87,77c-6.98,3.48-12.51,6.4-18.2,8.94
			c-1.13,0.5-3.06-0.07-4.33-0.72c-21.88-11.2-44.54-20.17-68.33-26.72c-13.7-3.77-26.73-10.04-40-15.34
			c-9.68-3.86-19.27-7.93-28.85-12.02c-1.72-0.73-3.77-1.68-4.67-3.15C869.42,615.56,864.27,606.53,858.36,596.42"/>
		<path class="st2" d="M284.69,576.87c0.37,4.22,0.96,8.2,1,12.19c0.04,4.26,1.85,6.2,6.03,7.14c10.24,2.31,10.85,2.46,11.47,12.9
			c0.51,8.53-0.31,17.25-1.5,25.75c-0.61,4.37-1.1,7.96,3.75,11.44c-5.59,8.25-11.06,16.31-17.18,25.35
			c-13.61-17.25-28.49-32.26-27.52-54.74C261.45,599.92,267.77,585.41,284.69,576.87"/>
		<path class="st2" d="M604.26,776.59c0.19-3.04,0.04-5.52,0.54-7.86c1.22-5.73,3.28-10.56,8.53-14.5
			c9.37-7.03,16.71-16.09,19.81-26.49c13.48,7.81,27.1,15.7,41.72,24.18c-3.67,4.42-6.98,9.76-11.56,13.58
			c-7.69,6.41-16.16,11.89-24.36,17.68c-3.57,2.52-7.26,2.69-11.5,1.09C619.9,781.41,612.11,779.15,604.26,776.59"/>
		<path class="st2" d="M912.58,665.18c10.39,3.76,20.79,7.52,30.09,10.88c-1.6,1.42-3.68,3.26-6.25,5.55
			c-10.61-3.97-22.74-8.51-34.87-13.04c-0.21,0.55-0.41,1.09-0.62,1.64c11.84,4.34,23.67,8.68,36.32,13.32
			c-2.54,5.14-4.57,9.76-7.15,14.05c-0.61,1.01-3.25,1.51-4.71,1.17c-7.54-1.75-15.02-3.76-22.45-5.93
			c-0.96-0.28-1.75-1.98-2.17-3.18c-3.05-8.8-6.08-17.61-8.89-26.49c-0.54-1.69-0.68-3.98,0.04-5.5c2.69-5.67,5.81-11.14,8.52-16.21
			c19.41,8.03,37.93,15.68,56.96,23.55c-0.85,1.84-1.93,4.36-3.14,6.81c-2.11,4.27-5.19,4.96-9.64,3.26
			c-10.44-3.99-21.03-7.58-31.56-11.33C912.92,664.21,912.75,664.7,912.58,665.18"/>
		<path class="st2" d="M288.62,573.06c21.03-5.6,42.42-6.81,65.09-6.2c-4.71,7.5-8.87,14.39-13.41,21.01
			c-0.62,0.9-3.15,0.74-4.78,0.66c-10.17-0.48-20.34-1.1-30.51-1.61c-0.81-0.04-1.65,0.43-3.07,0.84
			c12.15,0.69,23.67,1.34,35.79,2.02c-1.27,4.98-4.37,4.24-6.95,4.42c-2.81,0.2-5.65,0.23-8.45,0.57c-2.75,0.34-5.47,0.97-8.21,1.48
			c0.03,0.44,0.07,0.87,0.1,1.31c6.19-0.47,12.38-0.94,19.81-1.5c-9.6,15.8-18.52,30.46-27.43,45.12c-0.46-0.22-0.93-0.44-1.39-0.66
			c0.78-6.74,2.23-13.48,2.18-20.21c-0.06-7.29-1.31-14.6-2.42-21.84c-0.62-4.05-4.2-4.96-7.66-5.26c-5.17-0.45-7.86-2.51-7.4-8.29
			C290.2,581.31,289.17,577.62,288.62,573.06"/>
		<path class="st2" d="M431.55,683.27c13.48,15.77,26.41,30.9,39.53,46.24c-1.9,2.48-3.8,5.78-6.52,8.15
			c-1.47,1.29-4.53,1.78-6.53,1.28c-12.62-3.14-25.15-6.64-37.7-10.06c-2.35-0.64-4.66-1.42-6.61-2.02
			C419.7,712.2,425.59,697.81,431.55,683.27"/>
		<path class="st2" d="M930.82,698.71c4.39-5.95,8.02-11.06,11.88-15.98c0.77-0.98,2.45-1.77,3.71-1.77
			c8.37,0.01,12.27-5.03,14.45-12.23c0.3-0.99,0.76-1.94,1.45-3.67c16.64,5.16,31.87,13,48.28,21.38
			C984.93,698.46,959.07,700.75,930.82,698.71"/>
		<path class="st2" d="M443.54,684.69c17.09-1.35,32.95-2.61,48.11-3.81c-5.32,13.59-10.98,28.03-17.02,43.48
			C464.37,711.28,454.11,698.18,443.54,684.69"/>
		<path class="st2" d="M678.38,800.72c-13.33-4.08-26.46-8.09-39.67-12.13c11.75-8.59,22.86-16.7,33.9-24.77
			c0,5.4-0.71,11.82,0.2,18C673.73,787.94,676.27,793.82,678.38,800.72"/>
		<path class="st2" d="M232.64,860.41c3.54-13.38,7.02-26.53,10.74-40.56c1.79,10.06,3.15,19.18,5.08,28.18
			c1.93,9.02,4.42,17.91,6.76,27.22C247.55,870.21,240.27,865.43,232.64,860.41"/>
		<path class="st2" d="M513.11,771.41c-10.12-3.03-20.04-5.02-27.83-13.12c8.32-5.37,15.24-12.26,25.24-14.89
			C511.39,752.87,512.21,761.71,513.11,771.41"/>
		<path class="st2" d="M331.86,683.66v27.73c-9.18,1.39-16.08-2.13-21.4-11.44c6.48-5.61,13.07-11.31,19.66-17.01
			C330.7,683.17,331.28,683.42,331.86,683.66"/>
		<path class="st2" d="M609.94,753.11c3.75-14.22,7.19-27.26,10.93-41.44c3.56,4.03,6.7,7.47,9.66,11.05
			c0.51,0.62,0.61,1.99,0.31,2.79C626.63,736.41,619.61,745.19,609.94,753.11"/>
		<path class="st2" d="M301.87,696.27c-5.13-4.19-9.65-7.87-15.06-12.29c6.4-4.32,11.55-7.79,17.57-11.86
			C303.52,680.41,302.77,687.58,301.87,696.27"/>
		<path class="st2" d="M877.37,629.82c7.33,3.54,13.38,6.46,19.63,9.48c-3,4.95-5.79,9.55-8.98,14.82
			C884.62,646.38,881.29,638.77,877.37,629.82"/>
		<path class="st2" d="M361.31,724.23c-4.41-5.06-11.41-0.79-15.99-5.34c-0.61-0.61-1.52-0.92-3.02-1.81
			c5.89-4.2,10.79-7.69,16.41-11.7c1.22,6.32,2.33,12,3.43,17.68C361.86,723.45,361.58,723.84,361.31,724.23"/>
		<path class="st0" d="M785.77,607.03c-1.53,7.99-2.45,14.84-4.22,21.46c-2.51,9.36-14.61,12.75-23.61,5.68
			c-14.38-11.29-24.26-25.6-24.29-44.93c-0.01-7.79,3.99-13.76,9.11-19.01c3.67-3.76,8.21-2.79,11.48,0.21
			c9.34,8.56,18.51,17.34,27.19,26.56C783.94,599.64,784.56,604.07,785.77,607.03"/>
		<path class="st0" d="M744.07,403.13c-11.96-0.88-22.75-3.66-31.35-12.5c-8.24-8.47-6.71-19.25,3.59-25.1
			c6.41-3.64,13.27-4.62,20.4-3.85c9.83,1.05,19.76,2.02,27.9,8.56c5.05,4.05,9.73,8.57,8.87,15.8
			c-0.93,7.87-6.59,11.92-13.42,14.05C754.92,401.7,749.41,402.15,744.07,403.13"/>
		<path class="st0" d="M868.54,643.62c-0.2,5.37-5.56,8.76-10.23,6.06c-16.6-9.6-29.01-22.6-31.06-42.66
			c-0.63-6.13-0.05-12.64,1.38-18.65c1.18-4.97,3.5-5.24,7-1.66c15.19,15.53,26.51,33.42,32.36,54.52
			C868.22,642.09,868.39,642.95,868.54,643.62"/>
		<path class="st0" d="M552.82,343.63c-0.64,0.86-2.04,2.71-3.44,4.57c-1.34-1.12-3.08-1.99-3.96-3.4
			c-14.35-22.95-40.61-31.89-66.23-22.27c-3.07,1.15-4.68,0.7-5.33-2.58c-0.24-1.21-0.71-2.37-0.98-3.58
			c-1.6-7.15-1.13-7.61,5.97-10.26c20.49-7.67,39.19-3.32,56.76,8.33C544.18,320.13,552.64,334.11,552.82,343.63"/>
		<path class="st0" d="M523.17,347.03c-0.92,12.56-6.23,19.35-14.91,23.64c-8.83,4.35-17.54,3.81-25.56-1.96
			c-7.09-5.1-9.35-14.74-5.95-23.37c6.56-16.66,28.55-21.71,40.96-8.97C520.87,339.6,522.06,344.76,523.17,347.03 M489.69,365.88
			c8.46,3.02,15.33,1.28,21.18-3.97c4.94-4.43,7.41-10.05,5.37-17.73C507.25,351.52,498.78,358.45,489.69,365.88 M481.6,353.28
			c9.23-5.95,17.84-11.5,26.93-17.36C495.11,331.74,482.88,339.63,481.6,353.28 M513.39,339.95c-0.33-0.46-0.67-0.91-1-1.37
			c-10.05,6.56-20.09,13.12-30.52,19.92c1.57,1.79,2.57,2.93,3.91,4.45C495.17,355.13,504.28,347.54,513.39,339.95"/>
		<path class="st0" d="M898.22,752.14c-1.49,5.93-2.4,12.09-4.62,17.73c-2.81,7.13-12.79,8.47-18.09,2.83
			c-10.67-11.36-5.23-28.2,5.34-34.9c6.94-4.4,14.56,0.02,16.21,8.85c0.32,1.72,0.22,3.51,0.31,5.27
			C897.66,752,897.94,752.07,898.22,752.14"/>
		<path class="st0" d="M766.73,538.43c0.01,7.57-7.08,11.95-14.05,8.69c-9.55-4.47-18.81-22.06-17.16-32.49
			c0.67-4.25,3.36-6.32,7.32-6.08c2.89,0.18,6.01,0.96,8.52,2.38C757.73,514.53,766.73,531.15,766.73,538.43"/>
		<path class="st0" d="M727.61,430.72c-4.34-1.24-8.87-2.03-12.97-3.81c-6-2.61-7.59-6.1-6.2-11.19
			c1.93-7.03,6.82-11.98,12.41-10.69c6.03,1.38,12,3.95,17.33,7.12c4.36,2.6,2.86,7.95,1.48,11.61c-0.97,2.55-4.46,4.33-7.14,5.95
			c-1.16,0.7-3.1,0.12-4.68,0.12C727.77,430.11,727.69,430.42,727.61,430.72"/>
		<path class="st0" d="M789.07,366.44c-0.02-7.66,3.3-12.23,8.8-12.13c7.81,0.15,14.47,7.38,14.58,15.84
			c0.09,6.41-5.23,11.79-11.65,11.78C794,381.92,789.09,375.44,789.07,366.44"/>
		<path class="st0" d="M875.01,800.74c0.33-2.98-0.04-6.31,1.22-8.83c1.12-2.26,3.8-4.61,6.21-5.18c4.28-1.01,8.59,0.28,10.83,4.63
			c3.57,6.92-1.34,17.42-8.83,19.33C878.65,812.16,874.7,807.99,875.01,800.74"/>
		<path class="st0" d="M825.4,573.09c-1.71,2.41-2.94,5.97-5.25,6.91c-2.36,0.96-6.3,0.19-8.59-1.3c-4.75-3.08-7.32-8.05-7.58-13.82
			c-0.27-5.96,3.33-8.63,9.1-7.06C820.3,559.78,824.43,565.1,825.4,573.09"/>
		<path class="st3" d="M774.07,729.4c0.47-7.09,1.32-15.54,1.53-24.01c0.27-10.76,0.76-21.6-0.2-32.29
			c-1.09-12.22,5.73-18.7,17.68-19.36c8.44-0.47,16.92-0.28,25.38-0.33c5.37-0.04,7.3,3.88,8.43,8.08
			c1.23,4.58,0.75,9.14-4.23,11.28c-3.28,1.79-8.26,1.46-12.69,2.56c-5.23,0.63-6.25,1.06-7.74,4.57c-2.58,6.07,0.03,7.51,7.74,7.24
			c2.25-0.08,8.47-0.07,10.69,0.51c3.85,1.01,3.81,4.1,3.81,8.28c0,4.17-2.16,7.32-6.01,8.5c-6.55,0.57-8.53-0.5-13.59,0.03
			c-4.93,0.51-8.35,6.43-8.61,10.7c-0.31,5.1,2.14,10.9,2.25,16.02c0.19,8.89-4.55,10.57-15.03,11.29
			c-6.18,0.42-8.5-2.24-9.25-10.63C774.19,731.47,774.18,731.12,774.07,729.4"/>
		<path class="st3" d="M861.44,734.85c-0.03,6.39-4.13,9.58-10,10.47c-7.87,1.2-10.58-3.53-10.86-9.51
			c0-8.98,6.01-11.27,11.38-11.37C857.5,724.34,861.47,728.69,861.44,734.85"/>
		<path class="st3" d="M848.77,671.6l-1.6,14.31c-0.38,0.91-0.93,14.06-0.41,15.65c0,1.03,0.08,13.12,5.82,15.14
			c0.46,0.16,0.96,0.26,1.53,0.28c0.52,0.05,1.28,0.06,2.15-0.17c2.21-0.59,3.49-2.36,5.19-4.79c0.72-1.02,1.64-2.46,2.52-4.31
			c2.61-7.95,5.22-15.91,7.83-23.86c0.36-1.01,0.71-2.1,1.02-3.26c0.52-1.89,0.87-3.66,1.11-5.28c0.09-1.38,0.06-3.45-0.69-5.8
			c-0.44-1.38-0.57-3.26-2.82-4.37c-1.29-1-2.76-1.87-6.76-2.53c-3.5-0.58-6.35,0.02-7.88,0.47c-0.74,0.1-2.04,0.37-3.35,1.27
			c-2.2,1.51-2.9,3.73-3.08,4.42"/>
		<path class="st0" d="M860.01,777.54c0.17,5.74-4.77,9.67-9.78,6.99c-4.29-2.3-8.71-5.5-11.36-9.45
			c-3.54-5.27,1.05-11.25,7.41-10.68C853.31,765.03,859.82,771.26,860.01,777.54"/>
		<path class="st0" d="M782,565.06c-6.38,0.15-11.73-3.21-11.79-7.4c-0.07-4.78,6.07-13.77,9.43-13.83
			c6.24-0.1,10.05,4.35,10.36,12.09C790.22,561.22,786.96,564.94,782,565.06"/>
		<path class="st0" d="M674.51,1152.47c-11.81-2.04-23.59-4.32-35.45-6.08c-33.24-4.93-66.02-11.96-98.3-21.21
			c-16.61-4.76-33.24-9.66-49.31-15.92c-9.9-3.86-19.18-9.77-28-15.84c-41.11-28.3-77.9-61.92-114.8-95.29
			c-11.16-10.09-19.64-23.09-29.98-34.16c-19.77-21.16-25.43-48.39-32.83-74.81c-3.13-11.18-4.63-22.82-6.75-34.27
			c-0.33-1.81-0.05-3.73-0.05-5.6c0.62-0.05,1.25-0.1,1.87-0.15c0.55,1.91,1.22,3.79,1.62,5.74c5.01,24.74,10.68,49.29,19.35,73.08
			c4.18,11.47,10.25,21.58,18.29,30.75c10.44,11.93,19.33,25.45,30.9,36.11c21.14,19.49,43.85,37.27,65.72,55.98
			c11.27,9.64,21.9,20.02,33.22,29.58c18.64,15.75,40.11,26.36,63.62,32.56c33.96,8.96,67.98,17.7,102.1,26
			c14.73,3.58,29.8,5.76,44.68,8.76c4.82,0.97,9.52,2.55,14.28,3.84C674.61,1151.85,674.56,1152.16,674.51,1152.47"/>
		<path class="st0" d="M1028.85,972.55c-6.92,15.98-15.74,28.59-25.83,40.51c-13.33,15.75-26.85,31.41-39.02,48.04
			c-9.11,12.46-21.8,15.76-35.44,18.12c-1.45,0.25-3.86-0.59-4.56-1.71c-0.65-1.04-0.13-3.55,0.78-4.7
			c7.26-9.1,14.74-18.02,22.16-27c13.35-16.18,26.68-32.38,40.09-48.51c2.01-2.41,4.07-5.04,6.68-6.64
			c9.47-5.81,19.16-11.28,28.85-16.71C1024.03,973.15,1025.95,973.17,1028.85,972.55 M1018.94,983.25
			c-0.46-0.35-0.92-0.71-1.38-1.06c-6.67,3.92-13.42,7.72-19.97,11.83c-2.62,1.64-5.22,3.63-7.16,6c-14,17.06-27.8,34.29-41.75,51.4
			c-5.98,7.34-12.17,14.51-18.51,22.05c10.51,0.71,22.81-5.08,29.75-13.81c13.51-17,27.05-33.98,40.39-51.11
			C1006.74,1000.28,1012.74,991.69,1018.94,983.25"/>
		<path class="st0" d="M689.68,938.56c2.07,0,4.29-0.5,6.17,0.08c15.29,4.73,30.95,6.71,46.89,6.51c1.53-0.02,3.71-1.34,4.45-2.68
			c2.45-4.47,4.36-9.23,6.51-13.86c0.96-2.07,1.8-4.24,3.08-6.1c0.52-0.74,2.32-1.31,3.1-0.97c0.81,0.36,1.7,2.03,1.53,2.92
			c-1.84,9.45-4.71,18.51-11.89,25.41c-1.4,1.34-3.7,2.19-5.68,2.4c-15.46,1.65-30.64,1.28-44.65-6.84
			c-3.21-1.86-6.64-3.35-9.97-5.01C689.38,939.79,689.53,939.17,689.68,938.56"/>
		<path class="st0" d="M708.39,907.21c-9.66-3.15-19.31-6.29-29.68-9.67c-3.05,12.94-8.59,25.35,0.49,37.82
			c-5.43,0.52-8.76-1.66-10.16-6.67c-2.73-9.77-1.61-19.3,2.42-28.43c1.53-3.47,4.37-6.47,8.67-5.46c8.85,2.1,17.63,4.55,26.35,7.15
			c1.34,0.4,2.22,2.35,3.31,3.58C709.32,906.09,708.86,906.65,708.39,907.21"/>
		<path class="st0" d="M1042.67,923.7h-33.81c0-0.7,0-1.4,0-2.1c11.27-3.4,22.54-0.93,33.82,0.74
			C1042.68,922.8,1042.67,923.25,1042.67,923.7"/>
		<path class="st2" d="M489.69,365.88c9.09-7.43,17.57-14.36,26.56-21.7c2.04,7.68-0.43,13.31-5.37,17.73
			C505.02,367.15,498.15,368.89,489.69,365.88"/>
		<path class="st2" d="M481.6,353.28c1.28-13.66,13.51-21.54,26.93-17.36C499.44,341.78,490.83,347.34,481.6,353.28"/>
		<path class="st2" d="M513.39,339.95c-9.11,7.59-18.22,15.18-27.61,23.01c-1.34-1.52-2.34-2.66-3.91-4.45
			c10.42-6.81,20.47-13.36,30.52-19.92C512.72,339.03,513.05,339.49,513.39,339.95"/>
		<path class="st2" d="M1018.94,983.25c-6.19,8.44-12.2,17.03-18.62,25.29c-13.34,17.13-26.89,34.11-40.39,51.11
			c-6.94,8.73-19.24,14.52-29.75,13.81c6.34-7.54,12.52-14.71,18.51-22.05c13.95-17.11,27.74-34.34,41.75-51.4
			c1.95-2.37,4.54-4.36,7.16-6c6.56-4.1,13.3-7.91,19.97-11.83C1018.02,982.54,1018.48,982.89,1018.94,983.25"/>
	</g>
	<g>
		<path class="st0" d="M487.19,928.65c9.86,2.71,19.71,5.42,29.57,8.14c0.32-2.3,1.43-8.01,6.13-12.86
			c8.12-8.38,19.73-6.75,20.96-6.55c7.23,5.93,8.83,10.7,8.65,14.19c-1.05,20.44-64.76,31.49-76.04,33.37
			c-2.37,9.72-4.74,19.44-7.1,29.17c11.57,5.09,25.98,10.36,42.92,14.31c18.22,4.25,34.53,5.84,47.83,6.25
			c1.13-9.65,2.27-19.3,3.4-28.95c-4.75-1.2-9.79-2.33-15.1-3.35c-4.57-0.88-16.52-2.42-20.75-3.01c5.8-1.13,25.83-3.54,37.68-13.84
			c13.24-11.51,18.04-25.2,19.67-30.84c0.15-3.66,0.39-19.94-11.83-34.03c-10.51-12.12-23.77-15.16-27.87-15.93
			c-3.09-0.63-20.83-3.97-37.44,7.55C489.33,905.11,487.4,925.89,487.19,928.65"/>
		<path class="st0" d="M609.16,956.62c-2.52,14.47-5.04,28.94-7.57,43.41c12.13,3.07,24.26,6.15,36.39,9.22
			c-4.81,25.99-9.62,51.98-14.43,77.97c2.24,1.94,7.92,6.32,16.5,7.62c9.4,1.43,16.67-1.68,19.29-2.96
			c4.5-25.31,9.01-50.62,13.51-75.93c0.07,0.01,10.88,1.12,10.95,1.13c0.25,0.03,19.29,1.12,24.83,1.47
			c2.59-14.34,4.54-28.27,6.87-42.99c-20.35-3.99-23.94-2.34-50.34-7.14C646.4,965.02,633.87,962.9,609.16,956.62"/>
		<path class="st0" d="M750.22,994.83l28.3,5.35c0.58-1.79,2.67-7.41,8.53-11.33c4.76-3.18,13.2-2.81,15.2-2.85
			c3.71,0.77,8.98,5.38,9.83,10.93c1.97,12.95-8.78,22.3-11.86,24.13c-26.13,15.52-29.79,12.84-57.07,13.7
			c-2.09,8.96-4.73,22.45-6.82,31.41c11.87,4.99,27.65,10.34,46.71,13.52c19.95,3.33,37.31,3.25,50.52,2.23l4.39-27.99
			c-10.07-0.29-19.29,2.37-37.76-1.33c5.54-3.22,22-8.9,29.85-19.39c8.83-11.8,12.09-23.46,13.41-29.97
			c0.63-3.01,3.33-17.37-5.52-31.68c-9.11-14.74-20.33-17.58-23.2-18.27c-6.88-3.44-27.96-5.04-44.31,6.54
			C754.6,971.07,751.75,989.93,750.22,994.83"/>
	</g>
</g>
</svg>
