<?xml version="1.0" encoding="utf-8"?>
<!-- Generator: Adobe Adobe Illustrator 24.2.0, SVG Export Plug-In . SVG Version: 6.00 Build 0)  -->
<svg version="1.1" id="Layer_1" xmlns="http://www.w3.org/2000/svg" xmlns:xlink="http://www.w3.org/1999/xlink" x="0px" y="0px"
	 width="1217.74px" height="1218.21px" viewBox="0 0 1217.74 1218.21" style="enable-background:new 0 0 1217.74 1218.21;"
	 xml:space="preserve">
<style type="text/css">
	.st0{fill:#EBEBEB;}
	.st1{fill:#FFFFFF;}
	.st2{fill:#6E1D88;}
	.st3{fill:#F8C121;}
	.st4{clip-path:url(#SVGID_2_);fill:#6E1D88;}
	.st5{fill:none;}
	.st6{fill:#F4C125;}
</style>
<g>
	<path class="st0" d="M1217.73,609.11c0,336.4-272.71,609.11-609.11,609.11S-0.48,945.51-0.48,609.11S272.22,0,608.62,0
		S1217.73,272.71,1217.73,609.11"/>
</g>
<g>
	<g>
		<path class="st1" d="M897.54,820.25c1.83-0.42,3.63-0.99,5.48-1.23c17.99-2.26,34.61-8.58,50.42-17.16
			c25.51-13.84,47.99-32.06,70-50.6c34.89-29.39,63.15-64.54,85.11-104.64c3.34-6.09,4.88-14.1,3.65-19.2
			c-0.61,1.14-1.13,1.99-1.53,2.89c-10.56,23.6-24.93,44.5-42.68,63.37c-25.22,26.8-53.39,49.44-85.94,66.81
			c-20.27,10.81-41.73,16.62-64.34,18.93c-1.69,0.17-3.45-0.43-5.18-0.68c0.02-0.62,0.04-1.25,0.06-1.87
			c2.23-0.45,4.44-1.11,6.69-1.33c17.24-1.69,33.89-5.7,49.53-13.21c32.23-15.48,60.73-36,85.79-61.69
			c20.47-20.98,39.03-43.07,51.23-69.97c1.45-3.2,2.78-6.47,4.41-10.29c-6.52-1.29-9.49,2.66-12.18,6.11
			c-11.03,14.12-24.91,25.24-39.38,35.26c-13.47,9.33-28.09,17.2-42.81,24.51c-30.24,15.01-62.38,21.08-96.06,17.14
			c-8.05-0.94-15.9-3.49-24.03-5.35c1.43,9.82,5.35,19.97,1.08,31.89c-0.92-2.55-1.44-3.58-1.66-4.69
			c-1.72-8.58-3.2-17.21-5.08-25.75c-5.48-24.91-17-47.55-28.14-70.11c-8.09-16.39-18.7-31.59-28.84-46.89
			c-13.54-20.43-30.02-38.51-48.22-54.8c-13.55-12.12-28.36-22.83-42.54-34.24c-4.35-3.5-8.49-7.25-13.46-11.51
			c-1.08,11.17-6.2,18.39-13.64,24.69c-7.5,6.35-15.38,7.82-24.44,4.82c-18.04-5.98-33.81-15.64-47.65-28.67
			c-10.08-9.5-21.86-15.97-35.75-18.12c-5.77-0.89-10.98-0.09-15.14,4.44c-3.02,3.29-6.11,6.52-9.14,9.8
			c-1.08,1.17-2.09,2.4-3.14,3.61c-0.42-0.25-0.85-0.49-1.27-0.74c0.57-1.46,0.93-3.06,1.76-4.36c2.31-3.62,5.1-6.96,7.17-10.7
			c4.21-7.62,9.95-10.83,18.48-9.41c15.43,2.57,29.38,8.54,40.7,19.52c12.64,12.26,27.34,21.17,43.38,28.09
			c6.97,3.01,14.02,4.09,20.51-0.99c7.69-6.02,13.3-13.34,13.99-23.65c0.27-4.12,0.91-7.96-4.15-9.79
			c-0.77-0.28-1.71-2.25-1.41-2.85c0.49-0.98,1.98-2.12,2.99-2.07c2.53,0.15,5.06,0.81,7.53,1.46c15.72,4.18,31.53,5.99,47.16,0.17
			c6.53-2.43,13.18-5.37,18.7-9.51c8.33-6.25,11.23-15.2,8.96-25.67c-2.04-9.44-1.12-10.43,8.02-11.32
			c16.67-1.63,31.29-7.95,40.8-22.05c4.86-7.22,7.41-16.08,10.45-24.41c4.56-12.5,0.97-23.55-6.9-33.66
			c-1.29-1.66-2.1-3.69-3.13-5.56c1.96-0.09,3.92-0.16,5.88-0.28c0.5-0.03,0.99-0.21,1.48-0.35c7.84-2.28,15.06-5.41,20.86-11.63
			c16.71-17.89,23.89-39.11,22.11-63.24c-1.09-14.71-8.18-25.68-22.8-30.77c-2.6-0.9-5.07-2.18-6.69-2.88
			c1.81-5.53,3.86-10.05,4.74-14.79c3.09-16.78,0.57-32.97-7.06-48.12c-4.97-9.88-11.93-17.6-23.56-20.72
			c-12.38-3.32-24.12-1.53-36.06,1.41c-1.23,0.3-2.7-0.41-4.07-0.65c0.74-1.18,1.22-2.8,2.29-3.44c2.06-1.24,3.78-2.2,2.93-5.11
			c-3.71-12.86-6.47-26.07-15.21-36.88c-7.35-9.08-15.96-15.41-28.39-15.17c-10.7,0.21-20.27,3.14-28.54,9.99
			c-2.13,1.76-5.51,2.75-5.01-0.73c1.18-8.3-3.7-13.41-8.14-18.67c-6.28-7.44-13.66-13.81-24.01-14.56
			c-13.58-0.99-26.62,1.63-37.59,9.82c-12.64,9.43-24.6,19.77-36.67,29.95c-4.95,4.18-5.36,4.43-9.89-0.35
			c-8.05-8.49-19.07-9.84-25.9-2.12c-13,14.7-24.88,30.22-31.23,49.27c-1.72,5.16-4.67,9.91-6.67,15c-0.78,1.98-1.38,4.79-0.57,6.52
			c10,21.27,20.05,42.53,30.6,63.53c4.3,8.56,4.82,9.41-1.19,16.98c-0.95,1.2-2.07,2.33-3.3,3.24
			c-13.3,9.86-28.08,16.56-44.18,20.37c-1.14,0.27-2.43-0.07-3.64-0.13c-0.15-0.46-0.3-0.92-0.45-1.38
			c1.45-0.89,2.82-1.96,4.37-2.62c2.53-1.07,5.23-1.74,7.76-2.79c12.6-5.22,24.67-11.36,34.96-20.51c3.53-3.13,5.01-6.42,0.71-10.27
			c-1.37-1.23-2.38-2.98-3.21-4.66c-11.73-23.68-23.61-47.3-35-71.15c-6.52-13.66-12-27.8-13.29-43.13
			c-0.62-7.34-0.67-14.75-1.61-22.05c-0.74-5.72-4.67-7.48-9.68-4.5c-2.19,1.31-4.32,3.61-5.27,5.95c-4,9.85-8.18,19.71-11.08,29.91
			c-3.14,11.02-5.15,22.39-7.25,33.68c-1.41,7.57-2.5,15.24-3.04,22.91c-1.25,17.8,1.62,35.2,4.36,52.78
			c2.16,13.83,10.61,21.01,20.83,27.79c2.12,1.4,4.31,2.69,6.47,4.03c-1.48,1.45-2.51,1.97-3.32,1.73
			c-10.53-3.03-18.38-9.7-24.43-18.59c-0.99-1.45-1-3.57-1.45-5.38c-1.97-8.09-3.94-16.19-5.96-24.49
			c-7.34,0.98-13.98,2.74-20.57,2.56c-15.37-0.41-28.29,6.04-40.09,14.32c-23.63,16.57-42.19,38.1-55.98,63.42
			c-5.73,10.52-11.42,21.54-14.26,33.05c-4.62,18.69-20.83,35.92-41.74,39.15c13.74-6.88,24.96-16.43,32.84-30.09
			c-3.02-2.74-5.58-5.59-8.63-7.75c-10.8-7.64-21.5-15.46-32.75-22.37c-7.1-4.35-15.03-7.41-22.79-10.56
			c-1.87-0.75-4.53,0.47-6.83,0.79c0.53,2.18,0.7,4.55,1.68,6.5c2.15,4.27,4.96,8.21,7.07,12.5c4.88,9.92,5.59,20.69,6.7,31.53
			c0.93,9.06-1.03,19.65,10.19,26.17c-3.06,0.88-5.79,2.47-6.67,1.77c-2.94-2.36-5.22-5.54-7.97-8.66c-0.23,0.13-1.05,0.44-1.7,0.96
			c-12.07,9.7-20.6,21.37-22.05,37.46c-1.22,13.48,0.12,26.63,3.07,40.55c3.72-1.87,6.6-3.83,9.78-4.8c6-1.84,12.11-4.09,18.28-4.43
			c18.24-1,34.84,7.06,52.24,10.78c9.16,1.96,17.86,6.04,26.99,8.22c13.24,3.16,26.27,2.89,39.28-2.72
			c8.25-3.55,17.44-4.93,26.19-7.33c1.27-0.35,2.6-0.78,3.66-1.51c1.42-0.99,2.6-2.31,3.88-3.49c1.03,2.05,2.57,4.01,2.99,6.19
			c0.66,3.39-0.03,5.87-4.36,3.11c-0.94-0.6-2.6-0.51-3.8-0.21c-4.16,1.01-8.34,2.05-12.38,3.45c-8.28,2.87-16.36,6.34-24.72,8.91
			c-13.58,4.16-26.97,0.66-40.08-2.59c-12.25-3.03-24.11-7.66-36.33-10.88c-9.73-2.56-19.67-4.88-29.65-5.78
			c-8.63-0.78-8.74,0.16-7.91,8.7c0.2,2.05,0.37,4.12,0.82,6.12c6.25,27.6,24.44,43.32,51.19,48.92
			c17.94,3.76,36.41,4.94,54.51,8.01c19.79,3.36,39.43,7.56,59.13,11.4c17.88,3.48,35.84,6.61,53.6,10.62
			c8.45,1.91,15.57,0.58,22.27-4.46c3.57-2.69,7.1-5.43,10.66-8.14c1.29-0.99,2.61-1.94,3.92-2.91l1.44,0.87
			c-0.52,1.46-0.65,3.31-1.65,4.3c-4.26,4.22-8.83,8.12-13.17,12.26c-6.62,6.32-14.38,7.33-22.89,5.23
			c-4.5-1.11-8.97-2.4-13.51-3.25c-16.05-3-32.12-5.92-48.23-8.64c-1.44-0.24-4.03,0.67-4.59,1.8c-4.12,8.3-7.75,16.84-11.77,25.19
			c-1.98,4.12-0.21,6.06,3.41,7.31c13.01,4.51,26.04,8.74,40.05,8.91c7.01,0.09,14.02,0.87,21.02,1.33
			c-22.76,2.36-45.08-0.11-67-6.06c-5.47,11.91-6.69,21.22-5.89,38.58c0.25,5.45,2.08,8.24,7.75,9.46
			c27.16,5.83,54.23,6.13,81.29-0.31c11.44-2.72,12.36,0.15,9.32-15.01c-2.52-12.54-3.35-25.44-4.55-38.22
			c-0.16-1.72,1.86-3.64,2.87-5.47c1.16,1.86,2.54,3.62,3.41,5.6c0.52,1.18,0.16,2.73,0.34,4.09c1.1,8.16,1.86,16.38,3.45,24.44
			c2.18,11.02,4.36,22-0.31,32.8c-3.61,8.34-7.1,16.87-11.88,24.55c-10.76,17.27-20.83,34.79-27.45,54.13
			c-1.25,3.64-2.07,6.82-0.74,10.84c1.23,3.73,1.05,8.04,0.95,12.08c-0.11,5-0.77,9.98-1.29,16c3.52-2.37,5.88-4.44,8.62-5.71
			c4.89-2.27,9.92-4.32,15.05-5.97c3.09-0.99,4.78,0.98,5.15,4.11c1.16,9.71,2.18,19.43,3.65,29.09c0.51,3.34-1.05,4.13-3.5,4.21
			c-20.3,0.59-35.99-8.11-33.77-31.13c0.55-5.71,0.08-11.53,0.08-18.62c-4.86,5.85-9.11,10.73-13,15.88
			c-0.64,0.85-0.23,3.56,0.63,4.27c2.62,2.15,5.76,3.65,8.57,5.58c0.84,0.58,1.27,1.76,1.89,2.66c-1.01,0.45-2.06,1.37-3.03,1.29
			c-5.46-0.46-9.57-3.26-12.89-7.59c-1.11-1.45-2.87-2.85-4.59-3.32c-16.05-4.4-32.15-8.65-48.27-12.78
			c-2.72-0.7-5.65-0.86-8.48-0.81c-8.41,0.14-16.82,0.67-25.23,0.7c-3.53,0.02-7.16-1.55-10.59-1.12
			c-11.47,1.45-22.76-4.35-27.55-14.78c-15.48,3.67-23.89-0.95-29.27-16.05c-8.56,0.71-14.16-4.28-18.91-10.28
			c-1.76-2.22-3.5-5.69-3.02-8.15c0.57-2.9,0.15-4.25-1.83-6.08c-14.56-13.46-24.18-29.82-25.05-49.8
			c-1.08-24.87,5.64-43.01,29.11-54.1c3.83-1.81,7.97-3.31,12.12-4c17.65-2.94,35.41-4.61,53.34-3.34c2.27,0.16,5.64,0.42,6.71-0.87
			c3.65-4.37,6.5-9.41,10.06-14.81c-5.47,0-9.96-0.52-14.28,0.09c-18.91,2.64-37.79,1.95-56.55-0.78
			c-25.83-3.75-51.53-8.36-77.35-12.15c-9.84-1.44-19.86-1.77-29.81-2.38c-30.62-1.86-61.13-3.52-89.53,12.12
			c-9.41,5.18-17.75,11.09-23.85,19.91c-5.57,8.06-6.82,17.04-3.04,25.94c3.54,8.34,7.6,16.64,12.65,24.14
			c12.23,18.15,26.98,34.26,43.91,48.1c13.72,11.21,28.64,20.34,45.96,25.79c18.66,5.87,36.36,14.93,55.13,20.33
			c32.01,9.22,64.51,16.72,96.82,24.85c27.15,6.83,54.27,13.78,81.52,20.19c28.42,6.68,56.77,13.45,84.34,23.3
			c25.72,9.2,51.66,17.81,77.71,26.03c16.03,5.06,32.66,8.24,48.65,13.44c25.81,8.39,51.08,18.52,77.01,26.49
			c27.75,8.52,55.97,15.57,84.06,22.96c40.88,10.75,82.52,16.7,124.76,17.83c19.93,0.53,40.04,1.16,59.8-0.85
			c23.67-2.41,47.09-7.44,70.57-11.63c23.28-4.15,45.94-10.51,67.11-21.28c4.07-2.07,8.65-5.21,10.57-9.07
			c6.32-12.71,11.97-25.8,17.02-39.07c3.51-9.25,5-18.83-1.76-27.92c-4.18-5.61-6.96-12.27-11.19-17.83
			c-9.04-11.89-18.3-23.63-28.08-34.91c-5.52-6.37-12.25-11.7-18.7-17.74c-4.78,6.2-8.83,11.45-13.07,16.95
			c1.5,1.08,2.56,1.9,3.67,2.64c15.24,10.26,28.27,22.49,35.44,39.9c4.18,10.15,6.15,20.42,1.12,30.95
			c-0.45,0.95-0.3,2.18-0.54,4.35c8.31-3.96,11.2-10.73,13.42-18.1c2.36,6.53,1.46,12.24-3.51,16.62c-4.89,4.3-9.79,8.94-15.48,11.9
			c-12.33,6.41-25.21,11.73-37.78,17.69c-28.8,13.66-59.01,21.98-90.92,22.31c-16.78,0.17-33.62-1.47-50.37-2.91
			c-24.68-2.13-49.31-4.78-73.95-7.29c-34.72-3.54-69.24-8.52-103.21-16.48c-24.56-5.76-48.92-12.48-73.09-19.71
			c-21.19-6.35-42-13.99-62.96-21.1c-4.91-1.67-9.67-1.27-14.16,1.04c-10.9,5.62-22.02,5.63-33.53,2.22
			c-2.18-0.65-4.81,0.06-7.21,0.34c-5.42,0.64-10.89,2.2-16.22,1.82c-3.01-0.22-5.85-3.49-8.59-5.6c-0.42-0.32-0.23-2.12,0.28-2.74
			c0.36-0.44,2.09-0.42,2.61,0.05c6.43,5.89,13.4,2.67,21.54,1.9c-1.94-8.41-3.7-16.05-5.72-24.77
			c-6.06,6.57-10.95,12.08-16.12,17.31c-1.19,1.21-3.34,1.47-5.05,2.18c0.26-1.84-0.11-4.2,0.89-5.44
			c5.74-7.05,11.65-13.97,17.81-20.66c2.93-3.18,5.88-2.24,7.19,2.08c1.79,5.92,3.31,11.91,4.86,17.9c0.81,3.16,0.39,7.62,2.38,9.25
			c2.45,2.02,6.79,2,10.36,2.33c3.57,0.33,7.29,0.49,10.8-0.11c9.96-1.72,19.11-5.23,20.31-18.83c0.07-0.83,0.53-1.63,0.78-2.45
			c3.83-13.01,8.47-25.85,11.34-39.06c7.67-35.43,14.23-71.07,17.6-107.23c0.17-1.8,2.01-3.44,3.07-5.16
			c0.82,1.8,2.44,3.65,2.33,5.39c-0.64,10.8-1.14,21.65-2.7,32.33c-2.33,15.96-4.83,31.96-8.55,47.64
			c-2.2,9.27,0.74,15.42,6.64,21.85c11.66,12.72,26.12,21.12,41.42,28.4c2.74,1.3,4.65,0.81,6.38-2.04
			c3.39-5.57,7.05-10.99,10.97-16.2c0.96-1.28,3.34-1.48,5.06-2.18c-0.45,1.62-0.65,3.37-1.39,4.84
			c-4.08,8.11-9.07,15.86-12.28,24.3c-5.64,14.85-3.8,29.66,2.27,44.21c1.22,2.92,2.65,4.6,5.5,5.27
			c29.07,6.9,57.93,14.9,87.27,20.37c32.38,6.03,65.18,9.8,97.81,14.43c10.73,1.52,12.63-0.05,17.28-10.22
			c7.77-16.99,11.08-34.96,12.65-53.38c0.14-1.68,0.77-3.32,1.17-4.98c0.54,0.06,1.07,0.12,1.61,0.18c0.13,1.73,0.4,3.47,0.35,5.2
			c-0.07,2.4-0.87,4.88-0.5,7.19c2.43,15.06-1.62,28.85-7.83,42.32c-2.53,5.03-5.06,10.06-7.55,15.02
			c11.64,1.21,23.99,2.17,36.24,3.84c33.52,4.56,66.83,3.76,98.92-7.28c22.18-7.63,43.45-17.9,65.09-27.06
			c1.17-0.49,2.3-1.47,3.03-2.51c10.76-15.29,10.25-31.09,1.97-47.19c-7.19-13.99-19.43-22.92-31.85-31.63
			c-0.71-0.5-2.76-0.21-3.39,0.46c-7.66,8.06-15.16,16.26-22.74,24.46c0.12,0.2,0.21,0.6,0.46,0.78c1.26,0.9,2.56,1.73,3.84,2.6
			c12.19,8.26,20.67,18.95,22.48,34.08c0.78,6.54-1.39,12.13-6.03,13.96c0.07-1.3,0.12-2.39,0.19-3.47
			c0.22-3.56,1.2-7.28,0.52-10.66c-2.89-14.43-11.43-25.1-23.6-32.98c-0.85-0.55-2.95-0.15-3.88,0.58
			c-12.46,9.68-25.05,19.21-37.13,29.34c-26.49,22.23-55.96,37.73-90.7,42.17C899.38,825.42,897.61,824.27,897.54,820.25
			 M664.44,847.89c-4.13-1.48-8.77-3.16-13.43-4.8c-13.44-4.76-26.76-9.91-40.36-14.17c-17.21-5.38-34.61-10.06-51.08-17.71
			c-7.24-3.36-15.26-5.25-23.09-7.1c-23.07-5.46-46.24-10.51-69.35-15.84c-7.1-1.64-7.05-1.81-9.28,5.38
			c-0.92,2.95-1.99,5.84-2.79,8.82c-2.14,7.94-4.78,10.64-12.96,10.19c-5.97-0.33-8.53,1.78-9.09,7.33
			c-0.08,0.84-0.5,1.65-0.72,2.48c-1.99,7.36-7.61,13.06-16.61,12.18c-9.38-0.92-18.82-1.65-28.07-3.33
			c-4.6-0.83-8.91-3.48-13.21-5.59c-0.86-0.42-1.08-2.17-1.59-3.3c1.04-0.28,2.16-0.94,3.12-0.77c15.47,2.71,30.93,5.53,46.99,8.43
			c2.08-5.9,4.28-12.15,6.62-18.83c-19.61-6.76-39.07-13.47-58.53-20.18c0.15-0.54,0.31-1.07,0.46-1.61c1.8,0.25,3.66,0.29,5.4,0.78
			c12.33,3.42,24.58,7.17,36.98,10.31c9.28,2.36,18.71,4.15,28.15,5.75c1.61,0.27,4.75-1.3,5.2-2.66c1.95-5.97,3.17-12.18,4.7-18.46
			c-1.63-0.61-2.7-1.14-3.83-1.42c-29.18-7.2-58.35-14.44-87.56-21.51c-10.84-2.62-10.88-2.44-13.24,8.18
			c-2.65,11.95-2.63,11.9,8.91,15.68c1.97,0.64,3.74,1.89,5.6,2.85c-9.45,2.92-7.79,11.19-10.37,16.78
			c-4.42,9.56,4.8,10.78,9.7,15.02c-1.69,0.77-3.09,1.14-4.38,0.91c-9.14-1.64-13.57-8.19-11.55-17.8c1.01-4.81,3.03-9.4,4.6-14.09
			c-11.02-4.1-12.9-7.49-10.63-19.11c0.84-4.31,1.72-8.62,2.53-12.64c-31.65-7.47-62.84-14.83-94.5-22.3
			c-0.5,1.99-1.02,3.75-1.39,5.55c-2.83,13.62-5.75,27.22-8.41,40.87c-3.05,15.67-6.21,31.34-8.66,47.12
			c-1.43,9.22,3.83,16.43,9.1,24.16c3.11-11.93,5.82-22.93,8.88-33.82c1.67-5.94,3.88-11.74,6-17.55c0.33-0.89,1.55-1.46,2.35-2.17
			c0.5,0.78,1.61,1.96,1.4,2.28c-3.2,4.88,1.13,8.62,1.78,12.89c4.78,31.48,16.24,61.07,25.95,91.13
			c4.42,13.68,8.74,27.75,15.69,40.19c14.33,25.62,28.91,51.26,47.97,73.84c9.29,11,18.7,22.09,29.36,31.69
			c11.19,10.07,23.91,18.44,36.02,27.46c6.75,5.03,13.33,10.39,20.53,14.69c8.52,5.09,17.65,9.16,26.49,13.72
			c7.95,4.1,15.63,8.8,23.83,12.29c20.86,8.85,42.94,13.41,65.2,16.87c30.2,4.7,60.49,8.74,90.72,13.27
			c28.38,4.25,56.68,8.98,85.49,9.66c32.25,0.76,63.6-2.88,92.45-18.54c27.93-15.16,56.13-29.92,83.22-46.47
			c15.86-9.69,30.37-21.87,44.49-34.09c23.52-20.35,45.97-41.86,62.8-68.45c12.78-20.19,25.76-40.25,38.6-60.4
			c4-6.28,7.86-12.65,11.79-18.97c-0.35-0.38-0.7-0.76-1.04-1.14c-2.85,1.23-7.02,1.68-8.28,3.84c-3.16,5.4-5.49,11.43-7.28,17.47
			c-3.46,11.72-11.15,16.68-23.09,17.24c-14.84,0.71-28.93-0.24-40.1-11.6c-0.99-1-1.9-3.05-1.55-4.22
			c1.07-3.6,2.66-7.06,4.33-10.44c0.39-0.78,1.91-1,2.91-1.47c0.38,1.04,1.27,2.21,1.04,3.09c-0.76,2.96-1.91,5.82-3.18,9.49
			c4.18,2.15,8.03,5.03,12.34,6.18c11.46,3.05,23.17,2.36,34.76,0.38c1.24-0.21,2.77-1.42,3.31-2.57c3.63-7.7,7.04-15.51,10.6-23.48
			c-0.87,0.1-1.68,0.32-2.47,0.25c-0.74-0.07-1.46-0.45-3.69-1.21c3.14-1.42,4.98-2.41,6.92-3.1c5.99-2.12,12.05-4.02,18-6.24
			c1.68-0.63,3.7-1.72,4.48-3.18c4.89-9.2,9.48-18.55,14.67-28.87c-2.43,0.4-3.43,0.45-4.36,0.74
			c-15.22,4.85-30.47,9.64-45.65,14.64c-13.49,4.44-27.15,7.22-41.46,5.99c-3.2-0.27-6.53,0.11-9.7,0.72
			c-4.94,0.96-7.82,10.22-4.65,13.97c2.37,2.8,4.5,5.78,6.74,8.68c-0.45,0.54-0.91,1.07-1.36,1.61c-3.89-2.95-9.19-5.16-11.26-9.08
			c-1.93-3.65-0.41-9.12-0.41-13.54c-12.05,0.59-25.23,1.65-38.41,1.79c-23.96,0.27-48.12,3.28-71.67-4.14
			c-1.92-0.6-4.1-0.34-6.16-0.49c-17.5-1.3-35.01-2.42-52.49-4c-6.96-0.63-13.82-2.25-20.31-3.35c-2.17,5.55-4.57,10.52-6.02,15.74
			c-1.28,4.61-4.24,6.6-8.4,7.13c-4.07,0.52-8.34,1.17-12.3,0.48c-10.47-1.81-20.84-4.29-31.22-6.59c-1.15-0.26-2.16-1.11-3.24-1.69
			c0.09-0.47,0.18-0.93,0.27-1.4c1.54-0.07,3.13-0.41,4.62-0.18c7.64,1.19,15.22,2.87,22.9,3.7c5.9,0.63,11.92,0.4,17.87,0.2
			c1.45-0.05,3.8-1.27,4.1-2.38c1.36-5.21,2.14-10.57,3.02-15.3c-33.51-11.42-66.71-22.73-100.72-34.32
			c-1.22,8-2.61,15.92-3.55,23.88c-0.46,3.87-2.27,8.36,3.2,11.1c-1.57,0.36-2.57,0.55-3.46,0.33c-5.4-1.35-7.61-5.21-7.03-10.37
			C661.49,867.82,662.98,858.38,664.44,847.89 M344.7,709.37c6.17-3.98,10.99-7.24,15.96-10.26c6.96-4.22,11.13-1.99,12.25,6.28
			c0.6,4.43,1.36,8.84,1.97,13.27c0.4,2.86,1.74,4.23,4.82,4c10.23-0.79,20.48-1.32,30.69-2.31c1.28-0.13,2.81-2.26,3.45-3.79
			c4.02-9.67,7.05-19.83,11.9-29.04c5.12-9.72,8.32-18.71,0.92-28.48c-0.19-0.25-0.17-0.66-0.27-0.99
			c-5.42-17.53-8.31-35.61-6.53-53.75c2.19-22.24,7.07-44.1,17.24-64.36c1.1-2.2,2.23-4.38,3.58-7.04
			c-12.3-2.56-24.01-4.52-35.43-7.55c-6.57-1.74-9.9,0.95-12.75,5.92c-0.26,0.45-0.45,0.93-0.73,1.37
			c-10.2,16.23-20.32,32.52-30.65,48.67c-9.8,15.31-20.1,30.31-29.67,45.76c-7.58,12.23-14.38,24.92-21.62,37.56
			c8.54-2.04,10.32-0.49,9.33,8.34c-0.7,6.19-1.73,12.35-2.41,17.06c6.45-4.55,13.33-9.74,20.57-14.38c4.84-3.11,7.8-1.64,8.58,4.07
			c0.57,4.2,0.49,8.53,0.29,12.78C345.96,697.74,345.29,702.97,344.7,709.37 M1112.93,853.2c-1.31,0.25-2.01,0.24-2.56,0.51
			c-24.62,12-51.05,18.09-77.53,24.23c-31.27,7.25-63.21,7.91-94.92,8.79c-24.1,0.67-48.35-2.6-72.46-4.93
			c-17.6-1.7-35.2-4.06-52.57-7.33c-17.34-3.26-34.5-7.65-51.55-12.23c-20.71-5.57-41.62-10.79-61.75-18.06
			c-38.97-14.07-78.19-27.15-118.01-38.73c-34.62-10.07-68.49-22.7-102.76-33.98c-8.47-2.79-17.15-5.06-25.85-7
			c-15.08-3.36-30.33-5.96-45.37-9.46c-16.22-3.77-32.23-8.47-48.44-12.29c-13.37-3.15-26.99-5.26-40.35-8.45
			c-39.94-9.54-79.89-19.14-117.78-35.45c-18.86-8.11-38.85-13.18-56.3-25.09c-22.64-15.46-42.29-33.43-57.26-56.37
			c-3.48-5.33-6.35-11.06-9.5-16.61c-0.55,0.29-1.1,0.59-1.64,0.88c4.86,9.17,9.79,18.32,14.58,27.53
			c11.48,22.12,28.08,39.76,49.53,51.89c29.88,16.9,60.34,32.69,92.97,44.12c17.94,6.29,36.26,10.42,54.68,14.53
			c25.62,5.71,51.25,11.4,76.82,17.35c21.24,4.94,42.47,10.01,63.59,15.46c22.1,5.7,44,12.17,66.11,17.84
			c18.13,4.65,36.59,8.02,54.6,13.06c12.85,3.6,25.06,9.43,37.8,13.55c11.59,3.74,23.76,5.77,35.22,9.86
			c21.83,7.79,43.3,16.55,64.96,24.82c14.57,5.56,29.04,11.45,43.84,16.32c15.27,5.03,30.68,10.03,46.4,13.17
			c17.15,3.43,34.71,4.85,52.12,6.86c7.14,0.82,14.38,0.73,21.55,1.36c19.48,1.73,38.94,4.95,58.42,5.11
			c22.98,0.18,46-2.12,68.98-3.56c19.35-1.22,38.78-1.36,57.52-7.85c19.79-6.85,40.07-12.31,59.83-19.24
			C1101.74,861.73,1108.76,860.1,1112.93,853.2 M448.72,214c-0.54-0.37-1.29-1.1-2.2-1.48c-22.96-9.7-41.97-25.21-60.63-41.23
			c-2.85-2.44-5.35-5.35-7.71-8.3c-11.9-14.89-23.59-29.95-35.65-44.7c-1.59-1.94-4.91-3.28-7.43-3.28c-1.23,0-3.13,3.58-3.59,5.78
			c-3.77,18.22-0.3,35.62,9.4,50.96c11.72,18.55,23.99,36.7,33.4,56.62c4.75,10.07,9.94,20,18.25,27.66
			c8.62-7.92,16.62-16.49,25.86-23.41C427.79,225.62,438.37,220.26,448.72,214 M524.78,623.48c-0.49-0.31-0.99-0.62-1.48-0.93
			c-0.83,0.17-1.65,0.38-2.48,0.51c-14.05,2.26-28.06,5.99-42.16,6.35c-15.35,0.39-30.79-2.22-46.16-3.78
			c-4.25-0.43-5.58,1.01-4.47,4.84c3.41,11.69,6.86,23.36,10.45,34.99c1.76,5.69,5.72,9.01,11.59,10.51
			c16.14,4.14,31.7,0.68,47.24-3.25c1.14-0.29,2.24-1.61,2.91-2.71c5.25-8.65,10.69-17.21,15.47-26.12
			C519.19,637.33,521.78,630.3,524.78,623.48 M851.76,596.75c5.75,9.85,10.76,18.64,16.05,27.26c0.88,1.43,2.88,2.35,4.55,3.06
			c9.33,3.99,18.67,7.94,28.09,11.7c12.92,5.16,25.6,11.26,38.94,14.93c23.15,6.38,45.21,15.11,66.52,26.01
			c1.24,0.63,3.12,1.2,4.21,0.71c5.54-2.48,10.92-5.32,17.72-8.71C969.8,644.06,910.62,622.42,851.76,596.75 M293.25,577.73
			c-16.47,8.31-22.62,22.44-23.33,38.97c-0.94,21.89,13.55,36.5,26.8,53.29c5.97-8.8,11.29-16.65,16.73-24.68
			c-4.72-3.38-4.24-6.88-3.65-11.14c1.16-8.27,1.96-16.75,1.47-25.06c-0.6-10.17-1.2-10.31-11.17-12.56
			c-4.07-0.92-5.84-2.8-5.87-6.95C294.19,585.71,293.61,581.84,293.25,577.73 M604.38,772.17c7.64,2.49,15.22,4.69,22.58,7.47
			c4.13,1.56,7.72,1.4,11.19-1.06c7.98-5.64,16.23-10.97,23.72-17.21c4.46-3.72,7.67-8.92,11.25-13.23
			c-14.24-8.25-27.49-15.93-40.62-23.54c-3.01,10.13-10.16,18.95-19.28,25.79c-5.11,3.84-7.12,8.54-8.31,14.12
			C604.42,766.79,604.56,769.2,604.38,772.17 M904.55,663.7c0.16-0.47,0.33-0.94,0.49-1.42c10.25,3.65,20.56,7.14,30.73,11.03
			c4.33,1.65,7.33,0.99,9.39-3.17c1.18-2.39,2.24-4.83,3.06-6.63c-18.53-7.66-36.56-15.11-55.46-22.92
			c-2.64,4.94-5.68,10.26-8.3,15.78c-0.7,1.48-0.56,3.71-0.04,5.35c2.74,8.65,5.68,17.23,8.66,25.8c0.41,1.17,1.17,2.82,2.11,3.09
			c7.23,2.12,14.52,4.07,21.86,5.77c1.42,0.33,3.99-0.16,4.58-1.14c2.51-4.17,4.48-8.67,6.96-13.68
			c-12.31-4.51-23.84-8.74-35.36-12.97c0.2-0.53,0.4-1.06,0.6-1.59c11.81,4.42,23.62,8.83,33.95,12.69c2.5-2.22,4.53-4.02,6.08-5.4
			C924.78,671.02,914.66,667.36,904.55,663.7 M297.08,574.01c0.53,4.44,1.54,8.04,1.26,11.54c-0.45,5.62,2.17,7.63,7.2,8.07
			c3.37,0.3,6.85,1.18,7.46,5.12c1.09,7.05,2.31,14.17,2.36,21.26c0.05,6.55-1.36,13.12-2.12,19.68c0.45,0.22,0.9,0.43,1.35,0.65
			c8.68-14.27,17.35-28.55,26.7-43.93c-7.23,0.55-13.26,1.01-19.28,1.46c-0.03-0.42-0.07-0.85-0.1-1.27
			c2.66-0.49,5.31-1.11,7.99-1.44c2.73-0.33,5.48-0.36,8.23-0.55c2.51-0.18,5.53,0.55,6.77-4.3c-11.8-0.67-23.01-1.3-34.84-1.96
			c1.39-0.39,2.2-0.85,2.99-0.81c9.9,0.49,19.8,1.09,29.7,1.56c1.58,0.08,4.05,0.24,4.66-0.64c4.42-6.45,8.46-13.15,13.05-20.45
			C338.38,567.38,317.55,568.55,297.08,574.01 M436.23,681.31c-5.8,14.16-11.53,28.17-17.37,42.43c1.91,0.59,4.15,1.35,6.44,1.97
			c12.22,3.32,24.42,6.74,36.71,9.79c1.95,0.49,4.93,0.01,6.36-1.25c2.64-2.31,4.49-5.52,6.35-7.93
			C461.94,711.39,449.35,696.66,436.23,681.31 M922.3,696.34c27.5,1.98,52.68-0.25,77.67-11.94c-15.98-8.16-30.81-15.79-47-20.81
			c-0.67,1.68-1.12,2.61-1.41,3.57c-2.13,7-5.92,11.92-14.07,11.9c-1.23,0-2.86,0.77-3.61,1.72
			C930.1,685.58,926.57,690.55,922.3,696.34 M447.9,682.69c10.29,13.14,20.28,25.88,30.27,38.62c5.89-15.04,11.39-29.1,16.57-42.33
			C479.98,680.15,464.53,681.38,447.9,682.69 M676.54,795.65c-2.05-6.72-4.53-12.45-5.41-18.41c-0.89-6.01-0.2-12.26-0.2-17.52
			c-10.75,7.86-21.56,15.76-33.01,24.12C650.78,787.78,663.56,791.69,676.54,795.65 M242.58,853.77
			c7.43,4.88,14.52,9.54,21.98,14.45c-2.28-9.06-4.7-17.72-6.58-26.5c-1.88-8.76-3.2-17.64-4.94-27.44
			C249.42,827.94,246.03,840.74,242.58,853.77 M515.63,767.12c-0.87-9.44-1.67-18.04-2.52-27.27c-9.74,2.56-16.47,9.27-24.57,14.5
			C496.12,762.23,505.78,764.17,515.63,767.12 M339.18,681.69c-0.56-0.24-1.13-0.47-1.7-0.71c-6.42,5.55-12.83,11.1-19.14,16.56
			c5.18,9.06,11.89,12.49,20.83,11.13V681.69z M609.9,749.31c9.42-7.71,16.25-16.26,20.35-26.87c0.3-0.77,0.2-2.12-0.3-2.71
			c-2.88-3.49-5.94-6.84-9.41-10.76C616.9,722.76,613.55,735.45,609.9,749.31 M309.98,693.97c0.88-8.46,1.6-15.45,2.44-23.5
			c-5.86,3.96-10.88,7.34-17.1,11.55C300.58,686.3,304.99,689.9,309.98,693.97 M870.26,629.28c3.82,8.71,7.06,16.12,10.37,23.66
			c3.11-5.13,5.83-9.62,8.74-14.43C883.29,635.56,877.4,632.72,870.26,629.28 M367.85,721.19c0.27-0.38,0.53-0.76,0.8-1.14
			c-1.07-5.53-2.14-11.06-3.34-17.21c-5.47,3.9-10.24,7.3-15.97,11.39c1.47,0.86,2.35,1.17,2.94,1.76
			C356.74,720.42,363.56,716.26,367.85,721.19"/>
		<path class="st2" d="M897.59,820.34c6.24-13.41,10.29-27.19,7.87-42.26c-0.37-2.31,0.43-4.78,0.5-7.19
			c0.05-1.73-0.22-3.47-0.35-5.2c-0.54-0.06-1.07-0.12-1.61-0.18c-0.4,1.66-1.03,3.3-1.17,4.98c-1.57,18.43-4.88,36.39-12.65,53.39
			c-4.65,10.16-6.55,11.74-17.28,10.22c-32.63-4.64-65.44-8.4-97.81-14.43c-29.34-5.47-58.2-13.47-87.27-20.37
			c-2.85-0.67-4.28-2.35-5.5-5.27c-6.07-14.55-7.91-29.37-2.27-44.21c3.21-8.43,8.2-16.18,12.28-24.3c0.74-1.47,0.94-3.22,1.39-4.84
			c-1.72,0.7-4.1,0.91-5.06,2.18c-3.92,5.21-7.58,10.63-10.97,16.2c-1.73,2.85-3.64,3.35-6.38,2.04
			c-15.3-7.28-29.76-15.67-41.42-28.4c-5.89-6.43-8.84-12.58-6.64-21.85c3.72-15.68,6.23-31.68,8.55-47.64
			c1.56-10.69,2.06-21.54,2.7-32.33c0.1-1.75-1.51-3.59-2.33-5.39c-1.06,1.72-2.9,3.36-3.07,5.16c-3.37,36.16-9.93,71.8-17.6,107.23
			c-2.86,13.22-7.5,26.05-11.34,39.06c-0.24,0.82-0.7,1.62-0.78,2.45c-1.21,13.61-10.35,17.11-20.31,18.83
			c-3.51,0.61-7.22,0.45-10.8,0.11c-3.57-0.33-7.91-0.31-10.36-2.33c-1.98-1.63-1.56-6.09-2.38-9.25
			c-1.54-5.99-3.07-11.98-4.86-17.9c-1.3-4.31-4.26-5.25-7.18-2.08c-6.16,6.69-12.08,13.61-17.81,20.66c-1,1.24-0.63,3.6-0.89,5.44
			c1.71-0.7,3.86-0.97,5.05-2.18c5.17-5.24,10.06-10.75,16.12-17.31c2.01,8.72,3.78,16.36,5.72,24.77
			c-8.13,0.77-15.11,3.98-21.54-1.9c-0.52-0.47-2.25-0.49-2.61-0.05c-0.51,0.62-0.7,2.42-0.28,2.74c2.74,2.12,5.59,5.38,8.59,5.6
			c5.33,0.39,10.8-1.17,16.22-1.82c2.4-0.28,5.03-0.99,7.21-0.34c11.51,3.41,22.63,3.41,33.53-2.22c4.49-2.32,9.25-2.71,14.16-1.04
			c20.96,7.12,41.77,14.76,62.96,21.1c24.17,7.24,48.53,13.96,73.09,19.71c33.97,7.96,68.5,12.94,103.22,16.48
			c24.64,2.52,49.28,5.16,73.95,7.29c16.76,1.45,33.59,3.09,50.37,2.91c31.91-0.33,62.13-8.66,90.92-22.31
			c12.57-5.96,25.45-11.28,37.78-17.69c5.69-2.96,10.6-7.6,15.48-11.9c4.97-4.37,5.87-10.09,3.51-16.62
			c-2.23,7.37-5.11,14.14-13.42,18.1c0.25-2.17,0.09-3.4,0.54-4.35c5.03-10.53,3.06-20.79-1.12-30.95
			c-7.17-17.41-20.2-29.64-35.44-39.89c-1.11-0.74-2.17-1.56-3.67-2.64c4.24-5.5,8.29-10.75,13.07-16.95
			c6.45,6.05,13.18,11.37,18.7,17.74c9.78,11.28,19.04,23.02,28.08,34.91c4.23,5.56,7.01,12.22,11.19,17.83
			c6.77,9.1,5.28,18.67,1.76,27.92c-5.04,13.27-10.69,26.37-17.02,39.07c-1.92,3.85-6.5,7-10.57,9.07
			c-21.16,10.77-43.83,17.13-67.11,21.28c-23.48,4.18-46.9,9.22-70.57,11.63c-19.77,2.01-39.88,1.38-59.8,0.85
			c-42.24-1.13-83.87-7.08-124.76-17.83c-28.09-7.39-56.31-14.43-84.06-22.96c-25.93-7.97-51.2-18.1-77.01-26.49
			c-15.98-5.2-32.61-8.38-48.65-13.44c-26.05-8.22-51.99-16.83-77.71-26.03c-27.57-9.86-55.92-16.62-84.34-23.3
			c-27.25-6.41-54.37-13.36-81.51-20.19c-32.32-8.13-64.82-15.63-96.83-24.85c-18.77-5.41-36.46-14.46-55.13-20.33
			c-17.32-5.45-32.24-14.58-45.96-25.79c-16.93-13.84-31.68-29.95-43.91-48.1c-5.05-7.5-9.11-15.79-12.65-24.14
			c-3.78-8.91-2.53-17.89,3.04-25.94c6.1-8.82,14.44-14.74,23.85-19.91c28.4-15.64,58.91-13.98,89.53-12.12
			c9.95,0.6,19.97,0.93,29.81,2.37c25.82,3.79,51.53,8.4,77.35,12.15c18.76,2.73,37.64,3.42,56.55,0.77
			c4.33-0.6,8.81-0.09,14.28-0.09c-3.56,5.4-6.41,10.44-10.06,14.81c-1.07,1.28-4.44,1.03-6.71,0.87
			c-17.94-1.27-35.7,0.4-53.34,3.34c-4.15,0.69-8.3,2.19-12.12,4c-23.46,11.09-30.19,29.23-29.11,54.1
			c0.87,19.98,10.49,36.34,25.05,49.8c1.98,1.83,2.41,3.18,1.83,6.08c-0.49,2.46,1.25,5.93,3.02,8.15
			c4.76,6,10.35,10.99,18.91,10.28c5.38,15.1,13.79,19.72,29.27,16.05c4.79,10.43,16.08,16.23,27.55,14.78
			c3.42-0.43,7.06,1.14,10.59,1.12c8.41-0.04,16.82-0.56,25.23-0.7c2.83-0.05,5.76,0.11,8.48,0.81
			c16.12,4.13,32.22,8.38,48.27,12.78c1.72,0.47,3.48,1.87,4.59,3.32c3.32,4.33,7.43,7.13,12.89,7.59c0.97,0.08,2.02-0.84,3.03-1.29
			c-0.62-0.9-1.05-2.08-1.89-2.66c-2.81-1.94-5.95-3.44-8.57-5.58c-0.86-0.71-1.27-3.42-0.63-4.27c3.89-5.15,8.14-10.03,13-15.88
			c0,7.09,0.47,12.9-0.08,18.62c-2.22,23.02,13.47,31.72,33.77,31.13c2.45-0.07,4.01-0.86,3.5-4.2c-1.47-9.66-2.49-19.39-3.65-29.09
			c-0.37-3.13-2.06-5.1-5.15-4.11c-5.13,1.65-10.16,3.69-15.05,5.97c-2.74,1.27-5.1,3.34-8.62,5.71c0.51-6.02,1.17-11,1.29-16
			c0.09-4.04,0.28-8.34-0.95-12.08c-1.32-4.02-0.51-7.2,0.74-10.84c6.62-19.34,16.69-36.87,27.45-54.13
			c4.78-7.67,8.27-16.2,11.88-24.55c4.68-10.8,2.49-21.78,0.31-32.8c-1.6-8.06-2.36-16.28-3.45-24.44c-0.18-1.36,0.18-2.9-0.34-4.09
			c-0.87-1.98-2.25-3.75-3.42-5.6c-1.01,1.83-3.03,3.75-2.86,5.47c1.21,12.78,2.04,25.67,4.55,38.22
			c3.04,15.16,2.12,12.29-9.32,15.01c-27.07,6.44-54.13,6.14-81.29,0.31c-5.66-1.22-7.49-4-7.75-9.46
			c-0.8-17.36,0.42-26.67,5.89-38.58c21.91,5.94,44.24,8.41,67,6.06c-7.01-0.47-14.01-1.25-21.02-1.33
			c-14.01-0.17-27.05-4.4-40.05-8.91c-3.61-1.25-5.39-3.2-3.41-7.31c4.02-8.35,7.65-16.89,11.78-25.19c0.56-1.12,3.15-2.04,4.59-1.8
			c16.1,2.73,32.17,5.64,48.23,8.64c4.55,0.85,9.01,2.15,13.51,3.25c8.51,2.1,16.27,1.08,22.9-5.23c4.34-4.14,8.92-8.04,13.17-12.26
			c0.99-0.99,1.12-2.84,1.65-4.3l-1.44-0.87c-1.31,0.97-2.62,1.92-3.92,2.91c-3.56,2.71-7.08,5.45-10.66,8.14
			c-6.71,5.04-13.83,6.37-22.27,4.46c-17.76-4.01-35.72-7.14-53.6-10.62c-19.7-3.84-39.35-8.04-59.13-11.4
			c-18.11-3.07-36.57-4.26-54.51-8.01c-26.75-5.6-44.93-21.32-51.19-48.92c-0.45-2-0.63-4.07-0.83-6.12
			c-0.83-8.53-0.73-9.48,7.91-8.7c9.98,0.91,19.92,3.22,29.65,5.78c12.22,3.22,24.07,7.85,36.32,10.88
			c13.11,3.24,26.5,6.75,40.08,2.59c8.36-2.56,16.45-6.04,24.72-8.91c4.04-1.4,8.22-2.44,12.38-3.45c1.2-0.29,2.86-0.39,3.8,0.21
			c4.32,2.76,5.01,0.27,4.36-3.11c-0.42-2.17-1.95-4.13-2.99-6.19c-1.28,1.18-2.46,2.5-3.88,3.49c-1.06,0.74-2.39,1.16-3.66,1.51
			c-8.75,2.4-17.94,3.78-26.19,7.33c-13.01,5.6-26.04,5.87-39.28,2.72c-9.13-2.18-17.82-6.26-26.98-8.22
			c-17.4-3.72-33.99-11.78-52.24-10.78c-6.16,0.34-12.28,2.59-18.28,4.43c-3.18,0.97-6.06,2.93-9.78,4.8
			c-2.95-13.92-4.29-27.07-3.07-40.55c1.45-16.08,9.98-27.76,22.05-37.46c0.65-0.52,1.46-0.83,1.7-0.96
			c2.75,3.12,5.03,6.3,7.96,8.66c0.88,0.71,3.61-0.89,6.67-1.77c-11.22-6.52-9.26-17.1-10.19-26.17c-1.11-10.83-1.82-21.6-6.7-31.53
			c-2.11-4.29-4.92-8.23-7.07-12.5c-0.99-1.95-1.15-4.32-1.68-6.5c2.3-0.31,4.97-1.54,6.83-0.79c7.76,3.14,15.69,6.21,22.79,10.56
			c11.26,6.91,21.96,14.73,32.75,22.37c3.05,2.16,5.61,5.01,8.63,7.75c-7.87,13.66-19.09,23.2-32.84,30.09
			c20.91-3.23,37.13-20.46,41.74-39.15c2.84-11.5,8.53-22.53,14.26-33.05c13.79-25.32,32.34-46.85,55.98-63.42
			c11.8-8.28,24.72-14.73,40.09-14.32c6.59,0.18,13.23-1.59,20.57-2.56c2.02,8.3,3.99,16.39,5.96,24.49
			c0.44,1.82,0.46,3.93,1.45,5.38c6.04,8.89,13.89,15.57,24.43,18.59c0.81,0.23,1.83-0.28,3.32-1.73c-2.16-1.34-4.35-2.62-6.47-4.03
			c-10.21-6.78-18.67-13.96-20.83-27.79c-2.74-17.57-5.61-34.98-4.36-52.78c0.54-7.67,1.63-15.34,3.04-22.91
			c2.1-11.29,4.11-22.66,7.24-33.68c2.91-10.2,7.08-20.06,11.08-29.91c0.95-2.34,3.08-4.64,5.27-5.95c5.01-2.99,8.94-1.23,9.68,4.5
			c0.94,7.3,1,14.7,1.61,22.05c1.29,15.33,6.77,29.47,13.29,43.13c11.38,23.85,23.27,47.46,35,71.15c0.83,1.68,1.84,3.43,3.21,4.66
			c4.3,3.85,2.81,7.14-0.71,10.27c-10.29,9.14-22.36,15.29-34.96,20.51c-2.54,1.05-5.23,1.72-7.76,2.79
			c-1.55,0.65-2.92,1.73-4.37,2.62c0.15,0.46,0.3,0.92,0.45,1.38c1.22,0.06,2.5,0.4,3.64,0.13c16.09-3.81,30.87-10.51,44.18-20.37
			c1.23-0.91,2.35-2.04,3.3-3.24c6.01-7.57,5.49-8.41,1.19-16.98c-10.55-21-20.6-42.26-30.6-63.53c-0.81-1.73-0.21-4.54,0.57-6.52
			c2-5.09,4.95-9.83,6.67-15c6.34-19.04,18.23-34.57,31.23-49.27c6.83-7.72,17.85-6.37,25.9,2.12c4.53,4.78,4.94,4.53,9.89,0.35
			c12.06-10.18,24.03-20.52,36.67-29.95c10.97-8.18,24-10.81,37.59-9.82c10.35,0.76,17.73,7.12,24.01,14.56
			c4.44,5.26,9.32,10.37,8.14,18.67c-0.49,3.48,2.88,2.49,5.01,0.73c8.27-6.85,17.85-9.78,28.54-9.99
			c12.43-0.24,21.04,6.09,28.39,15.17c8.74,10.8,11.49,24.02,15.21,36.88c0.84,2.91-0.87,3.87-2.93,5.11
			c-1.07,0.64-1.54,2.26-2.29,3.44c1.36,0.24,2.84,0.95,4.07,0.65c11.93-2.94,23.67-4.73,36.06-1.41
			c11.63,3.12,18.58,10.84,23.56,20.72c7.63,15.16,10.15,31.35,7.06,48.12c-0.87,4.74-2.93,9.25-4.74,14.79
			c1.61,0.71,4.09,1.98,6.69,2.88c14.62,5.08,21.71,16.06,22.8,30.77c1.78,24.13-5.4,45.35-22.11,63.24
			c-5.81,6.22-13.02,9.35-20.86,11.63c-0.49,0.14-0.98,0.32-1.48,0.35c-1.96,0.12-3.92,0.19-5.87,0.28c1.03,1.86,1.83,3.9,3.13,5.56
			c7.87,10.11,11.46,21.17,6.9,33.66c-3.04,8.33-5.59,17.2-10.45,24.41c-9.5,14.1-24.13,20.42-40.8,22.05
			c-9.14,0.89-10.06,1.88-8.02,11.32c2.27,10.47-0.63,19.43-8.96,25.67c-5.52,4.14-12.17,7.08-18.7,9.51
			c-15.63,5.82-31.44,4.01-47.16-0.17c-2.47-0.66-5-1.32-7.53-1.47c-1-0.06-2.49,1.08-2.98,2.07c-0.3,0.61,0.64,2.57,1.41,2.85
			c5.06,1.83,4.42,5.67,4.15,9.79c-0.69,10.31-6.3,17.63-13.99,23.65c-6.49,5.08-13.54,3.99-20.51,0.99
			c-16.03-6.92-30.74-15.83-43.38-28.09c-11.32-10.98-25.27-16.95-40.7-19.52c-8.53-1.42-14.28,1.79-18.48,9.41
			c-2.07,3.75-4.86,7.08-7.17,10.7c-0.83,1.3-1.19,2.9-1.76,4.36c0.42,0.25,0.85,0.49,1.27,0.74c1.04-1.21,2.06-2.44,3.14-3.61
			c3.03-3.28,6.12-6.51,9.14-9.8c4.17-4.53,9.37-5.33,15.14-4.44c13.9,2.15,25.67,8.62,35.75,18.12
			c13.84,13.03,29.61,22.7,47.65,28.67c9.05,3,16.94,1.53,24.44-4.82c7.44-6.3,12.56-13.51,13.64-24.69
			c4.97,4.26,9.12,8.01,13.46,11.51c14.19,11.41,28.99,22.12,42.54,34.24c18.2,16.28,34.68,34.37,48.22,54.8
			c10.14,15.3,20.75,30.5,28.84,46.89c11.14,22.56,22.66,45.2,28.14,70.11c1.88,8.54,3.36,17.17,5.08,25.75
			c0.22,1.1,0.74,2.14,1.66,4.69c4.27-11.92,0.35-22.07-1.08-31.89c8.13,1.85,15.99,4.4,24.03,5.35
			c33.68,3.94,65.82-2.13,96.06-17.14c14.71-7.31,29.33-15.17,42.81-24.51c14.47-10.02,28.35-21.13,39.38-35.26
			c2.69-3.45,5.66-7.4,12.18-6.11c-1.63,3.82-2.95,7.08-4.41,10.29c-12.2,26.9-30.76,48.98-51.23,69.97
			c-25.07,25.69-53.56,46.21-85.79,61.69c-15.64,7.51-32.29,11.53-49.53,13.21c-2.25,0.22-4.46,0.88-6.69,1.33
			c-0.02,0.62-0.04,1.25-0.06,1.87c1.73,0.24,3.5,0.85,5.18,0.68c22.62-2.31,44.07-8.11,64.34-18.93
			c32.55-17.37,60.72-40.01,85.94-66.8c17.76-18.87,32.13-39.77,42.68-63.37c0.4-0.9,0.92-1.75,1.53-2.89
			c1.23,5.11-0.31,13.11-3.65,19.2c-21.95,40.1-50.22,75.25-85.11,104.64c-22.01,18.54-44.49,36.77-70,50.6
			c-15.81,8.58-32.43,14.9-50.42,17.16c-1.85,0.23-3.65,0.81-5.48,1.23L897.59,820.34z M781.09,607.08
			c-1.18-2.88-1.78-7.19-4.22-9.77c-8.45-8.97-17.37-17.52-26.47-25.85c-3.19-2.92-7.61-3.87-11.18-0.21
			c-4.99,5.12-8.88,10.92-8.87,18.51c0.03,18.82,9.65,32.75,23.65,43.75c8.77,6.88,20.54,3.58,22.99-5.53
			C778.71,621.53,779.59,614.86,781.09,607.08 M740.49,408.57c5.2-0.95,10.57-1.39,15.58-2.96c6.65-2.08,12.16-6.02,13.06-13.68
			c0.83-7.04-3.73-11.44-8.64-15.39c-7.92-6.36-17.6-7.3-27.16-8.33c-6.94-0.74-13.62,0.2-19.86,3.75
			c-10.03,5.7-11.52,16.19-3.5,24.44C718.34,405.01,728.85,407.72,740.49,408.57 M861.67,642.71c-0.15-0.64-0.31-1.49-0.54-2.31
			c-5.7-20.54-16.71-37.96-31.5-53.08c-3.41-3.49-5.67-3.23-6.82,1.61c-1.39,5.84-1.95,12.19-1.34,18.16
			c2,19.52,14.08,32.19,30.24,41.53C856.25,651.24,861.48,647.94,861.67,642.71 M554.3,350.65c-0.18-9.27-8.41-22.89-16.76-28.42
			c-17.1-11.34-35.3-15.57-55.25-8.11c-6.9,2.58-7.37,3.03-5.81,9.99c0.26,1.17,0.72,2.3,0.95,3.48c0.63,3.19,2.19,3.63,5.19,2.51
			c24.94-9.37,50.51-0.67,64.48,21.68c0.86,1.37,2.55,2.22,3.86,3.31C552.31,353.29,553.67,351.49,554.3,350.65 M525.43,353.96
			c-1.08-2.21-2.24-7.23-5.31-10.39c-12.08-12.4-33.49-7.49-39.88,8.73c-3.31,8.41-1.1,17.79,5.79,22.76
			c7.81,5.62,16.29,6.15,24.89,1.91C519.37,372.8,524.54,366.19,525.43,353.96 M890.57,748.36c-0.27-0.07-0.55-0.14-0.82-0.21
			c-0.09-1.71,0.01-3.46-0.3-5.13c-1.61-8.6-9.02-12.9-15.78-8.61c-10.29,6.53-15.59,22.92-5.2,33.98
			c5.16,5.49,14.87,4.19,17.61-2.75C888.23,760.13,889.11,754.13,890.57,748.36 M762.55,540.3c-0.01-7.09-8.76-23.27-14.97-26.78
			c-2.44-1.38-5.48-2.14-8.29-2.31c-3.85-0.24-6.47,1.79-7.12,5.92c-1.6,10.16,7.4,27.28,16.7,31.63
			C755.66,551.93,762.56,547.67,762.55,540.3 M724.46,435.43c0.08-0.29,0.16-0.59,0.23-0.88c1.54,0,3.42,0.57,4.55-0.11
			c2.6-1.57,6.01-3.31,6.95-5.79c1.35-3.56,2.81-8.77-1.44-11.3c-5.19-3.09-11.01-5.58-16.87-6.93
			c-5.45-1.25-10.21,3.56-12.09,10.41c-1.36,4.97,0.19,8.35,6.03,10.9C715.82,433.46,720.24,434.23,724.46,435.43 M784.3,372.85
			c0.02,8.77,4.8,15.08,11.42,15.09c6.25,0.01,11.42-5.22,11.34-11.47c-0.11-8.24-6.6-15.28-14.2-15.42
			C787.52,360.94,784.29,365.4,784.3,372.85 M867.97,795.67c-0.3,7.06,3.54,11.12,9.17,9.68c7.29-1.86,12.07-12.08,8.6-18.82
			c-2.18-4.24-6.38-5.49-10.54-4.51c-2.34,0.55-4.95,2.84-6.04,5.04C867.93,789.53,868.29,792.77,867.97,795.67 M819.67,574.04
			c-0.95-7.77-4.97-12.95-12-14.86c-5.62-1.53-9.12,1.07-8.86,6.87c0.25,5.62,2.76,10.45,7.38,13.45c2.23,1.45,6.07,2.2,8.37,1.27
			C816.81,579.85,818.01,576.38,819.67,574.04 M853.36,773.09c-0.18-6.12-6.52-12.18-13.38-12.79c-6.19-0.55-10.66,5.27-7.21,10.4
			c2.58,3.84,6.88,6.96,11.06,9.2C848.71,782.5,853.52,778.67,853.36,773.09 M777.42,566.22c4.83-0.11,8-3.74,7.8-8.9
			c-0.31-7.53-4.02-11.87-10.09-11.77c-3.28,0.05-9.26,8.81-9.18,13.46C766,563.1,771.21,566.37,777.42,566.22"/>
		<path class="st2" d="M664.44,847.89c-1.46,10.48-2.95,19.92-4.01,29.41c-0.58,5.16,1.63,9.02,7.03,10.37
			c0.9,0.22,1.9,0.03,3.47-0.33c-5.47-2.74-3.66-7.23-3.2-11.1c0.95-7.97,2.34-15.88,3.55-23.88c34.01,11.59,67.2,22.9,100.72,34.31
			c-0.88,4.74-1.67,10.09-3.03,15.3c-0.29,1.11-2.65,2.33-4.09,2.38c-5.95,0.21-11.97,0.43-17.87-0.2
			c-7.68-0.82-15.26-2.51-22.9-3.7c-1.49-0.23-3.08,0.1-4.62,0.18c-0.09,0.47-0.18,0.93-0.27,1.4c1.07,0.58,2.09,1.44,3.24,1.69
			c10.39,2.31,20.75,4.78,31.22,6.6c3.96,0.68,8.23,0.03,12.3-0.49c4.16-0.53,7.12-2.52,8.39-7.13c1.45-5.23,3.85-10.19,6.02-15.74
			c6.49,1.1,13.35,2.73,20.31,3.35c17.47,1.57,34.99,2.7,52.49,4c2.06,0.15,4.25-0.11,6.16,0.49c23.55,7.41,47.7,4.41,71.67,4.13
			c13.18-0.15,26.36-1.2,38.41-1.79c0,4.42-1.51,9.88,0.41,13.53c2.07,3.92,7.37,6.13,11.26,9.08c0.45-0.54,0.91-1.07,1.36-1.61
			c-2.24-2.9-4.38-5.89-6.74-8.68c-3.18-3.76-0.29-13.02,4.65-13.97c3.17-0.62,6.51-1,9.7-0.72c14.32,1.23,27.98-1.55,41.46-5.99
			c15.18-5,30.42-9.79,45.65-14.64c0.93-0.3,1.94-0.34,4.36-0.74c-5.19,10.31-9.78,19.67-14.67,28.87c-0.78,1.46-2.8,2.55-4.48,3.18
			c-5.95,2.22-12.01,4.12-18,6.24c-1.94,0.69-3.78,1.68-6.92,3.1c2.24,0.75,2.95,1.14,3.69,1.21c0.79,0.07,1.6-0.15,2.47-0.25
			c-3.56,7.97-6.96,15.78-10.59,23.48c-0.54,1.15-2.07,2.36-3.31,2.57c-11.6,1.97-23.3,2.66-34.76-0.38
			c-4.31-1.15-8.16-4.03-12.34-6.18c1.27-3.67,2.42-6.53,3.18-9.49c0.23-0.88-0.66-2.05-1.04-3.09c-1,0.48-2.52,0.69-2.91,1.47
			c-1.67,3.38-3.25,6.84-4.33,10.44c-0.35,1.17,0.56,3.21,1.55,4.22c11.17,11.36,25.26,12.31,40.1,11.6
			c11.94-0.57,19.63-5.53,23.09-17.24c1.78-6.04,4.11-12.07,7.28-17.47c1.26-2.16,5.43-2.61,8.28-3.84c0.35,0.38,0.7,0.76,1.04,1.14
			c-3.93,6.33-7.79,12.69-11.79,18.97c-12.84,20.14-25.82,40.21-38.6,60.39c-16.84,26.59-39.28,48.1-62.8,68.45
			c-14.12,12.22-28.62,24.4-44.48,34.09c-27.1,16.55-55.29,31.32-83.23,46.47c-28.85,15.65-60.19,19.3-92.45,18.54
			c-28.8-0.68-57.1-5.41-85.49-9.66c-30.22-4.53-60.52-8.57-90.72-13.27c-22.26-3.47-44.34-8.03-65.2-16.88
			c-8.2-3.48-15.89-8.19-23.83-12.29c-8.84-4.56-17.97-8.63-26.5-13.72c-7.2-4.3-13.78-9.66-20.53-14.69
			c-12.11-9.03-24.84-17.4-36.02-27.46c-10.66-9.6-20.07-20.68-29.36-31.69c-19.05-22.57-33.64-48.22-47.97-73.84
			c-6.96-12.44-11.27-26.51-15.69-40.19c-9.71-30.06-21.17-59.65-25.95-91.13c-0.65-4.27-4.99-8.01-1.78-12.89
			c0.21-0.32-0.9-1.5-1.4-2.27c-0.81,0.71-2.03,1.28-2.35,2.17c-2.13,5.81-4.33,11.6-6,17.55c-3.06,10.9-5.77,21.89-8.88,33.82
			c-5.27-7.73-10.53-14.94-9.1-24.16c2.45-15.77,5.61-31.44,8.66-47.12c2.66-13.65,5.58-27.26,8.41-40.88
			c0.37-1.79,0.89-3.55,1.39-5.54c31.66,7.47,62.84,14.83,94.5,22.3c-0.81,4.02-1.68,8.32-2.53,12.64
			c-2.27,11.62-0.38,15.01,10.63,19.11c-1.56,4.69-3.58,9.28-4.6,14.09c-2.02,9.61,2.41,16.16,11.55,17.8
			c1.29,0.23,2.69-0.14,4.38-0.91c-4.9-4.24-14.12-5.46-9.7-15.03c2.58-5.59,0.93-13.85,10.37-16.78c-1.86-0.96-3.64-2.21-5.6-2.85
			c-11.54-3.78-11.56-3.73-8.91-15.68c2.36-10.62,2.4-10.8,13.24-8.18c29.21,7.07,58.38,14.31,87.56,21.51
			c1.13,0.28,2.2,0.81,3.83,1.42c-1.53,6.28-2.75,12.49-4.7,18.46c-0.45,1.37-3.59,2.94-5.2,2.66c-9.44-1.6-18.87-3.39-28.15-5.75
			c-12.4-3.15-24.65-6.9-36.98-10.31c-1.74-0.48-3.6-0.53-5.4-0.78c-0.15,0.54-0.31,1.07-0.46,1.61
			c19.46,6.71,38.92,13.42,58.53,20.18c-2.35,6.67-4.55,12.93-6.62,18.82c-16.05-2.9-31.51-5.72-46.99-8.43
			c-0.97-0.17-2.08,0.49-3.12,0.77c0.51,1.13,0.73,2.88,1.59,3.3c4.3,2.12,8.61,4.76,13.21,5.59c9.25,1.68,18.69,2.41,28.07,3.33
			c9,0.88,14.62-4.83,16.61-12.18c0.22-0.83,0.64-1.63,0.72-2.48c0.56-5.55,3.12-7.66,9.09-7.33c8.19,0.45,10.82-2.25,12.96-10.19
			c0.8-2.98,1.88-5.88,2.79-8.82c2.23-7.19,2.19-7.02,9.28-5.38c23.1,5.33,46.27,10.38,69.35,15.84c7.83,1.85,15.85,3.74,23.09,7.1
			c16.48,7.65,33.87,12.33,51.08,17.71c13.6,4.25,26.92,9.4,40.36,14.17C655.67,844.74,660.31,846.42,664.44,847.89 M672.77,1138.11
			c0.05-0.3,0.1-0.61,0.15-0.91c-4.63-1.26-9.2-2.8-13.9-3.74c-14.49-2.92-29.16-5.04-43.5-8.53c-33.22-8.08-66.34-16.59-99.4-25.31
			c-22.89-6.04-43.79-16.36-61.93-31.7c-11.02-9.32-21.38-19.42-32.34-28.8c-21.29-18.22-43.4-35.52-63.99-54.5
			c-11.26-10.38-19.91-23.54-30.08-35.15c-7.82-8.93-13.73-18.77-17.8-29.94c-8.44-23.16-13.96-47.06-18.84-71.15
			c-0.38-1.89-1.04-3.72-1.57-5.58c-0.61,0.05-1.21,0.1-1.82,0.15c0,1.82-0.28,3.7,0.05,5.46c2.06,11.15,3.52,22.48,6.57,33.36
			c7.21,25.72,12.72,52.23,31.97,72.83c10.07,10.78,18.33,23.43,29.19,33.26c35.93,32.49,71.74,65.22,111.77,92.77
			c8.59,5.91,17.63,11.67,27.26,15.42c15.65,6.1,31.85,10.87,48.01,15.5c31.43,9.01,63.34,15.85,95.7,20.65
			C649.8,1133.9,661.26,1136.12,672.77,1138.11 M1017.75,962.94c-2.83,0.6-4.7,0.58-6.12,1.37c-9.44,5.3-18.87,10.62-28.09,16.27
			c-2.54,1.56-4.55,4.12-6.5,6.47c-13.06,15.7-26.03,31.47-39.03,47.22c-7.22,8.74-14.5,17.43-21.57,26.29
			c-0.89,1.11-1.39,3.56-0.76,4.57c0.68,1.09,3.02,1.91,4.44,1.67c13.28-2.3,25.63-5.51,34.5-17.64
			c11.85-16.19,25.01-31.44,37.99-46.77C1002.42,990.78,1011.01,978.5,1017.75,962.94 M687.54,929.85c-0.15,0.6-0.3,1.2-0.44,1.81
			c3.24,1.61,6.58,3.06,9.71,4.88c13.63,7.92,28.42,8.27,43.47,6.67c1.93-0.21,4.17-1.03,5.53-2.33
			c6.99-6.71,9.79-15.54,11.57-24.73c0.17-0.87-0.69-2.5-1.49-2.84c-0.76-0.34-2.52,0.21-3.02,0.94c-1.25,1.81-2.07,3.92-3,5.93
			c-2.09,4.51-3.95,9.15-6.34,13.5c-0.72,1.31-2.84,2.59-4.33,2.61c-15.52,0.2-30.77-1.73-45.65-6.34
			C691.71,929.36,689.55,929.85,687.54,929.85 M705.75,899.33c0.45-0.54,0.91-1.09,1.36-1.63c-1.06-1.2-1.92-3.1-3.22-3.49
			c-8.49-2.53-17.04-4.92-25.66-6.96c-4.18-0.99-6.95,1.93-8.44,5.31c-3.92,8.9-5.02,18.17-2.36,27.68c1.36,4.88,4.61,7,9.89,6.49
			c-8.85-12.14-3.45-24.23-0.48-36.82C686.95,893.2,696.35,896.27,705.75,899.33 M1031.19,915.38c0-0.44,0.01-0.88,0.01-1.32
			c-10.98-1.62-21.95-4.03-32.92-0.72c0,0.68,0,1.36,0,2.04H1031.19z"/>
		<path class="st2" d="M344.7,709.37c0.59-6.4,1.26-11.64,1.5-16.89c0.2-4.25,0.28-8.58-0.29-12.78c-0.78-5.7-3.74-7.17-8.58-4.07
			c-7.24,4.64-14.12,9.84-20.57,14.38c0.67-4.71,1.71-10.87,2.41-17.06c0.99-8.83-0.79-10.38-9.33-8.34
			c7.23-12.63,14.04-25.33,21.62-37.56c9.57-15.45,19.87-30.45,29.67-45.76c10.33-16.15,20.44-32.44,30.65-48.67
			c0.27-0.44,0.47-0.92,0.73-1.37c2.85-4.97,6.18-7.66,12.75-5.92c11.42,3.03,23.12,4.99,35.43,7.55c-1.36,2.66-2.48,4.84-3.58,7.04
			c-10.18,20.26-15.06,42.11-17.25,64.36c-1.78,18.15,1.11,36.22,6.53,53.75c0.1,0.33,0.08,0.74,0.27,0.99
			c7.39,9.77,4.2,18.76-0.93,28.48c-4.85,9.21-7.88,19.38-11.9,29.04c-0.63,1.53-2.16,3.67-3.45,3.79
			c-10.21,0.99-20.46,1.52-30.69,2.31c-3.08,0.24-4.42-1.14-4.82-4c-0.61-4.43-1.37-8.84-1.97-13.27
			c-1.12-8.27-5.29-10.49-12.25-6.28C355.69,702.13,350.87,705.39,344.7,709.37"/>
		<path class="st2" d="M1112.93,853.21c-4.18,6.89-11.19,8.52-17.09,10.59c-19.76,6.93-40.04,12.39-59.83,19.24
			c-18.75,6.49-38.18,6.64-57.53,7.86c-22.99,1.44-46,3.74-68.98,3.56c-19.49-0.15-38.94-3.38-58.42-5.11
			c-7.17-0.63-14.41-0.54-21.55-1.36c-17.41-2.01-34.97-3.43-52.12-6.86c-15.72-3.14-31.13-8.14-46.4-13.17
			c-14.8-4.87-29.27-10.76-43.84-16.33c-21.66-8.27-43.13-17.03-64.96-24.82c-11.45-4.09-23.62-6.11-35.22-9.86
			c-12.73-4.11-24.94-9.94-37.8-13.55c-18-5.05-36.47-8.42-54.6-13.06c-22.11-5.67-44.01-12.14-66.11-17.84
			c-21.12-5.45-42.34-10.51-63.59-15.46c-25.57-5.95-51.2-11.64-76.82-17.35c-18.42-4.1-36.73-8.24-54.68-14.52
			c-32.63-11.43-63.1-27.21-92.97-44.12c-21.45-12.14-38.05-29.78-49.53-51.89c-4.78-9.22-9.72-18.36-14.58-27.53
			c0.55-0.3,1.1-0.59,1.64-0.88c3.15,5.55,6.02,11.28,9.5,16.61c14.97,22.95,34.63,40.91,57.26,56.37
			c17.45,11.92,37.44,16.98,56.3,25.09c37.9,16.3,77.85,25.9,117.78,35.45c13.36,3.19,26.98,5.3,40.35,8.45
			c16.21,3.82,32.22,8.51,48.44,12.29c15.04,3.5,30.29,6.1,45.37,9.46c8.71,1.94,17.38,4.21,25.85,7
			c34.27,11.28,68.14,23.91,102.76,33.98c39.81,11.58,79.03,24.65,118.01,38.73c20.13,7.27,41.04,12.49,61.75,18.06
			c17.05,4.58,34.21,8.97,51.54,12.23c17.37,3.27,34.97,5.63,52.57,7.32c24.11,2.33,48.36,5.6,72.46,4.93
			c31.71-0.88,63.65-1.54,94.93-8.79c26.48-6.13,52.91-12.22,77.53-24.23C1110.92,853.45,1111.61,853.46,1112.93,853.21"/>
		<path class="st2" d="M897.54,820.25c0.07,4.01,1.83,5.17,5.95,4.64c34.74-4.44,64.21-19.94,90.7-42.17
			c12.08-10.14,24.68-19.66,37.13-29.34c0.93-0.72,3.04-1.12,3.88-0.57c12.17,7.88,20.7,18.55,23.6,32.98
			c0.68,3.38-0.31,7.1-0.52,10.67c-0.06,1.09-0.12,2.17-0.19,3.47c4.65-1.83,6.82-7.42,6.03-13.96
			c-1.81-15.13-10.3-25.82-22.48-34.08c-1.28-0.87-2.58-1.7-3.84-2.6c-0.25-0.18-0.34-0.58-0.46-0.78
			c7.58-8.2,15.08-16.4,22.74-24.46c0.64-0.67,2.68-0.96,3.39-0.45c12.42,8.71,24.66,17.64,31.85,31.63
			c8.28,16.11,8.79,31.9-1.97,47.2c-0.74,1.04-1.87,2.02-3.03,2.51c-21.65,9.16-42.92,19.43-65.09,27.06
			c-32.09,11.04-65.4,11.83-98.92,7.27c-12.25-1.67-24.6-2.62-36.24-3.83c2.49-4.96,5.02-9.99,7.53-15.05
			C897.59,820.35,897.54,820.25,897.54,820.25"/>
		<path class="st2" d="M448.72,214c-10.34,6.26-20.93,11.62-30.28,18.62c-9.24,6.92-17.24,15.49-25.86,23.41
			c-8.31-7.66-13.5-17.59-18.25-27.66c-9.41-19.92-21.68-38.07-33.4-56.62c-9.69-15.34-13.17-32.75-9.4-50.96
			c0.46-2.2,2.36-5.78,3.59-5.78c2.52,0,5.84,1.34,7.43,3.28c12.06,14.75,23.75,29.81,35.65,44.7c2.35,2.94,4.86,5.85,7.71,8.29
			c18.65,16.01,37.66,31.53,60.63,41.23C447.42,212.9,448.18,213.63,448.72,214"/>
		<path class="st2" d="M524.78,623.48c-3,6.82-5.59,13.86-9.1,20.41c-4.78,8.91-10.22,17.47-15.47,26.12
			c-0.67,1.11-1.77,2.42-2.91,2.71c-15.54,3.93-31.1,7.39-47.24,3.25c-5.87-1.5-9.83-4.82-11.59-10.51
			c-3.59-11.63-7.05-23.31-10.45-34.99c-1.12-3.83,0.22-5.28,4.47-4.84c15.37,1.57,30.81,4.18,46.16,3.78
			c14.1-0.36,28.11-4.09,42.16-6.35c0.83-0.13,1.65-0.34,2.48-0.51C523.79,622.86,524.28,623.17,524.78,623.48"/>
		<path class="st2" d="M851.76,596.75c58.86,25.67,118.04,47.31,176.09,74.97c-6.8,3.39-12.18,6.23-17.72,8.71
			c-1.1,0.49-2.98-0.07-4.21-0.7c-21.3-10.9-43.37-19.63-66.52-26.01c-13.34-3.67-26.02-9.77-38.94-14.93
			c-9.42-3.76-18.76-7.72-28.09-11.7c-1.67-0.71-3.67-1.64-4.55-3.06C862.52,615.39,857.51,606.6,851.76,596.75"/>
		<path class="st2" d="M293.25,577.73c0.36,4.11,0.94,7.99,0.97,11.86c0.03,4.15,1.8,6.04,5.87,6.95
			c9.97,2.25,10.57,2.39,11.17,12.56c0.49,8.31-0.31,16.79-1.46,25.06c-0.6,4.26-1.07,7.75,3.65,11.14
			c-5.44,8.03-10.76,15.88-16.73,24.68c-13.25-16.8-27.73-31.4-26.8-53.29C270.63,600.16,276.79,586.04,293.25,577.73"/>
		<path class="st2" d="M604.38,772.17c0.18-2.96,0.04-5.37,0.53-7.65c1.19-5.57,3.2-10.28,8.31-14.12
			c9.12-6.84,16.27-15.66,19.28-25.79c13.13,7.61,26.38,15.29,40.62,23.54c-3.58,4.3-6.79,9.51-11.25,13.23
			c-7.48,6.24-15.73,11.58-23.72,17.21c-3.48,2.45-7.07,2.62-11.19,1.06C619.6,776.85,612.02,774.66,604.38,772.17"/>
		<path class="st2" d="M904.54,663.7c10.12,3.66,20.24,7.32,29.3,10.59c-1.56,1.38-3.58,3.18-6.08,5.4
			c-10.33-3.86-22.14-8.28-33.95-12.7c-0.2,0.53-0.4,1.06-0.6,1.59c11.52,4.23,23.05,8.45,35.36,12.97c-2.48,5-4.45,9.5-6.96,13.68
			c-0.59,0.98-3.16,1.47-4.58,1.14c-7.34-1.7-14.63-3.66-21.86-5.77c-0.94-0.27-1.71-1.93-2.11-3.09
			c-2.97-8.57-5.92-17.15-8.66-25.79c-0.52-1.64-0.66-3.87,0.04-5.35c2.62-5.52,5.66-10.84,8.3-15.78
			c18.9,7.81,36.93,15.27,55.46,22.92c-0.82,1.79-1.88,4.24-3.06,6.63c-2.05,4.16-5.06,4.83-9.39,3.17
			c-10.16-3.89-20.47-7.38-30.73-11.03C904.87,662.76,904.71,663.23,904.54,663.7"/>
		<path class="st2" d="M297.08,574.01c20.47-5.45,41.3-6.63,63.37-6.04c-4.59,7.3-8.63,14.01-13.05,20.46
			c-0.6,0.88-3.07,0.72-4.66,0.64c-9.9-0.47-19.8-1.07-29.7-1.56c-0.79-0.04-1.61,0.42-2.99,0.81c11.83,0.67,23.04,1.3,34.84,1.97
			c-1.24,4.85-4.25,4.13-6.77,4.3c-2.74,0.19-5.5,0.22-8.23,0.55c-2.68,0.33-5.33,0.95-7.99,1.44c0.03,0.42,0.07,0.85,0.1,1.27
			c6.02-0.46,12.05-0.92,19.28-1.47c-9.35,15.38-18.03,29.66-26.7,43.93c-0.45-0.22-0.9-0.43-1.35-0.65
			c0.76-6.56,2.17-13.12,2.12-19.68c-0.05-7.1-1.27-14.21-2.36-21.26c-0.61-3.94-4.09-4.83-7.46-5.12c-5.03-0.44-7.65-2.44-7.2-8.07
			C298.62,582.05,297.61,578.45,297.08,574.01"/>
		<path class="st2" d="M436.23,681.31c13.12,15.35,25.71,30.08,38.48,45.02c-1.85,2.41-3.7,5.63-6.35,7.93
			c-1.43,1.25-4.41,1.73-6.36,1.25c-12.29-3.06-24.49-6.47-36.71-9.79c-2.29-0.62-4.53-1.38-6.44-1.97
			C424.7,709.48,430.43,695.47,436.23,681.31"/>
		<path class="st2" d="M922.3,696.34c4.27-5.79,7.8-10.77,11.57-15.55c0.75-0.96,2.39-1.72,3.62-1.72
			c8.15,0.01,11.94-4.9,14.07-11.91c0.29-0.97,0.74-1.89,1.41-3.57c16.2,5.02,31.02,12.66,47,20.81
			C974.98,696.1,949.8,698.32,922.3,696.34"/>
		<path class="st2" d="M447.9,682.69c16.63-1.32,32.08-2.54,46.84-3.71c-5.18,13.23-10.69,27.29-16.57,42.33
			C468.18,708.58,458.19,695.83,447.9,682.69"/>
		<path class="st2" d="M676.54,795.65c-12.97-3.97-25.76-7.88-38.62-11.81c11.44-8.36,22.26-16.26,33.01-24.12
			c0,5.26-0.69,11.51,0.2,17.52C672,783.21,674.49,788.93,676.54,795.65"/>
		<path class="st2" d="M242.58,853.77c3.45-13.03,6.84-25.83,10.45-39.49c1.74,9.8,3.07,18.68,4.94,27.44
			c1.88,8.78,4.31,17.44,6.58,26.5C257.1,863.31,250.01,858.65,242.58,853.77"/>
		<path class="st2" d="M515.63,767.12c-9.85-2.95-19.51-4.89-27.1-12.77c8.1-5.23,14.84-11.94,24.57-14.5
			C513.96,749.07,514.76,757.68,515.63,767.12"/>
		<path class="st2" d="M339.18,681.69v26.99c-8.94,1.35-15.66-2.07-20.84-11.14c6.31-5.46,12.72-11.01,19.14-16.56
			C338.04,681.22,338.61,681.45,339.18,681.69"/>
		<path class="st2" d="M609.9,749.3c3.65-13.85,7-26.54,10.64-40.34c3.47,3.92,6.52,7.27,9.41,10.76c0.49,0.6,0.6,1.94,0.3,2.71
			C626.15,733.05,619.32,741.59,609.9,749.3"/>
		<path class="st2" d="M309.98,693.97c-5-4.07-9.4-7.66-14.67-11.96c6.23-4.2,11.24-7.59,17.1-11.54
			C311.59,678.52,310.86,685.51,309.98,693.97"/>
		<path class="st2" d="M870.26,629.28c7.13,3.44,13.03,6.29,19.11,9.23c-2.92,4.82-5.63,9.3-8.74,14.43
			C877.33,645.39,874.08,637.98,870.26,629.28"/>
		<path class="st2" d="M367.85,721.19c-4.29-4.93-11.11-0.77-15.57-5.2c-0.6-0.59-1.48-0.9-2.94-1.76
			c5.74-4.09,10.5-7.49,15.97-11.39c1.19,6.15,2.26,11.68,3.34,17.21C368.38,720.43,368.11,720.81,367.85,721.19"/>
		<path class="st0" d="M781.09,607.08c-1.49,7.78-2.38,14.45-4.11,20.89c-2.44,9.11-14.22,12.41-22.98,5.53
			c-14-10.99-23.62-24.92-23.65-43.75c-0.01-7.59,3.88-13.4,8.87-18.51c3.57-3.66,7.99-2.71,11.18,0.21
			c9.1,8.33,18.02,16.88,26.47,25.85C779.3,599.89,779.91,604.2,781.09,607.08"/>
		<path class="st0" d="M740.49,408.57c-11.64-0.85-22.14-3.56-30.52-12.17c-8.02-8.24-6.53-18.74,3.5-24.44
			c6.24-3.54,12.92-4.49,19.86-3.75c9.57,1.03,19.24,1.97,27.16,8.33c4.91,3.94,9.47,8.34,8.64,15.38
			c-0.9,7.66-6.42,11.6-13.06,13.68C751.05,407.18,745.69,407.63,740.49,408.57"/>
		<path class="st0" d="M861.67,642.71c-0.2,5.23-5.42,8.53-9.96,5.9c-16.16-9.34-28.24-22.01-30.24-41.53
			c-0.61-5.97-0.05-12.31,1.34-18.15c1.15-4.84,3.41-5.1,6.82-1.61c14.79,15.12,25.81,32.54,31.5,53.08
			C861.36,641.22,861.52,642.06,861.67,642.71"/>
		<path class="st0" d="M554.3,350.65c-0.63,0.83-1.99,2.64-3.35,4.44c-1.31-1.09-3-1.94-3.86-3.31
			c-13.97-22.35-39.54-31.04-64.48-21.68c-2.99,1.12-4.56,0.68-5.19-2.51c-0.23-1.18-0.69-2.31-0.95-3.48
			c-1.56-6.96-1.1-7.41,5.81-9.99c19.95-7.47,38.15-3.23,55.26,8.11C545.89,327.77,554.12,341.38,554.3,350.65"/>
		<path class="st0" d="M525.43,353.96c-0.9,12.23-6.06,18.84-14.52,23.01c-8.6,4.24-17.08,3.71-24.89-1.91
			c-6.9-4.96-9.11-14.35-5.79-22.76c6.39-16.22,27.8-21.14,39.88-8.73C523.19,346.73,524.35,351.75,525.43,353.96 M492.83,372.31
			c8.24,2.94,14.93,1.24,20.62-3.86c4.81-4.31,7.22-9.79,5.23-17.27C509.93,358.33,501.68,365.08,492.83,372.31 M484.96,360.05
			c8.98-5.79,17.37-11.2,26.22-16.9C498.11,339.08,486.21,346.75,484.96,360.05 M515.9,347.06c-0.33-0.45-0.65-0.89-0.98-1.33
			c-9.78,6.39-19.56,12.77-29.71,19.4c1.53,1.75,2.51,2.85,3.81,4.34C498.17,361.84,507.03,354.45,515.9,347.06"/>
		<path class="st0" d="M890.57,748.36c-1.45,5.77-2.33,11.77-4.5,17.27c-2.74,6.94-12.45,8.25-17.61,2.75
			c-10.39-11.06-5.09-27.45,5.2-33.98c6.76-4.29,14.17,0.02,15.78,8.62c0.31,1.67,0.21,3.42,0.3,5.13
			C890.02,748.22,890.29,748.29,890.57,748.36"/>
		<path class="st0" d="M762.55,540.3c0.01,7.37-6.89,11.63-13.68,8.46c-9.3-4.35-18.31-21.48-16.7-31.63
			c0.65-4.13,3.27-6.16,7.12-5.92c2.82,0.17,5.85,0.93,8.29,2.31C753.79,517.03,762.55,533.21,762.55,540.3"/>
		<path class="st0" d="M724.46,435.44c-4.22-1.2-8.64-1.97-12.63-3.71c-5.84-2.55-7.39-5.93-6.03-10.9
			c1.87-6.85,6.64-11.67,12.09-10.41c5.87,1.35,11.69,3.84,16.88,6.93c4.25,2.53,2.79,7.74,1.44,11.3
			c-0.94,2.48-4.35,4.22-6.95,5.79c-1.13,0.68-3.01,0.11-4.55,0.11C724.62,434.85,724.54,435.14,724.46,435.44"/>
		<path class="st0" d="M784.3,372.85c-0.02-7.45,3.21-11.91,8.57-11.81c7.6,0.14,14.09,7.19,14.2,15.42
			c0.08,6.24-5.09,11.48-11.34,11.47C789.1,387.93,784.32,381.62,784.3,372.85"/>
		<path class="st0" d="M867.97,795.67c0.33-2.9-0.03-6.14,1.18-8.6c1.09-2.2,3.7-4.49,6.04-5.04c4.17-0.99,8.36,0.27,10.54,4.51
			c3.47,6.74-1.31,16.96-8.6,18.82C871.51,806.79,867.67,802.73,867.97,795.67"/>
		<path class="st0" d="M819.67,574.04c-1.66,2.35-2.86,5.81-5.11,6.73c-2.3,0.94-6.14,0.18-8.37-1.27c-4.62-3-7.13-7.84-7.38-13.45
			c-0.26-5.81,3.24-8.41,8.86-6.87C814.7,561.09,818.72,566.26,819.67,574.04"/>
		<path class="st3" d="M769.69,726.22c0.46-6.91,1.28-15.13,1.49-23.37c0.26-10.48,0.74-21.03-0.19-31.43
			c-1.07-11.89,5.57-18.2,17.21-18.85c8.22-0.46,16.47-0.27,24.71-0.33c5.23-0.03,7.11,3.78,8.21,7.87c1.2,4.46,0.73,8.9-4.12,10.98
			c-3.19,1.75-8.04,1.42-12.36,2.49c-5.09,0.61-6.08,1.03-7.54,4.44c-2.51,5.91,0.03,7.31,7.54,7.05c2.19-0.08,8.25-0.07,10.41,0.5
			c3.75,0.99,3.71,3.99,3.71,8.06c0,4.06-2.1,7.13-5.85,8.28c-6.37,0.56-8.3-0.48-13.23,0.03c-4.8,0.5-8.13,6.26-8.38,10.42
			c-0.3,4.96,2.09,10.61,2.19,15.59c0.18,8.66-4.43,10.29-14.64,10.99c-6.02,0.41-8.27-2.18-9.01-10.35
			C769.82,728.24,769.8,727.89,769.69,726.22"/>
		<path class="st3" d="M854.76,731.53c-0.03,6.22-4.02,9.32-9.73,10.19c-7.66,1.16-10.3-3.43-10.58-9.26
			c0-8.74,5.85-10.97,11.08-11.07C850.92,721.29,854.78,725.53,854.76,731.53"/>
		<path class="st3" d="M842.42,669.94l-1.56,13.93c-0.37,0.89-0.91,13.68-0.4,15.23c0,1.01,0.08,12.78,5.67,14.74
			c0.44,0.16,0.94,0.25,1.49,0.27c0.5,0.05,1.25,0.06,2.09-0.16c2.15-0.58,3.4-2.3,5.05-4.66c0.7-1,1.59-2.4,2.46-4.2
			c2.54-7.74,5.08-15.49,7.62-23.23c0.35-0.99,0.69-2.04,0.99-3.17c0.5-1.84,0.85-3.57,1.08-5.14c0.09-1.34,0.05-3.36-0.67-5.65
			c-0.42-1.34-0.55-3.18-2.74-4.26c-1.25-0.98-2.69-1.82-6.59-2.46c-3.41-0.56-6.18,0.02-7.67,0.45c-0.72,0.09-1.98,0.36-3.26,1.23
			c-2.14,1.47-2.82,3.64-3,4.3"/>
		<path class="st0" d="M853.36,773.09c0.16,5.58-4.65,9.42-9.53,6.81c-4.18-2.24-8.48-5.35-11.06-9.2
			c-3.45-5.13,1.02-10.95,7.21-10.4C846.84,760.91,853.18,766.97,853.36,773.09"/>
		<path class="st0" d="M777.42,566.22c-6.21,0.15-11.42-3.13-11.48-7.2c-0.07-4.65,5.91-13.41,9.18-13.46
			c6.07-0.1,9.79,4.23,10.09,11.77C785.42,562.48,782.25,566.11,777.42,566.22"/>
		<path class="st0" d="M672.77,1138.11c-11.5-1.99-22.97-4.21-34.51-5.92c-32.36-4.79-64.28-11.64-95.7-20.65
			c-16.17-4.64-32.37-9.41-48.01-15.5c-9.64-3.75-18.68-9.51-27.26-15.42c-40.03-27.55-75.84-60.28-111.77-92.77
			c-10.87-9.82-19.12-22.48-29.19-33.26c-19.25-20.6-24.76-47.11-31.97-72.83c-3.05-10.88-4.5-22.21-6.57-33.36
			c-0.33-1.76-0.05-3.64-0.05-5.46c0.61-0.05,1.21-0.1,1.82-0.15c0.53,1.86,1.19,3.69,1.57,5.58c4.87,24.09,10.4,47.99,18.84,71.15
			c4.07,11.16,9.98,21.01,17.8,29.94c10.17,11.61,18.82,24.78,30.08,35.15c20.58,18.97,42.69,36.28,63.99,54.5
			c10.97,9.38,21.32,19.49,32.34,28.8c18.15,15.33,39.05,25.66,61.93,31.7c33.06,8.72,66.18,17.23,99.4,25.31
			c14.34,3.49,29.01,5.6,43.49,8.53c4.69,0.95,9.27,2.48,13.9,3.74C672.87,1137.5,672.82,1137.8,672.77,1138.11"/>
		<path class="st0" d="M1017.75,962.95c-6.74,15.56-15.32,27.84-25.15,39.44c-12.98,15.33-26.14,30.58-37.99,46.77
			c-8.87,12.13-21.22,15.35-34.5,17.64c-1.41,0.24-3.75-0.57-4.44-1.67c-0.63-1.01-0.12-3.46,0.76-4.57
			c7.07-8.86,14.35-17.54,21.57-26.29c13-15.75,25.98-31.52,39.03-47.22c1.95-2.35,3.96-4.91,6.5-6.46
			c9.22-5.65,18.65-10.98,28.09-16.27C1013.04,963.52,1014.92,963.55,1017.75,962.95 M1008.09,973.36
			c-0.45-0.34-0.89-0.69-1.34-1.03c-6.49,3.82-13.06,7.52-19.45,11.52c-2.55,1.6-5.08,3.54-6.97,5.84
			c-13.63,16.61-27.06,33.38-40.64,50.04c-5.82,7.14-11.85,14.13-18.02,21.46c10.23,0.69,22.21-4.95,28.96-13.44
			c13.15-16.55,26.34-33.08,39.33-49.76C996.22,989.94,1002.06,981.58,1008.09,973.36"/>
		<path class="st0" d="M687.54,929.85c2.01,0,4.17-0.49,6.01,0.08c14.89,4.61,30.13,6.53,45.65,6.34c1.49-0.02,3.61-1.3,4.33-2.61
			c2.38-4.35,4.25-8.99,6.34-13.5c0.93-2.01,1.75-4.13,3-5.93c0.5-0.72,2.26-1.27,3.02-0.94c0.79,0.35,1.65,1.97,1.49,2.84
			c-1.79,9.2-4.58,18.02-11.57,24.74c-1.36,1.3-3.6,2.13-5.53,2.33c-15.05,1.61-29.83,1.25-43.47-6.66
			c-3.13-1.82-6.47-3.26-9.71-4.88C687.24,931.05,687.39,930.45,687.54,929.85"/>
		<path class="st0" d="M705.75,899.33c-9.4-3.06-18.8-6.13-28.89-9.41c-2.97,12.6-8.37,24.68,0.48,36.82
			c-5.29,0.5-8.53-1.62-9.89-6.5c-2.66-9.52-1.56-18.79,2.35-27.68c1.49-3.38,4.26-6.3,8.44-5.31c8.62,2.04,17.17,4.43,25.66,6.97
			c1.3,0.39,2.16,2.29,3.22,3.49C706.66,898.24,706.21,898.79,705.75,899.33"/>
		<path class="st0" d="M1031.19,915.38h-32.91c0-0.68,0-1.36,0-2.04c10.97-3.31,21.95-0.9,32.92,0.72
			C1031.2,914.5,1031.2,914.94,1031.19,915.38"/>
		<path class="st2" d="M492.83,372.31c8.85-7.23,17.1-13.98,25.86-21.13c1.99,7.48-0.42,12.96-5.23,17.27
			C507.76,373.55,501.07,375.24,492.83,372.31"/>
		<path class="st2" d="M484.96,360.05c1.25-13.3,13.16-20.97,26.22-16.9C502.32,348.85,493.94,354.26,484.96,360.05"/>
		<path class="st2" d="M515.9,347.06c-8.87,7.39-17.74,14.78-26.88,22.4c-1.3-1.48-2.27-2.59-3.81-4.34
			c10.15-6.63,19.93-13.01,29.71-19.4C515.25,346.17,515.58,346.62,515.9,347.06"/>
		<path class="st2" d="M1008.09,973.36c-6.03,8.22-11.87,16.58-18.13,24.62c-12.99,16.68-26.18,33.21-39.33,49.76
			c-6.75,8.5-18.73,14.14-28.96,13.44c6.17-7.34,12.19-14.32,18.02-21.46c13.58-16.65,27.01-33.43,40.64-50.04
			c1.9-2.31,4.42-4.25,6.97-5.84c6.38-4,12.95-7.7,19.45-11.52C1007.19,972.67,1007.64,973.01,1008.09,973.36"/>
	</g>
	<g>
		<path class="st0" d="M490.4,920.2c9.6,2.64,19.19,5.28,28.79,7.92c0.31-2.24,1.39-7.8,5.97-12.52c7.91-8.16,19.21-6.57,20.41-6.38
			c7.04,5.78,8.6,10.42,8.42,13.82c-1.02,19.9-63.05,30.66-74.03,32.49c-2.31,9.46-4.61,18.93-6.92,28.39
			c11.27,4.96,25.29,10.08,41.78,13.93c17.74,4.13,33.62,5.68,46.57,6.09c1.1-9.39,2.21-18.79,3.31-28.18
			c-4.63-1.17-9.53-2.27-14.7-3.26c-4.45-0.85-16.08-2.35-20.21-2.93c5.64-1.1,25.14-3.45,36.68-13.48
			c12.89-11.21,17.56-24.54,19.15-30.02c0.14-3.56,0.38-19.41-11.52-33.13c-10.24-11.8-23.14-14.76-27.13-15.51
			c-3.01-0.62-20.28-3.86-36.45,7.35C492.48,897.28,490.6,917.52,490.4,920.2"/>
		<path class="st0" d="M609.15,947.43c-2.46,14.09-4.91,28.18-7.37,42.26c11.81,2.99,23.62,5.99,35.43,8.98
			c-4.68,25.3-9.36,50.61-14.05,75.91c2.19,1.89,7.71,6.15,16.07,7.42c9.16,1.39,16.23-1.63,18.78-2.88
			c4.38-24.64,8.77-49.28,13.15-73.93c0.07,0.01,10.6,1.09,10.66,1.1c0.24,0.03,18.78,1.09,24.17,1.43
			c2.52-13.96,4.42-27.53,6.68-41.85c-19.81-3.89-23.31-2.28-49.01-6.95C645.41,955.61,633.2,953.54,609.15,947.43"/>
		<path class="st0" d="M746.48,984.63l27.56,5.21c0.57-1.74,2.6-7.21,8.31-11.03c4.63-3.1,12.85-2.73,14.8-2.78
			c3.61,0.74,8.74,5.24,9.57,10.65c1.92,12.6-8.55,21.71-11.55,23.49c-25.44,15.11-29,12.5-55.56,13.34
			c-2.03,8.73-4.61,21.85-6.64,30.58c11.56,4.86,26.91,10.07,45.48,13.17c19.42,3.24,36.32,3.17,49.19,2.18l4.27-27.25
			c-9.8-0.29-18.78,2.3-36.76-1.29c5.4-3.14,21.42-8.66,29.07-18.88c8.6-11.49,11.77-22.84,13.05-29.18
			c0.62-2.93,3.24-16.91-5.37-30.84c-8.87-14.35-19.8-17.12-22.58-17.79c-6.7-3.35-27.23-4.91-43.13,6.37
			C750.74,961.5,747.97,979.86,746.48,984.63"/>
	</g>
</g>
</svg>
