<svg width="1006" height="650" viewBox="0 0 1006 650" fill="none" xmlns="http://www.w3.org/2000/svg">
<mask id="mask0_126_2641" style="mask-type:luminance" maskUnits="userSpaceOnUse" x="0" y="0" width="1006" height="650">
<path d="M1006 0H0V650H1006V0Z" fill="white"/>
</mask>
<g mask="url(#mask0_126_2641)">
<path d="M65.5838 42.925C68.5008 45.6751 74.5016 48.4277 79.5034 48.4277C84.0872 48.4277 86.2549 46.8424 86.2549 44.3421C86.2549 41.508 82.7543 40.5089 78.1692 39.5914C71.2507 38.2584 62.3329 36.5916 62.3329 27.0059C62.3329 20.2544 68.251 14.3364 78.8356 14.3364C85.6712 14.3364 91.0884 16.671 95.0058 19.8364L90.8387 27.0901C88.4212 24.5057 83.8375 22.4208 78.9198 22.4208C75.0853 22.4208 72.585 23.8379 72.585 26.1725C72.585 28.6728 75.7517 29.5903 80.2527 30.5052C87.1711 31.8408 96.4228 33.6733 96.4228 43.6743C96.4228 51.0936 90.1722 56.5936 79.0026 56.5936C72.0014 56.5936 65.2499 54.2616 61 50.3443L65.5838 42.925Z" fill="#711F8B"/>
<path d="M130.346 55.5946L119.677 40.0909L114.842 45.2597V55.5946H104.258V0H114.842V33.2579L130.096 15.3354H143.098L127.178 33.5892L143.598 55.5946L130.346 55.5946Z" fill="#711F8B"/>
<path d="M176.021 55.5946V50.5099C173.271 53.5938 168.436 56.5936 161.851 56.5936C153.016 56.5936 148.849 51.7614 148.849 43.9267V15.3354H159.434V39.757C159.434 45.3438 162.351 47.1763 166.852 47.1763C170.936 47.1763 174.187 44.9258 176.021 42.5911V15.3354H186.607V55.5946H176.021Z" fill="#711F8B"/>
<path d="M197.108 55.5946V0H207.693V55.5946H197.108Z" fill="#711F8B"/>
<path d="M236.45 14.3364C248.452 14.3364 256.62 23.3384 256.62 36.5074V38.8421H226.697C227.364 43.9267 231.448 48.1753 238.284 48.1753C242.034 48.1753 246.451 46.6767 249.035 44.1765L253.703 51.0095C249.619 54.7612 243.367 56.5936 237.116 56.5936C224.864 56.5936 215.612 48.3436 215.612 35.4243C215.612 23.7538 224.197 14.3364 236.45 14.3364ZM226.53 31.6726H246.368C246.118 27.8394 243.451 22.7547 236.45 22.7547C229.864 22.7547 227.031 27.6711 226.53 31.6726Z" fill="#711F8B"/>
<path d="M258.056 14.3364V3.53797H254.172V1.04924H264.77V3.53797H260.904V14.3364H258.056Z" fill="#711F8B"/>
<path d="M278.15 14.3364V4.77399L274.404 14.3364H273.17L269.424 4.77399V14.3364H266.596V1.04924H270.56L273.786 9.33666L277.014 1.04924H280.999V14.3364H278.15Z" fill="#711F8B"/>
<path d="M136.705 587.776V648.055H115.963V587.776H103V569.79H115.963V565.577C115.963 548.562 126.982 538.353 142.376 538.353C148.209 538.353 153.557 539.65 157.284 541.594L153.071 556.178C151.288 555.044 148.858 554.557 146.427 554.557C140.594 554.557 136.705 558.446 136.705 565.9V569.79H152.585V587.776H136.705Z" fill="#711F8B"/>
<path d="M179.602 623.587C186.732 623.587 192.565 629.582 192.565 636.713C192.565 643.68 186.732 649.676 179.602 649.676C172.472 649.676 166.638 643.68 166.638 636.713C166.638 629.582 172.472 623.587 179.602 623.587ZM170.528 612.893L166.962 539.974H191.917L188.676 612.893H170.528Z" fill="#711F8B"/>
<path d="M205.897 648.055V569.79H226.476V580.484C231.985 573.516 241.708 568.007 251.43 568.007V588.1C249.972 587.776 248.028 587.614 245.759 587.614C238.953 587.614 229.879 591.341 226.476 596.364V648.055H205.897Z" fill="#711F8B"/>
<path d="M259.207 608.841C259.207 586.641 274.763 567.845 300.528 567.845C326.454 567.845 342.01 586.641 342.01 608.841C342.01 631.203 326.454 650 300.528 650C274.763 650 259.207 631.203 259.207 608.841ZM320.621 608.841C320.621 596.689 313.329 586.156 300.528 586.156C287.726 586.156 280.597 596.689 280.597 608.841C280.597 621.156 287.726 631.689 300.528 631.689C313.329 631.689 320.621 621.156 320.621 608.841Z" fill="#711F8B"/>
<path d="M359.349 623.425C365.02 628.772 376.687 634.119 386.41 634.119C395.322 634.119 399.535 631.04 399.535 626.18C399.535 620.67 392.73 618.726 383.817 616.943C370.368 614.351 353.029 611.11 353.029 592.476C353.029 579.349 364.534 567.845 385.113 567.845C398.401 567.845 408.934 572.382 416.549 578.54L408.447 592.637C403.748 587.614 394.836 583.563 385.276 583.563C377.822 583.563 372.96 586.318 372.96 590.855C372.96 595.716 379.118 597.498 387.868 599.281C401.317 601.873 419.304 605.439 419.304 624.884C419.304 639.305 407.151 650 385.438 650C371.826 650 358.701 645.463 350.437 637.847L359.349 623.425Z" fill="#711F8B"/>
<path d="M487.523 648.055V600.415C487.523 589.558 481.852 586.156 472.94 586.156C465 586.156 458.68 590.693 455.115 595.392V648.055H434.536V539.974H455.115V579.998C460.138 574.002 469.861 567.845 482.662 567.845C499.838 567.845 508.103 577.243 508.103 592.476V648.055H487.523Z" fill="#711F8B"/>
<path d="M597.874 648.055L578.59 587.938L559.307 648.055H544.238L519.607 569.79H534.839L552.664 629.421L572.271 569.79H584.91L604.517 629.421L622.342 569.79H637.573L612.943 648.055H597.874Z" fill="#711F8B"/>
<path d="M684.89 567.845C708.386 567.845 722.969 586.156 722.969 610.138V613.702H661.07C662.204 626.99 671.926 638.009 687.644 638.009C695.908 638.009 704.983 634.768 710.816 628.772L717.622 638.333C709.844 645.948 698.825 650 686.186 650C662.852 650 645.676 633.472 645.676 608.841C645.676 586.156 662.042 567.845 684.89 567.845ZM660.907 603.17H708.71C708.385 592.799 701.418 579.836 684.89 579.836C669.172 579.836 661.718 592.476 660.907 603.17Z" fill="#711F8B"/>
<path d="M775.634 567.845C799.13 567.845 813.714 586.156 813.714 610.138V613.702H751.814C752.948 626.99 762.671 638.009 778.389 638.009C786.653 638.009 795.727 634.768 801.561 628.772L808.367 638.333C800.588 645.948 789.57 650 776.93 650C753.597 650 736.42 633.472 736.42 608.841C736.42 586.156 752.787 567.845 775.634 567.845ZM751.652 603.17H799.454C799.13 592.799 792.163 579.836 775.634 579.836C759.916 579.836 752.462 592.476 751.652 603.17Z" fill="#711F8B"/>
<path d="M884.527 648.055L858.439 614.351L846.61 626.342V648.055H832.026V539.974H846.61V609.489L884.366 569.79H902.676L868.971 605.276L903 648.055H884.527Z" fill="#711F8B"/>
<path d="M868.561 397.858L850.711 406.928L802.721 431.319C776.331 444.719 747.151 451.729 717.521 451.729H533.502C588.061 447.899 668.361 442.579 722.141 438.649C747.541 436.089 771.871 427.989 793.601 414.959C795.291 413.939 807.731 406.488 822.961 397.398C829.671 393.378 836.93 389.028 844.031 384.778L861.98 374.048L791.951 120.194V120.174H791.931C699.261 15.6025 542.362 -28.8281 391.252 19.5126C208.803 77.8835 98.1431 251.216 126.073 421.359C126.123 421.619 126.153 421.889 126.203 422.149C126.933 426.579 127.763 431.009 128.703 435.439L118.743 439.169C116.293 440.079 112.723 441.409 109.273 442.689C115.093 443.149 122.473 443.729 130.713 444.379C161.623 446.829 204.753 450.219 223.873 451.729H100.253C100.163 451.729 100.073 451.719 99.9931 451.719H88.6231C73.9132 451.719 61.233 463.229 61.0035 477.93C60.7633 492.84 72.793 505 87.6533 505H979.34C994.05 505 1006 493.07 1006 478.37V470.709C1006 459.249 998.95 448.979 988.29 444.779L868.541 397.858" fill="#711F8B"/>
<path d="M791.953 120.179C685.825 76.5919 568.738 52.0425 454.416 65.0665C447.438 66.115 437.091 67.6252 430.065 68.5334C381.382 76.9902 333.605 91.9302 288.86 113.255C288.86 113.255 270.699 121.88 270.699 121.88L252.966 131.489C241.019 137.51 229.318 145.142 217.717 151.818C217.717 151.818 213.286 154.408 213.286 154.408L209.014 157.22C200.78 162.658 191.338 168.683 182.879 173.869C244.827 98.6952 336.757 45.031 433.728 29.0939C556.502 7.91733 695.012 42.2321 791.953 120.179Z" fill="white"/>
<path d="M223.872 451.727H100.252C91.9061 451.727 88.7763 441.564 94.3056 436.613C94.9315 436.039 95.6879 435.544 96.5743 435.127L126.073 421.357C126.125 421.617 126.15 421.889 126.202 422.15C126.932 426.58 127.766 431.01 128.705 435.44L118.743 439.166C116.291 440.078 112.718 441.407 109.276 442.684C115.092 443.153 122.472 443.727 130.714 444.378C161.619 446.828 204.756 450.215 223.872 451.727Z" fill="white"/>
<path d="M822.961 397.398C807.731 406.488 795.291 413.939 793.601 414.959C771.871 427.989 747.541 436.089 722.141 438.649C668.361 442.579 588.061 447.899 533.502 451.729H717.521C747.151 451.729 776.331 444.719 802.721 431.319L850.711 406.928L868.541 397.869V397.858L861.981 374.048L844.031 384.778C836.931 389.028 829.671 393.378 822.961 397.398Z" fill="white"/>
<path d="M306.771 377.672V349.513C375.409 298.977 395.523 281.63 395.523 261.013C395.523 246.431 382.197 239.139 368.118 239.139C349.261 239.139 334.679 246.682 323.365 258.499L303 234.866C319.342 216.009 344.233 207.461 367.615 207.461C403.317 207.461 431.727 227.574 431.727 261.013C431.727 289.675 408.094 314.566 363.09 346.245H432.984V377.672H306.771Z" fill="white"/>
<path d="M477.9 377.672V195.984H412.533V154.082H590.869V195.984H525.837V377.672H477.9Z" fill="white"/>
<path d="M589.358 327.388C600.924 339.456 619.277 346.496 635.619 346.496C655.985 346.496 667.299 337.697 667.299 324.874C667.299 311.297 656.99 305.012 633.608 305.012C626.569 305.012 615.254 305.012 612.741 305.263V274.087C615.758 274.338 627.071 274.338 633.608 274.338C652.214 274.338 664.533 268.304 664.533 255.734C664.533 242.408 650.956 235.62 633.357 235.62C617.015 235.62 602.432 241.905 590.615 253.22L573.016 231.095C586.592 215.758 607.712 204.444 637.128 204.444C676.35 204.444 700.486 222.043 700.486 249.95C700.486 271.07 682.384 284.898 663.779 288.166C680.875 289.926 703 303.252 703 328.394C703 357.307 677.104 377.672 636.877 377.672C605.952 377.672 583.073 365.856 570.753 350.77L589.358 327.388Z" fill="white"/>
</g>
</svg>
