<?xml version="1.0" encoding="UTF-8"?>
<svg id="Layer_1" data-name="Layer 1" xmlns="http://www.w3.org/2000/svg" viewBox="0 0 1000 1000">
  <defs>
    <style>
      .cls-1 {
        fill: #fff;
      }
    </style>
  </defs>
  <path class="cls-1" d="m775.48936,788.19385c-.28571-.16802-.57788-.32947-.86747-.48961l-.38784-.21527c-.28442-.14308-.60762-.03544-.75629.2494-.06852.13389-.08145.27696-.04654.40823-4.35545.09845-8.97721.21921-13.55632.40692-1.57334-.52111-3.27467-.48961-4.81439.09845l-.16031.06957c-.07757.03282-.1616.06826-.24693.10764-8.82854.52505-16.15485,1.3822-22.9886,2.68958.62442-1.86919,1.21265-3.72656,1.75304-5.52749.07886-.26646-.02973-.52768-.2702-.64975-.25856-.12733-.56883-.05251-.73431.17589l-1.7414,2.32729c-1.14672,1.53053-2.29602,3.06368-3.43885,4.60208-.4318.09057-.85971.19427-1.28763.30059.39689-1.65916.6645-3.35508.81188-5.15339.03103-.22709-.09437-.44892-.31027-.5513-.22753-.11289-.48868-.06169-.65157.12339-1.86293,2.16847-3.5565,4.51151-5.03546,6.9635-1.39623.40298-2.64507.79414-3.82669,1.19843-.16548.06826-.28959.19952-.34389.3636-.05042.15358-.03232.31634.04654.45023.45765.82171,1.11827,1.48196,1.96506,1.96763-.15126.30716-.29864.61431-.43826.91622-.09308.18902-.07886.40429.0362.57624.11635.17327.33096.2809.51971.25596.18616-.01706.34518-.1352.42145-.30716.15384-.32291.30769-.64319.4667-.95822,1.83449.70751,4.06715.73245,5.87966.75214l2.13959.03675c-.02973.07482-.06076.14964-.09308.22446-5.88225,7.5345-10.51048,15.82901-13.74636,24.64069-.07628.18114-.053.37804.06205.52768.10989.14308.28829.22577.47317.22577.03361,0,.06723-.00263.10084-.00919,2.64637-.44892,3.97407-3.09256,5.04193-5.21639.15772-.31372.31157-.61956.46412-.91097,1.91852-3.62023,3.70388-7.27197,5.30566-10.85283,1.20877-2.70664,2.27921-5.26233,3.27208-7.81015.19651-.26515.40335-.5303.61796-.79545,5.35996.042,9.50985-.01575,13.44384-.20346,5.85898-.2809,11.05087-.82827,15.87431-1.67229.45248-.08138.95279-.1562,1.48284-.23627,3.27855-.49617,7.76974-1.1748,9.22414-4.40125.07498-.18246.06205-.38723-.03491-.54737-.09567-.15489-.25856-.25202-.45119-.26646l-4.6515-.26121c-1.52292-.08401-3.04455-.16933-4.58169-.25728.55978-.5198,1.1144-1.07242,1.6522-1.64998.0711-.07219.12023-.16539.1435-.26646,4.5972-.17721,9.26292-.2809,13.77997-.38198l.24046-.00656c.25468-.01706.46799-.21002.51971-.46992.04783-.24415-.06076-.47517-.27666-.59068Zm-60.23422,35.32419c2.65154-6.94906,6.2132-13.58703,10.61132-19.77871-.36069.85321-.7356,1.72348-1.1312,2.62526-1.35744,3.10962-2.86873,6.30062-4.49119,9.48375-.78344,1.52921-1.67159,3.2632-2.60112,4.90661-.5921,1.04223-1.30573,2.16847-2.3878,2.76309Zm3.76722-26.46131c-.33871-.20083-.61279-.41217-.81705-.63006-.10084-.10501-.16419-.17852-.20556-.22971.0711-.0315.16289-.06563.24305-.09713l.20943-.08138c.49385-.20477,1.00321-.39641,1.54102-.58018-.32061.56049-.61796,1.1118-.8985,1.66442-.02456-.01444-.04783-.03019-.0724-.04594Zm41.67993-1.08292c-.44343.07613-.86488.14701-1.25143.22183-3.58752.68126-7.35733,1.18137-11.52274,1.52921-.80283.06301-1.60566.12076-2.40849.17327.91401-.50799,1.75821-1.10917,2.52355-1.7983.03361.03019.0724.05644.11635.07482.66191.30716,1.33029.39116,1.95084.25071.19909.18508.54686.33078,1.15189.28878,1.49836-.11026,3.2333-1.3507,4.50024-2.2551.1978-.14045.38396-.27434.55978-.39641.67872-.47386,1.2928-.94509,1.87327-1.43996l3.97795.22183c1.83578.10501,3.66897.21002,5.50863.30584-1.41433,1.87837-4.48085,2.39949-6.97984,2.82347Zm-22.95887,1.66442c-.06593.18771-.13187.37147-.1978.5513-.00646.01313-.01293.02757-.0181.042-.24563.00525-.49385.01181-.74724.01706.31803-.20608.63994-.40823.96314-.61037Zm-1.75175.62087c.00129.00131.00129.00263.00259.00394-.85583.01313-1.7776.021-2.81572.02363.1616-.13389.32191-.26778.48222-.40035l.21719-.17983c.03361.16277.14092.29928.29605.3741.16548.08138.35681.07876.53781-.02231.49773-.32947.98382-.68388,1.45569-1.05929-.10472.20083-.20038.39116-.28829.56574-.12023.2284-.07369.51455.11247.69438Zm5.89647-.16277l-.56495.02625c.02844-.03807.05688-.07613.08403-.1142.17065.00788.35811-.01444.54556-.07088-.02198.05251-.04396.10501-.06464.15883Zm2.16932-1.85606l.09955-.10107c1.2217-1.17612,2.43822-2.51631,3.61984-3.98777.1797-.23234.15643-.5815-.053-.79677-.18746-.19296-.46799-.2074-.72655,0-1.51775,1.18531-2.79116,2.57932-3.73878,4.08753-.10084.10239-.20168.20477-.30639.29797-.37621.34653-.72138.63925-1.04975.89128.00129-.00394.00129-.00656.00129-.0105,0-.28222-.234-.52899-.54168-.56312-.46799-.03282-.85066.20477-.96314.62087-.07886.28878-.01551.59987.15126.84665-.33871.17852-.67355.31503-1.01614.41217-.53522.16014-.68518.09845-.69423.09845-.06464-.14308.17065-.7272.29605-1.04092.06852-.16933.13704-.33997.19392-.50405.07757-.22183.00517-.46205-.18487-.613-.19263-.15095-.4486-.16408-.62701-.04332-.21719.13126-.43438.26384-.65157.39773.51324-.88996,1.04717-1.72217,1.62634-2.53075.04783-.05907.1086-.13126.11118-.16145.28829-.40035.57659-.78627.85325-1.14461.01422-.01444.06593-.0827.07757-.09976.16677-.24546.10472-.57362-.1435-.76133-.24305-.18508-.56366-.15358-.73043.06169-.01034.0105-.05947.07613-.06852.08926-.38913.57231-.75112,1.06192-1.08078,1.46752-.02068.01969-.04266.04857-.06335.08138l-.00129-.00131c-.37233.45154-.78215.90046-1.28763,1.41239-.28442.27959-.56883.54212-.85325.7902,0-.09451-.02456-.18902-.0724-.27828-.13316-.24546-.39948-.35835-.65545-.27959-.69423.23496-1.21006.64713-1.49706,1.19187-.57788.48436-1.15706.96085-1.73623,1.43602-.05042-1.16299.34001-2.23541,1.17128-3.19757.20168-.2494.16936-.60906-.0724-.81777-.22753-.19689-.54944-.17327-.74336.05119-1.02131,1.10392-1.9935,2.20391-2.90622,3.28683.51066-1.37695.99675-2.7434,1.45182-4.08097,5.75555-1.14068,12.09416-1.96238,19.36746-2.51237.50936-.03807,1.02002-.07219,1.52938-.10764.23012-.01575.46024-.0315.69036-.04857-.53522.65369-.40982,1.20762-.24693,1.52396.32449.62744,1.02519.71538,1.53714.7797l.11764.01575c.74207.09582,1.4906.13783,2.23008.16408-.37233.27696-.77697.56181-1.21782.86109l-.40465.27171c-1.02648.69044-2.18613,1.47146-3.26303,1.78518.01164-.04332.0181-.08795.02068-.13389.00517-.16014-.0543-.31897-.15514-.42135-.28312-.3019-.67872-.37147-1.03036-.18114-.27407.14833-.47704.42398-.55978.72063-.27407-.08401-.54039-.2074-.80283-.37541.88686-.99891,1.62247-2.15534,2.19388-3.44959.09825-.24677.02327-.54474-.17841-.71013-.18358-.14833-.4305-.1562-.62959-.01838-1.37942.92934-2.24043,2.20653-2.49511,3.69899-1.26177,1.33494-2.86743,2.39424-4.68123,3.09387.24046-.51849.50936-1.01335.7899-1.46358Zm-19.72815,1.94794c1.19196-1.58172,2.37358-3.16344,3.54486-4.74516l.27537-.05776c.16677-.03413.33096-.06694.49256-.1037.44343-.09582.88815-.18902,1.33288-.27828-.66321,1.90331-1.29409,3.62942-1.91852,5.25446-.91272-.01313-1.81509-.02625-2.7304-.05119h-.00129l-.55203-.0105c-.14738-.00263-.29605-.00394-.44343-.00788Zm4.5804-6.11554c.82869-1.10261,1.65349-2.20259,2.47572-3.30389-.31932,1.00285-.64769,2.00701-.98511,3.00199-.52617.09976-1.02002.19952-1.4906.3019Zm24.95883-1.23912c-.03361-.04594-.05042-.09188-.02198-.18508.06464-.2389.33613-.48042.76792-.68519,1.68711-.10239,3.36387-.17983,5.05098-.25728.03232.04069.04008.06169.04137.06169-.01939.05776-.17841.19164-.28312.2809-.09696.08138-.20038.16933-.29993.26778-.43697.41742-.8804.81908-1.31995,1.19581-3.0174-.03413-3.76205-.43842-3.93529-.67863Zm-28.52955,4.14135c.1086-.35441.20814-.70357.29734-1.04748.19392-.03938.38784-.07876.57918-.11945-.29217.38854-.58435.77839-.87652,1.16693Zm-2.97603-1.30475c.94116-1.48327,1.97411-2.92848,3.08204-4.31462-.16289,1.247-.40723,2.48481-.72655,3.69374-.85066.21396-1.62893.41873-2.35548.62087Zm2.03616.5408c-.36457,1.2785-.82998,2.56488-1.41174,3.9077-.73043-.06169-1.37166-.15752-1.95084-.2914-.29476-.07351-.60503-.1562-.91401-.26778.41628-.82433.89074-1.68017,1.44018-2.60295.8261-.24677,1.74011-.48699,2.83641-.74557Zm6.8428,2.64364c-.04008.4673-.01939.94509.06335,1.43208-.26244-.00131-.52488-.00263-.78602-.00525-.15901-.00131-.31803-.00263-.47575-.00394.38525-.46598.78215-.93853,1.19843-1.42289Z"/>
  <g>
    <path class="cls-1" d="m417.08965,207.6524c57.83192-12.99945,105.18272-20.87045,137.17536-22.81431,1.46692-3.27828,3.54092-6.72501,5.63538-9.83809-79.652,4.53956-207.81557,35.65549-267.74235,52.39356.10793,3.87877.22911,7.904.36352,12.06896,28.71374-8.31322,76.03926-20.90182,124.56809-31.81012Z"/>
    <path class="cls-1" d="m285.11111,533.05723c-.3888,0-.76837-.03692-1.14312-.08998,6.21476,29.59845,13.72512,57.91218,17.08468,69.58944,2.34323,9.30848,5.8701,17.9134,9.60401,27.02348,4.26114,10.39484,8.8858,21.6838,12.85765,36.11182-2.73844-17.85901-5.30476-36.18092-7.70696-54.7683-6.18828-9.43513-12.19801-25.93361-17.87792-49.12078-2.79863-11.426-5.01105-22.39526-6.67458-31.56126-1.50544,1.72342-3.6966,2.81558-6.14374,2.81558Z"/>
    <path class="cls-1" d="m312.78163,525.7109c-.51318.11443-.82976.1844-.94772.20914.41047,4.03333.82815,8.06767,1.25226,12.10156,45.98017-15.8302,88.64573-24.44816,119.35843-28.66175-29.01025-1.0443-78.35038,7.13907-119.66297,16.35105Z"/>
    <path class="cls-1" d="m250.97586,308.96041c2.48767,1.34928,6.15257-.48643,8.9187-2.78126,1.83847-6.66166,3.42496-21.37785-2.8873-33.2806-.08265-.15603-.14605-.32265-.18698-.49498-1.56242-6.51011-3.32866-9.414-4.09984-10.0039-.63636.56261-2.93304,3.71256-5.01386,20.61522-2.51736,20.44941,1.44766,24.95678,3.26928,25.94552Z"/>
    <path class="cls-1" d="m462.05791,481.74886c8.24462-.39863,21.67965-4.80538,33.57874-9.44496-22.29916,3.96575-54.3556,8.17186-74.75048,10.70868-38.46942,4.78583-83.47779,9.63093-112.05952,12.06443.43895,4.69763.88714,9.4033,1.34495,14.11463,24.50596-6.39019,90.01234-20.17859,132.92064-15.75473,1.12828.11651,1.95082,1.13988,1.83606,2.28592-.11395,1.14599-1.11303,1.984-2.25174,1.86463-18.07012-1.86381-43.1683-.53694-72.58782,3.83681-23.96509,3.56315-46.12703,8.43738-59.50708,11.96747.27364,2.78325.54969,5.56766.82976,8.3533.13522-.03005.2921-.06508.48831-.10888,24.46183-5.45375,106.62637-22.60817,136.85799-14.37195.0975.02653.18658.06727.27685.10653,7.34906-.74283,13.58629-1.17181,18.50185-1.3503v-2.16488c0-.6172.19259-1.21851.5505-1.71756,3.06304-4.27639,5.36534-8.48112,5.90461-10.24961-1.53353-1.13173-6.56665-3.05136-12.4199-4.37212-1.40674-.31695-2.36489-1.64219-2.24211-3.09984.12278-1.45765,1.28958-2.59793,2.72841-2.6676Z"/>
    <path class="cls-1" d="m297.09085,603.65787c-3.48073-12.09259-11.45492-42.19345-17.81694-73.07416-1.47053-1.50755-2.38014-3.58031-2.38014-5.86984,0-1.12134.22128-2.18932.6163-3.16604-3.29516-19.024-3.4691-41.23094-3.31422-63.21621-3.2111-1.13458-5.51942-4.22668-5.51942-7.87385,0-3.69565,2.3687-6.82482,5.64701-7.92111.14404-20.71034-.01284-40.18466-2.74246-56.81396-2.76613-16.84766-4.20256-39.86404.06259-53.93696.78542-2.59142,1.53915-5.40771,2.24733-8.37393-1.41877,1.18408-3.23457,1.89539-5.21448,1.89539-1.63344,0-3.15132-.48968-4.43066-1.32382-.20403.20329-.40625.40861-.61971.60172-3.57743,3.23917-7.34986,4.04254-10.20988,4.04254-1.5905,0-2.89854-.24851-3.73472-.46443-1.09939-.28395-1.76464-1.41894-1.48458-2.5356.28087-1.11625,1.39871-1.79293,2.4973-1.50735,1.70125.44039,6.10201,1.06085,10.19784-2.64845.18537-.16785.37074-.34893.55611-.53653-.63054-1.18103-.98905-2.53357-.98905-3.97145,0-4.06984,2.87125-7.45424,6.66836-8.1904,1.29439-6.34797,1.59933-15.26841-.07563-27.82319-.15247-1.14151.63556-2.19217,1.75983-2.34698,1.13871-.15359,2.16026.64612,2.31193,1.78723,1.19569,8.96383,1.80557,19.59022.09168,28.64062,2.09406.69053,3.81396,2.21173,4.79338,4.18065,3.90825-21.90787,4.62867-48.21088-3.86251-61.43459-.9716,2.34841-2.97397,4.14154-5.42974,4.81638.78041,3.5993,1.2972,7.83658,1.54717,12.7049.05858,1.15047-.8121,2.13147-1.9452,2.19136-1.12507.0607-2.09927-.82374-2.15866-1.97463-.27966-5.45517-.8771-9.65456-1.64307-12.89617-3.54393-.92641-6.16621-4.18309-6.16621-8.07083,0-.79625.11676-1.56377.32179-2.293-.13161-.06539-.2604-.12425-.38398-.17233-2.93866-1.14518-6.49924.91133-8.93956,3.29661-8.39549,16.87536-11.95446,33.01091-10.29334,46.67929,1.36501,11.23055,6.033,18.85121,9.94587,22.23826.86346.74716.96618,2.06384.23031,2.94014-.40605.48398-.98383.7329-1.56402.7329-.47185,0-.94531-.16377-1.33211-.49865-9.09524-7.87202-20.90365-33.5287-.49834-74.28534.0979-.19555.2255-.37439.37877-.52961,4.34299-4.41042,9.40741-6.08317,13.54577-4.46786.33905.1322.66706.29312.99025.46606,1.48739-1.51325,3.54393-2.44985,5.81593-2.44985.30594,0,.60707.01996.90439.05316-7.15085-13.83297-14.29728-32.14194-16.8969-43.99641l-14.88008-11.95286c1.63324,13.11698,3.27971,38.60235-.39141,57.55032-.02728.14014-.06821.27743-.12358.40861-7.93166,19.07528-17.17456,62.18215,4.61824,88.79824,4.39194,5.25494,13.19348,35.37011,14.41806,43.13784.37556,2.38324.23593,9.51503.00481,21.33059-.79846,40.86622-2.66903,136.56735,16.37208,202.4311.32019,1.10525-.30334,2.26428-1.39229,2.58897-.1934.05744-.3876.08474-.57939.08474-.88834,0-1.70767-.5895-1.97007-1.49879-19.21926-66.47972-17.34067-162.63061-16.53819-203.68872.21105-10.78324.36352-18.57419.04574-20.58874-1.36902-8.68273-10.15933-37.10845-13.50725-41.11392-22.99249-28.08147-13.5883-72.91854-5.33966-92.90311,3.79089-19.83465,1.62501-47.07405-.05698-58.74255-.06219-.43041.01063-.8488.18497-1.2126l-4.43648-3.56365-3.49718,5.50793c3.06284,9.59141,6.24285,33.19383-.53445,65.72809-.20463.98141-1.05846,1.65442-2.00859,1.65442-.14043,0-.28327-.01467-.42692-.04563-1.10982-.23832-1.81921-1.34521-1.58489-2.47246,5.91624-28.39578,4.1187-49.55221,1.58709-60.19021l-14.86042,23.40503c.30273.36339.49232.82721.49232,1.34052v48.66695l.77278,5.7544c.2925.85674.45942,1.77297.45942,2.73054,0,.16988-.01505.33589-.02488.50313l3.70462,27.58262c.00642.04929.01123.09859.01444.14788l4.51954,71.33583c.07222,1.14966-.78642,2.14166-1.91872,2.21539-.04494.00326-.08907.00448-.13401.00448-1.07371,0-1.9781-.84778-2.04791-1.95181l-1.91631-30.24655c-1.50725,1.83041-3.77163,2.99636-6.30544,2.99636-3.47752,0-6.44347-2.19645-7.64337-5.29486,2.77937,39.01952,6.2599,82.19565,10.35533,124.26409,1.45769-1.3393,3.38464-2.16202,5.50538-2.16202,1.95443,0,3.74695.69562,5.1575,1.85241-1.39069-20.85028-2.56451-42.29617-3.51203-64.33664-.04895-1.15088.82976-2.12455,1.96285-2.17465,1.11945-.04726,2.09285.84208,2.14261,1.99296,2.16989,50.47312,5.5124,97.85526,9.99241,141.92144.44216,1.02433.69133,2.15393.69133,3.34397,0,.58761-.06139,1.16045-.17514,1.71374,5.34508,51.27115,12.25158,97.97361,20.67716,139.70493.2279,1.12847-.48871,2.23087-1.60013,2.46227-.13883.02892-.27766.04278-.41488.04278-.95494,0-1.81038-.67994-2.0102-1.66745-8.18484-40.53914-14.93625-85.75539-20.22255-135.26197-1.28737.85033-2.8211,1.34908-4.47159,1.34908-1.39931,0-2.71577-.35723-3.86913-.98354,1.88702,14.38121,3.85348,28.04848,5.89658,40.69415.18377,1.13703-.57457,2.20969-1.69483,2.39587-.11235.01874-.22389.02811-.33463.02811-.98865,0-1.85933-.72597-2.02464-1.74852-16.32754-101.057-27.82299-266.69156-32.05444-347.6685l-8.64786,13.62031c.14926,122.02466,32.14552,410.39615,49.37223,548.55228h17.79005c-18.99537-122.67139-25.62983-175.77809-26.48085-186.72734-.08907-1.14844.75513-2.15306,1.88662-2.2435,1.11544-.09492,2.11933.76671,2.20921,1.91515.8446,10.86207,7.43011,63.55914,26.28003,185.34756l7.39741-7.82318c.18216-.1927.3892-.35932.6163-.49457l6.8748-4.10599c-1.9769-5.24654-2.34483-12.77533-2.79261-21.98986-.66044-13.60075-1.48217-30.52704-8.20289-46.05557-.45581-1.05474.01605-2.28546,1.05445-2.74867,1.0376-.46524,2.25014.01548,2.70755,1.07022,7.02486,16.23332,7.86746,33.58574,8.54475,47.52829.46945,9.65965.8747,18.00221,3.28292,22.37759.06219.11315.10914.23043.14886.34893l8.9175,3.35344c.11636.044.23031.09533.34025.1544.59564.31833,1.39089.47425,2.33239.50618-.26963-19.16562-4.20236-33.5506-8.36941-48.73356-7.18536-26.17896-14.61547-53.24969-4.30447-107.68938.21506-1.13173,1.29921-1.87074,2.40502-1.65442,1.11464.21755,1.84409,1.31098,1.62983,2.44231-10.12883,53.47661-2.83033,80.06703,4.22743,105.78156,4.217,15.36455,8.19888,29.92573,8.51546,49.44619,3.97506-.74288,8.87858-2.3621,13.17141-3.78497,1.18646-.39318,2.36048-.78117,3.51885-1.15572-.58059-2.3563-1.52831-5.47778-2.61928-9.07184-2.8207-9.29096-7.08264-23.33211-9.90253-40.30728-1.39069-8.36863-.30013-16.25532.85464-24.60521,2.83354-20.48852,6.35961-45.98672-21.59218-98.6514-.53766-1.014-.16451-2.27935.83457-2.82567.99748-.54631,2.24372-.16744,2.78298.84656,28.58975,53.86893,24.96016,80.11836,22.04317,101.21023-1.15717,8.37026-2.15705,15.5986-.87229,23.33129,2.77496,16.70385,6.82264,30.03736,9.77815,39.77279,1.12667,3.71133,2.03347,6.70097,2.6277,9.08131,4.01277-1.1739,7.6857-1.97244,10.68454-1.85037-7.44937-18.81852-7.33341-37.77204-6.19189-45.3049.17173-1.13825,1.21896-1.91881,2.34242-1.74486,1.12186.17518,1.89063,1.24051,1.7181,2.37876-1.10581,7.30249-1.18445,25.96793,6.43665,44.34494.12238.29526.16651.60192.15287.90196,4.48704.71334,8.53231,1.58322,11.29162,2.25267,5.02951-93.34702-9.70713-129.31421-21.57894-158.27534-3.79249-9.25308-7.37554-17.99325-9.77253-27.52498Zm-74.08604-254.66639c-.62914-.95859-.37395-2.25328.56976-2.89248.94291-.63879,2.22045-.3801,2.84878.5785,5.25621,8.00524,13.63645,39.42976,7.73104,101.06235-.10352,1.07796-.99748,1.88378-2.0423,1.88378-.06661,0-.13401-.00326-.20142-.00978-1.12908-.11163-1.95563-1.13133-1.84569-2.27813,2.54946-26.60957,2.67946-50.72265.37556-69.73193-1.89544-15.63201-5.08367-25.03011-7.43573-28.6123Zm7.05134,119.4475c-.02407-1.15169.8771-2.10458,2.011-2.12821,1.11143-.0277,2.07279.89056,2.09606,2.04266.70939,34.99129,5.39022,116.6447,18.0316,175.22429.24235,1.12521-.45902,2.23739-1.56723,2.48386-.14846.033-.29611.04889-.44136.04889-.94451,0-1.79433-.66486-2.00538-1.63975-12.70959-58.89532-17.41369-140.89909-18.12469-176.03174Zm20.55217,246.04233c-.14124.03015-.28327.04481-.4229.04481-.95173,0-1.80557-.67545-2.00859-1.6589l-3.6978-17.93825c-.23192-1.12766.47988-2.23291,1.5905-2.46879,1.1034-.23588,2.19878.48643,2.4315,1.61408l3.6978,17.93825c.23192,1.12766-.47988,2.23291-1.5905,2.46879Zm19.30753-50.19548c.24074-4.88747.7455-9.64743,3.83101-9.77902,2.26619-.09451,3.80614,2.34494,5.578,8.70799,1.28155,4.60637,2.49329,10.85086,3.32305,17.13243,1.38828,10.51517,3.57262,35.21449-6.11806,37.46329-.56655.13159-1.11945.19718-1.6539.19718-1.53192,0-2.91459-.53735-4.06132-1.59086-6.10843-5.61426-4.22984-25.23951-1.35859-48.39604.16049-1.29632.31537-2.54538.45982-3.73496Zm-26.28585-381.78833c2.5952-21.08616,5.79226-24.1583,8.86092-24.33714,3.31984-.20003,6.11004,4.17902,8.25907,12.99822,6.99677,13.43128,4.97053,29.93347,2.90736,36.81798-.11235.37602-.32821.71253-.62112.97-3.45465,3.03547-7.03529,4.62837-10.16976,4.62878-1.37865,0-2.66983-.30758-3.8278-.93578-5.75214-3.12225-7.52159-12.98193-5.40868-30.14206Zm21.75829,223.86151c-.93809,0-1.7847-.65631-2.00137-1.62386-5.3196-23.7644-4.85256-41.47247-4.26194-63.89162.3242-12.30607.69173-26.25392.10352-43.29265-1.28235-37.09297-9.15543-56.91744-13.13891-62.2176-.68852-.91582-.51519-2.22476.38679-2.92344.90278-.69949,2.19075-.52309,2.87928.39273,2.74526,3.65267,5.78423,11.18533,8.12826,20.14916,3.29817,12.61568,5.26664,27.57183,5.85004,44.45249.59383,17.16787.22389,31.18457-.10191,43.55093-.5834,22.12623-1.04402,39.6029,4.16083,62.85521.25198,1.12358-.44136,2.24106-1.54797,2.49649-.15327.03504-.30574.05215-.45661.05215Zm45.19696,224.85345c-1.1347,0-2.05433-.93374-2.05433-2.08584,0-49.90175-21.15322-107.08725-30.24767-129.3577-.04012-.09818-.07222-.19881-.0971-.30188-4.65596-19.2696-6.8114-33.31197-8.38505-43.5656-1.06729-6.9505-1.90989-12.44091-3.10558-16.86925-.30013-1.11096.34426-2.25858,1.43803-2.56331,1.09859-.30554,2.22446.34995,2.52458,1.46009,1.25748,4.65648,2.11532,10.24915,3.20268,17.33001,1.5576,10.15137,3.69058,24.04341,8.27833,43.05962,9.22204,22.60614,30.50044,80.26788,30.50044,130.80801,0,1.1521-.91964,2.08584-2.05433,2.08584Z"/>
    <path class="cls-1" d="m189.42528,272.13061c1.06268,17.89955,2.35988,38.07804,3.87515,59.61559.84962-3.68872,4.10185-6.43902,7.99385-6.43902,2.15685,0,4.11348.85043,5.5794,2.23047l-1.87237-29.5548-2.93786-21.87283c-1.36521,1.02581-3.0488,1.63995-4.87784,1.63995-3.59749,0-6.6473-2.35085-7.76033-5.61935Z"/>
    <path class="cls-1" d="m220.67483,533.61897c-1.9464-19.61869-3.6659-39.89424-5.16292-60.78669-1.49962,1.63038-3.62959,2.65558-6.0003,2.65558-1.52851,0-2.95431-.43122-4.18029-1.16942,2.12114,20.97102,4.39435,41.51866,6.81,60.97684,1.46672-1.38462,3.42677-2.23805,5.58763-2.23805,1.03981,0,2.03046.2041,2.94588.56174Z"/>
    <path class="cls-1" d="m482.36211,262.23712c-10.07426,3.42209-20.49198,6.96028-31.97138,10.02142-.17494.04685-.34988.06885-.52321.06885-.91081,0-1.74297-.61964-1.98532-1.55623-.28809-1.11421.36753-2.25491,1.46532-2.54742,11.34779-3.0261,21.69971-6.54229,31.71058-9.94279,25.30121-8.59351,49.20371-16.71119,80.39108-13.05607.07624.00896.14685.03198.21988.04889l-2.83755-6.33717c-7.12677-2.45779-24.79846-1.24886-47.16703,3.30292-23.24768,4.73103-47.14938,12.20014-60.89255,19.02883-36.28227,18.02706-52.87905,15.00462-70.44762,11.8066-1.43482-.26114-2.87928-.52431-4.3454-.77771-6.44628-1.11299-20.00087.39273-39.19204,4.35746-18.17885,3.75594-35.18128,8.3835-42.38589,10.41516.38599,8.40733.81251,17.1251,1.28075,26.11602,1.47816-.36849,3.03335-.75999,4.69046-1.17736,18.05166-4.54608,48.26321-12.15492,105.21321-21.30045,1.12186-.17884,2.1731.59642,2.35045,1.73426.17654,1.13784-.58821,2.20602-1.70847,2.38609-56.77426,9.11741-86.87908,16.69937-104.86574,21.22915-1.946.49009-3.75518.94555-5.45683,1.36782.21025,3.9629.42852,7.97611.65482,12.03739,86.64115-23.12638,154.60511-34.10048,195.42577-40.68779,17.54369-2.83096,32.84046-5.29934,36.47567-6.91302.70618-3.99386,4.49947-7.29434,7.77638-9.46207-21.90675.85593-66.23824,9.76924-93.26638,15.20547-8.79993,1.76971-15.75097,3.16747-19.87408,3.88162-.11636.02037-.23272.03015-.34747.03015-.98303,0-1.85211-.71864-2.02304-1.73549-.19019-1.13581.56173-2.21336,1.68038-2.40687,4.06854-.70479,10.9955-2.09806,19.76575-3.86166,28.55926-5.74422,76.35945-15.35783,97.26551-15.35783v-6.6747c0-1.02826.53284-1.98114,1.40273-2.5079l16.47319-9.9764c-28.45694-2.54579-50.0764,4.79174-74.95191,13.24082Zm-93.0461,22.58862c-42.67559,5.41627-79.08224,14.75978-82.12603,16.78004-.34667.23018-.73667.34058-1.12266.34058-.67007,0-1.32649-.33284-1.72131-.94474-.62031-.96429-.35389-2.25695.59544-2.88718,4.32534-2.87129,42.71491-12.20544,83.86419-17.42779,1.12346-.14462,2.15224.66771,2.29347,1.81085.14124,1.14314-.65803,2.18565-1.7831,2.32824Z"/>
    <path class="cls-1" d="m275.5709,333.01278c-4.0549,13.37873-2.6265,35.64591.06259,52.02385,2.77135,16.88188,2.94267,36.44379,2.80023,57.22929,3.80152.73249,6.67739,4.11893,6.67739,8.19182,0,4.11974-2.94307,7.53327-6.8094,8.2124-.14063,20.41071.02006,40.97556,2.71878,58.81456,1.20532-.70484,2.59962-1.11421,4.09061-1.11421,1.43563,0,2.78418.37561,3.95861,1.03258-.72062-4.54348-1.20973-7.98813-1.47374-9.92456-.01043-.07781-.01685-.15644-.01846-.23506-.56895-23.79536-2.24372-77.3286-4.51472-109.6172-2.59199-36.84242-.52241-61.56984,6.7119-80.17662.08306-.21408.20383-.39965.34185-.56709-1.83726-34.73132-3.05662-65.52948-3.73472-90.25181l-32.49399-26.10176c4.2822,15.24824,13.77287,37.07606,21.41904,48.51683,8.57524,12.83079,11.58211,46.6194.26401,83.96699Z"/>
    <path class="cls-1" d="m444.39465,408.22412c10.91245-4.77157,19.54226-8.54177,26.15424-7.81987l1.76625-4.03521c-70.78987,8.42139-140.81057,25.84388-169.0039,34.20253.29611,3.80076.59905,7.61862.9076,11.44891,17.88555-8.35335,60.11736-19.92998,89.36154-19.92998,19.10772,0,36.68832-7.68829,50.81428-13.86637Z"/>
    <path class="cls-1" d="m454.79953,463.39018c-1.1347,0-2.05433-.93374-2.05433-2.08584,0-1.14355.9068-2.07199,2.02946-2.08584,2.44875-.14605,30.55501-6.63335,51.80373-15.92207-.00361-.0112-.00682-.0218-.01043-.033-6.01495-.56037-14.47383-3.32329-21.8265-6.1294-.04253.03055-.07904.06661-.12438.09431-14.70213,8.9569-25.94319,9.97986-32.237,9.97986-1.08495,0-2.02143-.03015-2.80465-.05541-.52402-.01711-.9742-.03218-1.34976-.03218-1.1347,0-2.05433-.93374-2.05433-2.08584s.91964-2.08584,2.05433-2.08584c.41167,0,.90599.01548,1.48057.03422,4.68966.15053,15.32525.49111,30.13893-7.783-5.51862-2.24982-9.6971-4.17922-10.51643-4.56115-15.17198,6.20518-35.0926,7.49294-49.87418,7.49294-7.17252,0-13.13009-.29943-16.74443-.48154-1.38587-.06966-2.48125-.12466-2.96675-.12466-1.1347,0-2.05433-.93374-2.05433-2.08584s.91964-2.08584,2.05433-2.08584c.58741,0,1.61458.05174,3.17058.12996,10.8318.54448,43.19198,2.16895,64.86761-6.69425.04935-.11712.09228-.23669.15688-.3475l5.58522-9.57043-5.39905-7.19534c-.63636-.84819-.76717-1.98114-.34025-2.95562l.9742-2.22599c-5.53707.04685-13.56021,3.54736-22.73811,7.56077-14.47343,6.32923-32.48496,14.20655-52.44009,14.20655-29.50457,0-72.44096,11.99013-89.00163,20.19947.20463,2.50994.41127,5.02374.62112,7.54448,13.75521-6.67001,46.767-19.01743,79.23953-20.64964,1.14674-.04644,2.09767.82945,2.15384,1.98033.05617,1.15047-.81692,2.12943-1.95001,2.18647-32.49219,1.63323-65.55413,14.2208-78.49643,20.64862-.18898.0939-.38519.14442-.583.1762.50676,6.00596,1.02917,12.04004,1.56603,18.09469,6.50165-1.5874,21.57733-3.09801,43.74288-5.1977,15.40109-1.45928,29.94834-2.83707,36.15227-4.0621,13.70225-2.70548,51.32144-7.1986,55.61308-7.70743.00241-.00041.00562-.00081.00802-.00081l.0016-.00041,2.05674-.2424c1.13069-.12507,2.14582.68931,2.27501,1.83326.13,1.14395-.67729,2.17832-1.80396,2.31113l-2.05433.24199c-.00241.00041-.00481.00041-.00722.00081-15.36417,1.82226-44.29177,5.4843-55.30412,7.65895-6.40375,1.26413-21.0497,2.65171-36.55592,4.12076-17.01526,1.61205-37.81821,3.58301-43.7509,5.22072.30775,3.42901.62031,6.86393.93809,10.30415,51.57583-4.38944,161.00765-17.00105,198.19471-24.99752-1.46532-1.2236-2.46199-2.6401-2.53783-4.24828-.05377-1.13988.30494-3.26483,3.3086-4.68867,1.27072-.60192,1.4581-4.53182.30093-9.64702-21.31974,9.227-50.29468,16.04795-52.90794,16.04795Zm-15.21331-13.96618c-.11796,1.14558-1.12186,1.98237-2.25736,1.85689-38.05735-4.05517-77.21167.07537-110.24392,11.63224-1.74137.60946-2.05514.71905-2.5302.71905-1.1347,0-2.05433-.93374-2.05433-2.08584,0-1.04048.75031-1.90292,1.73174-2.06018.23432-.06926.88433-.29658,1.51427-.51698,33.58676-11.75079,73.36622-15.95466,112.01097-11.83716,1.12828.12018,1.94761,1.1464,1.82884,2.29198Z"/>
    <path class="cls-1" d="m287.16023,397.32885c2.27341,32.31305,3.94978,85.80717,4.52194,109.69502,3.16857,23.21213,11.48541,67.91593,22.68234,92.55607-11.32733-90.61551-18.82123-186.53271-23.29262-265.2798-.04012-.10429-.08306-.20716-.11195-.31817-.13241-.50659-.11275-1.01359.01003-1.48657-.08867-1.57273-.17614-3.13752-.26241-4.6962-4.61302,16.9436-5.69917,38.94028-3.54734,69.52966Z"/>
    <path class="cls-1" d="m197.18561,261.06322c1.03439,0,2.02023.20247,2.93184.5565l-.03691-.27438c-.01204-.0937-.01846-.18781-.01846-.28191v-44.45371l-12.60747,19.85645c.46463,9.20439,1.03419,19.6719,1.70546,31.16094.80368-3.75207,4.08921-6.56389,8.02555-6.56389Z"/>
    <path class="cls-1" d="m275.61503,713.74393c1.61538-.37521,2.56631-3.04036,2.99002-4.59537,3.3736-12.39569-1.21254-39.59272-4.29484-48.22045-.11315.90115-.21908,2.08625-.29451,3.64045-.00241.05092-.00722.10144-.01284.15196-.14766,1.21566-.30574,2.49405-.47025,3.82133-1.74057,14.03829-4.98016,40.16877.03932,44.78207.38358.35239.92445.68034,2.0431.42002Z"/>
    <path class="cls-1" d="m332.6501,787.70503l12.47125-8.9211c-4.61583-19.05664-8.91589-39.65133-12.91623-61.35051,1.53473,19.12478,1.89223,42.08539.44497,70.27162Z"/>
    <path class="cls-1" d="m428.04182,218.04169c-1.10501-.2591-1.79433-1.37902-1.53915-2.50138.25519-1.12196,1.35056-1.82348,2.4636-1.56357,22.96842,5.38143,75.36558,5.62913,127.59904-15.02642-.82976-.62107-1.67476-1.25986-2.51415-1.9565-2.04109-1.69577-2.22285-4.54791-1.34254-7.88017-76.30728,5.05919-212.64366,40.88293-260.04502,54.64582.14806,4.38984.31096,8.92614.4879,13.59688,6.91492-.0002,25.16479-2.93098,53.64862-14.49926,1.05285-.42858,2.25014.09289,2.67063,1.16229.4213,1.0694-.09148,2.28343-1.14433,2.71119-28.63429,11.62918-47.46676,14.70153-55.01403,14.78789.08225,2.10845.16772,4.24278.25639,6.40297,14.80405-1.87237,46.35734-9.02351,73.26671-24.79098,10.99069-11.3104,39.89822-28.96307,72.19942-16.16284,12.62533,3.82744,43.24695,8.72102,69.35625-.00733,25.02235-8.36557,43.57275-10.53514,51.32385-10.56039,1.65069-3.37238,3.14249-7.19432,3.14249-9.5684,0-1.95996-.89476-3.37951-2.54063-4.89705-35.53156,14.45831-71.41099,19.28203-98.54224,19.28203-13.98312,0-25.63745-1.27799-33.73281-3.1748Z"/>
    <path class="cls-1" d="m557.13186,221.13624c.0987-.1601.20222-.33508.30574-.50842-8.44043.38824-25.37986,2.81222-47.76086,10.29478-27.13567,9.07219-58.89841,3.97817-71.9025.0167-.05377-.0163-.10673-.03504-.15889-.05581-30.51649-12.13822-57.84957,4.74244-68.03698,15.36557-.1308.13648-.27926.2538-.44136.34954-27.71345,16.30726-60.34446,23.64234-75.39487,25.50452.14766,3.50193.30253,7.06722.46503,10.69341,23.68142-6.64272,67.49652-17.19863,82.46186-14.61149,1.47736.25503,2.93385.52024,4.38071.78382,17.62474,3.20943,32.84447,5.97928,67.91661-11.44769,25.31526-12.57861,85.45228-27.25447,107.79919-23.35492-.04574-.20838-.07102-.42124-.07102-.63594v-10.84638c0-.54713.15167-1.08366.43735-1.54768Zm-111.01029,29.56275c-5.13905,6.41356-19.0058,15.31995-41.13243,15.31995-8.5311,0-18.28919-1.32361-29.24939-4.6243-.20062-.0607-.39081-.15155-.56414-.2701-3.13527-2.14532-4.55966-5.39508-3.81095-8.69332,1.94761-8.58088,17.91283-15.25395,46.17036-19.29771.09469-.01344.19019-.02037.28648-.02037,15.43319,0,20.64526,4.19776,23.75966,6.70607l.51037.4078c.89556.70723,1.05686,2.01781.36031,2.92711s-1.98612,1.07307-2.88329.36624l-.54087-.43306c-2.85922-2.30257-7.17412-5.77844-21.06254-5.80247-37.35197,5.36453-42.04805,13.66472-42.59694,16.0834-.46062,2.02922.99266,3.46731,1.86335,4.12361,37.11524,11.07045,59.19853-1.30854,65.70259-9.4254.71581-.893,2.0094-1.02907,2.89051-.30188.87951.72719,1.01272,2.04103.29692,2.93444Zm-11.46415-3.20128c-.11716,1.23358-.72303,3.06684-2.94027,4.79785-2.86965,2.23943-8.48055,4.35664-19.42469,4.35664-6.06831,0-13.77447-.6506-23.56626-2.29117-.84822-.14218-1.51908-.80541-1.68199-1.66216-.1637-.85674.21587-1.72612.95013-2.17873,8.27512-5.10176,28.42284-12.73912,45.44573-5.13231.8121.36258,1.30322,1.21362,1.21735,2.10988Z"/>
    <path class="cls-1" d="m395.68766,251.20252c23.4483,3.17887,31.20662-.40413,33.52497-2.21417.23914-.18699.45099-.37887.63235-.57157-12.01866-4.42264-25.48578-1.05229-34.15732,2.78574Z"/>
    <g>
      <path class="cls-1" d="m624.7402,649.39114l-31.77357-32.26049c-3.75197,3.04774-7.24554,6.40887-10.4434,10.04479l31.47184,31.9551c2.98841-3.84852,6.62322-7.15465,10.74513-9.7394Z"/>
      <path class="cls-1" d="m605.17748,684.90674c0-4.20626.62232-8.26663,1.76785-12.09789h-45.3069c-.54568,3.955-.83457,7.99256-.83457,12.09789,0,.83709.01444,1.67071.03812,2.5022h44.41615c-.04855-.82853-.08065-1.66149-.08065-2.5022Z"/>
      <path class="cls-1" d="m610.70492,664.04857l-31.88311-32.37263c-7.82412,10.19634-13.45669,22.20511-16.17708,35.29255h46.53188c.46985-.9974.98464-1.96806,1.52831-2.91993Z"/>
      <path class="cls-1" d="m633.93816,645.11033v-46.06866c-13.34515,1.96602-25.69924,7.0742-36.31236,14.56021l32.4645,32.96182c1.25226-.54667,2.53542-1.0334,3.84786-1.45337Z"/>
      <path class="cls-1" d="m610.92961,684.90674c0,19.78251,15.85128,35.8765,35.33455,35.8765s35.33455-16.09399,35.33455-35.8765-15.85128-35.8765-35.33455-35.8765c-2.86323,0-5.64501.35642-8.31283,1.01227-.25077.10989-.52361.17197-.80528.20527-15.07729,4.09326-26.21644,18.07742-26.21644,34.65896Zm16.06393-23.45921c2.13137-2.15388,5.59004-2.1718,7.74227-.04848.01765.0167.03451.03381.05216.05092l.48229.48887c.44698-.21958.90038-.42613,1.35859-.61801v-.84778c0-3.08925,2.47644-5.60244,5.52022-5.60244h8.28956c3.04459,0,5.52102,2.5132,5.52102,5.60244v.84778c.00562.00204.01123.00448.01605.00693l.86186-.87059c2.14742-2.17302,5.6422-2.17058,7.78962,0l5.47368,5.53237c1.04803,1.0584,1.62581,2.46838,1.62581,3.9688,0,1.50083-.57778,2.91081-1.62662,3.97003l-.69735.7056c.10914.25095.21426.50394.31537.75856h.60266c2.99885,0,5.47769,2.47653,5.52584,5.52097v7.90461c0,3.08925-2.47644,5.60244-5.52102,5.60244h-.60186c-.07864.19718-.15889.39354-.24235.58868l.60988.61679c1.04803,1.06003,1.62501,2.46961,1.62501,3.96921,0,1.50001-.57698,2.90959-1.62421,3.96921l-5.47448,5.53278c-2.14582,2.17139-5.64139,2.1718-7.79042.00041l-.67729-.68482c-.06179.02648-.12358.05296-.18537.07903v.84819c0,3.08925-2.47644,5.60285-5.52022,5.60285h-8.28956c-3.04459,0-5.52102-2.5136-5.52102-5.60285v-.849c-.17093-.0717-.34025-.14503-.50957-.2204l-.70297.71049c-2.14822,2.17099-5.6422,2.16936-7.79042,0l-5.47368-5.53319c-1.04803-1.05881-1.62501-2.46879-1.62501-3.96921s.57698-2.9104,1.62581-3.96962l.82173-.83026c-.03531-.08596-.06982-.17192-.10432-.25829h-.67087c-3.04218,0-5.51862-2.51238-5.52022-5.60041l-.00241-7.82639c0-3.01836,2.36248-5.48634,5.30917-5.59959l-.47185-.47624c-1.04803-1.06003-1.62501-2.47001-1.62501-3.97043.0008-1.49961.57778-2.90877,1.62581-3.96799l5.47368-5.53196Z"/>
      <path class="cls-1" d="m654.07063,643.95466v-45.45325c-2.57193-.23761-5.17435-.36574-7.80647-.36574-2.21162,0-4.40398.08586-6.57387.25426v45.3406c2.1418-.35127,4.33617-.54066,6.57387-.54066,2.66943,0,5.27747.26873,7.80647.76478Z"/>
      <path class="cls-1" d="m660.23364,724.13734v46.37481c14.32738-2.40223,27.46428-8.43193,38.46019-17.13105l-31.88311-32.37171c-2.08523,1.22834-4.2812,2.28261-6.57708,3.12795Z"/>
      <path class="cls-1" d="m671.65445,717.66802l31.47224,31.95434c3.57984-3.24604,6.88884-6.79233,9.88969-10.60057l-31.77317-32.26065c-2.54505,4.1837-5.79988,7.87319-9.58877,10.90688Z"/>
      <path class="cls-1" d="m687.35085,684.90674c0,.8407-.0321,1.67366-.08065,2.5022h44.41615c.02367-.83149.03812-1.66511.03812-2.5022,0-4.10533-.28889-8.14288-.83457-12.09789h-45.3069c1.14553,3.83126,1.76785,7.89163,1.76785,12.09789Z"/>
      <path class="cls-1" d="m610.4056,705.23694l-31.93968,32.42966c2.92983,3.87174,6.17263,7.48586,9.69108,10.80396l31.41005-31.89257c-3.67092-3.19481-6.78211-7.03111-9.16145-11.34106Z"/>
      <path class="cls-1" d="m606.00403,693.2493h-44.80335c1.37263,14.53994,6.2934,28.04201,13.87157,39.60372l32.74577-33.24852c-.76195-2.04801-1.37504-4.16929-1.81399-6.3552Z"/>
      <path class="cls-1" d="m640.10116,726.15316v45.29716c2.03588.14804,4.09061.22748,6.163.22748,2.77215,0,5.5122-.13963,8.21734-.40291v-45.49078c-2.65619.54957-5.40386.83948-8.21734.83948-2.09446,0-4.152-.16199-6.163-.47043Z"/>
      <path class="cls-1" d="m592.51042,752.30961c11.7743,9.69881,26.12776,16.28551,41.8386,18.52077v-46.0018c-3.60552-1.11146-6.99798-2.71745-10.11118-4.73343l-31.72743,32.21446Z"/>
      <path class="cls-1" d="m684.0278,701.32914l32.4641,32.96197c8.12425-11.87393,13.40614-25.89445,14.83574-41.04181h-44.80335c-.56334,2.80575-1.40754,5.50818-2.4965,8.07984Z"/>
      <path class="cls-1" d="m663.95391,646.78104l31.96496-32.45533c-10.51282-7.64653-22.79709-12.93197-36.0961-15.09374v46.30271c1.31485.46809,2.59921,1.00009,3.84947,1.59641.08667-.12064.17454-.24112.28167-.35005Z"/>
      <path class="cls-1" d="m679.28518,660.11607l31.53002-32.01366c-3.1453-3.67996-6.59032-7.08901-10.29575-10.18824l-31.67767,32.16343c4.03203,2.70355,7.57094,6.1043,10.4434,10.03848Z"/>
      <path class="cls-1" d="m668.43813,519.63751c-36.11054-8.21464-70.26144-23.92894-82.71905-37.88376-.48309,1.06248-1.97007,6.92524,10.37118,26.35989,9.71877,15.30528,56.57765,31.83884,100.278,35.38152,29.68834,2.40809,51.52928-1.65279,59.92317-11.13807,13.11484-14.81926,15.25744-19.9972,15.54152-21.60721-11.42081,8.43748-26.99122,13.29929-46.30758,14.45465-16.8985,1.00911-36.63456-.915-57.08722-5.567Z"/>
      <path class="cls-1" d="m794.04061,236.23375c-39.93995-19.15594-113.32061-29.05066-147.08793-23.50036,13.38447,8.38126,40.4736,16.33191,73.16961,21.29352,30.63767,4.64996,58.88236,5.40771,73.91832,2.20684Z"/>
      <path class="cls-1" d="m703.59453,261.38404c44.42498,9.28119,84.11295,7.68666,109.28176-4.34157,1.01994-9.98597-1.23661-20.84865-3.90083-22.12134-.31216-.14911-.59463-.35362-.83538-.60457-8.62178-8.9842-43.24855-20.36426-71.74361-26.17611-24.30615-4.95754-70.19965-11.62857-104.46611-.61068-.065.02078-.1308.03911-.19741.05541-5.59806,1.36435-8.93716,12.27796-9.62809,19.9365,10.94655,12.08648,44.79091,26.19525,81.48966,33.86235Zm-65.07184-50.53565c.21105-.91256.9068-1.62875,1.80236-1.85648,33.52898-8.50959,119.55824,2.62482,161.59666,25.67338.8426.46198,1.34575,1.3782,1.28958,2.34902-.05617.97081-.66124,1.82063-1.55118,2.17954-6.62282,2.67004-17.83499,4.00303-31.87829,4.00303-14.43651,0-31.86385-1.40754-50.38817-4.21854-38.29247-5.81103-68.22557-15.40102-80.07009-25.65302-.70217-.60824-1.01192-1.56397-.80087-2.47694Z"/>
      <path class="cls-1" d="m646.26416,578.11159c-57.99723,0-105.18192,47.90798-105.18192,106.79515s47.18469,106.79515,105.18192,106.79515,105.18192-47.90798,105.18192-106.79515-47.18469-106.79515-105.18192-106.79515Zm0,199.40658c-50.29508,0-91.21244-41.54535-91.21244-92.61142,0-29.89936,14.03126-56.52965,35.75465-73.47341.08586-.1186.17173-.23741.27725-.34465.30494-.30957.66365-.52747,1.04362-.66889,15.15272-11.38343,33.88287-18.12448,54.13692-18.12448,20.85872,0,40.10085,7.15099,55.48388,19.15823.21747.12619.42732.27188.61309.4605.01404.01426.02327.03127.03691.04573,5.25019,4.17438,10.04096,8.91856,14.27963,14.14141.0309.02887.06661.0496.0967.0801.17895.18149.31858.38509.44056.59673,12.66425,15.9044,20.26167,36.13112,20.26167,58.12871,0,51.06608-40.91736,92.61142-91.21244,92.61142Z"/>
      <path class="cls-1" d="m682.44813,665.16411c.31497.59306.6163,1.19462.90359,1.80439h46.53188c-2.63292-12.66615-7.99385-24.32161-15.42877-34.30198l-32.00669,32.49759Z"/>
      <path class="cls-1" d="m730.16606,489.44468l-.00802.00835c.35329.00835.70658.00835,1.05987.00835-.35329-.00835-.70658-.0167-1.05184-.0167Zm-35.9673-2.91183v-.00835c-.0327,0-.0656-.00835-.0985-.00835.0329.00835.0658.00835.0985.0167Zm-39.39387-8.35172v-.00835c-.54227-.15023-1.10099-.2921-1.64347-.44222.54247.15012,1.09297.30035,1.64347.45057Zm-24.74229-7.69256c.00823,0,.02468.00835.0329.00835-.00823-.00835-.02468-.00835-.0329-.0167v.00835Z"/>
      <path class="cls-1" d="m821.92098,288.37778c-1.18325-1.35172-3.31984-2.82017-6.77108-2.1443-.00823.00835-.01645.00835-.02468.00835-.73146-6.19907-2.30089-14.8929-4.2483-21.95146-5.94112,2.4197-12.53144,4.34697-19.65601,5.782,1.21615,7.80938,2.27622,17.38756,3.00767,28.30075-1.3313.292-2.68709.57564-4.05952.83434-.72303-10.95485-1.77487-20.56643-2.99102-28.38417-9.15403,1.56021-19.12176,2.35289-29.73027,2.35289h-.41087c.39442,8.92737.57517,18.8559.52582,29.05157-1.35578.00825-2.72821.00825-4.10867,0,.04935-10.22898-.13141-20.18267-.52582-29.10168-8.89121-.18353-18.1933-.90115-27.79109-2.16101-.04113,9.47816-.28769,19.26492-.73125,29.29367-1.35598-.16683-2.71999-.34211-4.08419-.53399.43554-10.0371.67388-19.84056.70678-29.31862-6.08897-.8928-12.30133-1.98573-18.59594-3.30394-2.23509-.46728-4.46196-.95951-6.67237-1.46844-2.65418,7.08351-5.71923,16.39464-8.92412,27.59984-1.3311-.33376-2.66241-.67576-3.97706-1.01787,3.17178-11.13003,6.21236-20.41631,8.85831-27.54148-9.51574-2.33608-18.66174-5.03943-27.14189-7.99291-3.13908,7.20858-6.5821,16.15265-10.04156,26.4902-1.2984-.49233-2.58036-.98456-3.83763-1.48514,3.44302-10.27074,6.86156-19.1814,9.99241-26.39009-7.87227-2.87852-15.08712-5.96553-21.38975-9.13605-3.21291,5.91552-7.06699,14.34231-11.0278,24.9467-1.27353-.71752-2.48968-1.44339-3.6649-2.16926,3.78828-10.04545,7.58459-18.35542,11.03603-24.68811-5.57138-3.01184-10.27167-6.0906-13.90387-9.1276-2.51435,4.55545-5.94934,10.73802-9.05552,16.31968-.13141-.07516-.27104-.13352-.41087-.18353-2.35005-.72597-7.59281-.8928-11.68503,1.75199-2.86784,1.85231-4.67562,4.76413-5.22611,8.43524-1.41356,4.90591-4.10044,16.70345.27926,23.67849.41087.65906,1.27373,1.55185,2.52278,2.61148-7.83115,26.13139-20.09957,82.18221-17.6426,124.45801-.65743-.55894-1.2984-1.11798-1.92293-1.67703-.21366-.20023-.47647-.35036-.76416-.43387-1.07652-.33365-2.87607-.8927-4.46196.13362-1.93115,1.25151-2.64596,4.19664-3.50882,10.329-.00823.10022-.01645.19188-.01645.2921,0,8.88561,2.00498,16.98699,5.66166,22.81075.91221,1.46009,3.99371,3.80452,8.84186,6.66635,1.11765,8.02632,2.94187,18.83094,5.25922,27.0909,3.6978,4.33026,9.99221,9.01078,18.13552,13.61634-1.88983-10.29559-3.41834-20.7082-4.56869-31.17907,1.39691.62575,2.82672,1.25151,4.3141,1.89396,1.21615,10.38746,2.83494,21.0002,4.90573,31.81318,5.25902,2.73665,11.10986,5.41489,17.41249,7.95961-1.8489-10.82968-3.1473-21.70112-3.97726-32.5308,1.38888.50058,2.79402,1.00116,4.23205,1.50185.00823.00835.02468.00835.0329.0167-.00823,0-.02468-.00835-.0329-.00835.88754,10.92969,2.26799,21.8763,4.2154,32.77269,6.38489,2.4363,13.16419,4.71403,20.1736,6.74981-.10693-10.77127.01645-21.38401.35329-31.82993-.5505-.15023-1.10099-.30045-1.64347-.45057.54247.15012,1.1012.292,1.64347.44222v.00835c1.33953.36706,2.69531.72577,4.07577,1.08468-.32039,10.46252-.43534,21.10867-.31216,31.90499,9.01439,2.46961,18.3576,4.53044,27.70884,5.99889,2.77756-9.85352,5.42352-20.09085,7.92142-30.63684-.0327-.00835-.0656-.00835-.0985-.0167.0329,0,.0658.00835.0985.00835v.00835c1.35598.19188,2.71999.38376,4.09242.56729-2.4981,10.54603-5.14406,20.80837-7.9134,30.67859,7.51076,1.04292,14.98841,1.69373,22.28551,1.86056,4.74944-9.05254,9.17048-19.21476,13.15596-30.26978-.21366-.00835-.41909-.0167-.62453-.02505,1.65169.05011,3.30339.09187,4.9633.10857l.00802-.00835c.34526,0,.69855.00835,1.05184.0167-.35329,0-.70658,0-1.05987-.00835-3.89521,10.97985-8.20931,21.12537-12.86848,30.22802,12.07122-.06676,23.50166-1.5352,33.54323-4.82249,4.28943-7.48398,8.93214-16.7201,13.4928-27.90854,1.60234-.25869,3.19666-.55069,4.79077-.85939-4.11689,10.3708-8.32427,19.1647-12.30956,26.51521,4.60159-1.97737,8.84186-4.38862,12.61349-7.3171.05758-.04176.12338-.07511.18898-.11682,4.97975-6.79987,9.61444-15.66052,12.66304-22.21005,3.54975-1.00116,7.07501-2.1443,10.55093-3.42922.34526-.12507.64098-.342.87931-.62575,3.57462-4.35522,13.01633-22.97758,10.51001-29.94427-.60807-1.67703-1.85713-2.7617-3.51704-3.06205-.46022-.08341-.93669,0-1.34756.22529-1.24083.69246-2.531,1.35162-3.84566,1.99408,16.16344-47.81591,20.1734-101.3302,20.0749-125.75962,1.7173-.56739,3.44302-1.14314,5.16051-1.76054.6163-.21694,1.08454-.70906,1.28175-1.33482,1.54496-4.95602,2.62951-11.07167,2.90897-16.35309.36172-6.95834-.6492-11.84755-3.00747-14.53409Zm-21.59519,161.95307c.00823.0167.01645.04176.02468.06681,1.53654,4.26345-5.62073,20.30784-9.47461,25.41388-25.66273,9.33629-70.06102,16.4365-136.62968-2.10255-18.226-5.08098-36.89576-11.88095-52.57451-19.148-14.84056-6.87493-21.80062-11.71413-22.69618-13.14916-3.17198-5.05613-5.00443-12.49835-5.02088-20.42456.5834-4.10487,1.11765-6.52457,1.58589-7.18363.12318.00835.32861.05001.6821.15023,21.80884,19.40669,62.42709,36.63567,106.17618,45.0208,47.84131,9.16936,90.71932,6.00719,117.92701-8.64382Zm-195.46569-22.03477c-1.38888-.75092-2.76934-1.4935-4.10867-2.26102-1.01914-30.11965.96959-60.37273,5.9985-89.68289,2.3338-13.64985,5.19341-26.27327,8.30782-37.7121,1.20792.66751,2.47343,1.34327,3.77985,2.02748-8.94859,32.98972-16.01558,76.89244-13.9775,127.62853Zm23.92878,10.9632c-1.38868-.54234-2.75289-1.10128-4.10867-1.66032.09048-46.60606,7.82292-90.98451,17.17415-126.31866,1.25728.50893,2.53923,1.01787,3.83763,1.5269-9.33498,35.36746-17.01005,79.82932-16.90312,126.45208Zm27.52808,9.25277c3.39386-48.61684,10.85507-92.03578,18.72734-125.92645,1.30663.36706,2.62951.71742,3.96081,1.06798-7.85582,33.85726-15.309,77.30125-18.64529,125.97656-1.35578-.36716-2.70334-.73432-4.04287-1.11809Zm48.32621,9.68674c-1.35598-.15858-2.71999-.32551-4.08399-.50904,8.36519-41.08275,14.55287-85.01052,17.83158-126.5522,1.35578.15848,2.71176.30025,4.08399.43387-3.28693,41.56663-9.46639,85.51121-17.83158,126.62736Zm30.25629,1.76869c11.95607-45.40456,16.29484-93.72941,17.79868-127.16125,1.37223-.03341,2.73624-.06681,4.11689-.12517-1.48739,33.38174-5.78504,81.64822-17.65082,127.21971-1.40513.0333-2.83514.05836-4.26475.06671Zm56.25586-131.25787c0-.00835.00802-.00835.01645-.00835v.00835c1.36401-.27529,2.73624-.55904,4.10867-.85939.09028,16.70345-.60828,35.10887-2.4981,54.32368-2.76934,28.09217-7.46141,51.92914-13.00811,71.95323-1.50384.43387-3.05683.84269-4.61824,1.2348,5.77681-20.27433,10.69096-44.63704,13.53413-73.59685,1.8489-18.76423,2.54725-36.71919,2.48165-53.05547h-.01645Zm27.24862-11.69742c-55.9437,19.61527-110.94228,10.9298-147.32044.14187-40.70872-12.07283-69.42005-30.18636-71.97553-34.26628-2.87607-4.5805-1.76685-13.54128.22991-20.3995.0329-.10012.04935-.19188.0658-.2921.36151-2.53632,1.49561-4.44688,3.38564-5.66508,1.77487-1.15139,3.87033-1.5268,5.57118-1.56856l-1.46251,2.62818c-.41929.75928-.33704,1.69363.20543,2.36114,12.07122,14.78443,47.57008,30.6953,88.33637,39.58926,47.26614,10.3125,91.33562,8.93582,120.90159-3.77122.76416-.3253,1.25728-1.08458,1.25728-1.92727v-3.50418c.59162.15858.97781.49223,1.25728.81763,3.19646,3.64605,2.32557,16.28628-.45199,25.8561Z"/>
      <path class="cls-1" d="m670.3208,680.39857h-2.33124c-1.07141,0-2.02065-.70283-2.34724-1.73882-.36602-1.15733-.83693-2.28824-1.40027-3.36132-.51195-.97414-.33467-2.17306.43487-2.95202l1.94518-1.9664c.14447-.14546.17421-.30921.17421-.42168,0-.11207-.02973-.27582-.17259-.42045l-5.47437-5.53315c-.22963-.23225-.60277-.23225-.83386,0l-2.07042,2.09274c-.7495.75936-1.89379.94723-2.84384.46401-.86117-.43875-1.76467-.81801-2.68353-1.12804-1.0079-.33981-1.6884-1.29712-1.6884-2.37553v-2.5849c0-.32873-.26486-.59643-.59065-.59643h-8.28961c-.32498,0-.58984.26769-.58984.59643v2.58572c0,1.07923-.68131,2.03696-1.69001,2.37635-1.3193.44318-2.60241,1.03025-3.81247,1.74481-.96782.56911-2.18839.40946-2.98039-.3919l-1.73494-1.75745c-.01212-.01181-.02327-.02322-.03539-.03503-.23028-.23266-.60422-.23225-.8345-.00041l-5.47372,5.53233c-.14285.14464-.17259.3088-.17324.42086,0,.1128.03038.27746.17404.42242l2.27355,2.29809c.72849.73663.92985,1.85532.50613,2.80616-.3169.70923-.59534,1.4434-.82885,2.18241-.32659,1.03599-1.27583,1.73874-2.34724,1.73874h-2.40009c-.32514,0-.58984.26761-.58984.59684l.00226,7.82434c0,.32914.26486.59725.58984.59725h2.39944c1.07141,0,2.01984.70275,2.34724,1.73874.31948,1.00949.71831,1.99946,1.18598,2.94259.47995.96634.29379,2.13672-.46218,2.90017l-2.03907,2.06099c-.14366.14546-.17324.30962-.17324.42168,0,.11198.02957.27623.17324.42119l5.47372,5.53323c.22947.23217.60261.23217.8337,0l1.94033-1.96115c.47349-.47829,1.10276-.72884,1.73979-.72884.39237,0,.78796.09492,1.15156.29042.99594.53449,2.03843.9871,3.09998,1.34479,1.00871.3394,1.68921,1.2968,1.68921,2.37553v2.58613c0,.32914.26486.59684.59065.59684h8.28961c.32498,0,.58984-.26769.58984-.59684v-2.58531c0-1.07841.68034-2.03573,1.6884-2.37553.96766-.32627,1.91949-.7304,2.82703-1.20138.95021-.49207,2.10403-.3088,2.86081.45548l1.89541,1.91636c.22947.23225.60342.23266.83305.00041l5.47453-5.53274c.14285-.14464.17243-.30929.17243-.42209,0-.11248-.02957-.27705-.1734-.42209l-1.84547-1.86582c-.76566-.77322-.94633-1.96238-.44537-2.93365.53102-1.03148.97736-2.11473,1.3248-3.21873.32659-1.03681,1.276-1.74038,2.34805-1.74038h2.33124c.32579,0,.59049-.26769.59049-.59643v-7.82516c-.00485-.32758-.27197-.59438-.59534-.59438Zm-24.05678,18.20027c-7.49922,0-13.55858-6.14253-13.55858-13.69262,0-7.54918,6.05936-13.69155,13.55858-13.69155,7.49857,0,13.55874,6.14237,13.55874,13.69155,0,7.55008-6.06017,13.69262-13.55874,13.69262Z"/>
    </g>
  </g>
</svg>