<?xml version="1.0" encoding="utf-8"?>
<!-- Generator: Adobe Adobe Illustrator 24.2.0, SVG Export Plug-In . SVG Version: 6.00 Build 0)  -->
<svg version="1.1" xmlns="http://www.w3.org/2000/svg" xmlns:xlink="http://www.w3.org/1999/xlink" x="0px" y="0px"
	 width="1253.31px" height="924.41px" viewBox="0 0 1253.31 924.41" style="enable-background:new 0 0 1253.31 924.41;"
	 xml:space="preserve">
<style type="text/css">
	.st0{display:none;}
	.st1{display:inline;opacity:0.2392;fill:#3272B5;}
	.st2{display:inline;fill:#2AAF3C;}
	.st3{display:inline;fill:#181513;}
	.st4{display:inline;fill:#735DA4;}
	.st5{display:inline;fill:#FFFFFF;}
	.st6{display:inline;fill:#755DA8;}
	.st7{display:inline;fill:#715CA2;}
	.st8{display:inline;fill:none;}
	.st9{display:inline;fill:#917EB4;}
	.st10{display:inline;fill:#715CA0;}
	.st11{display:inline;}
	.st12{fill:#715CA2;}
	.st13{fill:#F1F1EE;}
	.st14{fill:#6E1D88;}
	.st15{display:inline;fill:#6E1D88;}
	.st16{display:inline;fill:#381293;}
	.st17{fill:#381293;}
	.st18{fill:none;stroke:#050404;stroke-linecap:round;stroke-linejoin:round;stroke-miterlimit:10;}
	.st19{filter:url(#Adobe_OpacityMaskFilter);}
	.st20{mask:url(#SVGID_1_);}
</style>
<g id="Layer_3" class="st0">
	<rect x="-142.15" y="-238.5" class="st1" width="1501.22" height="1500"/>
</g>
<g id="Layer_8" class="st0">
	<rect x="-140.93" y="-238.5" class="st2" width="1500" height="1500"/>
</g>
<g id="Layer_9" class="st0">
</g>
<g id="Breakdown" class="st0">
	<path class="st4" d="M143.1,118.38c0.67-1.44-27.67,5.14-31.24,6.94c-5.25,2.66-76.17,121.01-77.52,124.57
		c-1.92,5.05-35.12,223.64-34.32,228.7c1.1,6.97,10.93,17.45,13.71,24.67c9.33,24.26,3.41,26.15,8.41,39.16
		c5.98,15.55,21.13,25.78,25.65,35.83c8,17.8,22.97,91.75,26.51,109.56c0.5,2.54,0.79,5.1,0.85,7.69
		c0.17,6.76,0.49,20.25,0.99,20.82c13.76,15.59,47.28,37.01,55.08,41.91c0.93,0.58,1.8,1.25,2.62,1.98l84.78,76.68l91.49,78.88
		c0.93,0.8,2.05,1.34,3.25,1.57l36.35,7.03c0.44,0.09,0.9-0.05,1.22-0.36c0,0,3.22-2.39,4.04-3.19c1.02-0.99,2.41-1.51,3.83-1.44
		c19.73,0.99,78.15,3.97,78.15,3.97l72.43-15.91l31.62-1.22l49.98-9.59c0,0,49.09-6.16,59.37-17.75c1.5-1.7,2.11-6.82,2.34-10.48
		c0.15-2.23,2.03-3.96,4.26-3.93c0,0,10.25,1.5,13.3,0.18c4.29-1.85,11.34-10.55,15.42-15.92c2.09-2.75,5.25-4.48,8.7-4.76
		l26.69-2.14l47.04,7.29l31.57-7.21c4.2-0.96,8.53-1.19,12.81-0.7c6.4,0.74,15.9,1.64,19.72,0.94c8.01-1.48,23.96-12.06,31-16.93
		c2.34-1.62,5.01-2.69,7.82-3.12l21.28-3.32l43.61-17.03c1.03-0.4,2.11-0.66,3.21-0.76l39.5-3.61c0,0,27.69-15.37,30.28-17.96
		c2.76-2.76,12.75-49.39,12.75-49.39l-108.72,28.2l-9.65-4l-6.1-11.3l-9.54-11.05L876.41,729l-12.63,3.67l-11.61,1.75l-14.74-3.32
		l-6.22-0.02l-13.84-3.61l-11.91,0.85l-13.85-3.84l-19.89,1.88l-6.68,4.89l-15.11,16.12l-3.79,11.32l-10.71,4.76l-10.38,13.63
		L698,789.13l-16.46,14.37l-111.75,33.6l-11.76-1.57l-18.36,1.72l-31.89,9.11l-57.99,3.75l-64.48,3.01l-40.69,4.12l-27.96-16.38
		l-16.6-33.83l-2.53-11.11l5.78-4.25l10.22-8.97l5.79-12.15l10.27-30.34l4.23-9.41l-3.33-22.01l-10.05-15.58l-31.43-8.26
		l-16.35-5.66l-20.13,10.03l-6.62,15.19l-6.51,19.21l-10.12,5.45l-10.82-3.93c-1.09-0.4-2.04-1.11-2.72-2.05l-17.02-23.34L203,659.7
		l-5.96-26.67l-12.01-24.8l-15.72-19.26l-4.83-20.98l16.76-10.65l15.87-5.5l7.6-6.58l11.68-4.95L232.48,502l17.64-4.55l27.12-9.35
		l18.47-16.42l0.28-15.71l8.86-8.77l26.59-14.15l78.49-34.1l54.76-36.6l6.78-1.26l30.14-15.83l65.63-6.54l16.81-5.69l44.84-6.82
		l108.44-27.73l26.35-1.27l29.83-2.92l14.79-5.72l13.99-1.89l29.28-15.35l22.01-9.19l36.83-16.71l49.27-33.85l43.31-13.18
		l30.65-1.94l36.8-8.17l-7.82-15.67l-85.03-20.52l-5.93-12.08l-18.69-10.03l-21.66-0.46l-16.64-10.49l-11.85-0.23l-25.07,25.53
		l-24.86-8.51l-11.65-0.79l-14.83-9.8l-44.5,5.3l-17.48,7.15l-73.63,14.3l-27.56-17.68l-29.14,5.77l-9.9-12.65l-9.07-3.85
		l-3.02-8.52l-21.44-18.42l-18.69,3.02l-20.1,16.05l-0.57,22.98l-10.74,34.09l-22.6,18.84l-11.87,10.74l-26.75,6.59l2.6,25.86
		l6.74,19.42l-10.7,15.46l0.2,13.68l-14.63,10.74c0,0-400.22,86.09-403.72,84.02c-7.97-4.7,30.45-21.04,30.45-21.04l7.4-14.65
		C97.69,342.47,83.39,247.42,143.1,118.38z"/>
	<path class="st4" d="M1025.53,796.64c-9.92-2.17-38.55,12.83-38.55,12.83c-1.42,0.47-2.54,1.59-3.02,3l-7.17,21.12l-2.51,18.99
		l6.04,4.27l22.86-7.26c0.6-0.19,1.21-0.36,1.82-0.5l18.98-4.47c0,0,21.12-15.21,21.72-18.84c0.58-3.5-6.47-16.83-6.47-16.83
		C1038.97,808.24,1027.63,797.1,1025.53,796.64z"/>
	<path class="st4" d="M657.46,70.74c-0.66,2.97,18.75,33.53,21.07,34.41c1.81,0.69,6.41-2,8.29-3.18c0.56-0.35,1.18-0.62,1.82-0.78
		c0,0,8.87-1.21,11.32-2.79c1.72-1.11,5.06-6.41,5.06-6.41l-14.6-21.9c-2.34-3.5-5.87-6.03-9.94-7.1l-5.33-1.4
		c-2.76-0.73-5.71-0.13-7.97,1.62C667.19,63.21,658.13,67.74,657.46,70.74z"/>
	<path class="st4" d="M731.56,73.29c-0.58-0.06-1.5,10.15-1.5,10.15c-0.23,1.54,0.18,3.1,1.14,4.33l3.13,4.03
		c1.38,1.78,4,1.98,5.64,0.43c0,0,12.66-7.6,12.66-11.96C752.63,78.09,739.79,74.15,731.56,73.29z"/>
	<path class="st5" d="M132.09,433.37c0,0-18.5,8.55-21.68,14.19c-1.53,2.71-0.46,12.46-0.46,12.46l32.41-13.84l32.45-22.21
		l-18.25,7.8L132.09,433.37z"/>
	<path class="st5" d="M203.28,794.96l24.1,12.9c2.17,1.16,4.05,2.81,5.49,4.81l13.5,18.78l-33.16-25.07
		c-1.51-1.15-2.88-2.48-4.05-3.97L203.28,794.96z"/>
	<path class="st5" d="M661.3,181.77c-0.55-0.78-12.15,0.29-17.16,0.79c-1.14,0.11-1.85,1.29-1.42,2.36c0,0,0.7,3.27,0.38,4.34
		c-1.15,3.88-6.91,8.12-6.91,8.12l-0.84,6.93c-0.11,1.14-0.73,2.16-1.68,2.8c0,0-6.29,3.01-6.74,4.53c-0.99,3.33,3.47,5.91,4.5,6.05
		c2.36,0.33,8.75-3.73,8.75-3.73l20.98-23.43C661.17,190.52,662.19,183.03,661.3,181.77z"/>
	<polygon class="st5" points="558.03,254.16 558.62,258.34 569.48,261.85 568.48,251.07 	"/>
	<path class="st5" d="M123.16,534.14c-1.19-5.25,14.9-23.38,14.9-23.38l21.08,26.96l20.13-11.2l2.41-8.98l9.9-1.65l-22.57,23.16
		l-27.34,10.25C141.67,549.32,124.53,540.15,123.16,534.14z"/>
	<polygon class="st5" points="986.11,181.29 990.38,183.91 991.9,181.45 	"/>
	<path class="st5" d="M850.73,206.65c-0.26,0.08-0.51,0.16-0.77,0.24l7.43-6.55l18.17-3.84l-5.3,9.72l-9.87,5.49L850.73,206.65z"/>
	<polygon class="st5" points="822.97,781.43 832.51,773.38 835.25,780.22 	"/>
	<path class="st6" d="M437.28,73.46c0,0-13.85,28.63-18.46,38.17c-0.21,0.43-0.02,0.87,0.18,1.31
		c5.08,11.17,33.54,37.75,33.54,37.75c0.47,0.52,1.28,0.55,1.77,0.05l16.61-16.51c0,0,8.41-20.77,6.03-26.95
		C474.85,101.79,437.28,73.46,437.28,73.46z"/>
	<path class="st6" d="M483.13,137c-1.85,0.79-2.94,17.51-3.14,20.85c-0.02,0.35,0.17,0.68,0.48,0.84l22.19,11.21
		c0,0,3.99-16.76,3.66-18.62C505.87,148.88,485.49,135.98,483.13,137z"/>
	<path class="st4" d="M567.13,90.36c-9.31-10.43-19.36-21.07-30.92-29.18c-8.88-6.17-18.32-11.5-27.67-16.92
		c-10.08-5.51-20.61-10.17-31.18-14.67c-23.18-9.89-47.6-16.6-72.49-20.45c-25.18-4.21-50.87-4.79-76.28-2.53
		c-14.84,1.75-29.68,4.04-44.08,8.12c-15.32,4.13-30.08,10.08-44.52,16.59c-22.6,10-44.46,22.34-63.04,38.76
		c-9.01,8.01-16.97,17.12-24.51,26.51c-10.91,13.39-20.39,27.94-28.03,43.43c-4.52,9.1-7.66,18.79-9.79,28.71
		c2.66-4.96,5.33-9.93,8.29-14.72c4.22-6.7,11.1-15.83,13.9-19.36c6.79-8.81,16.52-21.33,20.13-25.85
		c9.92-12.81,20.64-25.13,33.21-35.43c5.43-4.4,19.49-14.1,29.77-19.72c9.45-5.38,19.37-9.85,29.27-14.31
		c7.19-3.17,21.4-9.04,33.2-12.39c12.39-3.79,25.12-6.32,37.94-8.13c14.57-2.29,40.63-3.08,60.33-1.52
		c15.69,1.35,28.27,3.5,45.97,7.41c14.72,3.03,39.01,11.73,47.61,15.58c14.09,5.97,27.89,12.65,40.88,20.76
		c55.68,34.79,69.13,73.58,77.04,84.49C589.6,138.78,591.54,124.03,567.13,90.36z"/>
	<path class="st4" d="M419.81,272c-32.34,2.51-64.38,7.78-96.16,14.16c-19.42,3.8-38.63,8.61-58.06,12.35
		c-14.42,2.27-28.63,5.52-42.77,9.14c-14.12,3.54-24.27,5.87-37.28,9.36c-18.21,5.09-51.81,13.82-73.87,26.09
		c9.67-2.42,19.63-3.54,29.44-5.24c14.79-2.52,29.58-5.08,44.33-7.83c20.95-4.23,41.64-9.72,62.46-14.53
		c7.95-2.22,18.45-5.43,25.22-6.93c21.43-4.71,42.97-8.85,64.34-13.84c30.32-6.25,60.52-13.11,90.46-21c4-1.03,8-2.07,12.02-3.07
		C433.22,271.06,426.52,271.51,419.81,272z"/>
	<path class="st7" d="M1120.09,251.22l7.88,69.7l-11.94,18.86l13.13,13.37l8.12,1.91l0.95,4.06l8.01,3.43l6.37,8.49l1.08,7.65
		l12.63,11.21l5.98,19.41l-1.38,6.5l-8.66,11.69l2.19,10.79l0.94,11.61l-3.3,24.29l-5.52,13.88l-22.69,19.04l-16.65,15.83
		l-0.48,4.77l-8.35,10.8l-3.12,15.97l-6.44,11.37l-16.38,10.44l-7.75,11.49l-8.47,7.88l-3.85,23.87l-9.54,2.59l-24.15-17.94
		c0,0-26.06-17.75-35.34-15.22c-0.73,0.2-1.31,1.65-0.78,2.18c8.87,8.87,14.57,19.89,14.57,19.89s2.1,7.58,3.25,9.93
		c1.79,3.64,9.14,13.4,9.14,13.4l-16.22,4.03l-16.07,1.05l-2.68-2.45l-9.94-10.97l-14.3-13.27l-4.19-3.39c0,0-14.31-8.92-21.2-7.3
		c-0.66,0.16-1.72,1.91-1.26,2.41c8.02,8.94,15.4,25.62,15.4,25.62l10.17,14.19l-13.21,0.02l-12.44,2.28
		c0,0-19.16-19.04-26.31-24.49c-2.7-2.06-22.29-12.37-31.35-9.76c-0.84,0.24-3.14,1.87-2.5,2.47
		c18.31,17.16,17.62,23.98,21.28,29.25c3.17,4.56,7.34,9,7.34,9l-19.54-0.19l-12.77-9.99c0,0-13.16-7.28-18.67-7.76
		c-1.26-0.11-6.45,0.31-6.26,1.56c0.18,1.16,6.34,6.7,7.98,9.29c1.55,2.45,4.71,10.6,4.71,10.6l-19.39,1.37
		c0,0-12.35-9.63-17.78-11.44c-0.85-0.28-4.94-1.46-4.75-0.59c0.15,0.69,3.62,4.97,4.4,6.84c0.67,1.59,1.52,6.75,1.52,6.75
		l-14.1,0.48l-15.86,3.38l-19.97,3.91l-24.06,4.55l-36.12,2.09l-67.29,2.33l-27.67,0.96l-16.3,2.32l-31.95,5.33l-26.43,7.8
		l-24.83,11.95l-23.4,15.39l-15.19,9.48l-12.69,4.69l-13.39-0.23l-8.54-5.19l-9.46-9.86l-1.17-4.77l-3.27-6.04l-0.77-7.52
		l10.92-9.54l6.27-6.03l7.82-1.53l13.46-5.22l21.63-8.31l13-7.78l13.12-8.48l30.54-17.57l20.08-12.51l19.61-13.85l11.55-10.07
		l11.24-17.1l10.04-7.18l11.83-8.66l11.25-9.65l26.75-17.33c0,0,0.88,6.13,0.84,8.19c-0.05,2.25-1.39,7.59-1.33,8.89
		c0.07,1.5,3.6-2.87,4.29-4.21c1.04-2.02,2.78-8.63,2.78-8.63l0.98-7.87l17.18-8.62l19.66-10.23l-0.22,7.03c0,0,1.22,6.56,1.76,8.72
		c0.63,2.52,1.49,4.98,0.09,10.39c-0.1,0.39,1.44,0.68,1.44,0.68s6.7-5.44,8.43-7.72c1.51-2,3.87-6.52,4.51-8.94
		c1.06-4.02,1.81-16.55,1.81-16.55l-0.39-2.24l13.01-8.03l14.44-7.11l11.14-4.97l2.77,5.34c0,0,2,7.38,1.82,9.91
		c-0.22,3.09-1.56,11.62-1.79,14.78c-0.07,0.97,3.41,0.91,10.83-8.36c1.69-2.11,4.49-9.82,4.49-9.82l2.51-13.46l0.41-10.36
		l14.91-7.32l17.53-10.33l6.12-8.94l18.56-10l9.49-2.89l14.68-13.19l9.55-15.87l15.07-11.7l15.2-8.88l14.39-14.39l8.21-15.74
		l8.07-11.03l11.3-11.97l6.35-10.71l14.98-6.27l23.1-8.07l20.49-4.78l21.61-7.55l13.73-7.53l15.82-13.57l10.52-5.36l14.72-5.36
		l11.81-5.73l8.43-13.68L1120.09,251.22z"/>
	<polygon class="st5" points="1028.5,447.78 1012.98,451.33 1003.39,458.25 1001,468.19 998.1,481.21 999.78,483.13 1007.69,474.64 
		1016.29,468.6 1024.61,465.4 1035.3,463.65 1044.66,455.69 1049.61,449.58 1039.49,448.89 1034.37,450.28 	"/>
	<path class="st7" d="M1124.23,213.76c-0.15-3.22-0.53-6.6-2.58-9.22c-1.06-1.64-2.89-2.54-4.42-3.68
		c-5.63-4.06-11.86-7.06-18.1-10.04c-2.92-1.51-5.8-3.09-8.62-4.77c-2.72-1.74-5.63-3.28-8.87-3.76c-5.82-0.94-10.95,2.58-16.4,3.12
		c-2.57,0.22-5.16,0.07-7.71,0.54c1.23,0.25,2.45,0.53,3.65,0.89c2.38,0.8,4.81,1.51,7.34,1.57c3.63,0.12,7.29-0.4,10.87,0.39
		c4.45,1.1,8.31,5.06,12.94,8.79c5.4,4.4,11.56,7.67,17.39,11.42c2.76,1.97,5.68,3.68,8.48,5.58c0.05,0.07,0.11,0.14,0.16,0.2
		c0.41,3.69,0.24,12.45-1.68,18.71c-2.49,9.46-6.58,18.47-8.67,28.04c3.33-7.46,8.06-14.24,11.29-21.75
		c2.22-4.78,3.49-9.91,4.29-15.1C1124.2,221.08,1124.36,217.41,1124.23,213.76z"/>
	<path class="st7" d="M239.15,721.17c-2.39,1.98-6.32,3.83-9.89,3.3c-7.68-1.74-13.31-12.82-14.08-18.31
		c-0.03-0.32,0.32-1.92,0.53-2.21c0.04-0.07,0.11-0.19,0.16-0.29c1.63-1.97,2.63-0.05,5.73-5.37c2.09-3.52,0.47-5.94,1.13-7.23
		c0.85-2.29,2.42-4.54,3.65-5.64c3.23-2.47,6.31-5.2,8.81-8.43c1.49-2.31,2.81-4.75,4-7.22c1.29-2.99,2.11-6.15,3.04-9.26
		c0.75-2.51,0-9.52,1.23-11.91c-1.29,2.02-0.98,12.22-4.16,18.4c-1.44,2.81-3.88,7.07-7.22,10.37c-1.3,1.18-2.85,2.87-3.71,3.54
		c-1.49,1.09-3.01,2.18-4.11,3.7c-1.46,1.85-2.42,4.04-3.18,6.25c-0.57,1.76-1.09,4.41-1.58,5.2c-0.82,1.94-2.7,3.23-4.37,5.24
		c-1.19,1.87-1.55,4.27-1.19,6.44c1.6,7.37,9.31,23.82,14.65,22.47c4,0.62,9.75-2.13,12.57-4.86c3.85-4.26,3.77-12.18,4.93-17.66
		C244.43,712.83,243.03,717.38,239.15,721.17z"/>
	<polygon class="st7" points="752.3,429.62 755.38,413.75 745.36,406.72 727.65,400.89 697.99,395.61 727.28,397.58 751.93,396.41 
		764.58,402.95 767.24,412.82 759.01,425.74 742.09,442.73 	"/>
	<path class="st7" d="M528.72,755.3l6.86,2.94l8.7-0.98l48.65,17.52l12.01-1.72l15.56-11.4l13.24-4.78l13.73-4.66l9.19-2.82
		c0,0,3.35-3.38,3.65-4.83c0.35-1.69-1.81-6.32-1.81-6.32l-9.56-6.13l-15.2-6.5l-24.51-1.59l-23.41,1.47l-22.55,3.68l-6.74,5.76
		l-17.65,4.78l-9.44,5.15l-3.43,4.41L528.72,755.3z"/>
	<path class="st7" d="M1252.88,608.04c-0.54-4.36-1.93-8.54-3.65-12.57c-2-4.93-4.27-9.76-7.19-14.22
		c-4.3-6.72-10.52-16.31-19.09-17.57c-0.07-0.01-1.65,0.47-1.72,0.44c0.47,0.26,3.69,1.34,4.19,1.56
		c8.65,4.37,12.28,14.19,16.59,22.3c3.72,7.72,7.79,19.65,7.8,24.33c-0.09,7.53-0.39,13.14-3.49,19.19
		c-2.97,5.49-9.4,10.82-17.44,13.6c-9.85,3.34-20.04,5.71-29.53,10.07c-11.52,4.88-23.36,8.98-34.61,14.49
		c-15.71,6.8-30.44,15.63-46.18,22.32c-8.7,3.27-17.22,4.02-26.87,6.91c-4.39,1.52-8.87,2.98-12.91,5.32
		c-3.32,2.21-6.68,4.33-10.35,5.92c-1.9,0.97-4,1.39-6.03,1.98c-0.16,0.04-0.32,0.09-0.47,0.13c-3.98,1.02-8.05,1.76-11.92,3.17
		c-7.13,3.02-14.28,6.02-21.14,9.62c-4.04,2.12-8.01,4.38-12.02,6.57c-2.2,1.08-6.66,3.17-6.66,3.17l-2.05,5.32
		c0,0,36.78-16.23,44.02-18.63c1.71-0.37,7.89-1.7,11.22-2.62c6.35-1.35,11.78-4.95,17.17-8.38c3.67-1.95,7.64-3.3,11.56-4.67
		c7.88-2.5,18.67-3.74,27.79-7.22c13.32-5.58,25.71-13.11,38.9-18.97c10.77-5.2,21.73-9.92,32.9-14.16
		c8.79-3.58,17.45-7.5,26.62-10.02c5.78-1.74,11.72-3.21,17.09-6.03c5.68-3.17,10.82-7.76,13.74-13.64
		c2.49-4.99,3.45-10.56,3.85-16.08C1253.34,615.79,1253.52,611.89,1252.88,608.04z"/>
	<path class="st7" d="M1223.54,566.16c-0.36-1.8-0.79-3.64-1.73-5.23c-0.89-1.54-2.26-2.72-3.57-3.9
		c-4.09-3.62-8.64-6.67-13.25-9.58c-9-5.62-18.47-11.09-29.16-12.48c-4.71-0.71-9.4-0.79-14.26,0.05c-0.65,0.11-2.13,0.61-2.22,0.71
		c-0.09,0.1-0.19,0.29-0.17,0.42c0.1,0.77,0.48,1.51,0.91,2.12c0,0,0,0.01,0,0.01c0.05,0.09,3.88,4.55,6,6.73
		c8.12,8.38,16.85,13.29,24.14,22.54c2.83,3.35,5.49,6.84,8.28,10.23c1.96,2.45,4.18,4.82,7.08,6.14c2.64,1.21,5.58,1.8,8.48,1.76
		c1.67,0.04,3.36-0.34,4.69-1.39c3.19-2.49,4.64-6.59,5.3-10.46C1224.47,571.26,1223.91,568.69,1223.54,566.16z M1218.77,576.52
		c-1.25,1.45-0.93,1.19-2.83,2.04c-4.98,0.41-8.03-0.2-11.96-2.89c-4.97-4.49-11.56-14.81-18.59-20.06
		c-7.19-5.61-15.41-9.72-22.48-15.5c-0.92-0.75-3.21-3.27-3.14-3.46c0.81-2.02,4.72-0.41,7.01-0.04c2.78,0.45,5.12,1.4,8.11,2.27
		c8.73,2.47,16.52,7.14,24.04,12.1c7.74,4.93,15.4,9.2,20.64,15.25c0.46,1.01,0.55,1.18,1.14,5.51c0,0.02,0,0.05,0,0.07
		c-0.04,0.27-0.09,0.54-0.14,0.82c-0.07,0.28-0.22,0.88-0.37,1.22C1220.05,574.34,1219.58,575.49,1218.77,576.52z"/>
	<path class="st7" d="M1182.4,592.48c-0.84-2.25-1.79-4.55-3.49-6.3c-4.22-4.01-7.44-5.97-11.18-9.26
		c-6.4-4.92-12.81-9.89-19.64-14.21c-5.83-3.54-12.09-6.7-18.98-7.34c-3.87-0.22-7.85-0.08-11.61,0.89
		c-1.95,0.54-3.51,2.05-4.66,3.65c0.01-0.16,0.04-0.32,0.11-0.5c-0.67,1.33,0.55,2.52,1.46,3.37c1.36,1.25,2.67,2.56,3.94,3.89
		c6.27,6.91,11.46,14.72,17.64,21.72c7.51,8.47,17.06,15.04,27.7,18.94c2.04,0.76,4.14,1.53,6.33,1.69c1.37-0.03,2.7-0.39,4-0.8
		c4.23-1.27,6.29-5.07,7.86-8.89C1182.76,597.18,1183,594.73,1182.4,592.48z M1177.35,598.5c-0.03,0.05-0.08,0.12-0.16,0.23
		c-0.06,0.08-0.12,0.16-0.17,0.23c-0.14,0.23-0.53,0.63-0.67,0.79c-1.05,0.79-2.24,1.38-3.49,1.8c-0.08,0.03-0.17,0.05-0.25,0.08
		c-0.07,0.02-0.11,0.03-0.15,0.04c-4.14,0.98-6.02-0.53-10-1.93c-8.93-3.53-17.39-9.63-23.34-15.08
		c-6.66-6.18-12.51-13.24-19.48-19.07c-1.53-1.19-3.1-2.34-4.74-3.36c-0.85-0.55-2.1-1.23-2.06-2.31c0.61-0.65,2.01-1.59,3.05-2.03
		c0.88-0.31,1.92-0.39,2.91-0.39c5.76,0.22,10.39,1.11,15.48,3.23c8.44,4.07,15.8,10.03,23.09,15.83
		c7.19,5.2,13.72,10.52,18.88,14.76c1.87,1.8,2,2.11,2.79,3.92C1178.54,596.36,1178,597.46,1177.35,598.5z"/>
	<path class="st7" d="M1118.13,608.62c-1.41-2.14-3.4-3.79-5.28-5.5c-3.45-3.1-5.65-4.9-9.51-8.24c-2.56-2.22-5.63-3.64-8.6-5.21
		c-5.09-2.78-10.51-5-15.89-7.08c-0.26-0.08-0.67-0.2-0.82-0.16c-0.02,0.01-0.23,0.07-0.2,0.07c0.95,0.04,2.2,0.98,2.95,1.47
		c2.13,1.56,4.4,2.91,6.6,4.36c3.05,2.01,5.93,4.26,8.9,6.39c3.28,2.22,5.07,3.81,7.95,6.91c3.74,4.16,8.15,7.72,11.6,12.14
		c0.13,0.18,0.25,0.36,0.38,0.54c0.09,0.15,0.21,0.36,0.33,0.58c-1.19,1.17-1.74,1.6-3.07,1.84c-5.04-0.12-8.01-0.08-12.08-2.54
		c-3.32-2.33-8.31-8.08-12.27-12.19c-3.32-3.61-6.58-7.29-9.7-11.08c-1.72-2.3-4.3-6.11-1.12-8.41c-4.57,2.31,0.15,9.37,1.84,12.29
		c3.9,6.15,8.15,12.07,12.74,17.71c2.22,2.59,4.3,5.36,6.9,7.58c1.88,1.45,4.08,2.47,6.38,3.04c1.98,0.38,4.01,0.48,6.02,0.58
		c1.02,0.09,2.04-0.07,2.99-0.44c1.7-0.85,3.24-2.21,4.29-3.8C1121.16,616.01,1120.32,611.69,1118.13,608.62z"/>
	<path class="st7" d="M1201.68,577.57c-0.29,0-0.57,0.01-0.86,0.03c-0.06-0.93-0.44-2.38-1.52-2.01c0,0-0.01,0-0.01,0.01
		c-7.41,2.48-14.07,6.94-19.81,12.2c-1.21,1.07-1.44,2.84-1.03,4.33c0.19,0.49,0.41,1.18,0.99,1.29c0.45,0.21,0.81-0.29,1.11-0.56
		c0.05-0.06,0.11-0.11,0.16-0.17c3.87-2.87,11.26-8.28,16.91-11.21c2.03-1.09,3.17-1.08,3.22-3.56c0-0.02,0-0.04,0-0.06
		C1201.11,577.75,1201.39,577.66,1201.68,577.57z"/>
	<path class="st7" d="M1152.72,597.67c-3.58-0.45-7.09,1.6-10.55,2.36c-6.33,1.88-12.72,3.61-18.9,5.93
		c-2.54,0.96-3.93,1.28-4.83,1.51c-0.93,0.21-2.05,0.19-2.48,1.21c-0.78,1.78-0.8,5.36,1.73,5.54c0.63,0.14,1.28,0.07,1.89-0.08
		c0.32-0.09,1.3-0.35,0.45-0.12c2.88-0.77,5.72-1.7,8.56-2.58c4.42-1.32,8.7-3.14,12.83-5.18c0.93-0.49,1.85-1.02,2.76-1.57
		c1.51-0.68,3.02-1.38,4.51-2.1c0.16-0.08,0.29-0.15,0.43-0.22c0.64-0.15,1.26-0.3,1.85-0.45c0.87-0.32,2.46-0.22,2.91-1.09
		C1154.39,599.74,1154.33,597.55,1152.72,597.67z"/>
	<path class="st7" d="M1055.33,627.52c0.01,0.23,0.02,0.46,0.01,0.17c0-0.09-0.01-0.18-0.01-0.26c0-0.05-0.01-0.09-0.01-0.14
		c0,0.02,0.01,0.04,0.01,0.07c-0.1-1.97-0.73-3.87-1.73-5.57c-2.82-4.7-6.78-8.67-11.33-11.71c5.57,5.82,11.27,15.24,10.7,18.45
		c-0.02,0.06-0.03,0.12-0.05,0.16c-0.58,1.3-1.4,2.27-3.03,3.92c-3.58,2.62-8.22,1.86-13.21,2.67c-2.02,0.32-4.06-0.07-6.08-0.24
		c-2.23-0.31-4.49-0.39-6.7-0.77c-4.64-1.01-11.37-4.74-16-8.21c3.48,4.32,9.88,10.34,16.09,12.73c3.78,1.02,7.61,2.13,11.51,2.56
		c3.89-0.26,7.87,0.04,11.62-1.21c3.6-0.81,5.82-4.04,7.41-7.13C1055.34,631.29,1055.52,629.39,1055.33,627.52z"/>
	<path class="st7" d="M1055.33,627.52c0-0.06-0.01-0.12-0.01-0.17c0,0.02,0,0.05,0,0.07
		C1055.32,627.45,1055.32,627.49,1055.33,627.52z"/>
	<path class="st7" d="M1097.63,615.08c-2.67-1.13-5.63-1.43-8.51-1.26c-4.3,0.2-8.4,1.74-12.67,2.17
		c-7.87,1.38-16.28,1.22-23.44,5.18c8.24-1.5,16.67,0.84,24.89-1.07c6.73-1.59,12.53-5.38,19.5-4.96
		C1097.56,615.13,1098.04,615.23,1097.63,615.08z"/>
	<path class="st7" d="M988.02,635.81c-0.53-1.79-1.98-3.03-3.22-4.34c-0.76-0.79-1.58-1.53-2.45-2.19
		c-0.08-0.05-0.18-0.01-0.23,0.06c-0.21,0.31-0.2,0.73,0.01,1.02c0,0,0,0.01-0.01,0.02c0.19,0.21,0.36,0.44,0.54,0.66
		c1.66,2.33,3.45,4.56,3.9,6.28c0,0.01,0,0.01,0,0.02c-0.2,2.95,0.21,1.36-0.59,3.3c-1.05,2.87-6.14,6.37-8.91,7.11
		c-4.28,1.07-8.21,0.1-11.53-1.22c-3.25-1.15-7.28-3.77-9.48-5.42c-2.19-1.88-3.87-4.26-5.84-6.36c2.13,3.59,3.83,7.58,6.98,10.42
		c8.58,8.47,19.94,13.24,28.51,1.9C988.05,643.84,989.04,639.7,988.02,635.81z"/>
	<path class="st7" d="M933.71,646c-0.52-5.19-4.6-7.98-6.93-12.53c0.97,3.15-4.17-0.46,3.25,10.77c1.46,2.21,0.55,3.09,0.5,5.39
		c-0.02,0.15-0.04,0.29-0.06,0.44c-0.16,0.58-0.06,0.41-1.19,1.56c-2.04,2.13-3.79,3.2-7.1,4.46c-5.16,2.19-11.39,1.41-16.47-2.09
		c-1.99-1.46-4.28-2.37-6.46-3.49c-1.63-0.84-3.14-1.88-4.53-3.08c0.1,0.13,0.2,0.27,0.3,0.4c1.94,2.92,5.88,5.89,8.06,7.54
		c1.91,1.76,3.73,3.66,6.02,4.95c2.96,1.63,6.41,2.5,9.79,2.23c5.22-0.8,9.95-3.85,12.79-8.31
		C932.8,652.28,933.94,648.16,933.71,646z"/>
	<path class="st7" d="M886.18,658.05c-0.1-1.47-0.16-2.97-0.82-4.32c-1.35-2.84-4.38-4.18-7.1-5.4c-0.49-0.2-1-0.35-1.51-0.5
		c0.07,0.05,0.15,0.09,0.22,0.14c2.11,1.4,3.82,3.16,5.62,5.04c2.1,2.74,1.92,3.59,1.61,6.59c-0.01,0.02-0.01,0.04-0.02,0.06
		c-0.64,1.82-1.12,2.27-2.99,3.14c-2.44,1.22-9.57,0.26-11.9-0.46c-2.86-0.89-5.2-2.77-7.84-4.1c-8.2-4.77-7.6-4.75-11.47-7
		c1.73,1.93,3.6,3.72,5.28,5.7c1.3,1.19,2.49,2.49,3.87,3.58c0.98,0.77,2.11,1.34,3.06,2.16c1.1,0.99,3.7,3.2,5.97,4.26
		c1.71,0.76,3.58,1.21,5.42,1.54c4.21,0.58,9.51,0.07,11.46-4.31C886.07,662.29,886.36,660.15,886.18,658.05z"/>
	<path class="st7" d="M840.21,659.68c-1.5-3.02-4.39-5.09-7.46-6.33c2.41,2,4.49,4.16,5.73,6.65c1.05,1.89,1.69,5.64,1.91,7.47
		c-0.43,0.22-0.56,0.19-1.52,0.17c-2.94-0.52-6.62-2.03-9.93-4.22c-2.95-1.71-6.1-3.03-8.94-4.94c-1.35-0.87-2.89-1.86-4.21-2.53
		c0.6,0.6,1.2,1.2,1.79,1.8c3.19,3.53,6.12,5.99,9.93,8.75c1.8,1.28,3.41,2.87,5.41,3.82c2.1,0.86,4.32,1.93,6.64,1.82
		C845.01,671.47,841.56,662.79,840.21,659.68z"/>
	<path class="st7" d="M1219.58,583.99c-3.23,2.44-6.66,5.37-10.5,6.41c-0.87,0.23-1.76,0.4-2.65,0.46c0.33,0.09,0.65,0.18,0.99,0.24
		c3.63,0.77,7.21-0.68,10.24-2.59c5.16-3.18,8.35-8.6,12.85-12.55C1226.38,577.74,1221.78,582.15,1219.58,583.99z"/>
	<path class="st7" d="M1180.35,606.19c-3.29,2.41-6.16,2.91-10.15,2.93c-3.32,0.01-6.64,0.14-9.96,0.26
		c-1.85,0.12-3.64,0.65-5.39,1.26c1.16-0.07,2.32-0.05,3.48,0.04c5.3,0.83,10.66,2.67,16.08,1.89c6.99-1.47,9.85-8.33,13.16-13.71
		C1185.21,601.33,1182.89,603.92,1180.35,606.19z"/>
	<path class="st7" d="M1120.37,622.98c-2.95,0.7-5.97,0.98-9,0.9c-3.83,0.02-7.65,0.44-11.43,1c-1.67,0.29-3.63,0.82-5.08,1.28
		c1.03-0.03,2.06-0.05,3.09-0.03c5.32,0.12,10.58,1.59,15.92,1.04c4.99-0.67,10.26-2.95,12.89-7.44
		C1125.07,621.5,1122.3,622.51,1120.37,622.98z"/>
	<path class="st7" d="M1052.47,639.92c-1.39,0.75-2.89,1.28-4.42,1.69c-3.43,0.88-7.14,2.3-12.23,2.66
		c6.1,1.94,13.42,0.13,17.66-4.73C1054.44,638.54,1052.94,639.73,1052.47,639.92z"/>
	<path class="st7" d="M827.08,670.55c2.15,1.43,4.4,2.95,6.96,3.49c1.65,0.31,5.02-0.02,5.75-0.52
		C835.4,673.23,831.29,671.68,827.08,670.55z"/>
	<path class="st7" d="M875.17,670c-3.43,0.05-6.26-1.31-9.4-2.68c-5.99-2.07-12.82-4.74-19.03-2.12c5.19-0.29,9.5,2.14,14.44,3.65
		c4.07,0.91,8.29,2.75,12.5,1.78C874.2,670.47,876.5,669.94,875.17,670z"/>
	<path class="st7" d="M943.92,652.74c-5.8,0.59-11.02,3.34-15.49,6.97c-2.77,1.8-6.84,3.87-9.39,4.69
		c-2.95,0.68-6.12,0.54-9.05-0.18c2.69,1.7,5.91,2.84,9.11,2.82c3.59-0.41,7.14-1.69,10.23-3.55c4.82-3.77,9.88-7.34,15.72-9.36
		c1.64-0.55,3.01-0.9,4.67-1.31C947.8,652.66,945.85,652.52,943.92,652.74z"/>
	<path class="st7" d="M983.63,654.51c-3.16,1.27-6.52,2.18-9.94,2.29c2.03,0.76,4.36,0.89,6.4,0.09c1.46-0.58,2.75-1.48,3.91-2.53
		C983.87,654.41,983.75,654.46,983.63,654.51z"/>
	<path class="st7" d="M1032.78,575.03c4.8,3.1,9.91,5.96,15.65,6.74C1043.24,579.46,1038.23,576.72,1032.78,575.03z"/>
	<path class="st7" d="M1060.77,686.1c-6.56,2.32-13.46,3.38-20.3,4.54c-18.67,3.71-37.16,8.65-56.1,10.88
		c-10.81,0.94-21.67,0.29-32.47-0.41c-19.74-0.74-39.45-2.16-59.07-4.49c-9.52-0.74-19.11-0.87-28.66-0.72
		c-7.3,0.26-14.75,0.5-21.65,3.15c7.38-1.02,14.77,0.27,22.1,1.12c9.92,1.39,19.88,2.51,29.84,3.54c14.98,1.77,30,3.06,45.06,3.74
		c5.04,0.4,10.1,0.39,15.15,0.76c4.7,0.19,9.39,0.72,14.1,0.68c5.62,0,11.25,0.1,16.84-0.52c6.69-0.72,13.28-2.14,19.9-3.3
		c8.68-1.65,17.28-3.79,25.66-6.63c6.1-2.03,12.02-4.55,18.09-6.65c4.88-1.72,9.45-4.11,14.02-6.51
		C1062.46,685.57,1061.61,685.84,1060.77,686.1z"/>
	<path class="st7" d="M1027.77,693.88c-11.16,5.04-22.28,7.51-35.14,9.23c-10.09,1.02-20.23,1.65-30.34,2.46
		c-7.62,0.43-15.26-0.09-22.84-0.89c-4.43-0.55-8.8-1.68-13.22-2.2c-1.4,0.35-1.64,2.01-1.67,3.3c-5.96-2.18-12.1-3.91-18.46-4.2
		c10.44,2.81,19.36,9.11,29.09,13.59c7.14,3.65,14.49,7.16,22.55,8.08c3.4,0.4,6.82,0.88,10.24,0.78c3.05-0.16,6.06-0.8,9.02-1.5
		c8.56-2.02,16.9-4.84,25.04-8.14c9.78-3.8,21.12-6.84,28.34-14.82C1031.26,697.69,1030.78,692.55,1027.77,693.88z"/>
	<path class="st8" d="M758.81,668.18L758.81,668.18c-0.04,0.01-0.08,0.02-0.12,0.03l-0.31,0.06l-0.36,0.08l-0.42,0.11l-0.96,0.3
		l-1.26,0.42l-1.05,0.37l-0.92,0.34l-0.83,0.31l-0.74,0.28l-0.61,0.23l-0.51,0.19l-0.53,0.2l-0.54,0.2l-0.51,0.19l-0.52,0.19
		l-0.5,0.18l-0.48,0.17l-0.51,0.19l-0.51,0.2l-0.48,0.19l-0.48,0.2l-0.51,0.22l-0.51,0.22l-0.49,0.22l-0.47,0.21l-0.45,0.2
		l-0.47,0.21l-0.47,0.21l-0.45,0.2l-0.42,0.18l-0.42,0.19l-0.42,0.18l-0.41,0.18l-0.41,0.18l-0.38,0.17l-0.36,0.16l-0.35,0.15
		l-0.36,0.16l-0.37,0.16l-0.36,0.16l-0.36,0.16l-0.36,0.16l-0.35,0.16l-0.38,0.17l-0.38,0.17l-0.39,0.17l-0.41,0.18l-0.4,0.18
		l-0.41,0.18l-0.41,0.17l-0.37,0.16l-0.34,0.14l-0.32,0.13l-0.3,0.12l-0.35,0.14l-0.38,0.15l-0.36,0.14l-0.34,0.14l-0.35,0.14
		l-0.36,0.15l-0.33,0.13l-0.32,0.13l-0.32,0.13l-0.3,0.13l-0.28,0.12l-0.25,0.11l-0.29,0.13l-0.31,0.14l-0.32,0.14l-0.32,0.14
		l-0.32,0.14l-0.31,0.14l-0.31,0.14l-0.31,0.14l-0.28,0.13l-0.29,0.13l-0.3,0.14l-0.3,0.14l-0.29,0.13l-0.28,0.13l-0.27,0.12
		l-0.29,0.13l-0.3,0.14l-0.29,0.13l-0.28,0.13l-0.28,0.13l-0.28,0.12l-0.3,0.14l-0.31,0.14l-0.3,0.14l-0.31,0.14l-0.33,0.15
		l-0.34,0.15l-0.32,0.15l-0.33,0.15l-0.36,0.16l-0.36,0.16l-0.36,0.16l-0.36,0.16l-0.37,0.16l-0.36,0.16l-0.43,0.19l-0.48,0.21
		l-0.44,0.19l-0.41,0.18l-0.44,0.19l-0.47,0.2l-0.46,0.2l-0.52,0.23l-0.51,0.22l-0.46,0.2l-0.43,0.19l-0.45,0.2l-0.45,0.2l-0.46,0.2
		l-0.46,0.2l-0.44,0.19l-0.43,0.19l-0.38,0.17l-0.35,0.16l-0.36,0.17l-0.37,0.18l-0.39,0.19l-0.41,0.2l-0.41,0.2l-0.4,0.2l-0.4,0.2
		l-0.39,0.2l-0.35,0.18l-0.32,0.17l-0.33,0.17l-0.34,0.18l-0.31,0.16l-0.29,0.15l-0.33,0.17l-0.35,0.18l-0.36,0.18l-0.36,0.18
		l-0.33,0.16l-0.3,0.15l-0.28,0.14l-0.27,0.14l-0.31,0.15l-0.33,0.16l-0.36,0.19l-0.38,0.2l-0.43,0.22l-0.45,0.23l-0.4,0.2
		l-0.36,0.18l-0.36,0.18l-0.36,0.18l-0.32,0.16l-0.29,0.14l-0.26,0.13l-0.23,0.11l-0.21,0.1l-0.18,0.09"/>
	<path class="st9" d="M808.71,814.55c-1.02,0.19-1.01,2.81,0,3C809.73,817.37,809.73,814.75,808.71,814.55z"/>
	<path class="st10" d="M745.25,662.76c-6.17,2.43-16.71,15.65-22.79,18.29c-8.46,4.46-16.68,9.62-25.02,14.32
		c-6.65,3.62-13.25,6.97-19.87,10.65c-4.43,2.56-8.77,5.27-13.36,7.54c-3.14,1.33-6.36,2.44-9.59,3.54
		c-7.32,2.61-27.48,7.46-34.77,10.16c-2.52,0.93,15.93,4.02,17.6,3.43c3.63-1.27,11-7.31,14.6-8.65
		c15.68-6.11,29.67-15.64,44.19-23.99c5.93-3.25,12.29-5.6,18.31-8.67c2.76-1.22,5.36-2.76,8.04-4.11
		c4.09-1.87,8.31-3.45,12.34-5.47c7.79-3.45,14.83-8.39,22.68-11.69C751.85,669.27,750.7,660.61,745.25,662.76z"/>
	<path class="st10" d="M668.06,756.36c-0.4-1.25-1.04-2.47-2.14-3.23c-1.94-0.93-4.46-1.41-5.74-2.99
		c-1.45-1.67-0.67-4.69,0.13-5.61c-0.84,1.31-1.96,2.76-1.46,4.61c0.38,1.21,0.93,2.45,1.91,3.3c1.4,1.28,3.17,2.02,4.77,2.98
		c1.25,1.21,1.37,2.65,1.36,3.11c-0.02,0.12-0.05,0.31-0.07,0.42c-0.06,0.21-0.16,0.53-0.23,0.74c-0.05,0.12-0.18,0.44-0.24,0.56
		c-0.38,0.84-1.25,2.44-1.4,2.82c-2.23,2.99-4.63,5.87-7.17,8.61c-4.75,5.25-8.94,9.8-13.86,13.12
		c-6.24,4.86-13.65,7.68-20.91,10.62c-6.32,2.75-12.55,5.76-18.6,9.06c-5.05,3.07-10.24,6.01-14.7,9.91
		c-0.72,0.58-1.3,1.31-1.75,2.11c-0.7,1.39-1.04,2.96-1,4.51c0.03,1.56,0.58,3.6,2.4,3.79c1.36,0.17,2.73,0.46,4.09,0.19
		c2.81-0.57,4.68-1.21,7.43-1.94c3.89-1.28,7.61-2.27,11.61-3.21c-2.12,0.18-11.13,1.29-14.01,0.86c-1.72-0.26-2.86-1.95-2.4-3.62
		c0.18-0.67,0.51-1.33,1.06-1.82c8.11-7.16,16.66-11.72,26.46-16.28c7.63-3.5,15.46-6.7,22.12-11.91
		c6.34-4.45,11.5-10.31,16.36-16.29C665.23,766.48,669.58,762.22,668.06,756.36z"/>
	<path class="st10" d="M589.51,814.58c0.07-0.06,0.15-0.12,0.22-0.18c0,0,0,0,0,0C589.75,814.38,589.57,814.53,589.51,814.58z"/>
	<path class="st7" d="M531.59,763.29c-4.02-0.9-8.2-1.39-12.3-0.83c-7.21,0.98-13.09,2.96-19.55,6.63
		c-4.4,2.19-8.74,4.56-12.62,7.59c-6.91,5.71-12.61,12.72-19.37,18.61c-9.78,10.71-23.7,19.81-36.58,27.97
		c-5.5,3.23-11.19,6.13-16.93,8.89c-4.27,2.2-8.71,4.01-13.3,5.44c-2.93,1.12-4.96,1.64-8.17,2.11c-3.28,0.3-6.59,0.5-9.79,1.34
		c-2.97,0.68-5.52,2.38-8.24,3.65c-3.38,1.6-7.03,2.5-10.58,3.65c-3,0.9-5.84,2.25-8.82,3.22c-1.73,0.51-6.44,1.53-9.68,1.87
		c-2.19,0.2-4.39,0.77-6.6,0.57c-0.67-0.08-1.33-0.23-1.96-0.44c-0.75-0.28-1.47-0.63-2.2-0.95c-0.2-0.07-0.92-0.46-0.54-0.21
		c1.5,1.03,2.99,2.16,4.79,2.63c1.57,0.45,0.96,5.6,2.58,5.68c5.1,0.19,41.22-3.08,20.83-5.59c-1.15-0.14-0.85-2.08,0.27-2.39
		c3.57-1,6.72-1.68,10.54-3.21c3.42-1.3,6.42-3.53,9.95-4.57c2.73-0.87,7.77-1.35,11.46-2.22c3.35-0.77,6.53-2.1,9.8-3.14
		c10.34-3.77,19.84-9.56,29.19-15.29c8.14-4.76,15.56-10.63,22.83-16.61c5.36-4.53,10.95-8.82,15.96-13.75
		c4.29-4.01,9.38-9.46,13.16-12.67c6.86-5.45,14.54-10.16,23-12.62c2.89-0.48,11.15-3,16.05-2.99c2.87-0.14,5.7,0.42,8.56,0.53
		c2.27,0.01,4.7-0.28,6.57-1.67c2.45-2.04,3.69-5.19,4.47-8.2C541.74,763.12,538.65,764.91,531.59,763.29z"/>
	<path class="st7" d="M479.85,726.41c-2.01,1.43-3.81,3.13-5.91,4.43c-3.93,2.32-7.99,4.47-12.17,6.31
		c-4.49,1.6-7.75,2.44-12.45,3.44c-10.54,1.46-21.23,3.14-30.7,8.28c-11.25,5.57-22.1,11.97-32.07,19.63
		c-6.15,4.49-11.78,9.65-17.97,14.09c-5.74,3.93-11.78,7.46-17.8,10.95c-6.52,3.33-12.67,7.41-19.37,10.38
		c-2.81,1.12-5.96,1.56-9.58,1.98c-6.91,0.77-10.58-2.29-13.35-7.61c-1.63-2.33-4.85-2.06-7.33-3.36c-0.19-0.1-0.86-0.34-0.97-0.63
		c-0.07-0.17,0.42-0.69,0.43-0.71c0.38-0.89,0.48-1.19,1-2c0.15-0.33,0.15-0.75,0-1.08c-0.27-0.44-0.53-0.11-0.75,0.27
		c-0.2,0.27-0.38,0.54-0.56,0.82c-0.02,0.04-0.04-1.42-0.07-1.39c-0.1-0.62-0.37,0.34-0.97,0.38c-0.44,0.29-0.82,0.68-1.15,1.12
		c-0.02-0.01-0.03-0.03-0.05-0.05c-0.53-0.27-1.01,0.24-1.23,0.69c-0.47,0.98-0.58,2.26-0.16,3.29c-0.02,0.21-0.04,0.41-0.04,0.6
		c-0.01,0.16,0.01,0.32,0.01,0.47c-3.17,2.51-1.91,6.73-0.94,10.26c0.03,0.62,0.08,1.24,0.15,1.85c0.16,1.04,0.38,2.17,1.03,3.01
		c0.83,0.89,1.52-0.56,1.55-1.31c0.05-1.31-0.28-3.05-0.66-4.68c0-1.37,1.19-2.93,1.1-3.45c-0.45-2.71,0.38-2.84,0.41-2.88
		c0.35-0.39,1.34-0.41,2.06-0.43c2.05-0.2,4.43,0.95,5.35,1.96c0.95,1.03-0.4,5.71,0.82,7.49c5.46,7.75,12.68,6.23,20.32,1.25
		c0.91-0.59,1.89-1.08,2.91-1.44c6.52-2.29,12.45-6.65,18.62-9.72c6.46-3.5,12.74-7.37,18.9-11.39c5.19-3.64,9.97-7.81,14.94-11.73
		c4.73-3.62,9.52-7.21,14.46-10.54c10.41-7.01,26.06-21.95,48.5-23c4.24-0.94,11.99,0.79,16.05-0.77c4.11-1.9,7.96-4.35,11.65-6.95
		c2.35-1.69,4.26-3.88,6.38-5.83c3.13-2.99,6.35-5.9,9.4-8.98C486.41,721.78,483.07,724.01,479.85,726.41z"/>
	<path class="st7" d="M483.45,724.7c-8.33,6.62-17.18,12.57-25.61,19.06c-9.18,6.54-19.13,11.97-27.93,19.05
		c-12.49,10.17-23.38,22.13-35.3,32.95c-3.79,3.65-7.33,7.54-10.85,11.45c-2.82,3.25-5.67,6.48-9.01,9.21
		c-8.99,7.38-21.38,10.54-33.88,10.3c-5.08,0.22-10.02-1.06-14.65-3.07c-0.26-0.06-0.69-0.32-0.78-0.31
		c0.42,0.26,0.84,0.51,1.26,0.76c2.5,1.52,5.12,2.9,7.92,3.78c3.28,0.95,6.68,1.31,10.06,1.66c11.19,1.02,22.51-3.36,31.16-10.31
		c3.86-3.14,6.96-7.03,10.15-10.81c2.73-3.27,5.77-6.27,8.79-9.27c10.38-10.38,22.65-25.43,35.25-35.29
		c6.29-4.99,13.54-8.76,21.35-12.2c4.76-2.98,9.21-6.4,13.75-9.7c6.85-4.72,13.64-9.69,19.42-15.71c3.38-3.13,7.13-5.94,10.46-9.23
		C491.26,719.77,487,721.88,483.45,724.7z"/>
	<path class="st7" d="M397.24,793.82c-5.17,4.26-20.59,17.03-26.32,20.64c-4.78,2.98-9.99,5.21-15.3,7.06
		c-7.36,2.33-14.35,5.48-22.19,4.72c4.74,1.68,10.8,1.67,15.69,1.67c5.5-0.95,10.75-1.97,15.9-4.16c6.1-2.62,11.26-6.79,15.2-10.31
		c2.98-2.7,5.1-6.74,8.02-9.51c1.35-1.36,7.54-7.68,8.86-8.77C395.4,796.09,398.8,792.69,397.24,793.82z"/>
	<path class="st7" d="M436.31,694.84c-2.73,1.96-5.68,3.6-8.37,5.6c-2.28,2.24-4.04,3.51-6.47,5.65c-3.59,3.54-7.1,7.17-10.54,10.86
		c-1.52,1.88-6.14,3.45-8.24,4.29c-3.04,0.44-6.15,0.13-9.2,0.52c-4.78,0.59-11.39,1.75-15.81,2.14c-1.85,0.1-3.72-0.44-5.55-0.06
		c-2.72,0.38-4.01,3.06-5.27,5.18c-2.48,4.19-4.38,8.75-5.12,13.59c-0.59,3.93,0.36,7.85,0.7,11.76c0.22,2.72,0.5,7.23,0.42,9.6
		c-0.29,2.36-0.75,3.94-2.06,6.19c-0.87,1.53-3.28,3.77-4.38,6.11c-1.01,2.72-1.46,5.15-2.66,7.44c-1.4,2.45-3.69,5.08-5.85,7.39
		c-2.49,1.64-6.59-0.24-8.69,10.56c4.07-3.51,18.06-7.14,21.39-11.42c1.58-2.31-2.5-9-1.72-11.67c0.33-1.35,0.67-3.36,2.3-5.53
		c1.13-1.6,1.91-3.41,2.42-5.3c0.77-2.45,0.71-5.03,0.57-7.56c-0.11-3.3-0.32-6.59-0.79-9.86c-0.38-3.01-0.62-4.57-0.35-6.71
		c0.41-4.29,3.35-10.52,5.7-14.14c2.17-4.02,4.87-2.77,9.22-2.78c6.01-0.61,11.96-1.89,18-2.32c2.45-0.19,4.99,0.14,7.39-0.5
		c2.07-0.95,4.3-1.61,6.25-2.81c1.51-0.93,2.62-2.35,3.84-3.61c3.23-3.39,6.43-6.81,9.88-9.97c1.79-1.34,4.28-4.06,5.89-5.5
		c2.63-1.97,5.23-4,7.7-6.18c2.08-1.99,3.94-4.2,6.01-6.21C440.63,691.21,438.58,693.17,436.31,694.84z"/>
	<path class="st7" d="M403.03,650.22c-2.27-3.95-7.16-4.62-10.74-6.95c-3.9-2.54-7.58-5.39-11.5-7.89
		c-3.28-2.09-6.87-3.57-10.32-5.34c-2-1.03-5.29-3.19-6.34-4.17c-2.01-1.88-3.73-4.38-4.76-6.11c-2.16-3.65-3.64-6.65-3.17-9.3
		c0.24-1.34,1.11-2.83,1.91-4.98c0.65-1.73,0.82-3.77,0.27-5.56c-0.41-1.35-1.4-2.47-2.42-3.41c-0.82-0.75-1.7-1.46-2.74-1.88
		c-1.22-0.5-3.94-0.82-4.5-1.02c-3.08-1.08-7.54-2.88-9.38-4.45c-1.46-1.24-1.69-2.36-2.64-4.33c-1.57-3.25-2.66-6.71-4.84-9.66
		c-1.84-2.5-4-4.72-6.12-6.97c-2.63-2.78-5.66-5.17-9.19-6.66c-2.75-1.16-6.58-2.46-9.22-0.66c-0.77,0.53-2.42,1.89-1.76,2.33
		c0.68,0.46,0.98-1.34,1.65-1.83c0.98-0.72,2.24-0.53,3.38-0.35c2.23,0.36,4.3,1.39,6.23,2.51c3.67,2.13,6.07,4.49,8.92,7.69
		c1.57,1.77,3.23,3.46,4.7,5.32c3.07,3.89,4.26,9.07,7.13,13.74c0.85,1.38,2.32,2.13,3.63,2.98c3.14,2.03,8.21,3.21,11.1,3.85
		c2.36,0.53,4.2,2.63,4.88,4.17c0.05,0.1,0.08,0.21,0.08,0.24c0.01,0.07,0.01,0.18,0.01,0.23c-0.01,0.22,0,0.45-0.02,0.67
		c-0.02,0.24-0.1,0.76-0.12,0.9c-0.02,0.11-0.09,0.4-0.16,0.57c-2.48,5.73-2.99,10.01,0.13,15.51c1.7,3,3.45,6.06,5.93,8.47
		c1.8,1.75,3.96,3.09,6.14,4.32c3.56,2,7.4,3.43,10.87,5.61c4.24,2.66,8.13,5.81,12.39,8.43c2.74,1.69,6.54,4.89,7.44,9.84
		c0.91,5.03-1,17.58-1.43,19.82c-1.71,8.86-5.32,11.22-10.81,11.24c-2.37,0.01-19.11,4-27.48,1.05c-3.28-1.15-6.78-4.35-8.74-7.86
		c-0.66-1.18-1.74-2.01-2.64-3c-0.63-0.7-1.03-1.96-1.76-3.29c-0.49-0.9-0.71-4.03-1.84-5.67c-0.94-1.35-2.39-2.27-3.56-3.42
		c-1.9-1.86-3.77-3.82-6.09-5.16c-2.65-1.53-5.56-2.67-8.53-3.4c-2.71-0.66-5.54-0.72-8.31-0.98c-4.39-0.41-8.92,0.23-13.2-0.95
		c-7.01-1.93-11.82-9.11-15.85-15.63c-2.33-3.78-4.76-8.24-6.11-12.02c-0.92-2.57-1.92-5.06-2.25-7.63
		c-0.33-2.58,2.43-8.73-0.49-8.43c-3.37,0.35-0.5,6.8,0.14,10.17c0.7,3.68,1.97,7.25,3.34,10.74c0.84,2.13,1.85,4.42,3.05,6.26
		c3.76,5.79,7.37,12.37,13.3,16.53c4.41,3.09,9.17,3.56,14.52,3.57c3.06,0.01,6.1,0.39,9.14,0.71c3.91,0.41,7.73,1.76,11.37,4.05
		c2.95,1.85,5.17,4.51,8.07,7.13c1.24,1.12,0.89,1.67,1.55,3.94c0.75,2.6,1.86,5.23,3.91,7.07c1.69,1.51,2.18,3.25,3.34,5.62
		c0.88,1.8,2.1,3.49,3.74,4.64c3.67,2.58,8.49,2.88,12.89,2.79c2.63-0.06,5.18-0.77,7.79-1.05c2.65-0.28,5.26,0.57,7.93,0.52
		c5.71-0.12,11.79-1.86,15.15-6.88c2.08-3.12,2.64-6.66,3.08-10.27c0.57-4.61,0.71-9.22,0.91-13.86c0.07-1.63,0.06-4.25,0.07-5.67
		C404.11,655.11,404.16,652.21,403.03,650.22z"/>
	<path class="st7" d="M419.12,682.44c-0.88,1.18-2.04,2.3-3.08,3.14c-2.11,1.35-4.35,2.53-6.38,4.02c-1.55,0.87-6.01,1.5-7.77,1.38
		c-6.17-0.42-5.35-1.71-7.9-0.66c-1.86,0.57-6.73,1.25-6.73,1.25l-3.98,0.31c0,0-1.33,0.8-3.84-0.07c2.64,1.56,4.24,4.46,6.94,6.05
		c2.21,1.23,4.73,2.02,7.25,2.3c2.54,0.05,5.12-0.63,7.33-1.87c3.79-1.82,6.53-4.97,9.52-7.2c1.67-1.59,3.79-2.94,5.72-4.67
		c1.18-1.3,2.36-2.8,3.15-4.29C419.27,682.23,419.19,682.34,419.12,682.44z"/>
	<path class="st7" d="M359.54,584.51c-0.59-0.51-1.44-0.63-2.2-0.66c-6.51-0.03-13.5-0.39-19.1-2.68c-2.86-1.3-3.98-3.41-6.21-5.59
		c-0.95,0.47-0.09,2.06,0.17,2.79c0.68,1.49,1.77,2.71,3.07,3.67c1.68,2.13,4.5,3.01,7,3.88c4.09,1.47,8.11,2.21,13.16,2.11
		c1.14-0.02,2.28-0.17,3.41-0.35c0.3-0.07,5.1-0.16,5.31-0.39C364.71,586.51,360.17,585.24,359.54,584.51z"/>
	<path class="st7" d="M270.4,553.84c-2.65-3.25-7.22-3.53-11.12-3.73c-2.73-0.03-5.59-0.21-8.26,0.4c-0.33-0.02-0.65,0-0.96,0.08
		c-4.56,1.22-8.06,4.4-11.65,7.28c-3.43,2.86-7.59,4.53-11.64,6.32c-4.64,1.98-9.52,4.42-11.9,9.12c-0.97,1.96-2.09,5.04,0.53,6.72
		c1.83,1.1,3.96,1.58,5.75,2.76c2.26,1.39,3.71,4.22,4.43,6.58c0.6,2.34,0.98,7.24,4.13,10.15c2.6,2.34,6.33,2.81,9.68,3.18
		c2.4,0.33,4.95,0.7,7.25-0.29c3.52-1.64,6.2-4.6,9.1-7.12c1.41-1.27,2.83-2.57,3.83-4.21c1.31-1.97,2.06-4.22,2.97-6.38
		c1.94-4.97,2.9-8.14,5.78-13.27c1.14-2.21,2.84-4.14,3.65-6.5C273.07,561.28,272.93,556.88,270.4,553.84z M270.8,563.43
		c-0.15,0.89-1.59,2.76-2.44,4.3c-1.6,2.64-3.01,5.41-4.21,8.26c-1.76,4.06-3.32,9.96-6.04,13.78c-1.46,1.84-3.33,3.28-5.03,4.9
		c-2.1,1.86-3.62,3.36-6.3,4.83c-2.34,1.25-5.14,0.69-8.06,0.35c-3.7-0.44-7.23-1.04-9.33-3.87c-2.55-3.16-1.51-8.45-5.24-13.39
		c-1.05-1.44-2.49-2.52-4.08-3.29c-1.64-0.75-4.14-1.51-4.9-2.41c0.26-0.99,1.49-3.36,3.31-5.05c3.47-3.12,10.05-5.35,14.84-7.8
		c4.61-2.38,7.89-6.52,11.85-9.76c1.14-0.93,3.16-2.18,4.91-2.96c0.99-0.15,2.01-0.18,3.02-0.13c0.32,0.05,0.63,0.11,0.94,0.19
		c-0.14-0.05-0.29-0.11-0.44-0.17c1.16,0.08,2.32,0.25,3.46,0.44c4.36,0.65,7.89,0.82,11.34,3.2
		C271.34,557.33,271.71,560.39,270.8,563.43z"/>
	<path class="st7" d="M446.55,417.84c-5.73-1.43-11.75-1.84-17.61-1.11c-4.05,0.43-7.85,1.98-11.59,3.51
		c-4.4,1.89-8.8,3.82-12.94,6.23c-2.68,1.49-5.15,3.75-7.01,5.3c-2.77,2.22-5.54,4.43-8.29,6.68c-2.81,1.96-6.15,3.02-9.32,4.25
		c-3.15,1.05-6.67,1.52-10.26,2.65c-8.69,2.13-19.89,4.58-27.83,10.44c-3.02,2.76-4.87,6.59-6.19,10.41
		c1.55-3.39-2.36,6.35,15.82-1.22c7.94-3.31,7.15-9.89,15.41-12.06c3.31-0.94,12.54-6.89,16.27-8.61c2.57-1.07,5.27-2.01,7.4-3.89
		c2.61-2.24,5.38-4.28,8.02-6.5c2.34-2.01,4.25-3.65,7.25-5.27c4.81-2.67,9.88-4.87,14.98-6.91c4.49-1.88,8.4-2.88,13.31-3.48
		c4.18-0.47,8.44-0.65,12.63-0.31c0.2,0.01,0.41,0.09,0.51,0.08C446.92,417.97,446.73,417.9,446.55,417.84z"/>
	<path class="st7" d="M581.88,507.54c-3.9,2.32-9.31,12.29-12.37,15.59c-3.25,3.81-6.89,7.57-8.48,12.43
		c-0.33,0.94-0.71,1.79-1.22,2.91c-0.66,1.77-1.17,3.4-2.12,5.06c0.93-1.29,1.65-2.7,2.27-4.15c0.99-1.6,1.68-3.35,2.59-5
		c2.23-3.7,6.18-7.38,9.52-10.81c3.99-4.36,8.64-7.53,14.25-10.33c1.97-1.13,4.17-1.75,6.32-2.42c2.94-0.96,5.99-1.52,9.37-1.56
		C594.26,507.98,588.53,503.55,581.88,507.54z"/>
	<path class="st7" d="M710.74,470.76c-3.81,3.14-9.42,1.61-13.68,4.5c-5.22,3.24-9.41,10.88-14.74,13.92
		c-3.18,1.99-6.18,4.24-9.25,6.4c-10.13,7.35-18.48,16.78-27.05,25.82c-5.78,5.91-10.8,12.45-15.28,19.39
		c-3.85,5.19-6.64,9.35-9.18,14.98c-1.12,2.08-2.44,4.43-3.35,6.14c-1.19,2.56-2.39,5.12-3.58,7.68c-1.42,2.41-2.87,4.8-4.27,7.22
		c-1.5,2.14-3.98,5.82-5.04,9.16c-0.33,0.88-1.47,3.31-1.3,5.23c0.12,2.15,1.59,2.61,2.8,0.7c1.88-3.09,3.28-7.25,4.4-10.36
		c0.04,0.08,0.11,0.15,0.19,0.2c0.1,0.12,0.23,0.21,0.39,0.26c0.35-0.13,0.6-0.42,0.81-0.75c0.18-0.19,0.34-0.4,0.51-0.54
		c0.05-0.06,0.1-0.12,0.15-0.18c0.03,0.04,0.05,0.08,0.08,0.12c0.04,0.07,0.11,0.12,0.19,0.15c0.48,0.66,1.32,1.05,2.69,0.96
		c0.39,0,0.8,0.19,1.17,0.04c0.57-0.49,0.63-1.42,0.37-2.15c0.26-0.17,0.46-0.49,0.53-1.02c0.01-0.11,0-0.22,0-0.33
		c0.48,0.45,0.89,0.03,1.02-0.5c0.11-0.34,0.13-0.65,0.1-0.94c0.18-0.04,0.35-0.1,0.5-0.23c0.5-0.7,0.55-2-0.15-2.58
		c-0.48-0.19-1.19-0.24-1.74-0.27c1.25-5.22,3.16-11.07,4.9-16.23c0.18-0.49,0.5-1.35,0.9-2.28c0.24-0.49,0.46-0.99,0.67-1.5
		c0.03-0.06,0.05-0.12,0.08-0.17c-0.01,0.04-0.03,0.07-0.05,0.09c0.05-0.13,0.12-0.26,0.17-0.39c0.02-0.06,0.03-0.13,0.04-0.2
		c1.33-2.67,2.76-5.28,4.33-7.81c3.56-5,6.82-10.22,10.72-14.98c5.42-6.46,11.54-12.29,17.33-18.42
		c6.93-6.36,13.15-11.67,22.18-17.85c4.92-3.3,10.23-5.98,15.37-8.92c5.97-3.33,11.16-7.87,16.05-12.6c2.66-2.7,4.47-6.06,6.57-9.18
		C715.12,465.83,713.25,468.59,710.74,470.76z M605.63,590.11c-0.04,0.03-0.08,0.05-0.11,0.08c0.43-1.63,1.44-4.14,2.83-6.85
		c0.34-0.64,0.76-1.27,1.22-1.93C608.32,584.83,607.12,588.05,605.63,590.11z"/>
	<path class="st7" d="M751.23,431.89c-0.02-0.01-0.03-0.01-0.03-0.01c0.12,0.2-0.14,0.42-0.25,0.6c-0.9,1.16-1.87,2.27-2.81,3.4
		c-4.12,4.84-8.82,9.15-12.93,14c-2.7,2.82-6.44,4.67-9.22,7.71c-0.53,0.57-1.17,1.27-1.61,1.77c0.73-0.66,1.44-1.33,2.19-1.96
		c2.07-1.77,4.73-3.11,6.95-4.83c1.94-1.48,3.53-3.34,5.27-5.04c4.6-4.57,8.92-9.49,12.26-15.07c0.08-0.17,0.24-0.34,0.22-0.54
		C751.25,431.92,751.25,431.9,751.23,431.89z"/>
	<path class="st7" d="M716.01,466.95c1.6-1.11,3.02-2.45,4.26-3.95C718.81,464.27,717.3,465.46,716.01,466.95z"/>
	<path class="st7" d="M785.54,389.18c-1.55-0.76-3.18-1.39-4.91-1.62c-1.71-0.26-3.45-0.02-5.17-0.1c-2.7-0.23-5.34-0.81-7.97-1.46
		c-3.94-0.72-6.9-1.17-10.54-2.64c-5.39-1.6-11.74-4.6-17.74-6.29c-3.22-1-6.6-0.99-9.93-0.95c-3.75-0.09-7.5,0.22-11.09,1.37
		c-3.54,1.16-7.02,2.55-10.44,4.02c-2.41,1.17-4.8,2.2-7.14,2.53c-5,0.96-10.09,0.1-15.05-0.74c-5.8-0.87-11.61-1.71-17.28-3.21
		c-7.62-1.93-15.64-2.95-23.42-1.44c-0.35,0.06-0.81,0.27-0.98,0.31c0.43-0.09,0.87-0.19,1.31-0.24c7.08-0.43,14.28,0.72,20.74,2.67
		c5.92,1.74,12.78,2.96,19.28,3.92c5.04,0.85,10.19,1.67,15.27,0.75c2.83-0.38,5.49-1.4,8.07-2.57c3.44-1.32,6.87-2.72,10.39-3.82
		c2.43-0.78,6.43-1.33,9.56-1.19c3.69-0.09,7.7,0.13,10.73,1.15c4.85,1.43,11.33,4.32,16.78,6.07c2.45,0.89,4.86,1.98,7.47,2.32
		c3.95,0.54,7.78,1.68,11.74,2.14c1.35,0.2,2.73-0.02,4.09,0.06c1.8,0.11,2.84,0.33,4.31,0.94c4.69,1.89,6.88,3.63,6.81,6.73
		c-0.06,0.84-0.29,3.22-0.6,4.15c-0.16,1.1-0.96,2-1.57,3.61c-2.76,5.96-7.61,12.26-12.4,16.28c-3.48,2.8-7.14,5.37-10.74,8.01
		c-5.26,3.34-10.61,6.53-15.76,10.05c-13.66,9.78-27.18,18.97-38.13,31.59c4.67-4.33,9.56-8.32,14.65-12.11
		c7.85-5.57,15.73-11.09,23.61-16.62c5.19-3.55,10.58-6.79,15.9-10.15c3.28-2.39,6.57-4.77,9.79-7.24
		c4.23-3.22,7.66-7.36,10.59-11.76c1.54-2.25,2.87-4.63,3.94-7.13c0.77-1.44,1.38-2.97,1.66-4.59
		C792.43,395.93,791.76,391.67,785.54,389.18z"/>
	<path class="st7" d="M1103.09,249.13c-1.38-2.88-3.7-5.24-5.88-7.54c-3.02-2.97-6.09-5.88-9.1-8.86c-2.32-2.3-4.42-4.47-7.53-6.34
		c-4.68-2.55-9.75-4.96-14.83-6.57c-3.76-0.98-7.63-1.03-11.8-1.82c-3.32-0.34-6.01-2-9.08-3.92c-3.12-1.85-6.27-3.73-9.7-4.95
		c-3.76-1.22-7.74-1.69-11.68-1.48c-5.63,0.05-11.23,0.48-16.74,1.68c-5.1,0.75-10.18,1.63-15.13,3.08
		c-5.63,1.73-12.14,2.73-18.08,5.44c-7.32,3.94-14.17,8.69-21.11,13.26c-4.65,2.9-9.69,5.19-13.87,8.78
		c-2.7,2.33-5.2,5.22-7.12,8.09c4.03-4.68,9.2-8.22,14.8-10.76c4.67-2.02,8.84-4.93,13.07-7.72c4.5-3.07,9.16-5.93,13.9-8.61
		c4.92-2.59,10.54-3.4,15.42-4.89c4.9-1.45,12.1-3.11,18.36-3.92c5.6-1.23,11.3-1.59,17.02-1.65c3.71-0.2,7.89,0.42,10.86,1.42
		c3.66,1.33,7.01,3.37,10.34,5.36c1.73,1.01,3.42,2.15,5.33,2.82c2.31,0.67,4.71,1.04,7.09,1.32c2.49,0.23,4.98,0.52,7.47,0.78
		c1.46,0.22,2.69,0.78,4.36,1.45c4.55,2.03,9.17,4.09,13.19,7.08c2.31,1.59,4.71,4.63,7.57,7.22c3.83,3.78,7.92,7.35,11.1,11.72
		c1.58,2.25,2.3,5.78,0.1,8.75c-2.87,3.56-7.14,5.51-10.68,8.3c3.94-2.21,8.58-3.57,11.56-7.13
		C1104.46,256.56,1104.39,252.44,1103.09,249.13z"/>
	<path class="st7" d="M1049.08,277.57c-4.93,1.48-9.56,3.77-14.5,5.22c-7.26,2.33-15.12,3.9-23.04,5.56
		c-8.51,1.57-17.07,3.04-25.68,3.95c-9.01,0.38-17.9,1.95-26.78,3.47c-10.6,1.68-21.4,4.74-31.09,7.43
		c-12.91,2.72-25.35,7.13-38.15,10.27c-12.04,3.21-24.48,4.36-36.88,5.22c-9.98,0.78-19.93,1.76-29.9,2.62
		c-13.45,1.06-26.74,3.48-40.13,5.12c-12.19,1.5-24.57,2.08-36.45,5.41c-6.35,1.62-12.26,3.77-19.06,3.65
		c-8.11,0.03-16.22-0.55-24.33-0.67c-4.09-0.15-8.17-0.75-12.27-0.37c-5.65,0.45-11.24,1.78-16.45,4.03
		c-4.43,2.5-8.8,5.17-12.97,8.07c-2.59,1.89-4.39,4.63-6.64,6.89c-3.96,4.14-7.05,9-10.84,13.28c-3.22,4.14-6.75,8.09-11.07,11.11
		c0.5-0.3,1-0.59,1.49-0.9c4.63-2.78,8.07-6.92,11.62-10.89c3.31-3.58,5.96-7.72,9.41-11.18c2.54-2.61,4.57-5.81,7.81-7.64
		c3.78-2.31,7.62-4.57,11.48-6.72c4.34-1.83,8.15-2.88,12.74-3.56c5.16-0.89,10.34-0.35,15.52-0.05c6.36,0.19,12.73,0.25,19.09,0.53
		c3.63,0.02,7.28,0.07,10.89-0.4c4.73-0.7,9.29-2.21,13.94-3.31c6.42-1.74,13.02-2.6,19.61-3.42c15.93-1.43,31.68-4.2,47.54-6.18
		c18.52-2.1,37.15-3.06,55.68-4.99c9.94-1.15,19.61-3.72,29.18-6.53c10.98-3.08,20.84-5.83,31.82-8.47
		c6.17-1.54,12.29-3.28,18.51-4.59c7.43-1.47,14.95-2.52,22.46-3.49c5.47-0.56,10.98-0.59,16.44-1.26
		c8.35-1.43,16.76-2.54,25.08-4.16c6.79-1.5,13.7-2.53,20.33-4.68c3.71-1.06,7.29-2.46,10.86-3.92c3.7-1.32,7.45-2.52,11.15-3.84
		c9.04-3.21,17.55-7.93,26.84-10.42C1070.76,268.88,1060.06,274.03,1049.08,277.57z"/>
	<polygon class="st10" points="935.95,243.02 921.36,262.38 922.53,267.13 924.3,271.15 927.89,272.94 944.98,269.72 965.44,264.9 
		973.06,264.11 983.16,260.13 998.39,258.55 1018.28,255.04 1030.42,252.23 1044.36,246.29 1051.17,243.76 1050.21,240.22 
		1045.39,240.25 1039.06,242.42 1032.87,245.93 1028.67,247.87 1025.59,247.54 1026.27,241.95 1028.3,239.22 1032.97,235.19 
		1036.33,231.87 1040.35,227.1 1039.24,221.3 1037.92,216.82 1033.83,212.74 1029.83,210.71 1020.65,209.96 996.27,213.07 
		978.41,217.31 966.46,224.21 953.9,231.86 	"/>
	<g class="st11">
		<g>
			<path class="st12" d="M806.73,501.28c0.29,0,0.58-0.5,0.87-0.5C807.3,500.78,807.01,501.28,806.73,501.28L806.73,501.28z"/>
		</g>
	</g>
	<path class="st7" d="M799.25,495c-0.68,0.15-0.68,1.85,0,2C799.94,496.85,799.93,495.15,799.25,495z"/>
	<path class="st7" d="M780.52,475.24c-4.51,0.28-8.6,5.11-9.75,9.24c-0.08,0.36-0.15,0.77-0.22,1.12c0.02-0.06,0.05-0.13,0.07-0.19
		c0.25-0.88,0.76-1.88,1.19-2.48c1.15-1.77,3.26-3.64,4.15-4.35c1.67-1.29,3.43-2.47,5.45-2.58c0.89-0.05,2.06-0.02,2.55,0.85
		C783.46,475.51,781.78,475.26,780.52,475.24z"/>
	<path class="st7" d="M720.15,508.85c-2.31,1.16-4.38,2.97-5.46,5.36c-0.18,0.36-0.45,0.98-0.51,1.22c0.32-0.56,0.67-1.07,1.07-1.6
		c1.15-1.46,2.56-2.37,4.2-3.36c0.95-0.54,1.88-1.17,2.91-1.54c1.32-0.3,2.78-0.35,4.03,0.23
		C724.61,507.73,722.07,507.68,720.15,508.85z"/>
	<path class="st7" d="M669.57,537.01c-0.1,0.22-0.22,0.5-0.28,0.69c0.2-0.35,0.42-0.67,0.68-0.99c1.14-1.25,2.97-3.69,4.73-2.02
		C672.93,532.12,670.41,535.21,669.57,537.01z"/>
	<path class="st7" d="M660.1,541.98c4.64-1.39,5.98-7.19,9.77-9.58C665.31,534.05,664.12,539.67,660.1,541.98z"/>
	<path class="st7" d="M676.23,532.42c0.53-0.12,1.07-0.35,1.52-0.61C677.21,531.92,676.71,532.14,676.23,532.42z"/>
	<polygon class="st7" points="862.02,397.65 855.99,413.62 874.65,410.28 882.27,394.21 881.43,380.38 	"/>
	<polygon class="st5" points="604.46,657.07 599.64,664.47 619.5,655.19 	"/>
	<path class="st7" d="M358.68,453.14l33.1-7.42l24.95-6.41l18.82,0.96l49.94,19.54l22.67,8.6l21.31,20.71l2.9,5.1l24.58,28.68
		l1.76,9.32l1.79,4.6l0.9,4.93l-4.47,9.17l-33.9,22.26l-73,40.71l-31.15-0.17l-11.43-6.75l-11.42,2.48l-43.27-26.8l-8.94-9.43
		l-4.59-21l-4.91-9.04l-1.53-15.79l-2.14-7.62l-0.67-21.75l-2.66-11.65l3.51-8.67l1.86-9.14l7.73-10.25L358.68,453.14z M361,460.61
		c-4.31,1.65-8.18,4.42-11.24,7.86c-2.62,2.85-4.23,6.44-5.68,9.98c-2.04,4.77-2.93,10.29-1.02,15.23c0.53,2.09,0.89,3.47,1,6.47
		c0.11,5.13-0.3,10.25,0.25,15.36c-0.11-5.59,1.44-11.04,1.93-16.66c0.43-2.72-0.27-8.52-0.35-9.94c0.03-0.21,0.06-0.43,0.1-0.64
		c0.69-2.88,0.95-2.98,2.66-6.61c1.87-3.8,1.86-3.93,4.11-6.77c3.82-4.5,6.18-6.7,11.1-9.56c5.12-2.59,10.06-4.61,15.42-5.56
		C373.26,458.43,366.87,458.73,361,460.61z"/>
	<path class="st7" d="M530.32,418l8.64-13.12l13.8-7.34l11.38-10.26l21.63-10.18l14.83,0.74l12.12-2.46l18.76,5.98l18.12,8.74
		l10.02,3.28l7.53,3.83l18.78,9.15l17.95,4.38l22.51,3.82l5.7,6.73c0,0-0.86,22.89-3.78,29.81c-2.13,5.07-13.67,17.22-13.67,17.22
		c-0.45,0.57-0.98,1.06-1.58,1.47l-15.39,10.51l-19.83,9.13L653,502.46l-11.14,7.45l-31.93-0.23l-16.14,0.18l-16.59-5.94l-12.81-9.5
		l-8.28-9.24l-8.44-11.32l-7.56-10.33l-3.03-11.84l-5.82-11.84l1.17-17.89L530.32,418z M654.6,477.29c-2.71,0.7-5.55,0.96-8.35,1.13
		c-5.43-0.08-10.43,0.57-15.31-0.12c-4.21-0.41-8.4-1.3-12.65-1.01c-4.47,0.19-8.86,1.48-13.36,1.34
		c-9.97,0.18-16.92-0.81-25.29-5.31c-6.39-3.78-13.29-7.2-18.62-12.43c3.44,6.24,8.7,11.35,13.81,16.26
		c7.57,7.56,16.83,12.37,27.66,12.63c5.61,0.65,13.15-1.78,14.38-2.06c7.51-1.67,11.84-2.57,17.58-4.19
		c1.36-0.21,5.63-1.44,7.42-1.89c4.87-1.02,9.93-2.01,14.2-4.7C657.32,476.26,655.1,477.18,654.6,477.29z"/>
</g>
<g id="Compound">
	<path id="Rock" class="st13" d="M1039.23,808.94c0,0,7.05,13.33,6.47,16.83c-0.61,3.64-21.72,18.84-21.72,18.84l-18.98,4.47
		c-0.61,0.14-1.22,0.31-1.82,0.5l-22.86,7.26l-6.04-4.27l2.51-18.99l7.17-21.12c0.48-1.42,1.6-2.53,3.02-3
		c0,0,28.63-14.99,38.55-12.83C1027.63,797.1,1038.97,808.24,1039.23,808.94z M657.46,70.74c-0.66,2.97,18.75,33.53,21.07,34.41
		c1.81,0.69,6.41-2,8.29-3.18c0.56-0.35,1.18-0.62,1.82-0.78c0,0,8.87-1.21,11.32-2.79c1.72-1.11,5.06-6.41,5.06-6.41l-14.6-21.9
		c-2.34-3.5-5.87-6.03-9.94-7.1l-5.33-1.4c-2.76-0.73-5.71-0.13-7.97,1.62C667.19,63.21,658.13,67.74,657.46,70.74z M731.56,73.29
		c-0.58-0.06-1.5,10.15-1.5,10.15c-0.23,1.54,0.18,3.1,1.14,4.33l3.13,4.03c1.38,1.78,4,1.98,5.64,0.43c0,0,12.66-7.6,12.66-11.96
		C752.63,78.09,739.79,74.15,731.56,73.29z M143.1,118.38c0.67-1.44-27.67,5.14-31.24,6.94c-5.25,2.66-76.17,121.01-77.52,124.57
		c-1.92,5.05-35.12,223.64-34.32,228.7c1.1,6.97,10.93,17.45,13.71,24.67c9.33,24.26,3.41,26.15,8.41,39.16
		c5.98,15.55,21.13,25.78,25.65,35.83c8,17.8,22.97,91.75,26.51,109.56c0.5,2.54,0.79,5.1,0.85,7.69
		c0.17,6.76,0.49,20.25,0.99,20.82c13.76,15.59,47.28,37.01,55.08,41.91c0.93,0.58,1.8,1.25,2.62,1.98l84.78,76.68l91.49,78.88
		c0.93,0.8,2.05,1.34,3.25,1.57l36.35,7.03c0.44,0.09,0.9-0.05,1.22-0.36c0,0,3.22-2.39,4.04-3.19c1.02-0.99,2.41-1.51,3.83-1.44
		c19.73,0.99,78.15,3.97,78.15,3.97l72.43-15.91l31.62-1.22l49.98-9.59c0,0,49.09-6.16,59.37-17.75c1.5-1.7,2.11-6.82,2.34-10.48
		c0.15-2.23,2.03-3.96,4.26-3.93c0,0,10.25,1.5,13.3,0.18c4.29-1.85,11.34-10.55,15.42-15.92c2.09-2.75,5.25-4.48,8.7-4.76
		l26.69-2.14l47.04,7.29l31.57-7.21c4.2-0.96,8.53-1.19,12.81-0.7c6.4,0.74,15.9,1.64,19.72,0.94c8.01-1.48,23.96-12.06,31-16.93
		c2.34-1.62,5.01-2.69,7.82-3.12l21.28-3.32l43.61-17.03c1.03-0.4,2.11-0.66,3.21-0.76l39.5-3.61c0,0,27.69-15.37,30.28-17.96
		c2.76-2.76,12.75-49.39,12.75-49.39l-108.72,28.2l-9.65-4l-6.1-11.3l-9.54-11.05L876.41,729l-12.63,3.67l-11.61,1.75l-14.74-3.32
		l-6.22-0.02l-13.84-3.61l-11.91,0.85l-13.85-3.84l-19.89,1.88l-6.68,4.89l-15.11,16.12l-3.79,11.32l-10.71,4.76l-10.38,13.63
		L698,789.13l-16.46,14.37l-111.75,33.6l-11.76-1.57l-18.36,1.72l-31.89,9.11l-57.99,3.75l-64.48,3.01l-40.69,4.12l-27.96-16.38
		l-16.6-33.83l-2.53-11.11l5.78-4.25l10.22-8.97l5.79-12.15l10.27-30.34l4.23-9.41l-3.33-22.01l-10.05-15.58l-31.43-8.26
		l-16.35-5.66l-20.13,10.03l-6.62,15.19l-6.51,19.21l-10.12,5.45l-10.82-3.93c-1.09-0.4-2.04-1.11-2.72-2.05l-17.02-23.34L203,659.7
		l-5.96-26.67l-12.01-24.8l-15.72-19.26l-4.83-20.98l16.76-10.65l15.87-5.5l7.6-6.58l11.68-4.95L232.48,502l17.64-4.55l27.12-9.35
		l18.47-16.42l0.28-15.71l8.86-8.77l26.59-14.15l78.49-34.1l54.76-36.6l6.78-1.26l30.14-15.83l65.63-6.54l16.81-5.69l44.84-6.82
		l108.44-27.73l26.35-1.27l29.83-2.92l14.79-5.72l13.99-1.89l29.28-15.35l22.01-9.19l36.83-16.71l49.27-33.85l43.31-13.18
		l30.65-1.94l36.8-8.17l-7.82-15.67l-85.03-20.52l-5.93-12.08l-18.69-10.03l-21.66-0.46l-16.64-10.49l-11.85-0.23l-25.07,25.53
		l-24.86-8.51l-11.65-0.79l-14.83-9.8l-44.5,5.3l-17.48,7.15l-73.63,14.3l-27.56-17.68l-29.14,5.77l-9.9-12.65l-9.07-3.85
		l-3.02-8.52l-21.44-18.42l-18.69,3.02l-20.1,16.05l-0.57,22.98l-10.74,34.09l-22.6,18.84l-11.87,10.74l-26.75,6.59l2.6,25.86
		l6.74,19.42l-10.7,15.46l0.2,13.68l-14.63,10.74c0,0-400.22,86.09-403.72,84.02c-7.97-4.7,30.45-21.04,30.45-21.04l7.4-14.65
		C97.69,342.47,83.39,247.42,143.1,118.38z M154.97,431.76l18.25-7.8l-32.45,22.21l-32.41,13.84c0,0-1.07-9.74,0.46-12.46
		c3.19-5.64,21.68-14.19,21.68-14.19L154.97,431.76z M203.28,794.96l24.1,12.9c2.17,1.16,4.05,2.81,5.49,4.81l13.5,18.78
		l-33.16-25.07c-1.51-1.15-2.88-2.48-4.05-3.97L203.28,794.96z M661.17,190.52l-20.98,23.43c0,0-6.4,4.06-8.75,3.73
		c-1.03-0.14-5.49-2.72-4.5-6.05c0.45-1.52,6.74-4.53,6.74-4.53c0.95-0.64,1.56-1.66,1.68-2.8l0.84-6.93c0,0,5.76-4.24,6.91-8.12
		c0.32-1.07-0.38-4.34-0.38-4.34c-0.43-1.06,0.28-2.24,1.42-2.36c5.01-0.5,16.61-1.58,17.16-0.79
		C662.19,183.03,661.17,190.52,661.17,190.52z M568.48,251.07l1,10.78l-10.87-3.51l-0.59-4.18L568.48,251.07z M123.16,534.14
		c-1.19-5.25,14.9-23.38,14.9-23.38l21.08,26.96l20.13-11.2l2.41-8.98l9.9-1.65l-22.57,23.16l-27.34,10.25
		C141.67,549.32,124.53,540.15,123.16,534.14z M991.9,181.45l-1.52,2.46l-4.27-2.62L991.9,181.45z M850.73,206.65
		c-0.26,0.08-0.51,0.16-0.77,0.24l7.43-6.55l18.17-3.84l-5.3,9.72l-9.87,5.49L850.73,206.65z M822.97,781.43l9.54-8.05l2.74,6.84
		L822.97,781.43z M1114.2,245.68l-8.43,13.68l-11.81,5.73l-14.72,5.36l-10.52,5.36l-15.82,13.57l-13.73,7.53l-21.61,7.55
		l-20.49,4.78l-23.1,8.07L959,323.58l-6.35,10.71l-11.3,11.97l-8.07,11.03l-8.21,15.74l-14.39,14.39l-15.2,8.88L880.42,408
		l-9.55,15.87l-14.68,13.19l-9.49,2.89l-18.56,10l-6.12,8.94l-17.53,10.33l-14.91,7.32l-0.41,10.36l-2.51,13.46
		c0,0-2.8,7.71-4.49,9.82c-7.42,9.27-10.9,9.33-10.83,8.36c0.23-3.15,1.57-11.69,1.79-14.78c0.18-2.53-1.82-9.91-1.82-9.91
		l-2.77-5.34l-11.14,4.97l-14.44,7.11l-13.01,8.03l0.39,2.24c0,0-0.74,12.53-1.81,16.55c-0.64,2.42-3,6.94-4.51,8.94
		c-1.73,2.28-8.43,7.72-8.43,7.72s-1.54-0.3-1.44-0.68c1.4-5.41,0.54-7.87-0.09-10.39c-0.54-2.16-1.76-8.72-1.76-8.72l0.22-7.03
		l-19.66,10.23l-17.18,8.62l-0.98,7.87c0,0-1.74,6.62-2.78,8.63c-0.69,1.34-4.22,5.71-4.29,4.21c-0.06-1.31,1.28-6.65,1.33-8.89
		c0.05-2.06-0.84-8.19-0.84-8.19l-26.75,17.33l-11.25,9.65l-11.83,8.66l-10.04,7.18l-11.24,17.1l-11.55,10.07l-19.61,13.85
		l-20.08,12.51l-30.54,17.57l-13.12,8.48l-13,7.78l-21.63,8.31l-13.46,5.22l-7.82,1.53l-6.27,6.03l-10.92,9.54l0.77,7.52l3.27,6.04
		l1.17,4.77l9.46,9.86l8.54,5.19l13.39,0.23l12.69-4.69l15.19-9.48l23.4-15.39l24.83-11.95l26.43-7.8l31.95-5.33l16.3-2.32
		l27.67-0.96l67.29-2.33l36.12-2.09l24.06-4.55l19.97-3.91l15.86-3.38l14.1-0.48c0,0-0.85-5.15-1.52-6.75
		c-0.79-1.88-4.26-6.15-4.4-6.84c-0.19-0.87,3.91,0.3,4.75,0.59c5.42,1.81,17.78,11.44,17.78,11.44l19.39-1.37
		c0,0-3.16-8.15-4.71-10.6c-1.64-2.59-7.8-8.12-7.98-9.29c-0.19-1.25,5-1.67,6.26-1.56c5.51,0.48,18.67,7.76,18.67,7.76l12.77,9.99
		l19.54,0.19c0,0-4.17-4.44-7.34-9c-3.66-5.27-2.97-12.1-21.28-29.25c-0.64-0.6,1.66-2.22,2.5-2.47c9.06-2.6,28.65,7.71,31.35,9.76
		c7.15,5.45,26.31,24.49,26.31,24.49l12.44-2.28l13.21-0.02l-10.17-14.19c0,0-7.37-16.68-15.4-25.62c-0.45-0.51,0.6-2.26,1.26-2.41
		c6.89-1.63,21.2,7.3,21.2,7.3l4.19,3.39l14.3,13.27l9.94,10.97l2.68,2.45l16.07-1.05l16.22-4.03c0,0-7.35-9.76-9.14-13.4
		c-1.15-2.34-3.25-9.93-3.25-9.93s-5.71-11.03-14.57-19.89c-0.53-0.53,0.05-1.98,0.78-2.18c9.28-2.53,35.34,15.22,35.34,15.22
		l24.15,17.94l9.54-2.59l3.85-23.87l8.47-7.88l7.75-11.49l16.38-10.44l6.44-11.37l3.12-15.97l8.35-10.8l0.48-4.77l16.65-15.83
		l22.69-19.04l5.52-13.88l3.3-24.29l-0.94-11.61l-2.19-10.79l8.66-11.69l1.38-6.5l-5.98-19.41l-12.63-11.21l-1.08-7.65l-6.37-8.49
		l-8.01-3.43l-0.95-4.06l-8.12-1.91l-13.13-13.37l11.94-18.86l-7.88-69.7L1114.2,245.68z M619.5,655.19l-19.86,9.28l4.82-7.4
		L619.5,655.19z M1034.37,450.28l5.12-1.4l10.12,0.7l-4.94,6.1l-9.36,7.97l-10.7,1.74l-8.31,3.2l-8.6,6.05l-7.91,8.49l-1.69-1.92
		l2.91-13.02l2.38-9.94l9.59-6.92l15.52-3.55L1034.37,450.28z"/>
	<path id="helmet" class="st13" d="M486.96,95.27c2.38,6.19-7.03,26.95-7.03,26.95l-16.61,16.51c-0.5,0.49-1.31,0.47-1.77-0.05
		c0,0-28.46-26.58-33.54-37.75c-0.2-0.44-0.39-0.88-0.18-1.31c4.62-9.54,18.46-38.17,18.46-38.17S484.85,89.79,486.96,95.27z
		 M492.13,125c-1.85,0.79-2.94,17.51-3.14,20.85c-0.02,0.35,0.17,0.68,1.48,0.84l22.19,11.21c0,0,2.99-16.76,2.66-18.62
		C514.87,136.88,494.49,123.98,492.13,125z M567.13,90.36c-9.31-10.43-19.36-21.07-30.92-29.18c-8.88-6.17-18.32-11.5-27.67-16.92
		c-10.08-5.51-20.61-10.17-31.18-14.67c-23.18-9.89-47.6-16.6-72.49-20.45c-25.18-4.21-50.87-4.79-76.28-2.53
		c-14.84,1.75-29.68,4.04-44.08,8.12c-15.32,4.13-30.08,10.08-44.52,16.59c-22.6,10-44.46,22.34-63.04,38.76
		c-9.01,8.01-16.97,17.12-24.51,26.51c-10.91,13.39-20.39,27.94-28.03,43.43c-4.52,9.1-7.66,18.79-9.79,28.71
		c2.66-4.96,5.33-9.93,8.29-14.72c4.22-6.7,11.1-15.83,13.9-19.36c6.79-8.81,16.52-21.33,20.13-25.85
		c9.92-12.81,20.64-25.13,33.21-35.43c5.43-4.4,19.49-14.1,29.77-19.72c9.45-5.38,19.37-9.85,29.27-14.31
		c7.19-3.17,21.4-9.04,33.2-12.39c12.39-3.79,25.12-6.32,37.94-8.13c14.57-2.29,40.63-3.08,60.33-1.52
		c15.69,1.35,28.27,3.5,45.97,7.41c14.72,3.03,39.01,11.73,47.61,15.58c14.09,5.97,27.89,12.65,40.88,20.76
		c55.68,34.79,69.13,73.58,77.04,84.49C589.6,138.78,591.54,124.03,567.13,90.36z M419.81,272c-32.34,2.51-64.38,7.78-96.16,14.16
		c-19.42,3.8-38.63,8.61-58.06,12.35c-14.42,2.27-28.63,5.52-42.77,9.14c-14.12,3.54-24.27,5.87-37.28,9.36
		c-18.21,5.09-51.81,13.82-73.87,26.09c9.67-2.42,19.63-3.54,29.44-5.24c14.79-2.52,29.58-5.08,44.33-7.83
		c20.95-4.23,41.64-9.72,62.46-14.53c7.95-2.22,18.45-5.43,25.22-6.93c21.43-4.71,42.97-8.85,64.34-13.84
		c30.32-6.25,60.52-13.11,90.46-21c4-1.03,8-2.07,12.02-3.07C433.22,271.06,426.52,271.51,419.81,272z"/>
	<g id="Fossil">
		<path class="st13" d="M1124.23,213.76c-0.15-3.22-0.53-6.6-2.58-9.22c-1.06-1.64-2.89-2.54-4.42-3.68
			c-5.63-4.06-11.86-7.06-18.1-10.04c-2.92-1.51-5.8-3.09-8.62-4.77c-2.72-1.74-5.63-3.28-8.87-3.76
			c-5.82-0.94-10.95,2.58-16.4,3.12c-2.57,0.22-5.16,0.07-7.71,0.54c1.23,0.25,2.45,0.53,3.65,0.89c2.38,0.8,4.81,1.51,7.34,1.57
			c3.63,0.12,7.29-0.4,10.87,0.39c4.45,1.1,8.31,5.06,12.94,8.79c5.4,4.4,11.56,7.67,17.39,11.42c2.76,1.97,5.68,3.68,8.48,5.58
			c0.05,0.07,0.11,0.14,0.16,0.2c0.41,3.69,0.24,12.45-1.68,18.71c-2.49,9.46-6.58,18.47-8.67,28.04
			c3.33-7.46,8.06-14.24,11.29-21.75c2.22-4.78,3.49-9.91,4.29-15.1C1124.2,221.08,1124.36,217.41,1124.23,213.76z"/>
		<path class="st13" d="M239.15,721.17c-2.39,1.98-6.32,3.83-9.89,3.3c-7.68-1.74-13.31-12.82-14.08-18.31
			c-0.03-0.32,0.32-1.92,0.53-2.21c0.04-0.07,0.11-0.19,0.16-0.29c1.63-1.97,2.63-0.05,5.73-5.37c2.09-3.52,0.47-5.94,1.13-7.23
			c0.85-2.29,2.42-4.54,3.65-5.64c3.23-2.47,6.31-5.2,8.81-8.43c1.49-2.31,2.81-4.75,4-7.22c1.29-2.99,2.11-6.15,3.04-9.26
			c0.75-2.51,0-9.52,1.23-11.91c-1.29,2.02-0.98,12.22-4.16,18.4c-1.44,2.81-3.88,7.07-7.22,10.37c-1.3,1.18-2.85,2.87-3.71,3.54
			c-1.49,1.09-3.01,2.18-4.11,3.7c-1.46,1.85-2.42,4.04-3.18,6.25c-0.57,1.76-1.09,4.41-1.58,5.2c-0.82,1.94-2.7,3.23-4.37,5.24
			c-1.19,1.87-1.55,4.27-1.19,6.44c1.6,7.37,9.31,23.82,14.65,22.47c4,0.62,9.75-2.13,12.57-4.86c3.85-4.26,3.77-12.18,4.93-17.66
			C244.43,712.83,243.03,717.38,239.15,721.17z"/>
		<polygon class="st13" points="752.3,429.62 755.38,413.75 745.36,406.72 727.65,400.89 697.99,395.61 727.28,397.58 
			751.93,396.41 764.58,402.95 767.24,412.82 759.01,425.74 742.09,442.73 		"/>
		<path class="st13" d="M528.72,755.3l6.86,2.94l8.7-0.98l48.65,17.52l12.01-1.72l15.56-11.4l13.24-4.78l13.73-4.66l9.19-2.82
			c0,0,3.35-3.38,3.65-4.83c0.35-1.69-1.81-6.32-1.81-6.32l-9.56-6.13l-15.2-6.5l-24.51-1.59l-23.41,1.47l-22.55,3.68l-6.74,5.76
			l-17.65,4.78l-9.44,5.15l-3.43,4.41L528.72,755.3z"/>
		<path class="st13" d="M1252.88,608.04c-0.54-4.36-1.93-8.54-3.65-12.57c-2-4.93-4.27-9.76-7.19-14.22
			c-4.3-6.72-10.52-16.31-19.09-17.57c-0.07-0.01-1.65,0.47-1.72,0.44c0.47,0.26,3.69,1.34,4.19,1.56
			c8.65,4.37,12.28,14.19,16.59,22.3c3.72,7.72,7.79,19.65,7.8,24.33c-0.09,7.53-0.39,13.14-3.49,19.19
			c-2.97,5.49-9.4,10.82-17.44,13.6c-9.85,3.34-20.04,5.71-29.53,10.07c-11.52,4.88-23.36,8.98-34.61,14.49
			c-15.71,6.8-30.44,15.63-46.18,22.32c-8.7,3.27-17.22,4.02-26.87,6.91c-4.39,1.52-8.87,2.98-12.91,5.32
			c-3.32,2.21-6.68,4.33-10.35,5.92c-1.9,0.97-4,1.39-6.03,1.98c-0.16,0.04-0.32,0.09-0.47,0.13c-3.98,1.02-8.05,1.76-11.92,3.17
			c-7.13,3.02-14.28,6.02-21.14,9.62c-4.04,2.12-8.01,4.38-12.02,6.57c-2.2,1.08-6.66,3.17-6.66,3.17l-2.05,5.32
			c0,0,36.78-16.23,44.02-18.63c1.71-0.37,7.89-1.7,11.22-2.62c6.35-1.35,11.78-4.95,17.17-8.38c3.67-1.95,7.64-3.3,11.56-4.67
			c7.88-2.5,18.67-3.74,27.79-7.22c13.32-5.58,25.71-13.11,38.9-18.97c10.77-5.2,21.73-9.92,32.9-14.16
			c8.79-3.58,17.45-7.5,26.62-10.02c5.78-1.74,11.72-3.21,17.09-6.03c5.68-3.17,10.82-7.76,13.74-13.64
			c2.49-4.99,3.45-10.56,3.85-16.08C1253.34,615.79,1253.52,611.89,1252.88,608.04z"/>
		<path class="st13" d="M1223.54,566.16c-0.36-1.8-0.79-3.64-1.73-5.23c-0.89-1.54-2.26-2.72-3.57-3.9
			c-4.09-3.62-8.64-6.67-13.25-9.58c-9-5.62-18.47-11.09-29.16-12.48c-4.71-0.71-9.4-0.79-14.26,0.05
			c-0.65,0.11-2.13,0.61-2.22,0.71c-0.09,0.1-0.19,0.29-0.17,0.42c0.1,0.77,0.48,1.51,0.91,2.12c0,0,0,0.01,0,0.01
			c0.05,0.09,3.88,4.55,6,6.73c8.12,8.38,16.85,13.29,24.14,22.54c2.83,3.35,5.49,6.84,8.28,10.23c1.96,2.45,4.18,4.82,7.08,6.14
			c2.64,1.21,5.58,1.8,8.48,1.76c1.67,0.04,3.36-0.34,4.69-1.39c3.19-2.49,4.64-6.59,5.3-10.46
			C1224.47,571.26,1223.91,568.69,1223.54,566.16z M1218.77,576.52c-1.25,1.45-0.93,1.19-2.83,2.04c-4.98,0.41-8.03-0.2-11.96-2.89
			c-4.97-4.49-11.56-14.81-18.59-20.06c-7.19-5.61-15.41-9.72-22.48-15.5c-0.92-0.75-3.21-3.27-3.14-3.46
			c0.81-2.02,4.72-0.41,7.01-0.04c2.78,0.45,5.12,1.4,8.11,2.27c8.73,2.47,16.52,7.14,24.04,12.1c7.74,4.93,15.4,9.2,20.64,15.25
			c0.46,1.01,0.55,1.18,1.14,5.51c0,0.02,0,0.05,0,0.07c-0.04,0.27-0.09,0.54-0.14,0.82c-0.07,0.28-0.22,0.88-0.37,1.22
			C1220.05,574.34,1219.58,575.49,1218.77,576.52z"/>
		<path class="st13" d="M1182.4,592.48c-0.84-2.25-1.79-4.55-3.49-6.3c-4.22-4.01-7.44-5.97-11.18-9.26
			c-6.4-4.92-12.81-9.89-19.64-14.21c-5.83-3.54-12.09-6.7-18.98-7.34c-3.87-0.22-7.85-0.08-11.61,0.89
			c-1.95,0.54-3.51,2.05-4.66,3.65c0.01-0.16,0.04-0.32,0.11-0.5c-0.67,1.33,0.55,2.52,1.46,3.37c1.36,1.25,2.67,2.56,3.94,3.89
			c6.27,6.91,11.46,14.72,17.64,21.72c7.51,8.47,17.06,15.04,27.7,18.94c2.04,0.76,4.14,1.53,6.33,1.69c1.37-0.03,2.7-0.39,4-0.8
			c4.23-1.27,6.29-5.07,7.86-8.89C1182.76,597.18,1183,594.73,1182.4,592.48z M1177.35,598.5c-0.03,0.05-0.08,0.12-0.16,0.23
			c-0.06,0.08-0.12,0.16-0.17,0.23c-0.14,0.23-0.53,0.63-0.67,0.79c-1.05,0.79-2.24,1.38-3.49,1.8c-0.08,0.03-0.17,0.05-0.25,0.08
			c-0.07,0.02-0.11,0.03-0.15,0.04c-4.14,0.98-6.02-0.53-10-1.93c-8.93-3.53-17.39-9.63-23.34-15.08
			c-6.66-6.18-12.51-13.24-19.48-19.07c-1.53-1.19-3.1-2.34-4.74-3.36c-0.85-0.55-2.1-1.23-2.06-2.31c0.61-0.65,2.01-1.59,3.05-2.03
			c0.88-0.31,1.92-0.39,2.91-0.39c5.76,0.22,10.39,1.11,15.48,3.23c8.44,4.07,15.8,10.03,23.09,15.83
			c7.19,5.2,13.72,10.52,18.88,14.76c1.87,1.8,2,2.11,2.79,3.92C1178.54,596.36,1178,597.46,1177.35,598.5z"/>
		<path class="st13" d="M1118.13,608.62c-1.41-2.14-3.4-3.79-5.28-5.5c-3.45-3.1-5.65-4.9-9.51-8.24c-2.56-2.22-5.63-3.64-8.6-5.21
			c-5.09-2.78-10.51-5-15.89-7.08c-0.26-0.08-0.67-0.2-0.82-0.16c-0.02,0.01-0.23,0.07-0.2,0.07c0.95,0.04,2.2,0.98,2.95,1.47
			c2.13,1.56,4.4,2.91,6.6,4.36c3.05,2.01,5.93,4.26,8.9,6.39c3.28,2.22,5.07,3.81,7.95,6.91c3.74,4.16,8.15,7.72,11.6,12.14
			c0.13,0.18,0.25,0.36,0.38,0.54c0.09,0.15,0.21,0.36,0.33,0.58c-1.19,1.17-1.74,1.6-3.07,1.84c-5.04-0.12-8.01-0.08-12.08-2.54
			c-3.32-2.33-8.31-8.08-12.27-12.19c-3.32-3.61-6.58-7.29-9.7-11.08c-1.72-2.3-4.3-6.11-1.12-8.41c-4.57,2.31,0.15,9.37,1.84,12.29
			c3.9,6.15,8.15,12.07,12.74,17.71c2.22,2.59,4.3,5.36,6.9,7.58c1.88,1.45,4.08,2.47,6.38,3.04c1.98,0.38,4.01,0.48,6.02,0.58
			c1.02,0.09,2.04-0.07,2.99-0.44c1.7-0.85,3.24-2.21,4.29-3.8C1121.16,616.01,1120.32,611.69,1118.13,608.62z"/>
		<path class="st13" d="M1201.68,577.57c-0.29,0-0.57,0.01-0.86,0.03c-0.06-0.93-0.44-2.38-1.52-2.01c0,0-0.01,0-0.01,0.01
			c-7.41,2.48-14.07,6.94-19.81,12.2c-1.21,1.07-1.44,2.84-1.03,4.33c0.19,0.49,0.41,1.18,0.99,1.29c0.45,0.21,0.81-0.29,1.11-0.56
			c0.05-0.06,0.11-0.11,0.16-0.17c3.87-2.87,11.26-8.28,16.91-11.21c2.03-1.09,3.17-1.08,3.22-3.56c0-0.02,0-0.04,0-0.06
			C1201.11,577.75,1201.39,577.66,1201.68,577.57z"/>
		<path class="st13" d="M1152.72,597.67c-3.58-0.45-7.09,1.6-10.55,2.36c-6.33,1.88-12.72,3.61-18.9,5.93
			c-2.54,0.96-3.93,1.28-4.83,1.51c-0.93,0.21-2.05,0.19-2.48,1.21c-0.78,1.78-0.8,5.36,1.73,5.54c0.63,0.14,1.28,0.07,1.89-0.08
			c0.32-0.09,1.3-0.35,0.45-0.12c2.88-0.77,5.72-1.7,8.56-2.58c4.42-1.32,8.7-3.14,12.83-5.18c0.93-0.49,1.85-1.02,2.76-1.57
			c1.51-0.68,3.02-1.38,4.51-2.1c0.16-0.08,0.29-0.15,0.43-0.22c0.64-0.15,1.26-0.3,1.85-0.45c0.87-0.32,2.46-0.22,2.91-1.09
			C1154.39,599.74,1154.33,597.55,1152.72,597.67z"/>
		<path class="st13" d="M1055.33,627.52c0.01,0.23,0.02,0.46,0.01,0.17c0-0.09-0.01-0.18-0.01-0.26c0-0.05-0.01-0.09-0.01-0.14
			c0,0.02,0.01,0.04,0.01,0.07c-0.1-1.97-0.73-3.87-1.73-5.57c-2.82-4.7-6.78-8.67-11.33-11.71c5.57,5.82,11.27,15.24,10.7,18.45
			c-0.02,0.06-0.03,0.12-0.05,0.16c-0.58,1.3-1.4,2.27-3.03,3.92c-3.58,2.62-8.22,1.86-13.21,2.67c-2.02,0.32-4.06-0.07-6.08-0.24
			c-2.23-0.31-4.49-0.39-6.7-0.77c-4.64-1.01-11.37-4.74-16-8.21c3.48,4.32,9.88,10.34,16.09,12.73c3.78,1.02,7.61,2.13,11.51,2.56
			c3.89-0.26,7.87,0.04,11.62-1.21c3.6-0.81,5.82-4.04,7.41-7.13C1055.34,631.29,1055.52,629.39,1055.33,627.52z"/>
		<path class="st14" d="M1055.33,627.52c0-0.06-0.01-0.12-0.01-0.17c0,0.02,0,0.05,0,0.07
			C1055.32,627.45,1055.32,627.49,1055.33,627.52z"/>
		<path class="st13" d="M1097.63,615.08c-2.67-1.13-5.63-1.43-8.51-1.26c-4.3,0.2-8.4,1.74-12.67,2.17
			c-7.87,1.38-16.28,1.22-23.44,5.18c8.24-1.5,16.67,0.84,24.89-1.07c6.73-1.59,12.53-5.38,19.5-4.96
			C1097.56,615.13,1098.04,615.23,1097.63,615.08z"/>
		<path class="st13" d="M988.02,635.81c-0.53-1.79-1.98-3.03-3.22-4.34c-0.76-0.79-1.58-1.53-2.45-2.19
			c-0.08-0.05-0.18-0.01-0.23,0.06c-0.21,0.31-0.2,0.73,0.01,1.02c0,0,0,0.01-0.01,0.02c0.19,0.21,0.36,0.44,0.54,0.66
			c1.66,2.33,3.45,4.56,3.9,6.28c0,0.01,0,0.01,0,0.02c-0.2,2.95,0.21,1.36-0.59,3.3c-1.05,2.87-6.14,6.37-8.91,7.11
			c-4.28,1.07-8.21,0.1-11.53-1.22c-3.25-1.15-7.28-3.77-9.48-5.42c-2.19-1.88-3.87-4.26-5.84-6.36c2.13,3.59,3.83,7.58,6.98,10.42
			c8.58,8.47,19.94,13.24,28.51,1.9C988.05,643.84,989.04,639.7,988.02,635.81z"/>
		<path class="st13" d="M933.71,646c-0.52-5.19-4.6-7.98-6.93-12.53c0.97,3.15-4.17-0.46,3.25,10.77c1.46,2.21,0.55,3.09,0.5,5.39
			c-0.02,0.15-0.04,0.29-0.06,0.44c-0.16,0.58-0.06,0.41-1.19,1.56c-2.04,2.13-3.79,3.2-7.1,4.46c-5.16,2.19-11.39,1.41-16.47-2.09
			c-1.99-1.46-4.28-2.37-6.46-3.49c-1.63-0.84-3.14-1.88-4.53-3.08c0.1,0.13,0.2,0.27,0.3,0.4c1.94,2.92,5.88,5.89,8.06,7.54
			c1.91,1.76,3.73,3.66,6.02,4.95c2.96,1.63,6.41,2.5,9.79,2.23c5.22-0.8,9.95-3.85,12.79-8.31
			C932.8,652.28,933.94,648.16,933.71,646z"/>
		<path class="st13" d="M886.18,658.05c-0.1-1.47-0.16-2.97-0.82-4.32c-1.35-2.84-4.38-4.18-7.1-5.4c-0.49-0.2-1-0.35-1.51-0.5
			c0.07,0.05,0.15,0.09,0.22,0.14c2.11,1.4,3.82,3.16,5.62,5.04c2.1,2.74,1.92,3.59,1.61,6.59c-0.01,0.02-0.01,0.04-0.02,0.06
			c-0.64,1.82-1.12,2.27-2.99,3.14c-2.44,1.22-9.57,0.26-11.9-0.46c-2.86-0.89-5.2-2.77-7.84-4.1c-8.2-4.77-7.6-4.75-11.47-7
			c1.73,1.93,3.6,3.72,5.28,5.7c1.3,1.19,2.49,2.49,3.87,3.58c0.98,0.77,2.11,1.34,3.06,2.16c1.1,0.99,3.7,3.2,5.97,4.26
			c1.71,0.76,3.58,1.21,5.42,1.54c4.21,0.58,9.51,0.07,11.46-4.31C886.07,662.29,886.36,660.15,886.18,658.05z"/>
		<path class="st13" d="M840.21,659.68c-1.5-3.02-4.39-5.09-7.46-6.33c2.41,2,4.49,4.16,5.73,6.65c1.05,1.89,1.69,5.64,1.91,7.47
			c-0.43,0.22-0.56,0.19-1.52,0.17c-2.94-0.52-6.62-2.03-9.93-4.22c-2.95-1.71-6.1-3.03-8.94-4.94c-1.35-0.87-2.89-1.86-4.21-2.53
			c0.6,0.6,1.2,1.2,1.79,1.8c3.19,3.53,6.12,5.99,9.93,8.75c1.8,1.28,3.41,2.87,5.41,3.82c2.1,0.86,4.32,1.93,6.64,1.82
			C845.01,671.47,841.56,662.79,840.21,659.68z"/>
		<path class="st13" d="M1219.58,583.99c-3.23,2.44-6.66,5.37-10.5,6.41c-0.87,0.23-1.76,0.4-2.65,0.46
			c0.33,0.09,0.65,0.18,0.99,0.24c3.63,0.77,7.21-0.68,10.24-2.59c5.16-3.18,8.35-8.6,12.85-12.55
			C1226.38,577.74,1221.78,582.15,1219.58,583.99z"/>
		<path class="st13" d="M1180.35,606.19c-3.29,2.41-6.16,2.91-10.15,2.93c-3.32,0.01-6.64,0.14-9.96,0.26
			c-1.85,0.12-3.64,0.65-5.39,1.26c1.16-0.07,2.32-0.05,3.48,0.04c5.3,0.83,10.66,2.67,16.08,1.89c6.99-1.47,9.85-8.33,13.16-13.71
			C1185.21,601.33,1182.89,603.92,1180.35,606.19z"/>
		<path class="st13" d="M1120.37,622.98c-2.95,0.7-5.97,0.98-9,0.9c-3.83,0.02-7.65,0.44-11.43,1c-1.67,0.29-3.63,0.82-5.08,1.28
			c1.03-0.03,2.06-0.05,3.09-0.03c5.32,0.12,10.58,1.59,15.92,1.04c4.99-0.67,10.26-2.95,12.89-7.44
			C1125.07,621.5,1122.3,622.51,1120.37,622.98z"/>
		<path class="st13" d="M1052.47,639.92c-1.39,0.75-2.89,1.28-4.42,1.69c-3.43,0.88-7.14,2.3-12.23,2.66
			c6.1,1.94,13.42,0.13,17.66-4.73C1054.44,638.54,1052.94,639.73,1052.47,639.92z"/>
		<path class="st13" d="M827.08,670.55c2.15,1.43,4.4,2.95,6.96,3.49c1.65,0.31,5.02-0.02,5.75-0.52
			C835.4,673.23,831.29,671.68,827.08,670.55z"/>
		<path class="st13" d="M875.17,670c-3.43,0.05-6.26-1.31-9.4-2.68c-5.99-2.07-12.82-4.74-19.03-2.12c5.19-0.29,9.5,2.14,14.44,3.65
			c4.07,0.91,8.29,2.75,12.5,1.78C874.2,670.47,876.5,669.94,875.17,670z"/>
		<path class="st13" d="M943.92,652.74c-5.8,0.59-11.02,3.34-15.49,6.97c-2.77,1.8-6.84,3.87-9.39,4.69
			c-2.95,0.68-6.12,0.54-9.05-0.18c2.69,1.7,5.91,2.84,9.11,2.82c3.59-0.41,7.14-1.69,10.23-3.55c4.82-3.77,9.88-7.34,15.72-9.36
			c1.64-0.55,3.01-0.9,4.67-1.31C947.8,652.66,945.85,652.52,943.92,652.74z"/>
		<path class="st13" d="M983.63,654.51c-3.16,1.27-6.52,2.18-9.94,2.29c2.03,0.76,4.36,0.89,6.4,0.09c1.46-0.58,2.75-1.48,3.91-2.53
			C983.87,654.41,983.75,654.46,983.63,654.51z"/>
		<path class="st13" d="M1060.77,686.1c-6.56,2.32-13.46,3.38-20.3,4.54c-18.67,3.71-37.16,8.65-56.1,10.88
			c-10.81,0.94-21.67,0.29-32.47-0.41c-19.74-0.74-39.45-2.16-59.07-4.49c-9.52-0.74-19.11-0.87-28.66-0.72
			c-7.3,0.26-14.75,0.5-21.65,3.15c7.38-1.02,14.77,0.27,22.1,1.12c9.92,1.39,19.88,2.51,29.84,3.54c14.98,1.77,30,3.06,45.06,3.74
			c5.04,0.4,10.1,0.39,15.15,0.76c4.7,0.19,9.39,0.72,14.1,0.68c5.62,0,11.25,0.1,16.84-0.52c6.69-0.72,13.28-2.14,19.9-3.3
			c8.68-1.65,17.28-3.79,25.66-6.63c6.1-2.03,12.02-4.55,18.09-6.65c4.88-1.72,9.45-4.11,14.02-6.51
			C1062.46,685.57,1061.61,685.84,1060.77,686.1z"/>
		<path class="st13" d="M1027.77,693.88c-11.16,5.04-22.28,7.51-35.14,9.23c-10.09,1.02-20.23,1.65-30.34,2.46
			c-7.62,0.43-15.26-0.09-22.84-0.89c-4.43-0.55-8.8-1.68-13.22-2.2c-1.4,0.35-1.64,2.01-1.67,3.3c-5.96-2.18-12.1-3.91-18.46-4.2
			c10.44,2.81,19.36,9.11,29.09,13.59c7.14,3.65,14.49,7.16,22.55,8.08c3.4,0.4,6.82,0.88,10.24,0.78c3.05-0.16,6.06-0.8,9.02-1.5
			c8.56-2.02,16.9-4.84,25.04-8.14c9.78-3.8,21.12-6.84,28.34-14.82C1031.26,697.69,1030.78,692.55,1027.77,693.88z"/>
		<path class="st14" d="M758.81,668.18L758.81,668.18c-0.04,0.01-0.08,0.02-0.12,0.03l-0.31,0.06l-0.36,0.08l-0.42,0.11l-0.96,0.3
			l-1.26,0.42l-1.05,0.37l-0.92,0.34l-0.83,0.31l-0.74,0.28l-0.61,0.23l-0.51,0.19l-0.53,0.2l-0.54,0.2l-0.51,0.19l-0.52,0.19
			l-0.5,0.18l-0.48,0.17l-0.51,0.19l-0.51,0.2l-0.48,0.19l-0.48,0.2l-0.51,0.22l-0.51,0.22l-0.49,0.22l-0.47,0.21l-0.45,0.2
			l-0.47,0.21l-0.47,0.21l-0.45,0.2l-0.42,0.18l-0.42,0.19l-0.42,0.18l-0.41,0.18l-0.41,0.18l-0.38,0.17l-0.36,0.16l-0.35,0.15
			l-0.36,0.16l-0.37,0.16l-0.36,0.16l-0.36,0.16l-0.36,0.16l-0.35,0.16l-0.38,0.17l-0.38,0.17l-0.39,0.17l-0.41,0.18l-0.4,0.18
			l-0.41,0.18l-0.41,0.17l-0.37,0.16l-0.34,0.14l-0.32,0.13l-0.3,0.12l-0.35,0.14l-0.38,0.15l-0.36,0.14l-0.34,0.14l-0.35,0.14
			l-0.36,0.15l-0.33,0.13l-0.32,0.13l-0.32,0.13l-0.3,0.13l-0.28,0.12l-0.25,0.11l-0.29,0.13l-0.31,0.14l-0.32,0.14l-0.32,0.14
			l-0.32,0.14l-0.31,0.14l-0.31,0.14l-0.31,0.14l-0.28,0.13l-0.29,0.13l-0.3,0.14l-0.3,0.14l-0.29,0.13l-0.28,0.13l-0.27,0.12
			l-0.29,0.13l-0.3,0.14l-0.29,0.13l-0.28,0.13l-0.28,0.13l-0.28,0.12l-0.3,0.14l-0.31,0.14l-0.3,0.14l-0.31,0.14l-0.33,0.15
			l-0.34,0.15l-0.32,0.15l-0.33,0.15l-0.36,0.16l-0.36,0.16l-0.36,0.16l-0.36,0.16l-0.37,0.16l-0.36,0.16l-0.43,0.19l-0.48,0.21
			l-0.44,0.19l-0.41,0.18l-0.44,0.19l-0.47,0.2l-0.46,0.2l-0.52,0.23l-0.51,0.22l-0.46,0.2l-0.43,0.19l-0.45,0.2l-0.45,0.2
			l-0.46,0.2l-0.46,0.2l-0.44,0.19l-0.43,0.19l-0.38,0.17l-0.35,0.16l-0.36,0.17l-0.37,0.18l-0.39,0.19l-0.41,0.2l-0.41,0.2
			l-0.4,0.2l-0.4,0.2l-0.39,0.2l-0.35,0.18l-0.32,0.17l-0.33,0.17l-0.34,0.18l-0.31,0.16l-0.29,0.15l-0.33,0.17l-0.35,0.18
			l-0.36,0.18l-0.36,0.18l-0.33,0.16l-0.3,0.15l-0.28,0.14l-0.27,0.14l-0.31,0.15l-0.33,0.16l-0.36,0.19l-0.38,0.2l-0.43,0.22
			l-0.45,0.23l-0.4,0.2l-0.36,0.18l-0.36,0.18l-0.36,0.18l-0.32,0.16l-0.29,0.14l-0.26,0.13l-0.23,0.11l-0.21,0.1l-0.18,0.09"/>
		<path class="st13" d="M745.25,662.76c-6.17,2.43-16.71,15.65-22.79,18.29c-8.46,4.46-16.68,9.62-25.02,14.32
			c-6.65,3.62-13.25,6.97-19.87,10.65c-4.43,2.56-8.77,5.27-13.36,7.54c-3.14,1.33-6.36,2.44-9.59,3.54
			c-7.32,2.61-27.48,7.46-34.77,10.16c-2.52,0.93,15.93,4.02,17.6,3.43c3.63-1.27,11-7.31,14.6-8.65
			c15.68-6.11,29.67-15.64,44.19-23.99c5.93-3.25,12.29-5.6,18.31-8.67c2.76-1.22,5.36-2.76,8.04-4.11
			c4.09-1.87,8.31-3.45,12.34-5.47c7.79-3.45,14.83-8.39,22.68-11.69C751.85,669.27,750.7,660.61,745.25,662.76z"/>
		<path class="st13" d="M668.06,756.36c-0.4-1.25-1.04-2.47-2.14-3.23c-1.94-0.93-4.46-1.41-5.74-2.99
			c-1.45-1.67-0.67-4.69,0.13-5.61c-0.84,1.31-1.96,2.76-1.46,4.61c0.38,1.21,0.93,2.45,1.91,3.3c1.4,1.28,3.17,2.02,4.77,2.98
			c1.25,1.21,1.37,2.65,1.36,3.11c-0.02,0.12-0.05,0.31-0.07,0.42c-0.06,0.21-0.16,0.53-0.23,0.74c-0.05,0.12-0.18,0.44-0.24,0.56
			c-0.38,0.84-1.25,2.44-1.4,2.82c-2.23,2.99-4.63,5.87-7.17,8.61c-4.75,5.25-8.94,9.8-13.86,13.12
			c-6.24,4.86-13.65,7.68-20.91,10.62c-6.32,2.75-12.55,5.76-18.6,9.06c-5.05,3.07-10.24,6.01-14.7,9.91
			c-0.72,0.58-1.3,1.31-1.75,2.11c-0.7,1.39-1.04,2.96-1,4.51c0.03,1.56,0.58,3.6,2.4,3.79c1.36,0.17,2.73,0.46,4.09,0.19
			c2.81-0.57,4.68-1.21,7.43-1.94c3.89-1.28,7.61-2.27,11.61-3.21c-2.12,0.18-11.13,1.29-14.01,0.86c-1.72-0.26-2.86-1.95-2.4-3.62
			c0.18-0.67,0.51-1.33,1.06-1.82c8.11-7.16,16.66-11.72,26.46-16.28c7.63-3.5,15.46-6.7,22.12-11.91
			c6.34-4.45,11.5-10.31,16.36-16.29C665.23,766.48,669.58,762.22,668.06,756.36z"/>
		<path class="st14" d="M589.51,814.58c0.07-0.06,0.15-0.12,0.22-0.18c0,0,0,0,0,0C589.75,814.38,589.57,814.53,589.51,814.58z"/>
		<path class="st13" d="M531.59,763.29c-4.02-0.9-8.2-1.39-12.3-0.83c-7.21,0.98-13.09,2.96-19.55,6.63
			c-4.4,2.19-8.74,4.56-12.62,7.59c-6.91,5.71-12.61,12.72-19.37,18.61c-9.78,10.71-23.7,19.81-36.58,27.97
			c-5.5,3.23-11.19,6.13-16.93,8.89c-4.27,2.2-8.71,4.01-13.3,5.44c-2.93,1.12-4.96,1.64-8.17,2.11c-3.28,0.3-6.59,0.5-9.79,1.34
			c-2.97,0.68-5.52,2.38-8.24,3.65c-3.38,1.6-7.03,2.5-10.58,3.65c-3,0.9-5.84,2.25-8.82,3.22c-1.73,0.51-6.44,1.53-9.68,1.87
			c-2.19,0.2-4.39,0.77-6.6,0.57c-0.67-0.08-1.33-0.23-1.96-0.44c-0.75-0.28-1.47-0.63-2.2-0.95c-0.2-0.07-0.92-0.46-0.54-0.21
			c1.5,1.03,2.99,2.16,4.79,2.63c1.57,0.45,0.96,5.6,2.58,5.68c5.1,0.19,41.22-3.08,20.83-5.59c-1.15-0.14-0.85-2.08,0.27-2.39
			c3.57-1,6.72-1.68,10.54-3.21c3.42-1.3,6.42-3.53,9.95-4.57c2.73-0.87,7.77-1.35,11.46-2.22c3.35-0.77,6.53-2.1,9.8-3.14
			c10.34-3.77,19.84-9.56,29.19-15.29c8.14-4.76,15.56-10.63,22.83-16.61c5.36-4.53,10.95-8.82,15.96-13.75
			c4.29-4.01,9.38-9.46,13.16-12.67c6.86-5.45,14.54-10.16,23-12.62c2.89-0.48,11.15-3,16.05-2.99c2.87-0.14,5.7,0.42,8.56,0.53
			c2.27,0.01,4.7-0.28,6.57-1.67c2.45-2.04,3.69-5.19,4.47-8.2C541.74,763.12,538.65,764.91,531.59,763.29z"/>
		<path class="st13" d="M479.85,726.41c-2.01,1.43-3.81,3.13-5.91,4.43c-3.93,2.32-7.99,4.47-12.17,6.31
			c-4.49,1.6-7.75,2.44-12.45,3.44c-10.54,1.46-21.23,3.14-30.7,8.28c-11.25,5.57-22.1,11.97-32.07,19.63
			c-6.15,4.49-11.78,9.65-17.97,14.09c-5.74,3.93-11.78,7.46-17.8,10.95c-6.52,3.33-12.67,7.41-19.37,10.38
			c-2.81,1.12-5.96,1.56-9.58,1.98c-6.91,0.77-10.58-2.29-13.35-7.61c-1.63-2.33-4.85-2.06-7.33-3.36c-0.19-0.1-0.86-0.34-0.97-0.63
			c-0.07-0.17,0.42-0.69,0.43-0.71c0.38-0.89,0.48-1.19,1-2c0.15-0.33,0.15-0.75,0-1.08c-0.27-0.44-0.53-0.11-0.75,0.27
			c-0.2,0.27-0.38,0.54-0.56,0.82c-0.02,0.04-0.04-1.42-0.07-1.39c-0.1-0.62-0.37,0.34-0.97,0.38c-0.44,0.29-0.82,0.68-1.15,1.12
			c-0.02-0.01-0.03-0.03-0.05-0.05c-0.53-0.27-1.01,0.24-1.23,0.69c-0.47,0.98-0.58,2.26-0.16,3.29c-0.02,0.21-0.04,0.41-0.04,0.6
			c-0.01,0.16,0.01,0.32,0.01,0.47c-3.17,2.51-1.91,6.73-0.94,10.26c0.03,0.62,0.08,1.24,0.15,1.85c0.16,1.04,0.38,2.17,1.03,3.01
			c0.83,0.89,1.52-0.56,1.55-1.31c0.05-1.31-0.28-3.05-0.66-4.68c0-1.37,1.19-2.93,1.1-3.45c-0.45-2.71,0.38-2.84,0.41-2.88
			c0.35-0.39,1.34-0.41,2.06-0.43c2.05-0.2,4.43,0.95,5.35,1.96c0.95,1.03-0.4,5.71,0.82,7.49c5.46,7.75,12.68,6.23,20.32,1.25
			c0.91-0.59,1.89-1.08,2.91-1.44c6.52-2.29,12.45-6.65,18.62-9.72c6.46-3.5,12.74-7.37,18.9-11.39c5.19-3.64,9.97-7.81,14.94-11.73
			c4.73-3.62,9.52-7.21,14.46-10.54c10.41-7.01,26.06-21.95,48.5-23c4.24-0.94,11.99,0.79,16.05-0.77c4.11-1.9,7.96-4.35,11.65-6.95
			c2.35-1.69,4.26-3.88,6.38-5.83c3.13-2.99,6.35-5.9,9.4-8.98C486.41,721.78,483.07,724.01,479.85,726.41z"/>
		<path class="st13" d="M483.45,724.7c-8.33,6.62-17.18,12.57-25.61,19.06c-9.18,6.54-19.13,11.97-27.93,19.05
			c-12.49,10.17-23.38,22.13-35.3,32.95c-3.79,3.65-7.33,7.54-10.85,11.45c-2.82,3.25-5.67,6.48-9.01,9.21
			c-8.99,7.38-21.38,10.54-33.88,10.3c-5.08,0.22-10.02-1.06-14.65-3.07c-0.26-0.06-0.69-0.32-0.78-0.31
			c0.42,0.26,0.84,0.51,1.26,0.76c2.5,1.52,5.12,2.9,7.92,3.78c3.28,0.95,6.68,1.31,10.06,1.66c11.19,1.02,22.51-3.36,31.16-10.31
			c3.86-3.14,6.96-7.03,10.15-10.81c2.73-3.27,5.77-6.27,8.79-9.27c10.38-10.38,22.65-25.43,35.25-35.29
			c6.29-4.99,13.54-8.76,21.35-12.2c4.76-2.98,9.21-6.4,13.75-9.7c6.85-4.72,13.64-9.69,19.42-15.71c3.38-3.13,7.13-5.94,10.46-9.23
			C491.26,719.77,487,721.88,483.45,724.7z"/>
		<path class="st13" d="M397.24,793.82c-5.17,4.26-20.59,17.03-26.32,20.64c-4.78,2.98-9.99,5.21-15.3,7.06
			c-7.36,2.33-14.35,5.48-22.19,4.72c4.74,1.68,10.8,1.67,15.69,1.67c5.5-0.95,10.75-1.97,15.9-4.16c6.1-2.62,11.26-6.79,15.2-10.31
			c2.98-2.7,5.1-6.74,8.02-9.51c1.35-1.36,7.54-7.68,8.86-8.77C395.4,796.09,398.8,792.69,397.24,793.82z"/>
		<path class="st13" d="M436.31,694.84c-2.73,1.96-5.68,3.6-8.37,5.6c-2.28,2.24-4.04,3.51-6.47,5.65
			c-3.59,3.54-7.1,7.17-10.54,10.86c-1.52,1.88-6.14,3.45-8.24,4.29c-3.04,0.44-6.15,0.13-9.2,0.52
			c-4.78,0.59-11.39,1.75-15.81,2.14c-1.85,0.1-3.72-0.44-5.55-0.06c-2.72,0.38-4.01,3.06-5.27,5.18
			c-2.48,4.19-4.38,8.75-5.12,13.59c-0.59,3.93,0.36,7.85,0.7,11.76c0.22,2.72,0.5,7.23,0.42,9.6c-0.29,2.36-0.75,3.94-2.06,6.19
			c-0.87,1.53-3.28,3.77-4.38,6.11c-1.01,2.72-1.46,5.15-2.66,7.44c-1.4,2.45-3.69,5.08-5.85,7.39c-2.49,1.64-6.59-0.24-8.69,10.56
			c4.07-3.51,18.06-7.14,21.39-11.42c1.58-2.31-2.5-9-1.72-11.67c0.33-1.35,0.67-3.36,2.3-5.53c1.13-1.6,1.91-3.41,2.42-5.3
			c0.77-2.45,0.71-5.03,0.57-7.56c-0.11-3.3-0.32-6.59-0.79-9.86c-0.38-3.01-0.62-4.57-0.35-6.71c0.41-4.29,3.35-10.52,5.7-14.14
			c2.17-4.02,4.87-2.77,9.22-2.78c6.01-0.61,11.96-1.89,18-2.32c2.45-0.19,4.99,0.14,7.39-0.5c2.07-0.95,4.3-1.61,6.25-2.81
			c1.51-0.93,2.62-2.35,3.84-3.61c3.23-3.39,6.43-6.81,9.88-9.97c1.79-1.34,4.28-4.06,5.89-5.5c2.63-1.97,5.23-4,7.7-6.18
			c2.08-1.99,3.94-4.2,6.01-6.21C440.63,691.21,438.58,693.17,436.31,694.84z"/>
		<path class="st13" d="M403.03,650.22c-2.27-3.95-7.16-4.62-10.74-6.95c-3.9-2.54-7.58-5.39-11.5-7.89
			c-3.28-2.09-6.87-3.57-10.32-5.34c-2-1.03-5.29-3.19-6.34-4.17c-2.01-1.88-3.73-4.38-4.76-6.11c-2.16-3.65-3.64-6.65-3.17-9.3
			c0.24-1.34,1.11-2.83,1.91-4.98c0.65-1.73,0.82-3.77,0.27-5.56c-0.41-1.35-1.4-2.47-2.42-3.41c-0.82-0.75-1.7-1.46-2.74-1.88
			c-1.22-0.5-3.94-0.82-4.5-1.02c-3.08-1.08-7.54-2.88-9.38-4.45c-1.46-1.24-1.69-2.36-2.64-4.33c-1.57-3.25-2.66-6.71-4.84-9.66
			c-1.84-2.5-4-4.72-6.12-6.97c-2.63-2.78-5.66-5.17-9.19-6.66c-2.75-1.16-6.58-2.46-9.22-0.66c-0.77,0.53-2.42,1.89-1.76,2.33
			c0.68,0.46,0.98-1.34,1.65-1.83c0.98-0.72,2.24-0.53,3.38-0.35c2.23,0.36,4.3,1.39,6.23,2.51c3.67,2.13,6.07,4.49,8.92,7.69
			c1.57,1.77,3.23,3.46,4.7,5.32c3.07,3.89,4.26,9.07,7.13,13.74c0.85,1.38,2.32,2.13,3.63,2.98c3.14,2.03,8.21,3.21,11.1,3.85
			c2.36,0.53,4.2,2.63,4.88,4.17c0.05,0.1,0.08,0.21,0.08,0.24c0.01,0.07,0.01,0.18,0.01,0.23c-0.01,0.22,0,0.45-0.02,0.67
			c-0.02,0.24-0.1,0.76-0.12,0.9c-0.02,0.11-0.09,0.4-0.16,0.57c-2.48,5.73-2.99,10.01,0.13,15.51c1.7,3,3.45,6.06,5.93,8.47
			c1.8,1.75,3.96,3.09,6.14,4.32c3.56,2,7.4,3.43,10.87,5.61c4.24,2.66,8.13,5.81,12.39,8.43c2.74,1.69,6.54,4.89,7.44,9.84
			c0.91,5.03-1,17.58-1.43,19.82c-1.71,8.86-5.32,11.22-10.81,11.24c-2.37,0.01-19.11,4-27.48,1.05c-3.28-1.15-6.78-4.35-8.74-7.86
			c-0.66-1.18-1.74-2.01-2.64-3c-0.63-0.7-1.03-1.96-1.76-3.29c-0.49-0.9-0.71-4.03-1.84-5.67c-0.94-1.35-2.39-2.27-3.56-3.42
			c-1.9-1.86-3.77-3.82-6.09-5.16c-2.65-1.53-5.56-2.67-8.53-3.4c-2.71-0.66-5.54-0.72-8.31-0.98c-4.39-0.41-8.92,0.23-13.2-0.95
			c-7.01-1.93-11.82-9.11-15.85-15.63c-2.33-3.78-4.76-8.24-6.11-12.02c-0.92-2.57-1.92-5.06-2.25-7.63
			c-0.33-2.58,2.43-8.73-0.49-8.43c-3.37,0.35-0.5,6.8,0.14,10.17c0.7,3.68,1.97,7.25,3.34,10.74c0.84,2.13,1.85,4.42,3.05,6.26
			c3.76,5.79,7.37,12.37,13.3,16.53c4.41,3.09,9.17,3.56,14.52,3.57c3.06,0.01,6.1,0.39,9.14,0.71c3.91,0.41,7.73,1.76,11.37,4.05
			c2.95,1.85,5.17,4.51,8.07,7.13c1.24,1.12,0.89,1.67,1.55,3.94c0.75,2.6,1.86,5.23,3.91,7.07c1.69,1.51,2.18,3.25,3.34,5.62
			c0.88,1.8,2.1,3.49,3.74,4.64c3.67,2.58,8.49,2.88,12.89,2.79c2.63-0.06,5.18-0.77,7.79-1.05c2.65-0.28,5.26,0.57,7.93,0.52
			c5.71-0.12,11.79-1.86,15.15-6.88c2.08-3.12,2.64-6.66,3.08-10.27c0.57-4.61,0.71-9.22,0.91-13.86c0.07-1.63,0.06-4.25,0.07-5.67
			C404.11,655.11,404.16,652.21,403.03,650.22z"/>
		<path class="st13" d="M419.12,682.44c-0.88,1.18-2.04,2.3-3.08,3.14c-2.11,1.35-4.35,2.53-6.38,4.02
			c-1.55,0.87-6.01,1.5-7.77,1.38c-6.17-0.42-5.35-1.71-7.9-0.66c-1.86,0.57-6.73,1.25-6.73,1.25l-3.98,0.31c0,0-1.33,0.8-3.84-0.07
			c2.64,1.56,4.24,4.46,6.94,6.05c2.21,1.23,4.73,2.02,7.25,2.3c2.54,0.05,5.12-0.63,7.33-1.87c3.79-1.82,6.53-4.97,9.52-7.2
			c1.67-1.59,3.79-2.94,5.72-4.67c1.18-1.3,2.36-2.8,3.15-4.29C419.27,682.23,419.19,682.34,419.12,682.44z"/>
		<path class="st13" d="M359.54,584.51c-0.59-0.51-1.44-0.63-2.2-0.66c-6.51-0.03-13.5-0.39-19.1-2.68
			c-2.86-1.3-3.98-3.41-6.21-5.59c-0.95,0.47-0.09,2.06,0.17,2.79c0.68,1.49,1.77,2.71,3.07,3.67c1.68,2.13,4.5,3.01,7,3.88
			c4.09,1.47,8.11,2.21,13.16,2.11c1.14-0.02,2.28-0.17,3.41-0.35c0.3-0.07,5.1-0.16,5.31-0.39
			C364.71,586.51,360.17,585.24,359.54,584.51z"/>
		<path class="st13" d="M446.55,417.84c-5.73-1.43-11.75-1.84-17.61-1.11c-4.05,0.43-7.85,1.98-11.59,3.51
			c-4.4,1.89-8.8,3.82-12.94,6.23c-2.68,1.49-5.15,3.75-7.01,5.3c-2.77,2.22-5.54,4.43-8.29,6.68c-2.81,1.96-6.15,3.02-9.32,4.25
			c-3.15,1.05-6.67,1.52-10.26,2.65c-8.69,2.13-19.89,4.58-27.83,10.44c-3.02,2.76-4.87,6.59-6.19,10.41
			c1.55-3.39-2.36,6.35,15.82-1.22c7.94-3.31,7.15-9.89,15.41-12.06c3.31-0.94,12.54-6.89,16.27-8.61c2.57-1.07,5.27-2.01,7.4-3.89
			c2.61-2.24,5.38-4.28,8.02-6.5c2.34-2.01,4.25-3.65,7.25-5.27c4.81-2.67,9.88-4.87,14.98-6.91c4.49-1.88,8.4-2.88,13.31-3.48
			c4.18-0.47,8.44-0.65,12.63-0.31c0.2,0.01,0.41,0.09,0.51,0.08C446.92,417.97,446.73,417.9,446.55,417.84z"/>
		<path class="st13" d="M270.4,553.84c-2.65-3.25-7.22-3.53-11.12-3.73c-2.73-0.03-5.59-0.21-8.26,0.4c-0.33-0.02-0.65,0-0.96,0.08
			c-4.56,1.22-8.06,4.4-11.65,7.28c-3.43,2.86-7.59,4.53-11.64,6.32c-4.64,1.98-9.52,4.42-11.9,9.12c-0.97,1.96-2.09,5.04,0.53,6.72
			c1.83,1.1,3.96,1.58,5.75,2.76c2.26,1.39,3.71,4.22,4.43,6.58c0.6,2.34,0.98,7.24,4.13,10.15c2.6,2.34,6.33,2.81,9.68,3.18
			c2.4,0.33,4.95,0.7,7.25-0.29c3.52-1.64,6.2-4.6,9.1-7.12c1.41-1.27,2.83-2.57,3.83-4.21c1.31-1.97,2.06-4.22,2.97-6.38
			c1.94-4.97,2.9-8.14,5.78-13.27c1.14-2.21,2.84-4.14,3.65-6.5C273.07,561.28,272.93,556.88,270.4,553.84z M270.8,563.43
			c-0.15,0.89-1.59,2.76-2.44,4.3c-1.6,2.64-3.01,5.41-4.21,8.26c-1.76,4.06-3.32,9.96-6.04,13.78c-1.46,1.84-3.33,3.28-5.03,4.9
			c-2.1,1.86-3.62,3.36-6.3,4.83c-2.34,1.25-5.14,0.69-8.06,0.35c-3.7-0.44-7.23-1.04-9.33-3.87c-2.55-3.16-1.51-8.45-5.24-13.39
			c-1.05-1.44-2.49-2.52-4.08-3.29c-1.64-0.75-4.14-1.51-4.9-2.41c0.26-0.99,1.49-3.36,3.31-5.05c3.47-3.12,10.05-5.35,14.84-7.8
			c4.61-2.38,7.89-6.52,11.85-9.76c1.14-0.93,3.16-2.18,4.91-2.96c0.99-0.15,2.01-0.18,3.02-0.13c0.32,0.05,0.63,0.11,0.94,0.19
			c-0.14-0.05-0.29-0.11-0.44-0.17c1.16,0.08,2.32,0.25,3.46,0.44c4.36,0.65,7.89,0.82,11.34,3.2
			C271.34,557.33,271.71,560.39,270.8,563.43z"/>
		<path class="st13" d="M581.88,507.54c-3.9,2.32-9.31,12.29-12.37,15.59c-3.25,3.81-6.89,7.57-8.48,12.43
			c-0.33,0.94-0.71,1.79-1.22,2.91c-0.66,1.77-1.17,3.4-2.12,5.06c0.93-1.29,1.65-2.7,2.27-4.15c0.99-1.6,1.68-3.35,2.59-5
			c2.23-3.7,6.18-7.38,9.52-10.81c3.99-4.36,8.64-7.53,14.25-10.33c1.97-1.13,4.17-1.75,6.32-2.42c2.94-0.96,5.99-1.52,9.37-1.56
			C594.26,507.98,588.53,503.55,581.88,507.54z"/>
		<path class="st13" d="M710.74,470.76c-3.81,3.14-9.42,1.61-13.68,4.5c-5.22,3.24-9.41,10.88-14.74,13.92
			c-3.18,1.99-6.18,4.24-9.25,6.4c-10.13,7.35-18.48,16.78-27.05,25.82c-5.78,5.91-10.8,12.45-15.28,19.39
			c-3.85,5.19-6.64,9.35-9.18,14.98c-1.12,2.08-2.44,4.43-3.35,6.14c-1.19,2.56-2.39,5.12-3.58,7.68c-1.42,2.41-2.87,4.8-4.27,7.22
			c-1.5,2.14-3.98,5.82-5.04,9.16c-0.33,0.88-1.47,3.31-1.3,5.23c0.12,2.15,1.59,2.61,2.8,0.7c1.88-3.09,3.28-7.25,4.4-10.36
			c0.04,0.08,0.11,0.15,0.19,0.2c0.1,0.12,0.23,0.21,0.39,0.26c0.35-0.13,0.6-0.42,0.81-0.75c0.18-0.19,0.34-0.4,0.51-0.54
			c0.05-0.06,0.1-0.12,0.15-0.18c0.03,0.04,0.05,0.08,0.08,0.12c0.04,0.07,0.11,0.12,0.19,0.15c0.48,0.66,1.32,1.05,2.69,0.96
			c0.39,0,0.8,0.19,1.17,0.04c0.57-0.49,0.63-1.42,0.37-2.15c0.26-0.17,0.46-0.49,0.53-1.02c0.01-0.11,0-0.22,0-0.33
			c0.48,0.45,0.89,0.03,1.02-0.5c0.11-0.34,0.13-0.65,0.1-0.94c0.18-0.04,0.35-0.1,0.5-0.23c0.5-0.7,0.55-2-0.15-2.58
			c-0.48-0.19-1.19-0.24-1.74-0.27c1.25-5.22,3.16-11.07,4.9-16.23c0.18-0.49,0.5-1.35,0.9-2.28c0.24-0.49,0.46-0.99,0.67-1.5
			c0.03-0.06,0.05-0.12,0.08-0.17c-0.01,0.04-0.03,0.07-0.05,0.09c0.05-0.13,0.12-0.26,0.17-0.39c0.02-0.06,0.03-0.13,0.04-0.2
			c1.33-2.67,2.76-5.28,4.33-7.81c3.56-5,6.82-10.22,10.72-14.98c5.42-6.46,11.54-12.29,17.33-18.42
			c6.93-6.36,13.15-11.67,22.18-17.85c4.92-3.3,10.23-5.98,15.37-8.92c5.97-3.33,11.16-7.87,16.05-12.6
			c2.66-2.7,4.47-6.06,6.57-9.18C715.12,465.83,713.25,468.59,710.74,470.76z M605.63,590.11c-0.04,0.03-0.08,0.05-0.11,0.08
			c0.43-1.63,1.44-4.14,2.83-6.85c0.34-0.64,0.76-1.27,1.22-1.93C608.32,584.83,607.12,588.05,605.63,590.11z"/>
		<path class="st14" d="M716.01,466.95c1.6-1.11,3.02-2.45,4.26-3.95C718.81,464.27,717.3,465.46,716.01,466.95z"/>
		<path class="st13" d="M751.23,431.89c-0.02-0.01-0.03-0.01-0.03-0.01c0.12,0.2-0.14,0.42-0.25,0.6c-0.9,1.16-1.87,2.27-2.81,3.4
			c-4.12,4.84-8.82,9.15-12.93,14c-2.7,2.82-6.44,4.67-9.22,7.71c-0.53,0.57-1.17,1.27-1.61,1.77c0.73-0.66,1.44-1.33,2.19-1.96
			c2.07-1.77,4.73-3.11,6.95-4.83c1.94-1.48,3.53-3.34,5.27-5.04c4.6-4.57,8.92-9.49,12.26-15.07c0.08-0.17,0.24-0.34,0.22-0.54
			C751.25,431.92,751.25,431.9,751.23,431.89z"/>
		<path class="st13" d="M785.54,389.18c-1.55-0.76-3.18-1.39-4.91-1.62c-1.71-0.26-3.45-0.02-5.17-0.1
			c-2.7-0.23-5.34-0.81-7.97-1.46c-3.94-0.72-6.9-1.17-10.54-2.64c-5.39-1.6-11.74-4.6-17.74-6.29c-3.22-1-6.6-0.99-9.93-0.95
			c-3.75-0.09-7.5,0.22-11.09,1.37c-3.54,1.16-7.02,2.55-10.44,4.02c-2.41,1.17-4.8,2.2-7.14,2.53c-5,0.96-10.09,0.1-15.05-0.74
			c-5.8-0.87-11.61-1.71-17.28-3.21c-7.62-1.93-15.64-2.95-23.42-1.44c-0.35,0.06-0.81,0.27-0.98,0.31
			c0.43-0.09,0.87-0.19,1.31-0.24c7.08-0.43,14.28,0.72,20.74,2.67c5.92,1.74,12.78,2.96,19.28,3.92
			c5.04,0.85,10.19,1.67,15.27,0.75c2.83-0.38,5.49-1.4,8.07-2.57c3.44-1.32,6.87-2.72,10.39-3.82c2.43-0.78,6.43-1.33,9.56-1.19
			c3.69-0.09,7.7,0.13,10.73,1.15c4.85,1.43,11.33,4.32,16.78,6.07c2.45,0.89,4.86,1.98,7.47,2.32c3.95,0.54,7.78,1.68,11.74,2.14
			c1.35,0.2,2.73-0.02,4.09,0.06c1.8,0.11,2.84,0.33,4.31,0.94c4.69,1.89,6.88,3.63,6.81,6.73c-0.06,0.84-0.29,3.22-0.6,4.15
			c-0.16,1.1-0.96,2-1.57,3.61c-2.76,5.96-7.61,12.26-12.4,16.28c-3.48,2.8-7.14,5.37-10.74,8.01c-5.26,3.34-10.61,6.53-15.76,10.05
			c-13.66,9.78-27.18,18.97-38.13,31.59c4.67-4.33,9.56-8.32,14.65-12.11c7.85-5.57,15.73-11.09,23.61-16.62
			c5.19-3.55,10.58-6.79,15.9-10.15c3.28-2.39,6.57-4.77,9.79-7.24c4.23-3.22,7.66-7.36,10.59-11.76c1.54-2.25,2.87-4.63,3.94-7.13
			c0.77-1.44,1.38-2.97,1.66-4.59C792.43,395.93,791.76,391.67,785.54,389.18z"/>
		<path class="st13" d="M1103.09,249.13c-1.38-2.88-3.7-5.24-5.88-7.54c-3.02-2.97-6.09-5.88-9.1-8.86
			c-2.32-2.3-4.42-4.47-7.53-6.34c-4.68-2.55-9.75-4.96-14.83-6.57c-3.76-0.98-7.63-1.03-11.8-1.82c-3.32-0.34-6.01-2-9.08-3.92
			c-3.12-1.85-6.27-3.73-9.7-4.95c-3.76-1.22-7.74-1.69-11.68-1.48c-5.63,0.05-11.23,0.48-16.74,1.68
			c-5.1,0.75-10.18,1.63-15.13,3.08c-5.63,1.73-12.14,2.73-18.08,5.44c-7.32,3.94-14.17,8.69-21.11,13.26
			c-4.65,2.9-9.69,5.19-13.87,8.78c-2.7,2.33-5.2,5.22-7.12,8.09c4.03-4.68,9.2-8.22,14.8-10.76c4.67-2.02,8.84-4.93,13.07-7.72
			c4.5-3.07,9.16-5.93,13.9-8.61c4.92-2.59,10.54-3.4,15.42-4.89c4.9-1.45,12.1-3.11,18.36-3.92c5.6-1.23,11.3-1.59,17.02-1.65
			c3.71-0.2,7.89,0.42,10.86,1.42c3.66,1.33,7.01,3.37,10.34,5.36c1.73,1.01,3.42,2.15,5.33,2.82c2.31,0.67,4.71,1.04,7.09,1.32
			c2.49,0.23,4.98,0.52,7.47,0.78c1.46,0.22,2.69,0.78,4.36,1.45c4.55,2.03,9.17,4.09,13.19,7.08c2.31,1.59,4.71,4.63,7.57,7.22
			c3.83,3.78,7.92,7.35,11.1,11.72c1.58,2.25,2.3,5.78,0.1,8.75c-2.87,3.56-7.14,5.51-10.68,8.3c3.94-2.21,8.58-3.57,11.56-7.13
			C1104.46,256.56,1104.39,252.44,1103.09,249.13z"/>
		<path class="st13" d="M1049.08,277.57c-4.93,1.48-9.56,3.77-14.5,5.22c-7.26,2.33-15.12,3.9-23.04,5.56
			c-8.51,1.57-17.07,3.04-25.68,3.95c-9.01,0.38-17.9,1.95-26.78,3.47c-10.6,1.68-21.4,4.74-31.09,7.43
			c-12.91,2.72-25.35,7.13-38.15,10.27c-12.04,3.21-24.48,4.36-36.88,5.22c-9.98,0.78-19.93,1.76-29.9,2.62
			c-13.45,1.06-26.74,3.48-40.13,5.12c-12.19,1.5-24.57,2.08-36.45,5.41c-6.35,1.62-12.26,3.77-19.06,3.65
			c-8.11,0.03-16.22-0.55-24.33-0.67c-4.09-0.15-8.17-0.75-12.27-0.37c-5.65,0.45-11.24,1.78-16.45,4.03
			c-4.43,2.5-8.8,5.17-12.97,8.07c-2.59,1.89-4.39,4.63-6.64,6.89c-3.96,4.14-7.05,9-10.84,13.28c-3.22,4.14-6.75,8.09-11.07,11.11
			c0.5-0.3,1-0.59,1.49-0.9c4.63-2.78,8.07-6.92,11.62-10.89c3.31-3.58,5.96-7.72,9.41-11.18c2.54-2.61,4.57-5.81,7.81-7.64
			c3.78-2.31,7.62-4.57,11.48-6.72c4.34-1.83,8.15-2.88,12.74-3.56c5.16-0.89,10.34-0.35,15.52-0.05
			c6.36,0.19,12.73,0.25,19.09,0.53c3.63,0.02,7.28,0.07,10.89-0.4c4.73-0.7,9.29-2.21,13.94-3.31c6.42-1.74,13.02-2.6,19.61-3.42
			c15.93-1.43,31.68-4.2,47.54-6.18c18.52-2.1,37.15-3.06,55.68-4.99c9.94-1.15,19.61-3.72,29.18-6.53
			c10.98-3.08,20.84-5.83,31.82-8.47c6.17-1.54,12.29-3.28,18.51-4.59c7.43-1.47,14.95-2.52,22.46-3.49
			c5.47-0.56,10.98-0.59,16.44-1.26c8.35-1.43,16.76-2.54,25.08-4.16c6.79-1.5,13.7-2.53,20.33-4.68c3.71-1.06,7.29-2.46,10.86-3.92
			c3.7-1.32,7.45-2.52,11.15-3.84c9.04-3.21,17.55-7.93,26.84-10.42C1070.76,268.88,1060.06,274.03,1049.08,277.57z"/>
		<polygon class="st13" points="935.95,243.02 921.36,262.38 922.53,267.13 924.3,271.15 927.89,272.94 944.98,269.72 965.44,264.9 
			973.06,264.11 983.16,260.13 998.39,258.55 1018.28,255.04 1030.42,252.23 1044.36,246.29 1051.17,243.76 1050.21,240.22 
			1045.39,240.25 1039.06,242.42 1032.87,245.93 1028.67,247.87 1025.59,247.54 1026.27,241.95 1028.3,239.22 1032.97,235.19 
			1036.33,231.87 1040.35,227.1 1039.24,221.3 1037.92,216.82 1033.83,212.74 1029.83,210.71 1020.65,209.96 996.27,213.07 
			978.41,217.31 966.46,224.21 953.9,231.86 		"/>
		<g>
			<g>
				<path class="st12" d="M806.73,501.28c0.29,0,0.58-0.5,0.87-0.5C807.3,500.78,807.01,501.28,806.73,501.28L806.73,501.28z"/>
			</g>
		</g>
		<path class="st13" d="M780.52,475.24c-4.51,0.28-8.6,5.11-9.75,9.24c-0.08,0.36-0.15,0.77-0.22,1.12
			c0.02-0.06,0.05-0.13,0.07-0.19c0.25-0.88,0.76-1.88,1.19-2.48c1.15-1.77,3.26-3.64,4.15-4.35c1.67-1.29,3.43-2.47,5.45-2.58
			c0.89-0.05,2.06-0.02,2.55,0.85C783.46,475.51,781.78,475.26,780.52,475.24z"/>
		<path class="st13" d="M720.15,508.85c-2.31,1.16-4.38,2.97-5.46,5.36c-0.18,0.36-0.45,0.98-0.51,1.22
			c0.32-0.56,0.67-1.07,1.07-1.6c1.15-1.46,2.56-2.37,4.2-3.36c0.95-0.54,1.88-1.17,2.91-1.54c1.32-0.3,2.78-0.35,4.03,0.23
			C724.61,507.73,722.07,507.68,720.15,508.85z"/>
		<path class="st13" d="M669.57,537.01c-0.1,0.22-0.22,0.5-0.28,0.69c0.2-0.35,0.42-0.67,0.68-0.99c1.14-1.25,2.97-3.69,4.73-2.02
			C672.93,532.12,670.41,535.21,669.57,537.01z"/>
		<path class="st13" d="M660.1,541.98c4.64-1.39,5.98-7.19,9.77-9.58C665.31,534.05,664.12,539.67,660.1,541.98z"/>
		<path class="st13" d="M676.23,532.42c0.53-0.12,1.07-0.35,1.52-0.61C677.21,531.92,676.71,532.14,676.23,532.42z"/>
		<polygon class="st13" points="862.02,397.65 855.99,413.62 874.65,410.28 882.27,394.21 881.43,380.38 		"/>
		<path class="st13" d="M358.68,453.14l33.1-7.42l24.95-6.41l18.82,0.96l49.94,19.54l22.67,8.6l21.31,20.71l2.9,5.1l24.58,28.68
			l1.76,9.32l1.79,4.6l0.9,4.93l-4.47,9.17l-33.9,22.26l-73,40.71l-31.15-0.17l-11.43-6.75l-11.42,2.48l-43.27-26.8l-8.94-9.43
			l-4.59-21l-4.91-9.04l-1.53-15.79l-2.14-7.62l-0.67-21.75l-2.66-11.65l3.51-8.67l1.86-9.14l7.73-10.25L358.68,453.14z M361,460.61
			c-4.31,1.65-8.18,4.42-11.24,7.86c-2.62,2.85-4.23,6.44-5.68,9.98c-2.04,4.77-2.93,10.29-1.02,15.23c0.53,2.09,0.89,3.47,1,6.47
			c0.11,5.13-0.3,10.25,0.25,15.36c-0.11-5.59,1.44-11.04,1.93-16.66c0.43-2.72-0.27-8.52-0.35-9.94c0.03-0.21,0.06-0.43,0.1-0.64
			c0.69-2.88,0.95-2.98,2.66-6.61c1.87-3.8,1.86-3.93,4.11-6.77c3.82-4.5,6.18-6.7,11.1-9.56c5.12-2.59,10.06-4.61,15.42-5.56
			C373.26,458.43,366.87,458.73,361,460.61z"/>
		<path class="st13" d="M530.32,418l8.64-13.12l13.8-7.34l11.38-10.26l21.63-10.18l14.83,0.74l12.12-2.46l18.76,5.98l18.12,8.74
			l10.02,3.28l7.53,3.83l18.78,9.15l17.95,4.38l22.51,3.82l5.7,6.73c0,0-0.86,22.89-3.78,29.81c-2.13,5.07-13.67,17.22-13.67,17.22
			c-0.45,0.57-0.98,1.06-1.58,1.47l-15.39,10.51l-19.83,9.13L653,502.46l-11.14,7.45l-31.93-0.23l-16.14,0.18l-16.59-5.94
			l-12.81-9.5l-8.28-9.24l-8.44-11.32l-7.56-10.33l-3.03-11.84l-5.82-11.84l1.17-17.89L530.32,418z M654.6,477.29
			c-2.71,0.7-5.55,0.96-8.35,1.13c-5.43-0.08-10.43,0.57-15.31-0.12c-4.21-0.41-8.4-1.3-12.65-1.01c-4.47,0.19-8.86,1.48-13.36,1.34
			c-9.97,0.18-16.92-0.81-25.29-5.31c-6.39-3.78-13.29-7.2-18.62-12.43c3.44,6.24,8.7,11.35,13.81,16.26
			c7.57,7.56,16.83,12.37,27.66,12.63c5.61,0.65,13.15-1.78,14.38-2.06c7.51-1.67,11.84-2.57,17.58-4.19
			c1.36-0.21,5.63-1.44,7.42-1.89c4.87-1.02,9.93-2.01,14.2-4.7C657.32,476.26,655.1,477.18,654.6,477.29z"/>
	</g>
</g>
<g id="Breakdown_1_" class="st0">
</g>
<g id="Compound_1_">
</g>
<g id="Layer_7">
	<path class="st13" d="M152.2,215.23l17.15-6.68c3.97-1.55,6.83-5.09,7.48-9.3c2.14-14.04,9.21-43.22,29.2-18.31
		c3.7,4.61,3.47,11.23-0.53,15.58l-62.04,67.52c-2.03,2.21-3.15,5.1-3.15,8.1v8.98c0,7.82,7.38,13.54,14.96,11.58l94.96-24.54
		c5.72-1.48,9.51-6.92,8.91-12.8l-1.58-15.47c-0.73-7.15-7.56-12.05-14.57-10.45l-0.44,0.1c-32.82,18.97-47.58,11.12-11.93-19.23
		l18.19-22.27c3.19-3.9,3.59-9.37,1.01-13.7c-16.03-26.93-74.93-111.4-113.49,26.57C133.67,210.39,143.03,218.81,152.2,215.23z"/>
	<path class="st13" d="M233.78,100.07c19.54-5.45,39.08-10.9,58.61-16.35c6.54-1.82,13.29,2.15,14.86,8.76l1.02,4.3
		c1.5,6.31-2.31,12.67-8.58,14.33c-6.4,1.69-10.21,8.26-8.5,14.66l16.73,62.53c1.69,6.31-1.99,12.8-8.27,14.6l-8.33,2.38
		c-6.74,1.93-13.69-2.33-15.03-9.21l-12.27-62.86c-1.29-6.62-7.8-10.86-14.38-9.38c-1.33,0.81-4.67,2.61-8.66,1.95
		c-6.59-1.08-10.83-8.18-11.15-14.36C229.54,105.67,232.65,101.46,233.78,100.07z"/>
	<path class="st13" d="M333.97,158.1l11.3-3.01c4.04-1.08,7.21-4.19,8.4-8.2c3.25-10.87,11.41-29.88,25.04-9.23
		c3.09,4.69,2.52,10.9-1.39,14.94l-57.36,59.16c-2.67,2.75-3.86,6.62-3.2,10.39l1.76,10.07c1.18,6.72,7.73,11.1,14.39,9.62
		l90.21-20.08c6.39-1.42,10.45-7.71,9.11-14.12l-2.16-10.38c-1.32-6.35-7.46-10.48-13.84-9.33l-1.43,0.26
		c-29.11,13.42-41.13,3.99-11.67-18.99l17.42-23.02c2.92-3.86,3.23-9.09,0.78-13.27c-14.73-25.16-67.72-103.16-101.88,10.14
		C316.74,152.03,324.9,160.52,333.97,158.1z"/>
</g>
<g id="Layer_10">
</g>
<g id="COLOUR">
</g>
</svg>
