<?xml version="1.0" encoding="utf-8"?>
<!-- Generator: Adobe Adobe Illustrator 24.2.0, SVG Export Plug-In . SVG Version: 6.00 Build 0)  -->
<svg version="1.1" xmlns="http://www.w3.org/2000/svg" xmlns:xlink="http://www.w3.org/1999/xlink" x="0px" y="0px"
	 width="676.65px" height="894.14px" viewBox="0 0 676.65 894.14" style="enable-background:new 0 0 676.65 894.14;"
	 xml:space="preserve">
<style type="text/css">
	.st0{fill-rule:evenodd;clip-rule:evenodd;fill:#FFFFFF;}
	.st1{fill-rule:evenodd;clip-rule:evenodd;fill:#FFCD33;}
	.st2{fill-rule:evenodd;clip-rule:evenodd;fill:#BBBEBF;}
	.st3{fill-rule:evenodd;clip-rule:evenodd;fill:#F77D52;}
</style>
<g id="XMLID_1_">
</g>
<g id="XMLID_3_">
</g>
<g id="XMLID_5_">
	<path id="XMLID_6_" class="st2" d="M658.2,376.24c-24.61,25.27-32.58,55-23.9,89.2c8.68,34.19-3.96,56.08-37.91,65.66
		c-33.95,9.58-55.72,31.35-65.3,65.3c-9.58,33.95-31.47,46.59-65.66,37.91c-34.19-8.68-63.92-0.71-89.2,23.9
		c-25.27,24.61-50.54,24.61-75.82,0c-25.27-24.61-55-32.58-89.2-23.9s-56.08-3.96-65.66-37.91c-9.58-33.95-31.35-55.72-65.3-65.3
		c-33.95-9.58-46.59-31.47-37.91-65.66c8.68-34.19,0.71-63.92-23.9-89.2c-24.61-25.27-24.61-50.54,0-75.82
		c24.61-25.27,32.58-55,23.9-89.2c-8.68-34.19,3.96-56.08,37.91-65.66c33.95-9.58,55.72-31.35,65.3-65.3
		c9.58-33.95,31.47-46.59,65.66-37.91c34.19,8.68,63.92,0.71,89.2-23.9c25.27-24.61,50.54-24.61,75.82,0
		c25.27,24.61,55,32.58,89.2,23.9c34.19-8.68,56.08,3.96,65.66,37.91c9.58,33.95,31.35,55.72,65.3,65.3
		c33.95,9.58,46.59,31.47,37.91,65.66c-8.68,34.19-0.71,63.92,23.9,89.2S682.81,350.96,658.2,376.24z M572.87,238.99
		c-12.85-30.39-31.25-57.67-54.67-81.1c-23.43-23.42-50.71-41.82-81.1-54.67c-31.48-13.32-64.9-20.07-99.34-20.07
		c-34.43,0-67.85,6.75-99.33,20.07c-30.39,12.85-57.67,31.25-81.1,54.67c-23.42,23.42-41.82,50.71-54.67,81.1
		c-13.32,31.48-20.07,64.9-20.07,99.34c0,34.43,6.75,67.85,20.07,99.34c12.85,30.39,31.25,57.68,54.67,81.1
		c23.42,23.42,50.71,41.82,81.1,54.67c31.48,13.32,64.9,20.07,99.33,20.07c34.43,0,67.86-6.75,99.34-20.07
		c30.39-12.85,57.68-31.25,81.1-54.67c23.42-23.42,41.82-50.71,54.67-81.1c13.32-31.48,20.07-64.9,20.07-99.34
		C592.94,303.89,586.19,270.47,572.87,238.99z M337.76,557.81c-121.02,0-219.48-98.46-219.48-219.48
		c0-121.02,98.46-219.48,219.48-219.48c121.02,0,219.48,98.46,219.48,219.48C557.25,459.35,458.79,557.81,337.76,557.81z
		 M383.44,240.15c-10.93-10.56-27.53-15.92-49.35-15.92c-11.12,0-20.73,1.76-28.56,5.22c-7.66,3.39-13.97,8.46-18.75,15.06
		c-4.85,6.7-7.93,13.55-9.14,20.36c-1.29,7.23-1.95,17.36-1.95,30.1v3.88h42.96v-17.57c0-11.43,1.26-18.76,3.95-23.06
		c3.01-4.81,7.79-7.35,13.81-7.35c7.48,0,11.57,3.63,13.69,6.67c2.74,3.96,4.08,9.46,4.08,16.83c0,9.05-3.67,21-11.21,36.53
		c-7.15,14.73-29.77,53.24-67.24,114.49l-0.03,27.36h118.95v-30.53h-59.27h-8.71l4.88-7.21c32.38-47.87,52.12-79.54,58.67-94.12
		c6.38-14.22,9.62-27.84,9.62-40.47C399.84,263.99,394.47,250.82,383.44,240.15z M191.87,660.35c7.85,0,16.3-1.13,25.11-3.37
		c6.99-1.77,13.74-2.67,20.07-2.67c17.38,0,32.76,6.76,47.04,20.66c11.91,11.6,24.37,19.2,37.22,22.76l-70.96,196.42l-74.08-106.04
		L51.52,822.3l75.29-208.4C142.68,653.98,173.8,660.35,191.87,660.35z M439.6,654.31c6.33,0,13.08,0.9,20.07,2.67
		c8.81,2.24,17.26,3.37,25.11,3.37c17.07,0,45.79-5.67,62.3-40.09l72.99,202.04l-124.75-34.21l-74.08,106.04l-70.56-195.32
		c14.5-2.89,28.55-10.86,41.89-23.85C406.84,661.06,422.22,654.31,439.6,654.31z"/>
</g>
<g id="XMLID_7_">
</g>
</svg>
