<?xml version="1.0" encoding="utf-8"?>
<!-- Generator: Adobe Adobe Illustrator 24.2.0, SVG Export Plug-In . SVG Version: 6.00 Build 0)  -->
<svg version="1.1" xmlns="http://www.w3.org/2000/svg" xmlns:xlink="http://www.w3.org/1999/xlink" x="0px" y="0px"
	 width="676.65px" height="894.14px" viewBox="0 0 676.65 894.14" style="enable-background:new 0 0 676.65 894.14;"
	 xml:space="preserve">
<style type="text/css">
	.st0{fill-rule:evenodd;clip-rule:evenodd;fill:#FFFFFF;}
	.st1{fill-rule:evenodd;clip-rule:evenodd;fill:#FFCD33;}
	.st2{fill-rule:evenodd;clip-rule:evenodd;fill:#BBBEBF;}
	.st3{fill-rule:evenodd;clip-rule:evenodd;fill:#F77D52;}
</style>
<g id="XMLID_1_">
</g>
<g id="XMLID_3_">
</g>
<g id="XMLID_5_">
</g>
<g id="XMLID_7_">
	<path id="XMLID_8_" class="st3" d="M658.2,376.24c-24.61,25.27-32.58,55-23.9,89.2c8.68,34.19-3.96,56.08-37.91,65.66
		c-33.95,9.58-55.72,31.35-65.3,65.3c-9.58,33.95-31.47,46.59-65.66,37.91c-34.19-8.68-63.92-0.71-89.2,23.9
		c-25.27,24.61-50.54,24.61-75.82,0c-25.27-24.61-55-32.58-89.2-23.9c-34.19,8.68-56.08-3.96-65.66-37.91
		c-9.58-33.95-31.35-55.72-65.3-65.3c-33.95-9.58-46.59-31.47-37.91-65.66c8.68-34.19,0.71-63.92-23.9-89.2
		c-24.61-25.27-24.61-50.54,0-75.82c24.61-25.27,32.58-55,23.9-89.2c-8.68-34.19,3.96-56.08,37.91-65.66
		c33.95-9.58,55.72-31.35,65.3-65.3c9.58-33.95,31.47-46.59,65.66-37.91c34.19,8.68,63.92,0.71,89.2-23.9
		c25.27-24.61,50.54-24.61,75.82,0c25.27,24.61,55,32.58,89.2,23.9c34.19-8.68,56.08,3.96,65.66,37.91
		c9.58,33.95,31.35,55.72,65.3,65.3c33.95,9.58,46.59,31.47,37.91,65.66c-8.68,34.19-0.71,63.92,23.9,89.2
		C682.81,325.69,682.81,350.96,658.2,376.24z M572.87,238.99c-12.85-30.39-31.25-57.67-54.67-81.1
		c-23.43-23.42-50.71-41.82-81.1-54.67c-31.48-13.32-64.9-20.07-99.34-20.07c-34.43,0-67.85,6.75-99.33,20.07
		c-30.39,12.85-57.67,31.25-81.1,54.67c-23.42,23.42-41.82,50.71-54.67,81.1c-13.32,31.48-20.07,64.9-20.07,99.34
		c0,34.43,6.75,67.85,20.07,99.34c12.85,30.39,31.25,57.68,54.67,81.1c23.42,23.42,50.71,41.82,81.1,54.67
		c31.48,13.32,64.9,20.07,99.33,20.07c34.43,0,67.86-6.75,99.34-20.07c30.39-12.85,57.68-31.25,81.1-54.67
		c23.42-23.42,41.82-50.71,54.67-81.1c13.32-31.48,20.07-64.9,20.07-99.34C592.94,303.9,586.19,270.48,572.87,238.99z
		 M337.76,557.81c-121.02,0-219.48-98.46-219.48-219.48c0-121.02,98.46-219.48,219.48-219.48c121.02,0,219.48,98.46,219.48,219.48
		C557.25,459.35,458.79,557.81,337.76,557.81z M377.24,318.29c8-4.48,13.61-9.37,16.65-14.55c3.03-5.15,4.56-14.04,4.56-26.42
		c0-18.39-4.5-32.85-13.37-42.97c-8.76-10-26.28-15.07-52.05-15.07c-20.64,0-35.74,3.7-44.86,11.01
		c-8.77,7.02-13.21,21.27-13.21,42.37v15.58h48.03v-14.85c0-13.34,1.57-17.88,2.74-20.13c1.58-3.03,4.97-6.65,12.1-6.65
		c6.35,0,9.76,3.33,11.5,6.12c2.19,3.51,3.2,9.56,3.2,19.04v13.24c0,8.44-0.8,14.6-2.45,18.84c-1.91,4.89-5.27,8.27-9.73,9.78
		c-2.15,0.72-6.78,1.67-22.02,1.82v25.27c9.24,0.32,15.6,1.11,19.36,2.4c5.05,1.73,8.89,5.34,11.42,10.72
		c2.31,4.92,3.43,12.14,3.43,22.08v16.47c0,20.89-1.41,26.82-2.47,29.47c-1.23,3.06-4.54,8.2-12.94,8.2
		c-7.47,0-10.64-3.81-11.99-7.01c-1-2.37-2.15-6.96-2.15-21.53v-33.97h-48.03v14.11c0,21.99,1.55,37.5,4.6,46.1
		c2.86,8.08,9.05,15.08,18.4,20.81c9.56,5.86,23.12,8.84,40.31,8.84c15.12,0,27.59-2.57,37.08-7.65
		c9.27-4.96,15.61-11.98,19.36-21.45c3.9-9.83,5.87-24.05,5.87-42.27c0-30.49-3.07-41.9-5.65-46.1c-3.7-6.04-9.26-10.29-16.99-13.01
		l-9.9-3.48L377.24,318.29z M191.87,660.35c7.85,0,16.3-1.13,25.11-3.37c6.99-1.77,13.74-2.67,20.07-2.67
		c17.38,0,32.76,6.76,47.04,20.66c11.91,11.6,24.37,19.2,37.22,22.76l-70.96,196.42L176.27,788.1L51.52,822.31l75.29-208.4
		C142.68,653.98,173.8,660.35,191.87,660.35z M439.6,654.31c6.33,0,13.08,0.9,20.07,2.67c8.81,2.24,17.26,3.37,25.11,3.37
		c17.07,0,45.79-5.67,62.3-40.09l72.99,202.04L495.32,788.1l-74.08,106.04l-70.56-195.32c14.5-2.89,28.55-10.86,41.89-23.85
		C406.84,661.07,422.22,654.31,439.6,654.31z"/>
</g>
</svg>
