<?xml version="1.0" encoding="utf-8"?>
<!-- Generator: Adobe Adobe Illustrator 24.2.0, SVG Export Plug-In . SVG Version: 6.00 Build 0)  -->
<svg version="1.1" xmlns="http://www.w3.org/2000/svg" xmlns:xlink="http://www.w3.org/1999/xlink" x="0px" y="0px" width="1232px"
	 height="1334px" viewBox="0 0 1232 1334" style="enable-background:new 0 0 1232 1334;" xml:space="preserve">
<style type="text/css">
</style>
<g id="Layer_17">
	<g>
		<path fill="#ffffff" d="M190.06,613.91c-10.24-8.89-13.88-20.88-16.94-32.42c-5.49-20.69-16.4-38.41-27.58-56.08
			c-12.02-19-24.48-37.73-36.94-56.44c-5.22-7.84-10.93-15.28-15.28-23.78c-3.16-6.16-4.82-12.17-5.03-18.99
			c-0.77-25.22-3.13-50.26-6.49-75.33c-3.32-24.77-5-50.09-0.25-74.9c1.83-9.54,4.71-19.48,10.39-27.94
			c2.82-4.2,4.15-8.78,3.75-13.77c-0.81-10.19,3.33-18.58,7.94-27.43c8.68-16.68,11.87-34.58,10.09-53.78
			c-3.25-35.18,12.25-63.68,49.9-71.72c12.74-2.72,25.37-2.42,37.98-4.07c15.73-2.06,28.41-10.4,41.93-17.05
			c14.96-7.35,29.51-15.49,45.86-19.58c15.42-3.85,47.71,2.8,57.78,21.69c1.58,2.97,2.81,5.88,3.7,9.12
			c2.63,9.56,2.15,19.72,11.38,27.51c7.21,6.09,1.94,16.05,0.83,24.33c-1.09,8.11-2.55,16.19-3.06,24.34
			c-0.35,5.59-0.14,11.07-4.42,15.53c-1.75,2.32-5.05,0.57-7.11,2.19c-4.82,6.69-1.21,15.44-5.28,20.92
			c-2.84,3.25-6.26,1.03-8.53,3.37c-1.62,10.62,1.46,21.89-3.43,32.22c-1.73,3.21-4.97,1.28-7.3,2.1
			c-3.55,10.78-4.32,11.25-12.36,8.01c-20.53,37.5-35.6,76.13-23.18,121.39c25.64,3.14,40.97,23.12,58.9,38.47
			c-0.22,4.14-2.23,5.95-4.44,7.93c-11.15-1.98-19.21-10.92-29.55-14.22c-4.97,15.11,2.47,26.6,9.31,38.12
			c2.56,4.32,2.7,8.09,1.21,12.93c-2.57,8.32-4.99,16.7-8.36,24.53c9.77,10.79,18.8,21.3,28.42,31.23
			c11.2,11.57,34.77,17.81,52.29,11.03c26.43-10.23,53.18-20.35,82.18-20.69c20.39-0.24,39.06,6.52,57.79,13.85
			c11.96,4.68,23.22,12.03,36.92,11.79c5.26-0.09,10.51-0.33,15.15-2.46c28.52-13.1,57.4-8.25,86.57-2.88
			c19.02,3.5,36.96,11.49,56.04,13.84c15.8,1.95,32.47,1.95,46.44-7.55c10.77-7.32,22.13-6.53,33.19-4.1
			c6.79,1.49,12.77,0.61,18.64-1.09c19.4-5.64,38.76-11.49,57.23-19.94c29.75-13.61,55.93-31.93,75.16-58.74
			c8.73-12.17,12.99-26.55,15.49-41.41c3.38-20.08,2.31-40.31,1.44-60.37c-1.4-32.28,2.94-63.86,9.9-95.01
			c6.13-27.45,20.41-50.54,42.21-69.19c20.69-17.7,43.21-30.86,69.8-37.4c8.51-2.09,16.62-5.44,25.62-5.14
			c10.69,0.36,13.47,3.79,11.86,15.69c-12.05,8.05-24.85,15.33-38.53,21.04c-23.95,10-45.37,23.63-59.63,45.88
			c-7.37,11.5-11.1,24.87-13.24,38.45c-3.59,22.79-2.82,45.83-1.47,68.62c1.17,19.63,2.83,39.33,5.97,58.92
			c3.03,18.87,3.11,38.31,3.32,57.51c0.16,14.22-1.29,28.49-2.47,42.7c-1.36,16.37-7.45,31.72-11.06,47.61
			c-7.46,32.87-29.48,57.56-48.47,83.59c-12.38,16.96-28.18,31.38-44.13,45.41c-16.42,14.45-34.77,26.26-51.64,39.86
			c-22.78,18.37-45.83,37.28-61.26,63.11c-2.65,4.43-2.56,9.9-4.04,14.78c-6.98,23.1-12.29,46.65-20.24,69.51
			c-3.98,11.44-1.75,24.13-1.19,36.55c9.11,3.91,18.74,3.39,27.66,5.95c10.33,2.96,18.58,8.5,23.48,18.36
			c9.17,18.46,13.89,36.57,15,57.19c3.66,8.33,11.12,11.38,18.44,14.36c5.25,2.14,8.18,5.81,10.08,10.96
			c6,16.28,8.49,33.31,11.87,50.22c3.74,18.71,5.04,37.83,9.76,56.29c3.32,12.97,8.5,25.73,17.7,35.47
			c10.35,10.95,13.2,22.71,8.91,36.52c-4.2,13.52,1.95,25.47,5,37.92c0.28,1.15,1.61,2.13,1.66,3.22
			c0.55,12.31,9.89,17.44,18.74,22.62c13.7,8.03,18.41,26.49,10.44,34.87c1.88,14.51,13.56,21.09,22.57,29.19
			c0.79,15.31-1.45,19.57-10.91,20.57c-2.61-3-5.12-6.41-7.99-9.51c-7.44-8.03-15.7-10.79-26.23-6.98
			c-9.19,3.33-14.97-2.7-20.2-8.72c-3.77-4.34-6.8-9.33-9.92-13.7c-1.91-1.48-3.81-1.13-5.6-1.4c-13.09-1.97-18.3-9.64-15.43-22.62
			c3.12-14.15,3.12-14.15,0.02-26.58c-3.44,4.89-6.68,9.48-9.96,14.13c1.03,5.3,2.15,10.47,3.02,15.67
			c1.23,7.37-3.36,14.45-10.55,16.49c-6.62,1.88-13.67,2.26-19.88,5.59c-5.28,11.35-11.86,15.11-24.36,13.94
			c-12.06-1.13-21.8,3.71-30.61,11.48c-2.95,2.6-4.61,7.66-11.94,6.05c5.41-16.67,17.46-29.69,23.33-45.87
			c-1.64-5.73-3.17-11.63,0.01-18.91c-24.05-0.02-42.48,9.16-59.05,27.8c-6.4-13.58-3.6-25.18-1.75-34.79
			c7.2-9.68,16.91-12.77,25.21-19.27c-1.78-10.61,7.92-16.36,11.83-24.97c2.23-4.91,9.15-3.89,13.3-7.24
			c3.44-2.78,7.96-4.46,12.26-5.86c5.91-1.92,8.4-6.61,8.64-11.71c0.5-10.59,6.25-18.28,12.49-25.76
			c12.52-15.03,20.43-30.87,15.64-51.59c-2.91-12.56-4.59-25.47-7.06-38.19c-3.56-18.34-16.83-23.54-31.41-25.99
			c-15.22-2.56-30.31,0.99-45.5,0.24c-9.96-0.49-19.15-2.02-26.63-9.25c-9.53-9.22-20.8-16.43-29.7-26.45
			c-12.56-14.13-13.21-31.54-14.12-48.81c-0.57-10.94-1.43-21.73-3.68-32.5c-2.7-12.9-10.78-22.38-19-31.69
			c-11.05-12.5-22.15-24.92-32.25-38.87c-8.65,0.38-16.71,4.07-24.84,7.02c-2.82,1.02-5.56,2.21-8.52,2.74
			c-8.57,1.54-15.49,5.35-21.27,11.9c-7.08,8.02-15.65,14.61-25.5,18.8c-15.47,6.59-30.32,14.4-44.77,22.95
			c-11.69,6.92-18.58,25.52-14.35,38.51c2.23,6.84,4.59,13.6,8.28,19.97c5.57,9.62,6.4,20.64-0.1,29.46
			c-7.51,10.18-4.2,20.46-2.88,30.45c1.19,8.98,3.17,17.89,3.4,26.64c2.11,3.03,5.08,3.9,7.97,5.46c4.56-2.88,8.88-6.37,15.01-7.81
			c2.22,0.78,5.05,1.77,7.88,2.77c4.96-4.09,2.07-11.5,7.15-15.58c8.08-0.97,10.86,6.09,12.3,11.06
			c2.99,10.35,1.53,20.64-8.11,27.78c1.29,16.38-12.85,21.27-22.17,28.67c-14.52,11.53-26.87,8.96-37.54-6.06
			c-4.39-6.18-11.52-10.41-18.03-15.04c4.22,23.11,11.16,44.72,29.09,60.66c1.58,4.22,0.37,8.24,0.78,12
			c6.04,7.36,12.35,14.18,23.36,15.99c-7.98,12.58-17.54,17.11-30.76,14.89c-5.18-2.54-8.97-7.42-13.22-11.75
			c-3.5-0.32-6.41,2.2-9.82,1c-2.02,7.58,1.34,15.65-5.54,22.35c-4.38,2.28-9.59,5.16-15.81,6.14c-9.27,1.46-17.11,5.54-23.08,13.35
			c-3.26,4.27-7.79,7.49-13.29,9.25c-12.82,4.1-24.85,9.69-33.43,20.73c-2.81,3.62-5.91,5.23-10.51,1.2
			c2.75-8.08,5.53-16.25,8.65-25.39c-10.4,1.58-20.35,3.09-30.68,4.66c-3.54,8.48-11.85,11.48-19.99,16.29
			c-23.73-12.75-46.63-6.05-69.15,5.46c-6.12-5.34-3.18-24.33,6.91-40.52c-11.34-2.58-21.02-10.56-33.44-5.21
			c-4.34,1.87-8.77,2.88-12.69-2.06c7.56-15.05,18.85-26.17,34.22-33.39c7.11-3.34,13.86-1.55,20.3,0.88
			c7.41,2.8,14.8,3.28,23.18,2.67c3.1-10.82,13.77-10.41,21.91-12.95c15.06-4.71,22.23-16.3,28.47-28.94
			c3.86-7.81,6.38-16.28,9.83-24.31c4.98-11.6,12.78-20.62,24.86-25.25c3.74-1.44,7.44-2.81,10.34-6.72
			c-1.59-7.11,1.19-14.42,1.67-21.96c0.51-8.1,3.78-14.8,10.72-20.03c8.56-6.45,14.63-15.62,17.58-25.93
			c1-3.48,2.19-6.88,3.72-10.39c-9.35-8.04-20.94-11.23-31.35-16.59c-6.84-3.52-11.52-8.45-14.74-15.4
			c-5.66-12.19-13.39-23.31-22.4-33.05c-15.9-17.19-17.45-35.58-8.11-56c0.63-1.37,1.02-2.85,1.5-4.21
			c-0.38-0.61-0.63-1.51-1.03-1.58c-12.77-2.34-22.48-9.91-31.72-18.36c-4.81-4.39-11.31-3.5-17.53-6.23
			c-0.55,11.59-8.18,18.67-13.28,27.04c-3.26,5.36-9.52,6.2-14.98,7.97c-16.66,5.4-20.47,10.87-20.57,28.48
			c-0.03,5.6,1.35,10.87,2.85,16.02c1.88,6.49,0.95,11.73-3.53,16.64c-5.73,6.28-8.54,14.83-7.02,23.19
			c1.42,7.82-1.51,16.33,4.97,24.67c8.2,3.1,15.95,10.54,26.74,12.4c1.56,1.93,3.26,4.03,5.04,6.24h9.92
			c9.96-8.93,9.96-8.93,15.4-6.99c2.88,19.95-3.88,29.88-22.97,33.28c-1.78,2.51-3.69,5.21-5.62,7.93
			c-8.06,0.74-15.89,1.68-23.75,2.12c-6.53,0.36-11.54-2.97-16-7.51c-5.33-5.41-10.92-10.55-16.6-15.99
			c-4.13,9.99-2.45,16.56,5.81,23.74c7.05,6.13,15.47,10.59,20.72,18.93c2.02,3.21,6.94,2.99,10.85,3.76
			c12.13,2.41,15.65,8.49,11.12,18.16c9.62,7.66,9.62,7.66,21.94,6.01c4.33,7.85,3.4,12.64-4.73,20.51
			c-7.42,7.18-21.94,12.03-36.14,2.85c-10.89,5.79-26.41,1.96-33.69-8.53c-3.12-4.49-6.87-8.95-8.46-14.02
			c-4.43-14.14-15.66-20.94-27.32-27.56c-3.51-1.99-7.4-3.99-7.89-8.32c-1.39-12.28-10.21-20.21-16.11-28.44
			c-2.67-13.62,1.55-25.1,4.59-36.87c3.46-13.42,2.44-27.27,2.04-40.97c-0.39-13.5-0.2-26.27,9.83-37.47
			c12.05-13.47,14.25-31.35,17.02-48.28c1.91-11.72,8.27-18.32,17.74-23.5c8.99-4.91,13.48-13.46,18.32-21.76
			c-15.92-12.79-21.71-29.04-22.74-48.22c-0.73-13.54-2.09-27.23-5.67-40.49c-4.9-18.13,3.41-33.22,11.31-48.35
			c0.69-1.33,1.89-2.38,1.82-4.05C209,642.58,203.04,626.48,190.06,613.91z M549.59,776.03c1.03-1.03,2.05-2.05,4.28-3.57
			c3.58-5.26,8.47-9.25,13.3-13.21c7.67-6.28,16.16-3.82,20.17,5.64c-1.28,3.74-4.38,5.54-7.62,7.37
			c-11.07,6.27-21.82,13.05-29.55,23.48c-3.62,4.88-7.13,9.67-11.54,14.02c-6.98,6.88-16.1,10.89-22.48,18.62
			c-17.13,20.78-32.85,42.85-54.55,60.77c-1.25,0.92-2.51,1.83-5.09,2.99c-6.86,5.24-10.67,12.34-12.07,20.69
			c-3.17,18.86-3.69,38.02-7.03,56.92c-2.36,13.39-4.65,26.45-13.53,36.92c-4.45,5.24-10.83,8.84-16.35,13.18
			c0.33,1.34,0.36,1.49,0.69,2.83c7.15,1.55,4.06,9.41,9.08,11.94c2.6,1.85,6.14-0.17,9.36,3.15c-7.73,2.14-14.14,2.29-20.63-2.27
			c-4.47,14.44-1.53,27.72,3.49,40.45c5.31,13.45,12.76,15.58,26.3,8.46c-1.57-10.91,0.01-22.07-1.84-33.41
			c-2.22-13.57-4.05-27.45,2.02-41.19c3.99-9.03,5.81-19.06,8.17-28.75c1.06-4.35,0.17-9.25,4.38-12.97
			c3.6-0.07,7.06-3.69,12.3-1.36c-8.64,4.25-15.5,10.89-15.82,19.07c-0.56,14.65-3.26,28.96-4.33,43.46
			c-1.11,14.94,3.28,29.67,1.8,44.31c4.44,1.35,8.16,2.48,11.79,3.58c5.11-3.32,9.29-7.96,15.38-9.15
			c5.14-26.89,8.14-53.48-3.53-79.12c4.98-2.59,6.29,0.37,7.03,2.85c3.78,12.73,10.34,24.89,7.91,38.96
			c-0.53,3.06-0.6,6.19-0.03,9.24c1.14,6.12,2.39,12.6,9.51,13.79c6.28-1.81,6.54-10.98,15.12-10.11
			c-3.49,10.01-9.06,16.14-19.42,16.32c6.4,6.79,13.22,12.53,18.03,19.63c3.79,5.59,7.31,6.31,12.89,4.33
			c12.95-4.6,21.44-15.24,31.93-22.18c0.5-9.09-2.37-15.88-7.06-22.12c-5.05-0.82-9.75-1.4-14.47,2.53
			c5.03,4.87,10.23,9.5,6.73,17.33c-6.74-8.86-14.99-15.38-24.42-20.61c-3.11-1.73-4.31-5.26-4.66-8.57
			c-1.36-12.97-1.89-26.01-5.39-38.73c-0.98-3.58-0.02-7.37,2.19-11.24c5.97-10.46,7.6-21.67,2.13-33.17
			c-4.55-9.56-8.23-19.37-9.27-30.11c-0.3-3.11,2.17-5.88,0.4-8.87c-2.18-0.54-4.29,3.34-6.51-0.01c-0.69-1.6,0.39-2.71,1.16-4.04
			c7.1-12.35,19.02-19.27,30.28-26.86c12.45-8.4,26.74-12.96,40.44-18.69c10.02-4.19,18.26-10.42,25.34-18.63
			c11.91-13.8,20.51-30.13,33.46-43.15c9.93-9.98,10.35-22.81,0.62-33.12c-15.27-16.17-30.69-32.26-47.02-47.32
			c-6.97-6.43-15.13-12.56-24.97-14.64c-13.58-2.88-26.92-6.72-40.84-8.3c-14.95-1.7-26.81-9.36-34.62-22.59
			c9.15,5.17,16.98,13.04,28.46,13.05c-2.68-11.93-13.36-16.75-20.31-24.82c13.74,4.6,23.47,13.76,29.8,27.1
			c30.22,4.57,60.9,7.87,81.23,35.54c-0.19-5.3-1.82-9.84,1.05-13.74c4.13-3.26,7.37,0.04,11.19,1.65
			c-0.46-10.17,4.36-17.26,9.86-24.35c6.59-8.5,15.22-16.12,14.86-28.41c-0.03-1.19,0.63-3,2.77-3.81c0,2.85,0.45,5.6-0.07,8.16
			c-3.3,16.26-1.24,32.82-3.2,49.24c-2.68,22.54,3.14,44.48,7.86,66.54c4.22,19.73,10.85,37.81,23.54,53.46
			c7.83,9.65,15.85,19.17,24.09,28.47c8.06,9.11,16.28,17.91,19.1,30.39c2.75,12.13,4.51,24.39,5.74,36.72
			c1.49,14.82,6,27.62,17.53,38.23c8.83,8.12,17.76,16.29,26.2,24.93c4.86,4.97,8.61,13.07,17.55,13.26
			c16.13,0.34,32.27,0.6,48.39,0.98c12.58,0.3,33.11,11.57,33.97,26.71c1.07,18.71,3.46,37.4,8.8,55.54
			c4.08,13.87,3.91,28.71,10.49,42.14c2.1,4.28,1.03,10.39-1.22,15.71c-2.02-11.36-4.86-22.22-10.86-33.14
			c-6.67,8.96-12.97,17.4-19.25,25.85c-2.73,3.67-4.81,7.33-5.19,12.31c-0.65,8.47-4.38,15.39-11.97,20.48
			c-6.21,4.16-13.1,6.17-19.76,8.99c-7.57,3.21-7.58,3.17-8.77,11.3c12.93-1.92,15.58-1.29,24.3,5.88c-3.48,0.42-6.62,0.1-9.91-1.13
			c-4.84-1.81-9.77-1.04-13.82,2.21c-10.41,8.34-20.64,16.91-30.72,25.21c-0.7,6.01-1.35,11.66-2.19,18.89
			c11.51-7.7,23.31-11.48,34.74-16.18c8.42-3.46,16.72-8.73,17.79-19.77c0.25-2.55,1.49-4.87,5.15-3.13
			c2.28,4.47-0.25,9.17-0.55,15.17c6.76-5.7,13.79-8.37,21.3-11.57c9.11-14.07,11.1-32.43,23.87-44.6c1.23,3.17-0.95,6.12-2.59,8.87
			c-5.66,9.48-9.57,19.61-11.41,30.42c-0.88,5.17-3.97,7.92-7.89,10.54c-6.9,4.61-12.16,11.02-17.88,16.91
			c-2.06,2.12-3.57,4.76-2.18,8.45c4.54-3.55,7.62-8.23,13.46-10.91c4.23,1.87,10.02-2.09,15.02,2.49
			c-3.57,2.62-7.53,0.09-12.69,3.05c-11.32,12.46-22.5,27.46-29.61,45.39c9.93-5.95,22.02-4.25,31.7-10.05
			c5.26-9.84,9.16-20.03,8.24-32.9c10.15,5.88,4.88,15.07,8.03,21.64c6.59-2.6,13.66-2.68,19.18-8.72v-21.97
			c15.54-10.72,18.38-27.11,19.45-44.35c1.33,0.26,2.66,0.53,3.99,0.79c0.66,20.86,5.82,41.26,4.81,63.23
			c3.53,6.38,4.43,6.88,13.87,6.97c2.89-1.93,2.47-8.25,9.03-6.18c-0.65,4.3-2.93,8.65-0.88,13.38c7.26,6.46,9.88,17.33,19.23,22.34
			c17.63,0.28,17.63,0.28,36.2,10.56c1.87-3.56,0.35-5.91-1.9-8.88c-5.79-7.67-12.88-14.19-16.67-23.64
			c-4.29-10.69-9.64-22.07-25.56-18.31c7.05-5.02,14.1-3.68,20.95-1.83c3.9-18.22-9.88-23.57-20.8-29.65
			c-2.31-10.58-6.23-19.44-9.46-28.53c-3.39-9.57-8.35-18.7-4.59-29.69c4.51-13.19,1.73-24.92-8.66-34.91
			c-10.68-10.27-15.66-24.1-18.38-37.93c-6.54-33.18-11.54-66.67-17.11-99.72c-8.03-8.07-15.52-16.07-25.6-20.59
			c0,0,0.09,0.14,0.02-1.26c-4.65-9.24-7.56-19.11-10.14-29.06c-3.06-11.79-8.09-22.82-12.72-34c-6.69-16.13-22.2-16.95-36.13-20.51
			c-6.73-1.72-14.76,0.24-19.83-6.4c-0.02-13.74-0.98-26.9,3.13-40.21c3.54-11.46,7.48-23.19,9.21-34.91
			c4.55-30.85,10.53-61.84,5.82-93.25c-1.55-10.33-2.46-20.96-8.08-30.5c-2.09-3.55-4.83-7.69-4.29-12.93
			c10.16,11.6,11.94,26.56,17.55,39.63c6.59-1.04,12-2.52,17.39-4.66c17.81-7.05,34.21-16.99,51.57-24.84
			c29.57-13.36,52.05-35.55,74.54-57.67c12.08-11.88,22.12-25.8,33.56-38.37c18.53-20.38,29.67-44.86,37.82-70.52
			c5.08-15.98,8.99-32.47,10.26-49.55c1.34-18.03,1.33-35.9,0.15-53.9c-0.9-13.68-2.88-27.19-4.29-40.79
			c-2.08-19.99-3.54-40.05-4.28-60.19c-1-27.45-1.03-54.57,8.36-80.95c8.26-23.19,21.53-42.32,41.51-56.98
			c13.55-9.94,29.13-14.64,44.69-19.67c6.94-2.24,13.19-5.67,19.06-9.99c-1.88-0.88-3.42-1.11-4.87-0.84
			c-33.22,6.21-63.4,17.93-89.4,41.08c-21.91,19.51-34.23,42.87-39.39,70.96c-1.42,7.72-2.37,15.57-4.4,23.13
			c-5.76,21.43-6.79,43.41-6,65.24c0.54,14.97,1.71,29.97,1.06,44.91c-1.01,23.41-6.65,45.75-20.48,65.09
			c-12.71,17.76-29.66,31.21-48.17,42.34c-25.8,15.51-53.76,26.05-83.16,32.55c-11,2.43-21.73,6.36-33.52,4.17
			c-9.54-1.77-18.52,0.96-27.12,5.79c-8.84,4.96-18.79,6.16-28.91,6.93c-21.4,1.64-40.89-6.05-59.78-13.55
			c-19.04-7.56-38.07-9.18-57.88-8.85c-9.85,0.16-19.53,0.86-28.08,6.35c-17.14,11.02-34.34,9.65-51.33,0.06
			c-15.97-9.02-32.67-16.68-50.45-20.52c-28.99-6.26-56.53,0.41-82.87,13.11c-14.87,7.17-30.13,13.31-47.14,10.42
			c-9.49-1.61-18.29-4.48-25.96-11.47c-10.95-9.98-19.99-21.48-28.98-32.99c-14.91,7.68-30.54,9.48-46.33,9.5
			c-17.76,0.03-27.46-15.02-41.02-24.24c-5.11,10.01-13.67,16.51-15.48,28.11c-3.31,21.23,0.21,41.81,3.25,62.5
			c1.48,10.07,6.68,19.45,6.25,29.94c-0.45,10.97,2.77,21.06,7.1,30.91c1.68,3.81,4.14,7.41,2.65,12.19
			c-7.25-11.36-12.22-23.76-14.85-36.93c-1.72-8.61-2.85-17.38-6.3-25.45c-6.79-15.89-15.37-30.94-22.7-46.6
			c-5.07-10.84-10.32-22.03-19.74-30.54c-4.44,0.47-9.01,0.58-13.09-3.67c-2.84-9.73-6.09-20.01-5.8-30.77
			c1.74-3.85,5.93-3.31,8.59-5.33c-2.17-8.09-3.01-16.69-9.89-22.2c-5.96-4.77-8.74-10.72-8.93-18.24
			c-30.05-32.87-47.94-70.05-40.12-116.07c-1.27,10.17,1.79,19.86,2.03,29.87c0.19,7.87,2.32,15.23,5.49,22.69
			c7.34,17.29,18.92,31.68,29.36,46.9c7.74,11.28,16.69,20.14,30.48,24.29c8.84,2.66,17.18,7.78,25,12.93
			c19.48,12.82,37.21,27.95,55.04,42.95c4.52,3.81,9.68,7.56,16.16,7.93c16.59,0.95,32.56-2.13,48.34-6.91
			c2.1-4.91,4.46-9.32,4.66-14.96c-12.82,2.57-24.84,0.52-36.78-0.91c-3.98-0.48-8.12-2.96-11.38-5.55
			c-21.92-17.47-38.9-39.32-51.9-63.83c-10.61-20.01-24.17-36.01-44.31-46.82c-14.42-7.74-27.4-17.68-39.61-28.88
			c-10.56-9.69-17.11-22.71-28.55-31.22c3.08-5.79,7.19-0.37,11.15-1.39c1.25-1.19,2.88-2.54,4.29-4.1
			c8.56-9.45,16.78-19.22,25.65-28.37c13.62-14.06,30.97-23.51,45.81-36.11c5.3-4.5,9.52-10.31,15.97-13.44
			c12.18-5.91,22.74-13.62,31.77-24.02c20.28-23.34,47.41-37.72,73.24-53.64c5.85-3.61,12.38-5.22,19.93-4.28
			c12.65,1.57,21.18,8.41,27.88,18.87c5.94-16.92-10.51-27.13-10.43-41.75c-0.97-1.14-1.93-2.27-2.87-3.37
			c-1.07-1.26-1.53-2.93-1.24-4.56c2.16-12.22,0.28-14.34-12.45-19.71c-13.61-5.75-27.28-4.48-41.09-1.13
			c-20.41,4.96-37.02,17.74-55.35,26.98c-14.1,7.11-28.37,12.64-44.5,10.03c-23.74-3.84-43,4.52-54.13,25.58
			c-5.33,10.1-9.57,21.3-7.63,34.29c6.73-2.25,7.52-6.91,5.9-10.98c-1.99-5.02-0.78-9.62,1.65-12.93
			c3.72-5.06,6.38-10.87,11.57-15.11c6.7-5.47,6.66-6.14,15.35-4.71c-11.65,5.09-17.69,14.9-23.19,25.65
			c-1.08,2.11,0.42,4.66,2.79,4.69c1.67,0.02,3.2-0.19,4.67-0.83c8.74-16.52,12.94-18.05,31.31-14.03
			c8.98,1.97,16.73,6.91,25.61,9.11c3.91,0.97,9.05,2.84,9.45,8.68c-4.14,5.94-4.14,5.94-10.03,4.45c0.43-3.39,5.4-4.21,4.72-8.45
			c-3.37-1.36-5.81-0.63-9.01,1.62c-10.08,7.08-15.9,18.23-25.63,25.63c-5.22,3.97-10.03,6.98-16.43,3.09
			c-1.45,0.92-2.73,1.7-3.98,2.55c-1.48,1-3.66,0.81-4.6,2.72c3.09,6.73,7.81,7.7,16.04,4.22c6.07-2.57,8.78-9.8,16.43-11.41
			c-6.08,7.98-12.61,14.29-20.57,19.12c-1.05,0.64-2.27,0.95-3.49,0.95l-5.74,0c-1.55,0-3.03-0.61-4.13-1.71
			c-1.53-1.54-3.31-3.31-5.35-5.36c-1.74-0.08-4.5-0.7-7.14,1.56c-3.62,12.89-11.86,23.64-19.25,34.68
			c-5.36,8.01-8.79,15.77-7.79,25.47c0.33,3.21,1.08,6.78-0.9,9.83c-14.66,22.57-16.01,47.99-15.92,73.74
			c0.06,17.97,1.74,35.59,5.27,53.38c3.34,16.83,5.55,33.96,9.28,50.78c6.78,30.57,23.04,56.6,40.01,82.11
			c15.97,24.02,32.25,47.6,40,76.09c2.37,8.7,7.57,16.88,14.32,24.04c8.22,8.72,17.4,17.04,21.98,28.71
			c8.14,20.75,13.35,42.02,12.73,64.56c-0.26,9.38,1.47,18.58,4.14,27.72c5.69,19.48,18.78,34.64,29.4,51.14
			c4.89,7.61,10.19,15.93,19.2,20.37c-2.33-5.04-5.16-9.73-8.1-14.34c-9.47-14.85-15.1-30.98-15.21-48.65
			c-0.07-11.84,8.47-18.5,20.35-17.75c16.49,1.04,28.58,10.31,40.83,19.96c7.32,5.77,8.61,15.15,14.05,21.33
			c3.37,1.71,6.23,2.08,9.31,0.85c9.22-3.69,17.68-1.02,24.69,4.78c6.77,5.61,15.44,7.53,22.26,13.22
			c-3.87-8.9-13.15-15.11-11.98-25.89c6.94-8.48,13.54-16.68,25.66-14.71c1.66-6.85-4.75-13.64,0.11-21.13
			c7.09,12.88,9.37,26.48,15.76,38.64c8.19,15.58,20.63,24.1,37.12,27.71c11.87,2.6,24.12,2.78,36.03,4.67
			c14.42,2.29,28.99,2.33,43.37,5.35C542.72,789.37,546.59,783.57,549.59,776.03z M218.25,1066.27
			c6.59,18.5,17.11,28.18,30.01,27.06c3.83-14.27,22.04-21.95,19.58-40.29c-8.51-2.57-17.9-3.13-22.87-9.73
			c-5.24-6.96-11.76-12.4-17.83-18.22c-6.36-6.1-9.5-12.55-8.34-20.98c1.08-7.84,2.64-15.56-1.72-22.98
			c-0.54-0.91-0.23-2.42-0.07-3.62c1.57-12.11,2.54-24.21-0.11-36.32c-0.26-1.19-0.72-3.02,2.44-4.03
			c3.64,11.05,3.79,22.53,4.4,33.74c0.44,8.04,3.91,13.6,8.23,17.94c8.78,2.98,9.19-10.01,17.32-6.84
			c2.02,9.96-8.11,9.73-12.23,14.22c6.5,6.52,12.66,12.71,18.79,18.85c8.02,1.21,15.35-2.17,23.89-2.33
			c-4.37-9.26-0.26-18.4-3.23-27.59c-10.3-5.89-23.16-8.2-31.59-17.68c-2.6-30.3-4.33-38.3-8.6-40.18
			c-2.56-0.55-4.74,3.21-7.54,0.61c1.56-2.26,2.97-4.61,4.85-5.64c4.04-1.52,7.22,0.56,10.61,0.41c5.02-3.54,7.49-8.66,9.22-14.58
			c-4.48-16.2-6.65-32.5,4.4-47.97c-7.72-7.61-4.76-22.64-17.69-26.02c-11.11-2.9-22.26-0.69-34.53,5.1
			c-5.36,27.13-19.53,52.79-25.39,80.1c2.49,3.03,6.17,2.24,5.95,5.61c-1.27,2.52-4.93,1.29-6.52,6.13
			c1.49,24.2-3.9,49.85-7.88,74.64c4.9,5.09,8.22,9.63,13.9,9.16c8.75-27.69-0.41-56.03,5.02-83.56c3.48,5.8-0.29,11.59,0.66,17.41
			c3.01,18.45,3.42,37.03,2.89,55.7c-0.27,9.47,2.63,18.1,10.93,23.97c0.91,0.64,1.53,1.68,2.31,2.55c-1.22,0.88-2.17,1.57-3.31,2.4
			C208.69,1043.89,213.15,1054.45,218.25,1066.27z M314.18,130.98c-0.6-4.01-1.21-8.02-1.94-12.91c-3.06,2.47-5.1,4.12-6.22,5.02
			c-0.22,11.45,0.01,21.85-4.37,30.96c-4.13,1.82-6.41,0.51-8.49-1.48c-2.59-4.86-2.5-10.42-3.67-15.68
			c-3.7-0.09-6.23,1.28-8.3,3.86c-0.72,10.82,0.62,22.02-4.21,30.12c-3.31,3.73-6.3,1.75-8.19,3.48
			c-1.4,5.99-2.28,12.32-10.19,12.06c-6.12-4.98-3.1-13.22-7.57-18.38c-3.07,1.04-5.31,2.44-6.86,5.87
			c1.74,9.62-3.61,19.7-1.01,30.34c13.02,1.85,19.82,10.77,25.16,21.31c5.56,10.96,2.65,23.09,4.2,36.74
			c11.44-11.63,21.15-22.23,29.07-34.31c3.27-4.99,8.6-9.27,8.79-15.64c0.42-14.58,5.98-25.84,17.05-31.36
			c8-8.73,2.71-17.1,4.7-24.51c-2.22-2.16-5.81-0.13-7.62-2.95c-1.98-3-0.45-6.59-1.82-10.55
			C318.1,141.5,313.88,138.71,314.18,130.98z M196.05,318.44c0.28,1.48,0.56,2.96,1,5.29c2.81-0.59,5.85-2.1,8.51,0.37
			c3.19,1.58,0.88,5.75,3.21,7.85c3.38,0.23,6.83-1.11,10.67,1.77c5.68,9.05,1.13,20.2,3.24,30.27
			c18.33,12.13,38.73,16.86,59.99,15.3c14.98-1.1,29.52-2.77,43.71,4.03c-11.29-9.25-21.38-20.08-37.09-21.38
			c-9.09-0.75-15.04-6.52-20.5-13.44c-11.91-15.11-21.16-32.73-39-42.45c-3.15-1.72-5.9-4.08-9.8-3.31
			c-1.81,2.79,2.23,5.28-0.36,8.2c-8.64-4.18-15.65-16.91-27.52-7.41C189.56,309.5,192.13,313.43,196.05,318.44z M229.56,735.05
			c-6.14-12.87-5.12-26.65-5.44-40.34c-0.2-8.88-1.64-17.74-2.52-26.61c-11.57,14.85-14.12,31.19-11.47,48.47
			c1.91,12.5,4.07,24.99,6.72,37.35c2.07,9.66,2.26,20.34,8.44,28.35c11.3,14.65,22.98,29.29,41.96,34.97
			c1.96,0.59,3.64,2.13,5.14,3.04c2.66,5.72,4.62,10.89,1.48,16.86c-2.48,4.73-6.53,5.12-11.36,4.61
			c0.98,5.64,1.79,10.33,2.59,14.98c18.04-1.07,34.61-21.23,29.2-35.98c-10.77-4.79-22.47-10.5-28.85-20.73
			C252.61,779.46,239.18,759.08,229.56,735.05z M135.39,300.29c8.48,8.5,17.94,15.53,29.7,21.02
			c-11.75-32.79-10.07-64.14,2.08-95.57c-24.84,9.85-36.02,33.39-54.41,48.81C118.65,284.95,126.5,292.21,135.39,300.29z
			 M472.38,1080.06c-0.77-2.76,0.94-6.26-2.91-8.62c-6.67,8.39-13.56,17.15-26.3,7.99c1.34,6.52,3.67,11.39,6.72,15.94
			c3.08,4.59,5.38,9.71,5.42,15.14c0.13,20.61,15.28,30.75,27.79,42.97c16.68-14.74,16.68-14.74,16.14-25.26
			C487.13,1114.7,477.84,1099.27,472.38,1080.06z M281.36,276.16c7.12-12.34,15.07-24.24,19.96-37.84
			c-7.73,9.43-16.28,17.95-24.44,26.82c-7.55,8.21-15.98,15.33-18.55,27.27c-1.39,6.46-0.45,12.71-1.25,18.99
			c-2.12,16.67,10.72,24.97,19.57,35.73c-4.52-13.53-2.33-27.26-2.85-40.82C273.39,295.95,276.8,286.65,281.36,276.16z
			 M172.49,133.42c0.79,4.59,0,18.63,0,18.63c4.77-4.75,8.5-8.47,13.16-13.11c0.79-5.03-1.28-10.64-7.81-12.09
			c-8.16-1.81-17.18-3.72-24.17,3.1c-6.07,5.93-5.95,14.41-0.84,24.41c10.6,6.36,10.6,6.36,16.69,0.86
			c-6.12-7.93-9.44-18.55-3.27-24.94C168.29,128.16,171.76,129.17,172.49,133.42z M271.51,417.36c-2.03,1.6-3.88,3.8-7.43,1.73
			c-2.43-4.53-2.75-10.06-3.75-15.72c-0.16-0.89-1.26-1.22-1.89-0.58c-5.61,5.78-7.85,11.12-8.23,18.58
			c10.74,11.83,14.96,14.52,26.5,16.64c1.87-7.59-0.06-14.45-4.8-20.61C271.81,417.29,271.63,417.27,271.51,417.36z M293.8,1077.76
			c-7.17,0.91-13.74-1.48-19.75-3.9c-8.82,1.84-10.67,8.83-13.61,14.86C270.92,1098.66,294.14,1092.43,293.8,1077.76z
			 M269.39,138.64c-1.93,3.07-3.77,6.19-7.41,7.68c-2.36,0.97-4.13,2.83-4.51,5.36c-1.37,8.93,1.22,17.33,2.85,26.81
			c4.13-3.65,0.83-8.42,4.45-10.94c2.14-2.69,5.97,1.39,8.07-1.67c1.48-7.23,3.14-14.27,4.32-21.39
			C278,139.47,276.84,135.72,269.39,138.64z M304.21,408.17c3.21-4.96-2.01-6.07-3.99-10.92c-2.37,13.73-9.34,21.95-19.49,28.21
			c3.47,4.9,0.6,10.47,3.21,15.81c3.88,0.86,7.87,1.65,11.9-0.27c1.26-5.22,1.73-10.31,1.99-15.5
			C298.11,419.6,298.09,413.35,304.21,408.17z M321.96,188.59c-6.58,13.96-8.12,26.8-4.32,35.72c2.38-2.01,0.93-6.13,4.54-7.92
			c1.87-1.38,4.03,2.89,6.18,0.4v-29.69C325.9,185.6,324.31,186.19,321.96,188.59z M510.98,1164.21c5.12-0.53,7.99-4.36,13.31-7.88
			c-9.72-1.69-14.4-7.68-19.5-12.69c-6.88,0.25-9.2,5.38-12.59,9.61C497.02,1159.08,502.01,1163.64,510.98,1164.21z M213.06,216.07
			c4.58-8.65,2.92-17.15,0.1-26c-7.59,0.99-13.4,2.88-16.43,9.49c-0.67,5.68,1.47,10.86,2.27,16.9c0.08,0.58,0.78,0.81,1.19,0.4
			c2.64-2.72,0.87-6.57,3.6-8.85c6.15-1.48,6.97,2.92,8.78,8.03C212.65,216.25,212.95,216.27,213.06,216.07z M184.99,1033.16
			c2.95,7.86,9.7,11.42,17.77,16c-3.99-11.91-7.95-22.01-14.85-30.56c-2.98,0.67-5.24,1.41-7.21,3.52
			C182.14,1025.26,181.6,1029.17,184.99,1033.16z M332.31,115.39c-1.9-3.28-6.02-6.73-9.7-5.9c-9.86,2.23-1.39,16.79-1.13,25.19
			c2.2,0.84,5.69,4.05,7.33,5.63c0.38,0.37,1.02,0.16,1.1-0.37C330.55,135.79,335.84,121.51,332.31,115.39z M288.1,993.45
			c-5.45,5.7-4.08,10.66,1.12,15.29c10.06-2.77,14.09-8.04,14.82-19.36C298.96,990.36,293.99,991.32,288.1,993.45z M207.47,358.15
			c1.71,3.81,3.86,7.29,7.46,11.02c3.14-11.76,1.9-22.53,0.28-33.52C209.14,341.71,205.54,348.39,207.47,358.15z M189.06,335.47
			c0,0,1.84-15.95,0-19.15c-0.75-1.3-4.4,2.84-5.47,1.98c-1.7-1.35-0.54-6.89-2.93-8.19c-1.87-1.01-4.24,11.99-5.34,17.08
			C176.83,330.43,186.18,336.42,189.06,335.47z M308.97,437.42c6.64-6.48,3.74-16.49-3.13-24.01c-0.26-0.29-0.75-0.16-0.84,0.22
			c-2.27,9.32-4.46,18.13-3.48,27.36C304.94,441.49,306.54,439.79,308.97,437.42z M236.2,173.85c-6.34,5.98-6.38,19.91,0.09,30.57
			c3.5-7.52,2.91-15.6,4.37-23.26C241.19,178.42,240.53,175.64,236.2,173.85z M346.4,130.82c0.41-3.82,1.35-8.15-6.53-10.91
			c0.93,11-2.73,14.35-2.7,25.15c0,0.46,0.51,0.75,0.91,0.51C345.61,141.1,345.55,138.73,346.4,130.82z M240.79,384.67
			c0.01-0.58-0.15-1.89-0.56-2.24c-0.18-0.15-1.34,0.97-1.34,0.97s-10.58,13.3-5.14,19.07c2.67,2.83,4.45,5.63,8.24,9.09
			C242.88,402.08,240.63,394.17,240.79,384.67z M341.95,154.11c-7.28,4.76-7.98,18.61-2.81,24.72c0.04,0.05,0.13,0.04,0.16-0.02
			C342.3,171.7,345.92,162.83,341.95,154.11z M554.93,1044.57c3.06-9.51,3.05-13.8-0.47-20.88c-0.56,6.89-4.79,11.47-7.14,17.01
			c2.13,2.48,0.8,6.86,5.37,8.11C553.3,1047.83,553.91,1046.85,554.93,1044.57z M295.58,124.09c-4.25,8.42-0.97,15.7,3.48,25.08
			c0.94-7.63,1.88-13.02,2.17-18.45C301.39,127.7,301.88,123.76,295.58,124.09z M354.44,149.62c1.53-6.69,2.25-13.45-2.24-21.57
			c-5.93,10.42-2.43,19.1-0.73,28.08C353.91,154.8,353.99,152.92,354.44,149.62z M196.74,336.38c-1.55,4.62-2.02,8.86,4.85,9.59
			c0.9-5.56,0.79-10.62,0.4-16.22c-0.01-0.21-0.24-0.35-0.43-0.27C198.21,330.87,197.72,333.45,196.74,336.38z M433.69,1092.3
			c1.2,5.36,6.16,5.95,10.02,7.99C441.95,1095.87,443.33,1088.25,433.69,1092.3z"/>
		<path fill="#ffffff" d="M462,888.9c8.41-0.85,15.8-6.31,24.46-3.26c2.34,2.21,4.25,4.84,4.35,9.12c-8.17,6.37-19.53,4.67-27.64,10.41
			c-6.63-2.36-9.08-5.82-5.37-12.56C459.1,890.99,460.36,890.07,462,888.9z"/>
		<path fill="#ffffff" d="M549.25,776.45c-3.98,2.71-7.62,5.06-10.87,0.04c1.29-10.78,8.18-18.11,17.11-18.22c3.81,5.39-2.52,8.7-2.82,13.95
			C551.65,773.98,550.62,775.01,549.25,776.45z"/>
		<path fill="#ffffff" d="M305.42,721.29c-26.17-3.56-45.73-38.01-38.55-50.93c1.33-2.39,3.86-4.6,7.05-5.84c8.3-3.24,22.83,9.33,22.83,9.33
			s20.86,15.29,23.94,29.19C323.14,714.16,317.88,722.99,305.42,721.29z"/>
		<path fill="#ffffff" d="M761.88,983.92c-5.26,0.04-7.96-2.55-9.78-6.24c1.72-17.64,8.69-33.27,19.08-42.83c3.23-0.98,5.67,1.36,8.6,2.16
			c2.66,6.88,0.06,13.55-2.18,19.48c-2.35,6.22-4.04,12.65-6.51,18.82C769.41,979.47,767.49,983.08,761.88,983.92z"/>
		<path fill="#ffffff" d="M340.76,739.04c-9.31-4.2-9.87-11.62-10.32-18.31c-0.83-12.32,12.65-7.16,18.07-4.4c6.78,3.45,11.26,10.88,11.5,18.01
			c0.13,3.98-2.68,4.61-4.54,6.65C351.85,744.96,345.82,741.33,340.76,739.04z"/>
		<path fill="#ffffff" d="M853.74,956.52c3.67,6.84,1.85,11.58-5.99,14.36c-7.78-2.23-14.14-7.01-19.58-13.1c5.07-8.92,14.59-9.47,25.16-1.45
			C853.89,956.71,853.8,956.57,853.74,956.52z"/>
		<path fill="#ffffff" d="M742.79,944.72c5.55-4.15,9.47-2.15,12.93,2.03c-5.69,19.09-8.66,21.65-18.16,15.39
			C737.05,956,739.88,950.67,742.79,944.72z"/>
		<path fill="#ffffff" d="M196,122.23c-7.64,0.31-14.79-1.3-14.17-8.17c0.31-3.36,3.86-4.67,6.69-4.31c4.98,0.63,11.84,2.61,13.18,8.06
			C202.47,120.87,199.64,122.08,196,122.23z"/>
		<path fill="#ffffff" d="M264.59,79.78c-4.81-1.74-7.3-1.64-13.52-2.52c25.86-5.25,38.31,7.14,38.38,23.64C285.59,88.91,276.87,84.22,264.59,79.78
			z"/>
		<path fill="#ffffff" d="M305.97,69.77c1.3,1.57,3.13,2.09,1.96,4.15c-3.7,0.67-4.53-3.56-7.91-4.48c-4.22,0.15-9.04,0.38-13.25-0.72
			c-2.65-2.48-1.97-4.77-1.2-7.72C294.29,58.93,300.05,62.61,305.97,69.77z"/>
		<path fill="#ffffff" d="M331.9,689.13c4.81,0.59,9.38,3.34,8.98,8.19c-0.39,4.71-4.73,4.85-7.63,5.32c-5.77,0.95-9.97-6.2-7.82-11.38
			C326.39,688.93,329.29,688.81,331.9,689.13z"/>
		<path fill="#ffffff" d="M918.36,1213.47c5.75-1.73,10.97-6.29,16.68,0.71c-7.01,1.89-13.38,3.61-19.91,5.37
			C913.37,1216.1,915.84,1215.06,918.36,1213.47z"/>
		<path fill="#ffffff" d="M489.5,979.41c-5.44-1.35-7.94,6.95-13.39,3.59C480.62,974.91,484.48,973.85,489.5,979.41z"/>
		<path fill="#ffffff" d="M195.25,928.42c-1.48-3.99,1.05-5.21,3.58-6.57c4.16,0.17,7.6,1.63,11.4,6.28C204.4,926.58,200.32,928.96,195.25,928.42z"
			/>
	</g>
</g>
</svg>
