<?xml version="1.0" encoding="utf-8"?>
<!-- Generator: Adobe Adobe Illustrator 24.2.0, SVG Export Plug-In . SVG Version: 6.00 Build 0)  -->
<svg version="1.1" id="Layer_1" xmlns="http://www.w3.org/2000/svg" xmlns:xlink="http://www.w3.org/1999/xlink" x="0px" y="0px"
	 width="1350px" height="1070px" viewBox="0 0 1350 1070" style="enable-background:new 0 0 1350 1070;" xml:space="preserve">
<style type="text/css">
</style>
<g>
	<path fill="#A576CB" d="M88.26,274.62c-6.71-22.57-10.8-45.11-14.48-67.72c-5.1-31.29-5.6-62.74-2.99-94.31c1.79-21.69,6.64-42.51,15.92-62.26
		c2.9-6.17,7-11.67,11.24-16.74c10.18-12.17,20.56-24.46,36.24-30.2c1.77-0.65,3.4-1.67,5.18-2.26
		c10.59-3.53,17.72,1.42,18.09,12.52c0.05,1.62,0,3.24-0.14,4.86c-0.47,5.6,1.51,9.69,6.32,13.01c7.71,5.33,7.53,5.59,9.89,11.45
		c-1.33,4.46-5.46,7.8-5.97,12.35c-3.32,3.33-7,3.79-10.88,3.27c-9.33-1.24-17.14,3.94-25.5,6.43c-5.22,1.56-8.25,6.97-9.79,12.29
		c-3.44,11.92-7.66,23.58-10.86,35.59c-3.26,12.21-2.42,24.65-3.41,36.98c-1.21,15.09-1.78,30.27,2.75,44.98
		c4.11,13.35,5.5,27.37,11.4,40.37c2.92,6.43,4.56,13.71,6.83,20.59c2.99,9.07,8.24,16.91,12.25,25.39
		c9.69,20.48,20.92,40.26,35.51,57.55c9.96,11.81,20.08,23.68,31.83,34.04c7,6.17,13.46,13.01,20.68,19.03
		c3.62,3.02,7.61,5.1,11.82,6.87c21.91,9.18,44.8,15.46,67.49,22.3c9.32,2.81,19.03,4.11,28.72,4.49
		c19.92,0.8,39.04,5.67,57.7,11.89c8.54,2.85,16.41,8.22,23.96,13.35c14.94,10.14,30.57,19.02,46.44,27.55
		c1.18,0.63,2.26,1.46,3.33,2.28c22.47,17.21,44.55,34.83,65.4,54.04c6.22,5.73,11.47,11.86,16.15,18.7
		c1.26,1.85,3.07,2.95,4.89,4.14c14.42,9.41,29.04,18.56,44.41,26.3c12.01,6.05,23.96,12.26,35.59,18.94
		c23.82,13.67,47.79,27.07,73.37,37.12c27.48,10.8,55.98,17.83,85.6,19.31c8.59,0.43,17.26,0.1,25.76-2.03
		c3.9-0.98,7.88-1.8,12-1.61c3.46,0.16,6.33-1.08,7.95-4.15c0.57-3.04-2.67-4.97-1.75-7.88c0.31-0.43,0.57-1.16,0.95-1.24
		c4.82-1.01,13.96,4.02,16.44,8.97c2.28,4.56,0.64,9.82-4.49,14.07c-22.87,18.97-49.53,27.69-78.91,28.37
		c-15.41,0.36-30.71-1.23-45.97-3.7c-26.16-4.23-52.69-4.82-79.06-6.84c-12.7-0.97-25.22-2.76-37.68-5.29
		c-7.11-1.45-14.25-2.99-21.22-2.16c-1.89,1.38-2.11,2.96-1.91,4.62c1.97,16.22,0.08,32.32-1.67,48.41
		c-0.32,2.97-0.63,5.91-0.27,8.87c1.52,12.59,3.56,25.02,7.68,37.12c4.37,12.83,6.48,26.12,5.5,39.75
		c-0.6,8.34-3.49,12.36-11.8,12.3c-14.84-0.11-29.54-2.26-43.51-7.79c-0.42-0.17-0.65-0.81-1.32-1.69
		c2.64-4.82,7.12-8.34,11.18-11.92c4.61-4.07,5.72-8.29,3.32-13.61c-4.43-9.82-6.88-20.41-12.01-29.97
		c-2.93-5.46-4.19-11.66-6.09-17.49c-4.11-12.58-11.72-23.65-14.88-36.58c-1.65-6.78-1.95-13.86-5.02-20.35
		c-2.07-4.39-4.54-7.9-9.75-8.86c-6.04,1.95-8.05,7.52-10.94,12.28c-0.27,0.45-0.27,1.06-0.51,1.53
		c-9.98,19.65-11.8,39.94-5.85,61.25c2.08,7.47,2.41,15.46,1.71,23.33c-0.58,6.5-0.37,12.93,1.31,19.28
		c0.62,2.33,1.13,4.75-0.32,8.68c-12.8,8.68-27.42,3.07-41.42,2.9c-3.16-5.53-1.6-9.92,0.75-13.84c3.04-5.09,2.96-9.92,1.29-15.45
		c-7.89-26.17-13.95-52.65-11.83-80.31c0.1-1.34,0.03-2.7-0.13-4.03c-0.09-0.76-0.5-1.49-1.02-2.95c-18.9-0.66-37.88,3.1-56.91,1.55
		c-19-1.55-37.65-5.89-56.23-8.34c-0.91,1.47-1.62,2.11-1.71,2.83c-2.98,23.62-10.6,46.1-17.14,68.83
		c-3.15,10.96-5.53,21.95-5.5,33.41c0.01,4.32-0.21,8.64-0.46,12.95c-0.56,9.43-3.88,13.18-13.28,13.97
		c-13.76,1.15-27.54,0.59-41.28-0.48c-4.42-0.34-7.75-2.26-8.34-7.02c0.42-3.98,5.83-5.25,4.99-9.78
		c-9.05,2.5-16.02,11.29-15.73,19.97c0.17,5.06-1.43,9.51-3.76,13.61c-2.67,2.08-5.74,2.34-8.61,2.77c-12.83,1.9-25.28,5.58-38,7.97
		c-7.34,1.38-9.39,0.54-14.26-6.68c3.34-14.64,7.89-28.99,15.97-42.44c9.05-15.05,20.56-28.27,29.92-43.02
		c6.9-10.88,13.87-21.72,20.58-32.72c1.96-3.22,2.62-7.04,2.78-10.89c0.94-21.58,1.88-43.16,2.95-64.73
		c0.31-6.2-1.52-11.29-5.01-16.56c-9.94-15.02-20.03-30.17-26.75-46.87c-4.87-12.12-8.65-24.88-10.59-38.01
		c-0.67-4.52-1.86-8.99-3.18-13.37c-4.25-14-6.46-28.33-7.04-42.92c-0.11-2.74-0.68-5.35-1.7-7.87
		c-6.49-16.07-14.74-31.11-25.65-44.68c-9.8-12.18-16.29-26.3-19.22-41.4c-2.12-10.93-6.72-20.5-11.65-29.95
		c-4.61-8.83-9.25-17.73-13.31-26.74c-6.6-14.66-13.75-29.22-17.65-44.99C92.76,284.51,90.69,279.81,88.26,274.62z"/>
</g>
<polygon fill="#A576CB" points="-0.45,905.29 80.94,859.86 152.87,855.13 169.9,829.58 240.81,813.2 307.57,799.7 352.06,790.33 410.29,806.86 
	503.72,782.31 535.3,793.32 576.15,823.1 599.66,808.32 633.1,813.91 653.52,828.63 681.55,858.53 725.11,875.06 738.47,918.37 
	722.61,944.09 809.68,968.7 908.27,949.18 999.91,970.59 1052.91,1016.97 1121.05,1008.45 1181.62,1021.7 1177.84,1046.31 
	1224.21,1053.88 1244.92,1058.02 1262.07,1061.45 1303.71,1063.34 1333.41,1063.24 1350,1070 0,1070 "/>
</svg>
