<?xml version="1.0" encoding="utf-8"?>
<!-- Generator: Adobe Adobe Illustrator 24.2.0, SVG Export Plug-In . SVG Version: 6.00 Build 0)  -->
<svg version="1.1" id="Layer_1" xmlns="http://www.w3.org/2000/svg" xmlns:xlink="http://www.w3.org/1999/xlink" x="0px" y="0px"
	 width="1244px" height="1422px" viewBox="0 0 1244 1422" style="enable-background:new 0 0 1244 1422;" xml:space="preserve">
<style type="text/css">
	.st0{fill:#3A5790;}
	.st1{fill:#6677A7;}
	.st2{fill:#274D51;}
	.st3{fill:#556C6C;}
	.st4{fill:#345659;}
	.st5{fill:#471E48;}
</style>
<g>
	<path fill="#6F1E88" d="M1068.69,346.18c5.12,22.03,5.9,43.83,7.81,65.53c2.54,28.94,7.21,57.64,7.12,86.88c-0.07,22.83-4.55,44.95-7.17,67.38
		c-1.91,16.32-5.51,32.34-7.51,48.59c-2.05,16.64,2.89,31.76,11.75,45.94c11.05,17.66,24.12,34.15,30.34,54.63
		c6.42,21.15,13.56,41.96,11.29,64.68c-0.91,9.12-5.65,16.26-9.88,23.61c-5.51,9.56-13.32,17.47-21.36,25.01
		c-7.74,7.27-13.49,15.77-17.17,25.74c-6.99,18.96-8.87,39.29-16.19,58.24c-3.89,10.06-8.7,19.67-13.04,29.46
		c-5.9,13.31-12.15,26.26-13.71,41c-0.87,8.29-4.83,11.24-15.42,12.03c-10.82,0.8-21.62,0.82-31.61-6.29
		c-0.73,4.96,1.09,8.08,2.84,11.34c4.11,7.68,2.21,11.3-6.62,12.77c-11.57,1.92-23.14,0.37-34.61-0.77
		c-7.64-0.76-15.73,0.34-23.17-3.77c0.61-8.64,5.38-16.83,3.65-26.25c-10.76-0.15-20.98-2.29-31.17-4.66
		c-6.28-1.46-9.18-5.36-8.76-11.65c0.55-8.31,0.8-16.74,4.71-24.38c4.62-9.02,6-19.61,13.35-27.32c1.97-2.06,0.98-4.47,0.11-6.83
		c-3.38-9.17-5.41-18.63-5.22-28.45c0.11-6.02-2.05-9.93-8.68-10.44c-11.05,16.95-16.75,35.39-16.5,55.93
		c0.13,10.7-1.54,21.47-3.01,32.13c-1.44,10.4,4.97,17.09,10.32,24.39c7.37,10.06,4.87,17.04-7.37,17.78
		c-16.64,1-33.31,1.3-49.04-6.42c-5.19-2.55-5-6.38-5.18-10.61c-0.8-18.89,3.07-37.69,1.52-56.56c-1.38-16.75,2.39-32.33,7.7-48.04
		c4.5-13.3,2.83-27.12-0.77-40.62c-1.22-4.57-3.61-5.86-8.3-4.83c-28.52,6.25-57.59,7.77-86.6,10.02
		c-16.35,1.27-32.54,4.54-48.86,6.43c-20.32,2.34-40.7,4.22-61.06,6.23c-13.13,1.29-26.15,3.41-39.45,3.39
		c-16.31-0.02-32.2-2.91-48.09-5.79c-6.64-1.21-13.15-2.77-19.97-2.48c-3.58,0.15-6.78-0.89-6.79-5.1c0-4.43,3.75-3.96,6.6-3.87
		c11.86,0.39,23.75,1.79,35.57,1.32c33.89-1.35,67.61-3.73,100.91-11.51c23.58-5.51,46.71-12.76,70.4-17.6
		c19.3-3.94,38.09-9.43,56.74-15.48c15.44-5.01,28.96-13.97,42.63-22.55c3.93-2.47,6.16-5.73,7.77-9.88
		c7.73-19.9,21.25-35.29,36.28-50.25c9.37-9.32,17.84-20,26.55-30.2c14.62-17.1,32.25-30.49,50.19-43.74
		c16.64-12.29,27.14-28.3,29.98-49.7c1.45-10.93,6.37-21.72,11.29-31.81c15.88-32.57,22.39-67.13,23.81-102.97
		c0.85-21.56,2-43.09,1.66-64.69c-0.49-31.02-0.88-62.08-2.22-93.03c-1.09-25.18-3.75-50.45-6.93-75.59
		c-1.69-13.29-1.37-26.76-4.88-39.96c-5.47-20.57-12.99-40.32-20.61-60.15c-4.54-11.83-11.03-22.58-15.97-34.16
		c-3.52-8.23-12.71-9.96-20.78-11.71c-4.71-1.02-9.58-1.3-14.3-2.59c-4.91-1.34-7.34-4.68-7.87-9.17c-0.58-5,4.1-4.74,7.18-5.97
		c0.69-0.27,1.23-0.91,1.82-1.37c-0.88-2.1-2.77-1.63-4.24-2.05c-4.86-1.4-9.58-3.38-9.87-9.21c-0.31-6.25,1.71-11.8,7.96-14.64
		c2.68-1.22,5.6-1.91,8.41-2.83c4.5-1.47,6.85-4.14,5.32-9.15c-0.99-3.23-0.3-6.37,0.51-9.56c2.55-10.03,10.3-13.04,18.64-6.65
		c4.9,3.75,9.56,8.01,13.54,12.71c8.74,10.31,20.78,16.73,29.89,26.75c10.87,11.95,18.79,25.39,24.52,40.17
		c7.79,20.09,11.81,41.32,16.54,62.21c7.9,34.81,15.88,69.77,20.51,105.1c3.73,28.48,10.2,56.7,10.73,85.6
		C1067.25,339.09,1068.14,342.27,1068.69,346.18z M995.18,893.02c0.09-1.4,1.8-2.74,0-4.48c-0.99,1.73-1.53,3.78-2.86,4.85
		c-14.06,11.22-12.43,26.53-11.12,41.76c0.29,3.31-1.27,6.98,1.61,9.98c2.98-1.37,3.35-4.1,4.12-6.66
		C991.32,923.99,990.07,908.5,995.18,893.02z"/>
</g>
<polygon fill="#6F1E88" points="1088.07,940.56 1032.97,968.03 974.88,972.13 863.46,956.49 863.82,976.17 822.88,972.61 759.31,985.84 
	735.7,1029.59 662.44,1070.8 621.87,1087.59 637.13,1110.74 655.17,1114.55 621.27,1135.92 553.15,1168.82 526.27,1176.47 
	508.91,1196.55 467.92,1227.37 466.91,1255.75 421.36,1246.61 279.05,1317.22 252.41,1323.92 201.17,1309.31 156.77,1345.44 
	93,1366 0,1422 1244,1422 1244,958.37 1197.05,958.88 1209.35,947.44 1198.97,938 1125.61,941.07 "/>
</svg>
