<?xml version="1.0" encoding="utf-8"?>
<!-- Generator: Adobe Adobe Illustrator 24.2.0, SVG Export Plug-In . SVG Version: 6.00 Build 0)  -->
<svg version="1.1" id="Layer_1" xmlns="http://www.w3.org/2000/svg" xmlns:xlink="http://www.w3.org/1999/xlink" x="0px" y="0px"
	 width="560.3px" height="1240.15px" viewBox="0 0 560.3 1240.15" style="enable-background:new 0 0 560.3 1240.15;"
	 xml:space="preserve">
<style type="text/css">
	.st0{fill:#704D95;}
	.st1{fill:#704D95;}
	.st2{fill:#704D95;}
	.st3{fill:#704D95;}
	.st4{fill:#704D95;}
	.st5{fill:#704D95;}
</style>
<g>
	<path class="st2" d="M560.31,99.98c0,379.85,0,759.7-0.32,1139.87c-185.14,0.31-369.96,0.31-554.78,0.31
		c-1.73,0-3.45-0.04-5.21-0.34c4.48-21.54,9.07-42.8,13.47-64.09c6.84-33.13,13.58-66.27,20.29-99.42
		c4.7-23.23,9.13-46.51,13.95-69.72c2.62-12.61,5.82-25.1,8.75-37.65c4.14-17.74,5.79-35.88,8.43-53.86
		c2.53-17.31,4.57-34.69,7.22-51.97c4.06-26.5,8.46-52.95,12.7-79.42c0.6-3.73,1.13-7.47,1.68-11.13c-4.36-1.93-4.65-2.18-5.92-6.74
		c-0.67-2.43-1.27-4.92-1.57-7.41c-0.43-3.6,0.95-5.19,4.58-5.31c1.89-0.06,3.8,0.36,6.23,0.61c-0.39-1.22-0.68-2.24-1.04-3.23
		c-3.89-10.82-6.44-21.85-5.21-33.47c0.11-1.03,0.29-2.05,0.49-3.06c0.39-1.94,1.62-2.9,3.55-3.23c3.14-0.53,5.82,0.13,7.92,3.32
		c6.51-39.05,12.91-77.47,19.29-115.78c-3.16-1.83-2.95-4.72-3.62-7.64c1.1,0,1.94,0,2.55,0.16c0.03,1.14,0.29,2.13,0.69,3.69
		c0.74-1.92,1.2-3.12-0.45-4.13c-0.71-4.43-1.87-8.53-1.38-13.09c3.27,0.82,2.15,3.73,3.37,5.94c0.83-6.09,1.6-11.75,2.35-17.23
		c-3.51-2.34-5.08-5.47-5.76-9.04c-1.07-5.61-1.42-5.63,4.6-8.11c-1.46-1.23-3.73-1.95-3.26-4.42c0.36-1.88,0.57-4.08,1.68-5.45
		c1.53-1.89,3.67-3.58,5.9-4.53c1.87-0.8,2.6-1.68,3-3.57c1.73-8.09,3.62-16.16,5.51-24.22c0.57-2.45,0.93-5.13,4.05-5.94
		c-0.74-0.94-1.47-1.66-1.96-2.52c-1.89-3.33-0.76-6.11,2.92-7.18c1.29-0.38,2.64-0.58,4-0.87c4.89-17.02,9.88-33.89,17.9-49.75
		c-0.81-0.3-1.72-0.38-2.18-0.88c-0.43-0.47-0.71-1.54-0.46-2.06c0.93-1.92,1.54-3.8,0.42-6.07c1.58-0.23,2.8-0.4,4.15-0.6
		c-1.56-4.64-4.08-8.94-4.59-13.84c3.21-0.9,3.82-0.75,5.29,1.37c0.8,1.15,1.48,2.37,2.47,3.96c0.18-1.75,0.3-2.88,0.41-3.94
		c3.66-1.24,4.5-0.83,5.12,2.58c0.3,1.63,0.43,3.29,0.68,5.3c1.29-1.13,2.23-1.95,3.37-2.8c0.51-0.44,0.82-0.85,1.31-1.41
		c4.43-3.98,8.68-7.8,13-11.68c-0.83-1.27-1.54-2.3-2.19-3.36c-1.23-2.03-0.92-3.05,1.35-3.89c2.3-0.85,4.68-0.98,7.13-0.51
		c0.94,0.18,2.22,0.24,2.9-0.26c2.23-1.66,4.26-3.59,6.63-5.65c-2.71-0.96-4.75-1.44-7.16-0.85c-3.21,0.78-6.42,0.53-8.55-2.64
		c-0.8,0.3-1.54,0.57-2.29,0.88c-0.01,0.03,0.05,0.03-0.1-0.23c-0.97-2.51-3.41-4.66-0.52-7.18c-0.76-1.9-1.59-3.79-2.27-5.75
		c-0.98-2.84-0.13-4.11,2.89-4.36c1.37-0.12,2.8,0.18,4.14-0.07c4.41-0.81,7.05,1.05,8.39,5.16c0.06,0.18,0.33,0.29,0.57,0.49
		c3.07-1.4,5.96-1.31,9.09,0.44c3.7,2.07,3.85,1.8,3.61,6.07c-0.01,0.2,0.09,0.41,0.24,1.03c5.76-5.01,11.37-9.89,16.86-14.66
		c-1.08-2.53-2.8-4.48-3-7.32c3.79-0.15,3.12,4.11,5.49,5.31c0.1-0.57,0.24-0.92,0.19-1.24c-1.26-9.76-3.21-19.32-8.49-27.85
		c-0.83-1.34-1.92-2.62-3.16-3.58c-4.68-3.66-8.93-7.63-10.6-13.29c-2.15-0.5-4.25-0.46-5.62-1.44c-1.41-1.02-2.11-3.03-3.29-4.87
		c-3.06,0.11-5.94-1.21-8.79-3.71c4.54-4.1,9.25-5.98,15.25-4.04c0-1.23,0-2.07,0-2.95c-5.21,0.38-10.21,1.1-15.03-0.48
		c-3.07,3.3-6.75,3.57-9.52,0.82c1.55-3.53,2.83-4.05,8.3-3.43c0.3-0.95,0.4-1.98,0.91-2.75c1.13-1.73,2.34-3.45,3.75-4.94
		c0.9-0.94,2.15-1.84,3.39-2.1c1.54-0.33,2.37-1.1,3.17-2.33c1.5-2.32,3.12-4.56,4.76-6.77c1.18-1.59,2.87-2.62,4.79-2.08
		c2.42,0.67,4.7,0.38,7.09,0.14c1.44-0.15,2.95,0.28,4.42,0.51c1.35,0.21,2.69,0.49,4.03,0.78c2.31,0.5,5.01,0.47,5.3,3.82
		c0.02,0.27,0.37,0.65,0.64,0.74c2.61,0.9,2.91,2.92,2.14,5.56c2.72-1.12,4.82-1.57,6.72,0.62c0.47,0.54,1.74,0.43,2.65,0.54
		c1.14,0.14,2.3,0.11,3.43,0.28c4.46,0.68,4.99,1.47,3.97,5.7c-0.03,0.11-0.01,0.23-0.04,0.34c-0.74,3.05-2.08,3.94-5.24,3.54
		c-1.06-0.14-2.13-0.23-3.28-0.35c-0.07,1.29-0.12,2.09-0.16,2.89c-0.17,3.22-0.31,6.44-0.52,9.66c-0.3,4.62-2.44,8.06-6.62,10.19
		c-1.64,0.84-3.28,1.69-4.8,2.72c-3.76,2.53-4.97,8.5-2.46,12.25c3.83,5.72,6.38,11.96,7.79,18.68c0.2,0.97,0.51,1.93,0.87,3.25
		c1.21-1,2.15-1.78,2.69-2.23c-0.41-2.31-0.74-4.16-1.09-6.14c3.43-0.52,2.27,2.84,3.95,3.81c1.05-0.87,2.1-1.73,3.18-2.62
		c-0.14-0.85-0.52-1.67-0.35-2.36c0.61-2.45,1.36-4.87,2.15-7.27c0.2-0.62,0.69-1.2,1.19-1.65c2.5-2.24,5.06-4.4,8.74-3.86
		c0.39-2.89,1.07-3.92,3.67-4.19c1.99-0.21,4.13-0.04,6.05,0.51c1.41,0.4,2.13,0.24,2.76-0.87c-0.66-2.68-1.3-5.31-2-8.16
		c1.22-0.22,1.99-0.35,2.98-0.42c3.21,1.54,3.21,1.54,6.03-1.06c3.18-3.32,6.76-5.38,11.17-6.05c1.51-0.23,3.14-0.86,4.34-1.8
		c4.99-3.88,9.82-7.95,14.74-11.92c1.22-0.99,1.88-2.14,2.22-3.71c2.64-12.23,5.35-24.45,8.11-36.65c0.47-2.08,0.46-4.06-0.04-6.1
		c-0.99-4.01-1.91-8.04-2.84-12.34c-0.77-3.18-1.57-6.09-2.4-9.29c-0.11-0.86-0.13-1.44-0.26-2c-1.03-4.44-0.6-8.42,3.34-11.46
		c0.58-0.45,0.88-1.53,0.95-2.34c0.27-3.41,1.78-5.54,5.04-6.6c1.4-0.45,2.87-0.69,4.52-1.08c0.28-1.68,0.39-3.42,0.86-5.04
		c1.7-5.83,0.42-11.07-1.99-16.54c-2.87-6.5-7.3-10.96-13.58-13.94c-4.97-2.36-9.8-5.04-14.8-7.34c-4.62-2.12-9.47-3.53-14.65-2.37
		c-2.46,0.55-4.87,1.32-7.33,1.88c-3.2,0.72-4.97-0.02-6.71-2.81c-0.79-1.26-1.4-2.62-2.14-4.05c-2.11-0.38-4.29-0.61-6.38-1.18
		c-2.06-0.56-4.23-1.12-5.51-3.1c2.6-5.82,2.6-5.82,7.9-6.13c1.39-1.18,2.38-2.74,3.59-2.92c2.87-0.43,5.74,0.24,8.06,2.18
		c0.49,0.41,0.92,1.71,0.66,2.04c-1.24,1.59-1.12,3.36-1.23,5.18c-0.09,1.49-0.9,2.54-2.56,2.77c-0.85,0.12-1.67,0.48-2.73,0.81
		c0.71,1.42,1.17,2.61,1.84,3.66c1.51,2.37,1.99,2.61,4.82,1.81c4.44-1.25,8.83-2.65,13.13-3.96c-1.08-2.13-2.13-4.28-3.24-6.4
		c-0.47-0.9-1.06-1.73-1.56-2.87c0.07-0.64,0.1-1.01,0.13-1.37c0,0,0,0,0.12-0.03c0.16-0.11,0.25-0.19,0.23-0.25
		c-0.05-0.15-0.14-0.28-0.29-0.7c-0.48-2.89-0.86-5.51-1.29-8.12c-0.13-0.77-0.18-1.82-0.69-2.21c-1.62-1.25-1.33-2.69-0.45-4.44
		c-3.47-0.8-6.62-1.53-10.31-2.38c0.63,2.44,1.1,4.3,1.37,6.01c-0.85-0.89-1.5-1.64-2.26-2.6c-0.19-0.52-0.26-0.83-0.24-1.23
		c-0.17-0.07-0.42-0.06-0.71,0c-0.04,0.05-0.15,0-0.41-0.05c-1.15-0.01-2.04,0.03-3.22,0.13c-4.91,1.56-11.04-0.33-13.36-3.97
		c0.09-0.21,0.14-0.45,0.28-0.62c2.99-3.58,6.14-6.68,11.44-4.59c1.23,0.49,2.1-0.29,2.88-1.29c2.05-2.63,4.16-5.22,6.36-7.73
		c1.72-1.97,3.87-2.35,6.24-1.17c0.5,0.25,1.01,0.47,1.58,0.74c0.92-0.77,1.83-1.46,2.67-2.23c3.03-2.77,6.46-2.85,9.95-1.27
		c2.77,1.25,5.38,2.86,8.22,4.4c1.06-1.51,2.89-2.25,4.9-1.49c2.13,0.81,4.17,1.92,6.09,3.16c1.67,1.08,1.8,2.23,0.52,3.76
		c-1.19,1.42-2.63,2.63-4.05,4.01c1.44,0.49,3.07,1,4.67,1.6c1.69,0.64,3.51,1.18,4.15,3.39c-2.07,3.07-5.06,5.06-8.17,6.72
		c-3.55,1.9-6.86-0.54-10.38-1.43c-3.07,5.82-7.8,6.84-13.58,4.34c0.2,11.58,7.6,22.4,17.81,26.49c3.73,1.49,7.47,2.98,11.21,4.46
		c0.66,0.26,1.35,0.45,1.63,0.54c-1.01-5.09-2.02-10.11-3.03-15.19c-3.92,0.76-7.53-0.09-10.67-2.56c-1.25-0.99-2.6-2.17-0.87-3.98
		c0.22-0.23,0.07-1.03-0.15-1.43c-0.68-1.2-0.36-2.18,0.42-3.17c0.71-0.91,1.39-1.84,2.02-2.8c0.91-1.38,2.17-1.94,3.79-1.97
		c5.9-0.11,11.1,1.74,15.53,5.62c2.92,2.56,2.32,6.11-1.31,7.62c-1.13,0.47-2.46,0.49-3.7,0.62c-0.86,0.09-1.74,0.02-2.72,0.02
		c0.26,4.95,1.67,9.44,3.17,13.9c1.26,3.77,3.04,7.17,6.63,9.36c1.35,0.82,2.4,2.13,3.61,3.2c0.54,0.48,1.14,0.89,1.98,1.55
		c1.14-7.31,2.22-14.21,3.26-20.89c-1.54-1.4-2.79-2.54-4.03-3.67c1.28-2.06,3.21-1.41,4.64-1.69c1.5-2.91,0.75-5.15-1.19-7.37
		c-1.54-1.76-2.71-3.86-4.03-5.8c2.21-1.92,4-1.22,5.5-0.45c2.16-0.53,2.69-1.93,3.02-3.8c1.26-7.14,2.6-14.27,4.21-21.33
		c0.57-2.49,0.08-4.32-1.17-6.44c-4.39-7.39-11.42-12.25-17.19-18.31c-0.8-0.84-1.79-1.26-2.91,0.03c-0.79,0.91-1.94,0.52-2.52-0.59
		c-1-1.9-1.92-3.84-2.94-5.9c1.05-0.49,1.73-0.81,2.39-1.12c-0.27-1.43-0.52-2.74-0.78-4.06c2.94-1.45,2.78,1.61,3.97,2.6
		c1.36-1.07,2.51-1.98,3.7-2.92c-1.19-4.29-2.53-8.33-3.39-12.48c-0.62-3.02-1.99-5.23-4.47-7c-3.32-2.36-5.3-5.65-6.2-9.65
		c-0.78-3.42-0.85-3.39-4.25-3.54c-1.94-0.09-3.93-0.11-5.22-2.26c0.75-0.81,1.46-1.59,2.35-2.55c-3.17-0.25-5.93,0.07-8.66,1.2
		c-2.64,1.1-5.42,1.73-8.42-0.45c1.21-1.36,2.06-2.83,3.32-3.59c1.35-0.82,2.29-1.73,3.01-3.1c0.75-1.41,1.77-2.69,2.63-4.04
		c1.17-1.83,2.92-2.77,4.97-2.49c2.5,0.35,4.15-0.67,5.62-2.46c0.58-0.7,1.46-1.18,1.98-1.92c1.6-2.29,3.89-2.71,6.41-2.49
		c1.82,0.16,3.72,0.16,5.42,0.74c2.02,0.68,4.86,0.44,5.08,3.74c1.13,0,2.04-0.02,2.95,0c0.92,0.02,1.85,0.02,2.76,0.14
		c3.89,0.51,4.7,1.82,3.52,5.53c-0.08,0.26,0.02,0.59,0.05,0.94c3.41,0.38,7.23-1.59,9.93,1.86c-1.84,3.46-3.76,4.35-8.07,3.91
		c-3.05-0.31-3.14-0.22-3.97,2.78c-0.77,2.78-1.48,5.62-4.57,6.91c-0.34,0.14-0.68,0.67-0.74,1.07c-0.42,2.58-2.24,4.2-3.89,5.97
		c-2.36,2.55-2.37,3.68-0.43,6.67c1.25,1.92,2.41,3.91,3.49,5.94c1.07,2.02,2,4.11,3.03,6.27c9.06-7.72,19.84-12.37,29.45-18.86
		c-0.69-0.81-1.39-1.62-2.54-2.97c2.14-0.24,3.64-0.41,5.3-0.59c-0.27-1.04-0.58-2.12-0.82-3.21c-0.42-1.91-0.93-3.81-1.15-5.74
		c-0.22-2.03,0.64-2.85,2.64-2.4c0.97,0.22,1.98,1.05,2.6,1.88c0.66,0.87,0.9,2.07,1.38,3.28c0.45-0.37,0.81-0.64,1.14-0.93
		c1.38-1.25,3.02-1.29,4.49-0.47c1.36,0.75,0.75,2.23,0.63,3.47c-0.03,0.27,0.14,0.56,0.18,0.69c10.41-3.76,20.71-7.48,31.01-11.2
		c-2.06-5.08-4.39-7.32-8.93-8.24c-1.9-0.39-3.89-0.4-5.83-0.54c-1.38-0.1-2.76-0.1-4.13-0.2c-3.08-0.23-5.11-1.9-6.22-4.72
		c-0.5-1.26-0.91-2.57-1.34-3.82c-2.53-0.37-5.3,0.44-7.16-2.46c1.1-1.3,2.21-2.62,3.52-4.17c-2.07,0-3.98-0.51-5.44,0.09
		c-4.59,1.9-8.63,0.01-13-0.91c0.28-0.69,0.33-1.2,0.54-1.29c3.01-1.19,4.15-4.07,5.9-6.4c0.69-0.92,1.47-1.78,2.14-2.71
		c1.83-2.54,4.28-3.31,7.28-2.68c0.99,0.21,2,0.29,3.1,0.45c1.16-2.15,2.18-4.21,3.37-6.16c1.45-2.39,3.82-2.72,6.17-1.16
		c0.96,0.64,2.1,0.99,3.04,1.43c2.63-2.8,3.96-6.28,8.29-6.2c3.95,0.08,6.63,1.87,8.98,4.78c-0.8,1.38-1.53,2.64-2.5,3.99
		c-1.08,0.38-1.92,0.69-2.93,1.05c-0.09,1.05-0.17,2.12-0.26,3.19c0.17,0.06,0.34,0.13,0.5,0.19c0.34-0.49,0.68-0.97,1.16-1.58
		c0.31-0.31,0.48-0.49,0.83-0.7c0.43-0.29,0.67-0.55,1.16-0.93c4.12-2.17,8.05-1.58,11.95-0.26c1.16,0.39,2.55,0.91,3.18,1.82
		c0.53,0.77,0.11,2.2,0.11,3.48c0.94,0.07,1.97,0.09,2.99,0.23c1.25,0.17,2.53,0.31,3.71,0.7c1.46,0.48,2.78,1.32,2.71,3.14
		c-0.07,1.72-0.83,3.16-2.45,3.86c-1.03,0.45-2.21,0.57-3.33,0.83c-1.74,0.4-3.48,0.8-5.43,1.24c0.82,3.89-0.61,6.82-2.62,9.62
		c-3.02,4.21-2.6,8.54-0.24,13.07c5.87-1.5,11.63-2.98,17.27-4.42c-0.95-2.4-1.85-4.67-2.88-7.3c1.13-0.1,1.91-0.4,2.15-0.15
		c1.19,1.18,2.24,2.5,3.44,3.89c0.89,0.02,2.42-1.06,2.67,1.31c0.15,0.43,0.32,0.64,0.48,0.87c-0.01,0.01,0-0.02,0.05,0.09
		c0.24,0.07,0.44,0.03,0.79-0.06c0.16-0.06,0.5-0.04,0.78,0c2.17-0.42,4.07-0.88,6.13-1.39c0.16-0.06,0.5-0.03,0.72,0
		c0.54-0.21,0.86-0.46,1.26-0.93c2.79-5.14,7.64-6.15,12.53-6.95c2.22-3.93,3.6-5.54,6.01-6.99c5.5-3.33,11.12-2.08,14.48,3.18
		c0.22,0.35,0.58,0.7,0.96,0.84c2.43,0.93,4.28,2.55,5.9,4.55c0.35,0.44,1.23,0.45,2.08,0.73c0.1-1.01,0.07-1.59,0.22-2.12
		c0.24-0.82,0.61-1.6,0.92-2.4c0.8,0.46,1.59,0.92,2.28,1.32c0.81-0.09,1.64-0.18,2.63-0.29c0.08,1.29,0.14,2.29,0.2,3.24
		c2.86,1.05,2.86,1.05,2.1,4.76c1.83,2.72,3.69,5.35,5.4,8.06c1.65,2.61,2.88,5.51,5.4,7.97c0-2.2-0.09-3.81,0.05-5.4
		c0.05-0.53,0.67-1.01,1.03-1.51c0.47,0.39,1.06,0.7,1.38,1.19c1.05,1.61,1.64,4.07,3.09,4.74c2.22,1.03,1.73,2.3,1.62,3.73
		c-1.05,0.76-2,1.46-3.06,2.23c1.65,1.95,3.05,3.6,4.49,5.45c0.47,0.41,0.91,0.63,1.39,1.08c1.08,1.57,2.11,2.9,3.16,4.26
		c3.53-1.82,6.82-3.28,10.48-2.95c1.66,0.15,3.38,0.62,4.89,1.34c1.39,0.65,2.51,1.85,3.78,2.77c2.83,2.06,3.24,4.22,1.22,7.06
		c-0.85,1.2-1.81,2.32-2.76,3.53c0.47,0.22,0.78,0.36,1.09,0.52c3.85,1.97,4.35,4.37,1.34,7.52c-1.3,1.36-3.01,2.33-4.74,3.63
		c1.27,1.81,2.53,3.62,3.99,5.7c0.42-1.01,0.63-1.54,0.85-2.07c1.02-2.43,1.88-2.97,4.08-2.54c1.94,0.38,2.47,1.18,2.33,3.88
		c-0.07,1.25-0.41,2.49-0.52,3.75c-0.09,0.96-0.02,1.94-0.02,2.91c2.01-0.02,3.91-0.84,5.47,1.29c-1.74,1.21-3.3,2.29-5.02,3.48
		c1.79,2.68,3.45,5.18,5.3,7.94c0.66-4.15,1.01-7.83,1.87-11.38c1.13-4.68,2.38-8.11,9.54-7.55
		C559.86,100.15,560.09,100.03,560.31,99.98z M391.48,21.23c0.15-0.23,0.3-0.46,0.87-0.82c1.16-1.06,2.31-2.12,3.47-3.18
		c0.91-0.83,0.47-1.32-0.64-2.06c-0.27,0.15-0.54,0.3-1.04,0.84c-1.08,1.45-2.17,2.9-3.71,4.38c-0.47,0.29-0.93,0.58-1.48,1.42
		c1.36,4.5,2.55,9.05,4.18,13.45c0.59,1.6,1.97,3.19,3.41,4.13c3.36,2.17,6.41,4.42,7.64,8.48c0.44,1.45,1.44,1.17,2.38,0.48
		c-1.73-7.47-3.46-14.89-5.14-22.15c-2.99-0.46-5.72-0.77-8.4-1.34c-2.44-0.52-2.59-0.98-1.92-3.63
		C391.1,21.22,391.07,21.29,391.48,21.23z M157.55,434.4l-0.13-0.09c0,0,0.16,0.01-0.07,0.49c0.28,0.96,0.56,1.92,0.96,3.3
		c0.65-0.9,1.01-1.41,1.46-2.03C158.92,435.4,158.21,434.84,157.55,434.4z M222.17,340.82c0.21-0.52,0.55-1.02,0.61-1.55
		c0.38-3.67,2.4-6.06,5.62-7.68c1.74-0.87,3.38-1.94,5.02-2.99c1.71-1.09,2.88-2.67,3.38-4.62c1.35-5.25,1.18-10.62,1.4-16.06
		c-2.09-0.53-3.7-0.47-5.35,0.29c-2.36,1.09-4.82,1.26-7.4,0.78c-1.37-0.25-2.83-0.05-4.51-0.05c0,2.18,0.1,3.91-0.02,5.61
		c-0.19,2.78-0.67,5.51-2.8,7.58c-2.5,2.43-3.53,5.54-4.38,8.81c-0.48,1.83-0.06,3.11,1.34,4.24
		C217.3,336.98,219.51,338.81,222.17,340.82z M218.91,309.55c-0.46-0.67-0.91-1.35-1.65-2.44c-1.26,2.92-3.42,3.28-5.66,3.09
		c-1.45-0.12-2.85-0.71-4.28-1.06c-0.15-0.04-0.33,0.06-0.65,0.13c0.18,0.91,0.35,1.78,0.49,2.46c1.4,0.53,2.6,0.99,4.14,1.57
		c-1.02,1.34-1.84,2.16-2.35,3.13c-0.51,0.97-1.1,2.13-0.99,3.14c0.39,3.53,1.21,6.98,3.07,10.21c0.29-0.36,0.64-0.59,0.7-0.87
		c0.57-3.17,2.35-5.61,4.34-8.06c1.16-1.43,1.74-3.44,2.21-5.29C218.73,313.81,218.7,311.93,218.91,309.55z M322.42,57.45
		c0-1.35,0-2.71,0-4.07c-2.64,0.04-2.6,0.07-3.53,1.46c-0.5,0.75-1.15,1.41-1.78,2.06c-2.02,2.11-4.71,2.63-7.65,2.93
		c0.66,4.81,2.61,8.59,6.42,11.13c0.94-1.33,1.62-2.72,2.68-3.69C321.3,64.76,322.48,61.69,322.42,57.45z M377.26,34.64
		c1.01,2.73,2.56,4.94,5.77,5.1c2.57,0.13,5.15,0.03,7.73,0.03c-1.2-3.77-2.34-7.37-3.57-11.26c-1.47,2.35-3.43,2.9-5.74,2.99
		c-1.61,0.06-3.2,0.57-4.89,0.89C376.84,33.28,376.98,33.71,377.26,34.64z M405.53,33.7c0.16,0.62,0.33,1.24,0.65,2.44
		c2.15-3.78,4.87-6.7,3.56-11.14c-1.99,0.2-3.86,0.38-5.94,0.59C404.39,28.32,404.92,30.77,405.53,33.7z M206.34,324.72
		c-0.27-1.55-0.54-3.11-0.84-4.81c-0.9,0.09-1.55,0.14-2.2,0.24c-0.64,0.1-1.28,0.24-1.91,0.37
		C202.1,324.66,202.37,324.93,206.34,324.72z M327.43,52.94c-0.99,0.09-1.98,0.18-3.02,0.28c0,2.27,0,4.26,0,7.09
		C326.71,57.92,327.61,55.74,327.43,52.94z M384.55,22.97c-0.98,0.32-1.95,0.64-3.05,1c1.84,0.32,3.47,0.6,5.59,0.96
		C386.38,23.63,387.37,21.6,384.55,22.97z"/>
	<path class="st3" d="M269.17,147.99c2.3,5.4,5.99,9.21,11.08,12.04c0.19,0.44,0.16,0.8,0.09,1.44c-2.38-1.34-4.82-2.84-7.06-4.59
		c-3.5-2.73-5.14-6.63-6.25-11.04C267.68,146.35,268.32,147.09,269.17,147.99z"/>
	<path class="st4" d="M554.85,98.48c-1.42-0.65-3.14-1.02-3.61-1.99c-0.98-2.01-1.29-4.34-1.87-6.53c-0.03-0.1,0.02-0.23,0.05-0.34
		c0.53-1.48,3.31-2.39,6.17-2.01c2.56,0.34,3.76,1.25,3.73,3.24c-0.03,1.83-0.29,3.67-0.69,5.46
		C558.24,98.1,556.67,98.36,554.85,98.48z"/>
</g>
</svg>
