<?xml version="1.0" encoding="utf-8"?>
<!-- Generator: Adobe Illustrator 18.0.0, SVG Export Plug-In . SVG Version: 6.00 Build 0)  -->
<!DOCTYPE svg PUBLIC "-//W3C//DTD SVG 1.1//EN" "http://www.w3.org/Graphics/SVG/1.1/DTD/svg11.dtd">
<svg version="1.1" id="Layer_1" xmlns="http://www.w3.org/2000/svg" xmlns:xlink="http://www.w3.org/1999/xlink" x="0px" y="0px"
	 viewBox="0 0 612 792" enable-background="new 0 0 612 792" xml:space="preserve">
<g>
	<path fill="#A576CB" d="M587.3,282c-8.4-1-17,0.6-25,3.7c-8.2,3.1-15.8,7.6-22.5,13.2c-4.9-9.3-13.3-23.6-13.8-21.5
		c-0.5,2.6,5.1,22.4,5.1,24.5c0,2.1-10.6,15.3-12.7,15.8c-4.8,1.2-19.3-25.3-23.3-28.8c-5.1-4.5-15.2-8.9-22-9.4
		c-14.3-1-29.3-0.9-43.2,2.4l0,0c11.9,3.9,22,1.8,32.1,10.5c9.3,8.1,18.4,16.9,24.5,27.7c3.7,6.5,4.4,16,11.9,19.3
		c-1.7,1.3-3.1,2.4-3.5,2.7c-1.3,1-4.5,3.8-5.4,6.7c-0.9,2.8-1.3,4.8,0,3.7s2.4-5,8.9-9.3c1.2-0.9,2.6-1.8,3.9-2.8
		c2.9,0.2,6.1-0.4,9.2-1.3c-2.8,2.2-5.4,4.2-6,4.7c-1.3,1-4.5,3.8-5.4,6.7c-0.9,2.8-1.3,4.8,0,3.7c1.3-1.1,2.4-5,8.9-9.3
		c6.5-4.4,14.7-11.8,14.7-11.8c3.1-2.6,10.6-16.8,10.6-16.8l9.2,7.6l-5.1-11.8l12.2,9.7c0,0-4.4-9.7-7.8-17.3c2.9-2,5.9-3.9,8.7-5.9
		C562.4,291,574.1,283.4,587.3,282z"/>
	<path fill="#A576CB" d="M480.4,159.2c-8.4-1-17,0.6-25,3.7c-8.2,3.1-15.8,7.6-22.5,13.2c-4.9-9.3-13.3-23.6-13.8-21.5
		c-0.5,2.6,5.1,22.4,5.1,24.5c0,2.1-10.6,15.3-12.7,15.8c-4.8,1.2-19.3-25.3-23.3-28.8c-5.1-4.5-15.2-8.9-22-9.4
		c-14.3-1-29.3-0.9-43.2,2.4l0,0c11.9,3.9,22,1.8,32.1,10.5c9.3,8.1,18.4,16.9,24.5,27.7c3.7,6.5,4.4,16,11.9,19.3
		c-1.7,1.3-3.1,2.4-3.5,2.7c-1.3,1-4.5,3.8-5.4,6.7c-0.9,2.8-1.3,4.8,0,3.7c1.3-1.1,2.4-5,8.9-9.3c1.2-0.9,2.6-1.8,3.9-2.8
		c2.9,0.2,6.1-0.4,9.2-1.3c-2.8,2.2-5.4,4.2-6,4.7c-1.3,1-4.5,3.8-5.4,6.7c-0.9,2.8-1.3,4.8,0,3.7c1.3-1.1,2.4-5,8.9-9.3
		c6.5-4.4,14.7-11.8,14.7-11.8c3.1-2.6,10.6-16.8,10.6-16.8l9.2,7.6l-5.1-11.8l12.2,9.7c0,0-4.4-9.7-7.8-17.3c2.9-2,5.9-3.9,8.7-5.9
		C455.5,168.2,467.1,160.5,480.4,159.2z"/>
	<path fill="#A576CB" d="M274.1,203.2c-13.1-1.6-26.4,1-38.8,5.6c-12.7,4.8-24.7,11.9-35.1,20.6c-7.6-14.4-20.9-36.8-21.5-33.7
		c-0.7,3.9,8,34.9,8,38.1c0,3.2-16.6,23.7-19.8,24.6c-7.3,1.8-30.2-39.4-36.2-44.8c-8-7-23.7-14-34.3-14.7
		c-22.3-1.6-45.5-1.3-67.4,3.8c0,0,0,0,0.1,0c18.6,6.1,34.3,2.9,49.9,16.4c14.4,12.5,28.6,26.3,38.2,43.1c5.8,10.2,7,25,18.4,30.1
		c-2.7,2.1-4.9,3.8-5.5,4.2c-2.1,1.5-7.1,6-8.4,10.4c-1.3,4.4-2.1,7.5,0,5.8c2.1-1.7,3.7-7.8,14-14.6c2-1.3,4-2.8,6.1-4.4
		c4.5,0.4,9.5-0.6,14.3-2.1c-4.4,3.4-8.4,6.6-9.3,7.2c-2.1,1.5-7.1,6-8.4,10.4c-1.3,4.4-2.1,7.5,0,5.8s3.7-7.8,14-14.6
		c10.2-6.7,22.9-18.2,22.9-18.2c4.8-3.9,16.6-26.2,16.6-26.2l14.3,11.9l-8-18.2l19,15.1c0,0-6.7-15.1-12.2-26.8
		c4.5-3.1,9.1-6.1,13.6-9.2C235.3,217.3,253.5,205.3,274.1,203.2z"/>
</g>
</svg>
